<svg width="48" height="48" viewBox="0 0 48 48" fill="none" xmlns="http://www.w3.org/2000/svg">
<circle cx="24" cy="24" r="23.5" fill="#F5F5F5" stroke="black" stroke-linejoin="round" stroke-dasharray="4 4"/>
<path fill-rule="evenodd" clip-rule="evenodd" d="M10.9518 17.6426C10.4273 17.1269 10.4429 16.261 10.9868 15.7085L14.6216 12.016C15.1654 11.4636 16.0315 11.4338 16.556 11.9495L33.0547 28.172C33.2193 28.3339 33.5328 28.5366 33.5915 28.7631L34.6593 33.6402C34.9219 34.6531 33.9653 35.6249 32.9476 35.3791L28.0502 34.3193C27.8227 34.2643 27.6152 34.027 27.4505 33.8651L10.9518 17.6426Z" fill="url(#paint0_linear_732_20997)"/>
<path fill-rule="evenodd" clip-rule="evenodd" d="M30.1223 31.5513L16.6165 18.2734L17.3168 17.562L30.8226 30.8399L32.2719 29.3674C32.8161 28.8145 33.2006 28.4274 33.2006 28.4274C33.2663 28.492 33.332 28.5214 33.391 28.5478C33.4798 28.5875 33.5533 28.6203 33.5886 28.7565L34.6571 33.6372C34.9198 34.6509 33.9626 35.6234 32.9443 35.3774L28.0437 34.3168C27.9141 34.2855 27.8901 34.1943 27.8631 34.0917C27.8426 34.014 27.8205 33.9298 27.7495 33.86C27.7495 33.86 28.0906 33.6155 28.6348 33.0626L30.1223 31.5513Z" fill="white"/>
<path fill-rule="evenodd" clip-rule="evenodd" d="M11.6805 17.1654L14.0311 19.4526L18.3809 15.0428L15.9675 12.6842C15.7052 12.4264 15.533 12.4133 15.261 12.6896L11.6726 16.3238C11.4007 16.6 11.4182 16.9076 11.6805 17.1654ZM28.0385 33.0819L14.7464 20.1486L19.089 15.7349L32.4294 28.7721C32.4645 28.8066 32.502 28.8973 32.5358 28.9988L28.282 33.2541L28.2475 33.2456C28.1652 33.2257 28.1356 33.1912 28.0944 33.1429C28.0786 33.1246 28.0612 33.1042 28.0385 33.0819ZM32.8264 30.1035L29.3924 33.5268L31.6312 34.0765L33.3564 32.191L32.8264 30.1035ZM10.9856 15.7087C10.4418 16.2611 10.4261 17.127 10.9507 17.6427L27.4505 33.8653L27.4734 33.888L27.5206 33.9355C27.6724 34.0888 27.8538 34.272 28.0502 34.3195L32.9476 35.3793C33.9653 35.6251 34.9219 34.6533 34.6593 33.6404L33.5915 28.7633C33.5482 28.5962 33.3663 28.4421 33.2077 28.3077L33.2077 28.3077L33.2075 28.3076C33.1512 28.2598 33.0978 28.2146 33.0546 28.1722L16.5548 11.9496C16.0303 11.4339 15.1642 11.4637 14.6204 12.0162L10.9856 15.7087Z" fill="#333333"/>
<defs>
<linearGradient id="paint0_linear_732_20997" x1="9.78044" y1="16.9341" x2="23.0839" y2="8.90163" gradientUnits="userSpaceOnUse">
<stop stop-color="#FF8E3D"/>
<stop offset="1" stop-color="#FF6F3D"/>
</linearGradient>
</defs>
</svg>
