<svg width="20" height="20" viewBox="0 0 20 20" fill="none" xmlns="http://www.w3.org/2000/svg">
<path id="Vector" fill-rule="evenodd" clip-rule="evenodd" d="M19.9629 8.06817C19.5588 12.1003 15.9565 15.0419 11.917 14.6385C11.0387 14.5508 10.2121 14.3122 9.4603 13.951C9.04195 13.75 8.53386 13.8015 8.20511 14.1292L3.01805 19.2983C2.62849 19.6865 1.99857 19.6873 1.60805 19.3001L0.714335 18.4139C0.320509 18.0234 0.319713 17.387 0.712561 16.9955L5.87817 11.8477C6.21112 11.5159 6.26119 10.9999 6.0529 10.5786C5.46469 9.38863 5.19255 8.02497 5.33465 6.60736C5.73881 2.57526 9.34111 -0.366397 13.3806 0.0369948C17.4201 0.440386 20.3671 4.03607 19.9629 8.06817ZM17.8732 7.85949C17.5845 10.7396 15.0114 12.8407 12.1261 12.5526C9.24072 12.2645 7.13571 9.69613 7.4244 6.81605C7.71309 3.93598 10.2862 1.83479 13.1715 2.12293C16.0569 2.41107 18.1619 4.97941 17.8732 7.85949Z" fill="#808080"/>
</svg>
