<svg width="25" height="24" viewBox="0 0 25 24" fill="none" xmlns="http://www.w3.org/2000/svg">
<g opacity="0.4">
<path fill-rule="evenodd" clip-rule="evenodd" d="M3.31348 12C3.31348 7.0275 7.34098 3 12.3135 3C17.286 3 21.3135 7.0275 21.3135 12C21.3135 16.9725 17.286 21 12.3135 21C7.34098 21 3.31348 16.9725 3.31348 12ZM8.77772 9.87868C8.3872 9.48816 8.3872 8.85499 8.77772 8.46447C9.16825 8.07394 9.80141 8.07394 10.1919 8.46447L12.3133 10.5858L14.4346 8.46447C14.8251 8.07394 15.4583 8.07394 15.8488 8.46447C16.2393 8.85499 16.2393 9.48816 15.8488 9.87868L13.7275 12L15.8488 14.1213C16.2393 14.5118 16.2393 15.145 15.8488 15.5355C15.4583 15.9261 14.8251 15.9261 14.4346 15.5355L12.3133 13.4142L10.1919 15.5355C9.80141 15.9261 9.16825 15.9261 8.77772 15.5355C8.3872 15.145 8.3872 14.5118 8.77772 14.1213L10.899 12L8.77772 9.87868Z" fill="#444444"/>
</g>
</svg>
