<svg width="24" height="24" viewBox="0 0 24 24" fill="none" xmlns="http://www.w3.org/2000/svg">
<path fill-rule="evenodd" clip-rule="evenodd" d="M17.288 5.29067C17.6785 4.90021 18.3155 4.90407 18.706 5.29458C19.0963 5.6851 19.1003 6.32207 18.7099 6.71255L13.4218 11.9997L18.7099 17.2877C19.1001 17.6783 19.0964 18.3153 18.706 18.7057C18.3156 19.0961 17.6786 19.0998 17.288 18.7096L11.9999 13.4215L6.71282 18.7096C6.32234 19.0999 5.68534 19.096 5.29485 18.7057C4.90438 18.3152 4.90057 17.6783 5.29095 17.2877L10.579 11.9997L5.29095 6.71255C4.90042 6.32202 4.90433 5.6851 5.29485 5.29458C5.68538 4.90405 6.3223 4.90015 6.71282 5.29067L11.9999 10.5788L17.288 5.29067Z" fill="#444444"/>
</svg>
