<svg width="42" height="40" viewBox="0 0 42 40" fill="none" xmlns="http://www.w3.org/2000/svg">
<rect x="0.25" width="41.25" height="40" rx="12" fill="#A8D548"/>
<path d="M29.9044 15.2624C28.8842 15.2624 28.0588 16.0899 28.0588 17.1113V23.6647C28.0588 24.1554 28.2532 24.626 28.5994 24.973C28.9455 25.32 29.4149 25.5149 29.9044 25.5149C30.3939 25.5149 30.8633 25.32 31.2094 24.973C31.5556 24.626 31.75 24.1554 31.75 23.6647V17.1113C31.75 16.0899 30.9246 15.2624 29.9044 15.2624ZM11.5956 15.2624C10.5754 15.2624 9.75 16.0899 9.75 17.1113V23.6647C9.75 24.1554 9.94445 24.626 10.2906 24.973C10.6367 25.32 11.1061 25.5149 11.5956 25.5149C12.0851 25.5149 12.5545 25.32 12.9006 24.973C13.2467 24.626 13.4412 24.1554 13.4412 23.6647V17.1113C13.4414 16.8683 13.3938 16.6277 13.3011 16.4032C13.2084 16.1787 13.0724 15.9747 12.901 15.803C12.7295 15.6313 12.526 15.4951 12.302 15.4024C12.078 15.3096 11.838 15.262 11.5956 15.2624ZM24.4224 9.75207L25.5307 7.7441C25.5631 7.68693 25.5838 7.62388 25.5917 7.55861C25.5996 7.49334 25.5944 7.42715 25.5766 7.36389C25.5587 7.30063 25.5285 7.24155 25.4877 7.1901C25.4468 7.13864 25.3962 7.09584 25.3387 7.06416C25.2814 7.03177 25.2183 7.01112 25.153 7.00341C25.0876 6.9957 25.0214 7.00109 24.9582 7.01926C24.8949 7.03743 24.8359 7.06803 24.7846 7.10926C24.7332 7.1505 24.6906 7.20156 24.6591 7.25946L23.5206 9.31373C22.6721 8.97376 21.737 8.78136 20.75 8.78136C19.763 8.78136 18.8279 8.97232 17.9794 9.31228L16.8409 7.26091C16.8094 7.203 16.7668 7.15195 16.7154 7.11071C16.6641 7.06947 16.6051 7.03888 16.5418 7.02071C16.4786 7.00254 16.4124 6.99715 16.3471 7.00486C16.2817 7.01257 16.2186 7.03322 16.1613 7.06561C16.1041 7.09757 16.0537 7.14052 16.0131 7.19201C15.9725 7.2435 15.9424 7.30251 15.9246 7.36567C15.9068 7.42882 15.9016 7.49489 15.9092 7.56007C15.9169 7.62526 15.9373 7.68828 15.9693 7.74554L17.0776 9.75352C15.0819 10.8935 13.7486 12.9318 13.7486 15.2624C13.7486 15.2783 13.7486 15.2928 13.7514 15.3116C13.7486 15.3203 13.7486 15.3304 13.7486 15.3391V15.3405H27.75V15.3391V15.3116V15.2624C27.7514 12.9318 26.4181 10.8949 24.4224 9.75207ZM17.5177 12.5991C17.452 12.5986 17.3871 12.5852 17.3266 12.5596C17.2661 12.5339 17.2113 12.4966 17.1652 12.4497C17.0721 12.3551 17.0203 12.2272 17.0213 12.0942C17.0222 11.9613 17.0758 11.8342 17.1703 11.7408C17.2647 11.6475 17.3923 11.5956 17.5249 11.5966C17.6575 11.5975 17.7843 11.6513 17.8774 11.746C17.9705 11.8406 18.0222 11.9685 18.0213 12.1015C18.0203 12.2344 17.9667 12.3615 17.8723 12.4549C17.7778 12.5482 17.6503 12.6001 17.5177 12.5991ZM23.9823 12.5991C23.8565 12.5895 23.7389 12.5326 23.6531 12.4398C23.5673 12.347 23.5196 12.2251 23.5196 12.0986C23.5196 11.972 23.5673 11.8501 23.6531 11.7573C23.7389 11.6645 23.8565 11.6076 23.9823 11.598C24.1147 11.598 24.2417 11.6508 24.3354 11.7446C24.429 11.8385 24.4816 11.9658 24.4816 12.0986C24.4816 12.2313 24.429 12.3586 24.3354 12.4525C24.2417 12.5464 24.1147 12.5991 23.9823 12.5991ZM13.7486 25.9822C13.7486 26.9168 14.5061 27.6763 15.4426 27.6763H16.2882V31.1497C16.2882 31.6404 16.4827 32.1111 16.8288 32.4581C17.1749 32.8051 17.6444 33 18.1338 33C18.6233 33 19.0928 32.8051 19.4389 32.4581C19.785 32.1111 19.9794 31.6404 19.9794 31.1497V27.6763H21.5177V31.1497C21.5177 32.1725 22.3431 32.9986 23.3604 32.9986C24.3835 32.9986 25.2089 32.1725 25.2089 31.1497V27.6763H26.0545C26.9895 27.6763 27.7486 26.9182 27.7486 25.9822V15.7225H13.7486V25.9822Z" fill="white"/>
</svg>
