<svg width="518" height="424" viewBox="0 0 518 424" fill="none" xmlns="http://www.w3.org/2000/svg">
<path d="M59.5 155V218C52.9229 197.681 55.3431 195.868 39 186.486C54.9444 183.435 54.9444 176.096 59.5 155ZM59.5 155V218C66.0771 197.681 63.6569 195.868 80 186.486C64.0556 183.435 64.0556 176.096 59.5 155Z" fill="#CCCCCC" fill-opacity="0.5"/>
<path d="M424 56V119C417.263 98.6811 419.742 96.868 403 87.4856C419.333 84.4349 419.333 77.1247 424 56ZM424 56V119C430.737 98.6811 428.258 96.868 445 87.4856C428.667 84.4349 428.667 77.1247 424 56Z" fill="#CCCCCC" fill-opacity="0.5"/>
<path d="M294 29V71C289.492 57.4582 291.153 56.2298 280 50C290.886 47.9819 290.886 43.0682 294 29ZM294 29V71C298.508 57.4582 296.847 56.2298 308 50C297.114 47.9819 297.114 43.0682 294 29Z" fill="#CCCCCC" fill-opacity="0.5"/>
<path d="M100 41V82C95.4915 68.7806 97.1525 67.5815 86 61.5C96.8856 59.5014 96.8856 54.7333 100 41ZM100 41V82C104.508 68.7806 102.847 67.5815 114 61.5C103.114 59.5014 103.114 54.7333 100 41Z" fill="#CCCCCC" fill-opacity="0.5"/>
<path d="M131 78V120C126.814 106.458 128.356 105.23 118 99C128.108 96.9526 128.108 92.0682 131 78ZM131 78V120C135.186 106.458 133.644 105.23 144 99C133.892 96.9526 133.892 92.0682 131 78Z" fill="#CCCCCC" fill-opacity="0.5"/>
<path d="M27 110V152C22.4915 138.458 24.1525 137.23 13 131C23.8856 128.953 23.8856 124.068 27 110ZM27 110V152C31.5085 138.458 29.8475 137.23 41 131C30.1144 128.953 30.1144 124.068 27 110Z" fill="#CCCCCC" fill-opacity="0.5"/>
<path d="M250 203V244C245.492 230.781 247.153 229.581 236 223.5C246.886 221.501 246.886 216.733 250 203ZM250 203V244C254.508 230.781 252.847 229.581 264 223.5C253.114 221.501 253.114 216.733 250 203Z" fill="#EBD140"/>
<path d="M434.5 188V220C431.119 209.69 432.364 208.769 424 203.985C432.186 202.44 432.186 198.696 434.5 188ZM434.5 188V220C437.881 209.69 436.636 208.769 445 203.985C436.843 202.44 436.843 198.696 434.5 188Z" fill="#CCCCCC" fill-opacity="0.5"/>
<path d="M382 63V94C378.78 84.0121 379.966 83.1198 372 78.4856C379.797 76.9889 379.797 73.3909 382 63ZM382 63V94C385.22 84.0121 384.034 83.1198 392 78.4856C384.232 76.9889 384.232 73.3909 382 63Z" fill="#CCCCCC" fill-opacity="0.5"/>
<path d="M10.5 224V255C7.11864 245.012 8.36441 244.091 0 239.486C8.18644 237.989 8.18644 234.391 10.5 224ZM10.5 224V255C13.8814 245.012 12.6356 244.12 21 239.486C12.8432 237.989 12.8432 234.391 10.5 224Z" fill="#CCCCCC" fill-opacity="0.5"/>
<path d="M239 65V128C232.263 107.681 234.742 105.868 218 96.4856C234.333 93.4349 234.333 86.1247 239 65ZM239 65V128C245.737 107.681 243.258 105.868 260 96.4856C243.667 93.4349 243.667 86.1247 239 65Z" fill="#EBD140"/>
<path d="M142.397 222.68C139.687 223.087 187.011 228.584 92.5943 271.219C58.5859 286.575 23.2517 277.995 28.5259 278.955C32.042 279.595 52.7064 287.709 88.9341 278.984C142.685 266.1 189.951 215.583 142.397 222.68Z" fill="#333333"/>
<path d="M89.5 295C116.838 295 139 273.062 139 246C139 218.938 116.838 197 89.5 197C62.1619 197 40 218.938 40 246C40 273.062 62.1619 295 89.5 295Z" fill="url(#paint0_linear)"/>
<path fill-rule="evenodd" clip-rule="evenodd" d="M90 197.894C63.432 197.894 41.8944 219.432 41.8944 246C41.8944 272.568 63.432 294.106 90 294.106C116.568 294.106 138.106 272.568 138.106 246C138.106 219.432 116.568 197.894 90 197.894ZM39 246C39 217.833 61.8335 195 90 195C118.167 195 141 217.833 141 246C141 274.167 118.167 297 90 297C61.8335 297 39 274.167 39 246Z" fill="#333333"/>
<path d="M158.961 223.642C160.323 227.552 126.167 226.239 88.1552 239.108C50.143 251.977 17.5528 275.347 21.2932 270.297C23.7577 266.93 44.0251 244.359 82.0373 231.489C120.05 218.592 157.569 219.733 158.961 223.642Z" fill="#333333"/>
<path d="M293.5 423C341.273 423 380 384.496 380 337C380 289.503 341.273 251 293.5 251C245.727 251 207 289.503 207 337C207 384.496 245.727 423 293.5 423Z" fill="#BDECFF"/>
<path fill-rule="evenodd" clip-rule="evenodd" d="M293.5 251.893C246.773 251.893 208.893 289.773 208.893 336.5C208.893 383.227 246.773 421.107 293.5 421.107C340.227 421.107 378.107 383.227 378.107 336.5C378.107 289.773 340.227 251.893 293.5 251.893ZM206 336.5C206 288.175 245.175 249 293.5 249C341.825 249 381 288.175 381 336.5C381 384.825 341.825 424 293.5 424C245.175 424 206 384.825 206 336.5Z" fill="#9ADAF3"/>
<path d="M409 367C439.928 367 465 342.152 465 311.5C465 280.848 439.928 256 409 256C378.072 256 353 280.848 353 311.5C353 342.152 378.072 367 409 367Z" fill="url(#paint1_linear)"/>
<path fill-rule="evenodd" clip-rule="evenodd" d="M409 256.903C379.109 256.903 354.877 281.347 354.877 311.5C354.877 341.653 379.109 366.097 409 366.097C438.891 366.097 463.123 341.653 463.123 311.5C463.123 281.347 438.891 256.903 409 256.903ZM352 311.5C352 279.744 377.52 254 409 254C440.48 254 466 279.744 466 311.5C466 343.256 440.48 369 409 369C377.52 369 352 343.256 352 311.5Z" fill="#444444"/>
<path d="M486 199C502.569 199 516 185.345 516 168.5C516 151.655 502.569 138 486 138C469.431 138 456 151.655 456 168.5C456 185.345 469.431 199 486 199Z" fill="#666666"/>
<path fill-rule="evenodd" clip-rule="evenodd" d="M486.5 138.92C470.69 138.92 457.874 151.939 457.874 168C457.874 184.061 470.69 197.08 486.5 197.08C502.31 197.08 515.126 184.061 515.126 168C515.126 151.939 502.31 138.92 486.5 138.92ZM455 168C455 150.327 469.103 136 486.5 136C503.897 136 518 150.327 518 168C518 185.673 503.897 200 486.5 200C469.103 200 455 185.673 455 168Z" fill="#333333"/>
<g style="mix-blend-mode:overlay">
<path d="M287 287C259.673 284.053 253.046 282.845 254 274C254.954 265.156 277.173 257.553 304.5 260.5C331.827 263.447 357.5 294 352.5 301C342.5 307.5 322.5 287 287 287Z" fill="black"/>
</g>
<path d="M264.925 262.209C266.679 263.1 269.473 234.668 271.464 233.634C278.42 230.044 278.33 242.364 277.766 253.996C277.201 265.742 276.517 269.791 276.428 272.921C276.398 274.989 267.035 276.31 266.114 275.937C266.114 275.937 253.363 276.224 253.006 271.744C252.738 267.896 261.774 263.013 264.925 262.209Z" fill="#A1CC3A"/>
<path fill-rule="evenodd" clip-rule="evenodd" d="M273.17 235.225C273.092 235.396 272.993 235.667 272.878 236.053C272.637 236.862 272.378 238.003 272.105 239.394C271.572 242.113 271.018 245.632 270.464 249.148L270.432 249.352C269.871 252.913 269.309 256.462 268.781 259.063C268.519 260.353 268.252 261.477 267.979 262.268C267.851 262.642 267.681 263.066 267.443 263.401C267.329 263.563 267.11 263.834 266.754 264.015C266.546 264.12 266.316 264.182 266.079 264.19C264.7 264.618 262.092 265.893 259.787 267.54C258.579 268.403 257.528 269.318 256.81 270.197C256.067 271.106 255.846 271.771 255.871 272.188C255.902 272.556 256.177 273.04 257.205 273.557C258.211 274.063 259.61 274.42 261.117 274.656C262.602 274.889 264.091 274.991 265.217 275.033C265.778 275.053 266.244 275.059 266.567 275.06C266.728 275.061 266.854 275.06 266.938 275.059C266.98 275.058 267.012 275.058 267.032 275.058L267.054 275.057L267.059 275.057L267.06 275.057L267.365 275.05L267.522 275.116C267.575 275.119 267.651 275.121 267.755 275.119C268.029 275.116 268.407 275.091 268.868 275.042C269.785 274.944 270.943 274.758 272.074 274.499C273.22 274.236 274.265 273.916 274.993 273.571C275.307 273.422 275.507 273.294 275.621 273.202C275.664 272.008 275.781 270.667 275.936 268.907C275.985 268.35 276.037 267.751 276.092 267.101C276.335 264.237 276.635 260.295 276.906 254.427L276.906 254.427C277.181 248.558 277.324 242.725 276.609 238.821C276.243 236.817 275.706 235.671 275.159 235.179C274.934 234.977 274.711 234.887 274.432 234.88C274.155 234.873 273.745 234.948 273.17 235.225ZM275.711 273.119C275.711 273.119 275.709 273.121 275.706 273.125C275.709 273.121 275.71 273.119 275.711 273.119ZM267.448 275.109C267.448 275.109 267.453 275.11 267.463 275.111C267.452 275.11 267.447 275.109 267.448 275.109ZM266.92 277.939C266.828 277.94 266.706 277.941 266.559 277.94C266.208 277.939 265.709 277.933 265.111 277.91C263.919 277.866 262.309 277.758 260.674 277.502C259.061 277.249 257.319 276.835 255.92 276.132C254.55 275.443 253.154 274.281 253.01 272.402L253.009 272.395L253.009 272.388C252.908 270.876 253.682 269.484 254.592 268.37C255.532 267.22 256.804 266.137 258.123 265.194C260.571 263.444 263.442 261.997 265.228 261.44C265.24 261.406 265.253 261.369 265.267 261.328C265.474 260.727 265.711 259.762 265.969 258.488C266.483 255.963 267.033 252.486 267.598 248.902L267.636 248.661C268.185 245.175 268.747 241.611 269.29 238.838C269.567 237.423 269.848 236.174 270.129 235.229C270.268 234.76 270.421 234.321 270.592 233.96C270.678 233.779 270.784 233.583 270.917 233.4C271.04 233.233 271.251 232.983 271.578 232.807L271.581 232.805C272.558 232.281 273.54 231.977 274.504 232.001C275.504 232.026 276.371 232.402 277.074 233.034C278.382 234.211 279.048 236.207 279.431 238.301C280.216 242.589 280.043 248.766 279.772 254.561M266.92 277.939C267.042 277.964 267.148 277.975 267.223 277.981C267.404 277.998 267.599 278.002 267.794 277.999C268.185 277.994 268.659 277.96 269.171 277.906C270.2 277.796 271.47 277.591 272.712 277.307C273.94 277.025 275.216 276.65 276.218 276.175C276.714 275.94 277.22 275.645 277.623 275.27C278.017 274.904 278.467 274.313 278.482 273.505C278.514 272.35 278.627 271.069 278.788 269.228C278.838 268.658 278.893 268.035 278.951 267.345C279.196 264.45 279.499 260.472 279.772 254.562" fill="#39431E"/>
<path opacity="0.3" d="M275.201 236C273.605 249.739 271.631 263.624 268.583 266.05C263.648 265.349 258.248 270.61 257 273.475C257 273.475 266.841 277.217 275.114 272.978C275.114 272.978 275.579 271.78 275.579 267.687C276.246 254.884 276.449 253.919 276.74 242.402C279.236 241.32 282.923 241.583 286 237.608C284.084 238.455 277.465 237.579 275.201 236Z" fill="#39431E"/>
<path d="M286.092 237.425C286.715 233.853 282.514 230.137 276.708 229.124C270.903 228.111 265.691 230.184 265.068 233.756C264.445 237.327 268.646 241.044 274.451 242.057C280.257 243.07 285.468 240.996 286.092 237.425Z" fill="#5C6C30"/>
<path fill-rule="evenodd" clip-rule="evenodd" d="M268.307 237.783C269.774 239.081 272.017 240.165 274.7 240.633C277.382 241.101 279.86 240.841 281.68 240.117C283.526 239.382 284.474 238.283 284.667 237.176C284.86 236.07 284.34 234.714 282.853 233.398C281.386 232.1 279.142 231.016 276.46 230.548C273.777 230.08 271.299 230.34 269.479 231.064C267.634 231.799 266.685 232.898 266.492 234.005C266.299 235.111 266.819 236.467 268.307 237.783ZM266.391 239.949C264.482 238.261 263.213 235.973 263.643 233.507C264.074 231.042 266.042 229.319 268.41 228.377C270.803 227.425 273.834 227.154 276.957 227.699C280.08 228.244 282.84 229.525 284.769 231.232C286.677 232.92 287.946 235.208 287.516 237.673C287.086 240.138 285.117 241.861 282.749 242.804C280.356 243.756 277.326 244.026 274.203 243.481C271.08 242.937 268.32 241.655 266.391 239.949Z" fill="#39431E"/>
<path d="M218.598 222.698C219.341 221.321 218.394 219.368 216.482 218.337C214.571 217.305 212.418 217.586 211.675 218.964C210.932 220.341 211.879 222.294 213.791 223.325C215.703 224.357 217.855 224.076 218.598 222.698Z" fill="#5C6C30"/>
<path fill-rule="evenodd" clip-rule="evenodd" d="M212.778 220.769C213.044 221.317 213.574 221.894 214.34 222.307C215.107 222.721 215.88 222.847 216.483 222.768C217.089 222.689 217.43 222.428 217.58 222.149C217.73 221.871 217.762 221.442 217.495 220.893C217.229 220.345 216.699 219.768 215.933 219.355C215.167 218.942 214.394 218.815 213.79 218.894C213.185 218.973 212.844 219.234 212.693 219.513C212.543 219.792 212.512 220.22 212.778 220.769ZM210.697 221.779C210.198 220.75 210.064 219.513 210.657 218.414C211.25 217.316 212.357 216.748 213.491 216.6C214.627 216.452 215.886 216.701 217.032 217.319C218.177 217.937 219.076 218.852 219.577 219.883C220.076 220.912 220.209 222.149 219.616 223.248C219.023 224.347 217.917 224.914 216.782 225.062C215.646 225.21 214.387 224.961 213.242 224.343C212.096 223.725 211.197 222.81 210.697 221.779Z" fill="#39431E"/>
<path d="M211.784 228.795C214.334 228.626 216.308 227.081 216.193 225.344C216.078 223.607 213.917 222.336 211.368 222.505C208.818 222.673 206.844 224.218 206.959 225.955C207.074 227.692 209.234 228.964 211.784 228.795Z" fill="#5C6C30"/>
<path fill-rule="evenodd" clip-rule="evenodd" d="M208.877 224.553C208.279 225.021 208.089 225.505 208.113 225.879C208.138 226.253 208.391 226.708 209.045 227.093C209.693 227.474 210.634 227.712 211.708 227.641C212.781 227.57 213.683 227.21 214.275 226.747C214.872 226.279 215.063 225.795 215.038 225.421C215.014 225.047 214.761 224.592 214.107 224.207C213.459 223.825 212.518 223.588 211.444 223.659C210.37 223.73 209.469 224.089 208.877 224.553ZM207.451 222.731C208.455 221.946 209.815 221.448 211.291 221.351C212.767 221.253 214.182 221.567 215.28 222.213C216.372 222.856 217.257 223.905 217.347 225.268C217.437 226.631 216.698 227.788 215.701 228.569C214.697 229.354 213.336 229.852 211.86 229.949C210.384 230.047 208.97 229.733 207.872 229.087C206.78 228.444 205.895 227.395 205.805 226.032C205.715 224.669 206.453 223.512 207.451 222.731Z" fill="#39431E"/>
<path d="M232.441 229.135C239.917 225.234 244.151 218.57 241.897 214.252C239.644 209.934 231.757 209.595 224.281 213.496C216.805 217.398 212.572 224.061 214.825 228.379C217.079 232.697 224.966 233.036 232.441 229.135Z" fill="#A1CC3A"/>
<path fill-rule="evenodd" clip-rule="evenodd" d="M217.125 221.557C215.549 224.037 215.32 226.202 216.107 227.71C216.894 229.218 218.801 230.269 221.737 230.395C224.629 230.519 228.219 229.707 231.773 227.853C235.326 225.998 238.045 223.517 239.597 221.075C241.173 218.595 241.402 216.429 240.615 214.921C239.829 213.413 237.921 212.362 234.985 212.237C232.094 212.113 228.504 212.924 224.95 214.778C221.396 216.633 218.677 219.114 217.125 221.557ZM214.684 220.006C216.554 217.062 219.69 214.261 223.612 212.215C227.534 210.168 231.625 209.198 235.109 209.348C238.55 209.495 241.712 210.773 243.179 213.583C244.646 216.394 243.885 219.719 242.038 222.625C240.168 225.569 237.032 228.37 233.11 230.416C229.188 232.463 225.097 233.433 221.613 233.284C218.173 233.136 215.01 231.859 213.543 229.048C212.077 226.237 212.838 222.912 214.684 220.006Z" fill="#39431E"/>
<path d="M236.011 215.708C236.436 221.364 243.236 219.32 247.334 212.712C252.707 204.004 252.495 200.7 251.311 198.516C250.127 196.332 248.457 201.484 243.752 206.496C238.713 211.9 235.798 213.188 236.011 215.708Z" fill="#A1CC3A"/>
<path fill-rule="evenodd" clip-rule="evenodd" d="M250.971 197.118C251.648 197.369 252.007 197.931 252.195 198.302C253.666 201.196 253.507 205.117 248.399 213.947L248.397 213.949C246.356 217.46 243.53 219.971 240.91 220.748C239.578 221.143 238.111 221.132 236.91 220.29C235.715 219.452 235.132 218.035 235.014 216.373C234.865 214.455 235.913 213.098 237.195 211.751C237.64 211.283 238.125 210.804 238.659 210.277C239.764 209.186 241.077 207.889 242.677 206.06L242.678 206.058L242.68 206.056C244.42 204.079 245.69 202.098 246.714 200.501C246.949 200.135 247.171 199.789 247.382 199.468C247.661 199.046 247.934 198.648 248.198 198.314C248.447 197.997 248.759 197.645 249.129 197.392C249.512 197.13 250.189 196.829 250.971 197.118ZM244.851 207.903C243.19 209.802 241.71 211.265 240.575 212.388C240.076 212.882 239.643 213.31 239.291 213.68C238.055 214.978 237.827 215.539 237.876 216.16L237.877 216.166L237.877 216.172C237.961 217.359 238.333 217.82 238.576 217.991C238.815 218.158 239.272 218.285 240.082 218.045C241.746 217.551 244.072 215.7 245.905 212.549C249.945 205.566 250.395 202.414 250.021 200.659C249.949 200.766 249.872 200.881 249.791 201.003C249.605 201.287 249.401 201.604 249.179 201.951C248.157 203.548 246.748 205.747 244.851 207.903ZM249.591 199.501C249.591 199.5 249.595 199.506 249.603 199.519C249.595 199.508 249.591 199.501 249.591 199.501Z" fill="#39431E"/>
<path opacity="0.3" d="M250.562 200C247.305 207.367 241.172 211.248 236.476 212.091C231.957 216.337 228.201 226.882 215.142 224.436C214.555 228.823 215.7 230.65 220.248 232C228.641 231.634 238.912 226.854 242.786 217.406C246.512 214.65 248.772 211.417 252 203.037L250.562 200Z" fill="#39431E"/>
<path d="M216.533 234.908C218.9 233.646 220.192 231.445 219.418 229.994C218.644 228.542 216.097 228.389 213.73 229.651C211.362 230.914 210.07 233.114 210.844 234.565C211.618 236.017 214.165 236.17 216.533 234.908Z" fill="#5C6C30"/>
<path fill-rule="evenodd" clip-rule="evenodd" d="M212.106 232.623C211.697 233.32 211.738 233.784 211.865 234.021C211.991 234.259 212.354 234.551 213.16 234.6C213.944 234.647 214.962 234.435 215.988 233.887C217.015 233.34 217.759 232.613 218.156 231.936C218.565 231.24 218.524 230.775 218.398 230.538C218.271 230.301 217.908 230.008 217.102 229.959C216.318 229.912 215.301 230.125 214.274 230.672C213.247 231.219 212.504 231.946 212.106 232.623ZM210.111 231.452C210.758 230.35 211.845 229.346 213.186 228.631C214.526 227.916 215.966 227.573 217.241 227.65C218.494 227.726 219.791 228.235 220.439 229.45C221.086 230.664 220.786 232.025 220.151 233.108C219.504 234.209 218.418 235.214 217.077 235.929C215.736 236.644 214.297 236.986 213.021 236.909C211.769 236.834 210.471 236.324 209.824 235.11C209.176 233.895 209.476 232.534 210.111 231.452Z" fill="#39431E"/>
<path d="M240.124 228.968C242.441 233.796 251.378 229.478 252.95 221.711C255.018 211.486 253.694 208.637 251.874 207.227C250.026 205.818 250.219 211.156 247.516 217.783C244.62 224.89 239.104 226.809 240.124 228.968Z" fill="#A1CC3A"/>
<path fill-rule="evenodd" clip-rule="evenodd" d="M251.4 206.016C252.104 205.93 252.689 206.21 253.086 206.481L253.09 206.484L253.095 206.487C254.411 207.401 255.465 208.779 255.844 211.238C256.207 213.588 255.961 216.942 254.838 221.921L254.837 221.921C253.882 226.154 250.718 229.394 247.454 230.951C245.818 231.73 244.043 232.143 242.406 231.955C240.714 231.76 239.181 230.911 238.301 229.267L238.299 229.263L238.297 229.259C237.998 228.691 237.929 228.084 238.071 227.491C238.202 226.947 238.493 226.489 238.779 226.124C239.252 225.523 239.964 224.879 240.666 224.244C240.777 224.144 240.887 224.045 240.996 223.945C242.694 222.4 244.77 220.389 246.2 217.243L246.2 217.243C247.337 214.744 247.97 212.468 248.48 210.634C248.596 210.215 248.706 209.818 248.815 209.448C248.958 208.959 249.104 208.493 249.263 208.086C249.417 207.694 249.616 207.266 249.896 206.907C250.184 206.538 250.67 206.105 251.4 206.016ZM248.909 218.413C247.228 222.111 244.786 224.447 243.018 226.056C242.896 226.167 242.78 226.272 242.67 226.372C241.933 227.04 241.438 227.489 241.131 227.88C241.07 227.958 241.029 228.018 241.003 228.062C241.372 228.66 241.949 228.994 242.754 229.087C243.669 229.192 244.865 228.97 246.152 228.357C248.731 227.127 251.211 224.548 251.944 221.301C253.042 216.433 253.196 213.492 252.915 211.668C252.731 210.479 252.369 209.791 251.95 209.333C251.862 209.583 251.768 209.883 251.664 210.239C251.569 210.566 251.468 210.93 251.358 211.326C250.849 213.161 250.147 215.691 248.909 218.413M251.355 208.827C251.355 208.827 251.357 208.828 251.362 208.83C251.357 208.828 251.355 208.827 251.355 208.827Z" fill="#39431E"/>
<path opacity="0.3" d="M251.943 209C251.66 216.743 248.036 222.623 244.644 225.301C242.408 230.861 246.34 236.101 251.172 227.281C253.254 223.351 254.025 219.625 253.999 211.038L251.943 209Z" fill="#39431E"/>
<path d="M270.239 233.911C285.597 241.228 304.209 235.111 311.537 220.163C318.981 205.015 314.263 176.062 298.933 169.488C283.282 162.771 257.724 180.12 250.25 195.04C242.834 209.931 254.851 226.594 270.239 233.911Z" fill="#A1CC3A"/>
<path fill-rule="evenodd" clip-rule="evenodd" d="M270.921 172.452C280.192 166.936 290.901 163.932 299.284 167.636C307.489 171.258 312.59 180.865 314.76 191.137C316.942 201.461 316.29 213.008 312.441 221.072C304.856 237.002 285.612 243.492 269.756 235.715C261.931 231.885 254.938 225.601 250.83 218.263C246.71 210.904 245.452 202.38 249.365 194.288L249.367 194.285C253.209 186.388 261.591 178.003 270.921 172.452ZM251.966 195.558C248.564 202.593 249.576 210.096 253.351 216.84C257.138 223.606 263.665 229.503 271.023 233.106L271.024 233.106C285.474 240.194 302.958 234.258 309.832 219.818L309.833 219.817C313.329 212.492 314.023 201.638 311.931 191.739C309.829 181.788 305.04 173.349 298.12 170.294L298.119 170.293C291.058 167.174 281.438 169.57 272.395 174.95C263.413 180.294 255.499 188.299 251.966 195.558Z" fill="#39431E"/>
<path opacity="0.3" d="M278 184.226C278 184.226 312.824 200.431 280.117 235.966C303.4 236.684 307.518 225.842 314.361 209.006C317.405 196.301 309.142 177.17 298.732 170L278 184.226Z" fill="#39431E"/>
<path d="M255.06 228.055C256.361 227.523 256.841 225.689 256.133 223.96C255.426 222.23 253.797 221.26 252.496 221.792C251.196 222.325 250.715 224.158 251.423 225.888C252.131 227.617 253.759 228.588 255.06 228.055Z" fill="#5C6C30"/>
<path fill-rule="evenodd" clip-rule="evenodd" d="M252.325 223.685C252.201 224.161 252.225 224.795 252.493 225.45C252.761 226.105 253.188 226.574 253.611 226.826C254.034 227.078 254.382 227.083 254.622 226.985C254.861 226.887 255.106 226.639 255.231 226.163C255.356 225.687 255.331 225.053 255.063 224.398C254.795 223.743 254.368 223.274 253.945 223.022C253.523 222.77 253.174 222.765 252.935 222.863C252.695 222.961 252.45 223.209 252.325 223.685ZM250.087 223.098C250.351 222.092 250.997 221.156 252.058 220.722C253.12 220.287 254.236 220.502 255.129 221.034C256.023 221.567 256.764 222.447 257.204 223.522C257.644 224.596 257.732 225.744 257.469 226.75C257.205 227.756 256.56 228.691 255.498 229.126C254.436 229.56 253.321 229.346 252.427 228.814C251.533 228.281 250.792 227.401 250.352 226.326C249.912 225.251 249.824 224.104 250.087 223.098Z" fill="#39431E"/>
<path d="M237.107 230.958C238.132 235.951 245.22 241.969 252.865 242C260.539 242.031 265.9 238.03 264.874 233.036C263.849 228.042 257.903 225.033 250.229 225.002C242.584 224.94 236.082 225.964 237.107 230.958Z" fill="#A1CC3A"/>
<path fill-rule="evenodd" clip-rule="evenodd" d="M240.425 225.101C243.135 224.192 246.896 223.973 250.735 224.002C254.741 224.018 258.393 224.764 261.228 226.198C264.066 227.634 266.203 229.83 266.839 232.75C267.51 235.834 266.022 238.502 263.502 240.277C261.013 242.029 257.424 243.015 253.363 243H253.363C249.18 242.984 245.201 241.43 242.138 239.272C239.115 237.144 236.762 234.265 236.14 231.408C235.804 229.864 236.071 228.461 236.959 227.319C237.797 226.242 239.064 225.557 240.425 225.101ZM239.278 229.117C238.994 229.482 238.831 229.97 239.009 230.786C239.414 232.649 241.128 234.974 243.829 236.876C246.49 238.75 249.894 240.055 253.374 240.068L253.368 241.534L253.374 240.068C257.004 240.082 259.947 239.192 261.81 237.88C263.642 236.591 264.326 235.009 263.97 233.373C263.578 231.573 262.222 229.987 259.901 228.813C257.577 227.638 254.404 226.948 250.721 226.934L250.715 226.934C246.893 226.905 243.565 227.14 241.359 227.88C240.261 228.248 239.613 228.687 239.278 229.117Z" fill="#39431E"/>
<path d="M264.864 228.525C266.006 226.548 265.765 224.271 264.327 223.44C262.888 222.61 260.796 223.54 259.655 225.518C258.513 227.496 258.753 229.772 260.191 230.603C261.63 231.433 263.722 230.503 264.864 228.525Z" fill="#5C6C30"/>
<path fill-rule="evenodd" clip-rule="evenodd" d="M260.106 228.369C260.175 229.023 260.45 229.417 260.77 229.601C261.09 229.786 261.568 229.827 262.169 229.561C262.768 229.294 263.4 228.747 263.862 227.947C264.324 227.147 264.481 226.326 264.413 225.674C264.344 225.021 264.068 224.627 263.748 224.442C263.429 224.258 262.95 224.216 262.349 224.483C261.75 224.75 261.118 225.296 260.656 226.096C260.194 226.897 260.037 227.717 260.106 228.369ZM257.805 228.612C257.68 227.424 257.973 226.117 258.653 224.94C259.333 223.762 260.318 222.855 261.41 222.369C262.5 221.884 263.786 221.793 264.905 222.439C266.024 223.085 266.588 224.244 266.713 225.431C266.839 226.62 266.545 227.926 265.865 229.104C265.185 230.282 264.201 231.189 263.109 231.674C262.018 232.159 260.732 232.251 259.613 231.605C258.494 230.959 257.93 229.799 257.805 228.612Z" fill="#39431E"/>
<path d="M266.633 235.622C268.895 234.696 270.257 232.796 269.677 231.376C269.096 229.957 266.792 229.558 264.53 230.483C262.268 231.409 260.906 233.31 261.487 234.729C262.068 236.148 264.372 236.548 266.633 235.622Z" fill="#5C6C30"/>
<path fill-rule="evenodd" clip-rule="evenodd" d="M262.883 233.095C262.467 233.675 262.472 234.081 262.557 234.29C262.643 234.5 262.924 234.793 263.628 234.915C264.313 235.034 265.234 234.945 266.195 234.551C267.157 234.158 267.875 233.576 268.281 233.01C268.697 232.43 268.692 232.024 268.606 231.815C268.52 231.605 268.239 231.312 267.536 231.19C266.85 231.071 265.93 231.16 264.968 231.554C264.007 231.947 263.288 232.529 262.883 233.095ZM261.002 231.747C261.698 230.776 262.792 229.945 264.092 229.413C265.392 228.88 266.754 228.706 267.931 228.911C269.09 229.112 270.252 229.728 270.747 230.938C271.242 232.148 270.846 233.402 270.161 234.358C269.465 235.329 268.372 236.16 267.071 236.692C265.771 237.225 264.409 237.398 263.232 237.194C262.073 236.993 260.911 236.376 260.416 235.167C259.921 233.957 260.317 232.703 261.002 231.747Z" fill="#39431E"/>
<path d="M243.72 25.6312C250.672 28.9043 260.571 31.9498 266.139 33.2021C269.32 33.9137 277.451 58.5618 272.207 68.922C270.823 71.6828 279.425 70.8859 280.102 70.9143C283.902 71.0282 281.428 32.1206 277.657 28.3066C274.21 24.8058 267.641 17.4057 251.674 9.89171C235.678 2.34927 220.978 -0.240777 218.768 4.11391C214.644 12.311 227.724 18.0888 243.72 25.6312Z" fill="#A1CC3A"/>
<path fill-rule="evenodd" clip-rule="evenodd" d="M231.166 0.573266C237.125 1.66857 244.745 4.30525 252.646 8.2004C267.425 15.4724 274.115 22.6691 277.707 26.5327C277.963 26.8073 278.202 27.0651 278.428 27.3049C278.795 27.6942 279.086 28.2231 279.325 28.7755C279.573 29.3466 279.803 30.0288 280.018 30.7905C280.448 32.3146 280.839 34.2404 281.187 36.4043C281.883 40.7372 282.42 46.1221 282.723 51.368C283.025 56.6102 283.097 61.7544 282.854 65.6005C282.734 67.5126 282.532 69.1647 282.22 70.3614C282.067 70.9503 281.866 71.5158 281.579 71.9575C281.301 72.3867 280.773 72.9374 279.951 72.9117L279.944 72.9115L279.937 72.9111C279.941 72.9113 279.941 72.9114 279.933 72.9115C279.92 72.9117 279.885 72.9123 279.819 72.9148C279.728 72.9182 279.61 72.9238 279.463 72.9309L279.43 72.9324C279.144 72.9462 278.77 72.9642 278.345 72.9781C277.467 73.0069 276.347 73.0192 275.276 72.9381C274.251 72.8605 273.097 72.6874 272.262 72.2469C271.832 72.0203 271.349 71.6508 271.102 71.0505C270.84 70.4118 270.945 69.7592 271.214 69.1973L271.215 69.1954L271.216 69.1935C272.383 66.7834 272.847 63.4324 272.775 59.6379C272.704 55.8676 272.107 51.7761 271.25 47.9667C270.393 44.1571 269.285 40.6691 268.212 38.1086C267.673 36.8241 267.157 35.8067 266.704 35.107C266.476 34.756 266.284 34.5156 266.135 34.3668C266.063 34.2953 266.017 34.2604 265.996 34.246C260.47 32.9412 250.727 29.8053 243.843 26.4166L243.842 26.4163C243.267 26.1327 242.695 25.8512 242.126 25.5715C235.003 22.067 228.462 18.8487 224.048 15.5371C221.662 13.7466 219.774 11.8411 218.776 9.73245C217.745 7.55215 217.707 5.2355 218.869 2.82121L218.87 2.81775C219.672 1.16648 221.481 0.406013 223.499 0.132126C225.567 -0.148635 228.194 0.0271042 231.166 0.573266ZM220.944 3.8427C220.087 5.62522 220.135 7.19588 220.859 8.7271C221.618 10.3305 223.154 11.9613 225.425 13.6651C229.656 16.84 236.004 19.964 243.219 23.5149C243.759 23.781 244.305 24.0495 244.855 24.3206C251.57 27.6257 261.179 30.7188 266.57 31.9866M220.944 3.8427C221.225 3.26449 222.027 2.68485 223.806 2.44336C225.536 2.20853 227.895 2.34251 230.752 2.86761C236.451 3.91483 243.866 6.4668 251.634 10.2963L251.634 10.2967C266.041 17.385 272.509 24.3457 276.033 28.1384C276.289 28.4134 276.529 28.6717 276.755 28.9122L276.757 28.914C276.85 29.0127 277.012 29.2521 277.211 29.7117C277.403 30.1535 277.6 30.7277 277.798 31.4292C278.193 32.8315 278.568 34.6588 278.908 36.7781C279.589 41.0118 280.118 46.314 280.418 51.5038C280.718 56.6973 280.785 61.7375 280.55 65.4522C280.433 67.3204 280.242 68.7929 279.988 69.7683C279.883 70.1693 279.782 70.4306 279.702 70.5855C279.608 70.5892 279.507 70.5941 279.409 70.5988L279.324 70.6029C279.036 70.6167 278.677 70.634 278.27 70.6473C277.424 70.6751 276.398 70.6846 275.449 70.6126C274.454 70.5373 273.714 70.3824 273.33 70.1798C273.324 70.1766 273.318 70.1735 273.313 70.1704C274.697 67.2815 275.158 63.5177 275.084 59.5935C275.009 55.6236 274.383 51.369 273.501 47.45C272.62 43.5312 271.473 39.9083 270.337 37.1991C269.771 35.8487 269.194 34.6914 268.635 33.8297C268.357 33.4 268.063 33.0129 267.756 32.7067C267.467 32.4187 267.069 32.1038 266.57 31.9867" fill="#39431E"/>
<path fill-rule="evenodd" clip-rule="evenodd" d="M239.549 5.02123C239.76 4.94871 239.988 5.06799 240.058 5.28765C241.003 8.2595 241.341 11.7444 240.586 14.7091C239.826 17.6963 237.947 20.1665 234.494 20.9893C234.277 21.041 234.06 20.9002 234.01 20.6748C233.96 20.4493 234.096 20.2246 234.313 20.1728C237.423 19.432 239.108 17.239 239.806 14.4951C240.51 11.7286 240.203 8.41429 239.292 5.55026C239.222 5.3306 239.337 5.09375 239.549 5.02123Z" fill="#39431E"/>
<path fill-rule="evenodd" clip-rule="evenodd" d="M254.694 12.0224C254.927 11.9459 255.178 12.0717 255.255 12.3035C256.304 15.4719 256.264 18.9504 255.016 21.8642C253.762 24.7906 251.294 27.1305 247.543 27.9887C247.304 28.0433 247.066 27.8947 247.011 27.6568C246.957 27.4189 247.106 27.1817 247.344 27.1271C250.806 26.3353 253.052 24.1964 254.2 21.517C255.354 18.8249 255.403 15.5706 254.412 12.5807C254.336 12.3489 254.462 12.0989 254.694 12.0224Z" fill="#39431E"/>
<path d="M180.991 41.71C192.11 39.8909 201.635 42.0678 207.194 42.6941C210.727 43.0817 226.419 54.5924 230.994 71.1726C231.168 71.7988 227.606 77.7629 225.695 73.439C222.482 66.1926 208.671 50.9543 206.76 52.2963C202.041 55.6063 193.644 58.6182 183.858 60.2285C168.194 62.7931 154.847 60.7355 154.036 55.6063C153.254 50.4772 165.328 44.2746 180.991 41.71Z" fill="#A1CC3A"/>
<path fill-rule="evenodd" clip-rule="evenodd" d="M203.408 44.4451C197.77 43.6549 190.029 42.57 181.219 43.9622C173.501 45.1825 166.715 47.2627 161.987 49.6139C159.617 50.7927 157.826 52.0097 156.69 53.1729C155.538 54.352 155.218 55.3025 155.329 56.0154C155.447 56.7299 156.051 57.537 157.516 58.3047C158.96 59.0621 161.044 59.6687 163.665 60.0604C168.893 60.8418 175.994 60.73 183.711 59.5099C193.379 57.9734 201.552 55.1135 206.054 52.064C206.531 51.7411 207.055 51.7587 207.405 51.8235C207.768 51.8907 208.129 52.0404 208.46 52.211C209.128 52.5555 209.905 53.1068 210.731 53.7757C212.396 55.1242 214.435 57.0958 216.493 59.3035C220.581 63.6899 224.93 69.2105 226.612 72.8741L226.613 72.8755C226.806 73.2969 226.982 73.5085 227.098 73.6085C227.199 73.6954 227.257 73.7026 227.288 73.7045C227.409 73.7122 227.723 73.6292 228.208 73.1944C228.654 72.7944 229.072 72.2471 229.369 71.758C229.501 71.5399 229.596 71.3543 229.654 71.2201C227.413 63.6117 222.563 57.1179 217.79 52.4502C215.381 50.094 213.012 48.2236 211.046 46.9268C210.062 46.278 209.192 45.7811 208.478 45.4398C207.737 45.0853 207.252 44.9418 207.014 44.9165L207.011 44.9162C205.934 44.7991 204.729 44.6301 203.408 44.4451ZM229.731 71.4827C229.731 71.4838 229.731 71.4849 229.731 71.4859L229.731 71.4844C229.731 71.4838 229.731 71.4833 229.731 71.4827ZM207.26 42.6348C206.263 42.5263 205.119 42.3651 203.844 42.1857C198.215 41.393 190.049 40.2432 180.857 41.6957L180.857 41.6957C172.973 42.9424 165.947 45.0789 160.956 47.5613C158.466 48.7994 156.422 50.1534 155.035 51.5737C153.665 52.9764 152.774 54.6208 153.05 56.3745L153.051 56.381C153.338 58.1328 154.699 59.422 156.44 60.3349C158.203 61.2592 160.569 61.9184 163.322 62.3298C168.843 63.1549 176.19 63.0229 184.074 61.7761L184.075 61.776C193.744 60.2393 202.179 57.3733 207.115 54.1199C207.184 54.1459 207.278 54.1866 207.398 54.2487C207.859 54.486 208.493 54.9225 209.275 55.5553C210.824 56.8101 212.781 58.6968 214.801 60.8637C218.866 65.2258 222.994 70.519 224.513 73.8262C225.077 75.0571 225.941 75.9192 227.142 75.9948C228.216 76.0625 229.135 75.4535 229.753 74.8985C230.41 74.3089 230.965 73.5689 231.344 72.9429C231.535 72.6279 231.698 72.3159 231.811 72.0392C231.866 71.9028 231.92 71.75 231.956 71.5946C231.98 71.4882 232.045 71.1879 231.95 70.8555C229.599 62.629 224.413 55.7087 219.408 50.8137C216.9 48.3614 214.417 46.3969 212.321 45.0142C211.273 44.3232 210.31 43.7693 209.477 43.3714C208.674 42.987 207.901 42.7031 207.26 42.6348ZM206.977 54.0786C206.973 54.0783 206.971 54.0779 206.971 54.0779C206.971 54.0778 206.973 54.078 206.977 54.0786ZM207.353 53.9605C207.353 53.9606 207.353 53.9608 207.353 53.9609L207.353 53.9605Z" fill="#39431E"/>
<path fill-rule="evenodd" clip-rule="evenodd" d="M189.125 41.1635C189.315 40.9713 189.656 40.9447 189.886 41.1042C193.039 43.2913 195.253 46.3336 195.843 49.5353C196.436 52.7511 195.385 56.1095 192.048 58.8693C191.836 59.045 191.493 59.0433 191.283 58.8657C191.073 58.6881 191.075 58.4018 191.287 58.2261C194.367 55.6795 195.317 52.6157 194.774 49.6732C194.229 46.7166 192.171 43.8645 189.196 41.8004C188.966 41.6409 188.934 41.3558 189.125 41.1635Z" fill="#39431E"/>
<path fill-rule="evenodd" clip-rule="evenodd" d="M174.107 43.1635C174.27 42.9713 174.562 42.9447 174.759 43.1042C177.462 45.2913 179.36 48.3336 179.866 51.5353C180.374 54.7511 179.473 58.1095 176.612 60.8693C176.43 61.045 176.137 61.0433 175.957 60.8657C175.777 60.6881 175.779 60.4018 175.961 60.2261C178.6 57.6795 179.414 54.6157 178.949 51.6732C178.482 48.7166 176.718 45.8645 174.168 43.8004C173.971 43.6409 173.943 43.3558 174.107 43.1635Z" fill="#39431E"/>
<path opacity="0.3" d="M231 70.3477C229.183 62.3428 221.253 55.4204 210.44 45.3644C186.044 41.661 176.182 46.333 165.715 49.4666C159.573 54.6797 159.227 57.1011 165.888 60.6905C177.797 64.1375 193.571 56.5314 209.229 50.6915C220.792 58.2406 228.059 65.391 230.164 72L231 70.3477Z" fill="#39431E"/>
<path opacity="0.3" d="M278.982 71C282.953 63.6796 280.383 45.0747 277.113 29.3922C258.399 11.4238 249.669 9.48523 239.539 5.00038C231.364 4.97144 229.466 6.59178 232.123 13.7386C238.925 24.2129 256.092 28.7267 272.004 34.5425C275.8 47.9392 276.675 63.9978 273.814 70.4502L278.982 71Z" fill="#39431E"/>
<path d="M289.605 74.1513C289.722 69.2017 283.591 65.0425 275.911 64.8616C268.231 64.6806 261.911 68.5463 261.794 73.4959C261.677 78.4456 267.809 82.6047 275.489 82.7857C283.168 82.9667 289.489 79.1009 289.605 74.1513Z" fill="#5C6C30"/>
<path fill-rule="evenodd" clip-rule="evenodd" d="M265.961 79.57C268.361 81.1978 271.73 82.2631 275.499 82.352C279.268 82.4408 282.683 81.5353 285.157 80.0224C287.635 78.5066 289.118 76.4188 289.172 74.141C289.225 71.8633 287.842 69.7078 285.438 68.0771C283.039 66.4493 279.67 65.3839 275.901 65.2951C272.132 65.2063 268.716 66.1118 266.243 67.6247C263.765 69.1404 262.281 71.2283 262.228 73.5061C262.174 75.7838 263.557 77.9392 265.961 79.57ZM265.474 80.2879C262.922 78.5565 261.297 76.1575 261.36 73.4856C261.423 70.8138 263.159 68.494 265.79 66.8846C268.426 65.2725 272.01 64.3357 275.921 64.4278C279.832 64.52 283.369 65.6247 285.925 67.3591C288.478 69.0906 290.102 71.4896 290.039 74.1615C289.976 76.8333 288.241 79.1531 285.61 80.7624C282.974 82.3745 279.389 83.3114 275.478 83.2193C271.568 83.1271 268.031 82.0224 265.474 80.2879Z" fill="#39431E"/>
<path d="M232.274 84.6408C238.013 80.3684 240.269 73.6857 237.313 69.7144C234.357 65.7431 227.308 65.9872 221.568 70.2595C215.829 74.5318 213.573 81.2146 216.53 85.1859C219.486 89.1571 226.535 88.9131 232.274 84.6408Z" fill="#5C6C30"/>
<path fill-rule="evenodd" clip-rule="evenodd" d="M216.199 77.9742C215.318 80.5838 215.509 83.0877 216.878 84.9268C218.247 86.7659 220.591 87.6664 223.343 87.5711C226.094 87.4759 229.207 86.3829 232.015 84.2928C234.823 82.2026 236.763 79.5335 237.643 76.9259C238.524 74.3163 238.334 71.8124 236.965 69.9733C235.596 68.1342 233.252 67.2337 230.499 67.329C227.749 67.4243 224.635 68.5172 221.828 70.6074C219.02 72.6975 217.08 75.3667 216.199 77.9742ZM215.377 77.6968C216.321 74.9021 218.378 72.0937 221.31 69.9115C224.241 67.7293 227.521 66.5641 230.469 66.462C233.415 66.36 236.074 67.3232 237.661 69.4553C239.248 71.5875 239.408 74.4106 238.465 77.2033C237.522 79.998 235.465 82.8065 232.533 84.9886C229.602 87.1708 226.321 88.336 223.373 88.4381C220.428 88.5401 217.769 87.577 216.182 85.4448C214.595 83.3127 214.435 80.4895 215.377 77.6968Z" fill="#39431E"/>
<path d="M201.868 180.515C222.463 210.63 268.129 203.116 294.442 176.513C320.756 149.91 321.969 108.567 297.157 84.1812C272.346 59.7955 230.897 61.5805 204.583 88.1831C178.27 114.786 182.256 151.811 201.868 180.515Z" fill="#A1CC3A"/>
<path fill-rule="evenodd" clip-rule="evenodd" d="M204.015 86.7909C230.841 59.47 273.241 57.5235 298.711 82.7415C324.181 107.96 322.834 150.567 296.008 177.887C282.612 191.531 264.285 200.295 246.627 201.777C228.939 203.261 211.797 197.43 201.133 181.721L201.132 181.72C181.263 152.425 177.03 114.274 204.015 86.7909ZM296.682 84.8085C272.487 60.8528 231.92 62.5059 206.074 88.8289C180.387 114.99 184.133 151.499 203.521 180.086C213.469 194.74 229.485 200.302 246.386 198.884C263.317 197.463 281.01 189.028 293.95 175.849C319.796 149.526 320.876 108.764 296.682 84.8085Z" fill="#39431E"/>
<path fill-rule="evenodd" clip-rule="evenodd" d="M244.951 67.7944C245.135 68.3826 244.783 69.0013 244.164 69.1763C236.868 71.2395 230.929 73.8287 226.562 77.8027C222.224 81.7493 219.341 87.1501 218.33 95.0233C218.252 95.6325 217.669 96.066 217.028 95.9917C216.387 95.9174 215.931 95.3634 216.009 94.7542C217.073 86.461 220.154 80.5565 224.944 76.1976C229.705 71.8661 236.059 69.1499 243.497 67.0465C244.116 66.8714 244.767 67.2063 244.951 67.7944Z" fill="#39431E"/>
<path opacity="0.3" d="M246 68.4778C288.986 100.77 332.636 139.266 262.38 196C284.017 187.602 291.383 186.304 302.996 167.806C323.622 131.214 316.863 108.186 302.419 88.9956C279.424 65.2746 262.322 65.3035 246 68.4778Z" fill="#39431E"/>
<path d="M263.201 167.711C275.916 169.316 289.589 164.529 300.301 146.109C311.622 126.637 312.29 108.772 289.763 98.2337C269.848 88.9214 255.247 100.803 246.102 120.069C236.958 139.336 249.644 165.988 263.201 167.711Z" fill="#3E5023"/>
<path fill-rule="evenodd" clip-rule="evenodd" d="M263.692 97.6216C271.408 93.162 280.529 92.5277 290.901 97.372L290.901 97.3721C302.528 102.805 308.389 110.249 309.709 119.034C311.015 127.718 307.832 137.422 302.063 147.332L302.063 147.332C296.565 156.775 290.257 162.806 283.611 166.256C276.961 169.708 270.053 170.534 263.431 169.699L263.43 169.699C259.659 169.22 256.061 167.031 252.963 163.844C249.857 160.648 247.183 156.38 245.255 151.577C241.408 141.992 240.451 130.055 245.248 119.961C249.917 110.135 256.047 102.041 263.692 97.6216ZM264.862 99.6636C257.795 103.748 251.932 111.365 247.365 120.976C242.925 130.319 243.757 141.544 247.431 150.696C249.263 155.262 251.783 159.256 254.642 162.198C257.509 165.148 260.648 166.971 263.724 167.361C269.944 168.146 276.363 167.367 282.534 164.163C288.709 160.958 294.716 155.283 300.038 146.143C305.704 136.41 308.577 127.281 307.39 119.385C306.218 111.589 301.038 104.707 289.912 99.5082C280.169 94.9581 271.859 95.6196 264.862 99.6636Z" fill="#38431B"/>
<path opacity="0.2" d="M264.893 163.908C278.205 164.981 295.593 156.66 303.099 139.41C312.306 118.158 304.067 103.256 290.344 99.6613C276.622 96.0662 263.339 107.431 258.266 126.421C253.164 145.382 253.106 162.951 264.893 163.908Z" fill="#38431B"/>
<path d="M303.363 127.559C305.008 121.171 302.806 115.082 298.444 113.959C294.083 112.836 289.213 117.103 287.568 123.491C285.923 129.879 288.125 135.968 292.487 137.091C296.849 138.214 301.718 133.946 303.363 127.559Z" fill="white"/>
<path d="M287.478 150.056C289.905 147.069 289.994 143.121 287.676 141.237C285.358 139.354 281.511 140.249 279.084 143.236C276.657 146.223 276.568 150.172 278.886 152.055C281.204 153.939 285.051 153.044 287.478 150.056Z" fill="white"/>
<path d="M203.046 181.91C207.968 183.494 213.577 163.936 209.714 143.197C205.879 122.457 196.091 109.351 185.388 113.903C178.291 116.898 170.793 126.778 177.805 152.99C181.611 167.162 192.171 178.396 203.046 181.91Z" fill="#3E5023"/>
<path fill-rule="evenodd" clip-rule="evenodd" d="M200.956 118.465C205.351 123.947 208.783 132.578 210.704 143.004C212.649 153.479 212.213 163.663 210.66 171.062C209.885 174.751 208.817 177.821 207.577 179.901C206.96 180.936 206.255 181.802 205.454 182.354C204.625 182.925 203.642 183.184 202.624 182.855L202.622 182.855C191.414 179.221 180.686 167.7 176.823 153.266L176.822 153.265C173.312 140.1 173.389 130.876 175.347 124.498C177.318 118.076 181.177 114.61 185.005 112.989C187.92 111.745 190.815 111.7 193.554 112.71C196.266 113.711 198.753 115.719 200.956 118.465ZM192.774 114.865C190.585 114.058 188.284 114.081 185.888 115.103L185.885 115.104C182.67 116.465 179.287 119.41 177.517 125.177C175.733 130.987 175.568 139.733 179.016 152.667C182.707 166.456 192.94 177.306 203.317 180.67C203.519 180.735 203.78 180.73 204.174 180.458C204.598 180.166 205.099 179.608 205.631 178.717C206.688 176.944 207.689 174.15 208.437 170.586C209.929 163.48 210.36 153.601 208.471 143.426L208.47 143.425C206.586 133.201 203.258 124.982 199.19 119.909C197.16 117.378 194.989 115.682 192.774 114.865Z" fill="#38431B"/>
<path opacity="0.2" d="M204.353 179.521C207.825 175.522 211.439 156.631 206.801 139.942C201.194 119.688 192.912 118.008 183.663 124.122C174.442 130.206 175.381 145.041 182.866 160.34C190.693 176.334 202.389 181.752 204.353 179.521Z" fill="#38431B"/>
<path d="M195.817 143.681C198.04 143.441 199.464 139.732 198.996 135.398C198.529 131.063 196.348 127.743 194.125 127.983C191.902 128.222 190.479 131.931 190.946 136.266C191.413 140.6 193.594 143.92 195.817 143.681Z" fill="white"/>
<path d="M199.342 155.928C200.957 155.372 201.487 152.657 200.526 149.863C199.564 147.069 197.474 145.255 195.859 145.812C194.243 146.368 193.713 149.084 194.674 151.877C195.636 154.671 197.726 156.485 199.342 155.928Z" fill="white"/>
<path fill-rule="evenodd" clip-rule="evenodd" d="M248.971 184.254C253.31 183.529 257.289 184.314 260.623 187.136C261.102 187.541 261.128 188.222 260.682 188.657C260.236 189.092 259.487 189.116 259.008 188.711C256.301 186.42 253.114 185.751 249.399 186.372C248.755 186.479 248.138 186.092 248.02 185.508C247.901 184.923 248.327 184.362 248.971 184.254Z" fill="#39431E"/>
<path d="M271.451 89.4263C256.996 86.8799 259.51 82.5509 261.653 80.1177C263.31 78.222 270.309 78.8162 275.451 81.306C280.593 83.7959 283.878 87.6438 282.793 89.879C281.679 92.1425 277.079 90.4448 271.451 89.4263Z" fill="#5C6C30"/>
<path fill-rule="evenodd" clip-rule="evenodd" d="M264.071 80.5232C263.198 80.6878 262.773 80.9564 262.618 81.1446L262.615 81.1479C262.108 81.7601 261.661 82.3992 261.426 83.0317C261.205 83.6264 261.194 84.1441 261.453 84.659C261.738 85.2276 262.447 85.983 264.082 86.7738C265.705 87.5584 268.125 88.3227 271.65 88.9831L271.655 88.9841C272.896 89.2229 274.087 89.4968 275.183 89.7487C275.336 89.7839 275.487 89.8187 275.637 89.8529C276.868 90.1349 277.95 90.3739 278.885 90.5079C279.835 90.6443 280.522 90.654 280.995 90.5476C281.416 90.4527 281.563 90.2953 281.648 90.1123C281.754 89.8786 281.796 89.519 281.625 88.9686C281.451 88.4096 281.08 87.7349 280.483 86.993C279.292 85.5121 277.345 83.9385 274.91 82.6845C272.502 81.4442 269.637 80.6693 267.195 80.4467C265.975 80.3354 264.902 80.3663 264.071 80.5232ZM267.39 78.0752C270.089 78.3213 273.227 79.168 275.902 80.5461C278.552 81.9106 280.771 83.6694 282.207 85.4541C282.923 86.345 283.48 87.2863 283.773 88.2289C284.067 89.1781 284.113 90.2051 283.683 91.1468L283.681 91.1525C283.215 92.1584 282.38 92.6694 281.467 92.8752C280.603 93.0701 279.6 93.0129 278.58 92.8665C277.544 92.7179 276.377 92.4585 275.156 92.1789C275.005 92.1442 274.853 92.1092 274.699 92.0739C273.601 91.8216 272.451 91.5571 271.252 91.3262C267.631 90.6477 265.004 89.8389 263.139 88.937C261.287 88.041 260.07 86.9964 259.455 85.7722C258.814 84.4944 258.927 83.2268 259.322 82.1646C259.702 81.1409 260.359 80.2518 260.911 79.5848C261.576 78.7774 262.629 78.377 263.672 78.1801C264.758 77.9753 266.041 77.9522 267.39 78.0752Z" fill="#39431E"/>
<path d="M188.03 106.187C187.568 108.646 192.587 109.038 196.74 112.072C200.692 114.975 206.374 117.382 206.98 110.764C207.297 107.285 203.893 105.271 198.615 104.461C193.337 103.65 188.491 103.728 188.03 106.187Z" fill="#5C6C30"/>
<path fill-rule="evenodd" clip-rule="evenodd" d="M191.457 103.114C193.525 102.851 196.151 103.068 198.789 103.508C201.476 103.956 203.826 104.755 205.488 106.029C207.205 107.346 208.167 109.167 207.976 111.444L207.976 111.444C207.816 113.335 207.31 114.79 206.393 115.756C205.434 116.765 204.186 117.077 202.947 116.984C201.745 116.894 200.502 116.427 199.352 115.824C198.19 115.215 197.05 114.428 196.037 113.621C194.497 112.4 192.852 111.619 191.341 110.902C190.965 110.723 190.597 110.549 190.241 110.372C189.397 109.953 188.541 109.484 187.933 108.882C187.265 108.218 186.859 107.351 187.046 106.27C187.223 105.247 187.834 104.493 188.655 103.989C189.442 103.505 190.425 103.245 191.457 103.114ZM189.859 105.887C189.494 106.111 189.338 106.353 189.288 106.645C189.247 106.879 189.289 107.049 189.548 107.305C189.868 107.623 190.418 107.954 191.265 108.374C191.563 108.522 191.889 108.676 192.238 108.841C193.76 109.562 195.699 110.48 197.465 111.879L197.467 111.881C198.401 112.626 199.421 113.324 200.422 113.849C201.436 114.381 202.36 114.697 203.12 114.753C203.842 114.807 204.35 114.63 204.731 114.228C205.153 113.784 205.571 112.907 205.71 111.26C205.831 109.817 205.272 108.701 204.09 107.794C202.852 106.845 200.924 106.134 198.409 105.714C195.845 105.287 193.482 105.113 191.748 105.333C190.879 105.443 190.258 105.642 189.859 105.887Z" fill="#39431E"/>
<path d="M310.416 232.164C315.035 227.545 316.125 221.145 312.85 217.87C309.575 214.595 303.175 215.685 298.556 220.304C293.937 224.922 292.848 231.322 296.123 234.597C299.398 237.872 305.797 236.782 310.416 232.164Z" fill="#5C6C30"/>
<path fill-rule="evenodd" clip-rule="evenodd" d="M295.805 228.197C295.42 230.459 295.927 232.356 297.145 233.574C298.364 234.793 300.261 235.3 302.523 234.915C304.781 234.531 307.271 233.264 309.394 231.141C311.517 229.019 312.784 226.528 313.168 224.27C313.553 222.008 313.046 220.111 311.827 218.893C310.609 217.674 308.712 217.167 306.45 217.552C304.192 217.936 301.701 219.203 299.579 221.326C297.456 223.449 296.189 225.939 295.805 228.197ZM292.954 227.711C293.45 224.796 295.038 221.777 297.534 219.281C300.03 216.785 303.049 215.197 305.964 214.701C308.875 214.206 311.815 214.791 313.872 216.848C315.929 218.905 316.514 221.845 316.019 224.756C315.522 227.671 313.935 230.69 311.439 233.186C308.942 235.682 305.923 237.27 303.008 237.766C300.098 238.261 297.157 237.676 295.101 235.619C293.044 233.563 292.458 230.622 292.954 227.711Z" fill="#39431E"/>
<path d="M310.69 263.208C310.837 261.586 297.055 227.651 303.916 224.201C307.892 222.197 315.107 235.494 321.351 248.938C327.712 262.647 330.598 266.009 332.836 272.436C334.191 276.328 326.711 282.784 326.504 282.843C324.031 283.728 309.159 280.956 308.982 272.2C308.923 268.692 310.395 266.244 310.69 263.208Z" fill="#A1CC3A"/>
<path fill-rule="evenodd" clip-rule="evenodd" d="M305.949 226.856C304.669 225.747 304.163 225.9 304.058 225.952L304.056 225.953C303.766 226.096 303.395 226.484 303.158 227.531C302.925 228.562 302.888 229.983 303.045 231.737C303.358 235.233 304.403 239.671 305.684 244.139C306.96 248.59 308.447 252.993 309.612 256.401C309.718 256.71 309.821 257.012 309.921 257.304C310.371 258.619 310.762 259.76 311.052 260.648C311.229 261.19 311.375 261.659 311.475 262.026C311.525 262.208 311.57 262.386 311.601 262.545C311.623 262.659 311.673 262.919 311.647 263.192L311.647 263.197L311.647 263.201C311.508 264.61 311.129 265.914 310.787 267.092C310.727 267.3 310.668 267.503 310.611 267.703C310.223 269.075 309.917 270.377 309.942 271.888C310.013 275.264 312.989 277.763 316.944 279.373C318.854 280.15 320.839 280.65 322.483 280.903C323.305 281.029 324.019 281.089 324.579 281.096C324.859 281.1 325.086 281.09 325.259 281.072C325.299 281.067 325.336 281.063 325.368 281.058C325.392 281.038 325.418 281.016 325.447 280.992C325.648 280.823 325.933 280.572 326.272 280.255C326.95 279.621 327.819 278.745 328.635 277.766C329.46 276.776 330.185 275.734 330.624 274.765C331.077 273.767 331.126 273.071 330.968 272.625C329.889 269.579 328.657 267.259 326.857 263.953C326.765 263.784 326.671 263.612 326.576 263.437C324.815 260.204 322.559 256.064 319.519 249.623C316.397 243.014 313.063 236.51 310.037 231.919C308.515 229.611 307.13 227.88 305.949 226.856ZM312.511 230.339C315.657 235.11 319.063 241.771 322.194 248.399L322.194 248.4C325.199 254.765 327.422 258.846 329.177 262.068C329.272 262.242 329.365 262.413 329.457 262.582C331.256 265.888 332.59 268.386 333.753 271.669L333.753 271.669C334.274 273.14 333.895 274.675 333.318 275.948C332.728 277.25 331.821 278.52 330.916 279.606C330.003 280.702 329.045 281.666 328.303 282.36C327.932 282.707 327.608 282.993 327.365 283.197C327.244 283.299 327.136 283.387 327.047 283.455C327.004 283.488 326.954 283.526 326.902 283.561C326.877 283.578 326.838 283.605 326.79 283.633C326.781 283.638 326.673 283.705 326.515 283.761L326.515 283.761C325.947 283.961 325.225 284.008 324.542 283.999C323.812 283.99 322.955 283.913 322.029 283.771C320.177 283.487 317.963 282.929 315.817 282.056C311.661 280.364 307.101 277.188 306.993 271.944L306.993 271.942L306.993 271.939C306.96 269.997 307.361 268.368 307.77 266.925C307.836 266.692 307.901 266.466 307.964 266.246C308.292 265.112 308.576 264.127 308.696 263.056C308.683 262.994 308.661 262.904 308.627 262.782C308.545 262.483 308.417 262.066 308.243 261.535C307.961 260.669 307.579 259.554 307.129 258.241C307.028 257.946 306.924 257.641 306.817 257.327C305.65 253.916 304.143 249.454 302.845 244.927C301.552 240.418 300.444 235.767 300.106 231.992C299.938 230.112 299.951 228.352 300.279 226.9C300.604 225.463 301.304 224.065 302.732 223.359C304.617 222.425 306.508 223.473 307.898 224.677C309.387 225.967 310.947 227.967 312.511 230.339ZM308.712 263.139C308.712 263.139 308.711 263.133 308.709 263.122C308.712 263.134 308.712 263.14 308.712 263.139Z" fill="#39431E"/>
<path opacity="0.3" d="M294 230.849C296.262 236.513 302.12 236.513 302.12 236.513C305.745 248.158 309.486 259.486 310.443 262.722C309.457 267.952 309.08 272.518 312.095 276.477C319.809 281.765 325 280.956 325 280.956C325 280.956 318.968 276.274 317.054 271.94L307.05 245.875C304.063 235.559 303.28 235.675 300.206 229C300.177 229 298.263 230.387 294 230.849Z" fill="#39431E"/>
<path fill-rule="evenodd" clip-rule="evenodd" d="M320.075 262.358C318.633 262.606 317.14 263.347 316.249 264.516C315.858 265.029 315.087 265.154 314.528 264.795C313.969 264.436 313.832 263.729 314.223 263.216C315.557 261.465 317.679 260.462 319.62 260.128C320.597 259.961 321.589 259.951 322.473 260.137C323.347 260.321 324.225 260.723 324.782 261.465C325.169 261.981 325.027 262.687 324.465 263.042C323.903 263.397 323.133 263.267 322.746 262.751C322.654 262.628 322.42 262.453 321.921 262.348C321.431 262.245 320.79 262.235 320.075 262.358Z" fill="#39431E"/>
<path d="M307.084 188.644C307.956 186.381 314.424 185.04 321.568 186.828C328.712 188.616 333.774 191.913 332.902 194.176C332.031 196.439 326.546 196.551 319.402 194.763C312.287 192.947 306.212 190.907 307.084 188.644Z" fill="#A1CC3A"/>
<path fill-rule="evenodd" clip-rule="evenodd" d="M307.955 188.902C307.986 188.95 308.045 189.027 308.153 189.136C308.547 189.534 309.293 190.02 310.446 190.557C312.715 191.615 316.041 192.643 319.74 193.636C323.384 194.595 326.521 195.019 328.8 194.931C329.945 194.887 330.789 194.716 331.351 194.479C331.91 194.242 332.035 194.013 332.066 193.929C332.066 193.929 332.066 193.929 332.066 193.928C332.068 193.923 332.077 193.901 332.062 193.829C332.042 193.737 331.982 193.569 331.82 193.328C331.487 192.834 330.85 192.215 329.861 191.54C327.901 190.202 324.887 188.867 321.276 187.917C317.731 186.984 314.384 186.878 311.865 187.277C310.602 187.477 309.6 187.796 308.901 188.16C308.285 188.48 308.04 188.761 307.955 188.902ZM307.937 188.87C307.924 188.844 307.923 188.832 307.925 188.833C307.928 188.834 307.935 188.847 307.937 188.87ZM311.426 184.254C314.36 183.789 318.099 183.928 321.991 184.952C325.817 185.959 329.156 187.406 331.463 188.98C332.608 189.762 333.583 190.631 334.216 191.57C334.849 192.511 335.268 193.744 334.8 195.022C334.377 196.177 333.448 196.891 332.449 197.313C331.452 197.734 330.234 197.935 328.908 197.987C326.248 198.09 322.812 197.597 319.021 196.6L319.015 196.598C315.308 195.604 311.769 194.522 309.252 193.349C308.01 192.77 306.883 192.109 306.115 191.331C305.327 190.532 304.662 189.308 305.188 187.875C305.606 186.733 306.584 185.949 307.595 185.423C308.646 184.876 309.963 184.486 311.426 184.254Z" fill="#39431E"/>
<path opacity="0.3" d="M332.03 191.079C338.448 194.641 327.129 196 327.129 196C327.129 196 312.63 195.94 307 188C307 188 326.137 190.958 332.03 191.079Z" fill="#39431E"/>
<path d="M312.287 200.744C313.541 199.491 313.413 197.33 312.001 195.919C310.589 194.507 308.429 194.379 307.175 195.632C305.922 196.886 306.05 199.046 307.461 200.458C308.873 201.87 311.034 201.998 312.287 200.744Z" fill="#5C6C30"/>
<path fill-rule="evenodd" clip-rule="evenodd" d="M307.993 196.45C307.28 197.163 307.225 198.586 308.279 199.64C309.333 200.694 310.756 200.64 311.469 199.926C312.183 199.213 312.237 197.791 311.183 196.737C310.129 195.683 308.706 195.737 307.993 196.45ZM306.644 201.276C304.874 199.507 304.563 196.608 306.357 194.814C308.151 193.02 311.05 193.331 312.819 195.101C314.588 196.87 314.899 199.768 313.105 201.562C311.311 203.356 308.413 203.045 306.644 201.276Z" fill="#39431E"/>
<path d="M334.487 193.399C336.45 198.125 332.698 207.202 324.646 211.726C316.594 216.25 308.455 216.048 306.463 211.351C304.501 206.626 308.917 200.661 316.969 196.165C325.021 191.641 332.496 188.673 334.487 193.399Z" fill="#A1CC3A"/>
<path fill-rule="evenodd" clip-rule="evenodd" d="M327.852 192.29C324.936 192.984 321.198 194.838 317.167 197.189L317.164 197.191C313.243 199.463 310.309 202.051 308.601 204.564C306.893 207.078 306.529 209.31 307.251 211.12C307.936 212.789 309.773 213.927 312.789 213.995C315.774 214.063 319.581 213.038 323.451 210.781C327.22 208.583 329.984 205.274 331.57 201.957C333.184 198.578 333.456 195.47 332.7 193.578C332.372 192.773 331.876 192.358 331.185 192.153C330.411 191.924 329.31 191.942 327.852 192.29ZM331.981 189.267C333.51 189.72 334.7 190.764 335.371 192.417L335.374 192.425C336.587 195.455 335.959 199.534 334.165 203.289C332.34 207.108 329.182 210.883 324.871 213.397C320.66 215.853 316.344 217.078 312.725 216.996C309.142 216.915 305.897 215.504 304.581 212.284L304.577 212.274C303.332 209.162 304.2 205.827 306.233 202.836C308.268 199.841 311.589 196.982 315.748 194.572C319.798 192.211 323.849 190.163 327.203 189.365C328.88 188.965 330.534 188.839 331.981 189.267Z" fill="#39431E"/>
<path d="M309.942 205.509C310.443 203.742 308.682 201.694 306.008 200.936C303.335 200.178 300.761 200.996 300.26 202.763C299.759 204.53 301.52 206.577 304.194 207.336C306.867 208.094 309.441 207.276 309.942 205.509Z" fill="#5C6C30"/>
<path fill-rule="evenodd" clip-rule="evenodd" d="M301.913 204.673C302.457 205.306 303.36 205.897 304.509 206.223C305.659 206.549 306.737 206.52 307.532 206.267C308.338 206.011 308.718 205.584 308.829 205.193C308.94 204.802 308.84 204.24 308.289 203.599C307.745 202.966 306.842 202.375 305.693 202.049C304.543 201.723 303.465 201.753 302.67 202.005C301.864 202.261 301.484 202.688 301.373 203.079C301.262 203.47 301.362 204.033 301.913 204.673ZM300.159 206.182C299.287 205.168 298.757 203.824 299.147 202.448C299.537 201.072 300.694 200.206 301.969 199.801C303.254 199.392 304.8 199.392 306.324 199.824C307.848 200.256 309.163 201.068 310.043 202.09C310.915 203.104 311.445 204.448 311.055 205.824C310.665 207.2 309.508 208.066 308.233 208.472C306.948 208.88 305.402 208.881 303.878 208.449C302.354 208.016 301.039 207.205 300.159 206.182Z" fill="#39431E"/>
<path d="M306.011 214.379C309.054 213.887 311.308 212.173 311.046 210.549C310.784 208.925 308.105 208.006 305.062 208.498C302.019 208.989 299.764 210.704 300.027 212.328C300.289 213.952 302.968 214.87 306.011 214.379Z" fill="#5C6C30"/>
<path fill-rule="evenodd" clip-rule="evenodd" d="M302.005 210.909C301.228 211.5 301.139 211.958 301.168 212.143C301.198 212.329 301.428 212.736 302.351 213.052C303.221 213.35 304.455 213.458 305.827 213.237C307.199 213.015 308.336 212.525 309.068 211.968C309.845 211.377 309.934 210.918 309.904 210.733C309.874 210.548 309.645 210.141 308.722 209.824C307.852 209.526 306.618 209.418 305.246 209.64C303.874 209.861 302.737 210.352 302.005 210.909ZM300.604 209.067C301.694 208.238 303.206 207.626 304.877 207.356C306.548 207.086 308.176 207.192 309.472 207.636C310.714 208.061 311.956 208.926 312.188 210.364C312.42 211.803 311.514 213.014 310.468 213.809C309.378 214.638 307.867 215.251 306.196 215.521C304.524 215.79 302.897 215.685 301.601 215.241C300.358 214.815 299.117 213.951 298.885 212.512C298.652 211.074 299.559 209.863 300.604 209.067Z" fill="#39431E"/>
<path d="M303.053 178.802C303.828 181.469 311.722 183.83 320.837 182.719C329.952 181.608 336.714 178.524 335.94 175.858C335.165 173.191 328.343 172.358 319.228 173.497C310.083 174.58 302.279 176.135 303.053 178.802Z" fill="#A1CC3A"/>
<path fill-rule="evenodd" clip-rule="evenodd" d="M333.552 172.493C334.616 173.078 335.556 173.962 335.889 175.255C336.259 176.69 335.652 177.97 334.83 178.915C334.007 179.861 332.797 180.696 331.388 181.418C328.55 182.873 324.527 184.056 319.989 184.679C315.384 185.311 311.059 184.962 307.743 184.049C306.088 183.593 304.633 182.983 303.508 182.243C302.426 181.531 301.435 180.555 301.105 179.277C300.694 177.68 301.556 176.453 302.522 175.689C303.472 174.938 304.824 174.351 306.327 173.867C309.369 172.887 313.595 172.151 318.049 171.557C322.553 170.923 326.573 170.825 329.615 171.29C331.131 171.522 332.485 171.905 333.552 172.493ZM329.197 174.302C326.518 173.892 322.788 173.961 318.429 174.574L318.419 174.575C313.98 175.168 309.965 175.878 307.177 176.777C305.765 177.232 304.804 177.694 304.265 178.12C304.024 178.311 303.934 178.443 303.906 178.495C303.962 178.686 304.222 179.121 305.046 179.663C305.85 180.192 307.01 180.7 308.478 181.105C311.405 181.911 315.352 182.246 319.613 181.661C323.941 181.067 327.64 179.952 330.118 178.683C331.367 178.043 332.215 177.41 332.69 176.862C333.162 176.32 333.1 176.081 333.093 176.051L333.092 176.051C333.049 175.883 332.877 175.557 332.208 175.188C331.542 174.822 330.542 174.507 329.197 174.302Z" fill="#39431E"/>
<path opacity="0.3" d="M327.601 181C341.807 176.326 327.926 172.175 327.926 172.175C327.926 172.175 310.679 170.375 303 178.329C303 178.358 321.133 175.92 327.601 181Z" fill="#39431E"/>
<path d="M330.444 179.744C335.985 178.078 341.385 169.942 339.68 161.89C338.003 153.837 332.121 148.645 326.579 150.311C321.038 151.977 318.878 158.586 320.554 166.638C322.231 174.718 324.874 181.41 330.444 179.744Z" fill="#A1CC3A"/>
<path fill-rule="evenodd" clip-rule="evenodd" d="M335.812 150.921C338.58 153.335 340.7 157.063 341.633 161.485C342.612 166.051 341.545 170.595 339.482 174.213C337.435 177.8 334.295 180.664 330.905 181.67L330.903 181.671C329.111 182.2 327.44 182.086 325.951 181.364C324.507 180.664 323.374 179.459 322.467 178.045C320.671 175.244 319.497 171.193 318.612 166.987M335.812 150.921C333.035 148.499 329.504 147.338 325.966 148.388L335.812 150.921ZM333.81 153.057C331.6 151.13 329.129 150.462 326.845 151.141C324.474 151.844 322.757 153.591 321.806 156.222C320.844 158.884 320.694 162.41 321.538 166.412L321.539 166.413C322.416 170.588 323.511 174.198 325.007 176.53C325.746 177.683 326.515 178.414 327.292 178.791C328.025 179.146 328.895 179.252 330.028 178.917C332.461 178.195 335.068 175.976 336.866 172.824C338.646 169.702 339.521 165.852 338.708 162.066L338.707 162.062C337.879 158.133 336.027 154.992 333.81 153.057ZM325.966 148.388C322.514 149.412 320.185 151.957 318.987 155.274L325.966 148.388ZM318.987 155.274C317.799 158.559 317.695 162.636 318.612 166.986L318.987 155.274Z" fill="#39431E"/>
<path d="M336.314 161.58C347.063 168.944 356.906 174.681 351.444 180.989C347.15 185.927 338.359 181.104 327.611 173.739C316.862 166.375 310.086 157.698 312.481 154.329C314.876 150.961 325.566 154.215 336.314 161.58Z" fill="#9ADAF3"/>
<path fill-rule="evenodd" clip-rule="evenodd" d="M316.763 154.268C315.457 154.316 314.813 154.687 314.528 155.095C314.242 155.507 314.118 156.244 314.522 157.488C314.92 158.71 315.767 160.211 317.054 161.898C319.619 165.263 323.771 169.161 328.911 172.763C334.125 176.417 338.754 179.358 342.557 180.798C346.39 182.249 348.904 182.016 350.495 180.145C351.634 178.8 351.889 177.617 351.657 176.486C351.409 175.273 350.563 173.937 349.107 172.437C346.679 169.937 342.931 167.34 338.709 164.415C337.839 163.812 336.949 163.196 336.047 162.563C330.907 158.961 325.818 156.392 321.775 155.134C319.747 154.503 318.046 154.222 316.763 154.268ZM322.448 152.973C326.77 154.318 332.069 157.011 337.347 160.71C338.212 161.316 339.077 161.915 339.933 162.507C344.152 165.429 348.135 168.186 350.732 170.861C352.301 172.477 353.499 174.192 353.875 176.032C354.269 177.954 353.732 179.826 352.224 181.608L352.222 181.61C349.653 184.632 345.826 184.456 341.755 182.915C337.654 181.362 332.815 178.263 327.611 174.617C322.335 170.919 317.995 166.866 315.253 163.27C313.886 161.478 312.875 159.746 312.369 158.188C311.869 156.652 311.794 155.061 312.669 153.804C313.545 152.543 315.066 152.065 316.681 152.006C318.319 151.947 320.294 152.302 322.448 152.973Z" fill="#333333"/>
<path d="M319.25 158.083C312.802 163.228 305.227 156.508 309.015 155.406C316.532 153.201 313.38 147.846 317.197 148.003C322.517 148.187 323.731 154.513 319.25 158.083Z" fill="#9ADAF3"/>
<path fill-rule="evenodd" clip-rule="evenodd" d="M313.802 154.009C312.845 155.101 311.478 156.051 309.478 156.729L309.476 156.73C309.356 156.77 309.296 156.809 309.269 156.831C309.269 156.861 309.276 156.92 309.309 157.017C309.46 157.46 309.998 158.159 310.954 158.743C312.788 159.863 315.682 160.266 318.419 157.739L318.42 157.738C320.329 155.979 320.977 153.587 320.65 151.686C320.331 149.829 319.115 148.466 317.111 148.386L317.107 148.386L317.103 148.386C316.777 148.37 316.622 148.427 316.552 148.464C316.487 148.499 316.411 148.561 316.317 148.718C316.212 148.892 316.109 149.139 315.984 149.511C315.929 149.677 315.874 149.851 315.813 150.045C315.807 150.065 315.801 150.084 315.794 150.104C315.727 150.317 315.653 150.55 315.571 150.792C315.239 151.765 314.755 152.923 313.802 154.009ZM309.27 156.806C309.27 156.806 309.27 156.808 309.27 156.81C309.27 156.808 309.27 156.806 309.27 156.806ZM309.255 156.843C309.252 156.848 309.25 156.851 309.249 156.85C309.249 156.85 309.251 156.848 309.255 156.843ZM317.202 146.005C316.594 145.976 316.028 146.071 315.523 146.34C315.012 146.614 314.657 147.017 314.4 147.443C314.153 147.853 313.983 148.308 313.845 148.719C313.781 148.908 313.719 149.105 313.659 149.295C313.653 149.315 313.647 149.336 313.64 149.356C313.573 149.569 313.507 149.777 313.435 149.988C313.15 150.825 312.791 151.644 312.133 152.395C311.479 153.141 310.468 153.889 308.782 154.461C308.106 154.689 307.514 155.126 307.206 155.823C306.904 156.507 306.97 157.225 307.174 157.821C307.568 158.978 308.587 160.054 309.814 160.803C312.347 162.35 316.329 162.841 319.916 159.53C322.402 157.238 323.356 154.015 322.883 151.262C322.401 148.465 320.413 146.135 317.202 146.005Z" fill="#333333"/>
<path opacity="0.42" d="M318.354 93.2356L308.886 88.1278L265.374 168.783L274.842 173.891L318.354 93.2356Z" fill="#C7E9F5"/>
<path opacity="0.42" d="M324.572 111.907L318.667 108.721L287.362 166.75L293.266 169.935L324.572 111.907Z" fill="#C7E9F5"/>
<path opacity="0.42" d="M255.661 74.0272L249.756 70.8417L218.451 128.87L224.355 132.056L255.661 74.0272Z" fill="#C7E9F5"/>
<path fill-rule="evenodd" clip-rule="evenodd" d="M272 71.8071C245.354 71.8071 223.754 93.6077 223.754 120.5C223.754 147.392 245.354 169.193 272 169.193C298.646 169.193 320.246 147.392 320.246 120.5C320.246 93.6077 298.646 71.8071 272 71.8071ZM218 120.5C218 90.4005 242.177 66 272 66C301.823 66 326 90.4005 326 120.5C326 150.6 301.823 175 272 175C242.177 175 218 150.6 218 120.5Z" fill="#BDECFF"/>
<path fill-rule="evenodd" clip-rule="evenodd" d="M272 73.8071C246.476 73.8071 225.754 94.6948 225.754 120.5C225.754 146.305 246.476 167.193 272 167.193C297.524 167.193 318.246 146.305 318.246 120.5C318.246 94.6948 297.524 73.8071 272 73.8071ZM216 120.5C216 89.3133 241.055 64 272 64C302.945 64 328 89.3133 328 120.5C328 151.687 302.945 177 272 177C241.055 177 216 151.687 216 120.5ZM223.754 120.5C223.754 93.6077 245.354 71.8071 272 71.8071C298.646 71.8071 320.246 93.6077 320.246 120.5C320.246 147.392 298.646 169.193 272 169.193C245.354 169.193 223.754 147.392 223.754 120.5ZM272 66C242.177 66 218 90.4005 218 120.5C218 150.6 242.177 175 272 175C301.823 175 326 150.6 326 120.5C326 90.4005 301.823 66 272 66Z" fill="#333333"/>
<path d="M325.252 170.028C326.41 168.022 325.902 165.561 324.118 164.531C322.334 163.501 319.949 164.292 318.791 166.297C317.633 168.303 318.14 170.763 319.925 171.794C321.709 172.824 324.094 172.033 325.252 170.028Z" fill="#5C6C30"/>
<path fill-rule="evenodd" clip-rule="evenodd" d="M319.792 166.875C318.889 168.441 319.379 170.143 320.503 170.792C321.627 171.441 323.346 171.015 324.25 169.449C325.154 167.884 324.664 166.182 323.54 165.533C322.415 164.884 320.696 165.31 319.792 166.875ZM319.346 172.795C316.902 171.384 316.377 168.164 317.789 165.719C319.201 163.273 322.252 162.118 324.696 163.529C327.141 164.941 327.666 168.16 326.254 170.606C324.842 173.051 321.791 174.207 319.346 172.795Z" fill="#39431E"/>
<path d="M336.362 161.908C338.681 159.597 339.355 156.513 337.867 155.02C336.379 153.526 333.293 154.189 330.974 156.5C328.654 158.811 327.98 161.895 329.468 163.388C330.956 164.882 334.043 164.219 336.362 161.908Z" fill="#5C6C30"/>
<path fill-rule="evenodd" clip-rule="evenodd" d="M329.923 160.497C329.702 161.511 329.915 162.198 330.288 162.572C330.66 162.946 331.347 163.161 332.361 162.944C333.36 162.729 334.52 162.111 335.546 161.089C336.572 160.066 337.194 158.909 337.412 157.91C337.634 156.897 337.421 156.21 337.048 155.836C336.675 155.462 335.989 155.246 334.975 155.464C333.975 155.679 332.816 156.297 331.79 157.319C330.764 158.341 330.142 159.498 329.923 160.497ZM327.663 160.003C327.99 158.509 328.864 156.969 330.157 155.68C331.45 154.392 332.994 153.523 334.489 153.202C335.971 152.884 337.572 153.084 338.687 154.203C339.802 155.323 339.996 156.924 339.673 158.404C339.346 159.898 338.472 161.439 337.178 162.727C335.885 164.016 334.341 164.885 332.846 165.206C331.365 165.524 329.764 165.324 328.649 164.204C327.533 163.085 327.34 161.483 327.663 160.003Z" fill="#39431E"/>
<path d="M331.016 155.145C332.009 151.642 331.345 148.385 329.532 147.871C327.719 147.357 325.443 149.78 324.45 153.283C323.457 156.787 324.121 160.044 325.934 160.558C327.748 161.072 330.023 158.649 331.016 155.145Z" fill="#5C6C30"/>
<path fill-rule="evenodd" clip-rule="evenodd" d="M325.273 157.81C325.511 158.975 325.972 159.366 326.25 159.445C326.528 159.524 327.125 159.433 327.939 158.566C328.708 157.747 329.446 156.441 329.903 154.83C330.36 153.219 330.418 151.719 330.193 150.618C329.955 149.453 329.494 149.062 329.216 148.984C328.938 148.905 328.341 148.995 327.527 149.862C326.758 150.681 326.02 151.988 325.563 153.599C325.106 155.21 325.049 156.71 325.273 157.81ZM323.006 158.273C322.694 156.741 322.8 154.86 323.337 152.968C323.874 151.075 324.77 149.419 325.84 148.279C326.866 147.186 328.312 146.323 329.847 146.758C331.382 147.193 332.16 148.688 332.46 150.156C332.772 151.688 332.666 153.568 332.129 155.461C331.592 157.353 330.696 159.01 329.626 160.15C328.601 161.242 327.154 162.106 325.619 161.671C324.084 161.235 323.306 159.741 323.006 158.273Z" fill="#39431E"/>
<defs>
<linearGradient id="paint0_linear" x1="40.0002" y1="193.172" x2="137.957" y2="295.994" gradientUnits="userSpaceOnUse">
<stop stop-color="#FF8E3D"/>
<stop offset="1" stop-color="#FF6F3D"/>
</linearGradient>
<linearGradient id="paint1_linear" x1="409" y1="256" x2="409" y2="367" gradientUnits="userSpaceOnUse">
<stop stop-color="#FF8E3D"/>
<stop offset="1" stop-color="#FF6F3D"/>
</linearGradient>
</defs>
</svg>
