<svg width="24" height="24" viewBox="0 0 24 24" fill="none" xmlns="http://www.w3.org/2000/svg">
<path fill-rule="evenodd" clip-rule="evenodd" d="M4.97036 10.6296C5.39616 7.30756 8.22777 4.75 11.6707 4.75C13.5322 4.75 15.2136 5.53 16.4296 6.745L14.6042 8.85358C14.0435 9.50126 14.5036 10.5081 15.3603 10.5081H20.322C20.8743 10.5081 21.322 10.0604 21.322 9.50809V4.26919C21.322 3.37844 20.2452 2.9322 19.6151 3.56185L18.036 5.14C16.3996 3.52 14.1627 2.5 11.6707 2.5C6.99534 2.5 3.15728 6.07192 2.71973 10.6296H4.97036Z" fill="#444444"/>
<path fill-rule="evenodd" clip-rule="evenodd" d="M19.0271 13.3899C18.5927 16.7025 15.7654 19.25 12.3293 19.25C10.4677 19.25 8.78634 18.47 7.57032 17.255L9.39573 15.1464C9.95642 14.4987 9.49634 13.4919 8.63967 13.4919H3.67792C3.12564 13.4919 2.67792 13.9396 2.67792 14.4919V19.7308C2.67792 20.6216 3.75473 21.0678 4.38479 20.4382L5.96399 18.86C7.60035 20.48 9.83721 21.5 12.3293 21.5C16.9979 21.5 20.8317 17.9383 21.2783 13.3899H19.0271Z" fill="#444444"/>
</svg>
