<svg width="14" height="14" viewBox="0 0 14 14" fill="none" xmlns="http://www.w3.org/2000/svg">
<path fill-rule="evenodd" clip-rule="evenodd" d="M0.294496 0.294373C0.68502 -0.0961504 1.32186 -0.0998309 1.71239 0.290693L7.00004 5.57834L7.00008 5.57838L12.2877 0.29078C12.6782 -0.0997445 13.3151 -0.0960635 13.7056 0.294461C14.0961 0.684986 14.0998 1.32183 13.7093 1.71235L8.42165 6.99996L13.7093 12.2876C14.0998 12.6781 14.0961 13.3149 13.7056 13.7055C13.3151 14.096 12.6782 14.0997 12.2877 13.7091L7.00008 8.42153L7.00003 8.42157L1.71239 13.7092C1.32186 14.0997 0.68502 14.0961 0.294495 13.7055C-0.0960292 13.315 -0.0997095 12.6782 0.290815 12.2876L5.57846 7L5.5785 6.99996L5.57846 6.99991L0.290815 1.71227C-0.099709 1.32174 -0.0960286 0.684898 0.294496 0.294373Z" fill="#444444"/>
</svg>
