<svg width="738" height="24" viewBox="0 0 738 24" fill="none" xmlns="http://www.w3.org/2000/svg">
<path fill-rule="evenodd" clip-rule="evenodd" d="M484.778 21.5203L476.527 17.6602C475.824 17.3232 475.824 16.8023 476.527 16.4959L479.4 15.1479L484.747 17.6602C485.45 17.9972 486.581 17.9972 487.253 17.6602L492.6 15.1479L495.473 16.4959C496.176 16.8329 496.176 17.3539 495.473 17.6602L487.222 21.5203C486.581 21.8266 485.45 21.8266 484.778 21.5203Z" fill="#FF6F3D"/>
<path fill-rule="evenodd" clip-rule="evenodd" d="M484.751 16.7434L476.526 12.8787C475.825 12.5413 475.825 12.0199 476.526 11.7132L479.328 10.3943L484.751 12.94C485.452 13.2774 486.579 13.2774 487.249 12.94L492.672 10.3943L495.474 11.7132C496.175 12.0506 496.175 12.572 495.474 12.8787L487.249 16.7434C486.548 17.0807 485.421 17.0807 484.751 16.7434Z" fill="#95C038"/>
<path fill-rule="evenodd" clip-rule="evenodd" d="M484.751 12.0162L476.526 8.20719C475.825 7.87466 475.825 7.36074 476.526 7.05844L484.751 3.2494C485.452 2.91687 486.579 2.91687 487.249 3.2494L495.474 7.05844C496.175 7.39097 496.175 7.90489 495.474 8.20719L487.249 12.0162C486.548 12.3185 485.421 12.3185 484.751 12.0162Z" fill="#5DC0E8"/>
<path d="M529.613 8.85864C530.855 9.73516 532.376 10.2509 534.019 10.2509V7.12896C533.708 7.12902 533.398 7.097 533.093 7.03336V9.49076C531.451 9.49076 529.93 8.97504 528.688 8.09859V14.4695C528.688 17.6566 526.071 20.24 522.844 20.24C521.64 20.24 520.521 19.8805 519.591 19.264C520.652 20.3354 522.132 21.0001 523.769 21.0001C526.996 21.0001 529.613 18.4166 529.613 15.2294V8.85864ZM530.754 5.709C530.12 5.02439 529.703 4.13966 529.613 3.16156V2.76001H528.736C528.957 4.00318 529.71 5.06528 530.754 5.709ZM521.632 16.8183C521.278 16.3593 521.086 15.7977 521.087 15.2203C521.087 13.7627 522.283 12.5808 523.76 12.5808C524.035 12.5807 524.309 12.6223 524.571 12.7045V9.5128C524.264 9.47133 523.955 9.45372 523.646 9.46018V11.9444C523.384 11.8623 523.11 11.8205 522.835 11.8208C521.358 11.8208 520.162 13.0026 520.162 14.4604C520.162 15.4912 520.76 16.3836 521.632 16.8183Z" fill="#FF004F"/>
<path d="M528.687 8.09852C529.929 8.97497 531.45 9.49069 533.093 9.49069V7.0333C532.176 6.84041 531.364 6.36721 530.754 5.709C529.709 5.06521 528.956 4.00312 528.736 2.76001H526.432V15.2293C526.427 16.683 525.233 17.86 523.759 17.86C522.891 17.86 522.12 17.4514 521.631 16.8184C520.759 16.3836 520.161 15.4911 520.161 14.4605C520.161 13.0028 521.358 11.8209 522.834 11.8209C523.117 11.8209 523.39 11.8644 523.645 11.9445V9.46024C520.475 9.52493 517.925 12.0831 517.925 15.2294C517.925 16.8 518.56 18.2238 519.59 19.2641C520.52 19.8805 521.639 20.2401 522.844 20.2401C526.071 20.2401 528.687 17.6565 528.687 14.4695V8.09852Z" fill="black"/>
<path d="M533.093 7.03328V6.36881C532.266 6.37005 531.456 6.14137 530.754 5.70892C531.375 6.38036 532.193 6.84333 533.093 7.03328ZM528.736 2.75999C528.715 2.64118 528.699 2.52159 528.687 2.40155V2H525.507V14.4694C525.502 15.9229 524.308 17.1 522.834 17.1C522.402 17.1 521.993 16.9986 521.632 16.8184C522.12 17.4514 522.891 17.8599 523.76 17.8599C525.233 17.8599 526.428 16.683 526.433 15.2294V2.75999H528.736ZM523.646 9.46022V8.75285C523.38 8.71699 523.112 8.69899 522.844 8.69912C519.616 8.69906 517 11.2826 517 14.4694C517 16.4674 518.028 18.2282 519.591 19.2639C518.56 18.2237 517.925 16.7998 517.925 15.2293C517.925 12.0831 520.475 9.52491 523.646 9.46022Z" fill="#00F2EA"/>
<path d="M571.5 2H560.5C558.015 2 556 4.01472 556 6.5V17.5C556 19.9853 558.015 22 560.5 22H571.5C573.985 22 576 19.9853 576 17.5V6.5C576 4.01472 573.985 2 571.5 2Z" fill="#FF4906"/>
<path fill-rule="evenodd" clip-rule="evenodd" d="M569.999 11.8C571.399 11.8 572.599 13 572.599 14.6V16.6C572.599 18 571.399 19.2 569.999 19.2H565.999C564.599 19.2 563.399 18 563.399 16.6V14.6C563.399 13 564.599 11.8 565.999 11.8H569.999ZM569.999 13.2H565.999C565.664 13.2485 565.357 13.4171 565.136 13.6746C564.916 13.9321 564.796 14.2609 564.799 14.6V16.6C564.84 16.9039 564.98 17.1858 565.197 17.4026C565.414 17.6194 565.696 17.759 565.999 17.8H569.999C570.303 17.759 570.585 17.6194 570.802 17.4026C571.019 17.1858 571.158 16.9039 571.199 16.6V14.6C571.203 14.2609 571.083 13.9321 570.862 13.6746C570.642 13.4171 570.335 13.2485 569.999 13.2Z" fill="white"/>
<path d="M564.4 4C564.873 4 565.341 4.09312 565.777 4.27403C566.214 4.45495 566.611 4.72012 566.945 5.05442C567.28 5.38871 567.545 5.78557 567.726 6.22234C567.907 6.65911 568 7.12724 568 7.6C568 8.07276 567.907 8.54089 567.726 8.97766C567.545 9.41443 567.28 9.81129 566.945 10.1456C566.611 10.4799 566.214 10.745 565.777 10.926C565.341 11.1069 564.873 11.2 564.4 11.2C563.445 11.2 562.529 10.8207 561.854 10.1456C561.179 9.47045 560.8 8.55478 560.8 7.6C560.8 6.64522 561.179 5.72955 561.854 5.05442C562.529 4.37928 563.445 4 564.4 4ZM564.4 5.4C563.816 5.4 563.257 5.63178 562.844 6.04436C562.432 6.45694 562.2 7.01652 562.2 7.6C562.2 8.18348 562.432 8.74305 562.844 9.15563C563.257 9.56821 563.816 9.8 564.4 9.8C564.983 9.8 565.543 9.56821 565.955 9.15563C566.368 8.74305 566.6 8.18348 566.6 7.6C566.6 7.01652 566.368 6.45694 565.955 6.04436C565.543 5.63178 564.983 5.4 564.4 5.4Z" fill="white"/>
<path d="M569.599 5C570.421 5 571.21 5.32661 571.791 5.90797C572.372 6.48933 572.699 7.27783 572.699 8.1C572.699 8.92217 572.372 9.71067 571.791 10.292C571.21 10.8734 570.421 11.2 569.599 11.2C568.777 11.2 567.988 10.8734 567.407 10.292C566.826 9.71067 566.499 8.92217 566.499 8.1C566.499 7.27783 566.826 6.48933 567.407 5.90797C567.988 5.32661 568.777 5 569.599 5ZM569.599 6.4C569.376 6.4 569.155 6.44397 568.948 6.5294C568.742 6.61484 568.555 6.74006 568.397 6.89792C568.239 7.05578 568.114 7.24318 568.028 7.44944C567.943 7.65569 567.899 7.87675 567.899 8.1C567.899 8.32325 567.943 8.54431 568.028 8.75056C568.114 8.95681 568.239 9.14422 568.397 9.30208C568.555 9.45994 568.742 9.58516 568.948 9.6706C569.155 9.75603 569.376 9.8 569.599 9.8C570.05 9.8 570.482 9.62089 570.801 9.30208C571.12 8.98327 571.299 8.55087 571.299 8.1C571.299 7.64913 571.12 7.21673 570.801 6.89792C570.482 6.57911 570.05 6.4 569.599 6.4Z" fill="white"/>
<path fill-rule="evenodd" clip-rule="evenodd" d="M560.599 12.3999L561.199 12.5999L564.799 14.3999V16.7999L561.199 18.5999C561.005 18.7152 560.782 18.7731 560.556 18.7671C560.33 18.7611 560.11 18.6914 559.922 18.566C559.734 18.4406 559.585 18.2646 559.493 18.0583C559.4 17.852 559.368 17.6238 559.399 17.3999V13.5999C559.399 13.2816 559.526 12.9764 559.751 12.7514C559.976 12.5263 560.281 12.3999 560.599 12.3999ZM560.999 13.9999L560.799 14.3999V16.7999C560.839 16.8693 560.898 16.9254 560.969 16.961C561.04 16.9967 561.12 17.0102 561.199 16.9999L563.399 15.9999V15.1999L561.199 13.9999C561.134 13.983 561.065 13.983 560.999 13.9999Z" fill="white"/>
<path d="M611.5 2H600.5C598.015 2 596 4.01472 596 6.5V17.5C596 19.9853 598.015 22 600.5 22H611.5C613.985 22 616 19.9853 616 17.5V6.5C616 4.01472 613.985 2 611.5 2Z" fill="#FB5E5F"/>
<path fill-rule="evenodd" clip-rule="evenodd" d="M601.737 7.78305H603.071C603.041 10.2106 602.994 11.662 602.626 12.7838H605.406V13.9281H602.07C601.538 14.7223 600.714 15.4556 599.429 16.4871H597.32C597.401 16.4318 597.481 16.3671 597.553 16.3091L597.587 16.2814C598.892 15.2661 599.782 14.564 600.387 13.9281H597V12.7838H601.202C601.671 11.7696 601.697 10.3323 601.737 7.78305ZM600.748 9.7498V8.47698L597.773 8.06556V9.33838L600.748 9.7498ZM597.773 10.2258V11.4987L600.748 11.9101V10.6373L597.773 10.2258ZM610.089 12.7838H606.58V13.9281H610.089V16.4998H611.463V13.9281H614.986V12.7838H611.463V12.1413H610.089V12.7838ZM609.354 8.06556H613.291H614.519V9.38981C614.134 9.7203 613.556 10.1972 612.553 10.6979C613.253 10.8718 614.062 11.0382 615 11.1898V12.4112C613.191 12.1261 611.815 11.785 610.753 11.4341C609.678 11.7948 608.317 12.1364 606.58 12.4111V11.1898C607.491 11.0421 608.281 10.8809 608.967 10.7128C608.231 10.3482 607.756 10.0086 607.394 9.74982C607.354 9.72087 607.059 9.49632 606.914 9.38614L606.819 9.32566L608.087 7.5L609.354 8.06556ZM612.807 9.20982C612.362 9.50039 611.733 9.83702 610.792 10.1734C609.853 9.83727 609.217 9.50042 608.753 9.20982H612.807ZM604.099 14.4943H602.484L603.779 16.5H605.406L604.099 14.4943ZM612.089 14.4943H613.704L614.998 16.5H613.384L612.089 14.4943ZM609.502 14.4943H607.887L606.593 16.5H608.208L609.502 14.4943Z" fill="white"/>
<path d="M651.5 2H640.5C638.015 2 636 4.01472 636 6.5V17.5C636 19.9853 638.015 22 640.5 22H651.5C653.985 22 656 19.9853 656 17.5V6.5C656 4.01472 653.985 2 651.5 2Z" fill="#F04142"/>
<path fill-rule="evenodd" clip-rule="evenodd" d="M645.452 8.96102L644.699 10.5078H645.882L644.918 12.4452H645.723L645.189 13.5287H644.086C643.569 13.5287 643.335 13.1758 643.561 12.7109L644.082 11.6234H643.805C643.289 11.6234 643.038 11.288 643.262 10.8232L644.123 8.96094L645.452 8.96102ZM650.299 9.38554H649.482V10.5855H650.299V11.4612H649.143V12.6612H650.299V15.1079H651.499V12.6612H653.375C653.541 12.6612 653.675 12.7955 653.675 12.9612V13.7079C653.675 13.8736 653.541 14.0079 653.375 14.0079H652.456L652.985 15.1079H653.775C654.383 15.1079 654.875 14.6154 654.875 14.0079V12.5612C654.875 11.9537 654.383 11.4612 653.775 11.4612H653.414V10.4855C653.414 9.87803 652.922 9.38554 652.314 9.38554H651.499V8.99641H650.299V9.38554ZM652.214 11.4612V10.5855H651.499V11.4612H652.214ZM640.61 8.9985V14.2079C640.61 14.705 640.207 15.1079 639.71 15.1079H639.048L638.478 14.0544H639.11C639.276 14.0544 639.41 13.9201 639.41 13.7544V8.9985H640.61ZM654.233 9.35165C654.564 9.35165 654.833 9.62028 654.833 9.95165C654.851 10.5019 654.449 10.5508 653.633 10.5508V9.95165C653.633 9.62028 653.902 9.35165 654.233 9.35165ZM646.098 9.38554H648.891V10.5855H648.09V13.9079H649.289V15.1079H645.231L645.852 13.9079H646.89V10.5855H646.098V9.38554ZM642.606 10.4535L642.685 12.3863C642.701 12.6967 642.774 13.0015 642.901 13.285L642.196 14.5938L641.806 13.7767C641.618 13.3567 641.509 12.9051 641.487 12.4452L641.389 10.4535H642.606ZM638.604 10.486L638.536 12.449C638.515 12.9065 638.406 13.3558 638.217 13.7728L637.777 14.5941L637.124 13.2763C637.25 12.9984 637.323 12.6989 637.337 12.3939L637.416 10.486H638.604ZM643.847 13.9079C643.819 13.9079 643.792 13.904 643.765 13.8963L643.347 13.7767L642.78 14.9671C643.024 15.0661 643.472 15.1079 643.805 15.1079H644.6L645.156 13.9079H643.847Z" fill="white"/>
<path d="M691 2H681C678.239 2 676 4.23853 676 6.99993V16.9999C676 19.7614 678.239 22 681 22H691C693.762 22 696 19.7614 696 17V7C696 4.23858 693.762 2 691 2Z" fill="#EC6140"/>
<path fill-rule="evenodd" clip-rule="evenodd" d="M687.784 7.06134C686.171 6.57047 684.696 7.33183 683.646 8.56616C682.477 9.94036 682.168 12.1227 682.423 13.8518C682.668 15.5096 683.777 16.4382 685.339 16.8051C686.991 17.1929 688.969 16.8051 690.272 15.6585C690.83 15.1671 691.27 15.2261 691.65 15.7705C692.031 16.3149 692.195 17.2493 691.65 17.63C689.554 19.0961 686.967 19.4598 684.474 18.8742C682.12 18.3214 680.469 16.4945 680.116 14.1039C679.759 11.6928 680.2 9.29963 681.817 7.40001C683.484 5.44105 686.064 4.33707 688.588 5.10502C689.587 5.40889 690.125 5.6619 690.903 6.3708C691.394 6.8182 691.35 7.7176 690.903 8.20866C690.456 8.69971 690.063 8.65606 689.572 8.20866C689.075 7.75608 688.44 7.26073 687.784 7.06134Z" fill="white"/>
<path d="M183.866 17.2789C183.866 17.2789 183.784 17.1681 183.767 17.1374C183.371 16.43 182.579 15.534 181.39 14.4965L181.341 14.4493C180.796 13.9777 180.449 13.6476 180.35 13.4589C180.103 13.1288 180.053 12.7987 180.152 12.5157C180.251 12.2799 180.648 11.7612 181.291 10.9595C181.638 10.535 181.885 10.2049 182.083 9.96914C183.519 8.1299 184.163 6.99806 183.965 6.47929L183.866 6.33781C183.816 6.24349 183.668 6.19633 183.47 6.14917C183.272 6.10201 182.975 6.10201 182.678 6.10201H179.063C179.014 6.10201 178.915 6.10201 178.815 6.10201C178.716 6.10201 178.667 6.14917 178.667 6.14917L178.465 6.33325C178.465 6.33325 178.25 6.74945 178.215 6.83325C177.819 7.77645 177.429 8.41286 176.934 9.26174C176.637 9.73334 176.34 10.1577 176.092 10.535C175.845 10.9123 175.597 11.1481 175.448 11.3367C175.25 11.5254 175.102 11.6669 174.953 11.7612C174.805 11.8555 174.706 11.9027 174.607 11.9027C174.508 11.9027 174.458 11.8555 174.409 11.8555C174.31 11.7612 174.211 11.6669 174.112 11.5725C174.062 11.4311 174.013 11.2896 173.963 11.1009C173.914 10.9123 173.914 10.7708 173.914 10.6293C173.914 10.4879 173.914 10.2992 173.914 10.0634C173.914 9.82766 173.914 9.63902 173.914 9.5447C173.914 9.26174 173.914 8.93162 173.914 8.55434C173.914 8.22422 173.914 7.94126 173.963 7.70546C173.963 7.51682 173.963 7.28102 173.963 7.04522C173.963 6.80942 173.963 6.62077 173.914 6.52645C173.864 6.38497 173.864 6.29065 173.765 6.14917C173.715 6.00769 173.616 5.91337 173.517 5.86621C173.418 5.81905 173.27 5.72473 173.121 5.72473C172.676 5.63041 172.131 5.58325 171.438 5.58325C169.903 5.58325 168.913 5.67757 168.467 5.86621C168.269 5.96053 168.12 6.05485 167.972 6.24349C167.823 6.43213 167.823 6.52645 167.922 6.52645C168.417 6.62077 168.764 6.76226 168.962 7.04522L169.061 7.1867C169.111 7.28102 169.16 7.46966 169.259 7.75262C169.309 8.03558 169.358 8.31854 169.358 8.6015C169.408 9.16742 169.408 9.68618 169.358 10.1106C169.309 10.535 169.259 10.8651 169.259 11.0538C169.259 11.2424 169.16 11.4782 169.111 11.6197C169.012 11.7612 168.962 11.8555 168.962 11.9027C168.913 11.9498 168.913 11.9498 168.913 11.9498C168.814 11.997 168.715 11.997 168.566 11.997C168.467 11.997 168.318 11.9498 168.12 11.8083C167.972 11.714 167.774 11.5254 167.625 11.3367C167.427 11.1481 167.229 10.8651 167.031 10.535C166.783 10.2049 166.585 9.7805 166.338 9.3089L166.14 8.97878C165.991 8.74298 165.843 8.41286 165.645 7.98842C165.447 7.56398 165.249 7.13954 165.05 6.76226C165.001 6.57361 164.902 6.47929 164.753 6.38497L164.704 6.33781C164.654 6.29065 164.605 6.29065 164.506 6.24349C164.407 6.19633 164.308 6.19633 164.209 6.14917L160.792 6.10201C160.446 6.10201 160.198 6.19633 160.099 6.33781L160.05 6.43213C160 6.47929 160 6.52645 160 6.62077C160 6.71509 160.05 6.80942 160.099 6.9509C160.594 8.08274 161.139 9.16742 161.733 10.2049C162.327 11.2424 162.822 12.0913 163.268 12.7044C163.714 13.3175 164.159 13.9305 164.605 14.4965C165.05 15.0624 165.348 15.4397 165.496 15.5812C165.645 15.7226 165.744 15.8641 165.843 15.9584L166.14 16.2414C166.338 16.43 166.635 16.6658 167.031 16.9016C167.427 17.1846 167.823 17.4204 168.318 17.7034C168.764 17.9392 169.358 18.175 169.952 18.3164C170.596 18.4579 171.25 18.5832 172 18.5832H172.715C173.715 18.5832 173.816 18.2719 173.965 18.0832C173.965 18.0832 174.062 17.9035 174.062 17.7434C174.062 17.7043 174.062 17.7505 174.062 17.609C174.062 17.2789 174.062 16.9488 174.161 16.6658C174.211 16.3829 174.31 16.1942 174.359 16.0528C174.458 15.9113 174.508 15.817 174.607 15.7226C174.706 15.6283 174.755 15.5812 174.805 15.534C174.854 15.534 174.904 15.4868 174.904 15.4868C175.102 15.4397 175.349 15.4868 175.597 15.6755C175.845 15.8641 176.142 16.0999 176.34 16.3829C176.587 16.6658 176.884 16.9488 177.181 17.3261C177.528 17.6562 177.825 17.9392 178.073 18.0806L178.32 18.2221C178.469 18.3164 178.716 18.4108 178.964 18.5051C179.215 18.5832 179.465 18.5832 179.715 18.5832H182.715C183.012 18.5832 183.42 18.4579 183.618 18.3636C183.767 18.2929 183.866 18.175 183.915 18.0335C183.965 17.892 183.99 17.6796 183.965 17.5832C183.94 17.4869 183.866 17.2789 183.866 17.2789Z" fill="#4A76A8"/>
<path d="M16.375 3H14.25C11.5625 3 10.125 4.74 10.125 7.44V9.6H7.625C7.4375 9.6 7 9.72 7 10.2V12.6C7 13.02 7.3125 13.2 7.625 13.2H10.125V20.64C10.125 20.82 10.3125 21 10.5 21H13.3125C13.5 21 13.875 20.88 13.875 20.7V13.2H16.375C16.875 13.2 17 12.96 17 12.6V10.2C17 10.08 17 9.6 16.375 9.6H13.875V7.8C13.875 6.96 14.125 6.6 15.0625 6.6H16.375C16.75 6.6 17 6.18 17 6V3.6C17 3.18 16.75 3 16.375 3Z" fill="#41479B"/>
<path d="M262 2H242V22H262V2Z" fill="black"/>
<path d="M258.303 7.41032L259.5 6.25326V6H255.354L252.399 13.4324L249.037 6H244.689V6.25326L246.087 7.95411C246.224 8.07979 246.295 8.26358 246.277 8.44863V15.1326C246.32 15.3733 246.242 15.6208 246.075 15.7958L244.5 17.7246V17.9747H248.966V17.7215L247.391 15.7958C247.22 15.6202 247.139 15.3771 247.174 15.1326V9.35116L251.094 17.9779H251.549L254.92 9.35116V16.2234C254.92 16.4046 254.92 16.4419 254.802 16.5606L253.59 17.7461V18H259.472V17.7467L258.304 16.5903C258.201 16.512 258.148 16.3806 258.17 16.2531V7.74758C258.148 7.61937 258.201 7.488 258.303 7.41032Z" fill="white"/>
<path d="M207.999 8.17237H206.895L209.906 16.684L211.592 11.8669L210.285 8.17237H209.119V7.36133H214.28V8.17237H213.071L216.082 16.684L217.165 13.5909C218.585 9.62812 216.001 8.39369 216.001 7.5093C216.001 6.6249 216.718 5.90799 217.602 5.90799C217.65 5.90799 217.697 5.91059 217.742 5.91483C216.244 4.50027 214.223 3.63281 212 3.63281C209.095 3.63281 206.536 5.11362 205.036 7.36133H207.999V8.17237Z" fill="#444444"/>
<path d="M203.633 12.0002C203.633 15.2036 205.433 17.9861 208.077 19.3921L204.301 8.71826C203.871 9.72596 203.633 10.8352 203.633 12.0002Z" fill="#444444"/>
<path d="M219.282 7.87695C219.402 8.58166 219.365 9.37371 219.182 10.1689H219.215L219.089 10.5304C219.014 10.7914 218.919 11.0584 218.812 11.3208L215.933 19.3866C218.571 17.9789 220.367 15.1994 220.367 12C220.367 10.5008 219.972 9.09395 219.282 7.87695Z" fill="#444444"/>
<path d="M209.419 19.9611C210.232 20.2245 211.099 20.3673 212 20.3673C212.859 20.3673 213.688 20.2376 214.468 19.9972L212.02 13.0786L209.419 19.9611Z" fill="#444444"/>
<path d="M219.071 4.92892C217.182 3.04018 214.671 2 212 2C209.329 2 206.818 3.04018 204.929 4.92892C203.04 6.81767 202 9.32888 202 12C202 14.6711 203.04 17.1823 204.929 19.0711C206.818 20.9598 209.329 22 212 22C214.671 22 217.182 20.9598 219.071 19.0711C220.96 17.1823 222 14.6711 222 12C222 9.32888 220.96 6.81767 219.071 4.92892ZM212 21.2946C206.875 21.2946 202.705 17.1251 202.705 12C202.705 6.87499 206.875 2.70543 212 2.70543C217.125 2.70543 221.294 6.87499 221.294 12C221.294 17.1251 217.125 21.2946 212 21.2946Z" fill="#444444"/>
<path fill-rule="evenodd" clip-rule="evenodd" d="M140.608 4.48939C141.55 4.753 142.293 5.52465 142.547 6.5036C143.018 8.29168 143 12.0188 143 12.0188C143 12.0188 143 15.727 142.547 17.5152C142.293 18.494 141.55 19.2658 140.608 19.5293C138.886 20 132 20 132 20C132 20 125.132 20 123.392 19.5106C122.45 19.247 121.707 18.4752 121.453 17.4964C121 15.727 121 12 121 12C121 12 121 8.29168 121.453 6.5036C121.707 5.52482 122.468 4.73417 123.392 4.47073C125.114 4 132 4 132 4C132 4 138.886 4 140.608 4.48939ZM135.702 12.0112L129.703 15.5293V8.49316L135.702 12.0112Z" fill="#FF0000"/>
<path d="M83.1782 8.95987V21H87.3366V8.95987H83.1782ZM98.0297 8.77926C97.9703 8.77926 97.9703 8.77926 97.9109 8.71906C97.8515 8.71906 97.7921 8.71906 97.7327 8.65886C97.495 8.59866 97.2574 8.59866 97.0198 8.59866C94.6436 8.59866 93.1584 10.2843 92.6832 10.9465V8.89966H88.5248V20.9398H92.6832V14.3177C92.6832 14.3177 95.5347 9.98328 96.8416 13.1137C96.8416 15.8829 96.8416 20.9398 96.8416 20.9398H101V13.1137C101 11.3077 99.7525 9.26087 98.0297 8.77926ZM84.9604 6.97324C86.0297 6.97324 86.9208 6.07023 86.9208 4.98662C86.9208 3.90301 86.0297 3 84.9604 3C83.8911 3 83 3.90301 83 4.98662C83 6.07023 83.8911 6.97324 84.9604 6.97324Z" fill="#0084B1"/>
<path d="M59.9944 8C59.9944 8.17143 59.9944 8.34286 59.9944 8.51429C59.9944 13.8286 55.8719 20 48.2953 20C45.9554 20 43.7827 19.3143 42 18.1714C42.3343 18.2286 42.6685 18.2286 43.0028 18.2286C44.9526 18.2286 46.6797 17.6 48.1281 16.5143C46.3454 16.4571 44.7855 15.3143 44.2841 13.7143C44.507 13.7714 44.7855 13.7714 45.0641 13.7714C45.454 13.7714 45.7883 13.7143 46.1226 13.6571C44.2284 13.3143 42.8357 11.6571 42.8357 9.71429V9.65714C43.3928 9.94286 44.0056 10.1143 44.6741 10.1714C43.5599 9.42857 42.8357 8.22857 42.8357 6.8C42.8357 6.05714 43.0585 5.37143 43.3928 4.74286C45.3983 7.2 48.4624 8.8 51.8607 8.97143C51.805 8.68571 51.7493 8.34286 51.7493 8.05714C51.7493 5.82857 53.5877 4 55.8719 4C57.0418 4 58.1003 4.51429 58.8802 5.25714C59.8273 5.14286 60.7187 4.8 61.4986 4.34286C61.1643 5.31429 60.5515 6.05714 59.6602 6.57143C60.4958 6.45714 61.2758 6.28571 62 5.94286C61.4986 6.74286 60.8301 7.42857 59.9944 8Z" fill="#26A8DE"/>
<path d="M296.034 3H287.966C285.201 3 283 5.25705 283 7.96552V16.0345C283 18.7994 285.257 21 287.966 21H296.034C298.799 21 301 18.7429 301 16.0345V8.02194C301 5.25705 298.743 3 296.034 3ZM299.42 16.0909C299.42 17.953 297.897 19.4765 296.034 19.4765H287.966C286.103 19.4765 284.58 17.953 284.58 16.0909V8.02194C284.58 6.15987 286.103 4.63636 287.966 4.63636H296.034C297.897 4.63636 299.42 6.15987 299.42 8.02194V16.0909Z" fill="url(#paint0_linear_106_665)"/>
<path d="M291.972 7.40112C289.433 7.40112 287.345 9.48889 287.345 12.0281C287.345 14.5673 289.433 16.655 291.972 16.655C294.511 16.655 296.599 14.5673 296.599 12.0281C296.599 9.48889 294.511 7.40112 291.972 7.40112ZM291.972 15.0751C290.279 15.0751 288.925 13.7209 288.925 12.0281C288.925 10.3353 290.279 8.98106 291.972 8.98106C293.665 8.98106 295.019 10.3353 295.019 12.0281C295.019 13.7209 293.665 15.0751 291.972 15.0751Z" fill="url(#paint1_linear_106_665)"/>
<path d="M296.824 6.04712C296.542 6.04712 296.204 6.15997 295.978 6.38568C295.752 6.61139 295.64 6.89352 295.64 7.23208C295.64 7.51421 295.752 7.85277 295.978 8.07848C296.204 8.30419 296.486 8.41704 296.824 8.41704C297.107 8.41704 297.445 8.30419 297.671 8.07848C297.897 7.85277 298.009 7.57064 298.009 7.23208C298.009 6.94995 297.897 6.61139 297.671 6.38568C297.445 6.15997 297.107 6.04712 296.824 6.04712Z" fill="url(#paint2_linear_106_665)"/>
<path fill-rule="evenodd" clip-rule="evenodd" d="M332 22C337.523 22 342 17.5228 342 12C342 6.47715 337.523 2 332 2C326.477 2 322 6.47715 322 12C322 17.5228 326.477 22 332 22ZM334.532 17.6878C334.52 18.4201 334.527 19.4158 334.532 20.1481C333.924 20.4811 332.42 20.5185 332.014 20.5185C332.014 20.5185 330.91 20.5273 329.63 20.1481C329.658 19.504 329.685 18.7251 329.685 18.1584C329.53 18.1584 329.38 18.1616 329.232 18.1648C328.919 18.1714 328.617 18.1779 328.318 18.1527C327.416 18.073 326.722 17.6662 326.365 16.7535C326.137 16.1714 325.793 15.6781 325.264 15.3321C325.177 15.2765 325.119 15.1739 325.061 15.0712C325.034 15.0237 325.006 14.9761 324.977 14.9333C325.035 14.9171 325.092 14.9009 325.15 14.8846C325.259 14.8538 325.369 14.8231 325.478 14.7933C325.49 14.7914 325.503 14.7955 325.517 14.7996C325.523 14.8017 325.53 14.8039 325.537 14.8052C326.162 14.9207 326.581 15.3196 326.907 15.8533C327.518 16.8542 328.436 17.1689 329.503 16.741C329.588 16.708 329.691 16.642 329.723 16.5635C329.846 16.2611 329.959 15.9549 330.076 15.6378C330.116 15.5283 330.157 15.4175 330.198 15.3052L330.196 15.3048L330.197 15.3044C330.117 15.2902 330.038 15.2771 329.959 15.2639C329.849 15.2457 329.74 15.2275 329.63 15.2064C328.541 14.993 327.561 14.5822 326.823 13.6695C325.873 12.4945 325.363 9.42695 326.772 7.80357C326.835 7.73131 326.862 7.57426 326.836 7.47639C326.655 6.80325 326.673 6.13353 326.85 5.46438C326.991 4.93349 327.037 4.90618 327.569 5.01315C328.256 5.15313 328.852 5.50364 329.448 5.86439C329.58 5.94405 329.773 5.99128 329.917 5.956C331.187 5.65215 332.467 5.56566 333.74 5.86211C334.318 5.99867 334.77 5.92527 335.257 5.58785C335.761 5.23962 336.334 5.01315 336.958 4.9773C337.136 4.96535 337.232 5.02282 337.29 5.20889C337.524 5.95429 337.582 6.69912 337.381 7.4616C337.356 7.55605 337.358 7.70342 337.413 7.76829C338.166 8.69066 338.369 9.76494 338.296 10.936C338.155 13.2365 337.05 14.6226 334.923 15.1273C334.702 15.1798 334.477 15.2189 334.238 15.2604C334.13 15.2791 334.019 15.2984 333.905 15.3196C334.525 16.0144 334.544 16.8457 334.532 17.6878Z" fill="#24292E"/>
<mask id="mask0_106_665" style="mask-type:luminance" maskUnits="userSpaceOnUse" x="399" y="2" width="20" height="21">
<path d="M419 2H399V23H419V2Z" fill="white"/>
</mask>
<g mask="url(#mask0_106_665)">
<path d="M418.574 14.5893C418.28 16.0707 415.941 17.6919 413.255 18.0061C411.854 18.1698 410.474 18.3202 409.004 18.2542C406.598 18.1462 404.7 17.6919 404.7 17.6919C404.7 17.9212 404.715 18.1396 404.744 18.3438C405.056 20.6687 407.097 20.808 409.031 20.873C410.982 20.9384 412.72 20.4017 412.72 20.4017L412.8 22.1296C412.8 22.1296 411.435 22.8475 409.004 22.9795C407.663 23.0517 405.998 22.9465 404.059 22.4438C399.853 21.3536 399.13 16.9629 399.019 12.5078C398.986 11.1851 399.006 9.9378 399.006 8.89463C399.006 4.33909 402.054 3.00379 402.054 3.00379C403.59 2.31261 406.227 2.02195 408.968 2H409.036C411.777 2.02195 414.415 2.31261 415.952 3.00379C415.952 3.00379 418.999 4.33909 418.999 8.89463C418.999 8.89463 419.037 12.2557 418.574 14.5893Z" fill="#2B90D9"/>
<path d="M415.404 9.2481V14.7641H413.173V9.41024C413.173 8.28165 412.688 7.70881 411.719 7.70881C410.646 7.70881 410.109 8.38834 410.109 9.73201V12.6625H407.891V9.73201C407.891 8.38834 407.353 7.70881 406.281 7.70881C405.311 7.70881 404.826 8.28165 404.826 9.41024V14.7641H402.595V9.2481C402.595 8.12076 402.888 7.2249 403.477 6.56212C404.084 5.89933 404.879 5.55957 405.866 5.55957C407.008 5.55957 407.872 5.98939 408.444 6.84916L409 7.76165L409.556 6.84916C410.127 5.98939 410.992 5.55957 412.134 5.55957C413.121 5.55957 413.916 5.89933 414.523 6.56212C415.111 7.2249 415.404 8.12076 415.404 9.2481Z" fill="white"/>
</g>
<path d="M381 12.2067C381 11.5949 380.95 10.9798 380.842 10.3779H372.181V13.8437H377.14C376.935 14.9614 376.273 15.9502 375.305 16.5786V18.8273H378.264C380.001 17.2598 381 14.9449 381 12.2067Z" fill="#4285F4"/>
<path d="M372.181 21C374.657 21 376.745 20.203 378.267 18.8273L375.308 16.5786C374.485 17.1275 373.422 17.4384 372.184 17.4384C369.788 17.4384 367.757 15.8543 367.029 13.7246H363.975V16.0428C365.534 19.082 368.709 21 372.181 21Z" fill="#34A853"/>
<path d="M367.025 13.7245C366.641 12.6067 366.641 11.3964 367.025 10.2786V7.96045H363.975C362.673 10.5035 362.673 13.4996 363.975 16.0427L367.025 13.7245Z" fill="#FBBC04"/>
<path d="M372.181 6.56176C373.49 6.54191 374.755 7.02474 375.703 7.91101L378.324 5.34147C376.664 3.81364 374.461 2.97366 372.181 3.00012C368.709 3.00012 365.534 4.91818 363.975 7.96062L367.025 10.2788C367.751 8.14581 369.785 6.56176 372.181 6.56176Z" fill="#EA4335"/>
<path d="M454 3H438C436.9 3 436.01 3.9 436.01 5L436 17C436 18.1 436.9 19 438 19H454C455.1 19 456 18.1 456 17V5C456 3.9 455.1 3 454 3ZM454 17H438V7L446 14L454 7V17ZM446 12L438 5H454L446 12Z" fill="#FF6F3D"/>
<path fill-rule="evenodd" clip-rule="evenodd" d="M718 4.99414H734C736.209 4.99414 738 6.785 738 8.99414V18.9941C738 21.2032 736.209 22.9941 734 22.9941H718C715.791 22.9941 714 21.2032 714 18.9941V8.99414C714 6.785 715.791 4.99414 718 4.99414ZM718 7.99414C717.448 7.99414 717 8.44186 717 8.99414V18.9941C717 19.5464 717.448 19.9941 718 19.9941H734C734.552 19.9941 735 19.5464 735 18.9941V8.99414C735 8.44186 734.552 7.99414 734 7.99414H718Z" fill="#20B0E3"/>
<path d="M720 12.4941C720 11.6657 720.672 10.9941 721.5 10.9941C722.328 10.9941 723 11.6657 723 12.4941V14.4941C723 15.3225 722.328 15.9941 721.5 15.9941C720.672 15.9941 720 15.3225 720 14.4941V12.4941Z" fill="#20B0E3"/>
<path d="M718.349 3.63209C717.724 3.08859 717.657 2.14116 718.201 1.51593C718.744 0.890712 719.692 0.824461 720.317 1.36796L724.803 5.26728C725.428 5.81077 725.494 6.75821 724.951 7.38343C724.407 8.00865 723.46 8.0749 722.835 7.53141L718.349 3.63209Z" fill="#20B0E3"/>
<path d="M733.011 3.81453C733.756 3.16686 733.92 2.13498 733.376 1.50976C732.833 0.884537 731.788 0.902731 731.043 1.5504L727.291 4.81218C726.546 5.45985 726.382 6.49173 726.926 7.11695C727.469 7.74217 728.514 7.72398 729.259 7.07631L733.011 3.81453Z" fill="#20B0E3"/>
<path d="M729 12.4941C729 11.6657 729.672 10.9941 730.5 10.9941C731.328 10.9941 732 11.6657 732 12.4941V14.4941C732 15.3225 731.328 15.9941 730.5 15.9941C729.672 15.9941 729 15.3225 729 14.4941V12.4941Z" fill="#20B0E3"/>
<defs>
<linearGradient id="paint0_linear_106_665" x1="301.017" y1="5.13166" x2="282.979" y2="11.1981" gradientUnits="userSpaceOnUse">
<stop stop-color="#E0316D"/>
<stop offset="1" stop-color="#B034AE"/>
</linearGradient>
<linearGradient id="paint1_linear_106_665" x1="301.017" y1="5.13155" x2="282.979" y2="11.198" gradientUnits="userSpaceOnUse">
<stop stop-color="#E0316D"/>
<stop offset="1" stop-color="#B034AE"/>
</linearGradient>
<linearGradient id="paint2_linear_106_665" x1="301.017" y1="5.13163" x2="282.979" y2="11.1979" gradientUnits="userSpaceOnUse">
<stop stop-color="#E0316D"/>
<stop offset="1" stop-color="#B034AE"/>
</linearGradient>
</defs>
</svg>
