<svg width="24" height="26" viewBox="0 0 24 26" fill="none" xmlns="http://www.w3.org/2000/svg">
<mask id="path-1-inside-1_26140_22481" fill="white">
<path d="M10.5078 2.5C10.4806 2.69045 10.4658 2.88503 10.4658 3.08301C10.4658 5.34076 12.2961 7.1709 14.5537 7.1709C15.2225 7.17089 15.8528 7.00842 16.4102 6.72363C16.2235 7.19842 16.1211 7.71582 16.1211 8.25684C16.1212 10.5721 17.9983 12.4492 20.3135 12.4492C20.9105 12.4492 21.4781 12.3236 21.9922 12.0986C21.9949 12.195 22 12.2917 22 12.3887C22 17.9116 17.5226 22.3886 12 22.3887C6.47728 22.3887 2.00005 17.9116 2 12.3887C2 7.37279 5.69282 3.22043 10.5078 2.5Z"/>
</mask>
<path d="M10.5078 2.5L12.4877 2.78281L12.8674 0.124691L10.2119 0.522018L10.5078 2.5ZM10.4658 3.08301L8.46582 3.08295V3.08302L10.4658 3.08301ZM14.5537 7.1709V9.1709H14.5537L14.5537 7.1709ZM16.4102 6.72363L18.2715 7.45523L20.2038 2.53913L15.5001 4.94268L16.4102 6.72363ZM16.1211 8.25684L14.1211 8.25678V8.25692L16.1211 8.25684ZM20.3135 12.4492V14.4492H20.3136L20.3135 12.4492ZM21.9922 12.0986L23.9914 12.0417L23.907 9.07744L21.1903 10.2664L21.9922 12.0986ZM22 12.3887L24 12.3887V12.3887H22ZM12 22.3887V24.3887H12L12 22.3887ZM2 12.3887H0V12.3887L2 12.3887ZM10.5078 2.5L8.52791 2.21719C8.48807 2.49612 8.46583 2.78528 8.46582 3.08295L10.4658 3.08301L12.4658 3.08307C12.4658 2.98479 12.4732 2.88478 12.4877 2.78281L10.5078 2.5ZM10.4658 3.08301L8.46582 3.08302C8.46584 6.44536 11.1915 9.1709 14.5537 9.1709V7.1709V5.1709C13.4006 5.1709 12.4658 4.23617 12.4658 3.083L10.4658 3.08301ZM14.5537 7.1709L14.5537 9.1709C15.5505 9.17089 16.4916 8.928 17.3202 8.50459L16.4102 6.72363L15.5001 4.94268C15.2141 5.08884 14.8946 5.1709 14.5537 5.1709L14.5537 7.1709ZM16.4102 6.72363L14.5488 5.99203C14.272 6.69632 14.1211 7.46164 14.1211 8.25678L16.1211 8.25684L18.1211 8.25689C18.1211 7.97001 18.1751 7.70052 18.2715 7.45523L16.4102 6.72363ZM16.1211 8.25684L14.1211 8.25692C14.1212 11.6767 16.8936 14.4492 20.3135 14.4492V12.4492V10.4492C19.1029 10.4492 18.1211 9.4676 18.1211 8.25675L16.1211 8.25684ZM20.3135 12.4492L20.3136 14.4492C21.1936 14.4492 22.0336 14.2637 22.7941 13.9308L21.9922 12.0986L21.1903 10.2664C20.9225 10.3836 20.6275 10.4492 20.3134 10.4492L20.3135 12.4492ZM21.9922 12.0986L19.993 12.1556C19.9976 12.3178 20 12.3274 20 12.3887H22H24C24 12.2559 23.9922 12.0722 23.9914 12.0417L21.9922 12.0986ZM22 12.3887L20 12.3887C20 16.8069 16.4181 20.3886 12 20.3887L12 22.3887L12 24.3887C18.6272 24.3886 23.9999 19.0162 24 12.3887L22 12.3887ZM12 22.3887V20.3887C7.58184 20.3887 4.00004 16.807 4 12.3887L2 12.3887L0 12.3887C5.6386e-05 19.0162 5.37273 24.3887 12 24.3887V22.3887ZM2 12.3887H4C4 8.37796 6.95334 5.05409 10.8038 4.47798L10.5078 2.5L10.2119 0.522018C4.43231 1.38677 0 6.36762 0 12.3887H2Z" fill="#444444" mask="url(#path-1-inside-1_26140_22481)"/>
<circle cx="8.14404" cy="9.4856" r="1.49072" fill="#444444"/>
<circle cx="11.7329" cy="12.7449" r="1.49072" fill="#444444"/>
<circle cx="11.1255" cy="17.1821" r="1.49072" fill="#444444"/>
<circle cx="7.46094" cy="13.9351" r="1.49072" fill="#444444"/>
<circle cx="15.3667" cy="16.0024" r="1.49072" fill="#444444"/>
</svg>
