<svg width="26" height="26" viewBox="0 0 26 26" fill="none" xmlns="http://www.w3.org/2000/svg">
<rect x="0.5" y="0.5" width="25" height="25" rx="12.5" fill="#CB0000"/>
<path d="M10.2071 17.2782C9.81658 17.6687 9.18342 17.6687 8.79289 17.2782C8.40237 16.8877 8.40237 16.2545 8.79289 15.864L11.6213 13.0355L8.79289 10.2071C8.40237 9.81658 8.40237 9.18342 8.79289 8.79289C9.18342 8.40237 9.81658 8.40237 10.2071 8.79289L13.0355 11.6213L15.864 8.79289C16.2545 8.40237 16.8877 8.40237 17.2782 8.79289C17.6687 9.18342 17.6687 9.81658 17.2782 10.2071L14.4497 13.0355L17.2782 15.864C17.6687 16.2545 17.6687 16.8877 17.2782 17.2782C16.8877 17.6687 16.2545 17.6687 15.864 17.2782L13.0355 14.4497L10.2071 17.2782Z" fill="white"/>
</svg>
