<svg width="25" height="24" viewBox="0 0 25 24" fill="none" xmlns="http://www.w3.org/2000/svg">
<path d="M14.375 0H5.29883C4.66895 0 4.35547 0 4.11523 0.122314C3.90137 0.230713 3.73145 0.402832 3.62305 0.614503C3.5 0.854738 3.5 1.16968 3.5 1.80029V22.1997C3.5 22.8303 3.5 23.1453 3.62305 23.3855C3.73145 23.5972 3.90137 23.7693 4.11523 23.8777C4.35547 24 4.66895 24 5.29883 24H19.7012C20.331 24 20.6445 24 20.8848 23.8777C21.0986 23.7693 21.2685 23.5972 21.377 23.3855C21.5 23.1453 21.5 22.8303 21.5 22.1997V7.125C21.5 6.82397 21.4297 6.53981 21.3037 6.28786C21.2129 6.10692 21.0928 5.94286 20.9521 5.80078L19.956 4.80323C18.5352 3.37793 17.2959 2.13427 15.6963 0.545653C15.3564 0.20874 14.8906 0 14.375 0Z" fill="#1E7AAA"/>
<path d="M18.5 9H6.5V10H18.5V9Z" fill="white" fill-opacity="0.95"/>
<path d="M18.5 12H6.5V13H18.5V12Z" fill="white" fill-opacity="0.95"/>
<path d="M6.5 15H18.5V16H6.5V15Z" fill="white" fill-opacity="0.95"/>
<path d="M15.5 18H6.5V19H15.5V18Z" fill="white" fill-opacity="0.95"/>
<path fill-rule="evenodd" clip-rule="evenodd" d="M15.5 2C15.5 1 14.5196 1 14.5196 1H5.3C4.96847 1 4.77996 1.00078 4.64253 1.01201C4.59632 1.01578 4.56807 1.02004 4.55303 1.0228C4.54129 1.03106 4.53106 1.04129 4.5228 1.05303C4.52004 1.06807 4.51578 1.09632 4.51201 1.14253C4.50078 1.27996 4.5 1.46847 4.5 1.8V22.2C4.5 22.5315 4.50078 22.72 4.51201 22.8575C4.51578 22.9037 4.52004 22.9319 4.5228 22.947C4.53106 22.9587 4.5413 22.9689 4.55305 22.9772C4.56809 22.98 4.59633 22.9842 4.64254 22.988C4.77996 22.9992 4.96847 23 5.3 23H19.7C20.0315 23 20.22 22.9992 20.3575 22.988C20.4037 22.9842 20.4319 22.98 20.447 22.9772C20.4587 22.9689 20.4689 22.9587 20.4772 22.947C20.48 22.9319 20.4842 22.9037 20.488 22.8575C20.4992 22.72 20.5 22.5315 20.5 22.2V6.99346C20.5 6.99346 20.5 5.99062 19.5007 5.99062L16.5023 5.99765C15.9491 5.99895 15.5 5.55165 15.5 4.99845C15.5 4.18253 15.5 3.00521 15.5 2ZM15.6969 0.545719C15.3577 0.208432 14.8903 0 14.375 0H5.3C4.66994 0 4.35491 0 4.11426 0.122617C3.90258 0.230475 3.73047 0.402578 3.62262 0.614259C3.5 0.854911 3.5 1.16994 3.5 1.8V22.2C3.5 22.83 3.5 23.1451 3.62262 23.3857C3.73047 23.5974 3.90258 23.7695 4.11426 23.8774C4.35491 24 4.66994 24 5.3 24H19.7C20.33 24 20.6451 24 20.8857 23.8774C21.0974 23.7695 21.2695 23.5974 21.3774 23.3857C21.5 23.1451 21.5 22.83 21.5 22.2V7.125C21.5 6.60806 21.2905 6.14002 20.9521 5.80087L19.9565 4.803C18.5351 3.378 17.2948 2.13462 15.6969 0.545719Z" fill="black" fill-opacity="0.3"/>
</svg>
