<svg width="24" height="24" viewBox="0 0 24 24" fill="none" xmlns="http://www.w3.org/2000/svg">
<g clip-path="url(#clip0_3269_71301)">
<g clip-path="url(#clip1_3269_71301)">
<path d="M0.5 3.69231C0.5 1.92924 1.92924 0.5 3.69231 0.5H20.3077C22.0708 0.5 23.5 1.92925 23.5 3.69231V20.3077C23.5 22.0708 22.0708 23.5 20.3077 23.5H3.69231C1.92924 23.5 0.5 22.0708 0.5 20.3077V3.69231Z" stroke="#333333"/>
<path d="M9.41521 9.79599C8.29808 9.55464 7.59195 8.43566 7.83802 7.29668C8.08409 6.1577 9.18918 5.43003 10.3063 5.67138C10.8569 5.79032 11.3076 6.12241 11.5937 6.565" stroke="#FF6F3D" stroke-linecap="round"/>
<path d="M9.89156 11.4971C6.75642 11.4971 4.28186 13.4554 4.28186 14.8904C4.28186 15.673 5.41943 16.1384 6.7434 16.3997" stroke="#FF6F3D" stroke-linecap="round"/>
<circle cx="14.1504" cy="10.2284" r="2.09829" stroke="#333333"/>
<path d="M19.2182 16.8303C19.2182 16.9423 19.1505 17.1105 18.8314 17.3202C18.5185 17.5257 18.0551 17.706 17.4978 17.8525C16.3896 18.1438 15.0521 18.2657 14.1924 18.2657C13.3227 18.2657 11.9606 18.1751 10.8301 17.9149C10.2609 17.7839 9.78787 17.618 9.46899 17.423C9.14344 17.2239 9.0827 17.0644 9.0827 16.9624C9.0827 16.7441 9.17967 16.4542 9.42236 16.1214C9.66179 15.793 10.0221 15.4529 10.4879 15.1445C11.4193 14.5279 12.7263 14.0691 14.1924 14.0691C15.6657 14.0691 16.9531 14.4989 17.8607 15.0822C18.8015 15.6868 19.2182 16.3709 19.2182 16.8303Z" stroke="#333333"/>
</g>
</g>
<defs>
<clipPath id="clip0_3269_71301">
<rect width="24" height="24" fill="white"/>
</clipPath>
<clipPath id="clip1_3269_71301">
<rect width="24" height="24" fill="white"/>
</clipPath>
</defs>
</svg>
