<svg width="152" height="94" viewBox="0 0 152 94" fill="none" xmlns="http://www.w3.org/2000/svg">
<path d="M4.01579 0.501953C2.07729 0.501953 0.501953 2.06692 0.501953 4.00217V90.0016C0.501953 91.9368 2.07729 93.5018 4.01579 93.5018H147.988C149.927 93.5018 151.502 91.9368 151.502 90.0016V4.00217C151.502 2.06692 149.927 0.501953 147.988 0.501953H4.01579Z" fill="#808080" stroke="#CCCCCC"/>
<path d="M27 24.502H26.5V25.002V93.002V93.502H27H118H118.5V93.002V25.002V24.502H118H27Z" fill="#F5F5F5" stroke="#CCCCCC"/>
<path fill-rule="evenodd" clip-rule="evenodd" d="M42 37.9936C42 37.4459 42.4516 37.002 43.0087 37.002H65.9913C66.5484 37.002 67 37.4459 67 37.9936V62.0103C67 62.558 66.5484 63.002 65.9913 63.002H43.0087C42.4516 63.002 42 62.558 42 62.0103V37.9936Z" fill="#BDECFF"/>
<path fill-rule="evenodd" clip-rule="evenodd" d="M43.0088 62.0081L50.8713 54.5659L55.1049 58.5733L61.5071 50.5586L65.9915 57.1872V62.0081" fill="url(#paint0_linear_4670_111554)"/>
<path d="M0.998047 12.002H150.998V18.002H0.998047V12.002Z" fill="#999999"/>
<path fill-rule="evenodd" clip-rule="evenodd" d="M76 40.502C76 40.2258 76.2249 40.002 76.5023 40.002H103.498C103.775 40.002 104 40.2258 104 40.502C104 40.7781 103.775 41.002 103.498 41.002H76.5023C76.2249 41.002 76 40.7781 76 40.502Z" fill="#CCCCCC"/>
<path fill-rule="evenodd" clip-rule="evenodd" d="M72 51.502C72 51.2258 72.2244 51.002 72.5013 51.002H103.499C103.776 51.002 104 51.2258 104 51.502C104 51.7781 103.776 52.002 103.499 52.002H72.5013C72.2244 52.002 72 51.7781 72 51.502Z" fill="#CCCCCC"/>
<path fill-rule="evenodd" clip-rule="evenodd" d="M72 61.502C72 61.2258 72.2231 61.002 72.4983 61.002H103.502C103.777 61.002 104 61.2258 104 61.502C104 61.7781 103.777 62.002 103.502 62.002H72.4983C72.2231 62.002 72 61.7781 72 61.502Z" fill="#CCCCCC"/>
<path fill-rule="evenodd" clip-rule="evenodd" d="M72 46.502C72 46.2258 72.2222 46.002 72.4963 46.002H99.5037C99.7778 46.002 100 46.2258 100 46.502C100 46.7781 99.7778 47.002 99.5037 47.002H72.4963C72.2222 47.002 72 46.7781 72 46.502Z" fill="#CCCCCC"/>
<path fill-rule="evenodd" clip-rule="evenodd" d="M72 56.502C72 56.2258 72.2227 56.002 72.4975 56.002H99.5025C99.7773 56.002 100 56.2258 100 56.502C100 56.7781 99.7773 57.002 99.5025 57.002H72.4975C72.2227 57.002 72 56.7781 72 56.502Z" fill="#CCCCCC"/>
<path fill-rule="evenodd" clip-rule="evenodd" d="M47.999 72.502C47.999 72.2258 48.2213 72.002 48.4955 72.002H103.503C103.777 72.002 103.999 72.2258 103.999 72.502C103.999 72.7781 103.777 73.002 103.503 73.002H48.4955C48.2213 73.002 47.999 72.7781 47.999 72.502Z" fill="#CCCCCC"/>
<path fill-rule="evenodd" clip-rule="evenodd" d="M42 77.502C42 77.2258 42.2229 77.002 42.498 77.002H97.502C97.7771 77.002 98 77.2258 98 77.502C98 77.7781 97.7771 78.002 97.502 78.002H42.498C42.2229 78.002 42 77.7781 42 77.502Z" fill="#CCCCCC"/>
<path fill-rule="evenodd" clip-rule="evenodd" d="M43 82.502C43 82.2258 43.2232 82.002 43.4985 82.002H100.502C100.777 82.002 101 82.2258 101 82.502C101 82.7781 100.777 83.002 100.502 83.002H43.4985C43.2232 83.002 43 82.7781 43 82.502Z" fill="#CCCCCC"/>
<path d="M0.998047 18.002H9.99805V93.002H4.05182C2.36527 93.002 0.998047 91.6389 0.998047 89.9574V18.002Z" fill="#999999"/>
<path d="M151.002 18.002H129.002V93.002H148.091C149.699 93.002 151.002 91.6389 151.002 89.9574V18.002Z" fill="#999999"/>
<path d="M0.998047 4.31717C0.998047 2.48623 2.3565 1.00195 4.03224 1.00195H147.964C149.64 1.00195 150.998 2.48623 150.998 4.31717V11.002H0.998047V4.31717Z" fill="#466A93"/>
<path d="M50.0004 43.002C50.0004 44.1065 49.1049 45.002 48.0002 45.002C46.8955 45.002 46 44.1065 46 43.002C46 41.8974 46.8955 41.002 48.0002 41.002C49.1049 41.002 50.0004 41.8974 50.0004 43.002Z" fill="url(#paint1_linear_4670_111554)"/>
<path fill-rule="evenodd" clip-rule="evenodd" d="M150.998 19.002H0.998047V18.002H150.998V19.002Z" fill="#CCCCCC"/>
<path fill-rule="evenodd" clip-rule="evenodd" d="M150.998 12.002H0.998047V11.002H150.998V12.002Z" fill="#CCCCCC"/>
<path fill-rule="evenodd" clip-rule="evenodd" d="M11.0263 17.002L11.0263 93.002H10L10 17.002H11.0263Z" fill="#CCCCCC"/>
<path fill-rule="evenodd" clip-rule="evenodd" d="M129.998 18.002V93.002H129V18.002H129.998Z" fill="#CCCCCC"/>
<defs>
<linearGradient id="paint0_linear_4670_111554" x1="43.0088" y1="50.1113" x2="51.9423" y2="68.7441" gradientUnits="userSpaceOnUse">
<stop stop-color="#FFC671"/>
<stop offset="0.59375" stop-color="#FF7541"/>
<stop offset="1" stop-color="#FF6F3D"/>
</linearGradient>
<linearGradient id="paint1_linear_4670_111554" x1="48.0002" y1="41.002" x2="48.0002" y2="45.002" gradientUnits="userSpaceOnUse">
<stop stop-color="#FF8E3D"/>
<stop offset="1" stop-color="#FF6F3D"/>
</linearGradient>
</defs>
</svg>
