<svg width="100" height="100" viewBox="0 0 100 100" fill="none" xmlns="http://www.w3.org/2000/svg">
<g clip-path="url(#clip0_781_15508)">
<path fill-rule="evenodd" clip-rule="evenodd" d="M80 6.30768C80 4.09854 78.2091 2.30768 76 2.30768H18.0925C17.8324 2.30768 17.5825 2.40904 17.3959 2.59025L2.30336 17.2455C2.10943 17.4338 2 17.6926 2 17.9629V92.3077C2 94.5168 3.79086 96.3077 6 96.3077H77C78.6569 96.3077 80 94.9645 80 93.3077V6.30768Z" fill="#333333"/>
<path fill-rule="evenodd" clip-rule="evenodd" d="M16.6992 1.87283L1.60673 16.528C1.21886 16.9047 1 17.4223 1 17.9629V92.3077C1 95.0691 3.23857 97.3077 6 97.3077H77C79.2091 97.3077 81 95.5168 81 93.3077V6.30768C81 3.54625 78.7614 1.30768 76 1.30768H18.0925C17.5723 1.30768 17.0725 1.5104 16.6992 1.87283ZM76 2.30768C78.2091 2.30768 80 4.09854 80 6.30768V93.3077C80 94.9645 78.6569 96.3077 77 96.3077H6C3.79086 96.3077 2 94.5168 2 92.3077V17.9629C2 17.6926 2.10943 17.4338 2.30336 17.2455L17.3959 2.59025C17.5825 2.40904 17.8324 2.30768 18.0925 2.30768H76Z" fill="#666666"/>
<rect x="80" y="14" width="1" height="32" fill="#333333"/>
<path fill-rule="evenodd" clip-rule="evenodd" d="M17.5 2.5L1.5 18H15.9344C17.0643 18 17.9698 17.0648 17.9334 15.9355L17.5 2.5Z" fill="url(#paint0_linear_781_15508)"/>
<path d="M2 18.5C1.72386 18.5 1.5 18.2761 1.5 18C1.5 17.7239 1.72386 17.5 2 17.5V18.5ZM2 17.5H15V18.5H2V17.5ZM17.5 15V2H18.5V15H17.5ZM15 17.5C16.3807 17.5 17.5 16.3807 17.5 15H18.5C18.5 16.933 16.933 18.5 15 18.5V17.5Z" fill="#666666"/>
<path fill-rule="evenodd" clip-rule="evenodd" d="M51.9229 44.5C51.9229 44.2239 51.7487 44 51.5339 44H36.8081C36.5933 44 36.4191 44.2239 36.4191 44.5C36.4191 44.7761 36.5933 45 36.8081 45H51.5339C51.7487 45 51.9229 44.7761 51.9229 44.5ZM30.5035 44.5C30.5035 44.2239 30.3294 44 30.1145 44H15.3887C15.1739 44 14.9998 44.2239 14.9998 44.5C14.9998 44.7761 15.1739 45 15.3887 45H30.1145C30.3294 45 30.5035 44.7761 30.5035 44.5Z" fill="#666666"/>
<path fill-rule="evenodd" clip-rule="evenodd" d="M29 24.5C29 24.2239 28.8252 24 28.6097 24H23.3903C23.1748 24 23 24.2239 23 24.5C23 24.7761 23.1748 25 23.3903 25H28.6097C28.8252 25 29 24.7761 29 24.5Z" fill="#666666"/>
<path fill-rule="evenodd" clip-rule="evenodd" d="M57 54.5C57 54.2239 56.8242 54 56.6074 54H15.3926C15.1758 54 15 54.2239 15 54.5C15 54.7761 15.1758 55 15.3926 55H56.6074C56.8242 55 57 54.7761 57 54.5Z" fill="#666666"/>
<path fill-rule="evenodd" clip-rule="evenodd" d="M45 34.5C45 34.2239 44.8232 34 44.6052 34H15.3948C15.1768 34 15 34.2239 15 34.5C15 34.7761 15.1768 35 15.3948 35H44.6052C44.8232 35 45 34.7761 45 34.5Z" fill="#666666"/>
<path fill-rule="evenodd" clip-rule="evenodd" d="M35 64.5031C35 64.2269 34.8248 64.0031 34.6088 64.0031H15.3912C15.1752 64.0031 15 64.2269 15 64.5031C15 64.7792 15.1752 65.0031 15.3912 65.0031H34.6088C34.8248 65.0031 35 64.7792 35 64.5031Z" fill="#666666"/>
<path fill-rule="evenodd" clip-rule="evenodd" d="M44 84.5C44 84.2239 43.8207 84 43.5996 84H15.4004C15.1793 84 15 84.2239 15 84.5C15 84.7761 15.1793 85 15.4004 85H43.5996C43.8207 85 44 84.7761 44 84.5Z" fill="#666666"/>
<path fill-rule="evenodd" clip-rule="evenodd" d="M58 74.5C58 74.2239 57.8264 74 57.6123 74H15.3877C15.1736 74 15 74.2239 15 74.5C15 74.7761 15.1736 75 15.3877 75H57.6123C57.8264 75 58 74.7761 58 74.5Z" fill="#666666"/>
<path fill-rule="evenodd" clip-rule="evenodd" d="M57 64.5C57 64.2239 56.833 64 56.6269 64H42.3731C42.167 64 42 64.2239 42 64.5C42 64.7761 42.167 65 42.3731 65H56.6269C56.833 65 57 64.7761 57 64.5Z" fill="#666666"/>
<rect x="33" y="12" width="31" height="2" rx="1" fill="url(#paint1_linear_781_15508)"/>
<path fill-rule="evenodd" clip-rule="evenodd" d="M93.7789 24.1321L74.2306 47.7106V70.9997C74.2306 72.6296 72.3803 73.5729 71.0579 72.6172L66.5964 69.3928C66.0768 69.0173 65.7691 68.4157 65.7691 67.7753V47.7106L46.2572 24.1437C44.9558 22.5142 43.8723 19 47.2583 19H93.0075C96.1167 19 94.9449 22.665 93.7789 24.1321Z" fill="#D9F4FF"/>
<path fill-rule="evenodd" clip-rule="evenodd" d="M74.2306 47.7106L93.7789 24.1321C94.9449 22.665 96.1167 19 93.0075 19H47.2583C43.8723 19 44.9558 22.5142 46.2572 24.1437L65.7691 47.7106V67.7753C65.7691 68.4157 66.0768 69.0173 66.5964 69.3928L71.0579 72.6172C72.3803 73.5729 74.2306 72.6296 74.2306 70.9997V47.7106ZM47.0339 23.5147L66.7691 47.3514V67.7753C66.7691 68.0955 66.9229 68.3963 67.1827 68.584L71.6443 71.8084C72.3055 72.2863 73.2306 71.8146 73.2306 70.9997V47.351L93.0015 23.504C93.4794 22.8988 93.9589 21.8169 93.9974 20.9705C94.0162 20.5579 93.9252 20.3411 93.8388 20.2387C93.7742 20.1621 93.5865 19.9984 93.0075 19.9984H47.2583C46.5761 19.9984 46.3042 20.1737 46.1988 20.2793C46.0929 20.3854 45.9964 20.5803 46 20.9513C46.0075 21.7414 46.4763 22.8135 47.0339 23.5147Z" fill="#666666"/>
</g>
<defs>
<linearGradient id="paint0_linear_781_15508" x1="18" y1="1.89453" x2="2.56712" y2="18.9648" gradientUnits="userSpaceOnUse">
<stop stop-color="#FF8E3D"/>
<stop offset="1" stop-color="#FF6F3D"/>
</linearGradient>
<linearGradient id="paint1_linear_781_15508" x1="33.0001" y1="11.9219" x2="33.2477" y2="15.9094" gradientUnits="userSpaceOnUse">
<stop stop-color="#FF8E3D"/>
<stop offset="1" stop-color="#FF6F3D"/>
</linearGradient>
<clipPath id="clip0_781_15508">
<rect width="100" height="100" fill="white"/>
</clipPath>
</defs>
</svg>
