<svg width="108" height="108" viewBox="0 0 108 108" fill="none" xmlns="http://www.w3.org/2000/svg">
<g clip-path="url(#clip0_1231_16154)">
<path fill-rule="evenodd" clip-rule="evenodd" d="M86.3999 6.49231C86.3999 4.28317 84.609 2.49231 82.3999 2.49231H19.7759C19.514 2.49231 19.2625 2.59509 19.0755 2.77854L2.79182 18.757C2.60018 18.945 2.49221 19.2022 2.49221 19.4707V100.677C2.49221 102.886 4.28307 104.677 6.49221 104.677H83.3999C85.0568 104.677 86.3999 103.334 86.3999 101.677V6.49231Z" fill="white"/>
<path fill-rule="evenodd" clip-rule="evenodd" d="M87.2307 6.23077C87.2307 4.16608 85.5569 2.49231 83.4923 2.49231L19.5257 2.49231C19.1963 2.49231 18.8803 2.62272 18.6468 2.85502L2.85953 18.5609C2.62444 18.7947 2.49225 19.1127 2.49225 19.4443L2.49225 101.769C2.49225 103.834 4.16602 105.508 6.23071 105.508L83.4923 105.508C85.5569 105.508 87.2307 103.834 87.2307 101.769L87.2307 60.4765C87.2307 60.2471 87.0447 60.0611 86.8153 60.0611C86.5859 60.0611 86.3999 60.2471 86.3999 60.4765L86.3999 101.769C86.3999 103.375 85.0981 104.677 83.4923 104.677L6.23071 104.677C4.62484 104.677 3.32302 103.375 3.32302 101.769L3.32302 19.4443C3.32302 19.3338 3.36707 19.2278 3.44545 19.1498L19.2327 3.44398C19.3106 3.36655 19.4159 3.32308 19.5257 3.32308L83.4923 3.32308C85.0981 3.32308 86.3999 4.6249 86.3999 6.23077V15.6808C86.3999 15.9102 86.5859 16.0962 86.8153 16.0962C87.0447 16.0962 87.2307 15.9102 87.2307 15.6808V6.23077Z" fill="#333333"/>
<path fill-rule="evenodd" clip-rule="evenodd" d="M19.1077 3.32312L3.32305 19.1077H17.1077C18.2122 19.1077 19.1077 18.2123 19.1077 17.1077V3.32312Z" fill="url(#paint0_linear_1231_16154)"/>
<path d="M19.5229 3.32312V16.5233C19.5229 18.1802 18.1798 19.5233 16.523 19.5233H3.32295" stroke="#333333" stroke-linejoin="round"/>
<path fill-rule="evenodd" clip-rule="evenodd" d="M56.4922 47.7676C56.4922 47.5381 56.3041 47.3522 56.0721 47.3522H40.1682C39.9362 47.3522 39.7481 47.5381 39.7481 47.7676C39.7481 47.997 39.9362 48.1829 40.1682 48.1829H56.0721C56.3041 48.1829 56.4922 47.997 56.4922 47.7676ZM33.3593 47.7676C33.3593 47.5381 33.1712 47.3522 32.9392 47.3522H17.0354C16.8033 47.3522 16.6153 47.5381 16.6153 47.7676C16.6153 47.997 16.8033 48.1829 17.0354 48.1829H32.9392C33.1712 48.1829 33.3593 47.997 33.3593 47.7676Z" fill="#333333"/>
<path fill-rule="evenodd" clip-rule="evenodd" d="M31.5691 26.1693C31.5691 25.9399 31.3755 25.7539 31.1367 25.7539H25.3553C25.1165 25.7539 24.9229 25.9399 24.9229 26.1693C24.9229 26.3987 25.1165 26.5847 25.3553 26.5847H31.1367C31.3755 26.5847 31.5691 26.3987 31.5691 26.1693Z" fill="#333333"/>
<path fill-rule="evenodd" clip-rule="evenodd" d="M61.4768 58.5692C61.4768 58.3398 61.289 58.1538 61.0574 58.1538H17.0347C16.803 58.1538 16.6153 58.3398 16.6153 58.5692C16.6153 58.7986 16.803 58.9846 17.0347 58.9846H61.0574C61.289 58.9846 61.4768 58.7986 61.4768 58.5692Z" fill="#333333"/>
<path fill-rule="evenodd" clip-rule="evenodd" d="M48.1846 36.9725C48.1846 36.7431 47.9986 36.5571 47.7691 36.5571H17.0308C16.8013 36.5571 16.6153 36.7431 16.6153 36.9725C16.6153 37.2019 16.8013 37.3879 17.0308 37.3879H47.7691C47.9986 37.3879 48.1846 37.2019 48.1846 36.9725Z" fill="#333333"/>
<path fill-rule="evenodd" clip-rule="evenodd" d="M38.2153 69.3724C38.2153 69.143 38.0262 68.957 37.7928 68.957H17.0379C16.8045 68.957 16.6153 69.143 16.6153 69.3724C16.6153 69.6018 16.8045 69.7878 17.0379 69.7878H37.7928C38.0262 69.7878 38.2153 69.6018 38.2153 69.3724Z" fill="#333333"/>
<path fill-rule="evenodd" clip-rule="evenodd" d="M46.5229 90.9692C46.5229 90.7398 46.3329 90.5538 46.0985 90.5538H16.2089C15.9745 90.5538 15.7845 90.7398 15.7845 90.9692C15.7845 91.1986 15.9745 91.3846 16.2089 91.3846H46.0985C46.3329 91.3846 46.5229 91.1986 46.5229 90.9692Z" fill="#333333"/>
<path fill-rule="evenodd" clip-rule="evenodd" d="M62.3108 80.1693C62.3108 79.9399 62.123 79.7539 61.8913 79.7539H16.2072C15.9755 79.7539 15.7877 79.9399 15.7877 80.1693C15.7877 80.3987 15.9755 80.5847 16.2072 80.5847H61.8913C62.123 80.5847 62.3108 80.3987 62.3108 80.1693Z" fill="#333333"/>
<path fill-rule="evenodd" clip-rule="evenodd" d="M61.4768 69.3692C61.4768 69.1398 61.2918 68.9539 61.0636 68.9539H45.2746C45.0464 68.9539 44.8614 69.1398 44.8614 69.3692C44.8614 69.5987 45.0464 69.7846 45.2746 69.7846H61.0636C61.2918 69.7846 61.4768 69.5987 61.4768 69.3692Z" fill="#333333"/>
<path fill-rule="evenodd" clip-rule="evenodd" d="M66.4614 14.9538C66.4614 14.495 66.0895 14.123 65.6307 14.123H36.5537C36.0949 14.123 35.723 14.495 35.723 14.9538C35.723 15.4126 36.0949 15.7846 36.5537 15.7846H65.6307C66.0895 15.7846 66.4614 15.4126 66.4614 14.9538Z" fill="url(#paint1_linear_1231_16154)"/>
<path fill-rule="evenodd" clip-rule="evenodd" d="M101.697 26.4124L80.5846 52.3385V78.2916C80.5846 79.9312 78.72 80.8742 77.3993 79.9025L72.2608 76.1216C71.7486 75.7447 71.4461 75.1467 71.4461 74.5107V52.3385L50.3733 26.4251C48.9678 24.6334 47.7976 20.7693 51.4545 20.7693H100.864C104.222 20.7693 102.956 24.7991 101.697 26.4124Z" fill="#D9F4FF"/>
<path d="M80.1969 52.0228L80.0846 52.1607V52.3385V78.2916C80.0846 79.5213 78.6861 80.2286 77.6956 79.4997L72.5572 75.7189C72.173 75.4362 71.9461 74.9877 71.9461 74.5107V52.3385V52.1609L71.8341 52.0231L50.7641 26.1131C50.1074 25.2744 49.5253 23.9666 49.5155 22.9206C49.5107 22.4087 49.6421 22.0164 49.9022 21.7511C50.1607 21.4874 50.6246 21.2693 51.4545 21.2693H100.864C101.601 21.2693 101.99 21.4867 102.202 21.7432C102.427 22.0142 102.536 22.4259 102.512 22.9635C102.464 24.0478 101.883 25.3588 101.306 26.1008L80.1969 52.0228Z" stroke="#333333"/>
</g>
<defs>
<linearGradient id="paint0_linear_1231_16154" x1="19.1076" y1="2.70653" x2="3.32302" y2="19.1077" gradientUnits="userSpaceOnUse">
<stop stop-color="#FF8E3D"/>
<stop offset="1" stop-color="#FF6F3D"/>
</linearGradient>
<linearGradient id="paint1_linear_1231_16154" x1="66.4614" y1="14.0581" x2="66.2888" y2="17.3747" gradientUnits="userSpaceOnUse">
<stop stop-color="#FF8E3D"/>
<stop offset="1" stop-color="#FF6F3D"/>
</linearGradient>
<clipPath id="clip0_1231_16154">
<rect width="108" height="108" fill="white"/>
</clipPath>
</defs>
</svg>
