<svg width="152" height="94" viewBox="0 0 152 94" fill="none" xmlns="http://www.w3.org/2000/svg">
<path d="M4.01383 0.501953C2.07533 0.501953 0.5 2.06693 0.5 4.00218V90.0017C0.5 91.937 2.07534 93.502 4.01384 93.502H147.986C149.925 93.502 151.5 91.937 151.5 90.0017V4.00217C151.5 2.06692 149.925 0.501953 147.986 0.501953H4.01383Z" fill="#808080" stroke="#CCCCCC"/>
<path opacity="0.6" d="M1 12.002H151V18.002H1V12.002Z" fill="#AAAAAA"/>
<path opacity="0.6" d="M1 18.002H10V93.002H4.05377C2.36722 93.002 1 91.6389 1 89.9574V18.002Z" fill="#AAAAAA"/>
<path opacity="0.6" d="M151 18.002H128V93.002H147.957C149.637 93.002 151 91.6389 151 89.9574V18.002Z" fill="#AAAAAA"/>
<path d="M1 4.00195C1 2.17101 2.33551 1.00195 4 1.00195H148C149.664 1.00195 151 2.17101 151 4.00195V11.002H1V4.00195Z" fill="#AA5252"/>
<path fill-rule="evenodd" clip-rule="evenodd" d="M151 19.002H1V18.002H151V19.002Z" fill="#CCCCCC"/>
<path fill-rule="evenodd" clip-rule="evenodd" d="M151 12.002H1V11.002H151V12.002Z" fill="#CCCCCC"/>
<path fill-rule="evenodd" clip-rule="evenodd" d="M10 18.002L10 93.002H9L9 18.002H10Z" fill="#CCCCCC"/>
<path fill-rule="evenodd" clip-rule="evenodd" d="M128 18.002V93.002H127V18.002H128Z" fill="#CCCCCC"/>
<path d="M25 22.502H24.5V23.002V93.002V93.502H25H115H115.5V93.002V23.002V22.502H115H25Z" fill="#F5F5F5" stroke="#CCCCCC"/>
<path fill-rule="evenodd" clip-rule="evenodd" d="M72 38.502C72 38.2258 72.257 38.002 72.574 38.002H103.426C103.743 38.002 104 38.2258 104 38.502C104 38.7781 103.743 39.002 103.426 39.002H72.574C72.257 39.002 72 38.7781 72 38.502Z" fill="#CCCCCC"/>
<path fill-rule="evenodd" clip-rule="evenodd" d="M36 45.5391C36 45.2629 36.2222 45.0391 36.4963 45.0391H63.5037C63.7778 45.0391 64 45.2629 64 45.5391C64 45.8152 63.7778 46.0391 63.5037 46.0391H36.4963C36.2222 46.0391 36 45.8152 36 45.5391Z" fill="#CCCCCC"/>
<path fill-rule="evenodd" clip-rule="evenodd" d="M36 69.5391C36 69.2629 36.2223 69.0391 36.4964 69.0391H91.5036C91.7777 69.0391 92 69.2629 92 69.5391C92 69.8152 91.7777 70.0391 91.5036 70.0391H36.4964C36.2223 70.0391 36 69.8152 36 69.5391Z" fill="#CCCCCC"/>
<path fill-rule="evenodd" clip-rule="evenodd" d="M36 74.5391C36 74.2629 36.1077 74.0391 36.2406 74.0391H63.7594C63.8923 74.0391 64 74.2629 64 74.5391C64 74.8152 63.8923 75.0391 63.7594 75.0391H36.2406C36.1077 75.0391 36 74.8152 36 74.5391Z" fill="#CCCCCC"/>
<path fill-rule="evenodd" clip-rule="evenodd" d="M76 74.5391C76 74.2629 76.1077 74.0391 76.2406 74.0391H103.759C103.892 74.0391 104 74.2629 104 74.5391C104 74.8152 103.892 75.0391 103.759 75.0391H76.2406C76.1077 75.0391 76 74.8152 76 74.5391Z" fill="#CCCCCC"/>
<rect x="36.5" y="36.502" width="27" height="4" rx="0.5" fill="#27ABA3" fill-opacity="0.5" stroke="#27ABA3"/>
<rect opacity="0.5" x="36" y="79.0391" width="28" height="5" rx="1" fill="#27ABA3"/>
<path d="M60.5084 81.3834H60.4375C60.3643 81.343 60.2843 81.3158 60.2012 81.3031H59.705H59.2088H58.5946C58.461 81.3046 58.3297 81.2687 58.2165 81.1998C58.2433 81.1401 58.2749 81.0825 58.311 81.0276L58.4174 80.8325L58.5946 80.4308C58.6197 80.3406 58.6197 80.2455 58.5946 80.1553C58.5749 80.079 58.526 80.0129 58.458 79.9703C58.39 79.9277 58.3079 79.9117 58.2283 79.9257C58.1623 79.9106 58.0935 79.9106 58.0274 79.9257C58.0038 79.8284 57.9502 79.7404 57.8739 79.6733C57.8092 79.637 57.7359 79.6179 57.6613 79.6179C57.5866 79.6179 57.5132 79.637 57.4486 79.6733C57.4344 79.5777 57.3889 79.4891 57.3186 79.4207C57.2414 79.3484 57.1475 79.2951 57.0448 79.2651C56.9421 79.2352 56.8334 79.2295 56.728 79.2486C56.4873 79.295 56.2633 79.4019 56.0783 79.5585C55.9505 79.6552 55.8281 79.7586 55.712 79.8684C55.7113 79.7621 55.6752 79.6588 55.6092 79.5741C55.5432 79.4893 55.4509 79.4275 55.3459 79.3978C55.2182 79.3402 55.0727 79.3318 54.9389 79.3744C54.8051 79.417 54.6929 79.5075 54.6251 79.6274C54.5264 79.7975 54.4396 79.9739 54.3652 80.1553C54.2937 80.1589 54.2223 80.1463 54.1567 80.1184C54.0911 80.0905 54.0331 80.0481 53.9873 79.9946C53.9083 79.9033 53.8408 79.8031 53.7864 79.6962V79.5929C53.78 79.5626 53.78 79.5314 53.7864 79.5011C53.7595 79.4414 53.728 79.3838 53.6919 79.3289C53.6618 79.2729 53.6181 79.2248 53.5646 79.1888C53.5111 79.1528 53.4494 79.13 53.3848 79.1223C53.3115 79.1266 53.2408 79.1502 53.1804 79.1907C53.12 79.2311 53.0722 79.2868 53.0421 79.3518C53.0357 79.3899 53.0357 79.4287 53.0421 79.4667H52.924H52.4278C51.2198 79.718 50.0346 80.0634 48.8837 80.4996C49.2014 79.7393 49.6945 79.06 50.3251 78.514C50.5259 78.3418 50.7149 78.1811 50.8921 78.009C51.0095 77.8985 51.102 77.7657 51.1638 77.6188C51.1953 77.5366 51.2043 77.4479 51.1898 77.3613C51.1753 77.2748 51.1377 77.1934 51.081 77.1252C51.0021 77.0692 50.907 77.0391 50.8093 77.0391C50.7117 77.0391 50.6165 77.0692 50.5376 77.1252C50.4101 77.1962 50.2913 77.2809 50.1833 77.3777C49.7042 77.8167 49.258 78.2885 48.8484 78.7894L48.423 79.283C48.064 79.6697 47.7437 80.0886 47.4661 80.5341C47.3549 80.7225 47.2244 80.8994 47.0763 81.0621L46.9109 81.2802L46.0486 81.7048C44.3444 82.5011 42.6984 83.4099 41.1222 84.4251C40.2817 84.9743 39.4913 85.5925 38.7595 86.273C38.244 86.7316 37.7769 87.2391 37.3654 87.788C37.2415 87.9637 37.1385 88.1523 37.0583 88.3504C37.02 88.4212 37 88.5 37 88.58C37 88.66 37.02 88.7388 37.0583 88.8096C37.1089 88.8797 37.1762 88.9372 37.2542 88.9771C37.3323 89.017 37.419 89.0382 37.5072 89.0391H37.6726H37.8262L38.2396 88.9473C39.3066 88.5851 40.3353 88.1238 41.3113 87.57C41.8877 87.2464 42.4438 86.8899 42.9769 86.5025L43.2604 86.3074L43.4495 86.1811C43.544 86.1811 44.6308 85.2515 44.7726 85.1367C45.1979 84.689 45.5995 84.2528 45.954 83.7937C46.3084 83.3346 46.8282 82.7722 47.1353 82.3131L47.2416 82.1984C47.3115 82.1172 47.3909 82.044 47.478 81.9803C47.4738 82.0843 47.4367 82.1845 47.3717 82.2672C47.3067 82.3273 47.2684 82.4097 47.2652 82.4968C47.2502 82.5546 47.2498 82.6151 47.2642 82.6731C47.2786 82.7311 47.3074 82.7849 47.348 82.8296C47.4104 82.8818 47.486 82.9167 47.5671 82.9309C47.6481 82.945 47.7316 82.9378 47.8088 82.91C47.9284 82.8582 48.0337 82.7795 48.1159 82.6804C48.1859 82.5608 48.2412 82.4336 48.2812 82.3016C48.3362 82.0942 48.3757 81.8833 48.3995 81.6704C48.3995 81.6015 48.3994 81.5786 48.5294 81.5441L49.8289 81.108H49.9115L51.0102 80.7407L51.6482 80.5571H51.8018L51.8726 80.6144C51.8772 80.6602 51.8772 80.7064 51.8726 80.7522C51.8412 80.8363 51.8323 80.9267 51.8468 81.015C51.8612 81.1033 51.8987 81.1867 51.9554 81.2572C52.0177 81.3251 52.098 81.375 52.1877 81.4014C52.2773 81.4277 52.3727 81.4295 52.4633 81.4064C52.5549 81.3913 52.6429 81.3602 52.7231 81.3146L52.8531 81.2572C52.8447 81.3027 52.8447 81.3494 52.8531 81.3949C52.913 81.4833 53.0065 81.5452 53.1131 81.5671C53.1961 81.5768 53.2803 81.5649 53.3571 81.5326C53.4339 81.5004 53.5006 81.4489 53.5502 81.3834C53.6703 81.2026 53.7618 81.0052 53.8219 80.7981C54.0309 80.9436 54.275 81.0346 54.5307 81.0621C54.5437 81.1303 54.5677 81.1961 54.6016 81.2572L54.4834 81.4408L54.3181 81.6934L54.1172 82.0147C53.9046 82.359 53.6801 82.7149 53.4792 83.0592C53.2936 83.3639 53.2072 83.716 53.2312 84.0693C53.2268 84.1395 53.2383 84.2097 53.2648 84.2751C53.2913 84.3406 53.3323 84.3995 53.3848 84.448C53.4384 84.4916 53.5006 84.5243 53.5676 84.544C53.6346 84.5637 53.705 84.5701 53.7746 84.5628C54.13 84.5491 54.4741 84.4376 54.7669 84.2414C55.3971 83.8117 55.9864 83.3276 56.5272 82.7952C56.9248 82.4456 57.2885 82.0614 57.614 81.6474C57.7014 81.8171 57.8479 81.9513 58.0274 82.0262C58.1194 82.0637 58.2142 82.0944 58.311 82.118C59.0489 82.2511 59.8058 82.2511 60.5437 82.118C60.5986 82.1262 60.6543 82.1262 60.7092 82.118C60.762 82.0925 60.8066 82.0533 60.8379 82.0047C60.8692 81.956 60.886 81.8999 60.8864 81.8426C60.949 81.7939 60.9893 81.7229 60.9981 81.6454C61.007 81.5679 60.9838 81.4902 60.9337 81.4293C60.8836 81.3684 60.8105 81.3294 60.7308 81.3208C60.651 81.3122 60.5711 81.3347 60.5084 81.3834ZM55.393 81.6245C55.9022 81.5092 56.3684 81.2589 56.7398 80.9014C56.6983 80.9801 56.6467 81.0534 56.5862 81.1195C56.1046 81.7212 55.5624 82.2749 54.9677 82.7723C54.6283 83.068 54.2648 83.3367 53.8808 83.5757C54.148 83.0414 54.4561 82.5273 54.8023 82.0377L55.074 81.6934C55.1961 81.6981 55.3177 81.6745 55.4285 81.6245H55.393ZM45.3396 82.7723L44.9971 83.174C44.5128 83.7478 44.0047 84.3218 43.4731 84.8612C43.4141 84.9186 43.1423 85.1137 42.9887 85.217L42.8588 85.3203C42.373 85.6821 41.8683 86.0193 41.3466 86.3303C40.2513 86.9819 39.1014 87.5426 37.909 88.0061H37.8025C38.5179 87.1387 39.3482 86.3668 40.2717 85.7106C41.6884 84.6886 43.1898 83.7826 44.7608 83.0018L45.3396 82.7723Z" fill="#333333"/>
<rect opacity="0.5" x="76" y="79.002" width="28" height="5" rx="1" fill="#27ABA3"/>
<path fill-rule="evenodd" clip-rule="evenodd" d="M88.1 79.206L88.2 78.906C88.6 78.106 89.1 76.906 89 76.106C89 75.706 88.7 75.406 87.8 75.406C87.4 75.406 87 75.606 86.7 75.806C86.4 76.006 86.2 76.206 86 76.506C85.9 76.806 85.8 77.106 85.8 77.506C85.8 77.906 86 78.306 86.2 78.706C86.3 78.806 86.5 79.106 86.8 79.406C87.4 80.106 88.2 81.106 88.7 82.006C89.1 81.706 89.4 81.406 89.6 81.206C89.9 80.906 90.1 80.706 90.4 80.906C90.8 81.106 90.8 81.706 90.8 82.406C90.8 82.806 90.7 83.206 90.8 83.206C90.8 83.206 90.9 82.906 91.3 81.906C91.3 81.806 91.3 81.606 91.3 81.506C91.4 81.306 91.5 81.106 91.6 80.906C92.1 80.206 92.5 80.206 92.5 81.006C92.8 80.506 93.2 79.906 93.3 79.606C93.7 76.606 94.4 73.606 95.3 73.106C95.8 72.906 96.1 73.006 96.3 73.306C96.8 74.206 94.8 78.606 94.4 79.506L94.2 79.806C94.1 80.406 94 81.006 94 81.606C94.1 81.506 94.2 81.406 94.4 81.406C94.7 81.206 95 81.106 95.3 81.006C96 80.706 96.7 80.406 97.2 79.806C97.1 80.606 96.9 81.206 95.7 81.806C95.4 81.906 95.1 82.106 94.9 82.206C94.5 82.406 94.2 82.806 94 83.206V83.306L93.9 84.006C93.7 85.406 93.7 86.406 93.2 86.406C92.9 86.406 92.7 85.906 92.7 84.806C92.7 84.306 92.8 83.706 93.1 83.106L93.3 81.706C92.9 82.206 92.5 82.606 92.1 82.506C91.4 83.706 90.9 84.006 90.6 83.906C90.2 83.706 90.1 83.006 90.1 82.306C90.1 82.206 90.1 82.106 90.1 82.006C89.9 82.206 89.6 82.506 89.2 82.706C89.5 83.506 89.4 84.206 88.9 84.706C88.2 85.406 87.2 85.406 86.5 85.206C86.1 85.106 85.8 84.806 85.6 84.506C85.4 84.206 85.3 83.806 85.5 83.406C85.7 83.006 86.4 82.606 87.5 82.406C87.7 82.406 87.8 82.306 88 82.306C87.5 81.506 86.8 80.506 86.2 79.906C85.9 79.506 85.7 79.206 85.6 79.106C85.3 78.506 85.1 78.006 85 77.506C85 77.006 85.1 76.506 85.3 76.006C85.5 75.606 85.9 75.206 86.3 75.006C86.7 74.706 87.2 74.606 87.8 74.506C89.3 74.406 89.9 75.006 90 76.006C90 77.206 89.4 79.006 88.1 79.206ZM88.2 84.206C88.4 84.006 88.4 83.606 88.3 83.206C88.1 83.306 87.8 83.306 87.6 83.406C86.7 83.506 86.3 83.806 86.2 84.006C86.2 84.106 86.2 84.106 86.2 84.206C86.3 84.306 86.5 84.406 86.7 84.506C87.2 84.606 87.8 84.606 88.2 84.206ZM95 76.306C95.3 75.406 95.6 74.606 95.7 74.106C95.4 74.506 95.2 75.306 95 76.306Z" fill="#333333"/>
<rect x="72.5" y="42.502" width="31" height="4" rx="0.5" fill="#27ABA3" fill-opacity="0.5" stroke="#27ABA3"/>
<path fill-rule="evenodd" clip-rule="evenodd" d="M41 52.5391C41 52.2629 41.1403 52.0391 41.3133 52.0391H60.6867C60.8597 52.0391 61 52.2629 61 52.5391C61 52.8152 60.8597 53.0391 60.6867 53.0391H41.3133C41.1403 53.0391 41 52.8152 41 52.5391Z" fill="#CCCCCC"/>
<path fill-rule="evenodd" clip-rule="evenodd" d="M41 62.5391C41 62.2629 41.1394 62.0391 41.3114 62.0391H60.6886C60.8606 62.0391 61 62.2629 61 62.5391C61 62.8152 60.8606 63.0391 60.6886 63.0391H41.3114C41.1394 63.0391 41 62.8152 41 62.5391Z" fill="#CCCCCC"/>
<path fill-rule="evenodd" clip-rule="evenodd" d="M41 57.5391C41 57.2629 41.1591 57.0391 41.3553 57.0391H60.6447C60.8409 57.0391 61 57.2629 61 57.5391C61 57.8152 60.8409 58.0391 60.6447 58.0391H41.3553C41.1591 58.0391 41 57.8152 41 57.5391Z" fill="#CCCCCC"/>
<circle cx="37.5" cy="52.5391" r="1" stroke="#27ABA3"/>
<circle cx="37.5" cy="57.5391" r="1" stroke="#27ABA3"/>
<circle cx="37.5" cy="62.5391" r="1" stroke="#27ABA3"/>
<path fill-rule="evenodd" clip-rule="evenodd" d="M82 52.502C82 52.2258 82.1403 52.002 82.3133 52.002H101.687C101.86 52.002 102 52.2258 102 52.502C102 52.7781 101.86 53.002 101.687 53.002H82.3133C82.1403 53.002 82 52.7781 82 52.502Z" fill="#CCCCCC"/>
<path fill-rule="evenodd" clip-rule="evenodd" d="M82 62.502C82 62.2258 82.1394 62.002 82.3114 62.002H101.689C101.861 62.002 102 62.2258 102 62.502C102 62.7781 101.861 63.002 101.689 63.002H82.3114C82.1394 63.002 82 62.7781 82 62.502Z" fill="#CCCCCC"/>
<path fill-rule="evenodd" clip-rule="evenodd" d="M82 57.502C82 57.2258 82.1591 57.002 82.3553 57.002H101.645C101.841 57.002 102 57.2258 102 57.502C102 57.7781 101.841 58.002 101.645 58.002H82.3553C82.1591 58.002 82 57.7781 82 57.502Z" fill="#CCCCCC"/>
<rect x="77.5" y="51.502" width="2" height="2" rx="0.5" stroke="#27ABA3"/>
<rect x="77.5" y="56.502" width="2" height="2" rx="0.5" stroke="#27ABA3"/>
<rect x="77.5" y="61.502" width="2" height="2" rx="0.5" stroke="#27ABA3"/>
</svg>
