<svg width="24" height="432" viewBox="0 0 24 432" fill="none" xmlns="http://www.w3.org/2000/svg">
<g clip-path="url(#clip0)">
<path d="M20 378H4L4 366H4.3H20V366.899L20 378Z" fill="#F5F5F5"/>
<circle cx="12" cy="372" r="4" fill="#D00008"/>
<path d="M20 366L20 378H4L4 366H20ZM20 365H4C3.4 365 3 365.4 3 366L3 378C3 378.6 3.4 379 4 379H20C20.6 379 21 378.6 21 378L21 366C21 365.4 20.6 365 20 365Z" fill="#B5B5B5"/>
<path d="M20 398H4L4 393.9C4 393.7 4.1 393.5 4.3 393.5H19.7C19.9 393.5 20 393.7 20 393.9V398Z" fill="#F5F5F5"/>
<path d="M20 389.999H4C4 389.999 4.00002 390.266 4.00002 390.443L4.00002 393.999H20V390.443C20 390.266 20 389.999 20 389.999Z" fill="#FF4B55"/>
<path d="M20 402H4L4 398H20V402Z" fill="#41479B"/>
<path d="M20 390L20 402H4L4 390H20ZM20 389H4C3.4 389 3 389.4 3 390L3 402C3 402.6 3.4 403 4 403H20C20.6 403 21 402.6 21 402L21 390C21 389.4 20.6 389 20 389Z" fill="#B5B5B5"/>
<path d="M20 425.999H4V415.066C4 414.532 4.1 413.999 4.3 413.999H19.7C19.9 413.999 20 414.532 20 415.066V425.999Z" fill="#F5F5F5"/>
<path d="M13.6894 417.397C12.2499 416.411 10.3056 416.814 9.34655 418.29C8.86551 419.026 9.06105 420.027 9.78075 420.52C10.4999 421.013 11.5202 421.238 12 420.499C12.4798 419.76 13.4032 419.137 14.1223 419.627C14.8427 420.12 15.0364 421.12 14.5559 421.857C15.5156 420.379 15.1277 418.382 13.6894 417.397Z" fill="#FF4B55"/>
<path d="M9.36608 418.274C8.88501 419.011 9.08056 420.011 9.8003 420.504C10.5195 420.997 11.491 420.797 11.9709 420.058C12.4508 419.319 13.4229 419.121 14.1421 419.611C14.8625 420.104 15.0562 421.104 14.5757 421.841C13.6172 423.321 11.6735 423.719 10.2339 422.734C8.79565 421.748 8.4064 419.752 9.36608 418.274Z" fill="#41479B"/>
<path d="M15.8729 415.943L16.5341 416.858C16.5897 416.935 16.5672 417.039 16.4839 417.091L16.3162 417.194C16.2325 417.246 16.1193 417.225 16.0635 417.148L15.4014 416.233C15.3457 416.156 15.3683 416.052 15.4518 416L15.6203 415.897C15.704 415.845 15.8171 415.866 15.8729 415.943Z" fill="#464655"/>
<path d="M16.893 417.354L17.5564 418.269C17.6124 418.346 17.5895 418.451 17.5054 418.502L17.337 418.604C17.2534 418.655 17.1409 418.634 17.0853 418.558L16.4223 417.644C16.3665 417.567 16.3889 417.463 16.4725 417.412L16.6405 417.308C16.7241 417.257 16.8371 417.277 16.893 417.354Z" fill="#464655"/>
<path d="M16.5809 415.508L18.2645 417.835C18.3203 417.912 18.2976 418.016 18.214 418.067L18.0448 418.171C17.9612 418.223 17.8482 418.202 17.7924 418.125L16.1082 415.798C16.0524 415.721 16.0751 415.617 16.1588 415.566L16.3285 415.462C16.4122 415.411 16.5251 415.431 16.5809 415.508Z" fill="#464655"/>
<path d="M17.2867 415.074L17.9494 415.991C18.0052 416.068 17.9823 416.172 17.8982 416.223L17.7297 416.326C17.6461 416.377 17.5335 416.356 17.4779 416.279L16.8148 415.363C16.759 415.286 16.7816 415.182 16.8653 415.131L17.0343 415.027C17.1179 414.976 17.231 414.997 17.2867 415.074Z" fill="#464655"/>
<path d="M18.3077 416.488L18.9693 417.403C19.025 417.48 19.0024 417.584 18.919 417.635L18.751 417.739C18.6673 417.79 18.5541 417.769 18.4983 417.692L17.8367 416.777C17.7811 416.7 17.8036 416.596 17.887 416.545L18.055 416.441C18.1387 416.39 18.2519 416.411 18.3077 416.488Z" fill="#464655"/>
<path d="M6.91614 421.441L8.59957 423.765C8.65532 423.842 8.63281 423.946 8.54918 423.998L8.38061 424.101C8.29698 424.153 8.18395 424.132 8.12812 424.055L6.44469 421.731C6.3889 421.654 6.41145 421.55 6.49508 421.499L6.6637 421.395C6.74728 421.344 6.86035 421.364 6.91614 421.441Z" fill="#464655"/>
<path d="M6.20944 421.876L6.87037 422.789C6.92608 422.866 6.9036 422.97 6.82018 423.021L6.65252 423.124C6.56893 423.176 6.45578 423.155 6.39991 423.078L5.73819 422.166C5.68236 422.089 5.70487 421.984 5.7885 421.933L5.95699 421.829C6.04057 421.778 6.15364 421.799 6.20944 421.876Z" fill="#464655"/>
<path d="M7.23066 423.287L7.89234 424.203C7.94801 424.28 7.92545 424.384 7.84195 424.435L7.67379 424.538C7.59012 424.59 7.47701 424.569 7.42117 424.492L6.75909 423.577C6.70338 423.5 6.72593 423.396 6.80948 423.345L6.97805 423.241C7.06176 423.19 7.17487 423.21 7.23066 423.287Z" fill="#464655"/>
<path d="M5.5028 422.31L7.18515 424.635C7.24086 424.712 7.21831 424.816 7.13489 424.867L6.96677 424.971C6.88314 425.022 6.77003 425.001 6.71419 424.924L5.03085 422.6C4.97505 422.523 4.99769 422.419 5.08132 422.368L5.25047 422.264C5.33402 422.213 5.44704 422.233 5.5028 422.31Z" fill="#464655"/>
<path d="M6.44485 418.269L8.12803 415.943C8.18382 415.866 8.29689 415.845 8.38056 415.897L8.54909 416C8.63268 416.052 8.65519 416.156 8.59948 416.233L6.91565 418.557C6.85998 418.634 6.74736 418.655 6.66378 418.604L6.4959 418.502C6.41187 418.451 6.38902 418.346 6.44485 418.269Z" fill="#464655"/>
<path d="M5.73809 417.835L7.42156 415.509C7.47736 415.431 7.59051 415.411 7.67418 415.462L7.8423 415.566C7.92576 415.617 7.94828 415.721 7.89261 415.798L6.20959 418.124C6.15379 418.202 6.04072 418.222 5.95705 418.171L5.78848 418.067C5.70494 418.016 5.68238 417.912 5.73809 417.835Z" fill="#464655"/>
<path d="M5.03049 417.403L6.71412 415.074C6.76991 414.997 6.88311 414.976 6.96677 415.028L7.13489 415.131C7.21832 415.182 7.24087 415.286 7.18529 415.363L5.50268 417.692C5.44697 417.769 5.33386 417.79 5.2502 417.739L5.08113 417.635C4.99746 417.584 4.97486 417.48 5.03049 417.403Z" fill="#464655"/>
<path d="M15.4015 423.765L16.0632 422.853C16.1191 422.776 16.2323 422.755 16.3158 422.806L16.4835 422.91C16.5669 422.961 16.5894 423.065 16.5337 423.142L15.8727 424.055C15.8169 424.132 15.7039 424.153 15.6202 424.101L15.4517 423.998C15.3682 423.946 15.3457 423.842 15.4015 423.765Z" fill="#464655"/>
<path d="M16.4223 422.359L17.0851 421.441C17.1408 421.364 17.2539 421.343 17.3376 421.395L17.5065 421.499C17.5902 421.55 17.6128 421.654 17.557 421.731L16.8928 422.647C16.8371 422.724 16.7244 422.744 16.6408 422.693L16.4733 422.591C16.3894 422.54 16.3666 422.436 16.4223 422.359Z" fill="#464655"/>
<path d="M16.1082 424.202L16.7703 423.287C16.8261 423.21 16.9391 423.189 17.0228 423.241L17.192 423.345C17.2756 423.396 17.2982 423.5 17.2425 423.577L16.5808 424.492C16.5251 424.569 16.4121 424.59 16.3284 424.539L16.1588 424.435C16.0751 424.384 16.0524 424.279 16.1082 424.202Z" fill="#464655"/>
<path d="M17.1296 422.788L17.7921 421.876C17.8479 421.799 17.9608 421.778 18.0444 421.829L18.2136 421.933C18.2973 421.984 18.3198 422.089 18.2639 422.166L17.6014 423.079C17.5456 423.155 17.4327 423.176 17.3491 423.125L17.1799 423.021C17.0962 422.97 17.0737 422.865 17.1296 422.788Z" fill="#464655"/>
<path d="M16.8151 424.635L17.478 423.721C17.5337 423.644 17.6461 423.624 17.7297 423.674L17.8982 423.777C17.9823 423.828 18.0052 423.932 17.9493 424.01L17.2869 424.924C17.2311 425.001 17.1181 425.022 17.0345 424.971L16.8655 424.867C16.7818 424.816 16.7592 424.712 16.8151 424.635Z" fill="#464655"/>
<path d="M17.8367 423.225L18.4979 422.311C18.5537 422.234 18.6669 422.213 18.7506 422.264L18.9185 422.368C19.002 422.419 19.0245 422.523 18.9687 422.6L18.3069 423.513C18.2513 423.59 18.1385 423.611 18.055 423.56L17.8875 423.458C17.8037 423.407 17.7809 423.302 17.8367 423.225Z" fill="#464655"/>
<path d="M20 414V426H4V414H20ZM20 413H4C3.4 413 3 413.4 3 414V426C3 426.6 3.4 427 4 427H20C20.6 427 21 426.6 21 426V414C21 413.4 20.6 413 20 413Z" fill="#B5B5B5"/>
<path d="M20 10H4V6.3C4 6.1 4.1 6 4.3 6H19.7C19.9 6 20 6.1 20 6.3V10Z" fill="#464655"/>
<path d="M19.7 18H4.3C4.1 18 4 17.9 4 17.7V14H20V17.7C20 17.9 19.9 18 19.7 18Z" fill="#FFE15A"/>
<path d="M20 10H4V14H20V10Z" fill="#FF4B55"/>
<path d="M20 6V18H4V6H20ZM20 5H4C3.4 5 3 5.4 3 6V18C3 18.6 3.4 19 4 19H20C20.6 19 21 18.6 21 18V6C21 5.4 20.6 5 20 5Z" fill="#B5B5B5"/>
<path d="M9 114H4.3C4.1 114 4 113.9 4 113.7L4 102.3C4 102.1 4.1 102 4.3 102H9L9 114Z" fill="#73AF00"/>
<path d="M15 102H9.30005L9.30005 114H15L15 102Z" fill="#F5F5F5"/>
<path d="M20.1 114H15L15 102H20.1C20.3 102 20.4 102.1 20.4 102.3V113.7C20.3 113.9 20.2 114 20.1 114Z" fill="#FF4B55"/>
<path d="M20 102L20 114H4L4 102H20ZM20 101H4C3.4 101 3 101.4 3 102L3 114C3 114.6 3.4 115 4 115H20C20.6 115 21 114.6 21 114L21 102C21 101.4 20.6 101 20 101Z" fill="#B5B5B5"/>
<path d="M9.0001 90H3.9001C3.7001 90 3.6001 89.9 3.6001 89.7V78.3C3.6001 78.1 3.7001 78 3.9001 78H9.0001V90Z" fill="#41479B"/>
<path d="M15 78H9V90H15V78Z" fill="#F5F5F5"/>
<path d="M19.7 90H15V78H19.7C19.9 78 20 78.1 20 78.3V89.7C20 89.9 19.9 90 19.7 90Z" fill="#FF4B55"/>
<path d="M20 78V90H4V78H20ZM20 77H4C3.4 77 3 77.4 3 78V90C3 90.6 3.4 91 4 91H20C20.6 91 21 90.6 21 90V78C21 77.4 20.6 77 20 77Z" fill="#B5B5B5"/>
<path d="M20 130H4L4 126.3C4 126.1 4.1 126 4.3 126H19.7C19.9 126 20 126.1 20 126.3V130Z" fill="#FF4B55"/>
<path d="M19.7 138H4.3C4.1 138 4 137.9 4 137.7L4 134H20V137.7C20 137.9 19.9 138 19.7 138Z" fill="#FF4B55"/>
<path d="M20 130H4L4 134H20V130Z" fill="#F5F5F5"/>
<path d="M20 126L20 138H4L4 126H20ZM20 125H4C3.4 125 3 125.4 3 126L3 138C3 138.6 3.4 139 4 139H20C20.6 139 21 138.6 21 138L21 126C21 125.4 20.6 125 20 125Z" fill="#B5B5B5"/>
<path d="M20 154H4L4 149.9C4 149.7 4.1 149.5 4.3 149.5H19.7C19.9 149.5 20 149.7 20 149.9V154Z" fill="#F5F5F5"/>
<path d="M19.7 162.5H4.3C4.1 162.5 4 162.3 4 162.1L4 158H20V162.1C20 162.3 19.9 162.5 19.7 162.5Z" fill="#FF4B55"/>
<path d="M20 154H4L4 158H20V154Z" fill="#41479B"/>
<path d="M20 150L20 162H4L4 150H20ZM20 149H4C3.4 149 3 149.4 3 150L3 162C3 162.6 3.4 163 4 163H20C20.6 163 21 162.6 21 162L21 150C21 149.4 20.6 149 20 149Z" fill="#B5B5B5"/>
<path d="M19.7 186H4.3C4.1 186 4 185.9 4 185.7L4 174.3C4 174.1 4.1 174 4.3 174H19.7C19.9 174 20 174.1 20 174.3L20 185.7C20 185.9 19.9 186 19.7 186Z" fill="#FF4B55"/>
<path d="M6.69997 175.9L6.99997 176.8H7.79997C7.89997 176.8 7.99997 177 7.89997 177L7.19997 177.6L7.49997 178.5C7.49997 178.6 7.39997 178.7 7.29997 178.6L6.59997 178L5.89997 178.6C5.79997 178.7 5.69997 178.6 5.69997 178.5L5.99997 177.6L5.29997 177C5.19997 176.9 5.29997 176.8 5.39997 176.8H6.19997L6.49997 175.9C6.49997 175.8 6.59997 175.8 6.69997 175.9Z" fill="#FFE15A"/>
<path d="M9.70005 176.1L9.90005 176.4L10.2 176.3C10.2 176.3 10.3 176.3 10.2 176.4L10 176.7L10.2 177V177.1L9.90005 177L9.70005 177.3H9.60005V176.9L9.30005 176.8V176.7L9.60005 176.6L9.70005 176.1C9.70005 176.1 9.60005 176.1 9.70005 176.1Z" fill="#FFE15A"/>
<path d="M8.5 175.2H8.8L8.9 174.9H9L9.1 175.3H9.4C9.4 175.3 9.5 175.4 9.4 175.4L9.1 175.6L9.2 176C9.2 176 9.2 176.1 9.1 176L8.9 175.8L8.7 176C8.7 176 8.6 176 8.6 175.9L8.7 175.6L8.5 175.2C8.5 175.2 8.5 175.3 8.5 175.2Z" fill="#FFE15A"/>
<path d="M9.00001 178.8L8.80001 179.1L8.50001 179C8.50001 179 8.40001 179 8.50001 179.1L8.70001 179.4L8.50001 179.7V179.8L8.80001 179.7L9.00001 180H9.10001V179.6L9.40001 179.5V179.4L9.10001 179.3L9.00001 178.8C9.10001 178.7 9.10001 178.7 9.00001 178.8Z" fill="#FFE15A"/>
<path d="M10.2001 177.9H9.90006L9.80006 177.6H9.70006L9.60006 178H9.30006C9.30006 178 9.20006 178.1 9.30006 178.1L9.60006 178.3L9.50006 178.7C9.50006 178.7 9.50006 178.8 9.60006 178.7L9.80006 178.5L10.1001 178.7C10.1001 178.7 10.2001 178.7 10.2001 178.6L10.1001 178.3L10.2001 177.9C10.2001 177.9 10.2001 178 10.2001 177.9Z" fill="#FFE15A"/>
<path d="M20 174L20 186H4L4 174H20ZM20 173H4C3.4 173 3 173.4 3 174L3 186C3 186.6 3.4 187 4 187H20C20.6 187 21 186.6 21 186L21 174C21 173.4 20.6 173 20 173Z" fill="#B5B5B5"/>
<path d="M19.7 210H4.3C4.1 210 4 209.9 4 209.7L4 198.3C4 198.1 4.1 198 4.3 198H19.7C19.9 198 20 198.1 20 198.3L20 209.7C20 209.9 19.9 210 19.7 210Z" fill="#73AF00"/>
<path d="M11.9001 200.2L6.0001 203.8C5.8001 203.9 5.8001 204.2 6.0001 204.3L11.8001 207.8C11.9001 207.9 12.0001 207.9 12.1001 207.8L17.9001 204.3C18.1001 204.2 18.1001 203.9 17.9001 203.8L12.1001 200.3C12.1001 200.2 11.9001 200.2 11.9001 200.2Z" fill="#FFE15A"/>
<path d="M14.2 204C14.2 205.2 13.2 206.2 12 206.2C10.8 206.2 9.80005 205.2 9.80005 204C9.80005 202.8 10.8 201.8 12 201.8C13.2 201.8 14.2 202.8 14.2 204Z" fill="#41479B"/>
<path d="M10.0999 202.9C9.9999 203.1 9.8999 203.3 9.8999 203.5C11.0999 203.4 12.8999 203.8 14.0999 204.9C14.1999 204.7 14.1999 204.5 14.1999 204.3C12.9999 203.2 11.3999 202.8 10.0999 202.9Z" fill="#F5F5F5"/>
<path d="M12.1 204.8L12.2 205H12.4L12.3 205.1L12.4 205.3L12.2 205.2L12 205.3L12.1 205.1L12 205H12.2L12.1 204.8C12.1 204.7 12.1 204.7 12.1 204.8Z" fill="#F5F5F5"/>
<path d="M12.8 205.2L12.9 205.3H12.8V205.4H12.7H12.6V205.3H12.5L12.8 205.2Z" fill="#F5F5F5"/>
<path d="M11.8 204.4L11.9 204.5H11.8V204.6H11.7H11.6V204.5H11.5L11.8 204.4Z" fill="#F5F5F5"/>
<path d="M10.4001 204.3L10.5001 204.4H10.4001V204.5H10.3001H10.2001V204.4H10.1001L10.4001 204.3Z" fill="#F5F5F5"/>
<path d="M11.6 205.2L11.7 205.3H11.6V205.4H11.5H11.4V205.3H11.3L11.6 205.2C11.5 205.2 11.5 205.2 11.6 205.2Z" fill="#F5F5F5"/>
<path d="M10.9001 204.3C11.0001 204.3 11.0001 204.3 10.9001 204.3V204.4V204.5H10.8001H10.7001V204.4H10.6001L10.9001 204.3Z" fill="#F5F5F5"/>
<path d="M12.9001 203L13.0001 203.1H12.9001V203.2H12.8001H12.7001V203.1H12.6001L12.9001 203Z" fill="#F5F5F5"/>
<path d="M10.5 203.9C10.6 204 10.6 204 10.5 203.9V204V204.1H10.4H10.3V204H10.2L10.5 203.9Z" fill="#F5F5F5"/>
<path d="M10.8 204.8L10.9 204.9L10.8 205V205.1L10.7 205L10.6 205.1V205L10.5 204.9L10.8 204.8Z" fill="#F5F5F5"/>
<path d="M13.1999 205.2C13.2999 205.3 13.2999 205.3 13.1999 205.2V205.3V205.4H13.0999H12.9999V205.3H12.8999C13.0999 205.3 13.0999 205.3 13.1999 205.2Z" fill="#F5F5F5"/>
<path d="M13.4001 204.8L13.5001 204.9H13.4001V205H13.3001H13.2001V204.9H13.1001L13.4001 204.8Z" fill="#F5F5F5"/>
<path d="M20 198L20 210H4L4 198H20ZM20 197H4C3.4 197 3 197.4 3 198L3 210C3 210.6 3.4 211 4 211H20C20.6 211 21 210.6 21 210L21 198C21 197.4 20.6 197 20 197Z" fill="#B5B5B5"/>
<path d="M20 222L20 234H4L4 222H20ZM20 221H4C3.4 221 3 221.4 3 222L3 234C3 234.6 3.4 235 4 235H20C20.6 235 21 234.6 21 234L21 222C21 221.4 20.6 221 20 221Z" fill="#B5B5B5"/>
<path d="M19.7 234H4.3C4.1 234 4 233.9 4 233.7L4 222.3C4 222.1 4.1 222 4.3 222H19.7C19.9 222 20 222.1 20 222.3L20 233.7C20 233.9 19.9 234 19.7 234Z" fill="#FF4B55"/>
<path d="M13.4 227L13.9 227.6L14.6 227.4C14.6 227.4 14.7 227.4 14.7 227.5L14.3 228.1L14.8 228.7V228.8L14.1 228.6L13.6 229.2H13.5V228.4L12.8 228.2V228.1L13.5 227.8L13.4 227C13.4 226.9 13.3 227 13.4 227Z" fill="#F5F5F5"/>
<path d="M10.7999 230.4C9.49992 230.4 8.39992 229.3 8.39992 228C8.39992 226.7 9.49992 225.6 10.7999 225.6C11.2999 225.6 11.7999 225.8 12.0999 226C12.1999 226 12.1999 226 12.1999 225.9C11.5999 225.3 10.7999 225 9.89992 225C8.39992 225.1 7.09992 226.3 6.99992 227.8C6.89992 229.5 8.29992 231 9.99992 231C10.8999 231 11.5999 230.6 12.1999 230.1C12.1999 230.1 12.1999 230 12.0999 230C11.6999 230.2 11.2999 230.4 10.7999 230.4Z" fill="#F5F5F5"/>
<path d="M20 252H4L4 246.3C4 246.1 4.1 246 4.3 246H19.7C19.9 246 20 246.1 20 246.3V252Z" fill="#FF4B55"/>
<path d="M4 252H20V257.7C20 257.9 19.9 258 19.7 258H4.3C4.1 258 4 257.9 4 257.7L4 252Z" fill="#F5F5F5"/>
<path d="M20 246L20 258H4L4 246H20ZM20 245H4C3.4 245 3 245.4 3 246L3 258C3 258.6 3.4 259 4 259H20C20.6 259 21 258.6 21 258L21 246C21 245.4 20.6 245 20 245Z" fill="#B5B5B5"/>
<path d="M4.1 281.9L12 276L4.1 270.1C4 270.1 4 270.2 4 270.3L4 281.7C4 281.8 4 281.9 4.1 281.9Z" fill="#41479B"/>
<path d="M4.1001 281.9C4.1001 281.9 4.2001 282 4.3001 282H19.7001C19.9001 282 20.0001 281.9 20.0001 281.7V276H12.0001L4.1001 281.9Z" fill="#FF4B55"/>
<path d="M4.1001 270.1C4.1001 270.1 4.2001 270 4.3001 270H19.7001C19.9001 270 20.0001 270.1 20.0001 270.3V276H12.0001L4.1001 270.1Z" fill="#F5F5F5"/>
<path d="M20 270L20 282H4L4 270H20ZM20 269H4C3.4 269 3 269.4 3 270L3 282C3 282.6 3.4 283 4 283H20C20.6 283 21 282.6 21 282L21 270C21 269.4 20.6 269 20 269Z" fill="#B5B5B5"/>
<path d="M19.8 317H3.80005C3.20005 317 2.80005 317.4 2.80005 318L2.80005 330C2.80005 330.6 3.20005 331 3.80005 331H19.8C20.4 331 20.8 330.6 20.8 330L20.8 318C20.8 317.4 20.4 317 19.8 317Z" fill="#B5B5B5"/>
<path d="M19.5 330H4.10005C3.90005 330 3.80005 329.9 3.80005 329.7L3.80005 318.299C3.80005 318.099 3.90005 318 4.10005 318H19.5C19.7 318 19.8 318.099 19.8 318.299L19.8 329.7C19.8 329.9 19.7 330 19.5 330Z" fill="#41479B"/>
<path d="M19.8 318.299C19.8 318.099 19.8 318 19.8 318H16.8L13.8 321V318H9.80005V321L6.80005 318H4.10005C3.90005 318 3.80005 318.099 3.80005 318.299V319L6.80005 322H3.80005L3.80005 326H6.80005L3.80005 329V329.7C3.80005 329.9 3.90005 330 4.10005 330H6.80005L9.80005 327V330H13.8V326L17.8 330H19.8V329.7L19.8 329L16.8 326H19.8V322H16.8L19.8 319V318.299Z" fill="#F5F5F5"/>
<path d="M19.8 323H12.8V318H10.8V323H3.80005L3.80005 325H10.8L10.8 330H12.8V325H19.8V323Z" fill="#FF4B55"/>
<path d="M16.8 330L13.8 327V326H14.8L17.8 329L18.8 330H16.8Z" fill="#FF4B55"/>
<path d="M4.80005 318L8.80005 322H9.80005V321L6.80005 318H4.80005Z" fill="#FF4B55"/>
<path d="M4.80005 330L8.80005 326H7.80005H6.80005L3.80005 329V330H4.80005Z" fill="#FF4B55"/>
<path d="M18.8 318L14.8 322H15.8H16.8L19.8 319V318H18.8Z" fill="#FF4B55"/>
<path d="M20 298H4L4 294.299C4 294.099 4.1 294 4.3 294H19.7C19.9 294 20 294.099 20 294.299V298Z" fill="#F5F5F5"/>
<path d="M19.7 306H4.3C4.1 306 4 305.9 4 305.7L4 302H20V305.7C20 305.9 19.9 306 19.7 306Z" fill="#FF4B55"/>
<path d="M20 298H4L4 302H20V298Z" fill="#41479B"/>
<path d="M7.9 303C7 302 6 301 6 300L6 297H10V300C10 301 8.1 302.9 8 303H7.9Z" fill="#FF4B55"/>
<path d="M9 299.5L8.36364 299.593H8.18182V299.199L8.36364 299.218L8.81818 299.312L8.72727 299.031L8.81818 298.75L8.36364 298.843H8.18182V298.656L8.5 298H8H7.5L7.81818 298.656V298.843H7.72727L7.27273 298.75L7.36364 299.031L7.27273 299.312L7.72727 299.218H7.81818V299.593H7.63636L7 299.5L7.09091 299.781L7 300.062L7.63636 299.968H7.81818L7.72727 301.203H8.26562L8.18182 299.968H8.36364L9 300.062L8.90909 299.781L9 299.5Z" fill="#F5F5F5"/>
<path d="M8 301C7.5 301 7 301.5 7 302C7 302 7.14286 301.4 7 301.4C6.42857 301.4 6 301.64 6 301.96C6.85714 302.6 7.85714 303 7.85714 303H8.14286C8.14286 303 9.14286 302.6 10 301.96C10 301.64 9.57143 301.4 9 301.4C9 301.4 9.14286 302 9 302C9 301.5 8.42857 301 8 301Z" fill="#41479B"/>
<path d="M10 297V299.8C10 301 8 302 8 302C8 302 6 301 6 299.8L6 297H10ZM11 296H5L5 300C5 302.1 8 303 8 303.2C8 303 11 302.1 11 300V296Z" fill="#F5F5F5"/>
<path d="M20 294L20 306H4L4 294H20ZM20 293H4C3.4 293 3 293.4 3 294L3 306C3 306.6 3.4 307 4 307H20C20.6 307 21 306.6 21 306L21 294C21 293.4 20.6 293 20 293Z" fill="#B5B5B5"/>
<path d="M19.7 354H4.3C4.1 354 4 354 4 354L4 342H20L20 354C20 354 19.9 354 19.7 354Z" fill="#FF4B55"/>
<path d="M16 349H8V347.15C8 347.05 8 347 8 347H16C16 347 16 347.4 16 347.5L16 349Z" fill="white"/>
<path d="M11 352L11 344L12.85 344C12.95 344 13 344 13 344L13 352C13 352 12.6 352 12.5 352L11 352Z" fill="white"/>
<path d="M20 342L20 354H4L4 342H20ZM20 341H4C3.4 341 3 341.4 3 342L3 354C3 354.6 3.4 355 4 355H20C20.6 355 21 354.6 21 354L21 342C21 341.4 20.6 341 20 341Z" fill="#B5B5B5"/>
<path d="M4.3 66H19.7C19.9 66 20 65.9 20 65.7V54.3C20 54.1 19.9 54 19.7 54H4.3C4.1 54 4 54.1 4 54.3V65.7C4 65.9 4.1 66 4.3 66Z" fill="#C8414B"/>
<path d="M20 56H4V64H20V56Z" fill="#FFD250"/>
<path d="M10.7999 60.0001L10.9999 58.8001C10.9999 58.7001 10.8999 58.6001 10.7999 58.6001H10.5999C10.4999 58.6001 10.3999 58.7001 10.3999 58.8001L10.7999 60.0001Z" fill="#C8414B"/>
<path d="M11.1 59.3999H10.5V62.0999H11.1V59.3999Z" fill="#F5F5F5"/>
<path d="M11.1 59.1001H10.3V59.4001H11.1V59.1001Z" fill="#FAB446"/>
<path d="M11.2 60H9.80005V60.3H11.2V60Z" fill="#C8414B"/>
<path d="M11.1999 61.2999L10.3999 61V60.7L11.1999 61V61.2999Z" fill="#C8414B"/>
<path d="M6.60005 60.0001L6.80005 58.8001C6.80005 58.7001 6.70005 58.6001 6.60005 58.6001H6.50005C6.40005 58.6001 6.30005 58.7001 6.30005 58.8001L6.60005 60.0001Z" fill="#C8414B"/>
<path d="M7.60005 59.1001C7.40005 59.1001 7.30005 59.2001 7.30005 59.4001V61.5001C7.30005 61.9001 7.60005 62.6001 8.70005 62.6001C9.80005 62.6001 10.1 61.9001 10.1 61.5001V59.4001C10.1 59.2001 10 59.1001 9.80005 59.1001H7.60005Z" fill="#F5F5F5"/>
<path d="M8.70005 60.6H7.30005V59.3C7.30005 59.1 7.40005 59 7.60005 59H8.70005V60.6Z" fill="#C8414B"/>
<path d="M8.69995 60.6001H10.1V61.4001C10.1 61.8001 9.79995 62.2001 9.39995 62.2001C8.99995 62.2001 8.69995 61.8001 8.69995 61.4001V60.6001Z" fill="#C8414B"/>
<path d="M7.30005 60.6001H8.70005V61.4001C8.70005 61.8001 8.40005 62.2001 8.00005 62.2001C7.60005 62.2001 7.30005 61.8001 7.30005 61.4001V60.6001Z" fill="#FAB446"/>
<path d="M8.4001 62.0001V60.6001H8.1001V62.2001C8.2001 62.2001 8.3001 62.1001 8.4001 62.0001Z" fill="#C8414B"/>
<path d="M7.9001 62.2001V60.6001H7.6001V62.0001C7.7001 62.1001 7.8001 62.2001 7.9001 62.2001Z" fill="#C8414B"/>
<path d="M8.4001 60H7.6001V60.3H8.4001V60Z" fill="#FFB441"/>
<path d="M8.4001 59.3999H7.6001V59.6999H8.4001V59.3999Z" fill="#FAB446"/>
<path d="M8.29995 59.6001H7.69995V60.2001H8.29995V59.6001Z" fill="#FAB446"/>
<path d="M6.90005 59.3999H6.30005V62.0999H6.90005V59.3999Z" fill="#F5F5F5"/>
<path d="M6.99995 61.8999H6.19995V62.1999H6.99995V61.8999Z" fill="#FAB446"/>
<path d="M6.99995 59.1001H6.19995V59.4001H6.99995V59.1001Z" fill="#FAB446"/>
<path d="M7.2001 62.2H6.1001V62.5H7.2001V62.2Z" fill="#5064AA"/>
<path d="M11.3 61.8999H10.5V62.1999H11.3V61.8999Z" fill="#FAB446"/>
<path d="M11.3 62.2H10.2V62.5H11.3V62.2Z" fill="#5064AA"/>
<path d="M9.5999 58.7H7.8999V59H9.5999V58.7Z" fill="#FAB446"/>
<path d="M8.9001 57.8H8.6001V58.7001H8.9001V57.8Z" fill="#FFB441"/>
<path d="M8.4 58.3C8.2 58.3 8 58.1 8 57.8C8 57.5 8.2 57.3 8.4 57.3C8.6 57.3 8.8 57.5 8.8 57.8C8.8 58.1 8.6 58.3 8.4 58.3ZM8.4 57.6C8.3 57.6 8.3 57.7 8.3 57.8C8.3 57.9 8.4 58 8.4 58C8.5 58 8.5 57.9 8.5 57.8C8.5 57.7 8.5 57.6 8.4 57.6Z" fill="#F5F5F5"/>
<path d="M9.0001 58.3C8.8001 58.3 8.6001 58.1 8.6001 57.8C8.6001 57.5 8.8001 57.3 9.0001 57.3C9.2001 57.3 9.4001 57.5 9.4001 57.8C9.4001 58.1 9.2001 58.3 9.0001 58.3ZM9.0001 57.6C8.9001 57.6 8.9001 57.7 8.9001 57.8C8.9001 57.9 9.0001 58 9.0001 58C9.1001 58 9.1001 57.9 9.1001 57.8C9.1001 57.7 9.0001 57.6 9.0001 57.6Z" fill="#F5F5F5"/>
<path d="M9.5001 58.6001C9.3001 58.6001 9.1001 58.4001 9.1001 58.1001C9.1001 57.8001 9.3001 57.6001 9.5001 57.6001C9.7001 57.6001 9.9001 57.8001 9.9001 58.1001C9.9001 58.4001 9.7001 58.6001 9.5001 58.6001ZM9.5001 57.9001C9.4001 57.9001 9.4001 58.0001 9.4001 58.1001C9.4001 58.2001 9.5001 58.3001 9.5001 58.3001C9.5001 58.3001 9.6001 58.2001 9.6001 58.1001C9.7001 58.0001 9.6001 57.9001 9.5001 57.9001Z" fill="#F5F5F5"/>
<path d="M7.9 58.6001C7.7 58.6001 7.5 58.4001 7.5 58.1001C7.5 57.8001 7.7 57.6001 7.9 57.6001C8.1 57.6001 8.3 57.8001 8.3 58.1001C8.3 58.4001 8.1 58.6001 7.9 58.6001ZM7.9 57.9001C7.8 57.9001 7.8 58.0001 7.8 58.1001C7.8 58.2001 7.9 58.3001 7.9 58.3001C8 58.3001 8 58.2001 8 58.1001C8 58.0001 7.9 57.9001 7.9 57.9001Z" fill="#F5F5F5"/>
<path d="M9.5 61.2999V61.4999C9.5 61.5999 9.4 61.6999 9.4 61.6999C9.3 61.6999 9.3 61.5999 9.3 61.4999V61.2999H9.5ZM9.8 60.8999H9V61.3999C9 61.6999 9.2 61.8999 9.4 61.8999C9.6 61.8999 9.8 61.6999 9.8 61.3999V60.8999Z" fill="#FAB446"/>
<path d="M9.4001 60.2999C9.2001 60.2999 9.1001 60.1999 9.1001 59.9999V59.6999C9.1001 59.4999 9.2001 59.3999 9.4001 59.3999C9.6001 59.3999 9.7001 59.4999 9.7001 59.6999V59.9999C9.7001 60.1999 9.5001 60.2999 9.4001 60.2999Z" fill="#FFA0D2"/>
<path d="M9.10005 60.6001C9.10005 60.9001 8.90005 61.1001 8.70005 61.1001C8.50005 61.1001 8.30005 60.9001 8.30005 60.6001C8.30005 60.3001 8.50005 60.1001 8.70005 60.1001C8.90005 60.2001 9.10005 60.4001 9.10005 60.6001Z" fill="#5064AA"/>
<path d="M8.9001 57.2H8.6001V58.0999H8.9001V57.2Z" fill="#FAB446"/>
<path d="M7.9001 58.7001L7.6001 58.4001L7.8001 58.2001C8.0001 58.0001 8.3001 57.8 8.7001 57.8C9.1001 57.8 9.4001 58.0001 9.6001 58.2001L9.8001 58.4001L9.5001 58.7001H7.9001Z" fill="#C8414B"/>
<path d="M8.8001 58.4C8.8001 58.5 8.7001 58.5999 8.7001 58.5999C8.6001 58.5999 8.6001 58.5 8.6001 58.4C8.6001 58.3 8.7001 58.2 8.7001 58.2C8.8001 58.3 8.8001 58.3 8.8001 58.4Z" fill="#FFD250"/>
<path d="M8.3001 58.4C8.3001 58.5 8.2001 58.5999 8.2001 58.5999C8.1001 58.5999 8.1001 58.5 8.1001 58.4C8.1001 58.3 8.2001 58.2 8.2001 58.2C8.2001 58.3 8.3001 58.3 8.3001 58.4Z" fill="#FFD250"/>
<path d="M9.39995 58.4C9.39995 58.5 9.29995 58.5999 9.29995 58.5999C9.19995 58.5999 9.19995 58.5 9.19995 58.4C9.19995 58.3 9.29995 58.2 9.29995 58.2C9.29995 58.3 9.39995 58.3 9.39995 58.4Z" fill="#FFD250"/>
<path d="M7.59995 60H6.19995V60.3H7.59995V60Z" fill="#C8414B"/>
<path d="M6.19995 61.3001L6.99995 60.9001V60.6001L6.19995 60.9001V61.3001Z" fill="#C8414B"/>
<path d="M20 54V66H4V54H20ZM20 53H4C3.4 53 3 53.4 3 54V66C3 66.6 3.4 67 4 67H20C20.6 67 21 66.6 21 66V54C21 53.4 20.6 53 20 53Z" fill="#B5B5B5"/>
<path d="M20 32H5V33H20V32Z" fill="#F5F5F5"/>
<path d="M20 30H6V31H20V30Z" fill="#F5F5F5"/>
<path d="M20 34H6V35H20V34Z" fill="#F5F5F5"/>
<path d="M20 36H4V37H20V36Z" fill="#F5F5F5"/>
<path d="M20 38H4V39H20V38Z" fill="#F5F5F5"/>
<path d="M20 40H4V41H20V40Z" fill="#F5F5F5"/>
<path d="M20 33H4V34H20V33Z" fill="#FF4B55"/>
<path d="M20 31H4V32H20V31Z" fill="#FF4B55"/>
<path d="M4 35V36H9.2H11V35H4Z" fill="#FF4B55"/>
<path d="M20 37H4V38H20V37Z" fill="#FF4B55"/>
<path d="M20 39H4V40H20V39Z" fill="#FF4B55"/>
<path d="M20 41H4V42H20V41Z" fill="#FF4B55"/>
<path d="M20 35H4V36H20V35Z" fill="#FF4B55"/>
<path d="M13 36H12H4V30H13V35V36Z" fill="#41479B"/>
<path d="M6 30H5V31H6V30Z" fill="white"/>
<path d="M8 30H7V31H8V30Z" fill="white"/>
<path d="M10 30H9V31H10V30Z" fill="white"/>
<path d="M12 30H11V31H12V30Z" fill="white"/>
<path d="M12 32H11V33H12V32Z" fill="white"/>
<path d="M10 32H9V33H10V32Z" fill="white"/>
<path d="M8 32H7V33H8V32Z" fill="white"/>
<path d="M6 32H5V33H6V32Z" fill="white"/>
<path d="M6 34H5V35H6V34Z" fill="white"/>
<path d="M8 34H7V35H8V34Z" fill="white"/>
<path d="M10 34H9V35H10V34Z" fill="white"/>
<path d="M12 34H11V35H12V34Z" fill="white"/>
<path d="M20 30V42H4V30H20ZM20 29H4C3.4 29 3 29.4 3 30V42C3 42.6 3.4 43 4 43H20C20.6 43 21 42.6 21 42V30C21 29.4 20.6 29 20 29Z" fill="#B5B5B5"/>
</g>
<defs>
<clipPath id="clip0">
<rect width="24" height="432" fill="white"/>
</clipPath>
</defs>
</svg>
