<svg width="24" height="104.5" viewBox="0 0 24 104.5" fill="none" xmlns="http://www.w3.org/2000/svg">
<circle cx="12.5" cy="12.5" r="9" stroke="#444444"/>
<path d="M21.5 12.5C21.5 13.7652 20.6102 15.005 18.967 15.9564C17.3367 16.9002 15.0514 17.5 12.5 17.5C9.94863 17.5 7.66329 16.9002 6.033 15.9564C4.38977 15.005 3.5 13.7652 3.5 12.5C3.5 11.2348 4.38977 9.99497 6.033 9.04363C7.66329 8.09977 9.94863 7.5 12.5 7.5C15.0514 7.5 17.3367 8.09977 18.967 9.04363C20.6102 9.99497 21.5 11.2348 21.5 12.5Z" stroke="#444444"/>
<path d="M12.5 21.5C11.2348 21.5 9.99497 20.6102 9.04363 18.967C8.09977 17.3367 7.5 15.0514 7.5 12.5C7.5 9.94862 8.09977 7.66329 9.04363 6.033C9.99497 4.38977 11.2348 3.5 12.5 3.5C13.7652 3.5 15.005 4.38977 15.9564 6.033C16.9002 7.66329 17.5 9.94863 17.5 12.5C17.5 15.0514 16.9002 17.3367 15.9564 18.967C15.005 20.6102 13.7652 21.5 12.5 21.5Z" stroke="#444444"/>
<path fill-rule="evenodd" clip-rule="evenodd" d="M21 13H4V12H21V13Z" fill="#444444"/>
<path fill-rule="evenodd" clip-rule="evenodd" d="M12 21L12 4L13 4L13 21L12 21Z" fill="#444444"/>
<circle cx="12.5" cy="52.5" r="9" stroke="#FF6F3D"/>
<path d="M21.5 52.5C21.5 53.7652 20.6102 55.005 18.967 55.9564C17.3367 56.9002 15.0514 57.5 12.5 57.5C9.94863 57.5 7.66329 56.9002 6.033 55.9564C4.38977 55.005 3.5 53.7652 3.5 52.5C3.5 51.2348 4.38977 49.995 6.033 49.0436C7.66329 48.0998 9.94863 47.5 12.5 47.5C15.0514 47.5 17.3367 48.0998 18.967 49.0436C20.6102 49.995 21.5 51.2348 21.5 52.5Z" stroke="#FF6F3D"/>
<path d="M12.5 61.5C11.2348 61.5 9.99497 60.6102 9.04363 58.967C8.09977 57.3367 7.5 55.0514 7.5 52.5C7.5 49.9486 8.09977 47.6633 9.04363 46.033C9.99497 44.3898 11.2348 43.5 12.5 43.5C13.7652 43.5 15.005 44.3898 15.9564 46.033C16.9002 47.6633 17.5 49.9486 17.5 52.5C17.5 55.0514 16.9002 57.3367 15.9564 58.967C15.005 60.6102 13.7652 61.5 12.5 61.5Z" stroke="#FF6F3D"/>
<path fill-rule="evenodd" clip-rule="evenodd" d="M21 53H4V52H21V53Z" fill="#FF6F3D"/>
<path fill-rule="evenodd" clip-rule="evenodd" d="M12 61L12 44L13 44L13 61L12 61Z" fill="#FF6F3D"/>
<circle cx="12.5" cy="92.5" r="9" stroke="white"/>
<path d="M21.5 92.5C21.5 93.7652 20.6102 95.005 18.967 95.9564C17.3367 96.9002 15.0514 97.5 12.5 97.5C9.94863 97.5 7.66329 96.9002 6.033 95.9564C4.38977 95.005 3.5 93.7652 3.5 92.5C3.5 91.2348 4.38977 89.995 6.033 89.0436C7.66329 88.0998 9.94863 87.5 12.5 87.5C15.0514 87.5 17.3367 88.0998 18.967 89.0436C20.6102 89.995 21.5 91.2348 21.5 92.5Z" stroke="white"/>
<path d="M12.5 101.5C11.2348 101.5 9.99497 100.61 9.04363 98.967C8.09977 97.3367 7.5 95.0514 7.5 92.5C7.5 89.9486 8.09977 87.6633 9.04363 86.033C9.99497 84.3898 11.2348 83.5 12.5 83.5C13.7652 83.5 15.005 84.3898 15.9564 86.033C16.9002 87.6633 17.5 89.9486 17.5 92.5C17.5 95.0514 16.9002 97.3367 15.9564 98.967C15.005 100.61 13.7652 101.5 12.5 101.5Z" stroke="white"/>
<path fill-rule="evenodd" clip-rule="evenodd" d="M21 93H4V92H21V93Z" fill="white"/>
<path fill-rule="evenodd" clip-rule="evenodd" d="M12 101L12 84L13 84L13 101L12 101Z" fill="white"/>
</svg>