<svg width="41" height="40" viewBox="0 0 41 40" fill="none" xmlns="http://www.w3.org/2000/svg">
<rect x="0.5" width="40" height="40" rx="12" fill="black"/>
<path d="M7.28699 26.4004H9.50032V17.0137H7.28699V26.4004ZM8.39365 15.7871C8.55347 15.7906 8.71238 15.7622 8.86107 15.7035C9.00975 15.6448 9.1452 15.5569 9.25947 15.4452C9.37374 15.3334 9.46453 15.1999 9.52649 15.0525C9.58846 14.9052 9.62036 14.7469 9.62032 14.5871C9.62032 13.9204 9.08699 13.387 8.39365 13.387C8.23384 13.3835 8.07492 13.4119 7.92624 13.4706C7.77756 13.5293 7.6421 13.6171 7.52783 13.7289C7.41356 13.8407 7.32278 13.9742 7.26081 14.1216C7.19885 14.269 7.16695 14.4272 7.16699 14.5871C7.16699 15.2537 7.70032 15.7871 8.39365 15.7871ZM16.8337 13.4137C13.1137 13.4137 10.767 15.9471 10.767 20.0004C10.767 24.0804 13.1137 26.6137 16.8337 26.6137C20.5537 26.6137 22.9004 24.0804 22.9004 20.0004C22.9004 15.9471 20.5537 13.4137 16.8337 13.4137ZM16.8337 15.3337C19.1137 15.3337 20.567 17.1604 20.567 20.0004C20.567 22.8671 19.1137 24.6671 16.8337 24.6671C14.5537 24.6671 13.1137 22.8671 13.1137 20.0004C13.1137 17.1604 14.5537 15.3337 16.8337 15.3337ZM23.8337 22.8137C23.927 25.1604 25.8337 26.6137 28.7937 26.6137C31.887 26.6137 33.8337 25.0937 33.8337 22.6671C33.8337 20.7604 32.7404 19.6937 30.1404 19.0937L28.6737 18.7604C27.1004 18.3871 26.4604 17.8937 26.4604 17.0404C26.4604 16.0004 27.4337 15.2671 28.8737 15.2671C30.3404 15.2671 31.3404 16.0004 31.447 17.1871H33.6204C33.567 14.9337 31.7137 13.4137 28.887 13.4137C26.1137 13.4137 24.1404 14.9471 24.1404 17.2137C24.1404 19.0404 25.247 20.1737 27.607 20.7071L29.2604 21.0937C30.8737 21.4804 31.527 22.0004 31.527 22.9337C31.527 24.0004 30.4604 24.7604 28.9137 24.7604C27.367 24.7604 26.1804 24.0004 26.047 22.8137H23.8337Z" fill="white"/>
</svg>
