<svg width="24" height="25" viewBox="0 0 24 25" fill="none" xmlns="http://www.w3.org/2000/svg">
<g clip-path="url(#clip0_16866_133279)">
<path d="M24 10.827C24 5.42646 18.6169 1.03271 12 1.03271C5.38307 1.03271 0 5.42646 0 10.827C0 15.6687 4.27407 19.7242 10.0351 20.4901C10.4265 20.5749 10.9585 20.7491 11.0923 21.0851C11.2138 21.3906 11.1722 21.8691 11.1317 22.1768C11.1317 22.1768 10.9911 23.0286 10.9607 23.2096C10.9079 23.515 10.7189 24.4031 12 23.8612C13.2811 23.3193 18.9105 19.7684 21.4277 16.8531C23.1666 14.9357 24 12.9854 24 10.827Z" fill="#06C755"/>
<path d="M20.0071 13.9455H16.6328C16.5732 13.9455 16.516 13.9216 16.4738 13.8792C16.4316 13.8368 16.4079 13.7792 16.4079 13.7192V8.4533C16.4079 8.39329 16.4316 8.33575 16.4738 8.29332C16.516 8.25089 16.5732 8.22705 16.6328 8.22705H20.0071C20.0668 8.22705 20.124 8.25089 20.1662 8.29332C20.2084 8.33575 20.2321 8.39329 20.2321 8.4533V9.30965C20.2321 9.36965 20.2084 9.4272 20.1662 9.46963C20.124 9.51206 20.0668 9.5359 20.0071 9.5359H17.716V10.4239H20.0071C20.0668 10.4239 20.124 10.4478 20.1662 10.4902C20.2084 10.5326 20.2321 10.5902 20.2321 10.6502V11.5144C20.2321 11.5744 20.2084 11.632 20.1662 11.6744C20.124 11.7169 20.0668 11.7407 20.0071 11.7407H17.716V12.6298H20.0071C20.0668 12.6298 20.124 12.6537 20.1662 12.6961C20.2084 12.7385 20.2321 12.7961 20.2321 12.8561V13.7113C20.2331 13.7417 20.2281 13.772 20.2173 13.8003C20.2064 13.8287 20.19 13.8546 20.169 13.8764C20.148 13.8983 20.1229 13.9157 20.0951 13.9275C20.0672 13.9394 20.0373 13.9455 20.0071 13.9455Z" fill="white"/>
<path d="M7.537 13.9461C7.59666 13.9461 7.65388 13.9223 7.69606 13.8799C7.73825 13.8374 7.76195 13.7799 7.76195 13.7199V12.8647C7.76195 12.8047 7.73825 12.7471 7.69606 12.7047C7.65388 12.6622 7.59666 12.6384 7.537 12.6384H5.24588V8.45281C5.24588 8.39281 5.22218 8.33526 5.17999 8.29283C5.1378 8.2504 5.08059 8.22656 5.02093 8.22656H4.16611C4.10645 8.22656 4.04923 8.2504 4.00705 8.29283C3.96486 8.33526 3.94116 8.39281 3.94116 8.45281V13.7165C3.94116 13.7765 3.96486 13.834 4.00705 13.8765C4.04923 13.9189 4.10645 13.9427 4.16611 13.9427H7.54037L7.537 13.9461Z" fill="white"/>
<path d="M9.56603 8.21729H8.71572C8.589 8.21729 8.48627 8.32061 8.48627 8.44806V13.7151C8.48627 13.8426 8.589 13.9459 8.71572 13.9459H9.56603C9.69275 13.9459 9.79548 13.8426 9.79548 13.7151V8.44806C9.79548 8.32061 9.69275 8.21729 9.56603 8.21729Z" fill="white"/>
<path d="M15.3596 8.21729H14.5093C14.4496 8.21729 14.3924 8.24112 14.3502 8.28355C14.308 8.32598 14.2843 8.38353 14.2843 8.44353V11.5726L11.8886 8.31797C11.8831 8.30935 11.8767 8.30138 11.8695 8.29421V8.29421L11.856 8.28064L11.8436 8.27045H11.8369L11.8245 8.2614H11.8177L11.8054 8.25462H11.7975H11.7851H11.7772H11.7637H11.7547H11.7413H11.7323H11.7199H10.8527C10.793 8.25462 10.7358 8.27845 10.6936 8.32088C10.6514 8.36331 10.6277 8.42086 10.6277 8.48086V13.7479C10.6277 13.8079 10.6514 13.8655 10.6936 13.9079C10.7358 13.9503 10.793 13.9742 10.8527 13.9742H11.7041C11.7638 13.9742 11.821 13.9503 11.8632 13.9079C11.9054 13.8655 11.9291 13.8079 11.9291 13.7479V10.5884L14.3282 13.8463C14.3439 13.8694 14.3637 13.8894 14.3867 13.9052L14.4002 13.9142H14.4069L14.4182 13.9199H14.4294H14.4373H14.453C14.4729 13.9248 14.4933 13.9275 14.5138 13.9278H15.3596C15.4192 13.9278 15.4765 13.904 15.5186 13.8615C15.5608 13.8191 15.5845 13.7616 15.5845 13.7015V8.44806C15.5851 8.41797 15.5798 8.38806 15.5687 8.36009C15.5577 8.33211 15.5412 8.30663 15.5203 8.28514C15.4993 8.26365 15.4743 8.24658 15.4467 8.23493C15.4191 8.22328 15.3895 8.21728 15.3596 8.21729Z" fill="white"/>
</g>
<defs>
<clipPath id="clip0_16866_133279">
<rect width="24" height="24" fill="white" transform="translate(0 0.466797)"/>
</clipPath>
</defs>
</svg>
