<svg width="40" height="40" viewBox="0 0 40 40" fill="none" xmlns="http://www.w3.org/2000/svg">
<rect width="40" height="40" rx="12" fill="#F4BB40"/>
<path d="M20.5604 7C20.3879 7 20.2099 7.00867 20.0274 7.02275C15.3242 7.38347 16.5715 12.23 16.5003 13.8451C16.4146 15.0291 16.1665 15.9618 15.3309 17.1176C14.3462 18.2561 12.9643 20.0966 12.3089 22.015C11.9996 22.9163 11.8527 23.8392 11.9896 24.7112C11.9384 24.7511 11.8964 24.8009 11.8661 24.8575C11.5768 25.1478 11.3665 25.5085 11.1295 25.7663C10.9081 25.9819 10.5898 26.0556 10.2427 26.1996C9.89443 26.3469 9.51056 26.491 9.28135 26.9373C9.18121 27.141 9.13003 27.363 9.13448 27.5884C9.13448 27.8039 9.16452 28.0227 9.19568 28.169C9.26021 28.6012 9.32475 28.9587 9.23907 29.2197C8.96313 29.9564 8.92864 30.4612 9.12224 30.8284C9.31584 31.1902 9.71751 31.3364 10.167 31.4794C11.0694 31.6961 12.2922 31.6257 13.2547 32.1283C14.285 32.6342 15.3309 32.8551 16.1654 32.6374C16.7506 32.5128 17.2446 32.1359 17.5095 31.6137C18.1626 31.6105 18.878 31.3223 20.0241 31.2519C20.8018 31.1891 21.7754 31.5412 22.8925 31.4675C22.9203 31.6137 22.9626 31.6831 23.0193 31.8293L23.0227 31.8326C23.4577 32.6753 24.2611 33.0588 25.1189 32.9927C25.9768 32.9277 26.8903 32.4121 27.6302 31.578C28.3323 30.7493 29.5028 30.4037 30.2761 29.9499C30.6633 29.7343 30.976 29.4418 30.9982 29.0258C31.0238 28.5925 30.7768 28.1462 30.2038 27.5342V27.4291L30.2004 27.4259C30.0113 27.2092 29.9223 26.8463 29.8244 26.4228C29.7298 25.9884 29.6218 25.5713 29.2769 25.2897H29.2736C29.2079 25.2312 29.1367 25.2171 29.0644 25.1434C29.0022 25.1012 28.9288 25.0771 28.853 25.0741C29.3326 23.6897 29.1467 22.3118 28.6605 21.0726C28.0675 19.5452 27.0305 18.2149 26.2405 17.2996C25.3548 16.2109 24.4869 15.1797 24.5036 13.6501C24.5337 11.3189 24.7673 7.0065 20.5604 7ZM21.149 10.6885H21.1634C21.4004 10.6885 21.604 10.7556 21.8132 10.903C22.0257 11.0492 22.1804 11.2626 22.3017 11.4804C22.4185 11.7609 22.4775 11.9776 22.4864 12.2646C22.4864 12.243 22.493 12.2213 22.493 12.2007V12.3134C22.4906 12.306 22.4891 12.2983 22.4886 12.2906L22.4841 12.2646C22.4819 12.5279 22.4251 12.788 22.3172 13.0294C22.2653 13.1652 22.1845 13.2889 22.0803 13.3923C22.0487 13.375 22.016 13.3598 21.9823 13.3468C21.8655 13.298 21.7609 13.2775 21.6652 13.2027C21.5863 13.172 21.5048 13.1481 21.4216 13.1312C21.4761 13.0673 21.5829 12.9872 21.6241 12.9167C21.683 12.7781 21.7153 12.6308 21.722 12.4813V12.4607C21.7245 12.3136 21.7015 12.1671 21.6541 12.0274C21.604 11.8811 21.5417 11.8097 21.4505 11.6656C21.357 11.5941 21.2647 11.5226 21.1534 11.5226H21.1356C21.0321 11.5226 20.9398 11.5551 20.8441 11.6656C20.7384 11.7659 20.66 11.8902 20.616 12.0274C20.5569 12.165 20.523 12.3117 20.5159 12.4607V12.4813C20.5181 12.5777 20.5248 12.6752 20.5381 12.7705C20.3234 12.6979 20.0508 12.6243 19.8627 12.5517C19.8515 12.4803 19.8449 12.4083 19.8427 12.3361V12.3145C19.8338 12.0281 19.8908 11.7435 20.0096 11.4814C20.1008 11.2442 20.2677 11.0416 20.488 10.904C20.6784 10.7641 20.9104 10.6884 21.149 10.6885ZM17.8533 10.7524H17.8933C18.0513 10.7524 18.1937 10.8044 18.3373 10.8986C18.4997 11.0384 18.631 11.2106 18.72 11.4023C18.8202 11.6179 18.8769 11.8367 18.8903 12.1249V12.1292C18.8981 12.2744 18.8969 12.347 18.888 12.4174V12.504C18.8547 12.5116 18.8257 12.5235 18.7957 12.53C18.6266 12.5896 18.4908 12.6763 18.3584 12.7467C18.3718 12.6503 18.3729 12.5528 18.3618 12.4574V12.4412C18.3484 12.2971 18.3184 12.2256 18.2705 12.0805C18.2358 11.9701 18.1722 11.8704 18.0858 11.7912C18.0584 11.767 18.0262 11.7483 17.9913 11.7364C17.9563 11.7245 17.9192 11.7196 17.8822 11.7219H17.8588C17.7798 11.7284 17.7142 11.7663 17.6519 11.8649C17.5809 11.9488 17.5347 12.0499 17.5184 12.1574C17.4881 12.2745 17.4795 12.3959 17.4928 12.5159V12.5311C17.5061 12.6773 17.5339 12.7488 17.5829 12.8929C17.633 13.0381 17.6908 13.1096 17.7665 13.1832C17.7787 13.193 17.7898 13.2027 17.8043 13.2092C17.7264 13.271 17.6741 13.285 17.6085 13.3565C17.5668 13.3923 17.5168 13.4176 17.4627 13.4302C17.3471 13.2946 17.2446 13.1488 17.1567 12.9947C17.0515 12.7671 16.993 12.5217 16.9843 12.2722C16.9659 12.0277 16.9961 11.782 17.0733 11.5486C17.1346 11.3358 17.2419 11.1381 17.3882 10.969C17.5306 10.825 17.6775 10.7524 17.8533 10.7524ZM19.3787 12.6004C19.747 12.6004 20.1932 12.6708 20.7306 13.0326C21.0566 13.2493 21.3125 13.324 21.9022 13.5396H21.9056C22.1893 13.6869 22.3562 13.8278 22.4374 13.9718V13.8299C22.4773 13.9087 22.4996 13.9948 22.5027 14.0826C22.5057 14.1704 22.4896 14.2578 22.4552 14.3391C22.3184 14.6759 21.8811 15.0367 21.2714 15.2522V15.2544C20.9732 15.4006 20.7139 15.6151 20.409 15.7581C20.1019 15.9044 19.7548 16.0744 19.283 16.0474C19.1136 16.0559 18.9441 16.0312 18.7846 15.9748C18.6613 15.9095 18.5417 15.8379 18.4263 15.7603C18.2093 15.614 18.0224 15.4006 17.7453 15.2566V15.2512H17.7398C17.2947 14.9847 17.0544 14.6965 16.9765 14.481C16.8997 14.1907 16.9709 13.9729 17.1912 13.831C17.4405 13.6848 17.614 13.5374 17.7286 13.467C17.8444 13.3869 17.8878 13.3565 17.9245 13.3251H17.9267V13.3219C18.1147 13.1031 18.4118 12.8138 18.8602 12.6708C19.0149 12.6319 19.1873 12.6004 19.3787 12.6004ZM22.493 14.9218C22.8925 16.4568 23.8249 18.6862 24.4246 19.7673C24.7428 20.3457 25.3759 21.5644 25.6508 23.043C25.8243 23.0376 26.0168 23.0625 26.2216 23.1123C26.9403 21.3022 25.6141 19.3567 25.0099 18.8162C24.764 18.5984 24.7517 18.4533 24.873 18.4533C25.5284 19.0317 26.3918 20.1561 26.7045 21.4398C26.848 22.0193 26.8814 22.6357 26.7278 23.2488C26.8024 23.2792 26.878 23.3149 26.9559 23.3214C28.1042 23.8999 28.5281 24.3375 28.3245 24.9864V24.9398C28.2566 24.9365 28.191 24.9398 28.1231 24.9398H28.1064C28.2744 24.4339 27.9039 24.0461 26.9214 23.6139C25.9033 23.1806 25.09 23.2499 24.9509 24.1176C24.9431 24.1642 24.9376 24.1891 24.932 24.2638C24.8563 24.2888 24.7773 24.3213 24.6994 24.3332C24.221 24.6235 23.9629 25.0579 23.8171 25.619C23.6725 26.1964 23.628 26.8712 23.589 27.6436V27.6469C23.5657 28.0087 23.3988 28.5546 23.2341 29.1103C21.5651 30.2716 19.2508 30.7764 17.2825 29.4721C17.159 29.2621 17.0087 29.0681 16.8352 28.8948C16.7523 28.7599 16.6492 28.638 16.5292 28.533C16.7317 28.533 16.9053 28.5015 17.0466 28.4604C17.2066 28.3881 17.3318 28.2585 17.396 28.0986C17.5161 27.8093 17.396 27.3435 17.0121 26.8387C16.6282 26.3329 15.9762 25.7609 15.0227 25.1911C14.3217 24.7589 13.9256 24.2487 13.7431 23.6789C13.5595 23.1004 13.584 22.5036 13.7264 21.8969C13.999 20.7378 14.6978 19.6113 15.1439 18.9039C15.263 18.8335 15.1851 19.0501 14.69 19.959C14.2494 20.7725 13.4204 22.6639 14.5542 24.1339C14.597 23.0613 14.841 22.0055 15.2741 21.0184C15.9017 19.634 17.2135 17.2227 17.317 15.3118C17.3704 15.3508 17.5584 15.4581 17.6385 15.5306C17.8811 15.6747 18.0613 15.8914 18.295 16.0344C18.5298 16.2521 18.8257 16.3972 19.2697 16.3972C19.3131 16.4005 19.3531 16.4037 19.3932 16.4037C19.8505 16.4037 20.2043 16.2586 20.5014 16.1134C20.8241 15.9683 21.0811 15.7516 21.3248 15.6801H21.3303C21.8499 15.5339 22.2605 15.2447 22.493 14.9218ZM24.9253 24.6257C24.9665 25.2767 25.307 25.9743 25.9067 26.1173C26.5609 26.2625 27.5022 25.7566 27.8995 25.2886L28.1342 25.2789C28.4847 25.2702 28.7762 25.2897 29.0766 25.5681L29.08 25.5713C29.3114 25.7869 29.4193 26.1465 29.515 26.5203C29.6096 26.9547 29.6864 27.3652 29.9701 27.675C30.5109 28.2459 30.6878 28.6564 30.6778 28.9099L30.6811 28.9034V28.9229L30.6778 28.9099C30.6611 29.1937 30.4719 29.3389 30.1237 29.5545C29.4227 29.9888 28.181 30.3257 27.3899 31.2552C26.7022 32.0535 25.8644 32.489 25.1245 32.5453C24.3857 32.6027 23.7481 32.3287 23.3732 31.5726L23.3676 31.5693C23.1339 31.1349 23.2341 30.459 23.4299 29.7386C23.6257 29.015 23.9061 28.2816 23.9451 27.6826C23.9862 26.9092 24.0296 26.2365 24.162 25.7176C24.2956 25.2139 24.5047 24.8542 24.8752 24.6517L24.9253 24.6278V24.6257ZM12.8919 24.6787H12.9031C12.962 24.6787 13.0199 24.6841 13.0777 24.6939C13.4961 24.7535 13.8633 25.0546 14.216 25.5085L15.2285 27.311L15.2318 27.3143C15.5022 27.8917 16.0708 28.4669 16.5548 29.0887C17.0377 29.7365 17.4115 30.3138 17.3659 30.7894V30.7959C17.3025 31.6018 16.833 32.0395 16.1142 32.1976C15.3965 32.3438 14.4229 32.1998 13.4494 31.695C12.3723 31.1144 11.0928 31.1869 10.2705 31.0429C9.85993 30.9714 9.59067 30.8251 9.46605 30.6085C9.34255 30.3929 9.34032 29.9574 9.60291 29.2761V29.2728L9.60514 29.2696C9.73532 28.9078 9.63852 28.4539 9.57509 28.0574C9.5139 27.623 9.48274 27.2894 9.62294 27.0391C9.80096 26.6773 10.0636 26.6069 10.3896 26.4618C10.7178 26.3155 11.1028 26.243 11.4088 25.9537H11.411V25.9505C11.6958 25.6602 11.9061 25.2994 12.1542 25.0427C12.3656 24.825 12.577 24.6787 12.8919 24.6787ZM20.8574 14.8493C20.3734 15.067 19.806 15.4288 19.2018 15.4288C18.5987 15.4288 18.1225 15.1396 17.7787 14.924C17.6063 14.7789 17.4672 14.6337 17.3626 14.5611C17.1801 14.416 17.2024 14.1993 17.2802 14.1993C17.4015 14.2166 17.4238 14.3456 17.5017 14.4171C17.6085 14.4885 17.7409 14.6326 17.9033 14.7778C18.2271 14.9944 18.6599 15.2837 19.2007 15.2837C19.7403 15.2837 20.3723 14.9944 20.7562 14.7789C20.9732 14.6326 21.2513 14.4171 21.4772 14.273C21.6508 14.1246 21.643 13.9827 21.7876 13.9827C21.9312 14 21.8255 14.1278 21.6241 14.3434C21.3773 14.5251 21.121 14.6943 20.8563 14.8504V14.8493H20.8574ZM19.6535 13.1334V13.1096C19.6469 13.089 19.668 13.0641 19.6858 13.0554C19.7682 13.0088 19.8861 13.0261 19.9751 13.0597C20.0452 13.0597 20.1531 13.1323 20.142 13.206C20.1353 13.259 20.0474 13.2775 19.9918 13.2775C19.9306 13.2775 19.8894 13.2309 19.8349 13.2038C19.7771 13.1843 19.6725 13.1951 19.6535 13.1334ZM19.0405 13.1334C19.0182 13.1962 18.9147 13.1865 18.8558 13.2049C18.8035 13.232 18.7601 13.2786 18.7011 13.2786C18.6444 13.2786 18.5554 13.258 18.5487 13.2049C18.5387 13.1334 18.6466 13.0608 18.7156 13.0608C18.8057 13.0272 18.9203 13.0099 19.0038 13.0554C19.0249 13.0651 19.0438 13.0879 19.0371 13.1096V13.1323H19.0405V13.1334Z" fill="white"/>
</svg>
