<svg width="42" height="40" viewBox="0 0 42 40" fill="none" xmlns="http://www.w3.org/2000/svg">
<rect width="41.25" height="40" rx="12" fill="black"/>
<path d="M28.5 20.9404C28.0624 21.929 27.8532 22.371 27.2912 23.2446C26.5061 24.4647 25.3976 25.9872 24.0271 25.9976C22.8081 26.0081 22.4934 25.186 20.839 25.1994C19.1847 25.2076 18.84 26.0125 17.6195 25.9999C16.2491 25.9872 15.1998 24.6155 14.4139 23.3977C12.2166 19.9817 11.9847 15.978 13.3427 13.8477C14.3034 12.3372 15.8239 11.4502 17.2515 11.4502C18.7054 11.4502 19.6193 12.2655 20.8215 12.2655C21.9878 12.2655 22.6983 11.4479 24.3798 11.4479C25.6515 11.4479 26.9963 12.155 27.9571 13.3751C24.8137 15.1328 25.3244 19.7144 28.5 20.9404ZM23.1037 10.0845C23.7154 9.28333 24.1793 8.15286 24.011 7C23.0129 7.06944 21.8459 7.71979 21.1639 8.56204C20.5464 9.32887 20.0342 10.4683 20.2339 11.5704C21.3227 11.6062 22.4495 10.9439 23.1037 10.0845Z" fill="white"/>
<path d="M6.50002 32.9034H7.59794V30.2917C7.59794 29.7766 7.96832 29.4024 8.49745 29.4024C9.00892 29.4024 9.32641 29.6961 9.32641 30.171V32.9033H10.3935V30.2675C10.3935 29.7564 10.755 29.4023 11.2841 29.4023C11.8221 29.4023 12.1219 29.7001 12.1219 30.2232V32.9033H13.2198V29.9778C13.2198 29.1247 12.6157 28.5573 11.6942 28.5573C11.0195 28.5573 10.464 28.8873 10.239 29.4145H10.2126C10.0406 28.8672 9.56884 28.5573 8.90749 28.5573C8.27255 28.5573 7.77871 28.8833 7.57587 29.3783H7.55382V28.6378H6.5L6.50002 32.9034ZM15.6231 32.2152C15.1469 32.2152 14.8294 31.9939 14.8294 31.6438C14.8294 31.3058 15.1337 31.0885 15.6628 31.0563L16.743 30.9959V31.3219C16.743 31.837 16.2448 32.2152 15.6231 32.2152ZM15.2924 32.9718C15.892 32.9718 16.4785 32.6861 16.7475 32.2233H16.7695V32.9034H17.8278V29.9657C17.8278 29.1086 17.0738 28.5493 15.9142 28.5493C14.7236 28.5493 13.9785 29.1207 13.93 29.9174H14.9485C15.0191 29.5633 15.3498 29.3339 15.8701 29.3339C16.4124 29.3339 16.7431 29.5915 16.7431 30.0381V30.344L15.5085 30.4084C14.3709 30.4728 13.7315 30.9275 13.7315 31.684C13.7315 32.4526 14.3885 32.9718 15.2924 32.9718ZM22.6473 30.1589C22.5724 29.2615 21.8095 28.5493 20.575 28.5493C19.2169 28.5493 18.335 29.4064 18.335 30.7705C18.335 32.1549 19.2169 32.9877 20.5838 32.9877C21.7567 32.9877 22.5636 32.36 22.6517 31.4062H21.6155C21.5141 31.8891 21.1525 32.1789 20.597 32.1789C19.9003 32.1789 19.4506 31.6638 19.4506 30.7704C19.4506 29.8932 19.8959 29.362 20.5882 29.362C21.1746 29.362 21.5229 29.704 21.6111 30.1587L22.6473 30.1589ZM26.0383 27C24.182 27 23.0179 28.1549 23.0179 30.002C23.0179 31.8491 24.1819 33 26.0383 33C27.8902 33 29.0543 31.8491 29.0543 30.002C29.0543 28.1549 27.8903 27 26.0383 27ZM26.0383 27.8853C27.1715 27.8853 27.8946 28.7062 27.8946 30.002C27.8946 31.2937 27.1715 32.1147 26.0383 32.1147C24.9007 32.1147 24.182 31.2937 24.182 30.002C24.182 28.7062 24.9007 27.8853 26.0383 27.8853ZM29.5174 31.2696C29.5659 32.3401 30.5272 33 31.9911 33C33.5299 33 34.5 32.3078 34.5 31.2052C34.5 30.34 33.9532 29.8531 32.6613 29.5835L31.9294 29.4306C31.1489 29.2616 30.827 29.0363 30.827 28.6499C30.827 28.1671 31.3121 27.8451 32.0308 27.8451C32.7583 27.8451 33.2565 28.1711 33.3095 28.7143H34.3942C34.3677 27.6922 33.4418 27 32.0396 27C30.6551 27 29.6718 27.6962 29.6718 28.7264C29.6718 29.5553 30.2274 30.0704 31.4002 30.3159L32.2247 30.493C33.0272 30.666 33.3535 30.9075 33.3535 31.326C33.3535 31.8089 32.82 32.1549 32.0528 32.1549C31.2768 32.1549 30.6904 31.8049 30.6198 31.2696H29.5174Z" fill="white"/>
</svg>
