<svg width="24" height="1532" viewBox="0 0 24 1532" fill="none" xmlns="http://www.w3.org/2000/svg">
<g clip-path="url(#clip0_33_28028)">
<g clip-path="url(#clip1_33_28028)">
<path fill-rule="evenodd" clip-rule="evenodd" d="M9 21H22V7.88965L17.0872 3H9L9 21ZM22 22C22.5523 22 23 21.5523 23 21V7.88965C23 7.62361 22.894 7.36854 22.7054 7.18087L17.7926 2.29122C17.6052 2.10471 17.3516 2 17.0872 2H9C8.44772 2 8 2.44772 8 3V21C8 21.5523 8.44772 22 9 22H22Z" fill="#333333"/>
<path fill-rule="evenodd" clip-rule="evenodd" d="M5.5 3C5.22386 3 5 3.22386 5 3.5V20.5C5 20.7761 5.22386 21 5.5 21H7C7.27614 21 7.5 21.2239 7.5 21.5C7.5 21.7761 7.27614 22 7 22H5.5C4.67157 22 4 21.3284 4 20.5V3.5C4 2.67157 4.67157 2 5.5 2H7C7.27614 2 7.5 2.22386 7.5 2.5C7.5 2.77614 7.27614 3 7 3H5.5Z" fill="#FF6F3D"/>
<path fill-rule="evenodd" clip-rule="evenodd" d="M1.5 3C1.22386 3 1 3.22386 1 3.5V20.5C1 20.7761 1.22386 21 1.5 21H3C3.27614 21 3.5 21.2239 3.5 21.5C3.5 21.7761 3.27614 22 3 22H1.5C0.671573 22 0 21.3284 0 20.5V3.5C0 2.67157 0.671573 2 1.5 2H3C3.27614 2 3.5 2.22386 3.5 2.5C3.5 2.77614 3.27614 3 3 3H1.5Z" fill="#FF6F3D"/>
<path fill-rule="evenodd" clip-rule="evenodd" d="M16.5 4C16.7761 4 17 4.22386 17 4.5V8H20.5C20.7761 8 21 8.22386 21 8.5C21 8.77614 20.7761 9 20.5 9H16.5C16.2239 9 16 8.77614 16 8.5V4.5C16 4.22386 16.2239 4 16.5 4Z" fill="#FF6F3D"/>
<path fill-rule="evenodd" clip-rule="evenodd" d="M12 11.5C12 11.2239 12.2239 11 12.5 11H18.5C18.7761 11 19 11.2239 19 11.5C19 11.7761 18.7761 12 18.5 12H12.5C12.2239 12 12 11.7761 12 11.5Z" fill="#333333"/>
<path fill-rule="evenodd" clip-rule="evenodd" d="M12 14.5C12 14.2239 12.2239 14 12.5 14H18.5C18.7761 14 19 14.2239 19 14.5C19 14.7761 18.7761 15 18.5 15H12.5C12.2239 15 12 14.7761 12 14.5Z" fill="#333333"/>
<path fill-rule="evenodd" clip-rule="evenodd" d="M12 17.5C12 17.2239 12.2239 17 12.5 17H18.5C18.7761 17 19 17.2239 19 17.5C19 17.7761 18.7761 18 18.5 18H12.5C12.2239 18 12 17.7761 12 17.5Z" fill="#333333"/>
</g>
<path fill-rule="evenodd" clip-rule="evenodd" d="M11.5 47C16.1944 47 20 43.1944 20 38.5C20 33.8056 16.1944 30 11.5 30C6.80558 30 3 33.8056 3 38.5C3 43.1944 6.80558 47 11.5 47ZM21 38.5C21 43.7467 16.7467 48 11.5 48C6.25329 48 2 43.7467 2 38.5C2 33.2533 6.25329 29 11.5 29C16.7467 29 21 33.2533 21 38.5Z" fill="#333333"/>
<path d="M14 29.5C14 30.8807 12.8807 32 11.5 32C10.1193 32 9 30.8807 9 29.5C9 28.1193 10.1193 27 11.5 27C12.8807 27 14 28.1193 14 29.5Z" fill="white"/>
<path fill-rule="evenodd" clip-rule="evenodd" d="M15 29.5C15 31.433 13.433 33 11.5 33C9.567 33 8 31.433 8 29.5C8 27.567 9.567 26 11.5 26C13.433 26 15 27.567 15 29.5ZM11.5 32C12.8807 32 14 30.8807 14 29.5C14 28.1193 12.8807 27 11.5 27C10.1193 27 9 28.1193 9 29.5C9 30.8807 10.1193 32 11.5 32Z" fill="#333333"/>
<path d="M8 45.5C8 46.8807 6.88071 48 5.5 48C4.11929 48 3 46.8807 3 45.5C3 44.1193 4.11929 43 5.5 43C6.88071 43 8 44.1193 8 45.5Z" fill="white"/>
<path fill-rule="evenodd" clip-rule="evenodd" d="M9 45.5C9 47.433 7.433 49 5.5 49C3.567 49 2 47.433 2 45.5C2 43.567 3.567 42 5.5 42C7.433 42 9 43.567 9 45.5ZM5.5 48C6.88071 48 8 46.8807 8 45.5C8 44.1193 6.88071 43 5.5 43C4.11929 43 3 44.1193 3 45.5C3 46.8807 4.11929 48 5.5 48Z" fill="#333333"/>
<path d="M20 45.5C20 46.8807 18.8807 48 17.5 48C16.1193 48 15 46.8807 15 45.5C15 44.1193 16.1193 43 17.5 43C18.8807 43 20 44.1193 20 45.5Z" fill="white"/>
<path fill-rule="evenodd" clip-rule="evenodd" d="M21 45.5C21 47.433 19.433 49 17.5 49C15.567 49 14 47.433 14 45.5C14 43.567 15.567 42 17.5 42C19.433 42 21 43.567 21 45.5ZM17.5 48C18.8807 48 20 46.8807 20 45.5C20 44.1193 18.8807 43 17.5 43C16.1193 43 15 44.1193 15 45.5C15 46.8807 16.1193 48 17.5 48Z" fill="#333333"/>
<path d="M22 35.5C22 36.8807 20.8807 38 19.5 38C18.1193 38 17 36.8807 17 35.5C17 34.1193 18.1193 33 19.5 33C20.8807 33 22 34.1193 22 35.5Z" fill="white"/>
<path fill-rule="evenodd" clip-rule="evenodd" d="M23 35.5C23 37.433 21.433 39 19.5 39C17.567 39 16 37.433 16 35.5C16 33.567 17.567 32 19.5 32C21.433 32 23 33.567 23 35.5ZM19.5 38C20.8807 38 22 36.8807 22 35.5C22 34.1193 20.8807 33 19.5 33C18.1193 33 17 34.1193 17 35.5C17 36.8807 18.1193 38 19.5 38Z" fill="#333333"/>
<path d="M6 35.5C6 36.8807 4.88071 38 3.5 38C2.11929 38 1 36.8807 1 35.5C1 34.1193 2.11929 33 3.5 33C4.88071 33 6 34.1193 6 35.5Z" fill="white"/>
<path fill-rule="evenodd" clip-rule="evenodd" d="M7 35.5C7 37.433 5.433 39 3.5 39C1.567 39 0 37.433 0 35.5C0 33.567 1.567 32 3.5 32C5.433 32 7 33.567 7 35.5ZM3.5 38C4.88071 38 6 36.8807 6 35.5C6 34.1193 4.88071 33 3.5 33C2.11929 33 1 34.1193 1 35.5C1 36.8807 2.11929 38 3.5 38Z" fill="#333333"/>
<rect x="5" y="72" width="14" height="1" rx="0.5" fill="#333333"/>
<rect x="8" y="73" width="3" height="1" rx="0.5" transform="rotate(-90 8 73)" fill="#333333"/>
<rect x="15" y="73" width="3" height="1" rx="0.5" transform="rotate(-90 15 73)" fill="#333333"/>
<path fill-rule="evenodd" clip-rule="evenodd" d="M21 56H3C2.44772 56 2 56.4477 2 57V67C2 67.5523 2.44772 68 3 68H21C21.5523 68 22 67.5523 22 67V57C22 56.4477 21.5523 56 21 56ZM3 55C1.89543 55 1 55.8954 1 57V67C1 68.1046 1.89543 69 3 69H21C22.1046 69 23 68.1046 23 67V57C23 55.8954 22.1046 55 21 55H3Z" fill="#FF6F3D"/>
<g clip-path="url(#clip2_33_28028)">
<path fill-rule="evenodd" clip-rule="evenodd" d="M4.22183 98.4853C4.02656 98.6805 3.70998 98.6805 3.51472 98.4853C-1.17157 93.799 -1.17157 86.201 3.51472 81.5147C8.20101 76.8284 15.799 76.8284 20.4853 81.5147C25.1716 86.201 25.1716 93.799 20.4853 98.4853C18.3123 100.658 15.512 101.824 12.6676 101.982C11.2133 102.062 9.74695 101.879 8.34597 101.433C7.50226 101.164 6.6823 100.799 5.90312 100.339C5.66535 100.199 5.58644 99.892 5.72687 99.6542C5.8673 99.4164 6.17389 99.3375 6.41166 99.478C7.12537 99.8995 7.87652 100.233 8.64966 100.48C9.93364 100.889 11.2783 101.057 12.6123 100.983C15.2205 100.839 17.7858 99.7705 19.7782 97.7782C24.0739 93.4824 24.0739 86.5176 19.7782 82.2218C15.4824 77.9261 8.51759 77.9261 4.22182 82.2218C-0.0739422 86.5176 -0.0739412 93.4824 4.22183 97.7782C4.41709 97.9734 4.41709 98.29 4.22183 98.4853Z" fill="#333333"/>
<path d="M14.8522 90.3848C14.8582 89.9251 14.9834 89.4744 15.2159 89.0746C15.4485 88.6748 15.7809 88.3389 16.1823 88.0981C15.9273 87.7428 15.5909 87.4504 15.1999 87.2441C14.8088 87.0378 14.3739 86.9234 13.9295 86.9098C12.9817 86.8127 12.0628 87.4632 11.5798 87.4632C11.0875 87.4632 10.3438 86.9194 9.543 86.9355C9.02503 86.9518 8.52022 87.0988 8.07776 87.3621C7.63531 87.6254 7.2703 87.996 7.01829 88.4379C5.92666 90.282 6.74092 92.9922 7.78661 94.4828C8.30979 95.2127 8.92124 96.0281 9.72132 95.9992C10.5042 95.9675 10.7966 95.5121 11.7417 95.5121C12.678 95.5121 12.9523 95.9992 13.7686 95.9808C14.6087 95.9675 15.138 95.2476 15.6428 94.5108C16.0188 93.9907 16.308 93.4159 16.4999 92.8076C16.0118 92.6062 15.5953 92.269 15.3023 91.8382C15.0093 91.4074 14.8527 90.9019 14.8522 90.3848Z" fill="#FF6F3D"/>
<path d="M14.2825 85.7111C14.978 84.9544 15.3207 83.9819 15.2377 82.9999C14.1751 83.1011 13.1935 83.5613 12.4885 84.2889C12.1439 84.6444 11.8799 85.058 11.7117 85.5059C11.5435 85.9539 11.4744 86.4276 11.5083 86.8998C12.0398 86.9047 12.5656 86.8003 13.0462 86.5944C13.5267 86.3885 13.9494 86.0865 14.2825 85.7111Z" fill="#FF6F3D"/>
</g>
<g clip-path="url(#clip3_33_28028)">
<path fill-rule="evenodd" clip-rule="evenodd" d="M20.4853 123.778C20.6805 123.973 20.6805 124.29 20.4853 124.485C15.799 129.172 8.20101 129.172 3.51472 124.485C-1.17157 119.799 -1.17157 112.201 3.51472 107.515C8.20101 102.828 15.799 102.828 20.4853 107.515C22.6583 109.688 23.824 112.488 23.9815 115.332C24.0621 116.787 23.8792 118.253 23.4327 119.654C23.1637 120.498 22.7992 121.318 22.339 122.097C22.1986 122.335 21.892 122.414 21.6542 122.273C21.4164 122.133 21.3375 121.826 21.478 121.588C21.8995 120.875 22.2335 120.123 22.4799 119.35C22.8891 118.066 23.057 116.722 22.9831 115.388C22.8386 112.779 21.7705 110.214 19.7782 108.222C15.4824 103.926 8.51759 103.926 4.22183 108.222C-0.0739422 112.518 -0.0739422 119.482 4.22183 123.778C8.51759 128.074 15.4824 128.074 19.7782 123.778C19.9734 123.583 20.29 123.583 20.4853 123.778Z" fill="#333333"/>
<path d="M6.75 112C6.60067 112 6.45132 112.056 6.33757 112.167C6.11007 112.39 6.11007 112.753 6.33757 112.975L7.86654 114.473C6.13063 115.721 5 117.729 5 120H19C19 117.729 17.8694 115.721 16.1335 114.473L17.6624 112.975C17.8899 112.751 17.8899 112.391 17.6624 112.167C17.4349 111.945 17.0651 111.945 16.8376 112.167L15.1081 113.862C14.1707 113.405 13.1179 113.143 12 113.143C10.8821 113.143 9.82928 113.405 8.89193 113.862L7.16244 112.167C7.04869 112.056 6.89933 112 6.75 112ZM9 117H10V118H9V117ZM14 117H15V118H14V117Z" fill="#FF6F3D"/>
</g>
<g clip-path="url(#clip4_33_28028)">
<path fill-rule="evenodd" clip-rule="evenodd" d="M5.81889 132.293C5.68082 132.054 5.76276 131.748 6.0019 131.61C11.7414 128.296 19.0805 130.262 22.3942 136.002C25.7079 141.742 23.7414 149.081 18.0019 152.394C12.2624 155.708 4.92331 153.742 1.6096 148.002C0.0730498 145.341 -0.328139 142.334 0.255843 139.546C0.554427 138.12 1.1106 136.751 1.90454 135.513C2.38267 134.768 2.94702 134.07 3.59319 133.437C3.79037 133.244 4.10694 133.247 4.30026 133.444C4.49358 133.641 4.49046 133.958 4.29327 134.151C3.70139 134.731 3.18438 135.37 2.74624 136.053C2.01861 137.188 1.50849 138.443 1.23461 139.751C0.699114 142.308 1.06681 145.062 2.47562 147.502C5.51319 152.763 12.2407 154.566 17.5019 151.528C22.7631 148.491 24.5657 141.763 21.5282 136.502C18.4906 131.241 11.7631 129.438 6.5019 132.476C6.26276 132.614 5.95696 132.532 5.81889 132.293Z" fill="#333333"/>
<circle cx="8.00168" cy="142.05" r="1" fill="#FF6F3D"/>
<circle cx="12.0017" cy="142.05" r="1" fill="#FF6F3D"/>
<circle cx="16.0017" cy="142.05" r="1" fill="#FF6F3D"/>
</g>
<g clip-path="url(#clip5_33_28028)">
<path fill-rule="evenodd" clip-rule="evenodd" d="M2.5 159C1.68677 159 1 159.704 1 160.548V170.548C1 171.361 1.6556 172 2.5 172H13.5C13.7761 172 14 172.224 14 172.5C14 172.776 13.7761 173 13.5 173H2.5C1.13526 173 0 171.944 0 170.548V160.548C0 159.183 1.10409 158 2.5 158H20.5C21.1176 158 21.754 158.139 22.241 158.559C22.7417 158.991 23 159.648 23 160.5C23 160.776 22.7761 161 22.5 161C22.2239 161 22 160.776 22 160.5C22 159.852 21.8106 159.509 21.5874 159.316C21.3506 159.111 20.987 159 20.5 159H2.5Z" fill="#333333"/>
<path fill-rule="evenodd" clip-rule="evenodd" d="M4 176.5C4 176.224 4.1599 176 4.35714 176H13.6429C13.8401 176 14 176.224 14 176.5C14 176.776 13.8401 177 13.6429 177H4.35714C4.1599 177 4 176.776 4 176.5Z" fill="#333333"/>
<path fill-rule="evenodd" clip-rule="evenodd" d="M8.5 176.952C8.22386 176.952 8 176.728 8 176.452L8 172.952L9 172.952L9 176.452C9 176.728 8.77614 176.952 8.5 176.952Z" fill="#333333"/>
<path fill-rule="evenodd" clip-rule="evenodd" d="M22 163H17C16.4477 163 16 163.448 16 164V175C16 175.552 16.4477 176 17 176H22C22.5523 176 23 175.552 23 175V164C23 163.448 22.5523 163 22 163ZM17 162C15.8954 162 15 162.895 15 164V175C15 176.105 15.8954 177 17 177H22C23.1046 177 24 176.105 24 175V164C24 162.895 23.1046 162 22 162H17Z" fill="#FF6F3D"/>
<path fill-rule="evenodd" clip-rule="evenodd" d="M18 174.5C18 174.224 18.2929 174 18.5 174H20.5C20.7071 174 21 174.224 21 174.5C21 174.776 20.7071 175 20.5 175H18.5C18.2929 175 18 174.776 18 174.5Z" fill="#FF6F3D"/>
</g>
<g clip-path="url(#clip6_33_28028)">
<path fill-rule="evenodd" clip-rule="evenodd" d="M21.7113 187.819C21.9504 187.681 22.2562 187.763 22.3943 188.002C25.708 193.741 23.7415 201.081 18.002 204.394C12.2625 207.708 4.9234 205.741 1.60969 200.002C-1.70402 194.262 0.262485 186.923 6.002 183.61C8.66338 182.073 11.6699 181.672 14.4582 182.256C15.8837 182.554 17.2528 183.111 18.4905 183.905C19.2359 184.383 19.9335 184.947 20.5671 185.593C20.7604 185.79 20.7572 186.107 20.5601 186.3C20.3629 186.494 20.0463 186.49 19.853 186.293C19.2727 185.701 18.6336 185.184 17.9506 184.746C16.8163 184.019 15.5608 183.508 14.2532 183.235C11.6964 182.699 8.94213 183.067 6.502 184.476C1.24078 187.513 -0.56185 194.241 2.47571 199.502C5.51328 204.763 12.2408 206.566 17.502 203.528C22.7632 200.491 24.5658 193.763 21.5283 188.502C21.3902 188.263 21.4721 187.957 21.7113 187.819Z" fill="#333333"/>
<path d="M16.4763 197.629C16.8009 197.302 16.9631 196.925 16.9631 196.499C16.9631 196.073 16.8079 195.703 16.4975 195.391C16.1871 195.064 15.8203 194.901 15.397 194.901C14.9455 194.901 14.5645 195.057 14.2541 195.37C13.9578 195.682 13.8097 196.059 13.8097 196.499C13.8097 196.925 13.9649 197.302 14.2753 197.629C14.5857 197.941 14.9596 198.098 15.397 198.098C15.8061 198.098 16.1659 197.941 16.4763 197.629ZM10.1906 191.384C10.1906 190.943 10.0354 190.567 9.72502 190.254C9.41461 189.941 9.05483 189.785 8.64566 189.785C8.19416 189.785 7.8132 189.941 7.5028 190.254C7.2065 190.567 7.05835 190.943 7.05835 191.384C7.05835 191.81 7.21356 192.187 7.52396 192.513C7.83437 192.826 8.20827 192.982 8.64566 192.982C9.05483 192.982 9.41461 192.826 9.72502 192.513C10.0354 192.187 10.1906 191.81 10.1906 191.384ZM18.0002 196.499C18.0002 197.181 17.7391 197.792 17.2171 198.332C16.695 198.872 16.0883 199.142 15.397 199.142C14.6915 199.142 14.0778 198.879 13.5557 198.354C13.0337 197.814 12.7726 197.195 12.7726 196.499C12.7726 195.774 13.0337 195.149 13.5557 194.624C14.0778 194.098 14.6915 193.835 15.397 193.835C16.1024 193.835 16.7091 194.098 17.2171 194.624C17.7391 195.149 18.0002 195.774 18.0002 196.499ZM11.2488 191.384C11.2488 192.066 10.9878 192.677 10.4658 193.217C9.94372 193.757 9.33701 194.027 8.64566 194.027C7.94019 194.027 7.31938 193.764 6.78322 193.238C6.26118 192.698 6.00015 192.08 6.00015 191.384C6.00015 190.659 6.26118 190.034 6.78322 189.508C7.30527 188.982 7.92608 188.719 8.64566 188.719C9.35112 188.719 9.95782 188.982 10.4658 189.508C10.9878 190.034 11.2488 190.659 11.2488 191.384ZM15.967 188.308C16.2044 188.49 16.2562 188.827 16.0843 189.072L8.79622 199.466C8.61329 199.727 8.24557 199.773 8.00307 199.567C7.7913 199.386 7.75112 199.075 7.9102 198.846L15.1683 188.432C15.3505 188.171 15.7141 188.114 15.967 188.308Z" fill="#FF6F3D"/>
</g>
<g clip-path="url(#clip7_33_28028)">
<path fill-rule="evenodd" clip-rule="evenodd" d="M7.74262 221.791C7.5123 221.652 7.42179 221.378 7.53846 221.173L8.59848 219.325C8.7198 219.113 9.0177 219.057 9.2572 219.201C9.48752 219.341 9.57802 219.614 9.46136 219.819L8.40133 221.667C8.28002 221.879 7.98212 221.936 7.74262 221.791Z" fill="#333333"/>
<path fill-rule="evenodd" clip-rule="evenodd" d="M16.3176 221.791C16.5479 221.652 16.6384 221.378 16.5217 221.173L15.4617 219.325C15.3404 219.113 15.0425 219.057 14.803 219.201C14.5727 219.341 14.4822 219.614 14.5988 219.819L15.6588 221.667C15.7802 221.879 16.0781 221.936 16.3176 221.791Z" fill="#333333"/>
<path fill-rule="evenodd" clip-rule="evenodd" d="M12 217.996C13.6569 217.996 15 216.653 15 214.996C15 213.339 13.6569 211.996 12 211.996C10.3431 211.996 9 213.339 9 214.996C9 216.653 10.3431 217.996 12 217.996ZM12 218.996C14.2091 218.996 16 217.205 16 214.996C16 212.787 14.2091 210.996 12 210.996C9.79086 210.996 8 212.787 8 214.996C8 217.205 9.79086 218.996 12 218.996Z" fill="#333333"/>
<path fill-rule="evenodd" clip-rule="evenodd" d="M8 226C8 227.657 6.65685 229 5 229C3.34315 229 2 227.657 2 226C2 224.343 3.34315 223 5 223C6.65685 223 8 224.343 8 226ZM9 226C9 228.209 7.20914 230 5 230C2.79086 230 1 228.209 1 226C1 223.791 2.79086 222 5 222C7.20914 222 9 223.791 9 226ZM22 226C22 227.657 20.6569 229 19 229C17.3431 229 16 227.657 16 226C16 224.343 17.3431 223 19 223C20.6569 223 22 224.343 22 226ZM23 226C23 228.209 21.2091 230 19 230C16.7909 230 15 228.209 15 226C15 223.791 16.7909 222 19 222C21.2091 222 23 223.791 23 226Z" fill="#333333"/>
</g>
<g clip-path="url(#clip8_33_28028)">
<path fill-rule="evenodd" clip-rule="evenodd" d="M11.9197 243.839C13.5323 243.839 14.8395 242.532 14.8395 240.92C14.8395 239.307 13.5323 238 11.9197 238C10.3072 238 9 239.307 9 240.92C9 242.532 10.3072 243.839 11.9197 243.839ZM11.9197 244.839C14.0846 244.839 15.8395 243.085 15.8395 240.92C15.8395 238.755 14.0846 237 11.9197 237C9.75493 237 8 238.755 8 240.92C8 243.085 9.75493 244.839 11.9197 244.839Z" fill="#333333"/>
<path fill-rule="evenodd" clip-rule="evenodd" d="M19.4346 252.403C19.9152 252.064 20 251.808 20 251.648C20 250.889 19.3546 249.74 17.8672 248.716C16.4334 247.728 14.3979 247 12.0678 247C9.75295 247 7.68625 247.776 6.212 248.822C4.67848 249.91 4 251.118 4 251.877C4 252.018 4.07118 252.257 4.55903 252.577C5.04577 252.896 5.78246 253.175 6.69095 253.4C8.49357 253.844 10.6744 254 12.0678 254C13.4398 254 15.5789 253.791 17.3452 253.293C18.2338 253.043 18.9561 252.739 19.4346 252.403ZM12.0678 255C14.9542 255 21 254.133 21 251.648C21 249.163 17.1356 246 12.0678 246C7 246 3 249.392 3 251.877C3 254.362 9.18138 255 12.0678 255Z" fill="#FF6F3D"/>
</g>
<g clip-path="url(#clip9_33_28028)">
<path fill-rule="evenodd" clip-rule="evenodd" d="M13.6603 271.34L10.1563 274.844C9.96864 275.031 9.65823 275.025 9.46297 274.83C9.2677 274.635 9.26152 274.324 9.44916 274.137L12.9532 270.633C13.1409 270.445 13.4513 270.451 13.6465 270.646C13.8418 270.842 13.848 271.152 13.6603 271.34Z" fill="#FF6F3D"/>
<path fill-rule="evenodd" clip-rule="evenodd" d="M19.7071 264.293C19.9799 264.566 20.0714 264.971 19.9424 265.335L14.2628 281.335C14.1276 281.716 13.7762 281.978 13.3724 281.999C12.9686 282.02 12.5919 281.795 12.4178 281.43L9.27292 274.836L2.56337 271.579C2.20074 271.403 1.97923 271.027 2.00154 270.624C2.02385 270.222 2.28562 269.872 2.66549 269.737L18.6655 264.058C19.029 263.929 19.4343 264.02 19.7071 264.293ZM10.0247 274.089L13.3205 281L19 265L3.00001 270.68L10.0247 274.089Z" fill="#333333"/>
</g>
<g clip-path="url(#clip10_33_28028)">
<path fill-rule="evenodd" clip-rule="evenodd" d="M4.38661 297.403C4.49519 297.657 4.37739 297.95 4.12349 298.059L2.7104 298.663C2.6564 298.685 2.61358 298.705 2.58017 298.724C2.61619 298.747 2.66334 298.772 2.72407 298.799L10.959 302.315C11.209 302.43 11.5816 302.5 11.9886 302.5C12.3943 302.5 12.7786 302.43 13.0486 302.312L13.0527 302.31L21.2896 298.793C21.3436 298.772 21.3864 298.751 21.4198 298.732C21.3838 298.71 21.3366 298.684 21.2759 298.657C21.2753 298.657 21.2746 298.657 21.274 298.657L19.8765 298.059C19.6226 297.95 19.5048 297.657 19.6134 297.403C19.722 297.149 20.0158 297.031 20.2697 297.14L21.6749 297.741C22.0565 297.908 22.5 298.224 22.5 298.739C22.5 299.26 22.0486 299.566 21.6655 299.72L13.4495 303.228C13.4488 303.228 13.448 303.229 13.4473 303.229C13.017 303.417 12.4883 303.5 11.9886 303.5C11.4917 303.5 10.9683 303.418 10.5491 303.228L2.32506 299.716C1.94346 299.549 1.5 299.232 1.5 298.718C1.5 298.197 1.95124 297.89 2.33439 297.737L3.73028 297.14C3.98418 297.031 4.27803 297.149 4.38661 297.403Z" fill="#333333"/>
<path fill-rule="evenodd" clip-rule="evenodd" d="M4.38661 302.103C4.49519 302.357 4.37739 302.651 4.12349 302.759L2.7104 303.364C2.6564 303.385 2.61358 303.406 2.58017 303.425C2.61619 303.447 2.66334 303.473 2.72407 303.499L10.959 307.016C11.209 307.13 11.5816 307.2 11.9886 307.2C12.3943 307.2 12.7786 307.13 13.0486 307.012L13.0527 307.011L21.2896 303.493C21.3436 303.472 21.3864 303.451 21.4198 303.433C21.3838 303.41 21.3366 303.385 21.2759 303.358C21.2753 303.358 21.2746 303.357 21.274 303.357L19.8765 302.759C19.6226 302.651 19.5048 302.357 19.6134 302.103C19.722 301.849 20.0158 301.731 20.2697 301.84L21.6749 302.441C22.0565 302.608 22.5 302.925 22.5 303.439C22.5 303.96 22.0486 304.267 21.6655 304.42L13.4495 307.928C13.4488 307.929 13.448 307.929 13.4473 307.929C13.017 308.117 12.4883 308.2 11.9886 308.2C11.4917 308.2 10.9683 308.118 10.5491 307.928L2.32506 304.416C1.94346 304.249 1.5 303.933 1.5 303.418C1.5 302.897 1.95124 302.591 2.33439 302.437L3.73028 301.84C3.98418 301.731 4.27803 301.849 4.38661 302.103Z" fill="#333333"/>
<path fill-rule="evenodd" clip-rule="evenodd" d="M10.3399 298.691L2.10601 294.978C1.66868 294.776 1 294.319 1 293.5C1 292.671 1.67893 292.226 2.12474 292.036L10.3361 288.333C10.8517 288.096 11.459 288 12.0114 288C12.5583 288 13.1625 288.094 13.6708 288.336L21.894 292.044C22.3313 292.246 23 292.703 23 293.522C23 294.351 22.3211 294.796 21.8753 294.987L13.6483 298.696L13.6364 298.701C13.1295 298.914 12.5323 299 11.9886 299C11.4473 299 10.8498 298.915 10.3488 298.695L10.3399 298.691ZM13.249 289.243C12.5788 288.919 11.4516 288.919 10.751 289.243L2.52551 292.952C1.82483 293.246 1.82483 293.747 2.52551 294.07L10.751 297.779C11.4212 298.074 12.5484 298.074 13.249 297.779L21.4745 294.07C22.1752 293.776 22.1752 293.276 21.4745 292.952L13.249 289.243Z" fill="#333333"/>
</g>
<g clip-path="url(#clip11_33_28028)">
<rect x="2" y="324" width="16" height="1" rx="0.5" fill="#333333"/>
<rect x="2" y="318" width="16" height="1" rx="0.5" fill="#333333"/>
<rect x="2" y="327" width="11" height="1" rx="0.5" fill="#FF6F3D"/>
<rect x="2" y="321" width="11" height="1" rx="0.5" fill="#FF6F3D"/>
<rect x="2" y="329.992" width="16" height="1" rx="0.5" fill="#333333"/>
</g>
<g clip-path="url(#clip12_33_28028)">
<rect x="9.0166" y="357" width="5" height="1" fill="#333333"/>
<path fill-rule="evenodd" clip-rule="evenodd" d="M5 347.738C5 343.757 7.91822 341 11.5 341C15.0818 341 18 343.757 18 347.738C18 350.828 15.9803 352.469 15.1199 353.028C14.777 353.251 14.4694 353.581 14.2897 354H15.4925C15.5459 353.951 15.6037 353.906 15.6649 353.867C16.6408 353.232 19 351.327 19 347.738C19 343.213 15.6421 340 11.5 340C7.35786 340 4 343.213 4 347.738C4 350.15 5.21208 352.672 7.31476 353.885C7.3738 353.919 7.42988 353.957 7.48213 354H8.71035C8.51748 353.561 8.18034 353.23 7.81442 353.019C6.07594 352.016 5 349.861 5 347.738ZM8.96538 355H7.94311C8.19922 356.204 8.59689 358.126 8.81904 359.202C8.91496 359.667 9.32408 360 9.79875 360H13.1756C13.6469 360 14.0542 359.671 14.1533 359.21L15.0588 355H14.0359L13.1756 359H9.79875L9.79841 359C9.58893 357.985 9.22208 356.212 8.96538 355Z" fill="#333333"/>
<path d="M8 355H14.5L14 356H8.5L8 355Z" fill="#333333"/>
<rect width="3" height="1" rx="0.5" transform="matrix(-1 -8.74228e-08 -8.74228e-08 1 3 348)" fill="#FF6F3D"/>
<rect width="3" height="1" rx="0.5" transform="matrix(-1 -8.74228e-08 -8.74228e-08 1 23 348)" fill="#FF6F3D"/>
<rect x="18.9976" y="353.325" width="3" height="1" rx="0.5" transform="rotate(40.3988 18.9976 353.325)" fill="#FF6F3D"/>
<rect width="3" height="1" rx="0.5" transform="matrix(-0.766107 0.642713 0.642713 0.766107 4.39282 353.205)" fill="#FF6F3D"/>
<rect width="3" height="1" rx="0.5" transform="matrix(0.76625 -0.642543 -0.642543 -0.76625 19.6426 342.653)" fill="#FF6F3D"/>
<rect x="3.26392" y="342.723" width="3" height="1" rx="0.5" transform="rotate(-138.991 3.26392 342.723)" fill="#FF6F3D"/>
</g>
<path fill-rule="evenodd" clip-rule="evenodd" d="M12.0611 383.74C12.1043 383.819 12.1694 383.887 12.2538 383.935C12.4942 384.071 12.7992 383.987 12.9352 383.746C13.3688 382.98 14.11 382.261 15.0345 381.513C15.4932 381.141 15.9855 380.771 16.4955 380.388L16.4959 380.388C17.0032 380.006 17.5271 379.613 18.0369 379.202C20.0609 377.57 21.9999 375.565 22 372.591V372.591H21.5C22 372.591 22 372.591 22 372.59V372.59L22 372.588L22 372.584L21.9998 372.57C21.9996 372.56 21.9992 372.545 21.9986 372.527C21.9972 372.49 21.9946 372.439 21.9897 372.376C21.9797 372.249 21.9602 372.072 21.9215 371.862C21.8445 371.442 21.6898 370.876 21.3756 370.304C21.0599 369.73 20.5812 369.148 19.8607 368.712C19.1392 368.274 18.2032 368 16.9999 368C15.5405 368 14.3024 368.77 13.4622 369.482C13.0581 369.825 12.7317 370.167 12.5 370.432C12.2683 370.167 11.9419 369.825 11.5378 369.482C10.6976 368.77 9.45953 368 8.00007 368C6.79676 368 5.86077 368.274 5.13932 368.712C4.41882 369.148 3.94014 369.73 3.6244 370.304C3.31022 370.876 3.15546 371.442 3.07851 371.862C3.03984 372.072 3.02026 372.249 3.01033 372.376C3.00535 372.439 3.00277 372.49 3.00143 372.527C3.00077 372.545 3.00041 372.56 3.00022 372.57L3.00004 372.584L3.00001 372.588L3 372.59V372.59C3 372.591 3 372.591 3.5 372.591H3V372.591C3.00011 375.565 4.93914 377.57 6.9631 379.202C7.47287 379.613 7.99679 380.006 8.50407 380.388L8.5045 380.388C9.01448 380.771 9.50675 381.141 9.96554 381.513C10.8874 382.259 11.627 382.976 12.0611 383.74ZM12.5 382.6C13.0145 381.928 13.6873 381.317 14.4052 380.736C14.8784 380.353 15.3831 379.973 15.8879 379.594L15.8947 379.589C16.4043 379.206 16.9148 378.822 17.4093 378.423C19.4028 376.816 20.9994 375.072 21 372.592L21 372.591C21 372.591 21 372.591 21.5 372.591L21 372.591L20.9999 372.588L20.9992 372.563C20.9984 372.54 20.9966 372.503 20.9927 372.454C20.9851 372.357 20.9695 372.214 20.9379 372.042C20.8742 371.695 20.7477 371.238 20.4994 370.786C20.2526 370.338 19.8875 369.897 19.3424 369.567C18.7982 369.237 18.0467 369 16.9999 369C15.8881 369 14.8762 369.594 14.1092 370.245C13.7316 370.565 13.4283 370.887 13.2197 371.128C13.1157 371.248 13.036 371.348 12.9831 371.416C12.9567 371.45 12.937 371.477 12.9244 371.494L12.9108 371.512L12.9081 371.516L12.9081 371.516L12.908 371.516C12.7485 371.741 12.4366 371.795 12.2112 371.636C12.1608 371.6 12.119 371.557 12.0862 371.508L12.0755 371.494C12.0629 371.477 12.0432 371.45 12.0168 371.416C11.9639 371.348 11.8842 371.248 11.7802 371.128C11.5716 370.887 11.2684 370.565 10.8908 370.245C10.1238 369.594 9.11195 369 8.00007 369C6.95334 369 6.20181 369.237 5.65761 369.567C5.11247 369.897 4.74739 370.338 4.50061 370.786C4.25229 371.238 4.12579 371.695 4.06212 372.042C4.03047 372.214 4.01489 372.357 4.00725 372.454C4.00344 372.503 4.00162 372.54 4.00076 372.563L4.00006 372.588L4 372.591L4 372.591L3.5 372.591C4 372.591 4 372.591 4 372.591L4 372.592C4.00064 375.072 5.59716 376.816 7.59067 378.423C8.08521 378.822 8.59573 379.206 9.10532 379.589L9.1121 379.594C9.61687 379.973 10.1216 380.353 10.5948 380.736C11.3127 381.317 11.9855 381.928 12.5 382.6Z" fill="#333333"/>
<path fill-rule="evenodd" clip-rule="evenodd" d="M13.9021 393.457L12.6841 392.281C12.3011 391.911 11.6989 391.911 11.3159 392.281L10.0979 393.457C9.4974 394.037 8.68498 394.336 7.8569 394.283L6.17733 394.175C5.64922 394.141 5.18786 394.533 5.12922 395.066L4.94272 396.759C4.85077 397.594 4.41849 398.352 3.75031 398.851L2.39504 399.861C1.96891 400.179 1.86433 400.779 2.15746 401.225L3.08972 402.644C3.54935 403.344 3.69948 404.206 3.50384 405.022L3.10703 406.679C2.98226 407.199 3.28339 407.727 3.79113 407.878L5.40593 408.358C6.20208 408.595 6.86437 409.158 7.23281 409.911L7.98013 411.438C8.2151 411.918 8.78105 412.126 9.26583 411.912L10.8076 411.228C11.5677 410.891 12.4323 410.891 13.1924 411.228L14.7342 411.912C15.2189 412.126 15.7849 411.918 16.0199 411.438L16.7672 409.911C17.1356 409.158 17.7979 408.595 18.5941 408.358L20.2089 407.878C20.7166 407.727 21.0177 407.199 20.893 406.679L20.4962 405.022C20.3005 404.206 20.4507 403.344 20.9103 402.644L21.8425 401.225C22.1357 400.779 22.0311 400.179 21.605 399.861L20.2497 398.851C19.5815 398.352 19.1492 397.594 19.0573 396.759L18.8708 395.066C18.8121 394.533 18.3508 394.141 17.8227 394.175L16.1431 394.283C15.315 394.336 14.5026 394.037 13.9021 393.457ZM13.3682 391.555C12.6023 390.815 11.3977 390.815 10.6318 391.555L9.4138 392.731C9.01346 393.117 8.47185 393.317 7.9198 393.281L6.24022 393.173C5.18402 393.105 4.26129 393.889 4.144 394.954L3.95751 396.648C3.89621 397.205 3.60802 397.71 3.16257 398.042L1.8073 399.053C0.955038 399.688 0.745872 400.889 1.33213 401.781L2.26439 403.2C2.57081 403.667 2.67089 404.241 2.54047 404.786L2.14366 406.442C1.89412 407.483 2.49639 408.54 3.51186 408.842L5.12667 409.322C5.65743 409.479 6.09896 409.855 6.34459 410.356L7.0919 411.883C7.56186 412.844 8.69375 413.261 9.6633 412.831L11.2051 412.148C11.7118 411.923 12.2882 411.923 12.7949 412.148L14.3367 412.831C15.3062 413.261 16.4381 412.844 16.9081 411.883L17.6554 410.356C17.901 409.855 18.3426 409.479 18.8733 409.322L20.4881 408.842C21.5036 408.54 22.1059 407.483 21.8563 406.442L21.4595 404.786C21.3291 404.241 21.4292 403.667 21.7356 403.2L22.6679 401.781C23.2541 400.889 23.045 399.688 22.1927 399.053L20.8374 398.042C20.392 397.71 20.1038 397.205 20.0425 396.648L19.856 394.954C19.7387 393.889 18.816 393.105 17.7598 393.173L16.0802 393.281C15.5282 393.317 14.9865 393.117 14.5862 392.731L13.3682 391.555Z" fill="#333333"/>
<path fill-rule="evenodd" clip-rule="evenodd" d="M14.0024 399.735L12 396L9.99757 399.735L6 400.584L8.76 403.74L8.2918 408L12 406.215L15.7082 408L15.24 403.74L18 400.584L14.0024 399.735ZM15.9634 401.279L13.3227 400.719L12 398.252L10.6773 400.719L8.03659 401.279L9.85976 403.365L9.55048 406.178L12 405L14.4495 406.178L14.1402 403.365L15.9634 401.279Z" fill="#FF6F3D"/>
<g clip-path="url(#clip13_33_28028)">
<path fill-rule="evenodd" clip-rule="evenodd" d="M20.8032 422.576C21.0323 422.443 21.3253 422.522 21.4576 422.751C24.6327 428.25 22.7485 435.283 17.249 438.458C11.7496 441.633 4.71748 439.748 1.54237 434.249C-1.63274 428.75 0.251516 421.717 5.75096 418.542C8.30103 417.07 11.1818 416.686 13.8534 417.245C15.2194 417.531 16.5312 418.064 17.7171 418.825C18.4313 419.283 19.0998 419.824 19.7068 420.443C19.8921 420.632 19.8891 420.935 19.7001 421.12C19.5112 421.306 19.2079 421.303 19.0226 421.114C18.4666 420.547 17.8542 420.051 17.1998 419.631C16.1129 418.934 14.91 418.445 13.657 418.183C11.2072 417.67 8.56812 418.022 6.23005 419.372C1.18889 422.283 -0.53834 428.729 2.37217 433.77C5.28269 438.811 11.7288 440.538 16.77 437.628C21.8111 434.717 23.5383 428.271 20.6278 423.23C20.4955 423.001 20.574 422.708 20.8032 422.576Z" fill="#333333"/>
<rect x="16" y="431" width="1" height="3" rx="0.5" fill="#FF6F3D"/>
<rect x="16" y="431" width="1" height="3" rx="0.5" fill="#FF6F3D"/>
<rect x="16" y="431" width="1" height="3" rx="0.5" fill="#FF6F3D"/>
<rect x="16" y="431" width="1" height="3" rx="0.5" fill="#FF6F3D"/>
<rect x="16" y="431" width="1" height="3" rx="0.5" fill="#FF6F3D"/>
<path fill-rule="evenodd" clip-rule="evenodd" d="M6 433.5C6 433.224 6.22386 433 6.5 433H16.5C16.7761 433 17 433.224 17 433.5C17 433.776 16.7761 434 16.5 434H6.5C6.22386 434 6 433.776 6 433.5Z" fill="#FF6F3D"/>
<rect x="6" y="431" width="1" height="3" rx="0.5" fill="#FF6F3D"/>
<rect x="6" y="431" width="1" height="3" rx="0.5" fill="#FF6F3D"/>
<rect x="6" y="431" width="1" height="3" rx="0.5" fill="#FF6F3D"/>
<rect x="6" y="431" width="1" height="3" rx="0.5" fill="#FF6F3D"/>
<rect x="6" y="431" width="1" height="3" rx="0.5" fill="#FF6F3D"/>
<path fill-rule="evenodd" clip-rule="evenodd" d="M14.8515 427.974L11.8268 430.867C11.6412 431.044 11.3403 431.044 11.1546 430.867L8.12993 427.974C7.94432 427.797 7.94432 427.509 8.12993 427.331C8.31554 427.154 8.61648 427.154 8.80209 427.331L11.0154 429.448V422.455C11.0154 422.204 11.2282 422 11.4907 422C11.7532 422 12.0078 422.204 12.0078 422.455V429.448L14.1794 427.331C14.365 427.154 14.6659 427.154 14.8515 427.331C15.0371 427.509 15.0371 427.797 14.8515 427.974Z" fill="#FF6F3D"/>
</g>
<path fill-rule="evenodd" clip-rule="evenodd" d="M6 463H19V449.89L14.0872 445H6L6 463ZM19 464C19.5523 464 20 463.552 20 463V449.89C20 449.624 19.894 449.369 19.7054 449.181L14.7926 444.291C14.6052 444.105 14.3516 444 14.0872 444H6C5.44772 444 5 444.448 5 445V463C5 463.552 5.44772 464 6 464H19Z" fill="#333333"/>
<path fill-rule="evenodd" clip-rule="evenodd" d="M9 453.5C9 453.224 9.22386 453 9.5 453H15.5C15.7761 453 16 453.224 16 453.5C16 453.776 15.7761 454 15.5 454H9.5C9.22386 454 9 453.776 9 453.5Z" fill="#FF6F3D"/>
<path fill-rule="evenodd" clip-rule="evenodd" d="M9 456.5C9 456.224 9.22386 456 9.5 456H15.5C15.7761 456 16 456.224 16 456.5C16 456.776 15.7761 457 15.5 457H9.5C9.22386 457 9 456.776 9 456.5Z" fill="#FF6F3D"/>
<path fill-rule="evenodd" clip-rule="evenodd" d="M9 459.5C9 459.224 9.22386 459 9.5 459H15.5C15.7761 459 16 459.224 16 459.5C16 459.776 15.7761 460 15.5 460H9.5C9.22386 460 9 459.776 9 459.5Z" fill="#FF6F3D"/>
<path fill-rule="evenodd" clip-rule="evenodd" d="M13.5 446C13.7761 446 14 446.224 14 446.5V450H17.5C17.7761 450 18 450.224 18 450.5C18 450.776 17.7761 451 17.5 451H13.5C13.2239 451 13 450.776 13 450.5V446.5C13 446.224 13.2239 446 13.5 446Z" fill="#333333"/>
<g clip-path="url(#clip14_33_28028)">
<path d="M15 490C15.2761 490 15.5 490.224 15.5 490.5C15.5 490.776 15.2761 491 15 491L9 491C8.72386 491 8.5 490.776 8.5 490.5C8.5 490.224 8.72386 490 9 490L15 490Z" fill="#333333"/>
<path fill-rule="evenodd" clip-rule="evenodd" d="M15.5 490.5C15.5 490.224 15.2761 490 15 490L9 490C8.72386 490 8.5 490.224 8.5 490.5C8.5 490.776 8.72386 491 9 491L15 491C15.2761 491 15.5 490.776 15.5 490.5Z" fill="#333333"/>
<path d="M13.6 476.992C13.8209 476.992 14 477.216 14 477.492C14 477.768 13.8209 477.992 13.6 477.992L10.4 477.992C10.1791 477.992 10 477.768 10 477.492C10 477.216 10.1791 476.992 10.4 476.992L13.6 476.992Z" fill="#FF6F3D"/>
<path d="M13.6 473.992C13.8209 473.992 14 474.216 14 474.492C14 474.768 13.8209 474.992 13.6 474.992L10.4 474.992C10.1791 474.992 10 474.768 10 474.492C10 474.216 10.1791 473.992 10.4 473.992L13.6 473.992Z" fill="#FF6F3D"/>
<path fill-rule="evenodd" clip-rule="evenodd" d="M7.90909 472.992V478.992C7.90909 481.114 9.65718 482.992 12 482.992C14.3428 482.992 16.0909 481.114 16.0909 478.992V472.992C16.0909 470.87 14.3428 468.992 12 468.992C9.65718 468.992 7.90909 470.87 7.90909 472.992ZM7 472.992V478.992C7 481.753 9.23858 483.992 12 483.992C14.7614 483.992 17 481.753 17 478.992V472.992C17 470.231 14.7614 467.992 12 467.992C9.23858 467.992 7 470.231 7 472.992Z" fill="#333333"/>
<path fill-rule="evenodd" clip-rule="evenodd" d="M3.5 478.5C3.77614 478.5 4 478.724 4 479C4 483.418 7.58172 487 12 487C16.4183 487 20 483.418 20 479C20 478.724 20.2239 478.5 20.5 478.5C20.7761 478.5 21 478.724 21 479C21 483.971 16.9706 488 12 488C7.02944 488 3 483.971 3 479C3 478.724 3.22386 478.5 3.5 478.5Z" fill="#333333"/>
</g>
<path fill-rule="evenodd" clip-rule="evenodd" d="M5 495H19C20.1046 495 21 495.895 21 497V507C21 508.105 20.1046 509 19 509H5C3.89543 509 3 508.105 3 507V497C3 495.895 3.89543 495 5 495ZM5 496C4.44772 496 4 496.448 4 497V507C4 507.552 4.44772 508 5 508H19C19.5523 508 20 507.552 20 507V497C20 496.448 19.5523 496 19 496H5Z" fill="#333333"/>
<path fill-rule="evenodd" clip-rule="evenodd" d="M9.75685 510.049C10.0058 510.169 10.1106 510.468 9.99106 510.717L7.16716 516.766C7.0476 517.015 6.74889 517.12 6.49997 517C6.25105 516.88 6.14619 516.582 6.26576 516.333L9.08966 510.284C9.20922 510.035 9.50794 509.93 9.75685 510.049Z" fill="#333333"/>
<path fill-rule="evenodd" clip-rule="evenodd" d="M14.2836 510.049C14.0347 510.169 13.9298 510.468 14.0494 510.717L16.8328 516.766C16.9524 517.015 17.2511 517.12 17.5 517C17.7489 516.88 17.8537 516.582 17.7342 516.333L14.9508 510.284C14.8312 510.035 14.5325 509.93 14.2836 510.049Z" fill="#333333"/>
<path fill-rule="evenodd" clip-rule="evenodd" d="M6.5 500.5C6.5 500.224 6.72386 500 7 500H17C17.2761 500 17.5 500.224 17.5 500.5C17.5 500.776 17.2761 501 17 501H7C6.72386 501 6.5 500.776 6.5 500.5Z" fill="#FF6F3D"/>
<path fill-rule="evenodd" clip-rule="evenodd" d="M6.5 503.5C6.5 503.224 6.72386 503 7 503H14C14.2761 503 14.5 503.224 14.5 503.5C14.5 503.776 14.2761 504 14 504H7C6.72386 504 6.5 503.776 6.5 503.5Z" fill="#FF6F3D"/>
<path fill-rule="evenodd" clip-rule="evenodd" d="M6.0357 526H17.9643C19.015 526 19.8903 526.797 19.978 527.833L20.9928 539.833C21.0914 540.999 20.1616 542 18.9792 542H5.02084C3.83835 542 2.90855 540.999 3.00718 539.833L4.02204 527.833C4.10968 526.797 4.98504 526 6.0357 526ZM6.0357 527C5.51037 527 5.07269 527.398 5.02887 527.917L4.01401 539.917C3.96469 540.5 4.42959 541 5.02084 541H18.9792C19.5704 541 20.0353 540.5 19.986 539.917L18.9711 527.917C18.9273 527.398 18.4896 527 17.9643 527H6.0357Z" fill="#333333"/>
<path fill-rule="evenodd" clip-rule="evenodd" d="M9 529H8C8 531.39 9.45319 533 12 533C14.5609 533 16 531.168 16 529H15C15 530.832 13.8141 532 12 532C10.0063 532 9 530.842 9 529Z" fill="#FF6F3D"/>
<path fill-rule="evenodd" clip-rule="evenodd" d="M9 525H8C8 522.822 9.80585 521 12 521C14.3275 521 16 522.689 16 525H15C15 523.228 13.7887 522 12 522C10.3466 522 9 523.365 9 525Z" fill="#FF6F3D"/>
<path fill-rule="evenodd" clip-rule="evenodd" d="M15 555C15 556.657 13.6569 558 12 558C10.3431 558 9 556.657 9 555C9 553.343 10.3431 552 12 552C13.6569 552 15 553.343 15 555ZM12 557C13.1046 557 14 556.105 14 555C14 553.895 13.1046 553 12 553C10.8954 553 10 553.895 10 555C10 556.105 10.8954 557 12 557Z" fill="#FF6F3D"/>
<path fill-rule="evenodd" clip-rule="evenodd" d="M15.2145 564.238C17.1667 561.76 19 558.507 19 555.105C19 551.169 15.8537 548 12 548C8.14629 548 5 551.169 5 555.105C5 558.507 6.83326 561.76 8.78555 564.238C9.74995 565.462 10.7164 566.464 11.4417 567.158C11.6502 567.358 11.8383 567.532 12 567.678C12.1617 567.532 12.3498 567.358 12.5583 567.158C13.2836 566.464 14.2501 565.462 15.2145 564.238ZM12 569C12 569 20 562.583 20 555.105C20 550.629 16.4183 547 12 547C7.58172 547 4 550.629 4 555.105C4 562.583 12 569 12 569Z" fill="#333333"/>
<path d="M3.5 577C3.5 576.172 4.17157 575.5 5 575.5H19C19.8284 575.5 20.5 576.172 20.5 577V587.5H3.5V577Z" stroke="#333333"/>
<rect x="1.5" y="589.5" width="21" height="2" rx="1" stroke="#333333"/>
<path d="M14 581.5L10 584L10 579L14 581.5Z" fill="#FF6F3D"/>
<path fill-rule="evenodd" clip-rule="evenodd" d="M20.8032 604.576C21.0323 604.443 21.3253 604.522 21.4576 604.751C24.6327 610.25 22.7485 617.283 17.249 620.458C11.7496 623.633 4.71748 621.748 1.54237 616.249C-1.63273 610.75 0.251516 603.717 5.75096 600.542C8.30103 599.07 11.1818 598.686 13.8534 599.245C15.2194 599.531 16.5312 600.064 17.7171 600.825C18.4313 601.283 19.0998 601.824 19.7068 602.443C19.8921 602.632 19.8891 602.935 19.7001 603.12C19.5112 603.306 19.2079 603.303 19.0226 603.114C18.4666 602.547 17.8542 602.051 17.1998 601.631C16.1129 600.934 14.91 600.445 13.657 600.183C11.2072 599.67 8.56812 600.022 6.23005 601.372C1.18889 604.283 -0.538342 610.729 2.37217 615.77C5.28269 620.811 11.7288 622.538 16.77 619.628C21.8111 616.717 23.5383 610.271 20.6278 605.23C20.4955 605.001 20.574 604.708 20.8032 604.576Z" fill="#333333"/>
<path d="M11.4085 603C13.65 603.012 15.6478 604.746 15.9585 606.957C16.2143 608.775 15.2702 610.63 13.6195 611.524C13.2541 611.724 12.9617 611.959 12.8825 612.382C12.8521 612.545 12.8582 612.714 12.8216 612.871C12.6815 613.554 12.0237 614.055 11.3476 613.995C10.5801 613.929 9.9954 613.373 9.98931 612.642C9.97713 611.083 10.6776 609.911 12.0359 609.138C12.511 608.866 12.8947 608.546 13.047 608.008C13.2845 607.162 12.7851 606.256 11.9141 605.96C11.1222 605.682 10.2147 606.093 9.8614 606.885C9.75785 607.114 9.64212 607.356 9.47766 607.543C9.02084 608.05 8.3021 608.135 7.71128 607.797C7.13263 607.452 6.85245 606.776 7.07781 606.141C7.693 604.432 8.89902 603.393 10.708 603.072C10.9395 603.03 11.1771 603.024 11.4085 603ZM15.0509 607.537C15.0509 607.404 15.0631 607.265 15.0509 607.132C14.7707 604.939 12.5353 603.453 10.4096 604.069C9.21575 604.414 8.40565 605.193 7.97319 606.353C7.85746 606.661 7.98537 606.945 8.25338 607.042C8.53356 607.144 8.80766 607.011 8.93557 606.715C8.95384 606.667 8.97211 606.619 8.99039 606.57C9.51421 605.302 10.9578 604.643 12.2369 605.096C13.5891 605.574 14.3322 606.999 13.9058 608.328C13.6683 609.071 13.1505 609.567 12.4683 609.941C11.4451 610.509 10.9273 611.397 10.8969 612.563C10.8908 612.835 11.0918 613.047 11.3476 613.071C11.6461 613.095 11.8653 612.932 11.9141 612.642C11.9384 612.485 11.9384 612.328 11.9689 612.171C12.1151 611.5 12.5414 611.059 13.1383 610.727C14.4053 610.038 15.0205 608.951 15.0509 607.537Z" fill="#FF6F3D"/>
<circle cx="11.5" cy="616.5" r="1" stroke="#FF6F3D"/>
<path d="M3.75266 640.369C2.17587 637.61 1.4841 634.14 1.50028 629.232C3.73124 629.191 5.62613 628.862 7.3055 628.129C8.95613 627.409 10.3697 626.311 11.6809 624.764C13.1081 626.289 14.5104 627.386 16.0832 628.112C17.6788 628.848 19.4185 629.187 21.4871 629.232C21.6053 633.934 20.915 637.48 19.3487 640.332C17.7671 643.212 15.2623 645.438 11.6634 647.428C7.87932 645.284 5.34628 643.158 3.75266 640.369Z" stroke="#333333" stroke-linecap="round" stroke-linejoin="round"/>
<path fill-rule="evenodd" clip-rule="evenodd" d="M14.762 633.159C15.0413 633.403 15.0804 633.839 14.8494 634.134L13.0397 636.441L11.2301 638.749C11.1102 638.902 10.934 638.993 10.7461 639C10.5583 639.006 10.3767 638.927 10.2476 638.783L8.17939 636.476C7.93039 636.198 7.94204 635.76 8.2054 635.497C8.46876 635.234 8.88411 635.247 9.13311 635.524L10.6916 637.263L13.8381 633.251C14.0691 632.956 14.4828 632.915 14.762 633.159Z" fill="#FF6F3D"/>
<g clip-path="url(#clip15_33_28028)">
<path d="M2.5 665.5V670.5C2.5 671.052 2.94771 671.5 3.5 671.5H20.5C21.0523 671.5 21.5 671.052 21.5 670.5V665.5" stroke="#333333" stroke-linecap="round" stroke-linejoin="round"/>
<path d="M7.5 663.492H2.5C1.94772 663.492 1.5 663.044 1.5 662.492V656.492C1.5 655.94 1.94772 655.492 2.5 655.492L21.5 655.492C22.0523 655.492 22.5 655.94 22.5 656.492V662.492C22.5 663.044 22.0523 663.492 21.5 663.492H17.5" stroke="#333333" stroke-linecap="round"/>
<path d="M9.5 662C9.5 661.724 9.72386 661.5 10 661.5H15C15.2761 661.5 15.5 661.724 15.5 662V665C15.5 665.276 15.2761 665.5 15 665.5H10C9.72386 665.5 9.5 665.276 9.5 665V662Z" stroke="#FF6F3D"/>
<path d="M16.5 653.992V652.492C16.5 651.94 16.0523 651.492 15.5 651.492H9.5C8.94772 651.492 8.5 651.94 8.5 652.492V653.992" stroke="#333333"/>
</g>
<g clip-path="url(#clip16_33_28028)">
<path d="M8.29897 684.022C6.71054 683.679 5.70651 682.088 6.05639 680.468C6.40627 678.849 7.97758 677.814 9.56601 678.157C10.3488 678.326 10.9897 678.799 11.3965 679.428" stroke="#FF6F3D" stroke-linecap="round"/>
<path d="M8.9763 686.441C4.51852 686.441 1 689.225 1 691.265C1 692.378 2.61749 693.04 4.5 693.412" stroke="#FF6F3D" stroke-linecap="round"/>
<circle cx="14.9167" cy="684.691" r="3.19444" stroke="#333333"/>
<path d="M22.3333 694.078C22.3333 694.341 22.167 694.636 21.6882 694.95C21.2156 695.261 20.5314 695.524 19.7298 695.735C18.1329 696.155 16.2127 696.329 14.9763 696.329C13.73 696.329 11.7762 696.2 10.1482 695.825C9.33023 695.637 8.63203 695.395 8.15013 695.1C7.66157 694.801 7.5 694.519 7.5 694.265C7.5 693.896 7.66222 693.441 8.02344 692.945C8.38141 692.454 8.91355 691.954 9.59248 691.505C10.9502 690.606 12.8488 689.941 14.9763 689.941C17.1109 689.941 18.9811 690.563 20.3062 691.415C21.6645 692.287 22.3333 693.315 22.3333 694.078Z" stroke="#333333"/>
</g>
<g clip-path="url(#clip17_33_28028)">
<path d="M21 708.5C21.2761 708.5 21.5 708.724 21.5 709V719C21.5 719.276 21.2761 719.5 21 719.5H3C2.72386 719.5 2.5 719.276 2.5 719L2.5 709C2.5 708.724 2.72386 708.5 3 708.5H7.47405H21Z" stroke="#333333"/>
<path fill-rule="evenodd" clip-rule="evenodd" d="M5.42857 717C5.19188 717 5 716.808 5 716.571V711.429C5 711.192 5.19188 711 5.42857 711C5.66526 711 5.85714 711.192 5.85714 711.429V716.571C5.85714 716.808 5.66526 717 5.42857 717Z" fill="#FF6F3D"/>
</g>
<g clip-path="url(#clip18_33_28028)">
<path d="M8.5 737.5V731.5C8.5 730.948 8.94772 730.5 9.5 730.5H17.0858C17.351 730.5 17.6054 730.605 17.7929 730.793L22.2071 735.207C22.3946 735.395 22.5 735.649 22.5 735.914V748.5C22.5 749.052 22.0523 749.5 21.5 749.5H9.5" stroke="#333333" stroke-linecap="round"/>
<path d="M4.5 747.5V731.5C4.5 730.948 4.94772 730.5 5.5 730.5H5.75H6.5348" stroke="#333333" stroke-linecap="round"/>
<path d="M0.5 739.423V731.5C0.5 730.948 0.947715 730.5 1.5 730.5H1.75H2.5348" stroke="#333333" stroke-linecap="round"/>
<path d="M4.51987 746.93V748.512C4.51987 749.064 4.96759 749.512 5.51988 749.512L6.51333 749.512" stroke="#333333" stroke-linecap="round"/>
<path d="M2.57256 749.5H1.5C0.947715 749.5 0.5 749.052 0.5 748.5V731.5C0.5 730.948 0.947715 730.5 1.5 730.5H2.51636" stroke="#333333" stroke-linecap="round"/>
<path fill-rule="evenodd" clip-rule="evenodd" d="M16.5 732C16.7761 732 17 732.224 17 732.5V736H20.5C20.7761 736 21 736.224 21 736.5C21 736.776 20.7761 737 20.5 737H16.5C16.2239 737 16 736.776 16 736.5V732.5C16 732.224 16.2239 732 16.5 732Z" fill="#333333"/>
<path d="M17.4995 740.506V740.5H20.4991L20.4995 740.5L20.4991 740.501L17.9987 740.505L17.4995 740.506ZM8 743.498H7.5L7.5 743.998V740.5L9.00101 740.5C9.82888 740.5 10.5 741.171 10.5 741.999C10.5 742.827 9.82888 743.498 9.001 743.498H8ZM19.5002 743.502C19.5001 743.502 19.5 743.502 19.4999 743.501C19.4997 743.501 19.4996 743.501 19.4996 743.5C19.4996 743.5 19.4997 743.5 19.4999 743.499C19.5 743.499 19.5001 743.499 19.5002 743.499C19.5003 743.499 19.5003 743.499 19.5002 743.499C19.5 743.499 19.5001 743.499 19.5008 743.498C19.5012 743.498 19.5016 743.498 19.5018 743.498L19.5002 743.502ZM12.4995 746.5V740.5H13.9995C14.8279 740.5 15.4995 741.172 15.4995 742V745C15.4995 745.828 14.8279 746.5 13.9995 746.5H12.4995Z" stroke="#B60000"/>
</g>
<g clip-path="url(#clip19_33_28028)">
<path fill-rule="evenodd" clip-rule="evenodd" d="M3 756.992L17 757C18.1046 757 19 757.887 19 758.992V769C19 770.105 18.1046 770.992 17 770.992H3C1.89543 770.992 1 770.097 1 768.992V758.992C1 757.887 1.89543 756.992 3 756.992ZM3 757.992C2.44772 757.992 2 758.44 2 758.992V768.992C2 769.544 2.44772 769.992 3 769.992H17C17.5523 769.992 18 769.552 18 769V758.992C18 758.44 17.5523 757.992 17 757.992H3Z" fill="#333333"/>
<path d="M20 761.5C20.1537 761.5 20.3192 761.5 20.4893 761.5C21.598 761.497 22.5 762.394 22.5 763.503V772.492C22.5 773.597 21.6046 774.492 20.5 774.492H7.5C6.39543 774.492 5.5 773.597 5.5 772.492V771.992M17 761.5L7.5 761.492C6.39543 761.492 5.5 762.387 5.5 763.492V768.992" stroke="#333333"/>
</g>
<g clip-path="url(#clip20_33_28028)">
<path d="M8.5 785.5V783.5C8.5 782.948 8.94772 782.5 9.5 782.5H17.0858C17.351 782.5 17.6054 782.605 17.7929 782.793L22.2071 787.207C22.3946 787.395 22.5 787.649 22.5 787.914V800.5C22.5 801.052 22.0523 801.5 21.5 801.5H19.5" stroke="#333333" stroke-linecap="round"/>
<path d="M4.5 786.5V783.5C4.5 782.948 4.94772 782.5 5.5 782.5H7" stroke="#333333" stroke-linecap="round"/>
<path d="M0.5 790.5V783.5C0.5 782.948 0.947715 782.5 1.5 782.5H3" stroke="#333333" stroke-linecap="round"/>
<path fill-rule="evenodd" clip-rule="evenodd" d="M16.5 784C16.7761 784 17 784.224 17 784.5V788H20.5C20.7761 788 21 788.224 21 788.5C21 788.776 20.7761 789 20.5 789H16.5C16.2239 789 16 788.776 16 788.5V784.5C16 784.224 16.2239 784 16.5 784Z" fill="#333333"/>
<path d="M4.5 791C4.5 790.724 4.72386 790.5 5 790.5H12C12.2761 790.5 12.5 790.724 12.5 791V802.495H5C4.72386 802.495 4.5 802.271 4.5 801.995V791Z" stroke="#FF6F3D"/>
<path d="M0.5 795C0.5 794.724 0.723858 794.5 1 794.5H4C4.27614 794.5 4.5 794.724 4.5 795V802.5H0.5V795Z" stroke="#FF6F3D"/>
<path d="M12.5 795C12.5 794.724 12.7239 794.5 13 794.5H16C16.2761 794.5 16.5 794.724 16.5 795V802.5H12.5V795Z" stroke="#FF6F3D"/>
<path d="M7.47266 800.525L7.47266 793.525" stroke="#FF6F3D" stroke-linecap="round"/>
<path d="M2.47266 800.525L2.47266 796.525" stroke="#FF6F3D" stroke-linecap="round"/>
<path d="M14.4727 800.525L14.4727 796.525" stroke="#FF6F3D" stroke-linecap="round"/>
<path d="M9.49744 800.496L9.49707 793.496" stroke="#FF6F3D" stroke-linecap="round"/>
<path d="M8.49744 790.496L8.49707 788.496" stroke="#FF6F3D" stroke-linecap="round"/>
</g>
<g clip-path="url(#clip21_33_28028)">
<path d="M8.5 817.5V809.5C8.5 808.948 8.94772 808.5 9.5 808.5H17.0858C17.351 808.5 17.6054 808.605 17.7929 808.793L22.2071 813.207C22.3946 813.395 22.5 813.649 22.5 813.914V826.5C22.5 827.052 22.0523 827.5 21.5 827.5H16.5" stroke="#333333" stroke-linecap="round"/>
<path d="M4.5 817.5V809.5C4.5 808.948 4.94772 808.5 5.5 808.5H7" stroke="#333333" stroke-linecap="round"/>
<path d="M0.5 819.5V809.5C0.5 808.948 0.947715 808.5 1.5 808.5H3" stroke="#333333" stroke-linecap="round"/>
<path fill-rule="evenodd" clip-rule="evenodd" d="M16.5 810C16.7761 810 17 810.224 17 810.5V814H20.5C20.7761 814 21 814.224 21 814.5C21 814.776 20.7761 815 20.5 815H16.5C16.2239 815 16 814.776 16 814.5V810.5C16 810.224 16.2239 810 16.5 810Z" fill="#333333"/>
<path d="M9.5 820.5L6.5 827.5" stroke="#FF6F3D" stroke-linecap="round"/>
<path d="M11.5 827.5L15.5 824L11.5 820.5" stroke="#FF6F3D" stroke-linecap="round"/>
<path d="M4.5 827.5L0.5 824L4.5 820.5" stroke="#FF6F3D" stroke-linecap="round"/>
</g>
<g clip-path="url(#clip22_33_28028)">
<path d="M22.5 853C22.5 853.276 22.2761 853.5 22 853.5H9C8.72386 853.5 8.5 853.276 8.5 853V835C8.5 834.724 8.72386 834.5 9 834.5H17.0872C17.2194 834.5 17.3462 834.552 17.4399 834.646L22.3527 839.535C22.447 839.629 22.5 839.757 22.5 839.89V853Z" stroke="#333333"/>
<path d="M7 834.5H5.5C4.94772 834.5 4.5 834.948 4.5 835.5V852.5C4.5 853.052 4.94772 853.5 5.5 853.5H7" stroke="#FF6F3D" stroke-linecap="round"/>
<path d="M3 834.5H1.5C0.947715 834.5 0.5 834.948 0.5 835.5V852.5C0.5 853.052 0.947715 853.5 1.5 853.5H3" stroke="#FF6F3D" stroke-linecap="round"/>
<path fill-rule="evenodd" clip-rule="evenodd" d="M16.5 836C16.7761 836 17 836.224 17 836.5V840H20.5C20.7761 840 21 840.224 21 840.5C21 840.776 20.7761 841 20.5 841H16.5C16.2239 841 16 840.776 16 840.5V836.5C16 836.224 16.2239 836 16.5 836Z" fill="#333333"/>
<path fill-rule="evenodd" clip-rule="evenodd" d="M16 843.5C16 843.224 15.7761 843 15.5 843C15.2239 843 15 843.224 15 843.5V846.068H12.5C12.2239 846.068 12 846.292 12 846.568C12 846.845 12.2239 847.068 12.5 847.068H15V849.545C15 849.821 15.2239 850.045 15.5 850.045C15.7761 850.045 16 849.821 16 849.545V847.068H18.5C18.7761 847.068 19 846.845 19 846.568C19 846.292 18.7761 846.068 18.5 846.068H16V843.5Z" fill="#FF6F3D"/>
</g>
<g clip-path="url(#clip23_33_28028)">
<path d="M20 860.5H4C2.61929 860.5 1.5 861.619 1.5 863V873C1.5 874.381 2.61929 875.5 4 875.5H9.81898L14.0397 879.017C15.0167 879.831 16.5 879.137 16.5 877.865V875.5H20C21.3807 875.5 22.5 874.381 22.5 873V863C22.5 861.619 21.3807 860.5 20 860.5Z" stroke="#333333"/>
<path fill-rule="evenodd" clip-rule="evenodd" d="M6.5 866.5C6.5 866.224 6.72386 866 7 866H17C17.2761 866 17.5 866.224 17.5 866.5C17.5 866.776 17.2761 867 17 867H7C6.72386 867 6.5 866.776 6.5 866.5Z" fill="#FF6F3D"/>
<path fill-rule="evenodd" clip-rule="evenodd" d="M6.5 869.5C6.5 869.224 6.72386 869 7 869H14C14.2761 869 14.5 869.224 14.5 869.5C14.5 869.776 14.2761 870 14 870H7C6.72386 870 6.5 869.776 6.5 869.5Z" fill="#FF6F3D"/>
</g>
<g clip-path="url(#clip24_33_28028)">
<path d="M8.5 893.5V887.5C8.5 886.948 8.94772 886.5 9.5 886.5H17.0858C17.351 886.5 17.6054 886.605 17.7929 886.793L22.2071 891.207C22.3946 891.395 22.5 891.649 22.5 891.914V904.5C22.5 905.052 22.0523 905.5 21.5 905.5H19.5" stroke="#333333" stroke-linecap="round"/>
<path d="M4.5 893.5V887.5C4.5 886.948 4.94772 886.5 5.5 886.5H7" stroke="#333333" stroke-linecap="round"/>
<path d="M0.5 893.5V887.5C0.5 886.948 0.947715 886.5 1.5 886.5H3" stroke="#333333" stroke-linecap="round"/>
<path fill-rule="evenodd" clip-rule="evenodd" d="M16.5 888C16.7761 888 17 888.224 17 888.5V892H20.5C20.7761 892 21 892.224 21 892.5C21 892.776 20.7761 893 20.5 893H16.5C16.2239 893 16 892.776 16 892.5V888.5C16 888.224 16.2239 888 16.5 888Z" fill="#333333"/>
<path fill-rule="evenodd" clip-rule="evenodd" d="M14.0004 904.5C14.0004 904.776 13.7766 905 13.5004 905C13.2243 905 13.0004 904.776 13.0004 904.5V898.5C13.0004 898.224 13.2243 898 13.5004 898C13.7766 898 14.0004 898.224 14.0004 898.5V899V899.005V901V901.011V901.998L14.0004 904.5ZM2.99219 904.638C2.91369 904.903 2.63543 905.054 2.37069 904.975C2.10594 904.897 1.95496 904.619 2.03345 904.354L3.74797 898.571C3.83975 898.262 4.11098 898.047 4.42236 898.02L4.42259 898.02C4.78906 897.984 5.12941 898.213 5.23408 898.566L6.95298 904.363C7.03148 904.628 6.8805 904.906 6.61575 904.985C6.351 905.063 6.07274 904.912 5.99425 904.647L5.49483 902.963L4.64173 902.963L4.22025 902.963L4.21569 902.963H3.48883L2.99219 904.638ZM3.78188 901.975L4.49183 899.58L5.19833 901.963H3.93501C3.88294 901.963 3.8318 901.967 3.78188 901.975ZM8.50043 905C8.77657 905 9.00043 904.776 9.00043 904.5L9.00044 901.998H11.0024C11.5536 901.998 12.0004 901.551 12.0004 901V899C12.0004 898.448 11.5527 898 11.0004 898H8.00044V904.5C8.00044 904.776 8.22429 905 8.50043 905ZM11.0004 899V901.005L9.00044 901.011V899H11.0004Z" fill="#FF6F3D"/>
<path fill-rule="evenodd" clip-rule="evenodd" d="M16.9898 896.399C16.9432 896.171 16.7416 896 16.5 896C16.4991 896 16.4982 896 16.4973 896L11.6854 896H10.6363H10.625H1.06793H1.0625H0.5C0.223858 896 0 896.224 0 896.5L6.93397e-06 906.497L0 906.5C0 906.627 0.0472049 906.743 0.125001 906.831C0.216619 906.935 0.350664 907 0.5 907H16.5C16.5173 907 16.5343 906.999 16.5511 906.997C16.8033 906.972 17 906.759 17 906.5V906.488V906.477V897.053V897.048V896.5C17 896.498 17 896.496 17 896.494C16.9996 896.461 16.9961 896.43 16.9898 896.399ZM16 897H1V897.048V897.053V906H1.0625H1.06793H10.625H10.6363H11.6854L16 906L16 897Z" fill="#FF6F3D"/>
</g>
<g clip-path="url(#clip25_33_28028)">
<path d="M8.5 915.498V913.5C8.5 912.948 8.94772 912.5 9.5 912.5H17.0858C17.351 912.5 17.6054 912.605 17.7929 912.793L22.2071 917.207C22.3946 917.395 22.5 917.649 22.5 917.914V930.5C22.5 931.052 22.0523 931.5 21.5 931.5H9.5C8.94772 931.5 8.5 931.052 8.5 930.5V930" stroke="#333333" stroke-linecap="round"/>
<path fill-rule="evenodd" clip-rule="evenodd" d="M16.5 914C16.7761 914 17 914.224 17 914.5V918H20.5C20.7761 918 21 918.224 21 918.5C21 918.776 20.7761 919 20.5 919H16.5C16.2239 919 16 918.776 16 918.5V914.5C16 914.224 16.2239 914 16.5 914Z" fill="#333333"/>
<path fill-rule="evenodd" clip-rule="evenodd" d="M4.99997 923C4.99997 925.209 6.79083 927 8.99997 927C11.2091 927 13 925.209 13 923C13 920.791 11.2091 919 8.99997 919C6.79083 919 4.99997 920.791 4.99997 923ZM3.99997 923C3.99997 925.761 6.23855 928 8.99997 928C11.7614 928 14 925.761 14 923C14 920.239 11.7614 918 8.99997 918C6.23855 918 3.99997 920.239 3.99997 923ZM4.84083 928.838C5.03523 928.642 5.03384 928.326 4.83773 928.131C4.64161 927.937 4.32503 927.938 4.13063 928.134L1.1405 931.151C0.946096 931.347 0.947484 931.664 1.1436 931.858C1.33972 932.052 1.6563 932.051 1.8507 931.855L4.84083 928.838Z" fill="#FF6F3D"/>
<path d="M7 912.5H5.5C4.94772 912.5 4.5 912.948 4.5 913.5V917.475" stroke="#333333" stroke-linecap="round"/>
<path d="M0.5 928.086V922V913.5C0.5 912.948 0.947715 912.5 1.5 912.5H3" stroke="#333333" stroke-linecap="round"/>
<path d="M16 924.567H18.534" stroke="#333333" stroke-linecap="round"/>
<path d="M14 927.5H18.5353" stroke="#333333" stroke-linecap="round"/>
<path d="M15.9374 921.5H18.5339" stroke="#333333" stroke-linecap="round"/>
</g>
<g clip-path="url(#clip26_33_28028)">
<path fill-rule="evenodd" clip-rule="evenodd" d="M4.22183 956.485C4.02656 956.681 3.70998 956.681 3.51472 956.485C-1.17157 951.799 -1.17157 944.201 3.51472 939.515C8.20101 934.828 15.799 934.828 20.4853 939.515C25.1716 944.201 25.1716 951.799 20.4853 956.485C18.3123 958.658 15.512 959.824 12.6676 959.982C11.2133 960.062 9.74695 959.879 8.34597 959.433C7.50226 959.164 6.6823 958.799 5.90312 958.339C5.66535 958.199 5.58644 957.892 5.72687 957.654C5.8673 957.416 6.17389 957.338 6.41166 957.478C7.12537 957.899 7.87652 958.233 8.64966 958.48C9.93364 958.889 11.2783 959.057 12.6123 958.983C15.2205 958.839 17.7858 957.771 19.7782 955.778C24.0739 951.482 24.0739 944.518 19.7782 940.222C15.4824 935.926 8.51759 935.926 4.22182 940.222C-0.0739422 944.518 -0.0739412 951.482 4.22183 955.778C4.41709 955.973 4.41709 956.29 4.22183 956.485Z" fill="#333333"/>
<path d="M14.4209 954.14C14.4168 953.533 14.4112 952.708 14.4209 952.101C14.4311 951.402 14.2357 950.523 13.9946 950.125C14.3039 950.069 14.4796 950.041 14.7487 949.978C16.5316 949.56 17.4576 948.411 17.5758 946.504C17.6363 945.533 17.4669 944.643 16.8353 943.878C16.7896 943.825 16.7873 943.703 16.809 943.624C16.9771 942.992 16.9281 942.375 16.7324 941.757C16.6839 941.603 16.6036 941.555 16.4545 941.565C15.931 941.595 15.4513 941.782 15.0285 942.071C14.6208 942.351 14.2413 942.412 13.7571 942.298C12.6907 942.053 11.6173 942.124 10.5533 942.376C10.4328 942.406 10.2707 942.366 10.1604 942.3C9.66089 942.001 9.16139 941.711 8.58526 941.595C8.13977 941.506 8.10099 941.529 7.98281 941.969C7.83416 942.523 7.81939 943.079 7.97127 943.636C7.99296 943.718 7.97034 943.848 7.91725 943.908C6.73683 945.253 7.16431 947.796 7.95973 948.77C8.67846 949.649 9.71651 949.935 10.7892 950.125C10.7307 950.393 10.5744 951.173 10.2066 951.316C9.31189 951.67 8.54278 951.41 8.03082 950.58C7.75706 950.138 7.40575 949.807 6.88224 949.711C6.86563 949.708 6.84854 949.699 6.83331 949.701C6.69251 949.739 6.55309 949.779 6.41275 949.817C6.49169 949.93 6.54755 950.08 6.65327 950.148C7.09691 950.435 7.38544 950.844 7.5761 951.326C7.87571 952.083 8.45738 952.42 9.2131 952.486C9.58195 952.517 9.9545 952.491 10.3584 952.491C10.3584 952.96 10.3358 953.606 10.3123 954.14C11.3858 954.454 12.3104 954.447 12.3104 954.447C12.651 954.447 13.911 954.416 14.4209 954.14Z" fill="#FF6F3D"/>
</g>
<g clip-path="url(#clip27_33_28028)">
<path d="M9.5 970.5V965.5C9.5 964.948 9.94772 964.5 10.5 964.5H18.0858C18.351 964.5 18.6054 964.605 18.7929 964.793L23.2071 969.207C23.3946 969.395 23.5 969.649 23.5 969.914V982.5C23.5 983.052 23.0523 983.5 22.5 983.5H19.5" stroke="#333333" stroke-linecap="round"/>
<path d="M6.63335 976.896C5.51622 976.655 4.81009 975.536 5.05616 974.397C5.30223 973.258 6.40732 972.53 7.52445 972.772C8.07499 972.891 8.52572 973.223 8.81184 973.665" stroke="#FF6F3D" stroke-linecap="round"/>
<path d="M7.1097 978.597C3.97456 978.597 1.5 980.556 1.5 981.991C1.5 982.773 2.63757 983.239 3.96153 983.5" stroke="#FF6F3D" stroke-linecap="round"/>
<circle cx="11.3686" cy="977.329" r="2.09829" stroke="#333333"/>
<path d="M16.4364 983.931C16.4364 984.043 16.3686 984.211 16.0495 984.42C15.7367 984.626 15.2733 984.806 14.7159 984.953C13.6077 985.244 12.2702 985.366 11.4105 985.366C10.5409 985.366 9.17875 985.275 8.04823 985.015C7.47901 984.884 7.00601 984.718 6.68713 984.523C6.36158 984.324 6.30084 984.165 6.30084 984.063C6.30084 983.844 6.39781 983.555 6.6405 983.222C6.87993 982.893 7.24025 982.553 7.70601 982.245C8.63746 981.628 9.9444 981.169 11.4105 981.169C12.8838 981.169 14.1712 981.599 15.0788 982.182C16.0197 982.787 16.4364 983.471 16.4364 983.931Z" stroke="#333333"/>
<path d="M5.5 969.977V965.5C5.5 964.948 5.94772 964.5 6.5 964.5H8" stroke="#333333" stroke-linecap="round"/>
<path d="M1.5 973.5V965.5C1.5 964.948 1.94772 964.5 2.5 964.5H4" stroke="#333333" stroke-linecap="round"/>
<path fill-rule="evenodd" clip-rule="evenodd" d="M17.5 966C17.7761 966 18 966.224 18 966.5V970H21.5C21.7761 970 22 970.224 22 970.5C22 970.776 21.7761 971 21.5 971H17.5C17.2239 971 17 970.776 17 970.5V966.5C17 966.224 17.2239 966 17.5 966Z" fill="#333333"/>
</g>
<rect x="5" y="1008" width="14" height="1" rx="0.5" fill="#333333"/>
<rect x="5" y="991" width="14" height="1" rx="0.5" fill="#333333"/>
<rect x="1.5" y="993.492" width="21" height="13" rx="1.5" stroke="#FF6F3D"/>
<path d="M14.9035 999.143C15.5509 999.531 15.5509 1000.47 14.9035 1000.86L11.1805 1003.09C10.514 1003.49 9.66602 1003.01 9.66602 1002.23L9.66602 997.766C9.66602 996.989 10.514 996.509 11.1805 996.909L14.9035 999.143Z" fill="#FF6F3D"/>
<path d="M9 1019.5H5.5C4.39543 1019.5 3.5 1020.4 3.5 1021.5V1031.5H21.5V1021.5C21.5 1020.4 20.6046 1019.5 19.5 1019.5H16" stroke="#333333"/>
<path d="M1.5 1034.5C1.5 1033.95 1.94772 1033.5 2.5 1033.5H22.5C23.0523 1033.5 23.5 1033.95 23.5 1034.5C23.5 1035.05 23.0523 1035.5 22.5 1035.5H2.5C1.94772 1035.5 1.5 1035.05 1.5 1034.5Z" stroke="#333333"/>
<path fill-rule="evenodd" clip-rule="evenodd" d="M17.8516 1022.86L12.8535 1027.86C12.6583 1028.05 12.3417 1028.05 12.1464 1027.86L7.15234 1022.84C6.95707 1022.65 6.95707 1022.33 7.15234 1022.14C7.3476 1021.94 7.66418 1021.94 7.85944 1022.14L12 1026.3L12 1015.5C12 1015.22 12.2238 1015 12.5 1015C12.7761 1015 13 1015.22 13 1015.5L13 1026.3L17.1445 1022.15C17.3397 1021.95 17.6563 1021.95 17.8516 1022.15C18.0468 1022.34 18.0468 1022.66 17.8516 1022.86Z" fill="#FF6F3D"/>
<g clip-path="url(#clip28_33_28028)">
<path d="M22.5 1061C22.5 1061.28 22.2761 1061.5 22 1061.5H9C8.72386 1061.5 8.5 1061.28 8.5 1061V1043C8.5 1042.72 8.72386 1042.5 9 1042.5H17.0872C17.2194 1042.5 17.3462 1042.55 17.4399 1042.65L22.3527 1047.54C22.447 1047.63 22.5 1047.76 22.5 1047.89V1061Z" stroke="#333333"/>
<path d="M7 1042.5H5.5C4.94772 1042.5 4.5 1042.95 4.5 1043.5V1060.5C4.5 1061.05 4.94772 1061.5 5.5 1061.5H7" stroke="#FF6F3D" stroke-linecap="round"/>
<path d="M3 1042.5H1.5C0.947715 1042.5 0.5 1042.95 0.5 1043.5V1060.5C0.5 1061.05 0.947715 1061.5 1.5 1061.5H3" stroke="#FF6F3D" stroke-linecap="round"/>
<path fill-rule="evenodd" clip-rule="evenodd" d="M16.5 1044C16.7761 1044 17 1044.22 17 1044.5V1048H20.5C20.7761 1048 21 1048.22 21 1048.5C21 1048.78 20.7761 1049 20.5 1049H16.5C16.2239 1049 16 1048.78 16 1048.5V1044.5C16 1044.22 16.2239 1044 16.5 1044Z" fill="#FF6F3D"/>
<line x1="11.5" y1="1051.5" x2="19.5" y2="1051.5" stroke="#444444" stroke-linecap="round"/>
<line x1="11.5" y1="1054.5" x2="19.5" y2="1054.5" stroke="#444444" stroke-linecap="round"/>
<line x1="11.5" y1="1057.5" x2="19.5" y2="1057.5" stroke="#444444" stroke-linecap="round"/>
<path d="M11.5 1057.5L11.5 1051.69" stroke="#444444" stroke-linecap="round"/>
<path d="M15.5 1057.5L15.5 1051.69" stroke="#444444" stroke-linecap="round"/>
<path d="M19.5 1057.5L19.5 1051.69" stroke="#444444" stroke-linecap="round"/>
</g>
<g clip-path="url(#clip29_33_28028)">
<path d="M8.5 1074.5V1069.5C8.5 1068.95 8.94772 1068.5 9.5 1068.5H17.0858C17.351 1068.5 17.6054 1068.61 17.7929 1068.79L22.2071 1073.21C22.3946 1073.39 22.5 1073.65 22.5 1073.91V1086.5C22.5 1087.05 22.0523 1087.5 21.5 1087.5H19.5" stroke="#333333" stroke-linecap="round"/>
<path d="M4.5 1076.5V1069.5C4.5 1068.95 4.94772 1068.5 5.5 1068.5H7" stroke="#333333" stroke-linecap="round"/>
<path d="M0.5 1079.5V1069.5C0.5 1068.95 0.947715 1068.5 1.5 1068.5H3" stroke="#333333" stroke-linecap="round"/>
<path fill-rule="evenodd" clip-rule="evenodd" d="M16.5 1070C16.7761 1070 17 1070.22 17 1070.5V1074H20.5C20.7761 1074 21 1074.22 21 1074.5C21 1074.78 20.7761 1075 20.5 1075H16.5C16.2239 1075 16 1074.78 16 1074.5V1070.5C16 1070.22 16.2239 1070 16.5 1070Z" fill="#333333"/>
<path d="M9.18175 1077.5C6.83514 1077.5 4.89549 1079.27 4.62347 1081.51C4.4366 1081.5 4.25165 1081.5 4.08983 1081.5C4.08257 1081.5 4.07535 1081.5 4.06818 1081.5C2.10818 1081.5 0.5 1083.06 0.5 1085C0.5 1086.94 2.10818 1088.5 4.06817 1088.5L13.784 1088.5C16.0264 1088.5 17.8636 1086.72 17.8636 1084.5C17.8636 1082.28 16.0264 1080.5 13.784 1080.5C13.6932 1080.5 13.6032 1080.5 13.5141 1080.51C12.8844 1078.75 11.178 1077.5 9.18175 1077.5Z" stroke="#FF6F3D"/>
</g>
<g clip-path="url(#clip30_33_28028)">
<path d="M3.36958 1111.58C-0.691999 1107.46 -0.609006 1100.4 3.88043 1095.91C7.33922 1092.45 13.2068 1091.38 17.5089 1093.92M6.41585 1114.02C10.7006 1116.52 16.4951 1115.81 20.1381 1112.17C24.4821 1107.82 24.6229 1100.87 20.5605 1096.36" stroke="#333333" stroke-linecap="round"/>
<path fill-rule="evenodd" clip-rule="evenodd" d="M17.512 1108C17.7882 1108 18.0117 1107.78 18.0113 1107.5L18.0069 1104.57L18.0052 1103.44L18.0051 1103.43L18.0017 1101.15L18.0017 1101.14L18.0007 1100.5C18.0003 1100.22 17.7761 1100 17.5 1100C17.2238 1100 17.0003 1100.22 17.0007 1100.5L17.0113 1107.5C17.0117 1107.78 17.2359 1108 17.512 1108ZM4.86605 1107.93C5.1308 1108.01 5.40905 1107.86 5.48755 1107.59L5.9707 1105.96H6.72747H6.73356L7.29633 1105.96L8.56976 1105.96L9.05659 1107.6C9.13509 1107.87 9.41335 1108.02 9.6781 1107.94C9.94284 1107.86 10.0938 1107.59 10.0153 1107.32L8.01812 1100.58C7.92762 1100.28 7.66595 1100.06 7.35984 1100.02L7.35656 1100.02C7.33692 1100.02 7.31736 1100.02 7.2979 1100.02C7.26593 1100.02 7.23359 1100.02 7.201 1100.02L7.19594 1100.02C6.88306 1100.06 6.61356 1100.28 6.52118 1100.59L4.52882 1107.31C4.45032 1107.57 4.6013 1107.85 4.86605 1107.93ZM7.27023 1101.58L6.26721 1104.96H8.27326L7.27023 1101.58Z" fill="#FF6F3D"/>
<path d="M12.2596 1104.5H11.7596L11.7596 1105V1100.5L13.4776 1100.5C14.5764 1100.5 15.4999 1101.28 15.4999 1102.5C15.4999 1103.72 14.5627 1104.5 13.4776 1104.5H12.2596Z" stroke="#FF6F3D"/>
<path d="M3.93395 1109.75L1.61849 1112.05L4.76784 1112.9L3.93395 1109.75Z" fill="#333333"/>
<path d="M19.3714 1095.24L22.5051 1096.15L20.1492 1098.4L19.3714 1095.24Z" fill="#333333"/>
</g>
<g clip-path="url(#clip31_33_28028)">
<path d="M1.14286 1123.5H22.8571C23.2046 1123.5 23.5 1123.79 23.5 1124.16V1139.84C23.5 1140.21 23.2046 1140.5 22.8571 1140.5H1.14286C0.795402 1140.5 0.5 1140.21 0.5 1139.84V1124.16C0.5 1123.79 0.795403 1123.5 1.14286 1123.5Z" stroke="#333333"/>
<path d="M23.1281 1123.55L18 1119.5H6L0.81665 1123.57" stroke="#333333" stroke-linecap="round" stroke-linejoin="round"/>
<path d="M9.5 1123.5H14.5V1140.5H9.5V1123.5Z" stroke="#FF6F3D"/>
<path d="M9.45294 1123.19L11.0017 1119.5H13.0001L14.5324 1123.19" stroke="#FF6F3D" stroke-linejoin="round"/>
</g>
<g clip-path="url(#clip32_33_28028)">
<path d="M9.5 1152.5V1147.5C9.5 1146.95 9.94772 1146.5 10.5 1146.5H18.0858C18.351 1146.5 18.6054 1146.61 18.7929 1146.79L23.2071 1151.21C23.3946 1151.39 23.5 1151.65 23.5 1151.91V1164.5C23.5 1165.05 23.0523 1165.5 22.5 1165.5H19.5" stroke="#333333" stroke-linecap="round"/>
<path d="M6.63335 1158.9C5.51622 1158.65 4.81009 1157.54 5.05616 1156.4C5.30223 1155.26 6.40732 1154.53 7.52445 1154.77C8.07499 1154.89 8.52572 1155.22 8.81184 1155.67" stroke="#FF6F3D" stroke-linecap="round"/>
<path d="M7.1097 1160.6C3.97456 1160.6 1.5 1162.56 1.5 1163.99C1.5 1164.77 2.63757 1165.24 3.96153 1165.5" stroke="#FF6F3D" stroke-linecap="round"/>
<circle cx="11.3686" cy="1159.33" r="2.09829" stroke="#333333"/>
<path d="M16.4364 1165.93C16.4364 1166.04 16.3686 1166.21 16.0495 1166.42C15.7367 1166.63 15.2733 1166.81 14.7159 1166.95C13.6077 1167.24 12.2702 1167.37 11.4105 1167.37C10.5409 1167.37 9.17875 1167.28 8.04823 1167.02C7.47901 1166.88 7.00601 1166.72 6.68713 1166.52C6.36158 1166.32 6.30084 1166.16 6.30084 1166.06C6.30084 1165.84 6.39781 1165.55 6.6405 1165.22C6.87993 1164.89 7.24025 1164.55 7.70601 1164.24C8.63746 1163.63 9.9444 1163.17 11.4105 1163.17C12.8838 1163.17 14.1712 1163.6 15.0788 1164.18C16.0197 1164.79 16.4364 1165.47 16.4364 1165.93Z" stroke="#333333"/>
<path d="M5.5 1151.98V1147.5C5.5 1146.95 5.94772 1146.5 6.5 1146.5H8" stroke="#333333" stroke-linecap="round"/>
<path d="M21.4999 1163.5V1154.5L16.5024 1154.51C15.9492 1154.51 15.5 1154.07 15.5 1153.51V1148.5H11.5" stroke="#333333" stroke-linecap="round"/>
<path d="M19.5 1163.5V1156.5L16.5074 1156.51C14.8477 1156.51 13.5001 1155.17 13.5001 1153.51V1150.5H11.5001" stroke="#FF6F3D" stroke-linecap="round"/>
<path d="M17.5 1163.5V1158.5" stroke="#333333" stroke-linecap="round"/>
<path d="M15.5 1161.5V1158.5" stroke="#333333" stroke-linecap="round"/>
<path d="M11.5 1154.5V1152.5" stroke="#333333" stroke-linecap="round"/>
<path d="M7.5 1152.5V1150.5V1148.5" stroke="#FF6F3D" stroke-linecap="round"/>
<path d="M3.5 1154.5V1150.5V1148.5" stroke="#FF6F3D" stroke-linecap="round"/>
<path d="M1.5 1159.5V1147.5C1.5 1146.95 1.94772 1146.5 2.5 1146.5H4" stroke="#333333" stroke-linecap="round"/>
<path fill-rule="evenodd" clip-rule="evenodd" d="M17.5 1148C17.7761 1148 18 1148.22 18 1148.5V1152H21.5C21.7761 1152 22 1152.22 22 1152.5C22 1152.78 21.7761 1153 21.5 1153H17.5C17.2239 1153 17 1152.78 17 1152.5V1148.5C17 1148.22 17.2239 1148 17.5 1148Z" fill="#FF6F3D"/>
</g>
<g clip-path="url(#clip33_33_28028)">
<path d="M9.5 1178.5V1173.5C9.5 1172.95 9.94772 1172.5 10.5 1172.5H18.0858C18.351 1172.5 18.6054 1172.61 18.7929 1172.79L23.2071 1177.21C23.3946 1177.39 23.5 1177.65 23.5 1177.91V1190.5C23.5 1191.05 23.0523 1191.5 22.5 1191.5H16.5" stroke="#333333" stroke-linecap="round"/>
<path d="M5.5 1178.5V1173.5C5.5 1172.95 5.94772 1172.5 6.5 1172.5H8" stroke="#333333" stroke-linecap="round"/>
<path d="M1.5 1178.5V1173.5C1.5 1172.95 1.94772 1172.5 2.5 1172.5H4" stroke="#333333" stroke-linecap="round"/>
<path fill-rule="evenodd" clip-rule="evenodd" d="M17.5 1174C17.7761 1174 18 1174.22 18 1174.5V1178H21.5C21.7761 1178 22 1178.22 22 1178.5C22 1178.78 21.7761 1179 21.5 1179H17.5C17.2239 1179 17 1178.78 17 1178.5V1174.5C17 1174.22 17.2239 1174 17.5 1174Z" fill="#FF6F3D"/>
<path d="M0.5 1183C0.5 1182.17 1.17157 1181.5 2 1181.5H11C11.8284 1181.5 12.5 1182.17 12.5 1183V1192C12.5 1192.83 11.8284 1193.5 11 1193.5H2C1.17157 1193.5 0.5 1192.83 0.5 1192V1183Z" stroke="#FF6F3D"/>
<g clip-path="url(#clip34_33_28028)">
<path fill-rule="evenodd" clip-rule="evenodd" d="M6.50002 1183C6.71947 1183 6.91889 1183.13 7.01081 1183.33L7.98984 1185.45L10.311 1185.72C10.529 1185.75 10.712 1185.9 10.7798 1186.11C10.8476 1186.32 10.7878 1186.55 10.6267 1186.7L8.9106 1188.28L9.36614 1190.58C9.40891 1190.79 9.3226 1191.01 9.14506 1191.14C8.96752 1191.27 8.73117 1191.28 8.53968 1191.18L6.50002 1190.03L4.46037 1191.18C4.26887 1191.28 4.03253 1191.27 3.85499 1191.14C3.67745 1191.01 3.59114 1190.79 3.6339 1190.58L4.08945 1188.28L2.37333 1186.7C2.21221 1186.55 2.15245 1186.32 2.22027 1186.11C2.28808 1185.9 2.47108 1185.75 2.68901 1185.72L5.01021 1185.45L5.98924 1183.33C6.08116 1183.13 6.28057 1183 6.50002 1183ZM6.50002 1184.91L5.89989 1186.21C5.81795 1186.38 5.64961 1186.51 5.45534 1186.53L4.03248 1186.7L5.08444 1187.67C5.22806 1187.8 5.29237 1188 5.25424 1188.19L4.975 1189.6L6.22527 1188.9C6.39598 1188.8 6.60407 1188.8 6.77477 1188.9L8.02505 1189.6L7.74581 1188.19C7.70768 1188 7.77198 1187.8 7.91561 1187.67L8.96756 1186.7L7.54471 1186.53C7.35044 1186.51 7.18209 1186.38 7.10016 1186.21L6.50002 1184.91Z" fill="#FF6F3D"/>
</g>
</g>
<path fill-rule="evenodd" clip-rule="evenodd" d="M9.52006 1200C9.76894 1197.75 11.6777 1196 13.9955 1196C16.3133 1196 18.2221 1197.75 18.4709 1200H21.0001C21.2764 1200 21.5004 1200.22 21.5004 1200.5C21.5004 1200.77 21.2764 1201 21.0001 1201H17.4978V1200.5C17.4978 1198.57 15.9298 1197 13.9955 1197C12.0612 1197 10.4932 1198.57 10.4932 1200.5V1201L6.50624 1201C5.67727 1201 5.00526 1201.67 5.00526 1202.5L5.00527 1206.5H4.50494C2.57069 1206.5 1.00266 1208.06 1.00266 1209.99C1.00266 1211.93 2.57069 1213.49 4.50494 1213.49H5.00527L5.00527 1217.5C5.00527 1218.33 5.67728 1219 6.50624 1219H10.4932V1217.5C10.4932 1215.57 12.0612 1214.01 13.9955 1214.01C15.9298 1214.01 17.4978 1215.57 17.4978 1217.5V1219H21.5004C22.3294 1219 23.0014 1218.33 23.0014 1217.5L23.0014 1213.49H21.5004C19.5661 1213.49 17.9981 1211.93 17.9981 1209.99C17.9981 1208.06 19.5661 1206.5 21.5004 1206.5H23.0014V1203.49C23.0014 1203.21 23.2254 1202.99 23.5017 1202.99C23.778 1202.99 24.002 1203.21 24.002 1203.49L24.002 1207.5H21.5004C20.1188 1207.5 18.9988 1208.61 18.9988 1209.99C18.9988 1211.37 20.1188 1212.49 21.5004 1212.49H24.002L24.002 1217.5C24.002 1218.88 22.882 1220 21.5004 1220H16.4971V1217.5C16.4971 1216.12 15.3771 1215.01 13.9955 1215.01C12.6139 1215.01 11.4939 1216.12 11.4939 1217.5V1220H6.50624C5.12463 1220 4.00462 1218.88 4.00462 1217.5L4.00462 1214.46C1.75318 1214.21 0.00201416 1212.31 0.00201416 1209.99C0.00201416 1207.68 1.75318 1205.77 4.00462 1205.53L4.00461 1202.5C4.00461 1201.12 5.12463 1200 6.50624 1200L9.52006 1200Z" fill="#FF6F3D"/>
<g clip-path="url(#clip35_33_28028)">
<path fill-rule="evenodd" clip-rule="evenodd" d="M22.1841 1227.69C25.0567 1232.32 24.4967 1238.48 20.497 1242.49C16.7134 1246.29 10.6943 1247.03 6.22709 1244.4C5.98896 1244.26 5.90925 1243.96 6.04907 1243.72C6.18888 1243.48 6.49526 1243.4 6.73339 1243.54C10.8052 1245.93 16.325 1245.26 19.7885 1241.79C23.4011 1238.16 23.9529 1232.62 21.4446 1228.4L20.1806 1229.61L19.1485 1225.4L23.3064 1226.61L22.1841 1227.69ZM17.934 1224.15C17.793 1224.39 17.4862 1224.47 17.2488 1224.33C13.1796 1221.91 7.58592 1222.91 4.28933 1226.22C0.500196 1230.03 0.0251512 1235.74 2.62057 1239.71L3.72315 1238.62L4.8296 1242.8L0.650864 1241.67L1.89702 1240.43C-1.09653 1236.04 -0.578647 1229.69 3.58084 1225.52C7.16497 1221.92 13.2546 1220.79 17.7593 1223.47C17.9967 1223.61 18.0749 1223.91 17.934 1224.15Z" fill="#333333"/>
<path d="M9.5 1229.5H15.5625" stroke="#FF6F3D" stroke-linecap="round"/>
<path d="M8.5 1238.5H15.5625" stroke="#FF6F3D" stroke-linecap="round"/>
<path d="M6.5 1232.5H17.5625" stroke="#FF6F3D" stroke-linecap="round"/>
<path d="M6.5 1235.5H17.5625" stroke="#FF6F3D" stroke-linecap="round"/>
</g>
<g clip-path="url(#clip36_33_28028)">
<path d="M6.5 1255.5H17.5625" stroke="#FF6F3D" stroke-linecap="round"/>
<path d="M6.5 1259.5H17.5625" stroke="#FF6F3D" stroke-linecap="round"/>
<path d="M6.5 1264.5H17.5625" stroke="#FF6F3D" stroke-linecap="round"/>
<path d="M6.5 1264.5L6.5 1255.71" stroke="#FF6F3D" stroke-linecap="round"/>
<path d="M10.5625 1264.47V1255.82" stroke="#FF6F3D" stroke-linecap="round"/>
<path d="M17.5625 1264.39V1255.5" stroke="#FF6F3D" stroke-linecap="round"/>
<path fill-rule="evenodd" clip-rule="evenodd" d="M22.1841 1253.69C25.0567 1258.32 24.4967 1264.48 20.497 1268.49C16.7134 1272.29 10.6943 1273.03 6.22706 1270.4C5.98893 1270.26 5.90922 1269.96 6.04903 1269.72C6.18884 1269.48 6.49523 1269.4 6.73336 1269.54C10.8051 1271.93 16.3249 1271.26 19.7885 1267.79C23.4011 1264.16 23.9529 1258.62 21.4446 1254.4L20.1806 1255.61L19.1484 1251.4L23.3064 1252.61L22.1841 1253.69ZM17.9339 1250.15C17.793 1250.39 17.4862 1250.47 17.2487 1250.33C13.1796 1247.91 7.58589 1248.91 4.2893 1252.22C0.500165 1256.03 0.0251207 1261.74 2.62054 1265.71L3.72312 1264.62L4.82957 1268.8L0.650834 1267.67L1.89699 1266.43C-1.09656 1262.04 -0.578678 1255.69 3.58081 1251.52C7.16494 1247.92 13.2546 1246.79 17.7592 1249.47C17.9967 1249.61 18.0749 1249.91 17.9339 1250.15Z" fill="#333333"/>
</g>
<g clip-path="url(#clip37_33_28028)">
<path d="M11.2774 1281.58C11.1239 1281.48 10.9266 1281.47 10.7641 1281.56C10.6015 1281.65 10.5 1281.82 10.5 1282V1290C10.5 1290.18 10.6015 1290.35 10.7641 1290.44C10.9266 1290.53 11.1239 1290.52 11.2774 1290.42L17.2773 1286.42C17.4164 1286.32 17.5 1286.17 17.5 1286C17.5 1285.83 17.4164 1285.68 17.2773 1285.58L11.2774 1281.58Z" stroke="#FF6F3D" stroke-linecap="round" stroke-linejoin="round"/>
<path d="M7.4375 1282.52V1289.58" stroke="#FF6F3D" stroke-linecap="round" stroke-linejoin="round"/>
<path fill-rule="evenodd" clip-rule="evenodd" d="M22.1841 1279.69C25.0567 1284.32 24.4967 1290.48 20.497 1294.49C16.7134 1298.29 10.6943 1299.03 6.22706 1296.4C5.98893 1296.26 5.90922 1295.96 6.04903 1295.72C6.18884 1295.48 6.49523 1295.4 6.73336 1295.54C10.8051 1297.93 16.3249 1297.26 19.7885 1293.79C23.4011 1290.16 23.9529 1284.62 21.4446 1280.4L20.1806 1281.61L19.1484 1277.4L23.3064 1278.61L22.1841 1279.69ZM17.9339 1276.15C17.793 1276.39 17.4862 1276.47 17.2487 1276.33C13.1796 1273.91 7.58589 1274.91 4.2893 1278.22C0.500165 1282.03 0.0251207 1287.74 2.62054 1291.71L3.72312 1290.62L4.82957 1294.8L0.650834 1293.67L1.89699 1292.43C-1.09656 1288.04 -0.578678 1281.69 3.58081 1277.52C7.16494 1273.92 13.2546 1272.79 17.7592 1275.47C17.9967 1275.61 18.0749 1275.91 17.9339 1276.15Z" fill="#333333"/>
</g>
<g clip-path="url(#clip38_33_28028)">
<circle cx="12" cy="1312" r="11.5" stroke="#333333"/>
<circle cx="12" cy="1312" r="8.875" stroke="#333333"/>
<path d="M11.6875 1307.31H13.5625V1315.75H15.125V1317H9.5V1315.75H11.0625V1309.81H9.5V1308.56H9.8125C9.98177 1308.56 10.1276 1308.55 10.25 1308.54C10.3724 1308.52 10.4974 1308.49 10.625 1308.44C10.7552 1308.39 10.875 1308.31 10.9844 1308.22C11.0938 1308.13 11.207 1308.01 11.3242 1307.86C11.4414 1307.71 11.5625 1307.53 11.6875 1307.31Z" fill="#FF6F3D"/>
</g>
<g clip-path="url(#clip39_33_28028)">
<path d="M3.375 1340.44L9.3125 1336L17.8125 1343.97" stroke="#FF6F3D" stroke-linecap="round" stroke-linejoin="round"/>
<path d="M12.9375 1339.06L15.4688 1336.59L19.7188 1340.53" stroke="#FF6F3D" stroke-linecap="round" stroke-linejoin="round"/>
<circle cx="13" cy="1332" r="1.5" stroke="#FF6F3D"/>
<path fill-rule="evenodd" clip-rule="evenodd" d="M22.1841 1331.69C25.0567 1336.32 24.4967 1342.48 20.497 1346.49C16.7134 1350.29 10.6943 1351.03 6.22706 1348.4C5.98893 1348.26 5.90922 1347.96 6.04903 1347.72C6.18884 1347.48 6.49523 1347.4 6.73336 1347.54C10.8051 1349.93 16.3249 1349.26 19.7885 1345.79C23.4011 1342.16 23.9529 1336.62 21.4446 1332.4L20.1806 1333.61L19.1484 1329.4L23.3064 1330.61L22.1841 1331.69ZM17.9339 1328.15C17.793 1328.39 17.4862 1328.47 17.2487 1328.33C13.1796 1325.91 7.58589 1326.91 4.2893 1330.22C0.500165 1334.03 0.0251207 1339.74 2.62054 1343.71L3.72312 1342.62L4.82957 1346.8L0.650834 1345.67L1.89699 1344.43C-1.09656 1340.04 -0.578678 1333.69 3.58081 1329.52C7.16494 1325.92 13.2546 1324.79 17.7592 1327.47C17.9967 1327.61 18.0749 1327.91 17.9339 1328.15Z" fill="#333333"/>
</g>
<g clip-path="url(#clip40_33_28028)">
<path d="M7.5 1358C7.5 1357.72 7.72386 1357.5 8 1357.5H17C17.2761 1357.5 17.5 1357.72 17.5 1358V1374.5H8C7.72386 1374.5 7.5 1374.28 7.5 1374V1358Z" stroke="#333333"/>
<path d="M1.5 1363C1.5 1362.72 1.72386 1362.5 2 1362.5H7C7.27614 1362.5 7.5 1362.72 7.5 1363V1374.5H1.5V1363Z" stroke="#333333"/>
<path d="M17.5 1363C17.5 1362.72 17.7239 1362.5 18 1362.5H23C23.2761 1362.5 23.5 1362.72 23.5 1363V1374.5H17.5V1363Z" stroke="#333333"/>
<path d="M10.5028 1371.5L10.5028 1361.66" stroke="#FF6F3D" stroke-linecap="round"/>
<path d="M4.47531 1371.5L4.47531 1365.88" stroke="#FF6F3D" stroke-linecap="round"/>
<path d="M20.5 1372L20.5 1366" stroke="#FF6F3D" stroke-linecap="round"/>
<path d="M14.5005 1371.46L14.5 1361.62" stroke="#FF6F3D" stroke-linecap="round"/>
<path d="M12.5231 1357.03V1353.92" stroke="#333333" stroke-linecap="round"/>
</g>
<g clip-path="url(#clip41_33_28028)">
<path fill-rule="evenodd" clip-rule="evenodd" d="M2.5 1396C2.22386 1396 2 1395.78 2 1395.5L2 1384.5C2 1383.67 2.67157 1383 3.5 1383H21.5C22.3284 1383 23 1383.67 23 1384.5V1394.5C23 1395.33 22.3284 1396 21.5 1396H16.5C16.2239 1396 16 1395.78 16 1395.5C16 1395.22 16.2239 1395 16.5 1395H21.5C21.7761 1395 22 1394.78 22 1394.5V1384.5C22 1384.22 21.7761 1384 21.5 1384H3.5C3.22386 1384 3 1384.22 3 1384.5L3 1395.5C3 1395.78 2.77614 1396 2.5 1396Z" fill="#333333"/>
<path fill-rule="evenodd" clip-rule="evenodd" d="M14 1393C14 1395.21 12.2091 1397 10 1397C7.79086 1397 6 1395.21 6 1393C6 1390.79 7.79086 1389 10 1389C12.2091 1389 14 1390.79 14 1393ZM15 1393C15 1395.76 12.7614 1398 10 1398C7.23858 1398 5 1395.76 5 1393C5 1390.24 7.23858 1388 10 1388C12.7614 1388 15 1390.24 15 1393ZM14.1591 1398.84C13.9647 1398.64 13.9661 1398.33 14.1622 1398.13C14.3584 1397.94 14.6749 1397.94 14.8693 1398.13L17.8595 1401.15C18.0539 1401.35 18.0525 1401.66 17.8564 1401.86C17.6603 1402.05 17.3437 1402.05 17.1493 1401.85L14.1591 1398.84Z" fill="#FF6F3D"/>
</g>
<g clip-path="url(#clip42_33_28028)">
<path fill-rule="evenodd" clip-rule="evenodd" d="M20.4853 1423.78C20.6805 1423.97 20.6805 1424.29 20.4853 1424.49C15.799 1429.17 8.20101 1429.17 3.51472 1424.49C-1.17157 1419.8 -1.17157 1412.2 3.51472 1407.51C8.20101 1402.83 15.799 1402.83 20.4853 1407.51C22.6583 1409.69 23.824 1412.49 23.9815 1415.33C24.0621 1416.79 23.8792 1418.25 23.4327 1419.65C23.1637 1420.5 22.7992 1421.32 22.339 1422.1C22.1986 1422.33 21.892 1422.41 21.6542 1422.27C21.4164 1422.13 21.3375 1421.83 21.478 1421.59C21.8995 1420.87 22.2335 1420.12 22.4799 1419.35C22.8891 1418.07 23.057 1416.72 22.9831 1415.39C22.8386 1412.78 21.7705 1410.21 19.7782 1408.22C15.4824 1403.93 8.51759 1403.93 4.22183 1408.22C-0.0739422 1412.52 -0.0739422 1419.48 4.22183 1423.78C8.51759 1428.07 15.4824 1428.07 19.7782 1423.78C19.9734 1423.58 20.29 1423.58 20.4853 1423.78Z" fill="#333333"/>
<path d="M7.75396 1416.31L11.3727 1419.93L16.5 1412.07" stroke="#FF6F3D" stroke-linecap="round" stroke-linejoin="round"/>
</g>
<g clip-path="url(#clip43_33_28028)">
<mask id="path-258-inside-1_33_28028" fill="white">
<path d="M20 1444C20 1445.98 19.4135 1447.91 18.3147 1449.56C17.2159 1451.2 15.6541 1452.48 13.8268 1453.24C11.9996 1454 9.98891 1454.19 8.0491 1453.81C6.10929 1453.42 4.32746 1452.47 2.92893 1451.07C1.53041 1449.67 0.577999 1447.89 0.192147 1445.95C-0.193705 1444.01 0.00432836 1442 0.761205 1440.17C1.51808 1438.35 2.79981 1436.78 4.4443 1435.69C6.08879 1434.59 8.02219 1434 10 1434V1444H20Z"/>
</mask>
<path d="M20 1444C20 1445.98 19.4135 1447.91 18.3147 1449.56C17.2159 1451.2 15.6541 1452.48 13.8268 1453.24C11.9996 1454 9.98891 1454.19 8.0491 1453.81C6.10929 1453.42 4.32746 1452.47 2.92893 1451.07C1.53041 1449.67 0.577999 1447.89 0.192147 1445.95C-0.193705 1444.01 0.00432836 1442 0.761205 1440.17C1.51808 1438.35 2.79981 1436.78 4.4443 1435.69C6.08879 1434.59 8.02219 1434 10 1434V1444H20Z" stroke="#333333" stroke-width="2" mask="url(#path-258-inside-1_33_28028)"/>
<mask id="path-259-inside-2_33_28028" fill="white">
<path d="M24 1442C24 1440.42 23.6896 1438.86 23.0866 1437.41C22.4835 1435.95 21.5996 1434.63 20.4853 1433.51C19.371 1432.4 18.0481 1431.52 16.5922 1430.91C15.1363 1430.31 13.5759 1430 12 1430L12 1442H24Z"/>
</mask>
<path d="M24 1442C24 1440.42 23.6896 1438.86 23.0866 1437.41C22.4835 1435.95 21.5996 1434.63 20.4853 1433.51C19.371 1432.4 18.0481 1431.52 16.5922 1430.91C15.1363 1430.31 13.5759 1430 12 1430L12 1442H24Z" stroke="#FF6F3D" stroke-width="2" mask="url(#path-259-inside-2_33_28028)"/>
</g>
<path d="M22.4062 1463.34H22.5C23.0523 1463.34 23.5 1463.79 23.5 1464.34V1472C23.5 1473.1 22.1046 1474 21 1474H18V1477.59C18 1478.48 16.9229 1478.92 16.2929 1478.29L12 1474H11.1094" stroke="#FF6F3D" stroke-linecap="round"/>
<path d="M3 1457.5H18C19.3807 1457.5 20.5 1458.62 20.5 1460V1468C20.5 1469.38 19.3807 1470.5 18 1470.5H11.2071L7.06066 1474.65C6.11571 1475.59 4.5 1474.92 4.5 1473.59V1470.5H3C1.61929 1470.5 0.5 1469.38 0.5 1468V1460C0.5 1458.62 1.61929 1457.5 3 1457.5Z" stroke="#333333"/>
<path fill-rule="evenodd" clip-rule="evenodd" d="M4.5 1462.5C4.5 1462.22 4.72386 1462 5 1462H15C15.2761 1462 15.5 1462.22 15.5 1462.5C15.5 1462.78 15.2761 1463 15 1463H5C4.72386 1463 4.5 1462.78 4.5 1462.5Z" fill="#FF6F3D"/>
<path fill-rule="evenodd" clip-rule="evenodd" d="M4.5 1465.5C4.5 1465.22 4.72386 1465 5 1465H12C12.2761 1465 12.5 1465.22 12.5 1465.5C12.5 1465.78 12.2761 1466 12 1466H5C4.72386 1466 4.5 1465.78 4.5 1465.5Z" fill="#FF6F3D"/>
<g clip-path="url(#clip44_33_28028)">
<path d="M11.5516 1484.04C11.735 1483.67 12.265 1483.67 12.4484 1484.04L14.8457 1488.9C15.0642 1489.34 15.4865 1489.65 15.9751 1489.72L21.3356 1490.5C21.7457 1490.55 21.9095 1491.06 21.6127 1491.35L17.7338 1495.13C17.3803 1495.47 17.2189 1495.97 17.3024 1496.46L18.2181 1501.8C18.2882 1502.2 17.8594 1502.52 17.4926 1502.32L12.698 1499.8C12.261 1499.57 11.739 1499.57 11.302 1499.8L6.50738 1502.32C6.14057 1502.52 5.71185 1502.2 5.7819 1501.8L6.69759 1496.46C6.78105 1495.97 6.61973 1495.47 6.2662 1495.13L2.38728 1491.35C2.09052 1491.06 2.25428 1490.55 2.66438 1490.5L8.02492 1489.72C8.51349 1489.65 8.93583 1489.34 9.15433 1488.9L11.5516 1484.04Z" stroke="#FF6F3D"/>
</g>
<g clip-path="url(#clip45_33_28028)">
<path fill-rule="evenodd" clip-rule="evenodd" d="M21.7113 1513.82C21.9504 1513.68 22.2562 1513.76 22.3943 1514C25.708 1519.74 23.7415 1527.08 18.002 1530.39C12.2625 1533.71 4.9234 1531.74 1.60969 1526C-1.70402 1520.26 0.262485 1512.92 6.002 1509.61C8.66338 1508.07 11.6699 1507.67 14.4582 1508.26C15.8837 1508.55 17.2528 1509.11 18.4905 1509.9C19.2359 1510.38 19.9335 1510.95 20.5671 1511.59C20.7604 1511.79 20.7572 1512.11 20.5601 1512.3C20.3629 1512.49 20.0463 1512.49 19.853 1512.29C19.2727 1511.7 18.6336 1511.18 17.9506 1510.75C16.8163 1510.02 15.5608 1509.51 14.2532 1509.23C11.6964 1508.7 8.94213 1509.07 6.502 1510.48C1.24078 1513.51 -0.56185 1520.24 2.47571 1525.5C5.51328 1530.76 12.2408 1532.57 17.502 1529.53C22.7632 1526.49 24.5658 1519.76 21.5283 1514.5C21.3902 1514.26 21.4721 1513.96 21.7113 1513.82Z" fill="#333333"/>
<path fill-rule="evenodd" clip-rule="evenodd" d="M13.6989 1516.04C13.9527 1516.15 14.0703 1516.45 13.9615 1516.7L10.9615 1523.7C10.8527 1523.95 10.5588 1524.07 10.305 1523.96C10.0512 1523.85 9.93359 1523.56 10.0424 1523.3L13.0424 1516.3C13.1511 1516.05 13.4451 1515.93 13.6989 1516.04ZM15.1257 1516.17C15.3075 1515.96 15.6234 1515.94 15.8312 1516.13L19.8312 1519.63L20.2612 1520L19.8312 1520.38L15.8312 1523.88C15.6234 1524.06 15.3075 1524.04 15.1257 1523.83C14.9438 1523.62 14.9649 1523.31 15.1727 1523.13L18.7426 1520L15.1727 1516.88C14.9649 1516.7 14.9438 1516.38 15.1257 1516.17ZM8.17269 1516.13C8.38051 1515.94 8.69639 1515.96 8.87823 1516.17C9.06007 1516.38 9.03901 1516.7 8.83119 1516.88L5.26124 1520L8.83119 1523.13C9.03901 1523.31 9.06007 1523.62 8.87823 1523.83C8.69639 1524.04 8.38051 1524.06 8.17269 1523.88L4.17269 1520.38L3.74265 1520L4.17269 1519.63L8.17269 1516.13Z" fill="#FF6F3D"/>
</g>
</g>
<defs>
<clipPath id="clip0_33_28028">
<rect width="24.0001" height="1532" fill="white"/>
</clipPath>
<clipPath id="clip1_33_28028">
<rect width="24" height="24" fill="white"/>
</clipPath>
<clipPath id="clip2_33_28028">
<rect width="24" height="24" fill="white" transform="translate(0 78)"/>
</clipPath>
<clipPath id="clip3_33_28028">
<rect width="24" height="24" fill="white" transform="translate(0 104)"/>
</clipPath>
<clipPath id="clip4_33_28028">
<rect width="24" height="24" fill="white" transform="translate(0 130)"/>
</clipPath>
<clipPath id="clip5_33_28028">
<rect width="24" height="24" fill="white" transform="translate(0 156)"/>
</clipPath>
<clipPath id="clip6_33_28028">
<rect width="24" height="24" fill="white" transform="translate(0 182)"/>
</clipPath>
<clipPath id="clip7_33_28028">
<rect width="24" height="24" fill="white" transform="translate(0 208)"/>
</clipPath>
<clipPath id="clip8_33_28028">
<rect width="24" height="24" fill="white" transform="translate(0 234)"/>
</clipPath>
<clipPath id="clip9_33_28028">
<rect width="24" height="24" fill="white" transform="translate(0 260)"/>
</clipPath>
<clipPath id="clip10_33_28028">
<rect width="24" height="24" fill="white" transform="translate(0 286)"/>
</clipPath>
<clipPath id="clip11_33_28028">
<rect width="24" height="24" fill="white" transform="translate(0 312)"/>
</clipPath>
<clipPath id="clip12_33_28028">
<rect width="24" height="24" fill="white" transform="translate(0 338)"/>
</clipPath>
<clipPath id="clip13_33_28028">
<rect width="24.0001" height="24" fill="white" transform="translate(0 416)"/>
</clipPath>
<clipPath id="clip14_33_28028">
<rect width="24" height="24" fill="white" transform="translate(0 468)"/>
</clipPath>
<clipPath id="clip15_33_28028">
<rect width="24" height="24" fill="white" transform="translate(0 650)"/>
</clipPath>
<clipPath id="clip16_33_28028">
<rect width="24" height="24" fill="white" transform="translate(0 676)"/>
</clipPath>
<clipPath id="clip17_33_28028">
<rect width="24" height="24" fill="white" transform="translate(0 702)"/>
</clipPath>
<clipPath id="clip18_33_28028">
<rect width="24" height="24" fill="white" transform="translate(0 728)"/>
</clipPath>
<clipPath id="clip19_33_28028">
<rect width="24" height="24" fill="white" transform="translate(0 754)"/>
</clipPath>
<clipPath id="clip20_33_28028">
<rect width="24" height="24" fill="white" transform="translate(0 780)"/>
</clipPath>
<clipPath id="clip21_33_28028">
<rect width="24" height="24" fill="white" transform="translate(0 806)"/>
</clipPath>
<clipPath id="clip22_33_28028">
<rect width="24" height="24" fill="white" transform="translate(0 832)"/>
</clipPath>
<clipPath id="clip23_33_28028">
<rect width="24.0001" height="24" fill="white" transform="translate(0 858)"/>
</clipPath>
<clipPath id="clip24_33_28028">
<rect width="24" height="24" fill="white" transform="translate(0 884)"/>
</clipPath>
<clipPath id="clip25_33_28028">
<rect width="24" height="24" fill="white" transform="translate(0 910)"/>
</clipPath>
<clipPath id="clip26_33_28028">
<rect width="24" height="24" fill="white" transform="translate(0 936)"/>
</clipPath>
<clipPath id="clip27_33_28028">
<rect width="24" height="24" fill="white" transform="translate(0 962)"/>
</clipPath>
<clipPath id="clip28_33_28028">
<rect width="24" height="24" fill="white" transform="translate(0 1040)"/>
</clipPath>
<clipPath id="clip29_33_28028">
<rect width="24" height="24" fill="white" transform="translate(0 1066)"/>
</clipPath>
<clipPath id="clip30_33_28028">
<rect width="24" height="24" fill="white" transform="translate(0 1092)"/>
</clipPath>
<clipPath id="clip31_33_28028">
<rect width="24" height="24" fill="white" transform="translate(0 1118)"/>
</clipPath>
<clipPath id="clip32_33_28028">
<rect width="24" height="24" fill="white" transform="translate(0 1144)"/>
</clipPath>
<clipPath id="clip33_33_28028">
<rect width="24" height="24" fill="white" transform="translate(0 1170)"/>
</clipPath>
<clipPath id="clip34_33_28028">
<rect width="9" height="9" fill="white" transform="translate(2 1183)"/>
</clipPath>
<clipPath id="clip35_33_28028">
<rect width="24" height="24" fill="white" transform="translate(0 1222)"/>
</clipPath>
<clipPath id="clip36_33_28028">
<rect width="24" height="24" fill="white" transform="translate(0 1248)"/>
</clipPath>
<clipPath id="clip37_33_28028">
<rect width="24" height="24" fill="white" transform="translate(0 1274)"/>
</clipPath>
<clipPath id="clip38_33_28028">
<rect width="24" height="24" fill="white" transform="translate(0 1300)"/>
</clipPath>
<clipPath id="clip39_33_28028">
<rect width="24" height="24" fill="white" transform="translate(0 1326)"/>
</clipPath>
<clipPath id="clip40_33_28028">
<rect width="24" height="24" fill="white" transform="translate(0 1352)"/>
</clipPath>
<clipPath id="clip41_33_28028">
<rect width="24" height="24" fill="white" transform="translate(0 1378)"/>
</clipPath>
<clipPath id="clip42_33_28028">
<rect width="24" height="24" fill="white" transform="translate(0 1404)"/>
</clipPath>
<clipPath id="clip43_33_28028">
<rect width="24" height="24" fill="white" transform="translate(0 1430)"/>
</clipPath>
<clipPath id="clip44_33_28028">
<rect width="24" height="24" fill="white" transform="translate(0 1482)"/>
</clipPath>
<clipPath id="clip45_33_28028">
<rect width="24" height="24" fill="white" transform="translate(0 1508)"/>
</clipPath>
</defs>
</svg>
