<svg width="24" height="25" viewBox="0 0 24 25" fill="none" xmlns="http://www.w3.org/2000/svg">
<g clip-path="url(#clip0_14070_110732)">
<rect x="3.5" y="12.5479" width="14" height="4" rx="1.5" stroke="#FF6F3D"/>
<rect x="9" y="14.0479" width="6" height="1" rx="0.5" fill="#FF6F3D"/>
<circle cx="6.5" cy="14.5479" r="0.5" fill="#FF6F3D"/>
<rect x="3.5" y="18.5479" width="14" height="4" rx="1.5" stroke="#FF6F3D"/>
<rect x="9" y="20.0479" width="6" height="1" rx="0.5" fill="#FF6F3D"/>
<circle cx="6.38867" cy="20.5479" r="0.5" fill="#FF6F3D"/>
<path d="M0 12.1251C0.0787485 11.8081 0.128904 11.4807 0.240933 11.1765C0.857327 9.50178 2.03668 8.48656 3.79071 8.16059C3.85914 8.14784 3.92617 8.12705 4.02836 8.10154C4.02836 7.75337 4.01008 7.40095 4.03164 7.05136C4.13289 5.40689 4.73803 3.96035 5.79364 2.71129C6.88955 1.41357 8.27609 0.567 9.93262 0.221665C12.0912 -0.228546 14.0903 0.195682 15.8795 1.49624C17.3983 2.5998 18.3775 4.08224 18.8007 5.92513C18.8335 6.06827 18.9048 6.12543 19.0534 6.1396C21.5893 6.38715 23.6334 8.38216 23.9541 10.9134C23.9597 10.9568 23.9841 10.9979 24 11.0404V12.1719C23.9091 12.5583 23.8514 12.9565 23.722 13.3293C23.0414 15.2974 21.684 16.5285 19.6721 17.0255C19.3351 17.1086 19.0674 16.9546 18.9976 16.6574C18.9329 16.3839 19.1153 16.1472 19.4368 16.0372C19.8549 15.8935 20.2969 15.7816 20.6738 15.5605C22.2333 14.6454 23.0156 13.266 22.9777 11.4392C22.936 9.44178 21.4744 7.62251 19.382 7.1912C19.0707 7.12695 18.7468 7.12695 18.4309 7.08349C18.1107 7.03908 17.9631 6.89594 17.9078 6.57611C17.6476 5.06155 16.9628 3.77942 15.8266 2.75145C14.8385 1.85764 13.6854 1.30444 12.3616 1.13531C10.5565 0.905249 8.92248 1.34082 7.49329 2.47367C6.17847 3.51581 5.38068 4.8792 5.10037 6.5473C4.99396 7.18081 5.00193 7.81101 5.06334 8.44688C5.10881 8.91835 4.93678 9.09786 4.47226 9.10684C2.71588 9.1418 1.25763 10.4362 1.03873 12.1695C0.980606 12.6311 1.02232 13.0907 1.14888 13.5438C1.24544 13.8905 1.09826 14.1725 0.817953 14.2439C0.529677 14.3171 0.277963 14.1707 0.192652 13.8631C0.119998 13.6004 0.0646862 13.3331 0.00140622 13.0676V12.1246L0 12.1251Z" fill="#333333"/>
</g>
<defs>
<clipPath id="clip0_14070_110732">
<rect width="24" height="24" fill="white" transform="translate(0 0.0478516)"/>
</clipPath>
</defs>
</svg>
