<svg width="100" height="100" viewBox="0 0 100 100" fill="none" xmlns="http://www.w3.org/2000/svg">
<path fill-rule="evenodd" clip-rule="evenodd" d="M88.5358 12.3199L58.0909 50V92.2671C58.0909 93.8636 56.3123 94.8166 54.983 93.9322L43.0285 85.9782C42.4712 85.6074 42.1364 84.9824 42.1364 84.3131V50L13.326 12.3387C10.6843 9.08654 11.9744 4 17.3333 4H85.0347C89.9555 4 91.4092 9.19712 88.5358 12.3199Z" fill="#D9F4FF"/>
<path d="M88.1679 11.9814L88.157 11.9932L88.1469 12.0057L57.702 49.6858L57.5909 49.8232V50V92.2671C57.5909 93.4645 56.2569 94.1792 55.26 93.5159L43.3055 85.5619C42.8875 85.2838 42.6364 84.8151 42.6364 84.3131V50V49.8307L42.5335 49.6962L13.7231 12.0349L13.7187 12.0291L13.7141 12.0235C12.4954 10.5232 12.2052 8.62696 12.7946 7.13331C13.3718 5.67025 14.8319 4.5 17.3333 4.5H85.0347C87.2932 4.5 88.6941 5.67564 89.2386 7.16099C89.7917 8.66974 89.4815 10.5537 88.1679 11.9814Z" stroke="#333333"/>
<path d="M80.2403 35.5H55.7617C52.2729 35.5 49.4135 38.3392 49.502 41.8374V66.2535C49.502 69.6527 52.2632 72.5 55.7617 72.5H80.2403C83.6445 72.5 86.5 69.7468 86.5 66.2535V41.7465C86.5 38.3473 83.7388 35.5 80.2403 35.5Z" fill="#FEFEFE" stroke="#333333"/>
<path d="M75.4124 42.8229L75.3873 42.7978L75.3588 42.7765C74.8981 42.431 74.2178 42.3693 73.7641 42.8229L68 48.587L62.2359 42.8229C61.7822 42.3693 61.1019 42.431 60.6412 42.7765L60.6128 42.7978L60.5876 42.8229L56.8229 46.5876L56.7978 46.6127L56.7765 46.6412C56.431 47.1019 56.3693 47.7822 56.8229 48.2359L57.1765 47.8824L56.8229 48.2359L62.587 54L56.8229 59.7641L56.7978 59.7892L56.7765 59.8176C56.431 60.2783 56.3693 60.9587 56.8229 61.4124L60.5876 65.1771L60.6128 65.2022L60.6412 65.2235C61.1019 65.569 61.7822 65.6307 62.2359 65.1771L68 59.413L73.7641 65.1771L73.7892 65.2022L73.8177 65.2235C74.2783 65.569 74.9587 65.6307 75.4124 65.1771L79.1771 61.4124L79.2022 61.3872L79.2235 61.3588C79.5691 60.8981 79.6308 60.2178 79.1771 59.7641L73.413 54L79.1771 48.2359L79.2022 48.2108L79.2235 48.1824C79.5691 47.7217 79.6308 47.0413 79.1771 46.5876L75.4124 42.8229Z" fill="url(#paint0_linear_906_18668)" stroke="#333333"/>
<defs>
<linearGradient id="paint0_linear_906_18668" x1="54.9328" y1="39.5578" x2="70.0006" y2="56.1547" gradientUnits="userSpaceOnUse">
<stop stop-color="#FFC671"/>
<stop offset="1" stop-color="#FF6F3D"/>
</linearGradient>
</defs>
</svg>
