<svg width="48" height="48" viewBox="0 0 48 48" fill="none" xmlns="http://www.w3.org/2000/svg">
<path d="M6 2.21538C6 0.991861 6.96481 0 8.15497 0H34L42 8V45.7846C42 47.0081 41.0352 48 39.845 48H8.15496C6.96481 48 6 47.0081 6 45.7846V2.21538Z" fill="#9E1919"/>
<path d="M34 0L42 8H36C34.8954 8 34 7.10457 34 6V0Z" fill="black" fill-opacity="0.25"/>
<path fill-rule="evenodd" clip-rule="evenodd" d="M26.0062 20V21.0065H35V20H26.0062ZM26.0062 24V25.0163H35V24H26.0062ZM35 28H26.0062V29.0261H35V28ZM13 32.0293H35V33H13V32.0293ZM14 21H22V28H14V21ZM13 20H14H22H23V21V28V29H22H14H13V28V21V20Z" fill="white"/>
</svg>
