<svg width="24" height="24" viewBox="0 0 24 24" fill="none" xmlns="http://www.w3.org/2000/svg">
<mask id="mask0_58_26" style="mask-type:luminance" maskUnits="userSpaceOnUse" x="0" y="0" width="24" height="24">
<path d="M24 0H0V24H24V0Z" fill="white"/>
</mask>
<g mask="url(#mask0_58_26)">
<path d="M5.625 9.75V3.375C5.625 2.96079 5.961 2.625 6.375 2.625H14.3302C14.52 2.625 14.7022 2.69659 14.841 2.82541L19.635 7.27746C19.788 7.41937 19.875 7.6185 19.875 7.82708V20.625C19.875 21.0392 19.539 21.375 19.125 21.375H6.375C5.961 21.375 5.625 21.0392 5.625 20.625V18.75" stroke="#AA5252"/>
<path fill-rule="evenodd" clip-rule="evenodd" d="M6 11.4507C5.7795 11.3231 5.523 11.25 5.25 11.25H3V16.4977V16.5V17.25H3.75C4.164 17.25 4.5 16.9142 4.5 16.5V15H5.25C5.523 15 5.7795 14.927 6 14.7993C6.4485 14.54 6.75 14.0552 6.75 13.5V12.75C6.75 12.1948 6.4485 11.7101 6 11.4507ZM7.5 11.25V17.25H9.375C9.8145 17.25 10.197 17.1355 10.5 16.9289C10.9718 16.6067 11.25 16.0604 11.25 15.375V13.125C11.25 12.4396 10.9718 11.8933 10.5 11.5711C10.197 11.3645 9.8145 11.25 9.375 11.25H7.5ZM9 12.75H9.375C9.597 12.75 9.6645 12.8173 9.6735 12.8263C9.6825 12.8353 9.75 12.9034 9.75 13.125V15.375C9.75 15.5966 9.6825 15.6648 9.6735 15.6737C9.6645 15.6827 9.59625 15.75 9.375 15.75H9V12.75ZM12.2303 11.25H12V16.4981V16.5004V17.25H12.75C13.164 17.25 13.5 16.9144 13.5 16.5004V16.4985V15.008M13.5 14.9985L14.25 14.9993C14.253 14.9993 14.2553 14.9993 14.2583 14.9993C14.2673 14.9991 14.2755 14.9989 14.2845 14.9985C14.682 14.9809 14.9992 14.6531 15 14.2513C15 14.2508 15 14.2505 15 14.25C15 13.8642 14.7067 13.547 14.3317 13.508C14.3055 13.5053 14.2785 13.5039 14.2515 13.504C14.2507 13.504 14.2508 13.504 14.25 13.504L13.5 13.508V12.7538L15.0008 12.7513C15.2453 12.7508 15.4627 12.6331 15.5992 12.4513C15.6937 12.3256 15.75 12.1693 15.75 12C15.75 11.5858 15.414 11.25 15 11.25H12.2303M4.5 13.5H5.25V12.75H4.5V13.5Z" fill="#AA5252"/>
<path d="M14.625 4.125V7.875H18.375" stroke="#AA5252" stroke-linecap="round"/>
</g>
</svg>
