<svg width="18" height="18" viewBox="0 0 18 18" fill="none" xmlns="http://www.w3.org/2000/svg">
<path d="M14.2055 0.00858054C14.4979 -0.0295607 14.7521 0.0594896 14.9682 0.275356L17.485 2.80972C17.6122 2.92405 17.7203 3.07329 17.8092 3.25749C17.8982 3.44169 17.9554 3.62268 17.9808 3.80047C17.9808 3.81317 17.9841 3.85138 17.9904 3.91493C17.9968 3.97835 18 4.06092 18 4.16255C18 4.40398 17.9587 4.79465 17.876 5.33455C17.7934 5.87445 17.59 6.535 17.2659 7.31621C16.9417 8.0976 16.4554 8.98365 15.8072 9.97449C15.159 10.9653 14.2691 12.0198 13.1377 13.1377C12.2606 14.0269 11.4216 14.7637 10.6208 15.3481C9.8199 15.9325 9.07943 16.4025 8.39935 16.7582C7.71927 17.1139 7.10274 17.3807 6.54978 17.5586C5.99681 17.7364 5.52012 17.8571 5.11969 17.9206C4.71927 17.9841 4.40465 18.0095 4.17584 17.9968C3.94703 17.9841 3.81991 17.9778 3.79448 17.9778C3.61652 17.9524 3.43538 17.8952 3.25105 17.8063C3.06673 17.7173 2.91737 17.6094 2.80296 17.4823L0.266949 14.948C0.0889828 14.7701 -1.50067e-07 14.5669 -1.60062e-07 14.3382C-1.67281e-07 14.1731 0.0476692 14.027 0.143008 13.8999C0.238347 13.7729 0.355931 13.6649 0.495762 13.576L4.36652 11.5371C4.56991 11.4227 4.79236 11.391 5.03389 11.4418C5.27541 11.4926 5.4788 11.6006 5.64406 11.7657L6.57838 12.6994C6.6038 12.7248 6.64512 12.7471 6.70232 12.7661C6.75952 12.7852 6.80719 12.7947 6.84533 12.7947C7.11228 12.7439 7.41736 12.6296 7.76058 12.4517C8.06566 12.2993 8.43749 12.0643 8.87604 11.7467C9.3146 11.4291 9.81987 10.9781 10.3919 10.3937C10.9767 9.82208 11.4311 9.31394 11.7553 8.86932C12.0793 8.42478 12.3178 8.05308 12.4703 7.75455C12.6229 7.45601 12.715 7.22735 12.7467 7.06858L12.7944 6.83046C12.7944 6.80505 12.7848 6.76367 12.7658 6.70657C12.7467 6.6494 12.7245 6.60811 12.699 6.58267L11.5931 5.49655C11.3897 5.26776 11.2881 5.00111 11.2881 4.6962C11.2881 4.48017 11.3262 4.30877 11.4025 4.18173L11.4025 4.16271L13.5762 0.485059C13.7416 0.218191 13.9512 0.0594267 14.2055 0.00858054Z" fill="#444444"/>
</svg>
