<svg width="25" height="24" viewBox="0 0 25 24" fill="none" xmlns="http://www.w3.org/2000/svg">
<path d="M17.1823 4.00763C17.4422 3.97372 17.6682 4.05288 17.8602 4.24476L20.0974 6.49753C20.2104 6.59915 20.3066 6.73181 20.3856 6.89554C20.4647 7.05928 20.5155 7.22016 20.5381 7.3782C20.5381 7.38949 20.541 7.42345 20.5467 7.47993C20.5523 7.53631 20.5552 7.60971 20.5552 7.70005C20.5552 7.91465 20.5185 8.26191 20.445 8.74182C20.3715 9.22173 20.1907 9.80889 19.9026 10.5033C19.6145 11.1979 19.1822 11.9855 18.606 12.8662C18.0298 13.747 17.2388 14.6842 16.2331 15.6779C15.4535 16.4684 14.7077 17.1233 13.9959 17.6428C13.284 18.1622 12.6258 18.58 12.0213 18.8962C11.4167 19.2124 10.8687 19.4495 10.3772 19.6076C9.88567 19.7657 9.46195 19.873 9.10602 19.9294C8.75008 19.9859 8.47042 20.0085 8.26703 19.9972C8.06364 19.9859 7.95065 19.9802 7.92805 19.9802C7.76986 19.9577 7.60884 19.9068 7.445 19.8278C7.28116 19.7488 7.14839 19.6528 7.0467 19.5398L4.79246 17.2871C4.63427 17.129 4.55518 16.9483 4.55518 16.7451C4.55518 16.5983 4.59755 16.4684 4.68229 16.3555C4.76704 16.2426 4.87156 16.1466 4.99585 16.0675L8.43652 14.2552C8.61732 14.1535 8.81506 14.1253 9.02974 14.1705C9.24443 14.2156 9.42522 14.3116 9.57212 14.4584L10.4026 15.2884C10.4252 15.311 10.4619 15.3307 10.5128 15.3477C10.5636 15.3646 10.606 15.3731 10.6399 15.3731C10.8772 15.3279 11.1484 15.2263 11.4535 15.0682C11.7247 14.9327 12.0552 14.7238 12.445 14.4415C12.8348 14.1592 13.2839 13.7583 13.7924 13.2389C14.3122 12.7307 14.7161 12.2791 15.0043 11.8838C15.2924 11.4887 15.5043 11.1583 15.6399 10.8929C15.7755 10.6276 15.8574 10.4243 15.8856 10.2832L15.928 10.0715C15.928 10.0489 15.9195 10.0121 15.9026 9.96139C15.8856 9.91058 15.8658 9.87388 15.8432 9.85127L14.8602 8.88582C14.6794 8.68246 14.589 8.44543 14.589 8.1744C14.589 7.98237 14.6229 7.83002 14.6907 7.7171L14.6907 7.70019L16.6229 4.43116C16.7699 4.19395 16.9563 4.05282 17.1823 4.00763Z" fill="white"/>
</svg>
