<svg width="240" height="84" viewBox="0 0 240 84" fill="none" xmlns="http://www.w3.org/2000/svg">
<path d="M5 8.11484L13.9899 6.89424L13.9948 15.5395L5.00855 15.5907L5 8.11484ZM13.9862 16.536L13.9936 25.1886L5.00733 23.957V16.4775L13.9862 16.536ZM15.0762 6.73466L26.9963 5V15.4299L15.0762 15.5237V6.73466ZM27 16.6176L26.9963 27L15.0762 25.3214L15.0591 16.5981L27 16.6176Z" fill="#CDCFD1"/>
<path d="M76 16.9404C75.5624 17.929 75.3532 18.371 74.7912 19.2446C74.0061 20.4647 72.8976 21.9872 71.5271 21.9976C70.3081 22.0081 69.9934 21.186 68.339 21.1994C66.6847 21.2076 66.34 22.0125 65.1195 21.9999C63.7491 21.9872 62.6998 20.6155 61.9139 19.3977C59.7166 15.9817 59.4847 11.978 60.8427 9.84774C61.8034 8.33722 63.3239 7.45017 64.7515 7.45017C66.2054 7.45017 67.1193 8.26554 68.3215 8.26554C69.4878 8.26554 70.1983 7.44793 71.8798 7.44793C73.1515 7.44793 74.4963 8.15503 75.4571 9.3751C72.3137 11.1328 72.8244 15.7144 76 16.9404ZM70.6037 6.08451C71.2154 5.28333 71.6793 4.15286 71.511 3C70.5129 3.06944 69.3459 3.71979 68.6639 4.56204C68.0464 5.32887 67.5342 6.4683 67.7339 7.57039C68.8227 7.60623 69.9495 6.94393 70.6037 6.08451Z" fill="#CDCFD1"/>
<path d="M54 28.9034H55.0979V26.2917C55.0979 25.7766 55.4683 25.4024 55.9975 25.4024C56.5089 25.4024 56.8264 25.6961 56.8264 26.171V28.9033H57.8935V26.2675C57.8935 25.7564 58.255 25.4023 58.7841 25.4023C59.3221 25.4023 59.6219 25.7001 59.6219 26.2232V28.9033H60.7198V25.9778C60.7198 25.1247 60.1158 24.5573 59.1942 24.5573C58.5195 24.5573 57.964 24.8873 57.739 25.4145H57.7126C57.5406 24.8672 57.0688 24.5573 56.4075 24.5573C55.7725 24.5573 55.2787 24.8833 55.0759 25.3783H55.0538V24.6378H54L54 28.9034ZM63.1231 28.2152C62.6469 28.2152 62.3294 27.9939 62.3294 27.6438C62.3294 27.3058 62.6337 27.0885 63.1628 27.0563L64.243 26.9959V27.3219C64.243 27.837 63.7448 28.2152 63.1231 28.2152ZM62.7924 28.9718C63.392 28.9718 63.9785 28.6861 64.2475 28.2233H64.2695V28.9034H65.3278V25.9657C65.3278 25.1086 64.5738 24.5493 63.4142 24.5493C62.2236 24.5493 61.4785 25.1207 61.43 25.9174H62.4485C62.5191 25.5633 62.8498 25.3339 63.3701 25.3339C63.9124 25.3339 64.2431 25.5915 64.2431 26.0381V26.344L63.0085 26.4084C61.8709 26.4728 61.2315 26.9275 61.2315 27.684C61.2315 28.4526 61.8885 28.9718 62.7924 28.9718ZM70.1473 26.1589C70.0724 25.2615 69.3095 24.5493 68.075 24.5493C66.7169 24.5493 65.835 25.4064 65.835 26.7705C65.835 28.1549 66.7169 28.9877 68.0838 28.9877C69.2567 28.9877 70.0636 28.36 70.1517 27.4062H69.1155C69.0141 27.8891 68.6525 28.1789 68.097 28.1789C67.4003 28.1789 66.9506 27.6638 66.9506 26.7704C66.9506 25.8932 67.3959 25.362 68.0882 25.362C68.6746 25.362 69.0229 25.704 69.1111 26.1587L70.1473 26.1589ZM73.5383 23C71.682 23 70.5179 24.1549 70.5179 26.002C70.5179 27.8491 71.6819 29 73.5383 29C75.3902 29 76.5543 27.8491 76.5543 26.002C76.5543 24.1549 75.3903 23 73.5383 23ZM73.5383 23.8853C74.6715 23.8853 75.3946 24.7062 75.3946 26.002C75.3946 27.2937 74.6715 28.1147 73.5383 28.1147C72.4007 28.1147 71.682 27.2937 71.682 26.002C71.682 24.7062 72.4007 23.8853 73.5383 23.8853ZM77.0174 27.2696C77.0659 28.3401 78.0272 29 79.4911 29C81.0299 29 82 28.3078 82 27.2052C82 26.34 81.4532 25.8531 80.1613 25.5835L79.4294 25.4306C78.6489 25.2616 78.327 25.0363 78.327 24.6499C78.327 24.1671 78.8121 23.8451 79.5308 23.8451C80.2583 23.8451 80.7565 24.1711 80.8095 24.7143H81.8942C81.8677 23.6922 80.9418 23 79.5396 23C78.1551 23 77.1718 23.6962 77.1718 24.7264C77.1718 25.5553 77.7274 26.0704 78.9002 26.3159L79.7247 26.493C80.5272 26.666 80.8535 26.9075 80.8535 27.326C80.8535 27.8089 80.32 28.1549 79.5528 28.1549C78.7768 28.1549 78.1904 27.8049 78.1198 27.2696H77.0174Z" fill="#CDCFD1"/>
<path d="M120.56 3C120.388 3 120.21 3.00867 120.027 3.02275C115.324 3.38347 116.572 8.22996 116.5 9.84509C116.415 11.0291 116.167 11.9618 115.331 13.1176C114.346 14.2561 112.964 16.0966 112.309 18.015C112 18.9163 111.853 19.8392 111.99 20.7112C111.938 20.7511 111.896 20.8009 111.866 20.8575C111.577 21.1478 111.366 21.5085 111.129 21.7663C110.908 21.9819 110.59 22.0556 110.243 22.1996C109.894 22.3469 109.511 22.491 109.281 22.9373C109.181 23.141 109.13 23.363 109.134 23.5884C109.134 23.8039 109.165 24.0227 109.196 24.169C109.26 24.6012 109.325 24.9587 109.239 25.2197C108.963 25.9564 108.929 26.4612 109.122 26.8284C109.316 27.1902 109.718 27.3364 110.167 27.4794C111.069 27.6961 112.292 27.6257 113.255 28.1283C114.285 28.6342 115.331 28.8551 116.165 28.6374C116.751 28.5128 117.245 28.1359 117.51 27.6137C118.163 27.6105 118.878 27.3223 120.024 27.2519C120.802 27.1891 121.775 27.5412 122.893 27.4675C122.92 27.6137 122.963 27.6831 123.019 27.8293L123.023 27.8326C123.458 28.6753 124.261 29.0588 125.119 28.9927C125.977 28.9277 126.89 28.4121 127.63 27.578C128.332 26.7493 129.503 26.4037 130.276 25.9499C130.663 25.7343 130.976 25.4418 130.998 25.0258C131.024 24.5925 130.777 24.1462 130.204 23.5342V23.4291L130.2 23.4259C130.011 23.2092 129.922 22.8463 129.824 22.4228C129.73 21.9884 129.622 21.5713 129.277 21.2897H129.274C129.208 21.2312 129.137 21.2171 129.064 21.1434C129.002 21.1012 128.929 21.0771 128.853 21.0741C129.333 19.6897 129.147 18.3118 128.661 17.0726C128.068 15.5452 127.031 14.2149 126.241 13.2996C125.355 12.2109 124.487 11.1797 124.504 9.65011C124.534 7.31894 124.767 3.0065 120.56 3ZM121.149 6.68849H121.163C121.4 6.68849 121.604 6.75565 121.813 6.90297C122.026 7.04921 122.18 7.26261 122.302 7.48035C122.419 7.76091 122.478 7.97756 122.486 8.26462C122.486 8.24296 122.493 8.22129 122.493 8.20071V8.31337C122.491 8.306 122.489 8.29835 122.489 8.29062L122.484 8.26462C122.482 8.52788 122.425 8.788 122.317 9.0294C122.265 9.16522 122.185 9.28887 122.08 9.39229C122.049 9.37496 122.016 9.35976 121.982 9.3468C121.866 9.29805 121.761 9.27747 121.665 9.20272C121.586 9.17203 121.505 9.14811 121.422 9.13123C121.476 9.06731 121.583 8.98715 121.624 8.91674C121.683 8.77809 121.715 8.63076 121.722 8.48127V8.46069C121.725 8.31357 121.702 8.16709 121.654 8.02739C121.604 7.88115 121.542 7.80966 121.451 7.66558C121.357 7.59409 121.265 7.52259 121.153 7.52259H121.136C121.032 7.52259 120.94 7.55509 120.844 7.66558C120.738 7.76591 120.66 7.89024 120.616 8.02739C120.557 8.16503 120.523 8.31168 120.516 8.46069V8.48127C120.518 8.57768 120.525 8.67518 120.538 8.7705C120.323 8.69793 120.051 8.62426 119.863 8.55169C119.852 8.48029 119.845 8.4083 119.843 8.33612V8.31445C119.834 8.02813 119.891 7.7435 120.01 7.48143C120.101 7.2442 120.268 7.04163 120.488 6.90405C120.678 6.76409 120.91 6.6884 121.149 6.68849ZM117.853 6.7524H117.893C118.051 6.7524 118.194 6.80439 118.337 6.89864C118.5 7.03838 118.631 7.21061 118.72 7.40235C118.82 7.61792 118.877 7.83674 118.89 8.12488V8.12922C118.898 8.27437 118.897 8.34695 118.888 8.41736V8.50402C118.855 8.5116 118.826 8.52352 118.796 8.53002C118.627 8.5896 118.491 8.67626 118.358 8.74667C118.372 8.65026 118.373 8.55277 118.362 8.45744V8.44119C118.348 8.29712 118.318 8.22563 118.271 8.08047C118.236 7.97007 118.172 7.87038 118.086 7.79124C118.058 7.76696 118.026 7.74831 117.991 7.7364C117.956 7.72449 117.919 7.71956 117.882 7.72191H117.859C117.78 7.72841 117.714 7.76632 117.652 7.8649C117.581 7.94877 117.535 8.04989 117.518 8.15738C117.488 8.27449 117.48 8.39588 117.493 8.51594V8.5311C117.506 8.67734 117.534 8.74884 117.583 8.89291C117.633 9.03807 117.691 9.10956 117.767 9.18322C117.779 9.19297 117.79 9.20272 117.804 9.20922C117.726 9.27097 117.674 9.28505 117.609 9.35654C117.567 9.39235 117.517 9.41764 117.463 9.43021C117.347 9.29461 117.245 9.14882 117.157 8.99474C117.052 8.7671 116.993 8.52168 116.984 8.27221C116.966 8.02767 116.996 7.78197 117.073 7.54859C117.135 7.33575 117.242 7.13814 117.388 6.96905C117.531 6.82498 117.678 6.7524 117.853 6.7524ZM119.379 8.60043C119.747 8.60043 120.193 8.67084 120.731 9.03265C121.057 9.2493 121.313 9.32405 121.902 9.53961H121.906C122.189 9.68694 122.356 9.82776 122.437 9.97183V9.82993C122.477 9.90869 122.5 9.99484 122.503 10.0826C122.506 10.1704 122.49 10.2578 122.455 10.3391C122.318 10.6759 121.881 11.0367 121.271 11.2522V11.2544C120.973 11.4006 120.714 11.6151 120.409 11.7581C120.102 11.9044 119.755 12.0744 119.283 12.0474C119.114 12.0559 118.944 12.0312 118.785 11.9748C118.661 11.9095 118.542 11.8379 118.426 11.7603C118.209 11.614 118.022 11.4006 117.745 11.2566V11.2512H117.74C117.295 10.9847 117.054 10.6965 116.977 10.481C116.9 10.1907 116.971 9.97292 117.191 9.83101C117.441 9.68477 117.614 9.53745 117.729 9.46704C117.844 9.38688 117.888 9.35654 117.925 9.32513H117.927V9.32188C118.115 9.10306 118.412 8.81383 118.86 8.67084C119.015 8.63185 119.187 8.60043 119.379 8.60043ZM122.493 10.9218C122.893 12.4568 123.825 14.6862 124.425 15.7673C124.743 16.3457 125.376 17.5644 125.651 19.043C125.824 19.0376 126.017 19.0625 126.222 19.1123C126.94 17.3022 125.614 15.3567 125.01 14.8162C124.764 14.5984 124.752 14.4533 124.873 14.4533C125.528 15.0317 126.392 16.1561 126.705 17.4398C126.848 18.0193 126.881 18.6357 126.728 19.2488C126.802 19.2792 126.878 19.3149 126.956 19.3214C128.104 19.8999 128.528 20.3375 128.325 20.9864V20.9398C128.257 20.9365 128.191 20.9398 128.123 20.9398H128.106C128.274 20.4339 127.904 20.0461 126.921 19.6139C125.903 19.1806 125.09 19.2499 124.951 20.1176C124.943 20.1642 124.938 20.1891 124.932 20.2638C124.856 20.2888 124.777 20.3213 124.699 20.3332C124.221 20.6235 123.963 21.0579 123.817 21.619C123.673 22.1964 123.628 22.8712 123.589 23.6436V23.6469C123.566 24.0087 123.399 24.5546 123.234 25.1103C121.565 26.2716 119.251 26.7764 117.283 25.4721C117.159 25.2621 117.009 25.0681 116.835 24.8948C116.752 24.7599 116.649 24.638 116.529 24.533C116.732 24.533 116.905 24.5015 117.047 24.4604C117.207 24.3881 117.332 24.2585 117.396 24.0986C117.516 23.8093 117.396 23.3435 117.012 22.8387C116.628 22.3329 115.976 21.7609 115.023 21.1911C114.322 20.7589 113.926 20.2487 113.743 19.6789C113.56 19.1004 113.584 18.5036 113.726 17.8969C113.999 16.7378 114.698 15.6113 115.144 14.9039C115.263 14.8335 115.185 15.0501 114.69 15.959C114.249 16.7725 113.42 18.6639 114.554 20.1339C114.597 19.0613 114.841 18.0055 115.274 17.0184C115.902 15.634 117.214 13.2227 117.317 11.3118C117.37 11.3508 117.558 11.4581 117.639 11.5306C117.881 11.6747 118.061 11.8914 118.295 12.0344C118.53 12.2521 118.826 12.3972 119.27 12.3972C119.313 12.4005 119.353 12.4037 119.393 12.4037C119.851 12.4037 120.204 12.2586 120.501 12.1134C120.824 11.9683 121.081 11.7516 121.325 11.6801H121.33C121.85 11.5339 122.261 11.2447 122.493 10.9218ZM124.925 20.6257C124.967 21.2767 125.307 21.9743 125.907 22.1173C126.561 22.2625 127.502 21.7566 127.9 21.2886L128.134 21.2789C128.485 21.2702 128.776 21.2897 129.077 21.5681L129.08 21.5713C129.311 21.7869 129.419 22.1465 129.515 22.5203C129.61 22.9547 129.686 23.3652 129.97 23.675C130.511 24.2459 130.688 24.6564 130.678 24.9099L130.681 24.9034V24.9229L130.678 24.9099C130.661 25.1937 130.472 25.3389 130.124 25.5545C129.423 25.9888 128.181 26.3257 127.39 27.2552C126.702 28.0535 125.864 28.489 125.125 28.5453C124.386 28.6027 123.748 28.3287 123.373 27.5726L123.368 27.5693C123.134 27.1349 123.234 26.459 123.43 25.7386C123.626 25.015 123.906 24.2816 123.945 23.6826C123.986 22.9092 124.03 22.2365 124.162 21.7176C124.296 21.2139 124.505 20.8542 124.875 20.6517L124.925 20.6278V20.6257ZM112.892 20.6787H112.903C112.962 20.6787 113.02 20.6841 113.078 20.6939C113.496 20.7535 113.863 21.0546 114.216 21.5085L115.229 23.311L115.232 23.3143C115.502 23.8917 116.071 24.4669 116.555 25.0887C117.038 25.7365 117.412 26.3138 117.366 26.7894V26.7959C117.303 27.6018 116.833 28.0395 116.114 28.1976C115.397 28.3438 114.423 28.1998 113.449 27.695C112.372 27.1144 111.093 27.1869 110.271 27.0429C109.86 26.9714 109.591 26.8251 109.466 26.6085C109.343 26.3929 109.34 25.9574 109.603 25.2761V25.2728L109.605 25.2696C109.735 24.9078 109.639 24.4539 109.575 24.0574C109.514 23.623 109.483 23.2894 109.623 23.0391C109.801 22.6773 110.064 22.6069 110.39 22.4618C110.718 22.3155 111.103 22.243 111.409 21.9537H111.411V21.9505C111.696 21.6602 111.906 21.2994 112.154 21.0427C112.366 20.825 112.577 20.6787 112.892 20.6787ZM120.857 10.8493C120.373 11.067 119.806 11.4288 119.202 11.4288C118.599 11.4288 118.123 11.1396 117.779 10.924C117.606 10.7789 117.467 10.6337 117.363 10.5611C117.18 10.416 117.202 10.1993 117.28 10.1993C117.402 10.2166 117.424 10.3456 117.502 10.4171C117.609 10.4885 117.741 10.6326 117.903 10.7778C118.227 10.9944 118.66 11.2837 119.201 11.2837C119.74 11.2837 120.372 10.9944 120.756 10.7789C120.973 10.6326 121.251 10.4171 121.477 10.273C121.651 10.1246 121.643 9.98267 121.788 9.98267C121.931 10 121.826 10.1278 121.624 10.3434C121.377 10.5251 121.121 10.6943 120.856 10.8504V10.8493H120.857ZM119.654 9.13339V9.10956C119.647 9.08898 119.668 9.06407 119.686 9.0554C119.768 9.00882 119.886 9.02615 119.975 9.05973C120.045 9.05973 120.153 9.13231 120.142 9.20597C120.135 9.25905 120.047 9.27747 119.992 9.27747C119.931 9.27747 119.889 9.23089 119.835 9.20381C119.777 9.18431 119.673 9.19514 119.654 9.13339ZM119.041 9.13339C119.018 9.19622 118.915 9.18647 118.856 9.20489C118.804 9.23197 118.76 9.27855 118.701 9.27855C118.644 9.27855 118.555 9.25797 118.549 9.20489C118.539 9.13339 118.647 9.06082 118.716 9.06082C118.806 9.02723 118.92 9.0099 119.004 9.0554C119.025 9.06515 119.044 9.0879 119.037 9.10956V9.13231H119.041V9.13339Z" fill="#CDCFD1"/>
<path d="M181.154 11.2624C180.134 11.2624 179.309 12.0899 179.309 13.1113V19.6647C179.309 20.1554 179.503 20.626 179.849 20.973C180.195 21.32 180.665 21.5149 181.154 21.5149C181.644 21.5149 182.113 21.32 182.459 20.973C182.806 20.626 183 20.1554 183 19.6647V13.1113C183 12.0899 182.175 11.2624 181.154 11.2624ZM162.846 11.2624C161.825 11.2624 161 12.0899 161 13.1113V19.6647C161 20.1554 161.194 20.626 161.541 20.973C161.887 21.32 162.356 21.5149 162.846 21.5149C163.335 21.5149 163.805 21.32 164.151 20.973C164.497 20.626 164.691 20.1554 164.691 19.6647V13.1113C164.691 12.8683 164.644 12.6277 164.551 12.4032C164.458 12.1787 164.322 11.9747 164.151 11.803C163.98 11.6313 163.776 11.4951 163.552 11.4024C163.328 11.3096 163.088 11.262 162.846 11.2624ZM175.672 5.75207L176.781 3.7441C176.813 3.68693 176.834 3.62388 176.842 3.55861C176.85 3.49334 176.844 3.42715 176.827 3.36389C176.809 3.30063 176.778 3.24155 176.738 3.1901C176.697 3.13864 176.646 3.09584 176.589 3.06416C176.531 3.03177 176.468 3.01112 176.403 3.00341C176.338 2.9957 176.271 3.00109 176.208 3.01926C176.145 3.03743 176.086 3.06803 176.035 3.10926C175.983 3.1505 175.941 3.20156 175.909 3.25946L174.771 5.31373C173.922 4.97376 172.987 4.78136 172 4.78136C171.013 4.78136 170.078 4.97232 169.229 5.31228L168.091 3.26091C168.059 3.203 168.017 3.15195 167.965 3.11071C167.914 3.06947 167.855 3.03888 167.792 3.02071C167.729 3.00254 167.662 2.99715 167.597 3.00486C167.532 3.01257 167.469 3.03322 167.411 3.06561C167.354 3.09757 167.304 3.14052 167.263 3.19201C167.222 3.2435 167.192 3.30251 167.175 3.36567C167.157 3.42882 167.152 3.49489 167.159 3.56007C167.167 3.62526 167.187 3.68828 167.219 3.74554L168.328 5.75352C166.332 6.89349 164.999 8.93184 164.999 11.2624C164.999 11.2783 164.999 11.2928 165.001 11.3116C164.999 11.3203 164.999 11.3304 164.999 11.3391V11.3405H179V11.3391V11.3116V11.2624C179.001 8.93184 177.668 6.89494 175.672 5.75207ZM168.768 8.59911C168.702 8.59863 168.637 8.5852 168.577 8.55957C168.516 8.53394 168.461 8.49662 168.415 8.44973C168.322 8.35505 168.27 8.22717 168.271 8.09422C168.272 7.96128 168.326 7.83416 168.42 7.74083C168.515 7.6475 168.642 7.59561 168.775 7.59657C168.908 7.59753 169.034 7.65126 169.127 7.74595C169.221 7.84063 169.272 7.96851 169.271 8.10146C169.27 8.2344 169.217 8.36152 169.122 8.45485C169.028 8.54818 168.9 8.60007 168.768 8.59911ZM175.232 8.59911C175.106 8.58951 174.989 8.53261 174.903 8.4398C174.817 8.34698 174.77 8.22511 174.77 8.09856C174.77 7.97202 174.817 7.85014 174.903 7.75733C174.989 7.66452 175.106 7.60762 175.232 7.59802C175.365 7.59802 175.492 7.65075 175.585 7.74462C175.679 7.83849 175.732 7.96581 175.732 8.09856C175.732 8.23132 175.679 8.35863 175.585 8.4525C175.492 8.54637 175.365 8.59911 175.232 8.59911ZM164.999 21.9822C164.999 22.9168 165.756 23.6763 166.693 23.6763H167.538V27.1497C167.538 27.6404 167.733 28.1111 168.079 28.4581C168.425 28.8051 168.894 29 169.384 29C169.873 29 170.343 28.8051 170.689 28.4581C171.035 28.1111 171.229 27.6404 171.229 27.1497V23.6763H172.768V27.1497C172.768 28.1725 173.593 28.9986 174.61 28.9986C175.633 28.9986 176.459 28.1725 176.459 27.1497V23.6763H177.305C178.24 23.6763 178.999 22.9182 178.999 21.9822V11.7225H164.999V21.9822Z" fill="#CDCFD1"/>
<path d="M210.787 22.4004H213V13.0137H210.787V22.4004ZM211.894 11.7871C212.053 11.7906 212.212 11.7622 212.361 11.7035C212.51 11.6448 212.645 11.5569 212.759 11.4452C212.874 11.3334 212.965 11.1999 213.026 11.0525C213.088 10.9052 213.12 10.7469 213.12 10.5871C213.12 9.92036 212.587 9.38701 211.894 9.38701C211.734 9.38346 211.575 9.41188 211.426 9.47059C211.278 9.5293 211.142 9.61714 211.028 9.72893C210.914 9.84071 210.823 9.97419 210.761 10.1216C210.699 10.269 210.667 10.4272 210.667 10.5871C210.667 11.2537 211.2 11.7871 211.894 11.7871ZM220.334 9.41369C216.614 9.41369 214.267 11.9471 214.267 16.0004C214.267 20.0804 216.614 22.6137 220.334 22.6137C224.054 22.6137 226.4 20.0804 226.4 16.0004C226.4 11.9471 224.054 9.41369 220.334 9.41369ZM220.334 11.3337C222.614 11.3337 224.067 13.1604 224.067 16.0004C224.067 18.8671 222.614 20.6671 220.334 20.6671C218.054 20.6671 216.614 18.8671 216.614 16.0004C216.614 13.1604 218.054 11.3337 220.334 11.3337ZM227.334 18.8137C227.427 21.1604 229.334 22.6137 232.294 22.6137C235.387 22.6137 237.334 21.0937 237.334 18.6671C237.334 16.7604 236.24 15.6937 233.64 15.0937L232.174 14.7604C230.6 14.3871 229.96 13.8937 229.96 13.0404C229.96 12.0004 230.934 11.2671 232.374 11.2671C233.84 11.2671 234.84 12.0004 234.947 13.1871H237.12C237.067 10.9337 235.214 9.41369 232.387 9.41369C229.614 9.41369 227.64 10.9471 227.64 13.2137C227.64 15.0404 228.747 16.1737 231.107 16.7071L232.76 17.0937C234.374 17.4804 235.027 18.0004 235.027 18.9337C235.027 20.0004 233.96 20.7604 232.414 20.7604C230.867 20.7604 229.68 20.0004 229.547 18.8137H227.334Z" fill="#CDCFD1"/>
<path d="M5 60.1148L13.9899 58.8942L13.9948 67.5395L5.00855 67.5907L5 60.1148ZM13.9862 68.536L13.9936 77.1886L5.00733 75.957V68.4775L13.9862 68.536ZM15.0762 58.7347L26.9963 57V67.4299L15.0762 67.5237V58.7347ZM27 68.6176L26.9963 79L15.0762 77.3214L15.0591 68.5981L27 68.6176Z" fill="#4C83CD"/>
<path d="M76 68.9404C75.5624 69.929 75.3532 70.371 74.7912 71.2446C74.0061 72.4647 72.8976 73.9872 71.5271 73.9976C70.3081 74.0081 69.9934 73.186 68.339 73.1994C66.6847 73.2076 66.34 74.0125 65.1195 73.9999C63.7491 73.9872 62.6998 72.6155 61.9139 71.3977C59.7166 67.9817 59.4847 63.978 60.8427 61.8477C61.8034 60.3372 63.3239 59.4502 64.7515 59.4502C66.2054 59.4502 67.1193 60.2655 68.3215 60.2655C69.4878 60.2655 70.1983 59.4479 71.8798 59.4479C73.1515 59.4479 74.4963 60.155 75.4571 61.3751C72.3137 63.1328 72.8244 67.7144 76 68.9404ZM70.6037 58.0845C71.2154 57.2833 71.6793 56.1529 71.511 55C70.5129 55.0694 69.3459 55.7198 68.6639 56.562C68.0464 57.3289 67.5342 58.4683 67.7339 59.5704C68.8227 59.6062 69.9495 58.9439 70.6037 58.0845Z" fill="black"/>
<path d="M54 80.9034H55.0979V78.2917C55.0979 77.7766 55.4683 77.4024 55.9975 77.4024C56.5089 77.4024 56.8264 77.6961 56.8264 78.171V80.9033H57.8935V78.2675C57.8935 77.7564 58.255 77.4023 58.7841 77.4023C59.3221 77.4023 59.6219 77.7001 59.6219 78.2232V80.9033H60.7198V77.9778C60.7198 77.1247 60.1158 76.5573 59.1942 76.5573C58.5195 76.5573 57.964 76.8873 57.739 77.4145H57.7126C57.5406 76.8672 57.0688 76.5573 56.4075 76.5573C55.7725 76.5573 55.2787 76.8833 55.0759 77.3783H55.0538V76.6378H54L54 80.9034ZM63.1231 80.2152C62.6469 80.2152 62.3294 79.9939 62.3294 79.6438C62.3294 79.3058 62.6337 79.0885 63.1628 79.0563L64.243 78.9959V79.3219C64.243 79.837 63.7448 80.2152 63.1231 80.2152ZM62.7924 80.9718C63.392 80.9718 63.9785 80.6861 64.2475 80.2233H64.2695V80.9034H65.3278V77.9657C65.3278 77.1086 64.5738 76.5493 63.4142 76.5493C62.2236 76.5493 61.4785 77.1207 61.43 77.9174H62.4485C62.5191 77.5633 62.8498 77.3339 63.3701 77.3339C63.9124 77.3339 64.2431 77.5915 64.2431 78.0381V78.344L63.0085 78.4084C61.8709 78.4728 61.2315 78.9275 61.2315 79.684C61.2315 80.4526 61.8885 80.9718 62.7924 80.9718ZM70.1473 78.1589C70.0724 77.2615 69.3095 76.5493 68.075 76.5493C66.7169 76.5493 65.835 77.4064 65.835 78.7705C65.835 80.1549 66.7169 80.9877 68.0838 80.9877C69.2567 80.9877 70.0636 80.36 70.1517 79.4062H69.1155C69.0141 79.8891 68.6525 80.1789 68.097 80.1789C67.4003 80.1789 66.9506 79.6638 66.9506 78.7704C66.9506 77.8932 67.3959 77.362 68.0882 77.362C68.6746 77.362 69.0229 77.704 69.1111 78.1587L70.1473 78.1589ZM73.5383 75C71.682 75 70.5179 76.1549 70.5179 78.002C70.5179 79.8491 71.6819 81 73.5383 81C75.3902 81 76.5543 79.8491 76.5543 78.002C76.5543 76.1549 75.3903 75 73.5383 75ZM73.5383 75.8853C74.6715 75.8853 75.3946 76.7062 75.3946 78.002C75.3946 79.2937 74.6715 80.1147 73.5383 80.1147C72.4007 80.1147 71.682 79.2937 71.682 78.002C71.682 76.7062 72.4007 75.8853 73.5383 75.8853ZM77.0174 79.2696C77.0659 80.3401 78.0272 81 79.4911 81C81.0299 81 82 80.3078 82 79.2052C82 78.34 81.4532 77.8531 80.1613 77.5835L79.4294 77.4306C78.6489 77.2616 78.327 77.0363 78.327 76.6499C78.327 76.1671 78.8121 75.8451 79.5308 75.8451C80.2583 75.8451 80.7565 76.1711 80.8095 76.7143H81.8942C81.8677 75.6922 80.9418 75 79.5396 75C78.1551 75 77.1718 75.6962 77.1718 76.7264C77.1718 77.5553 77.7274 78.0704 78.9002 78.3159L79.7247 78.493C80.5272 78.666 80.8535 78.9075 80.8535 79.326C80.8535 79.8089 80.32 80.1549 79.5528 80.1549C78.7768 80.1549 78.1904 79.8049 78.1198 79.2696H77.0174Z" fill="black"/>
<path d="M120.56 55C120.388 55 120.21 55.0087 120.027 55.0227C115.324 55.3835 116.572 60.23 116.5 61.8451C116.415 63.0291 116.167 63.9618 115.331 65.1176C114.346 66.2561 112.964 68.0966 112.309 70.015C112 70.9163 111.853 71.8392 111.99 72.7112C111.938 72.7511 111.896 72.8009 111.866 72.8575C111.577 73.1478 111.366 73.5085 111.129 73.7663C110.908 73.9819 110.59 74.0556 110.243 74.1996C109.894 74.3469 109.511 74.491 109.281 74.9373C109.181 75.141 109.13 75.363 109.134 75.5884C109.134 75.8039 109.165 76.0227 109.196 76.169C109.26 76.6012 109.325 76.9587 109.239 77.2197C108.963 77.9564 108.929 78.4612 109.122 78.8284C109.316 79.1902 109.718 79.3364 110.167 79.4794C111.069 79.6961 112.292 79.6257 113.255 80.1283C114.285 80.6342 115.331 80.8551 116.165 80.6374C116.751 80.5128 117.245 80.1359 117.51 79.6137C118.163 79.6105 118.878 79.3223 120.024 79.2519C120.802 79.1891 121.775 79.5412 122.893 79.4675C122.92 79.6137 122.963 79.6831 123.019 79.8293L123.023 79.8326C123.458 80.6753 124.261 81.0588 125.119 80.9927C125.977 80.9277 126.89 80.4121 127.63 79.578C128.332 78.7493 129.503 78.4037 130.276 77.9499C130.663 77.7343 130.976 77.4418 130.998 77.0258C131.024 76.5925 130.777 76.1462 130.204 75.5342V75.4291L130.2 75.4259C130.011 75.2092 129.922 74.8463 129.824 74.4228C129.73 73.9884 129.622 73.5713 129.277 73.2897H129.274C129.208 73.2312 129.137 73.2171 129.064 73.1434C129.002 73.1012 128.929 73.0771 128.853 73.0741C129.333 71.6897 129.147 70.3118 128.661 69.0726C128.068 67.5452 127.031 66.2149 126.241 65.2996C125.355 64.2109 124.487 63.1797 124.504 61.6501C124.534 59.3189 124.767 55.0065 120.56 55ZM121.149 58.6885H121.163C121.4 58.6885 121.604 58.7556 121.813 58.903C122.026 59.0492 122.18 59.2626 122.302 59.4804C122.419 59.7609 122.478 59.9776 122.486 60.2646C122.486 60.243 122.493 60.2213 122.493 60.2007V60.3134C122.491 60.306 122.489 60.2983 122.489 60.2906L122.484 60.2646C122.482 60.5279 122.425 60.788 122.317 61.0294C122.265 61.1652 122.185 61.2889 122.08 61.3923C122.049 61.375 122.016 61.3598 121.982 61.3468C121.866 61.298 121.761 61.2775 121.665 61.2027C121.586 61.172 121.505 61.1481 121.422 61.1312C121.476 61.0673 121.583 60.9872 121.624 60.9167C121.683 60.7781 121.715 60.6308 121.722 60.4813V60.4607C121.725 60.3136 121.702 60.1671 121.654 60.0274C121.604 59.8811 121.542 59.8097 121.451 59.6656C121.357 59.5941 121.265 59.5226 121.153 59.5226H121.136C121.032 59.5226 120.94 59.5551 120.844 59.6656C120.738 59.7659 120.66 59.8902 120.616 60.0274C120.557 60.165 120.523 60.3117 120.516 60.4607V60.4813C120.518 60.5777 120.525 60.6752 120.538 60.7705C120.323 60.6979 120.051 60.6243 119.863 60.5517C119.852 60.4803 119.845 60.4083 119.843 60.3361V60.3145C119.834 60.0281 119.891 59.7435 120.01 59.4814C120.101 59.2442 120.268 59.0416 120.488 58.904C120.678 58.7641 120.91 58.6884 121.149 58.6885ZM117.853 58.7524H117.893C118.051 58.7524 118.194 58.8044 118.337 58.8986C118.5 59.0384 118.631 59.2106 118.72 59.4023C118.82 59.6179 118.877 59.8367 118.89 60.1249V60.1292C118.898 60.2744 118.897 60.347 118.888 60.4174V60.504C118.855 60.5116 118.826 60.5235 118.796 60.53C118.627 60.5896 118.491 60.6763 118.358 60.7467C118.372 60.6503 118.373 60.5528 118.362 60.4574V60.4412C118.348 60.2971 118.318 60.2256 118.271 60.0805C118.236 59.9701 118.172 59.8704 118.086 59.7912C118.058 59.767 118.026 59.7483 117.991 59.7364C117.956 59.7245 117.919 59.7196 117.882 59.7219H117.859C117.78 59.7284 117.714 59.7663 117.652 59.8649C117.581 59.9488 117.535 60.0499 117.518 60.1574C117.488 60.2745 117.48 60.3959 117.493 60.5159V60.5311C117.506 60.6773 117.534 60.7488 117.583 60.8929C117.633 61.0381 117.691 61.1096 117.767 61.1832C117.779 61.193 117.79 61.2027 117.804 61.2092C117.726 61.271 117.674 61.285 117.609 61.3565C117.567 61.3923 117.517 61.4176 117.463 61.4302C117.347 61.2946 117.245 61.1488 117.157 60.9947C117.052 60.7671 116.993 60.5217 116.984 60.2722C116.966 60.0277 116.996 59.782 117.073 59.5486C117.135 59.3358 117.242 59.1381 117.388 58.969C117.531 58.825 117.678 58.7524 117.853 58.7524ZM119.379 60.6004C119.747 60.6004 120.193 60.6708 120.731 61.0326C121.057 61.2493 121.313 61.324 121.902 61.5396H121.906C122.189 61.6869 122.356 61.8278 122.437 61.9718V61.8299C122.477 61.9087 122.5 61.9948 122.503 62.0826C122.506 62.1704 122.49 62.2578 122.455 62.3391C122.318 62.6759 121.881 63.0367 121.271 63.2522V63.2544C120.973 63.4006 120.714 63.6151 120.409 63.7581C120.102 63.9044 119.755 64.0744 119.283 64.0474C119.114 64.0559 118.944 64.0312 118.785 63.9748C118.661 63.9095 118.542 63.8379 118.426 63.7603C118.209 63.614 118.022 63.4006 117.745 63.2566V63.2512H117.74C117.295 62.9847 117.054 62.6965 116.977 62.481C116.9 62.1907 116.971 61.9729 117.191 61.831C117.441 61.6848 117.614 61.5375 117.729 61.467C117.844 61.3869 117.888 61.3565 117.925 61.3251H117.927V61.3219C118.115 61.1031 118.412 60.8138 118.86 60.6708C119.015 60.6319 119.187 60.6004 119.379 60.6004ZM122.493 62.9218C122.893 64.4568 123.825 66.6862 124.425 67.7673C124.743 68.3457 125.376 69.5644 125.651 71.043C125.824 71.0376 126.017 71.0625 126.222 71.1123C126.94 69.3022 125.614 67.3567 125.01 66.8162C124.764 66.5984 124.752 66.4533 124.873 66.4533C125.528 67.0317 126.392 68.1561 126.705 69.4398C126.848 70.0193 126.881 70.6357 126.728 71.2488C126.802 71.2792 126.878 71.3149 126.956 71.3214C128.104 71.8999 128.528 72.3375 128.325 72.9864V72.9398C128.257 72.9365 128.191 72.9398 128.123 72.9398H128.106C128.274 72.4339 127.904 72.0461 126.921 71.6139C125.903 71.1806 125.09 71.2499 124.951 72.1176C124.943 72.1642 124.938 72.1891 124.932 72.2638C124.856 72.2888 124.777 72.3213 124.699 72.3332C124.221 72.6235 123.963 73.0579 123.817 73.619C123.673 74.1964 123.628 74.8712 123.589 75.6436V75.6469C123.566 76.0087 123.399 76.5546 123.234 77.1103C121.565 78.2716 119.251 78.7764 117.283 77.4721C117.159 77.2621 117.009 77.0681 116.835 76.8948C116.752 76.7599 116.649 76.638 116.529 76.533C116.732 76.533 116.905 76.5015 117.047 76.4604C117.207 76.3881 117.332 76.2585 117.396 76.0986C117.516 75.8093 117.396 75.3435 117.012 74.8387C116.628 74.3329 115.976 73.7609 115.023 73.1911C114.322 72.7589 113.926 72.2487 113.743 71.6789C113.56 71.1004 113.584 70.5036 113.726 69.8969C113.999 68.7378 114.698 67.6113 115.144 66.9039C115.263 66.8335 115.185 67.0501 114.69 67.959C114.249 68.7725 113.42 70.6639 114.554 72.1339C114.597 71.0613 114.841 70.0055 115.274 69.0184C115.902 67.634 117.214 65.2227 117.317 63.3118C117.37 63.3508 117.558 63.4581 117.639 63.5306C117.881 63.6747 118.061 63.8914 118.295 64.0344C118.53 64.2521 118.826 64.3972 119.27 64.3972C119.313 64.4005 119.353 64.4037 119.393 64.4037C119.851 64.4037 120.204 64.2586 120.501 64.1134C120.824 63.9683 121.081 63.7516 121.325 63.6801H121.33C121.85 63.5339 122.261 63.2447 122.493 62.9218ZM124.925 72.6257C124.967 73.2767 125.307 73.9743 125.907 74.1173C126.561 74.2625 127.502 73.7566 127.9 73.2886L128.134 73.2789C128.485 73.2702 128.776 73.2897 129.077 73.5681L129.08 73.5713C129.311 73.7869 129.419 74.1465 129.515 74.5203C129.61 74.9547 129.686 75.3652 129.97 75.675C130.511 76.2459 130.688 76.6564 130.678 76.9099L130.681 76.9034V76.9229L130.678 76.9099C130.661 77.1937 130.472 77.3389 130.124 77.5545C129.423 77.9888 128.181 78.3257 127.39 79.2552C126.702 80.0535 125.864 80.489 125.125 80.5453C124.386 80.6027 123.748 80.3287 123.373 79.5726L123.368 79.5693C123.134 79.1349 123.234 78.459 123.43 77.7386C123.626 77.015 123.906 76.2816 123.945 75.6826C123.986 74.9092 124.03 74.2365 124.162 73.7176C124.296 73.2139 124.505 72.8542 124.875 72.6517L124.925 72.6278V72.6257ZM112.892 72.6787H112.903C112.962 72.6787 113.02 72.6841 113.078 72.6939C113.496 72.7535 113.863 73.0546 114.216 73.5085L115.229 75.311L115.232 75.3143C115.502 75.8917 116.071 76.4669 116.555 77.0887C117.038 77.7365 117.412 78.3138 117.366 78.7894V78.7959C117.303 79.6018 116.833 80.0395 116.114 80.1976C115.397 80.3438 114.423 80.1998 113.449 79.695C112.372 79.1144 111.093 79.1869 110.271 79.0429C109.86 78.9714 109.591 78.8251 109.466 78.6085C109.343 78.3929 109.34 77.9574 109.603 77.2761V77.2728L109.605 77.2696C109.735 76.9078 109.639 76.4539 109.575 76.0574C109.514 75.623 109.483 75.2894 109.623 75.0391C109.801 74.6773 110.064 74.6069 110.39 74.4618C110.718 74.3155 111.103 74.243 111.409 73.9537H111.411V73.9505C111.696 73.6602 111.906 73.2994 112.154 73.0427C112.366 72.825 112.577 72.6787 112.892 72.6787ZM120.857 62.8493C120.373 63.067 119.806 63.4288 119.202 63.4288C118.599 63.4288 118.123 63.1396 117.779 62.924C117.606 62.7789 117.467 62.6337 117.363 62.5611C117.18 62.416 117.202 62.1993 117.28 62.1993C117.402 62.2166 117.424 62.3456 117.502 62.4171C117.609 62.4885 117.741 62.6326 117.903 62.7778C118.227 62.9944 118.66 63.2837 119.201 63.2837C119.74 63.2837 120.372 62.9944 120.756 62.7789C120.973 62.6326 121.251 62.4171 121.477 62.273C121.651 62.1246 121.643 61.9827 121.788 61.9827C121.931 62 121.826 62.1278 121.624 62.3434C121.377 62.5251 121.121 62.6943 120.856 62.8504V62.8493H120.857ZM119.654 61.1334V61.1096C119.647 61.089 119.668 61.0641 119.686 61.0554C119.768 61.0088 119.886 61.0261 119.975 61.0597C120.045 61.0597 120.153 61.1323 120.142 61.206C120.135 61.259 120.047 61.2775 119.992 61.2775C119.931 61.2775 119.889 61.2309 119.835 61.2038C119.777 61.1843 119.673 61.1951 119.654 61.1334ZM119.041 61.1334C119.018 61.1962 118.915 61.1865 118.856 61.2049C118.804 61.232 118.76 61.2786 118.701 61.2786C118.644 61.2786 118.555 61.258 118.549 61.2049C118.539 61.1334 118.647 61.0608 118.716 61.0608C118.806 61.0272 118.92 61.0099 119.004 61.0554C119.025 61.0651 119.044 61.0879 119.037 61.1096V61.1323H119.041V61.1334Z" fill="#F4BB40"/>
<path d="M181.154 63.2624C180.134 63.2624 179.309 64.0899 179.309 65.1113V71.6647C179.309 72.1554 179.503 72.626 179.849 72.973C180.195 73.32 180.665 73.5149 181.154 73.5149C181.644 73.5149 182.113 73.32 182.459 72.973C182.806 72.626 183 72.1554 183 71.6647V65.1113C183 64.0899 182.175 63.2624 181.154 63.2624ZM162.846 63.2624C161.825 63.2624 161 64.0899 161 65.1113V71.6647C161 72.1554 161.194 72.626 161.541 72.973C161.887 73.32 162.356 73.5149 162.846 73.5149C163.335 73.5149 163.805 73.32 164.151 72.973C164.497 72.626 164.691 72.1554 164.691 71.6647V65.1113C164.691 64.8683 164.644 64.6277 164.551 64.4032C164.458 64.1787 164.322 63.9747 164.151 63.803C163.98 63.6313 163.776 63.4951 163.552 63.4024C163.328 63.3096 163.088 63.262 162.846 63.2624ZM175.672 57.7521L176.781 55.7441C176.813 55.6869 176.834 55.6239 176.842 55.5586C176.85 55.4933 176.844 55.4272 176.827 55.3639C176.809 55.3006 176.778 55.2416 176.738 55.1901C176.697 55.1386 176.646 55.0958 176.589 55.0642C176.531 55.0318 176.468 55.0111 176.403 55.0034C176.338 54.9957 176.271 55.0011 176.208 55.0193C176.145 55.0374 176.086 55.068 176.035 55.1093C175.983 55.1505 175.941 55.2016 175.909 55.2595L174.771 57.3137C173.922 56.9738 172.987 56.7814 172 56.7814C171.013 56.7814 170.078 56.9723 169.229 57.3123L168.091 55.2609C168.059 55.203 168.017 55.152 167.965 55.1107C167.914 55.0695 167.855 55.0389 167.792 55.0207C167.729 55.0025 167.662 54.9972 167.597 55.0049C167.532 55.0126 167.469 55.0332 167.411 55.0656C167.354 55.0976 167.304 55.1405 167.263 55.192C167.222 55.2435 167.192 55.3025 167.175 55.3657C167.157 55.4288 167.152 55.4949 167.159 55.5601C167.167 55.6253 167.187 55.6883 167.219 55.7455L168.328 57.7535C166.332 58.8935 164.999 60.9318 164.999 63.2624C164.999 63.2783 164.999 63.2928 165.001 63.3116C164.999 63.3203 164.999 63.3304 164.999 63.3391V63.3405H179V63.3391V63.3116V63.2624C179.001 60.9318 177.668 58.8949 175.672 57.7521ZM168.768 60.5991C168.702 60.5986 168.637 60.5852 168.577 60.5596C168.516 60.5339 168.461 60.4966 168.415 60.4497C168.322 60.3551 168.27 60.2272 168.271 60.0942C168.272 59.9613 168.326 59.8342 168.42 59.7408C168.515 59.6475 168.642 59.5956 168.775 59.5966C168.908 59.5975 169.034 59.6513 169.127 59.746C169.221 59.8406 169.272 59.9685 169.271 60.1015C169.27 60.2344 169.217 60.3615 169.122 60.4549C169.028 60.5482 168.9 60.6001 168.768 60.5991ZM175.232 60.5991C175.106 60.5895 174.989 60.5326 174.903 60.4398C174.817 60.347 174.77 60.2251 174.77 60.0986C174.77 59.972 174.817 59.8501 174.903 59.7573C174.989 59.6645 175.106 59.6076 175.232 59.598C175.365 59.598 175.492 59.6508 175.585 59.7446C175.679 59.8385 175.732 59.9658 175.732 60.0986C175.732 60.2313 175.679 60.3586 175.585 60.4525C175.492 60.5464 175.365 60.5991 175.232 60.5991ZM164.999 73.9822C164.999 74.9168 165.756 75.6763 166.693 75.6763H167.538V79.1497C167.538 79.6404 167.733 80.1111 168.079 80.4581C168.425 80.8051 168.894 81 169.384 81C169.873 81 170.343 80.8051 170.689 80.4581C171.035 80.1111 171.229 79.6404 171.229 79.1497V75.6763H172.768V79.1497C172.768 80.1725 173.593 80.9986 174.61 80.9986C175.633 80.9986 176.459 80.1725 176.459 79.1497V75.6763H177.305C178.24 75.6763 178.999 74.9182 178.999 73.9822V63.7225H164.999V73.9822Z" fill="#A8D548"/>
<path d="M210.787 74.4004H213V65.0137H210.787V74.4004ZM211.894 63.7871C212.053 63.7906 212.212 63.7622 212.361 63.7035C212.51 63.6448 212.645 63.5569 212.759 63.4452C212.874 63.3334 212.965 63.1999 213.026 63.0525C213.088 62.9052 213.12 62.7469 213.12 62.5871C213.12 61.9204 212.587 61.387 211.894 61.387C211.734 61.3835 211.575 61.4119 211.426 61.4706C211.278 61.5293 211.142 61.6171 211.028 61.7289C210.914 61.8407 210.823 61.9742 210.761 62.1216C210.699 62.269 210.667 62.4272 210.667 62.5871C210.667 63.2537 211.2 63.7871 211.894 63.7871ZM220.334 61.4137C216.614 61.4137 214.267 63.9471 214.267 68.0004C214.267 72.0804 216.614 74.6137 220.334 74.6137C224.054 74.6137 226.4 72.0804 226.4 68.0004C226.4 63.9471 224.054 61.4137 220.334 61.4137ZM220.334 63.3337C222.614 63.3337 224.067 65.1604 224.067 68.0004C224.067 70.8671 222.614 72.6671 220.334 72.6671C218.054 72.6671 216.614 70.8671 216.614 68.0004C216.614 65.1604 218.054 63.3337 220.334 63.3337ZM227.334 70.8137C227.427 73.1604 229.334 74.6137 232.294 74.6137C235.387 74.6137 237.334 73.0937 237.334 70.6671C237.334 68.7604 236.24 67.6937 233.64 67.0937L232.174 66.7604C230.6 66.3871 229.96 65.8937 229.96 65.0404C229.96 64.0004 230.934 63.2671 232.374 63.2671C233.84 63.2671 234.84 64.0004 234.947 65.1871H237.12C237.067 62.9337 235.214 61.4137 232.387 61.4137C229.614 61.4137 227.64 62.9471 227.64 65.2137C227.64 67.0404 228.747 68.1737 231.107 68.7071L232.76 69.0937C234.374 69.4804 235.027 70.0004 235.027 70.9337C235.027 72.0004 233.96 72.7604 232.414 72.7604C230.867 72.7604 229.68 72.0004 229.547 70.8137H227.334Z" fill="black"/>
</svg>
