<svg width="24" height="24" viewBox="0 0 24 24" fill="none" xmlns="http://www.w3.org/2000/svg">
<path fill-rule="evenodd" clip-rule="evenodd" d="M13 17.0029C13 17.5552 12.5523 18.0029 12 18.0029C11.4477 18.0029 11 17.5552 11 17.0029V13.0029H7C6.44772 13.0029 6 12.5552 6 12.0029C6 11.4506 6.44772 11.0029 7 11.0029H11V7.00293C11 6.45064 11.4477 6.00293 12 6.00293C12.5523 6.00293 13 6.45065 13 7.00293V11.0029H17C17.5523 11.0029 18 11.4506 18 12.0029C18 12.5552 17.5523 13.0029 17 13.0029H13V17.0029Z" fill="#444444"/>
</svg>
