<svg width="24" height="24" viewBox="0 0 24 24" fill="none" xmlns="http://www.w3.org/2000/svg">
<path d="M13.875 0H4.79883C4.16895 0 3.85547 0 3.61523 0.122315C3.40137 0.230713 3.23145 0.402832 3.12305 0.614503C3 0.854738 3 1.16968 3 1.80029V22.1997C3 22.8303 3 23.1453 3.12305 23.3855C3.23145 23.5972 3.40137 23.7693 3.61523 23.8777C3.85547 24 4.16895 24 4.79883 24H19.2012C19.831 24 20.1445 24 20.3848 23.8777C20.5987 23.7693 20.7685 23.5972 20.877 23.3855C21 23.1453 21 22.8303 21 22.1997V7.125C21 6.82397 20.9297 6.53981 20.8037 6.28786C20.7129 6.10692 20.5928 5.94286 20.4521 5.80078L19.456 4.80323C18.0352 3.37793 16.7959 2.13427 15.1963 0.545653C14.8565 0.20874 14.3906 0 13.875 0Z" fill="#F36700"/>
<path d="M17.5 9V8.5H17H7H6.5V9V19V19.5H7H17H17.5V19V9Z" stroke="white" stroke-opacity="0.95"/>
<path fill-rule="evenodd" clip-rule="evenodd" d="M15 2C15 1 14.0196 1 14.0196 1H4.8C4.46847 1 4.27996 1.00078 4.14253 1.01201C4.09632 1.01578 4.06807 1.02004 4.05303 1.0228C4.04129 1.03106 4.03106 1.04129 4.0228 1.05303C4.02004 1.06807 4.01578 1.09632 4.01201 1.14253C4.00078 1.27996 4 1.46847 4 1.8V22.2C4 22.5315 4.00078 22.72 4.01201 22.8575C4.01578 22.9037 4.02004 22.9319 4.0228 22.947C4.03106 22.9587 4.0413 22.9689 4.05305 22.9772C4.06809 22.98 4.09633 22.9842 4.14254 22.988C4.27996 22.9992 4.46847 23 4.8 23H19.2C19.5315 23 19.72 22.9992 19.8575 22.988C19.9037 22.9842 19.9319 22.98 19.947 22.9772C19.9587 22.9689 19.9689 22.9587 19.9772 22.947C19.98 22.9319 19.9842 22.9037 19.988 22.8575C19.9992 22.72 20 22.5315 20 22.2V6.99346C20 6.99346 20 5.99062 19.0007 5.99062L16.0023 5.99765C15.4491 5.99895 15 5.55165 15 4.99845C15 4.18253 15 3.00521 15 2ZM15.1969 0.545719C14.8577 0.208432 14.3903 0 13.875 0H4.8C4.16994 0 3.85491 0 3.61426 0.122617C3.40258 0.230475 3.23047 0.402578 3.12262 0.614259C3 0.854911 3 1.16994 3 1.8V22.2C3 22.83 3 23.1451 3.12262 23.3857C3.23047 23.5974 3.40258 23.7695 3.61426 23.8774C3.85491 24 4.16994 24 4.8 24H19.2C19.83 24 20.1451 24 20.3857 23.8774C20.5974 23.7695 20.7695 23.5974 20.8774 23.3857C21 23.1451 21 22.83 21 22.2V7.125C21 6.60806 20.7905 6.14002 20.4521 5.80087L19.4565 4.803C18.0351 3.378 16.7948 2.13462 15.1969 0.545719Z" fill="black" fill-opacity="0.3"/>
</svg>
