<svg width="153" height="94" viewBox="0 0 153 94" fill="none" xmlns="http://www.w3.org/2000/svg">
<path d="M5.01243 0.5C3.07143 0.5 1.49219 2.06384 1.49219 4V90.0032C1.49219 91.9394 3.07143 93.5032 5.01243 93.5032H148.972C150.913 93.5032 152.492 91.9394 152.492 90.0032V4C152.492 2.06384 150.913 0.5 148.972 0.5H5.01243Z" fill="#808080" stroke="#CCCCCC"/>
<g filter="url(#filter0_d_4670_111731)">
<path d="M47 29.9945C47 29.4453 47.4453 29 47.9945 29H136.005C136.555 29 137 29.4453 137 29.9945V82.0055C137 82.5547 136.555 83 136.005 83H47.9945C47.4453 83 47 82.5547 47 82.0055V29.9945Z" fill="#BDECFF"/>
</g>
<path fill-rule="evenodd" clip-rule="evenodd" d="M47.9893 28H136.011C137.109 28 138 28.8907 138 29.9894V82.0106C138 83.1093 137.109 84 136.011 84H47.9893C46.8906 84 46 83.1093 46 82.0106V29.9895C46 28.8907 46.8906 28 47.9893 28ZM47.9893 28.9947C47.44 28.9947 46.9946 29.4401 46.9946 29.9895V82.0106C46.9946 82.5599 47.44 83.0053 47.9893 83.0053H136.011C136.56 83.0053 137.005 82.5599 137.005 82.0106V29.9894C137.005 29.4401 136.56 28.9947 136.011 28.9947H47.9893Z" fill="#333333"/>
<mask id="mask0_4670_111731" style="mask-type:alpha" maskUnits="userSpaceOnUse" x="46" y="32" width="81" height="51">
<path d="M46.6885 32.8066H126.838V82.9751H46.6885V32.8066Z" fill="#EFEFEF"/>
</mask>
<g mask="url(#mask0_4670_111731)">
<path d="M64.7745 46.8789L90.7415 82.9757H38.124L64.7745 46.8789Z" fill="url(#paint0_linear_4670_111731)"/>
<path d="M64.7375 46.8789L71.1615 55.4443L67.4906 54.2206L64.7375 56.6679L61.9843 54.2206L58.3135 55.4443L64.7375 46.8789Z" fill="white"/>
<path d="M92.3058 54.832L118.273 90.9289H65.6553L92.3058 54.832Z" fill="url(#paint1_linear_4670_111731)"/>
<path d="M92.2697 54.832L98.6937 63.3974L95.0229 62.1738L92.2697 64.621L89.5166 62.1738L85.8457 63.3974L92.2697 54.832Z" fill="white"/>
</g>
<path fill-rule="evenodd" clip-rule="evenodd" d="M97 48.5C97 48.2239 97.232 48 97.5182 48H124.482C124.768 48 125 48.2239 125 48.5C125 48.7761 124.768 49 124.482 49H97.5182C97.232 49 97 48.7761 97 48.5Z" fill="white"/>
<path fill-rule="evenodd" clip-rule="evenodd" d="M96 41C96 40.4477 96.4415 40 96.9861 40H123.014C123.559 40 124 40.4477 124 41C124 41.5523 123.559 42 123.014 42H96.9861C96.4415 42 96 41.5523 96 41Z" fill="white"/>
<path fill-rule="evenodd" clip-rule="evenodd" d="M97 56.5C97 56.2239 97.232 56 97.5182 56H124.482C124.768 56 125 56.2239 125 56.5C125 56.7761 124.768 57 124.482 57H97.5182C97.232 57 97 56.7761 97 56.5Z" fill="white"/>
<path fill-rule="evenodd" clip-rule="evenodd" d="M97 64.5C97 64.2239 97.2237 64 97.4997 64H123.5C123.776 64 124 64.2239 124 64.5C124 64.7761 123.776 65 123.5 65H97.4997C97.2237 65 97 64.7761 97 64.5Z" fill="white"/>
<path fill-rule="evenodd" clip-rule="evenodd" d="M97 52.5C97 52.2239 97.2299 52 97.5134 52H128.487C128.77 52 129 52.2239 129 52.5C129 52.7761 128.77 53 128.487 53H97.5134C97.2299 53 97 52.7761 97 52.5Z" fill="white"/>
<path fill-rule="evenodd" clip-rule="evenodd" d="M97 60.5C97 60.2239 97.2299 60 97.5134 60H128.487C128.77 60 129 60.2239 129 60.5C129 60.7761 128.77 61 128.487 61H97.5134C97.2299 61 97 60.7761 97 60.5Z" fill="white"/>
<path fill-rule="evenodd" clip-rule="evenodd" d="M97 68.5C97 68.2239 97.2299 68 97.5134 68H128.487C128.77 68 129 68.2239 129 68.5C129 68.7761 128.77 69 128.487 69H97.5134C97.2299 69 97 68.7761 97 68.5Z" fill="white"/>
<path d="M60.8299 39.4599C60.8299 41.1258 59.4793 42.4764 57.8134 42.4764C56.1474 42.4764 54.7969 41.1258 54.7969 39.4599C54.7969 37.7939 56.1474 36.4434 57.8134 36.4434C59.4793 36.4434 60.8299 37.7939 60.8299 39.4599Z" fill="url(#paint2_linear_4670_111731)"/>
<path opacity="0.6" d="M2 12H152V18H2V12Z" fill="#AAAAAA"/>
<path opacity="0.6" d="M2 18H33V93H4.95146C3.32141 93 2 91.6371 2 89.9558V18Z" fill="#AAAAAA"/>
<path d="M2 4.50876C2 2.57092 3.36134 1 5.04065 1H148.959C150.639 1 152 2.57092 152 4.50876V11H2V4.50876Z" fill="#BE664F"/>
<path fill-rule="evenodd" clip-rule="evenodd" d="M152 19H2V18H152V19Z" fill="#CCCCCC"/>
<path fill-rule="evenodd" clip-rule="evenodd" d="M152 12H2V11H152V12Z" fill="#CCCCCC"/>
<path fill-rule="evenodd" clip-rule="evenodd" d="M34 20L34 94H33L33 20H34Z" fill="#CCCCCC"/>
<path d="M6 24.9945C6 24.4453 6.45038 24 7.00596 24H26.994C27.5496 24 28 24.4453 28 24.9945V35.0055C28 35.5547 27.5496 36 26.994 36H7.00596C6.45038 36 6 35.5547 6 35.0055V24.9945Z" fill="#D9F4FF"/>
<path fill-rule="evenodd" clip-rule="evenodd" d="M7.01092 23H26.9891C28.0997 23 29 23.8912 29 24.9906V35.0094C29 36.1088 28.0997 37 26.9891 37H7.01092C5.90032 37 5 36.1088 5 35.0094V24.9906C5 23.8912 5.90032 23 7.01092 23ZM7.01092 23.9953C6.45562 23.9953 6.00546 24.4409 6.00546 24.9906V35.0094C6.00546 35.5591 6.45562 36.0047 7.01092 36.0047H26.9891C27.5444 36.0047 27.9945 35.5591 27.9945 35.0094V24.9906C27.9945 24.4409 27.5444 23.9953 26.9891 23.9953H7.01092Z" fill="#333333"/>
<path d="M7.00596 58.5C6.17964 58.5 5.5 59.1638 5.5 59.9945V70.0055C5.5 70.8362 6.17964 71.5 7.00596 71.5H26.994C27.8204 71.5 28.5 70.8362 28.5 70.0055V59.9945C28.5 59.1638 27.8204 58.5 26.994 58.5H7.00596Z" fill="#BABABA" stroke="#CCCCCC"/>
<path d="M7.00596 40.5C6.17964 40.5 5.5 41.1638 5.5 41.9945V52.0055C5.5 52.8362 6.17964 53.5 7.00596 53.5H26.994C27.8204 53.5 28.5 52.8362 28.5 52.0055V41.9945C28.5 41.1638 27.8204 40.5 26.994 40.5H7.00596Z" fill="#BABABA" stroke="#CCCCCC"/>
<path d="M7.00596 75.5C6.17964 75.5 5.5 76.1638 5.5 76.9945V87.0055C5.5 87.8362 6.17964 88.5 7.00596 88.5H26.994C27.8204 88.5 28.5 87.8362 28.5 87.0055V76.9945C28.5 76.1638 27.8204 75.5 26.994 75.5H7.00596Z" fill="#BABABA" stroke="#CCCCCC"/>
<defs>
<filter id="filter0_d_4670_111731" x="47" y="29" width="90" height="58" filterUnits="userSpaceOnUse" color-interpolation-filters="sRGB">
<feFlood flood-opacity="0" result="BackgroundImageFix"/>
<feColorMatrix in="SourceAlpha" type="matrix" values="0 0 0 0 0 0 0 0 0 0 0 0 0 0 0 0 0 0 127 0" result="hardAlpha"/>
<feOffset dy="4"/>
<feColorMatrix type="matrix" values="0 0 0 0 0 0 0 0 0 0 0 0 0 0 0 0 0 0 0.18 0"/>
<feBlend mode="normal" in2="BackgroundImageFix" result="effect1_dropShadow_4670_111731"/>
<feBlend mode="normal" in="SourceGraphic" in2="effect1_dropShadow_4670_111731" result="shape"/>
</filter>
<linearGradient id="paint0_linear_4670_111731" x1="38.1241" y1="45.4689" x2="71.3433" y2="95.7831" gradientUnits="userSpaceOnUse">
<stop stop-color="#FFC671"/>
<stop offset="0.59375" stop-color="#FF7541"/>
<stop offset="1" stop-color="#FF6F3D"/>
</linearGradient>
<linearGradient id="paint1_linear_4670_111731" x1="65.6554" y1="53.422" x2="98.8745" y2="103.736" gradientUnits="userSpaceOnUse">
<stop stop-color="#FFC671"/>
<stop offset="0.59375" stop-color="#FF7541"/>
<stop offset="1" stop-color="#FF6F3D"/>
</linearGradient>
<linearGradient id="paint2_linear_4670_111731" x1="57.8134" y1="36.4434" x2="57.8134" y2="42.4764" gradientUnits="userSpaceOnUse">
<stop stop-color="#FF8E3D"/>
<stop offset="1" stop-color="#FF6F3D"/>
</linearGradient>
</defs>
</svg>
