<svg width="25" height="24" viewBox="0 0 25 24" fill="none" xmlns="http://www.w3.org/2000/svg">
<path fill-rule="evenodd" clip-rule="evenodd" d="M2.88179 10.0682C3.28596 14.1003 6.88825 17.0419 10.9277 16.6385C11.806 16.5508 12.6327 16.3122 13.3844 15.951C13.8028 15.75 14.3109 15.8015 14.6396 16.1292L19.8267 21.2983C20.2162 21.6865 20.8462 21.6873 21.2367 21.3001L22.1304 20.4139C22.5242 20.0234 22.525 19.387 22.1322 18.9955L16.9666 13.8477C16.6336 13.5159 16.5835 12.9999 16.7918 12.5786C17.38 11.3886 17.6522 10.025 17.5101 8.60736C17.1059 4.57526 13.5036 1.6336 9.46413 2.03699C5.42464 2.44039 2.47763 6.03607 2.88179 10.0682ZM4.97155 9.85949C5.26024 12.7396 7.83331 14.8407 10.7187 14.5526C13.604 14.2645 15.709 11.6961 15.4203 8.81605C15.1316 5.93598 12.5586 3.83479 9.67322 4.12293C6.78787 4.41107 4.68286 6.97941 4.97155 9.85949Z" fill="white"/>
</svg>
