<svg width="152" height="94" viewBox="0 0 152 94" fill="none" xmlns="http://www.w3.org/2000/svg">
<path d="M4.01384 0.501953C2.07537 0.501953 0.5 2.06678 0.5 4.00195V90.0019C0.5 91.937 2.07537 93.5019 4.01384 93.5019H147.986C149.925 93.5019 151.5 91.937 151.5 90.0019V4.00195C151.5 2.06679 149.925 0.501953 147.986 0.501953H4.01384Z" fill="#808080" stroke="#CCCCCC"/>
<path d="M1 4.31718C1 2.48623 2.34934 1.00195 4.01384 1.00195H147.986C149.651 1.00195 151 2.48623 151 4.31717V11.002H1V4.31718Z" fill="#40865C"/>
<path d="M1 11.502H0.5V12.002V18.002V18.502H1H151H151.5V18.002V12.002V11.502H151H1Z" fill="#999999" stroke="#CCCCCC"/>
<path d="M91 59.002H143V85.002H91V59.002Z" fill="#9D9D9D"/>
<path d="M98.5 81.0019C98.5 81.0019 102.409 79.4658 104.624 75.6658C106.839 71.8658 109.054 68.47 114.005 71.2998C118.956 74.1296 119.607 69.7636 124.754 65.0743C129.901 60.3849 133.809 70.653 138.5 62.002V81.002H118.5H108.5L98.5 81.0019Z" fill="#FFB884"/>
<path d="M91 26.002H143V52.002H91V26.002Z" fill="#9D9D9D"/>
<rect width="2" height="5" rx="1" transform="matrix(1 0 0 -1 96 47.8232)" fill="#5AFFBA"/>
<rect width="2" height="8" rx="1" transform="matrix(1 0 0 -1 100 47.8232)" fill="#5AFFBA"/>
<rect width="2" height="7" rx="1" transform="matrix(1 0 0 -1 104 47.8232)" fill="#5AFFBA"/>
<rect width="2" height="12" rx="1" transform="matrix(1 0 0 -1 108 47.8232)" fill="#5AFFBA"/>
<rect width="2" height="5" rx="1" transform="matrix(1 0 0 -1 112 47.8232)" fill="#5AFFBA"/>
<rect width="2" height="8" rx="1" transform="matrix(1 0 0 -1 116 47.8232)" fill="#5AFFBA"/>
<rect width="2" height="5" rx="1" transform="matrix(1 0 0 -1 120 47.8232)" fill="#5AFFBA"/>
<rect width="2" height="7" rx="1" transform="matrix(1 0 0 -1 124 47.8232)" fill="#5AFFBA"/>
<rect width="2" height="12" rx="1" transform="matrix(1 0 0 -1 128 47.8232)" fill="#5AFFBA"/>
<rect width="2" height="7" rx="1" transform="matrix(1 0 0 -1 132 47.8232)" fill="#5AFFBA"/>
<rect width="2" height="16" rx="1" transform="matrix(1 0 0 -1 136 47.8232)" fill="#5AFFBA"/>
<path d="M10 25H81V31H10V25Z" fill="#F9FEEF"/>
<path fill-rule="evenodd" clip-rule="evenodd" d="M13.3281 27.5C13.3281 27.2239 13.5916 27 13.9166 27H21.6147C21.9397 27 22.2031 27.2239 22.2031 27.5C22.2031 27.7761 21.9397 28 21.6147 28H13.9166C13.5916 28 13.3281 27.7761 13.3281 27.5Z" fill="#8BB825"/>
<path fill-rule="evenodd" clip-rule="evenodd" d="M54.375 27.5C54.375 27.2239 54.6385 27 54.9635 27H62.6615C62.9865 27 63.25 27.2239 63.25 27.5C63.25 27.7761 62.9865 28 62.6615 28H54.9635C54.6385 28 54.375 27.7761 54.375 27.5Z" fill="#8BB825"/>
<path fill-rule="evenodd" clip-rule="evenodd" d="M26.6406 27.5C26.6406 27.2239 26.9041 27 27.2291 27H34.9272C35.2522 27 35.5156 27.2239 35.5156 27.5C35.5156 27.7761 35.2522 28 34.9272 28H27.2291C26.9041 28 26.6406 27.7761 26.6406 27.5Z" fill="#8BB825"/>
<path fill-rule="evenodd" clip-rule="evenodd" d="M67.6875 27.5C67.6875 27.2239 67.918 27 68.2024 27H74.9382C75.2226 27 75.4531 27.2239 75.4531 27.5C75.4531 27.7761 75.2226 28 74.9382 28H68.2024C67.918 28 67.6875 27.7761 67.6875 27.5Z" fill="#8BB825"/>
<path fill-rule="evenodd" clip-rule="evenodd" d="M41.0625 27.5C41.0625 27.2239 41.326 27 41.651 27H49.349C49.674 27 49.9375 27.2239 49.9375 27.5C49.9375 27.7761 49.674 28 49.349 28H41.651C41.326 28 41.0625 27.7761 41.0625 27.5Z" fill="#8BB825"/>
<path d="M10 32H81V38H10V32Z" fill="#9D9D9D"/>
<path fill-rule="evenodd" clip-rule="evenodd" d="M12.9922 34.5C12.9922 34.2239 13.2288 34 13.5208 34H26.4252C26.7171 34 26.9538 34.2239 26.9538 34.5C26.9538 34.7761 26.7171 35 26.4252 35H13.5208C13.2288 35 12.9922 34.7761 12.9922 34.5Z" fill="white"/>
<path d="M10 39H81V45H10V39Z" fill="#9D9D9D"/>
<path fill-rule="evenodd" clip-rule="evenodd" d="M13 41.5C13 41.2239 13.3051 41 13.6815 41H30.3185C30.6949 41 31 41.2239 31 41.5C31 41.7761 30.6949 42 30.3185 42H13.6815C13.3051 42 13 41.7761 13 41.5Z" fill="white"/>
<path d="M10 46H81V52H10V46Z" fill="#9D9D9D"/>
<path fill-rule="evenodd" clip-rule="evenodd" d="M13 48.5C13 48.2239 13.1864 48 13.4164 48H23.5836C23.8136 48 24 48.2239 24 48.5C24 48.7761 23.8136 49 23.5836 49H13.4164C13.1864 49 13 48.7761 13 48.5Z" fill="white"/>
<rect width="71" height="5" transform="translate(10 59)" fill="white"/>
<path fill-rule="evenodd" clip-rule="evenodd" d="M12 61.5C12 61.2239 12.2375 61 12.5304 61H19.4696C19.7625 61 20 61.2239 20 61.5C20 61.7761 19.7625 62 19.4696 62H12.5304C12.2375 62 12 61.7761 12 61.5Z" fill="#333333"/>
<path fill-rule="evenodd" clip-rule="evenodd" d="M26 61.5C26 61.2239 26.2375 61 26.5304 61H33.4696C33.7625 61 34 61.2239 34 61.5C34 61.7761 33.7625 62 33.4696 62H26.5304C26.2375 62 26 61.7761 26 61.5Z" fill="#333333"/>
<path fill-rule="evenodd" clip-rule="evenodd" d="M40 61.5C40 61.2239 40.2375 61 40.5304 61H47.4696C47.7625 61 48 61.2239 48 61.5C48 61.7761 47.7625 62 47.4696 62H40.5304C40.2375 62 40 61.7761 40 61.5Z" fill="#333333"/>
<path fill-rule="evenodd" clip-rule="evenodd" d="M54 61.5C54 61.2239 54.2078 61 54.4641 61H60.5359C60.7922 61 61 61.2239 61 61.5C61 61.7761 60.7922 62 60.5359 62H54.4641C54.2078 62 54 61.7761 54 61.5Z" fill="#333333"/>
<path fill-rule="evenodd" clip-rule="evenodd" d="M67 61.5C67 61.2239 67.2375 61 67.5304 61H74.4696C74.7625 61 75 61.2239 75 61.5C75 61.7761 74.7625 62 74.4696 62H67.5304C67.2375 62 67 61.7761 67 61.5Z" fill="#333333"/>
<path d="M10 65H81V71H10V65Z" fill="#9D9D9D"/>
<path fill-rule="evenodd" clip-rule="evenodd" d="M13 67.5C13 67.2239 13.2542 67 13.5679 67H27.4321C27.7458 67 28 67.2239 28 67.5C28 67.7761 27.7458 68 27.4321 68H13.5679C13.2542 68 13 67.7761 13 67.5Z" fill="white"/>
<path d="M10 72H81V78H10V72Z" fill="#9D9D9D"/>
<path fill-rule="evenodd" clip-rule="evenodd" d="M13 74.5C13 74.2239 13.339 74 13.7572 74H32.2428C32.661 74 33 74.2239 33 74.5C33 74.7761 32.661 75 32.2428 75H13.7572C13.339 75 13 74.7761 13 74.5Z" fill="white"/>
<path d="M10 79H81V85H10V79Z" fill="#9D9D9D"/>
<path fill-rule="evenodd" clip-rule="evenodd" d="M13 81.5C13 81.2239 13.1864 81 13.4164 81H23.5836C23.8136 81 24 81.2239 24 81.5C24 81.7761 23.8136 82 23.5836 82H13.4164C13.1864 82 13 81.7761 13 81.5Z" fill="white"/>
</svg>
