<svg width="24" height="24" viewBox="0 0 24 24" fill="none" xmlns="http://www.w3.org/2000/svg">
<path fill-rule="evenodd" clip-rule="evenodd" d="M22 12C22 17.5228 17.5228 22 12 22C6.47715 22 2 17.5228 2 12C2 6.47715 6.47715 2 12 2C17.5228 2 22 6.47715 22 12ZM12.3583 9.38244C11.3858 9.787 9.44179 10.6243 6.52659 11.8944C6.05321 12.0827 5.80523 12.2668 5.78266 12.4469C5.7445 12.7512 6.12561 12.8711 6.64458 13.0342C6.71517 13.0565 6.78832 13.0795 6.8633 13.1038C7.37388 13.2698 8.0607 13.464 8.41776 13.4717C8.74163 13.4787 9.10312 13.3452 9.50222 13.0711C12.226 11.2325 13.632 10.3032 13.7202 10.2831C13.7826 10.269 13.8688 10.2512 13.9273 10.3032C13.9858 10.3552 13.9801 10.4536 13.9738 10.48C13.9361 10.6409 12.4401 12.0317 11.6659 12.7515C11.4246 12.9758 11.2534 13.135 11.2184 13.1713C11.14 13.2528 11.0601 13.3298 10.9833 13.4038C10.509 13.8611 10.1533 14.204 11.003 14.764C11.4114 15.0331 11.7382 15.2556 12.0642 15.4776C12.4202 15.7201 12.7752 15.9619 13.2347 16.2631C13.3517 16.3398 13.4635 16.4195 13.5724 16.4971C13.9867 16.7925 14.359 17.0578 14.8188 17.0155C15.0861 16.9909 15.3621 16.7397 15.5022 15.9903C15.8335 14.2193 16.4847 10.3821 16.6352 8.80082C16.6484 8.66228 16.6318 8.48497 16.6185 8.40715C16.6052 8.32932 16.5773 8.21842 16.4762 8.13633C16.3563 8.03912 16.1714 8.01862 16.0887 8.02007C15.7125 8.0267 15.1355 8.22735 12.3583 9.38244Z" fill="#0EAEEC"/>
</svg>
