<svg width="24" height="24" viewBox="0 0 24 24" fill="none" xmlns="http://www.w3.org/2000/svg">
<path d="M15.6129 8.85864C16.8546 9.73516 18.3757 10.2509 20.0187 10.2509V7.12896C19.7078 7.12902 19.3976 7.097 19.0934 7.03336V9.49076C17.4506 9.49076 15.9297 8.97504 14.6876 8.09859V14.4695C14.6876 17.6566 12.0712 20.24 8.84396 20.24C7.63979 20.24 6.52056 19.8805 5.59082 19.264C6.65197 20.3354 8.13182 21.0001 9.76902 21.0001C12.9965 21.0001 15.613 18.4166 15.613 15.2294V8.85864H15.6129V8.85864ZM16.7543 5.709C16.1197 5.02439 15.703 4.13966 15.6129 3.16156V2.76001H14.736C14.9568 4.00318 15.7095 5.06528 16.7543 5.709ZM7.63207 16.8183C7.27752 16.3593 7.08592 15.7977 7.08678 15.2203C7.08678 13.7627 8.28349 12.5808 9.75991 12.5808C10.0351 12.5807 10.3086 12.6223 10.5708 12.7045V9.5128C10.2643 9.47133 9.95507 9.45372 9.64593 9.46018V11.9444C9.38351 11.8623 9.10988 11.8205 8.83466 11.8208C7.35823 11.8208 6.16159 13.0026 6.16159 14.4604C6.16159 15.4912 6.75975 16.3836 7.63207 16.8183Z" fill="#FF004F"/>
<path d="M14.6871 8.09852C15.9291 8.97497 17.4501 9.49069 19.0929 9.49069V7.0333C18.1759 6.84041 17.3641 6.36721 16.7538 5.709C15.709 5.06521 14.9562 4.00312 14.7355 2.76001H12.4324V15.2293C12.4272 16.683 11.2325 17.86 9.75927 17.86C8.89111 17.86 8.11983 17.4514 7.63136 16.8184C6.75911 16.3836 6.16095 15.4911 6.16095 14.4605C6.16095 13.0028 7.3576 11.8209 8.83402 11.8209C9.11689 11.8209 9.38954 11.8644 9.64529 11.9445V9.46024C6.47471 9.52493 3.9248 12.0831 3.9248 15.2294C3.9248 16.8 4.55979 18.2238 5.59038 19.2641C6.52012 19.8805 7.63935 20.2401 8.84352 20.2401C12.0709 20.2401 14.6872 17.6565 14.6872 14.4695V8.09852H14.6871Z" fill="black"/>
<path d="M19.0933 7.03328V6.36882C18.2664 6.37005 17.4557 6.14137 16.7541 5.70892C17.3752 6.38036 18.193 6.84333 19.0933 7.03328ZM14.7359 2.75999C14.7149 2.64118 14.6987 2.52159 14.6875 2.40155V2H11.5075V14.4694C11.5024 15.9229 10.3078 17.1 8.8344 17.1C8.40184 17.1 7.99343 16.9986 7.63175 16.8184C8.12021 17.4514 8.89149 17.8599 9.75965 17.8599C11.2328 17.8599 12.4276 16.683 12.4328 15.2294V2.75999H14.7359ZM9.6458 9.46022V8.75285C9.38009 8.71699 9.11219 8.69899 8.84397 8.69912C5.61637 8.69906 3 11.2826 3 14.4694C3 16.4674 4.02828 18.2282 5.59083 19.2639C4.56024 18.2237 3.92525 16.7998 3.92525 15.2293C3.92525 12.0831 6.4751 9.52491 9.6458 9.46022Z" fill="#00F2EA"/>
</svg>
