<svg width="24" height="24" viewBox="0 0 24 24" fill="none" xmlns="http://www.w3.org/2000/svg">
<mask id="mask0_30_488" style="mask-type:luminance" maskUnits="userSpaceOnUse" x="0" y="0" width="24" height="24">
<path d="M24 0H0V24H24V0Z" fill="white"/>
</mask>
<g mask="url(#mask0_30_488)">
<path d="M24 20.4C24 22.388 22.3882 24 20.4 24H3.6C1.61168 24 0 22.388 0 20.4V3.59998C0 1.61198 1.61176 0 3.6 0H20.4C22.3882 0 24 1.61198 24 3.59998V20.4Z" fill="#2DC100"/>
<path d="M16.4977 8.91699C14.5607 9.01799 12.8763 9.60501 11.5087 10.932C10.1271 12.272 9.49635 13.915 9.66875 15.951C8.91163 15.857 8.22202 15.754 7.5285 15.695C7.28898 15.675 7.00475 15.704 6.80187 15.818C6.12843 16.198 5.48282 16.627 4.71762 17.106C4.85802 16.471 4.9489 15.914 5.10978 15.38C5.2281 14.986 5.1733 14.768 4.81114 14.512C2.48586 12.87 1.5057 10.413 2.23922 7.88397C2.91786 5.54397 4.58442 4.12401 6.8489 3.38501C9.9397 2.37501 13.4132 3.40501 15.2927 5.85901C15.9715 6.74501 16.3877 7.73999 16.4977 8.91699Z" fill="white"/>
<path d="M20.8494 20.993C20.236 20.72 19.6734 20.31 19.0743 20.247C18.4776 20.185 17.8503 20.529 17.226 20.593C15.3243 20.788 13.6206 20.258 12.2158 18.959C9.5441 16.487 9.92586 12.698 13.017 10.673C15.7642 8.87298 19.7933 9.47301 21.7302 11.971C23.4206 14.15 23.2219 17.043 21.1584 18.873C20.5613 19.403 20.3464 19.839 20.7295 20.538C20.8002 20.667 20.8083 20.83 20.8494 20.993Z" fill="white"/>
<path d="M7 9C7.55228 9 8 8.55228 8 8C8 7.44772 7.55228 7 7 7C6.44772 7 6 7.44772 6 8C6 8.55228 6.44772 9 7 9Z" fill="#2DC100"/>
<path d="M12 9C12.5523 9 13 8.55228 13 8C13 7.44772 12.5523 7 12 7C11.4477 7 11 7.44772 11 8C11 8.55228 11.4477 9 12 9Z" fill="#2DC100"/>
<path d="M14 15C14.5523 15 15 14.5523 15 14C15 13.4477 14.5523 13 14 13C13.4477 13 13 13.4477 13 14C13 14.5523 13.4477 15 14 15Z" fill="#2DC100"/>
<path d="M19 15C19.5523 15 20 14.5523 20 14C20 13.4477 19.5523 13 19 13C18.4477 13 18 13.4477 18 14C18 14.5523 18.4477 15 19 15Z" fill="#2DC100"/>
</g>
</svg>
