<svg width="24" height="24" viewBox="0 0 24 24" fill="none" xmlns="http://www.w3.org/2000/svg">
<g clip-path="url(#clip0_18486_136225)">
<path fill-rule="evenodd" clip-rule="evenodd" d="M1.76562 15.7545C1.76562 18.6293 5.40519 20.9617 9.89356 20.9617C14.3826 20.9617 18.0215 18.6293 18.0215 15.7545C18.0215 12.8798 14.3819 10.5481 9.89356 10.5481C5.40454 10.5481 1.76562 12.8798 1.76562 15.7545Z" fill="#FEFEFE"/>
<path fill-rule="evenodd" clip-rule="evenodd" d="M10.0832 20.537C6.1096 20.9405 2.68061 19.0931 2.42194 16.4092C2.16392 13.7266 5.17696 11.2239 9.14864 10.8197C13.1229 10.4154 16.5513 12.2629 16.8106 14.9454C17.0673 17.6294 14.0562 20.1327 10.0839 20.537M18.0298 11.6288C17.6912 11.5249 17.4592 11.4544 17.6373 10.9968C18.0207 10.0051 18.0597 9.1494 17.6444 8.53929C16.8645 7.39362 14.7328 7.45586 12.2897 8.50851C12.2897 8.50782 11.5228 8.85392 11.7191 8.22808C12.0954 6.9846 12.0375 5.94358 11.4533 5.34237C10.1281 3.97783 6.60224 5.39366 3.57945 8.50235C1.31577 10.8327 0.000976562 13.3012 0.000976562 15.4352C0.000976562 19.5185 5.09052 22 10.0696 22C16.5967 22 20.9389 18.1 20.9389 15.0022C20.9389 13.1302 19.4064 12.0679 18.0298 11.6288Z" fill="#D52C2B"/>
<path fill-rule="evenodd" clip-rule="evenodd" d="M22.3636 4.15701C20.7876 2.35951 18.4615 1.67416 16.3154 2.14337C15.8189 2.25281 15.5024 2.75485 15.6083 3.2651C15.7136 3.77603 16.2024 4.10229 16.6989 3.99217C18.2262 3.65907 19.8777 4.14675 20.9994 5.42374C21.5289 6.02334 21.8958 6.7615 22.0618 7.56119C22.2278 8.36089 22.1868 9.1928 21.9431 9.97015C21.7865 10.4674 22.0504 10.9995 22.5345 11.1603C23.0174 11.321 23.5354 11.0495 23.6927 10.5529V10.5495C24.0357 9.45637 24.0933 8.28637 23.8594 7.16182C23.6256 6.03727 23.109 4.99949 22.3636 4.15701Z" fill="#E79115"/>
<path fill-rule="evenodd" clip-rule="evenodd" d="M19.944 6.40462C19.1765 5.52913 18.0443 5.19671 16.9986 5.42516C16.8979 5.44578 16.8022 5.48728 16.717 5.54723C16.6318 5.60718 16.5588 5.68439 16.5022 5.77435C16.4457 5.86431 16.4067 5.96522 16.3876 6.0712C16.3685 6.17718 16.3696 6.28611 16.3909 6.39163C16.4819 6.82937 16.9024 7.11186 17.3281 7.0161V7.01747C17.587 6.95984 17.8556 6.9735 18.1081 7.05714C18.3605 7.14078 18.5881 7.29155 18.7689 7.49489C19.1446 7.92306 19.2453 8.50649 19.0835 9.01811H19.0848C19.0534 9.12061 19.0416 9.22867 19.0502 9.336C19.0589 9.44333 19.0877 9.54778 19.1351 9.64327C19.1824 9.73876 19.2474 9.82337 19.3261 9.89218C19.4048 9.96099 19.4958 10.0126 19.5937 10.0441C20.0097 10.1802 20.4555 9.94695 20.5894 9.51878C20.7571 8.98651 20.7857 8.41654 20.6722 7.86863C20.5587 7.32072 20.3071 6.81504 19.944 6.40462Z" fill="#E79115"/>
<path fill-rule="evenodd" clip-rule="evenodd" d="M10.3022 15.6765C10.1637 15.9214 9.85631 16.039 9.61519 15.9364C9.37862 15.8366 9.30388 15.5637 9.43971 15.3229C9.57749 15.0842 9.87256 14.9672 10.1091 15.0644C10.349 15.154 10.4347 15.4303 10.3022 15.6765ZM9.03676 17.3489C8.65135 17.9788 7.82855 18.2551 7.20917 17.9644C6.59825 17.6785 6.41822 16.9453 6.80232 16.3311C7.18123 15.7176 7.97738 15.4453 8.59221 15.7107C9.21484 15.9843 9.41306 16.7114 9.03676 17.3489ZM10.4796 12.8852C8.58896 12.3784 6.45202 13.3476 5.63116 15.0623C4.79471 16.8099 5.60387 18.7503 7.51399 19.3851C9.4917 20.0417 11.8243 19.0349 12.6354 17.1491C13.4348 15.3044 12.4365 13.405 10.4796 12.8852Z" fill="#060101"/>
</g>
<defs>
<clipPath id="clip0_18486_136225">
<rect width="24" height="24" fill="white" transform="translate(0.000976562)"/>
</clipPath>
</defs>
</svg>
