<svg width="64" height="64" viewBox="0 0 64 64" fill="none" xmlns="http://www.w3.org/2000/svg">
<g clip-path="url(#clip0_421_7255)">
<path d="M0.204192 19.7855C-0.224633 18.1851 0.725114 16.5401 2.32551 16.1112L34.3459 7.53139C35.9463 7.10256 37.5914 8.05231 38.0202 9.65271L48.946 50.4286C49.3749 52.029 48.4251 53.674 46.8247 54.1028L14.8043 62.6826C13.2039 63.1115 11.5589 62.1617 11.13 60.5613L0.204192 19.7855Z" fill="url(#paint0_linear_421_7255)" fill-opacity="0.4"/>
<foreignObject x="6.59277" y="2" width="46.5713" height="59.2139"><div xmlns="http://www.w3.org/1999/xhtml" style="backdrop-filter:blur(1.5px);clip-path:url(#bgblur_1_421_7255_clip_path);height:100%;width:100%"></div></foreignObject><g filter="url(#filter0_d_421_7255)" data-figma-bg-blur-radius="3">
<path d="M10.5928 45.9821V12.2321C10.5928 8.23759 13.8304 5 17.8249 5H34.6999L49.1642 19.4643V45.9821C49.1642 49.9767 45.9266 53.2143 41.932 53.2143H17.8249C13.8304 53.2143 10.5928 49.9767 10.5928 45.9821Z" fill="url(#paint1_linear_421_7255)" shape-rendering="crispEdges"/>
</g>
<path d="M17.8252 5.5H34.4932L48.6641 19.6709V45.9824C48.6639 49.7007 45.65 52.7139 41.9316 52.7139H17.8252C14.1069 52.7139 11.0929 49.7007 11.0928 45.9824V12.2324C11.0928 8.51401 14.1068 5.5 17.8252 5.5Z" stroke="url(#paint2_linear_421_7255)"/>
<path d="M34.6997 14.6429V5L49.164 19.4643H39.5211C36.8573 19.4643 34.6997 17.3067 34.6997 14.6429Z" fill="url(#paint3_linear_421_7255)"/>
<path d="M47.9565 18.9639H39.521C37.1334 18.9638 35.1997 17.0302 35.1997 14.6426V6.20703L47.9565 18.9639Z" stroke="url(#paint4_linear_421_7255)"/>
<path d="M18 33H26.25V39H19.0744C18.5373 39 18.0003 38.5166 18 38.0328V33Z" fill="white"/>
<path d="M42 38.0328C41.9998 38.5165 41.6416 38.9999 40.9256 39H29.25V33H42V38.0328Z" fill="white"/>
<path d="M26.25 24V30H18V24.8069C18 24.323 18.5371 24 19.0744 24H26.25Z" fill="white"/>
<path d="M40.9256 24C41.6418 24.0001 42 24.323 42 24.8069V30H29.25V24H40.9256Z" fill="white"/>
<rect width="37" height="19" rx="3" transform="matrix(-1 0 0 1 60 37)" fill="url(#paint5_linear_421_7255)"/>
<path d="M29.7551 50.1895C29.0951 50.1895 28.5384 50.0862 28.0851 49.8795C27.6317 49.6662 27.2884 49.3795 27.0551 49.0195C26.8217 48.6528 26.7051 48.2328 26.7051 47.7595H28.2951C28.2951 47.9462 28.3451 48.1195 28.4451 48.2795C28.5517 48.4395 28.7117 48.5695 28.9251 48.6695C29.1384 48.7628 29.4151 48.8095 29.7551 48.8095C30.0617 48.8095 30.3184 48.7695 30.5251 48.6895C30.7317 48.6095 30.8884 48.4995 30.9951 48.3595C31.1017 48.2128 31.1551 48.0462 31.1551 47.8595C31.1551 47.6262 31.0551 47.4428 30.8551 47.3095C30.6551 47.1695 30.3317 47.0795 29.8851 47.0395L29.3351 46.9895C28.6084 46.9295 28.0284 46.7028 27.5951 46.3095C27.1617 45.9162 26.9451 45.3962 26.9451 44.7495C26.9451 44.2828 27.0551 43.8795 27.2751 43.5395C27.5017 43.1995 27.8151 42.9395 28.2151 42.7595C28.6151 42.5728 29.0884 42.4795 29.6351 42.4795C30.2084 42.4795 30.6984 42.5795 31.1051 42.7795C31.5184 42.9728 31.8351 43.2495 32.0551 43.6095C32.2751 43.9628 32.3851 44.3795 32.3851 44.8595H30.7851C30.7851 44.6795 30.7417 44.5162 30.6551 44.3695C30.5684 44.2162 30.4384 44.0928 30.2651 43.9995C30.0984 43.9062 29.8884 43.8595 29.6351 43.8595C29.3951 43.8595 29.1917 43.8995 29.0251 43.9795C28.8651 44.0595 28.7451 44.1695 28.6651 44.3095C28.5851 44.4428 28.5451 44.5895 28.5451 44.7495C28.5451 44.9562 28.6184 45.1362 28.7651 45.2895C28.9117 45.4428 29.1517 45.5328 29.4851 45.5595L30.0451 45.6095C30.5784 45.6562 31.0484 45.7728 31.4551 45.9595C31.8617 46.1395 32.1784 46.3895 32.4051 46.7095C32.6384 47.0228 32.7551 47.4062 32.7551 47.8595C32.7551 48.3262 32.6317 48.7362 32.3851 49.0895C32.1451 49.4362 31.8017 49.7062 31.3551 49.8995C30.9084 50.0928 30.3751 50.1895 29.7551 50.1895Z" fill="white"/>
<path d="M33.595 49.9995V42.6995H35.195V46.9095H34.955C34.955 46.3562 35.025 45.8895 35.165 45.5095C35.305 45.1295 35.5117 44.8428 35.785 44.6495C36.0583 44.4495 36.4017 44.3495 36.815 44.3495H36.885C37.4917 44.3495 37.955 44.5662 38.275 44.9995C38.595 45.4262 38.755 46.0528 38.755 46.8795V49.9995H37.155V46.7795C37.155 46.4795 37.065 46.2395 36.885 46.0595C36.7117 45.8728 36.4817 45.7795 36.195 45.7795C35.895 45.7795 35.6517 45.8762 35.465 46.0695C35.285 46.2628 35.195 46.5195 35.195 46.8395V49.9995H33.595Z" fill="white"/>
<path d="M42.4284 50.1895C41.9618 50.1895 41.5484 50.1095 41.1884 49.9495C40.8351 49.7895 40.5384 49.5762 40.2984 49.3095C40.0651 49.0362 39.8851 48.7328 39.7584 48.3995C39.6384 48.0595 39.5784 47.7128 39.5784 47.3595V47.1595C39.5784 46.7928 39.6384 46.4428 39.7584 46.1095C39.8851 45.7695 40.0651 45.4662 40.2984 45.1995C40.5318 44.9328 40.8218 44.7228 41.1684 44.5695C41.5218 44.4095 41.9218 44.3295 42.3684 44.3295C42.9551 44.3295 43.4484 44.4628 43.8484 44.7295C44.2551 44.9895 44.5651 45.3328 44.7784 45.7595C44.9918 46.1795 45.0984 46.6395 45.0984 47.1395V47.6795H40.2484V46.7695H44.1284L43.6084 47.1895C43.6084 46.8628 43.5618 46.5828 43.4684 46.3495C43.3751 46.1162 43.2351 45.9395 43.0484 45.8195C42.8684 45.6928 42.6418 45.6295 42.3684 45.6295C42.0884 45.6295 41.8518 45.6928 41.6584 45.8195C41.4651 45.9462 41.3184 46.1328 41.2184 46.3795C41.1184 46.6195 41.0684 46.9162 41.0684 47.2695C41.0684 47.5962 41.1151 47.8828 41.2084 48.1295C41.3018 48.3695 41.4484 48.5562 41.6484 48.6895C41.8484 48.8228 42.1084 48.8895 42.4284 48.8895C42.7218 48.8895 42.9618 48.8328 43.1484 48.7195C43.3351 48.6062 43.4618 48.4662 43.5284 48.2995H44.9984C44.9184 48.6662 44.7618 48.9928 44.5284 49.2795C44.2951 49.5662 44.0018 49.7895 43.6484 49.9495C43.2951 50.1095 42.8884 50.1895 42.4284 50.1895Z" fill="white"/>
<path d="M48.4687 50.1895C48.002 50.1895 47.5887 50.1095 47.2287 49.9495C46.8753 49.7895 46.5787 49.5762 46.3387 49.3095C46.1053 49.0362 45.9253 48.7328 45.7987 48.3995C45.6787 48.0595 45.6187 47.7128 45.6187 47.3595V47.1595C45.6187 46.7928 45.6787 46.4428 45.7987 46.1095C45.9253 45.7695 46.1053 45.4662 46.3387 45.1995C46.572 44.9328 46.862 44.7228 47.2087 44.5695C47.562 44.4095 47.962 44.3295 48.4087 44.3295C48.9953 44.3295 49.4887 44.4628 49.8887 44.7295C50.2953 44.9895 50.6053 45.3328 50.8187 45.7595C51.032 46.1795 51.1387 46.6395 51.1387 47.1395V47.6795H46.2887V46.7695H50.1687L49.6487 47.1895C49.6487 46.8628 49.602 46.5828 49.5087 46.3495C49.4153 46.1162 49.2753 45.9395 49.0887 45.8195C48.9087 45.6928 48.682 45.6295 48.4087 45.6295C48.1287 45.6295 47.892 45.6928 47.6987 45.8195C47.5053 45.9462 47.3587 46.1328 47.2587 46.3795C47.1587 46.6195 47.1087 46.9162 47.1087 47.2695C47.1087 47.5962 47.1553 47.8828 47.2487 48.1295C47.342 48.3695 47.4887 48.5562 47.6887 48.6895C47.8887 48.8228 48.1487 48.8895 48.4687 48.8895C48.762 48.8895 49.002 48.8328 49.1887 48.7195C49.3753 48.6062 49.502 48.4662 49.5687 48.2995H51.0387C50.9587 48.6662 50.802 48.9928 50.5687 49.2795C50.3353 49.5662 50.042 49.7895 49.6887 49.9495C49.3353 50.1095 48.9287 50.1895 48.4687 50.1895Z" fill="white"/>
<path d="M54.4889 50.0695C53.9356 50.0695 53.4889 50.0028 53.1489 49.8695C52.8089 49.7295 52.5589 49.4995 52.3989 49.1795C52.2456 48.8528 52.1689 48.4128 52.1689 47.8595V43.0395H53.6589V47.9195C53.6589 48.1795 53.7256 48.3795 53.8589 48.5195C53.9989 48.6528 54.1956 48.7195 54.4489 48.7195H55.2589V50.0695H54.4889ZM51.3389 45.6895V44.5195H55.2589V45.6895H51.3389Z" fill="white"/>
</g>
<defs>
<filter id="filter0_d_421_7255" x="6.59277" y="2" width="46.5713" height="59.2139" filterUnits="userSpaceOnUse" color-interpolation-filters="sRGB">
<feFlood flood-opacity="0" result="BackgroundImageFix"/>
<feColorMatrix in="SourceAlpha" type="matrix" values="0 0 0 0 0 0 0 0 0 0 0 0 0 0 0 0 0 0 127 0" result="hardAlpha"/>
<feOffset dy="4"/>
<feGaussianBlur stdDeviation="2"/>
<feComposite in2="hardAlpha" operator="out"/>
<feColorMatrix type="matrix" values="0 0 0 0 0 0 0 0 0 0 0 0 0 0 0 0 0 0 0.12 0"/>
<feBlend mode="normal" in2="BackgroundImageFix" result="effect1_dropShadow_421_7255"/>
<feBlend mode="normal" in="SourceGraphic" in2="effect1_dropShadow_421_7255" result="shape"/>
</filter>
<clipPath id="bgblur_1_421_7255_clip_path" transform="translate(-6.59277 -2)"><path d="M10.5928 45.9821V12.2321C10.5928 8.23759 13.8304 5 17.8249 5H34.6999L49.1642 19.4643V45.9821C49.1642 49.9767 45.9266 53.2143 41.932 53.2143H17.8249C13.8304 53.2143 10.5928 49.9767 10.5928 45.9821Z"/>
</clipPath><linearGradient id="paint0_linear_421_7255" x1="34.5336" y1="7.48111" x2="4.4564" y2="56.4986" gradientUnits="userSpaceOnUse">
<stop stop-color="#2CB123"/>
<stop offset="1" stop-color="#2FD124"/>
</linearGradient>
<linearGradient id="paint1_linear_421_7255" x1="7.74331" y1="12.0858" x2="46.8998" y2="51.2423" gradientUnits="userSpaceOnUse">
<stop stop-color="white" stop-opacity="0.6"/>
<stop offset="1" stop-color="white" stop-opacity="0.3"/>
</linearGradient>
<linearGradient id="paint2_linear_421_7255" x1="16.5554" y1="40.967" x2="44.0364" y2="19.3712" gradientUnits="userSpaceOnUse">
<stop stop-color="white" stop-opacity="0.8"/>
<stop offset="1" stop-color="#9C99E7" stop-opacity="0.4"/>
</linearGradient>
<linearGradient id="paint3_linear_421_7255" x1="31.7897" y1="7.90997" x2="46.254" y2="22.3743" gradientUnits="userSpaceOnUse">
<stop stop-color="white" stop-opacity="0.7"/>
<stop offset="0.5188" stop-color="white" stop-opacity="0.45"/>
<stop offset="0.9998" stop-color="white" stop-opacity="0.55"/>
</linearGradient>
<linearGradient id="paint4_linear_421_7255" x1="36.9357" y1="15.7901" x2="45.4192" y2="7.45668" gradientUnits="userSpaceOnUse">
<stop stop-color="white" stop-opacity="0.8"/>
<stop offset="1" stop-color="#9C99E7" stop-opacity="0.4"/>
</linearGradient>
<linearGradient id="paint5_linear_421_7255" x1="34.3483" y1="-1.26625e-07" x2="22.2059" y2="27.6021" gradientUnits="userSpaceOnUse">
<stop stop-color="#2CB123"/>
<stop offset="1" stop-color="#2FD124"/>
</linearGradient>
<clipPath id="clip0_421_7255">
<rect width="64" height="64" fill="white"/>
</clipPath>
</defs>
</svg>
