<svg width="24" height="24" viewBox="0 0 24 24" fill="none" xmlns="http://www.w3.org/2000/svg">
<path d="M5.5 1.5H14.6895C14.7557 1.50003 14.8194 1.52638 14.8662 1.57324L19.4268 6.13379C19.4736 6.18065 19.5 6.24428 19.5 6.31055V21.5C19.5 22.0523 19.0523 22.5 18.5 22.5H5.5C4.94772 22.5 4.5 22.0523 4.5 21.5V2.5C4.5 1.94772 4.94772 1.5 5.5 1.5Z" fill="white" stroke="#BBBBBB"/>
<path d="M14.5 2V5.375C14.5 5.99632 15.0037 6.5 15.625 6.5H19" stroke="#BBBBBB"/>
<path d="M9.5 15C9.77614 15 10 15.2239 10 15.5C10 15.7761 9.77614 16 9.5 16H7.5C7.22386 16 7 15.7761 7 15.5C7 15.2239 7.22386 15 7.5 15H9.5ZM9.5 12C9.77614 12 10 12.2239 10 12.5C10 12.7761 9.77614 13 9.5 13H7.5C7.22386 13 7 12.7761 7 12.5C7 12.2239 7.22386 12 7.5 12H9.5ZM16.5 9C16.7761 9 17 9.22386 17 9.5C17 9.77614 16.7761 10 16.5 10H7.5C7.22386 10 7 9.77614 7 9.5C7 9.22386 7.22386 9 7.5 9H16.5Z" fill="#287CA9"/>
<path d="M12 13C12 12.4477 12.4477 12 13 12H20C20.5523 12 21 12.4477 21 13V20C21 20.5523 20.5523 21 20 21H13C12.4477 21 12 20.5523 12 20V13Z" fill="#287CA9"/>
<path d="M20.0313 14.002L18.7993 19H17.2033L16.7273 16.823C16.7179 16.781 16.7039 16.711 16.6853 16.613C16.6666 16.515 16.6433 16.403 16.6153 16.277C16.5919 16.151 16.5709 16.0273 16.5523 15.906C16.5336 15.7847 16.5196 15.682 16.5103 15.598C16.5009 15.682 16.4846 15.7847 16.4613 15.906C16.4426 16.0273 16.4216 16.151 16.3983 16.277C16.3749 16.403 16.3516 16.515 16.3283 16.613C16.3096 16.711 16.2956 16.781 16.2863 16.823L15.8033 19H14.2073L12.9683 14.002H14.2703L14.8163 16.508C14.8303 16.5687 14.8489 16.6573 14.8723 16.774C14.8956 16.886 14.9189 17.0073 14.9423 17.138C14.9703 17.2687 14.9959 17.397 15.0193 17.523C15.0426 17.6443 15.0589 17.747 15.0683 17.831C15.0869 17.691 15.1103 17.53 15.1383 17.348C15.1709 17.166 15.2059 16.984 15.2433 16.802C15.2806 16.6153 15.3156 16.4427 15.3483 16.284C15.3856 16.1253 15.4159 15.9947 15.4393 15.892L15.8803 14.002H17.1333L17.5603 15.892C17.5836 15.99 17.6116 16.1207 17.6443 16.284C17.6816 16.4427 17.7189 16.6153 17.7563 16.802C17.7936 16.9887 17.8286 17.173 17.8613 17.355C17.8939 17.537 17.9173 17.6957 17.9313 17.831C17.9453 17.7143 17.9686 17.5697 18.0013 17.397C18.0339 17.2243 18.0666 17.0563 18.0993 16.893C18.1319 16.725 18.1576 16.599 18.1763 16.515L18.7293 14.002H20.0313Z" fill="white"/>
</svg>
