<svg width="24" height="24" viewBox="0 0 24 24" fill="none" xmlns="http://www.w3.org/2000/svg">
<path d="M3.17822 8.95987V21H7.33664V8.95987H3.17822ZM18.0297 8.77926C17.9703 8.77926 17.9703 8.77926 17.9109 8.71906C17.8515 8.71906 17.7921 8.71906 17.7327 8.65886C17.495 8.59866 17.2574 8.59866 17.0198 8.59866C14.6436 8.59866 13.1584 10.2843 12.6832 10.9465V8.89966H8.52475V20.9398H12.6832V14.3177C12.6832 14.3177 15.5347 9.98328 16.8416 13.1137C16.8416 15.8829 16.8416 20.9398 16.8416 20.9398H21V13.1137C21 11.3077 19.7525 9.26087 18.0297 8.77926ZM4.9604 6.97324C6.0297 6.97324 6.9208 6.07023 6.9208 4.98662C6.9208 3.90301 6.0297 3 4.9604 3C3.89109 3 3 3.90301 3 4.98662C3 6.07023 3.89109 6.97324 4.9604 6.97324Z" fill="#000869"/>
</svg>
