<svg width="64" height="62" viewBox="0 0 64 62" fill="none" xmlns="http://www.w3.org/2000/svg">
<path d="M55.5 23.2344C55.4875 19.6344 55.4772 15.1193 55.4772 12.0074C55.4772 11.2394 55.0425 10.5 54.031 10.5H10.801C9.53021 10.5 8.5 11.5085 8.5 12.7525V38.2475C8.5 39.4915 9.53021 40.5 10.801 40.5H36.0445" stroke="#333333" stroke-linecap="round"/>
<path d="M58.5 23.7813C58.4859 19.4612 58.4743 13.0432 58.4743 9.3089C58.4743 8.38729 57.984 7.5 56.8434 7.5H8.09478C6.66172 7.5 5.5 8.71018 5.5 10.203V40.797C5.5 42.2898 6.66172 43.5 8.09478 43.5H37.6885" stroke="#333333" stroke-linecap="round"/>
<rect x="16.5" y="50.5" width="31" height="3" rx="1.5" stroke="#333333"/>
<rect x="23" y="44" width="1" height="6" fill="#333333"/>
<path d="M39.5 46V50" stroke="#333333" stroke-linecap="round"/>
<path opacity="0.5" fill-rule="evenodd" clip-rule="evenodd" d="M30.8999 33.7917L23.4744 30.2918C22.8419 29.9862 22.8419 29.514 23.4744 29.2363L26.0596 28.0141L30.8724 30.2918C31.505 30.5973 32.5225 30.5973 33.1276 30.2918L37.9404 28.0141L40.5256 29.2363C41.1581 29.5418 41.1581 30.014 40.5256 30.2918L33.1001 33.7917C32.5225 34.0694 31.505 34.0694 30.8999 33.7917Z" fill="url(#paint0_linear_4256_30258)"/>
<path opacity="0.75" fill-rule="evenodd" clip-rule="evenodd" d="M30.8759 29.4607L23.473 25.9568C22.8423 25.6509 22.8423 25.1781 23.473 24.9L25.9954 23.7042L30.8759 26.0124C31.5065 26.3183 32.5209 26.3183 33.1241 26.0124L38.0046 23.7042L40.527 24.9C41.1577 25.2059 41.1577 25.6787 40.527 25.9568L33.1241 29.4607C32.4935 29.7666 31.4791 29.7666 30.8759 29.4607Z" fill="url(#paint1_linear_4256_30258)"/>
<path fill-rule="evenodd" clip-rule="evenodd" d="M30.8759 25.1747L23.473 21.7212C22.8423 21.4197 22.8423 20.9537 23.473 20.6797L30.8759 17.2261C31.5065 16.9246 32.5209 16.9246 33.1241 17.2261L40.527 20.6797C41.1577 20.9811 41.1577 21.4471 40.527 21.7212L33.1241 25.1747C32.4935 25.4488 31.4791 25.4488 30.8759 25.1747Z" fill="url(#paint2_linear_4256_30258)"/>
<circle cx="52" cy="37" r="10.5" fill="url(#paint3_linear_4256_30258)" stroke="#333333"/>
<path d="M50.5329 41.848C50.5329 41.44 50.6769 41.092 50.9649 40.804C51.2529 40.516 51.6009 40.372 52.0089 40.372C52.4169 40.372 52.7649 40.516 53.0529 40.804C53.3409 41.092 53.4849 41.44 53.4849 41.848C53.4849 42.256 53.3409 42.598 53.0529 42.874C52.7649 43.138 52.4169 43.27 52.0089 43.27C51.6009 43.27 51.2529 43.138 50.9649 42.874C50.6769 42.598 50.5329 42.256 50.5329 41.848ZM51.7569 39.13C51.4689 37.714 51.2409 36.574 51.0729 35.71C50.9049 34.846 50.7789 34.162 50.6949 33.658C50.6109 33.142 50.5569 32.764 50.5329 32.524C50.5089 32.272 50.4969 32.056 50.4969 31.876C50.4969 31.444 50.6349 31.096 50.9109 30.832C51.1869 30.568 51.5529 30.436 52.0089 30.436C52.4649 30.436 52.8309 30.568 53.1069 30.832C53.3829 31.096 53.5209 31.444 53.5209 31.876C53.5209 32.056 53.5089 32.272 53.4849 32.524C53.4609 32.764 53.4069 33.142 53.3229 33.658C53.2389 34.162 53.1129 34.846 52.9449 35.71C52.7769 36.574 52.5489 37.714 52.2609 39.13H51.7569Z" fill="white"/>
<defs>
<linearGradient id="paint0_linear_4256_30258" x1="32" y1="28.0141" x2="32" y2="34" gradientUnits="userSpaceOnUse">
<stop stop-color="#FF8E3D"/>
<stop offset="1" stop-color="#FF6F3D"/>
</linearGradient>
<linearGradient id="paint1_linear_4256_30258" x1="32" y1="23.7042" x2="32" y2="29.6901" gradientUnits="userSpaceOnUse">
<stop stop-color="#FF8E3D"/>
<stop offset="1" stop-color="#FF6F3D"/>
</linearGradient>
<linearGradient id="paint2_linear_4256_30258" x1="32" y1="17" x2="32" y2="25.3803" gradientUnits="userSpaceOnUse">
<stop stop-color="#FF8E3D"/>
<stop offset="1" stop-color="#FF6F3D"/>
</linearGradient>
<linearGradient id="paint3_linear_4256_30258" x1="41" y1="25.1406" x2="63" y2="48" gradientUnits="userSpaceOnUse">
<stop stop-color="#FF8E3D"/>
<stop offset="1" stop-color="#FF6F3D"/>
</linearGradient>
</defs>
</svg>
