<svg width="24" height="24" viewBox="0 0 24 24" fill="none" xmlns="http://www.w3.org/2000/svg">
<path d="M5.5 1.5H14.6895C14.7557 1.50003 14.8194 1.52638 14.8662 1.57324L19.4268 6.13379C19.4736 6.18065 19.5 6.24428 19.5 6.31055V21.5C19.5 22.0523 19.0523 22.5 18.5 22.5H5.5C4.94772 22.5 4.5 22.0523 4.5 21.5V2.5C4.5 1.94772 4.94772 1.5 5.5 1.5Z" fill="white" stroke="#BBBBBB"/>
<path d="M14.5 2V5.375C14.5 5.99632 15.0037 6.5 15.625 6.5H19" stroke="#BBBBBB"/>
<path d="M9.5 15C9.77614 15 10 15.2239 10 15.5C10 15.7761 9.77614 16 9.5 16H7.5C7.22386 16 7 15.7761 7 15.5C7 15.2239 7.22386 15 7.5 15H9.5ZM9.5 12C9.77614 12 10 12.2239 10 12.5C10 12.7761 9.77614 13 9.5 13H7.5C7.22386 13 7 12.7761 7 12.5C7 12.2239 7.22386 12 7.5 12H9.5ZM16.5 9C16.7761 9 17 9.22386 17 9.5C17 9.77614 16.7761 10 16.5 10H7.5C7.22386 10 7 9.77614 7 9.5C7 9.22386 7.22386 9 7.5 9H16.5Z" fill="#E54D39"/>
<path d="M12 13C12 12.4477 12.4477 12 13 12H20C20.5523 12 21 12.4477 21 13V20C21 20.5523 20.5523 21 20 21H13C12.4477 21 12 20.5523 12 20V13Z" fill="#E54D39"/>
<path fill-rule="evenodd" clip-rule="evenodd" d="M15.6385 13C15.6385 14.0191 15.3474 15.2211 14.8554 16.33C14.3615 17.4435 13.6948 18.396 13 18.9576L13.755 20C15.6276 18.7386 17.7012 17.8739 19.7076 18.1634L20 16.9104C18.2905 16.3352 16.9187 14.6091 16.9187 13H15.6385ZM16.4734 15.6683C16.3455 16.0735 16.1939 16.4735 16.0224 16.8593C15.9298 17.0683 15.8313 17.2742 15.7255 17.4771C16.3212 17.2393 16.9367 17.0525 17.5649 16.9388C17.1462 16.5667 16.7791 16.1394 16.4734 15.6683Z" fill="white"/>
</svg>
