<svg width="24" height="24" viewBox="0 0 24 24" fill="none" xmlns="http://www.w3.org/2000/svg">
<path d="M5.5 1.5H14.6895C14.7557 1.50003 14.8194 1.52638 14.8662 1.57324L19.4268 6.13379C19.4736 6.18065 19.5 6.24428 19.5 6.31055V21.5C19.5 22.0523 19.0523 22.5 18.5 22.5H5.5C4.94772 22.5 4.5 22.0523 4.5 21.5V2.5C4.5 1.94772 4.94772 1.5 5.5 1.5Z" fill="white" stroke="#BBBBBB"/>
<path d="M7.25 11.5C7.11193 11.5 6.99907 11.3879 7.00892 11.2502C7.03569 10.8761 7.12247 10.5081 7.26642 10.1606C7.44231 9.73597 7.70012 9.35013 8.02513 9.02513C8.35013 8.70012 8.73597 8.44231 9.16061 8.26642C9.50814 8.12247 9.87609 8.03569 10.2502 8.00892C10.3879 7.99907 10.5 8.11193 10.5 8.25L10.5 11.25C10.5 11.3881 10.3881 11.5 10.25 11.5H7.25Z" fill="#FAC299"/>
<path d="M7.25 13C7.11193 13 6.99935 13.112 7.00625 13.2499C7.05134 14.1511 7.33963 15.025 7.84265 15.7779C8.39206 16.6001 9.17295 17.241 10.0866 17.6194C11.0002 17.9978 12.0055 18.0969 12.9755 17.9039C13.9454 17.711 14.8363 17.2348 15.5355 16.5355C16.2348 15.8363 16.711 14.9454 16.9039 13.9755C17.0969 13.0055 16.9978 12.0002 16.6194 11.0866C16.241 10.173 15.6001 9.39206 14.7779 8.84265C14.025 8.33963 13.1511 8.05134 12.2499 8.00625C12.112 7.99935 12 8.11193 12 8.25V12.75C12 12.8881 11.8881 13 11.75 13H7.25Z" fill="#FAC299"/>
<path d="M14.5 2V5.375C14.5 5.99632 15.0037 6.5 15.625 6.5H19" stroke="#BBBBBB"/>
<path d="M12 13C12 12.4477 12.4477 12 13 12H20C20.5523 12 21 12.4477 21 13V20C21 20.5523 20.5523 21 20 21H13C12.4477 21 12 20.5523 12 20V13Z" fill="#F36700"/>
<path d="M16.5566 14.002C17.1912 14.002 17.6649 14.1397 17.9776 14.415C18.2949 14.6903 18.4536 15.0823 18.4536 15.591C18.4536 15.8197 18.4209 16.039 18.3556 16.249C18.2902 16.4543 18.1829 16.641 18.0336 16.809C17.8889 16.9723 17.6952 17.103 17.4526 17.201C17.2099 17.2943 16.9112 17.341 16.5566 17.341H16.1786V19H14.8276V14.002H16.5566ZM16.5286 15.094H16.1786V16.242H16.4446C16.5612 16.242 16.6686 16.2233 16.7666 16.186C16.8692 16.144 16.9509 16.0787 17.0116 15.99C17.0722 15.8967 17.1026 15.7753 17.1026 15.626C17.1026 15.4673 17.0559 15.339 16.9626 15.241C16.8692 15.143 16.7246 15.094 16.5286 15.094Z" fill="white"/>
</svg>
