<svg width="24" height="24" viewBox="0 0 24 24" fill="none" xmlns="http://www.w3.org/2000/svg">
<path d="M5.5 1.5H14.6895C14.7557 1.50003 14.8194 1.52638 14.8662 1.57324L19.4268 6.13379C19.4736 6.18065 19.5 6.24428 19.5 6.31055V21.5C19.5 22.0523 19.0523 22.5 18.5 22.5H5.5C4.94772 22.5 4.5 22.0523 4.5 21.5V2.5C4.5 1.94772 4.94772 1.5 5.5 1.5Z" fill="white" stroke="#BBBBBB"/>
<path d="M14.5 2V5.375C14.5 5.99632 15.0037 6.5 15.625 6.5H19" stroke="#BBBBBB"/>
<path d="M12 13C12 12.4477 12.4477 12 13 12H20C20.5523 12 21 12.4477 21 13V20C21 20.5523 20.5523 21 20 21H13C12.4477 21 12 20.5523 12 20V13Z" fill="#3AA133"/>
<path d="M19.0107 19H17.4497L16.4767 17.439L15.5107 19H13.9847L15.6437 16.445L14.0827 14.002H15.5807L16.4837 15.549L17.3517 14.002H18.8917L17.3097 16.55L19.0107 19Z" fill="white"/>
<path d="M10.5 15C10.7761 15 11 15.2239 11 15.5C11 15.7761 10.7761 16 10.5 16H7.5C7.22386 16 7 15.7761 7 15.5C7 15.2239 7.22386 15 7.5 15H10.5ZM10.5 12C10.7761 12 11 12.2239 11 12.5C11 12.7761 10.7761 13 10.5 13H7.5C7.22386 13 7 12.7761 7 12.5C7 12.2239 7.22386 12 7.5 12H10.5ZM10.5 9C10.7761 9 11 9.22386 11 9.5C11 9.77614 10.7761 10 10.5 10H7.5C7.22386 10 7 9.77614 7 9.5C7 9.22386 7.22386 9 7.5 9H10.5ZM16.5 9C16.7761 9 17 9.22386 17 9.5C17 9.77614 16.7761 10 16.5 10H13.5C13.2239 10 13 9.77614 13 9.5C13 9.22386 13.2239 9 13.5 9H16.5Z" fill="#3AA133"/>
</svg>
