<svg width="24" height="25" viewBox="0 0 24 25" fill="none" xmlns="http://www.w3.org/2000/svg">
<path fill-rule="evenodd" clip-rule="evenodd" d="M12 22.5C17.5228 22.5 22 18.0228 22 12.5C22 6.97715 17.5228 2.5 12 2.5C6.47715 2.5 2 6.97715 2 12.5C2 18.0228 6.47715 22.5 12 22.5ZM14.532 18.1878C14.5204 18.9201 14.527 19.9158 14.532 20.6481C13.9235 20.9811 12.4201 21.0185 12.0137 21.0185C12.0137 21.0185 10.9104 21.0273 9.62956 20.6481C9.65765 20.004 9.68464 19.2251 9.68464 18.6584C9.53039 18.6584 9.37998 18.6616 9.23231 18.6648C8.91859 18.6714 8.61729 18.6779 8.31803 18.6527C7.41632 18.573 6.72227 18.1662 6.36478 17.2535C6.13728 16.6714 5.79301 16.1781 5.26366 15.8321C5.17745 15.7765 5.11903 15.6739 5.06061 15.5712C5.03355 15.5237 5.0065 15.4761 4.97668 15.4333C5.03458 15.4171 5.09235 15.4009 5.1501 15.3846C5.25937 15.3538 5.36857 15.3231 5.47849 15.2933C5.4905 15.2914 5.50347 15.2955 5.51661 15.2996C5.52336 15.3017 5.53015 15.3039 5.53688 15.3052C6.16152 15.4207 6.5807 15.8196 6.90735 16.3533C7.51822 17.3542 8.43591 17.6689 9.50342 17.241C9.5877 17.208 9.6907 17.142 9.7232 17.0635C9.84643 16.7611 9.95901 16.4549 10.0756 16.1378C10.1159 16.0283 10.1566 15.9175 10.1984 15.8052L10.1964 15.8048L10.1965 15.8044C10.1172 15.7902 10.038 15.7771 9.9589 15.7639C9.8492 15.7457 9.73957 15.7275 9.62956 15.7064C8.54112 15.493 7.56063 15.0822 6.82252 14.1695C5.87344 12.9945 5.36336 9.92695 6.77184 8.30357C6.83519 8.23131 6.86218 8.07426 6.83629 7.97639C6.65507 7.30325 6.67269 6.63353 6.85006 5.96438C6.99107 5.43349 7.03734 5.40618 7.5689 5.51315C8.25634 5.65313 8.85234 6.00364 9.44834 6.36439C9.57999 6.44405 9.77333 6.49128 9.91709 6.456C11.1868 6.15215 12.4674 6.06566 13.7399 6.36211C14.3177 6.49867 14.7705 6.42527 15.2569 6.08785C15.7614 5.73962 16.3337 5.51315 16.9584 5.4773C17.1363 5.46535 17.2321 5.52282 17.29 5.70889C17.5235 6.45429 17.5819 7.19912 17.3814 7.9616C17.3555 8.05605 17.3583 8.20342 17.4128 8.26829C18.1664 9.19066 18.3685 10.2649 18.2964 11.436C18.1553 13.7365 17.0504 15.1226 14.9231 15.6273C14.7018 15.6798 14.4771 15.7189 14.2381 15.7604C14.1302 15.7791 14.0193 15.7984 13.9046 15.8196C14.5254 16.5144 14.5441 17.3457 14.532 18.1878ZM10.2327 15.8127C10.2328 15.8128 10.2325 15.8126 10.2318 15.812L10.2327 15.8127Z" fill="#24292E"/>
</svg>
