<svg width="24" height="25" viewBox="0 0 24 25" fill="none" xmlns="http://www.w3.org/2000/svg">
<path d="M3.17822 9.45987V21.5H7.33664V9.45987H3.17822ZM18.0297 9.27926C17.9703 9.27926 17.9703 9.27926 17.9109 9.21906C17.8515 9.21906 17.7921 9.21906 17.7327 9.15886C17.495 9.09866 17.2574 9.09866 17.0198 9.09866C14.6436 9.09866 13.1584 10.7843 12.6832 11.4465V9.39966H8.52475V21.4398H12.6832V14.8177C12.6832 14.8177 15.5347 10.4833 16.8416 13.6137C16.8416 16.3829 16.8416 21.4398 16.8416 21.4398H21V13.6137C21 11.8077 19.7525 9.76087 18.0297 9.27926ZM4.9604 7.47324C6.0297 7.47324 6.9208 6.57023 6.9208 5.48662C6.9208 4.40301 6.0297 3.5 4.9604 3.5C3.89109 3.5 3 4.40301 3 5.48662C3 6.57023 3.89109 7.47324 4.9604 7.47324Z" fill="#0084B1"/>
</svg>
