<svg width="24" height="25" viewBox="0 0 24 25" fill="none" xmlns="http://www.w3.org/2000/svg">
<rect x="2" y="2.5" width="20" height="20" fill="#666666"/>
<path d="M18.3031 7.91032L19.5 6.75326V6.5H15.3537L12.3987 13.9324L9.03687 6.5H4.68937V6.75326L6.0875 8.45411C6.22375 8.57979 6.295 8.76358 6.27688 8.94863V15.6326C6.32 15.8733 6.2425 16.1208 6.075 16.2958L4.5 18.2246V18.4747H8.96562V18.2215L7.39062 16.2958C7.22 16.1202 7.13937 15.8771 7.17375 15.6326V9.85116L11.0938 18.4779H11.5494L14.92 9.85116V16.7234C14.92 16.9046 14.92 16.9419 14.8025 17.0606L13.59 18.2461V18.5H19.4725V18.2467L18.3038 17.0903C18.2013 17.012 18.1481 16.8806 18.17 16.7531V8.24758C18.1481 8.11937 18.2006 7.988 18.3031 7.91032Z" fill="white"/>
</svg>
