<svg width="24" height="25" viewBox="0 0 24 25" fill="none" xmlns="http://www.w3.org/2000/svg">
<path d="M7.99944 8.67238H6.89498L9.90605 17.184L11.5917 12.3669L10.2848 8.67238H9.1195V7.86134H14.2799V8.67238H13.0714L16.0825 17.184L17.1648 14.0909C18.5846 10.1281 16.0011 8.8937 16.0011 8.00931C16.0011 7.12491 16.7181 6.408 17.6024 6.408C17.6503 6.408 17.6967 6.4106 17.7422 6.41484C16.2438 5.00028 14.2233 4.13282 11.9999 4.13282C9.09484 4.13282 6.53588 5.61363 5.03577 7.86134H7.99935L7.99944 8.67238Z" fill="#444444"/>
<path d="M3.63281 12.5001C3.63281 15.7035 5.43332 18.486 8.07725 19.892L4.30129 9.21816C3.87116 10.2259 3.63281 11.3351 3.63281 12.5001Z" fill="#444444"/>
<path d="M19.282 8.37697C19.4016 9.08168 19.3654 9.87373 19.1817 10.6689H19.215L19.0885 11.0304C19.0135 11.2914 18.9191 11.5584 18.8119 11.8208L15.9329 19.8866C18.5713 18.4789 20.3672 15.6994 20.3672 12.5C20.3672 11.0008 19.9725 9.59397 19.282 8.37697Z" fill="#444444"/>
<path d="M9.41943 20.461C10.2323 20.7244 11.0994 20.8672 12 20.8672C12.859 20.8672 13.6877 20.7375 14.4678 20.4971L12.0203 13.5785L9.41943 20.461Z" fill="#444444"/>
<path d="M19.071 5.42892C17.1823 3.54018 14.6711 2.5 12 2.5C9.32886 2.5 6.81766 3.54018 4.92892 5.42892C3.04018 7.31767 2 9.82888 2 12.5C2 15.1711 3.04018 17.6823 4.92892 19.5711C6.81766 21.4598 9.3289 22.5 12 22.5C14.6711 22.5 17.1823 21.4598 19.0711 19.5711C20.9598 17.6823 22 15.1711 22 12.5C22 9.82888 20.9598 7.31767 19.071 5.42892ZM12 21.7946C6.87493 21.7946 2.70542 17.6251 2.70542 12.5C2.70542 7.37499 6.87493 3.20543 12 3.20543C17.125 3.20543 21.2945 7.37499 21.2945 12.5C21.2945 17.6251 17.125 21.7946 12 21.7946Z" fill="#444444"/>
</svg>
