<svg width="24" height="25" viewBox="0 0 24 25" fill="none" xmlns="http://www.w3.org/2000/svg">
<path fill-rule="evenodd" clip-rule="evenodd" d="M20.6078 4.98939C21.5501 5.253 22.2931 6.02465 22.5467 7.0036C23.018 8.79168 22.9999 12.5188 22.9999 12.5188C22.9999 12.5188 22.9999 16.227 22.5469 18.0152C22.2931 18.994 21.5502 19.7658 20.6078 20.0293C18.8862 20.5 12 20.5 12 20.5C12 20.5 5.1317 20.5 3.39214 20.0106C2.44969 19.747 1.7068 18.9752 1.45302 17.9964C1 16.227 1 12.5 1 12.5C1 12.5 1 8.79168 1.45302 7.0036C1.70663 6.02482 2.46781 5.23417 3.39197 4.97073C5.11357 4.5 11.9998 4.5 11.9998 4.5C11.9998 4.5 18.8862 4.5 20.6078 4.98939ZM15.7017 12.5112L9.70261 16.0293V8.99316L15.7017 12.5112Z" fill="#FF0000"/>
</svg>
