<svg width="24" height="25" viewBox="0 0 24 25" fill="none" xmlns="http://www.w3.org/2000/svg">
<path d="M16.375 3.5H14.25C11.5625 3.5 10.125 5.24 10.125 7.94V10.1H7.625C7.4375 10.1 7 10.22 7 10.7V13.1C7 13.52 7.3125 13.7 7.625 13.7H10.125V21.14C10.125 21.32 10.3125 21.5 10.5 21.5H13.3125C13.5 21.5 13.875 21.38 13.875 21.2V13.7H16.375C16.875 13.7 17 13.46 17 13.1V10.7C17 10.58 17 10.1 16.375 10.1H13.875V8.3C13.875 7.46 14.125 7.1 15.0625 7.1H16.375C16.75 7.1 17 6.68 17 6.5V4.1C17 3.68 16.75 3.5 16.375 3.5Z" fill="#41479B"/>
</svg>
