<svg width="24" height="24" viewBox="0 0 24 24" fill="none" xmlns="http://www.w3.org/2000/svg">
<g clip-path="url(#clip0)">
<path d="M21.5742 13.5893C21.2802 15.0707 18.9411 16.6919 16.2546 17.0061C14.8537 17.1698 13.4744 17.3203 12.0036 17.2542C9.59826 17.1462 7.70028 16.6919 7.70028 16.6919C7.70028 16.9212 7.71472 17.1396 7.7436 17.3438C8.05631 19.6687 10.0974 19.808 12.0309 19.873C13.9823 19.9384 15.72 19.4017 15.72 19.4017L15.8001 21.1296C15.8001 21.1296 14.4352 21.8475 12.0036 21.9795C10.6628 22.0517 8.9979 21.9465 7.0588 21.4438C2.85321 20.3536 2.12994 15.9629 2.01928 11.5078C1.98555 10.1851 2.00634 8.9378 2.00634 7.89463C2.00634 3.33909 5.05385 2.00379 5.05385 2.00379C6.59048 1.31261 9.22721 1.02195 11.9684 1H12.0357C14.7769 1.02195 17.4153 1.31261 18.9518 2.00379C18.9518 2.00379 21.9992 3.33909 21.9992 7.89463C21.9992 7.89463 22.0375 11.2557 21.5742 13.5893Z" fill="#2B90D9"/>
<path d="M18.4046 8.24801V13.764H16.1734V8.41015C16.1734 7.28156 15.6885 6.70872 14.7187 6.70872C13.6465 6.70872 13.1091 7.38825 13.1091 8.73192V11.6624H10.891V8.73192C10.891 7.38825 10.3535 6.70872 9.28127 6.70872C8.31148 6.70872 7.82665 7.28156 7.82665 8.41015V13.764H5.5954V8.24801C5.5954 7.12067 5.88847 6.22481 6.47716 5.56203C7.08421 4.89924 7.87921 4.55948 8.86609 4.55948C10.0079 4.55948 10.8725 4.9893 11.4442 5.84907L12 6.76156L12.5559 5.84907C13.1275 4.9893 13.9921 4.55948 15.134 4.55948C16.1208 4.55948 16.9158 4.89924 17.523 5.56203C18.1115 6.22481 18.4046 7.12067 18.4046 8.24801Z" fill="white"/>
</g>
<defs>
<clipPath id="clip0">
<rect width="20" height="21" fill="white" transform="translate(2 1)"/>
</clipPath>
</defs>
</svg>
