<svg width="24" height="25" viewBox="0 0 24 25" fill="none" xmlns="http://www.w3.org/2000/svg">
<path d="M16.0345 3.5H7.96554C5.20065 3.5 3 5.75705 3 8.46552V16.5345C3 19.2994 5.25708 21.5 7.96554 21.5H16.0345C18.7994 21.5 21 19.2429 21 16.5345V8.52194C21 5.75705 18.743 3.5 16.0345 3.5ZM19.4201 16.5909C19.4201 18.453 17.8966 19.9765 16.0345 19.9765H7.96554C6.10347 19.9765 4.57996 18.453 4.57996 16.5909V8.52194C4.57996 6.65987 6.10347 5.13636 7.96554 5.13636H16.0345C17.8966 5.13636 19.4201 6.65987 19.4201 8.52194V16.5909Z" fill="url(#paint0_linear)"/>
<path d="M11.9718 7.90123C9.43262 7.90123 7.34483 9.989 7.34483 12.5282C7.34483 15.0674 9.43262 17.1551 11.9718 17.1551C14.511 17.1551 16.5988 15.0674 16.5988 12.5282C16.5988 9.989 14.511 7.90123 11.9718 7.90123ZM11.9718 15.5752C10.279 15.5752 8.92477 14.221 8.92477 12.5282C8.92477 10.8354 10.279 9.48117 11.9718 9.48117C13.6646 9.48117 15.0189 10.8354 15.0189 12.5282C15.0189 14.221 13.6646 15.5752 11.9718 15.5752Z" fill="url(#paint1_linear)"/>
<path d="M16.8245 6.54715C16.5423 6.54715 16.2038 6.66 15.9781 6.88571C15.7524 7.11142 15.6395 7.39355 15.6395 7.73211C15.6395 8.01424 15.7524 8.3528 15.9781 8.57851C16.2038 8.80422 16.4859 8.91707 16.8245 8.91707C17.1066 8.91707 17.4452 8.80422 17.6709 8.57851C17.8966 8.3528 18.0095 8.07067 18.0095 7.73211C18.0095 7.44998 17.8966 7.11142 17.6709 6.88571C17.4452 6.66 17.1066 6.54715 16.8245 6.54715Z" fill="url(#paint2_linear)"/>
<defs>
<linearGradient id="paint0_linear" x1="21.0166" y1="5.63166" x2="2.9791" y2="11.6981" gradientUnits="userSpaceOnUse">
<stop stop-color="#E0316D"/>
<stop offset="1" stop-color="#B034AE"/>
</linearGradient>
<linearGradient id="paint1_linear" x1="21.0166" y1="5.63166" x2="2.9791" y2="11.6981" gradientUnits="userSpaceOnUse">
<stop stop-color="#E0316D"/>
<stop offset="1" stop-color="#B034AE"/>
</linearGradient>
<linearGradient id="paint2_linear" x1="21.0166" y1="5.63166" x2="2.9791" y2="11.6981" gradientUnits="userSpaceOnUse">
<stop stop-color="#E0316D"/>
<stop offset="1" stop-color="#B034AE"/>
</linearGradient>
</defs>
</svg>
