<svg width="24" height="25" viewBox="0 0 24 25" fill="none" xmlns="http://www.w3.org/2000/svg">
<path d="M19.9944 8.5C19.9944 8.67143 19.9944 8.84286 19.9944 9.01429C19.9944 14.3286 15.8719 20.5 8.29526 20.5C5.95543 20.5 3.78273 19.8143 2 18.6714C2.33426 18.7286 2.66852 18.7286 3.00279 18.7286C4.95265 18.7286 6.67967 18.1 8.12813 17.0143C6.3454 16.9571 4.78551 15.8143 4.28412 14.2143C4.50696 14.2714 4.78552 14.2714 5.06407 14.2714C5.45404 14.2714 5.7883 14.2143 6.12256 14.1571C4.22841 13.8143 2.83565 12.1571 2.83565 10.2143V10.1571C3.39276 10.4429 4.00557 10.6143 4.67409 10.6714C3.55989 9.92857 2.83565 8.72857 2.83565 7.3C2.83565 6.55714 3.0585 5.87143 3.39276 5.24286C5.39833 7.7 8.46239 9.3 11.8607 9.47143C11.805 9.18571 11.7493 8.84286 11.7493 8.55714C11.7493 6.32857 13.5877 4.5 15.8719 4.5C17.0418 4.5 18.1003 5.01429 18.8802 5.75714C19.8273 5.64286 20.7187 5.3 21.4986 4.84286C21.1643 5.81429 20.5515 6.55714 19.6602 7.07143C20.4958 6.95714 21.2758 6.78571 22 6.44286C21.4986 7.24286 20.8301 7.92857 19.9944 8.5Z" fill="#26A8DE"/>
</svg>
