<svg width="153" height="28" viewBox="0 0 153 28" fill="none" xmlns="http://www.w3.org/2000/svg">
<path fill-rule="evenodd" clip-rule="evenodd" d="M13.0492 27.6569L0.784323 21.8924C-0.260464 21.3891 -0.260464 20.6114 0.784323 20.1539L5.05432 18.1409L13.0038 21.8924C14.0486 22.3956 15.7293 22.3956 16.7287 21.8924L24.6782 18.1409L28.9482 20.1539C29.9929 20.6571 29.9929 21.4349 28.9482 21.8924L16.6833 27.6569C15.7293 28.1144 14.0486 28.1144 13.0492 27.6569Z" fill="#FF6F3D"/>
<path fill-rule="evenodd" clip-rule="evenodd" d="M13.0095 20.5235L0.781936 14.7523C-0.259669 14.2485 -0.259669 13.4698 0.781936 13.0118L4.94835 11.0422L13.0095 14.8439C14.0511 15.3477 15.7267 15.3477 16.723 14.8439L24.7841 11.0422L28.9505 13.0118C29.9921 13.5156 29.9921 14.2943 28.9505 14.7523L16.723 20.5235C15.6814 21.0273 14.0058 21.0273 13.0095 20.5235Z" fill="#95C038"/>
<path fill-rule="evenodd" clip-rule="evenodd" d="M13.0095 13.4642L0.781936 7.77607C-0.259669 7.27948 -0.259669 6.51203 0.781936 6.06059L13.0095 0.372439C14.0511 -0.124146 15.7267 -0.124146 16.723 0.372439L28.9505 6.06059C29.9921 6.55718 29.9921 7.32463 28.9505 7.77607L16.723 13.4642C15.6814 13.9157 14.0058 13.9157 13.0095 13.4642Z" fill="#5DC0E8"/>
<path d="M37.7839 13.9776C37.7839 11.5999 38.4724 9.8054 39.8952 8.63898C41.272 7.42769 42.9243 6.84448 44.8061 6.84448C46.6878 6.84448 48.2942 7.42769 49.6711 8.63898C51.048 9.85026 51.7364 11.5999 51.7364 14.0225C51.7364 16.4002 51.048 18.1947 49.6711 19.3611C48.2942 20.5724 46.6419 21.1556 44.8061 21.1556C42.9243 21.1556 41.3179 20.5724 39.8952 19.3611C38.4724 18.1498 37.7839 16.3553 37.7839 13.9776ZM40.8131 13.9776C40.8131 15.6375 41.1344 16.8039 41.731 17.5666C42.3736 18.3292 43.062 18.8227 43.7963 19.0022C43.9799 19.047 44.1176 19.0919 44.3012 19.0919C44.4389 19.0919 44.6225 19.1368 44.7602 19.1368C44.9437 19.1368 45.0814 19.1368 45.265 19.0919C45.4486 19.0919 45.5863 19.047 45.7699 19.0022C46.5042 18.8227 47.1927 18.3292 47.7893 17.5666C48.386 16.8039 48.7072 15.5926 48.7072 14.0225C48.7072 12.4074 48.386 11.241 47.7893 10.4783C47.1927 9.71567 46.5042 9.22219 45.7699 9.04274C45.5863 8.99788 45.4027 8.95301 45.265 8.95301C45.0814 8.95301 44.9437 8.90815 44.7602 8.90815C44.5766 8.90815 44.4389 8.90815 44.3012 8.95301C44.1635 8.95301 43.9799 8.99788 43.7963 9.04274C43.062 9.22219 42.3736 9.71567 41.731 10.4783C41.1344 11.1513 40.8131 12.3626 40.8131 13.9776Z" fill="#333333"/>
<path d="M53.8145 6.84448H57.6152L62.621 15.8348L63.3626 17.8071H63.4089L63.3626 15.2385V6.84448H66.2826V21.1556H62.4819L57.4761 11.7983L56.7345 10.1929H56.6882L56.7345 12.7157V21.1556H53.8145V6.84448Z" fill="#333333"/>
<path d="M68.9543 6.84448H71.8547V18.7245H77.5633V21.1556H68.9543V6.84448Z" fill="#333333"/>
<path d="M76.3759 6.84448H79.727L82.665 11.8442L83.1241 12.8533H83.2159L83.675 11.8442L86.6589 6.84448H89.7346L84.5472 15.3302V21.1556H81.6551V15.2844L76.3759 6.84448Z" fill="#333333"/>
<path d="M89.4377 13.9776C89.4377 11.5999 90.1262 9.8054 91.549 8.63898C92.9259 7.42769 94.5781 6.84448 96.4599 6.84448C98.3416 6.84448 99.948 7.42769 101.325 8.63898C102.702 9.85026 103.39 11.5999 103.39 14.0225C103.39 16.4002 102.702 18.1947 101.325 19.3611C99.948 20.5724 98.2957 21.1556 96.4599 21.1556C94.5781 21.1556 92.9718 20.5724 91.549 19.3611C90.1721 18.1498 89.4377 16.3553 89.4377 13.9776ZM92.4669 13.9776C92.4669 15.6375 92.7882 16.8039 93.3848 17.5666C94.0274 18.3292 94.6699 18.8227 95.4501 19.0022C95.6337 19.047 95.7714 19.0919 95.955 19.0919C96.0927 19.0919 96.2763 19.1368 96.414 19.1368C96.5976 19.1368 96.7352 19.1368 96.9188 19.0919C97.1024 19.0919 97.2401 19.047 97.4237 19.0022C98.158 18.8227 98.8465 18.3292 99.4431 17.5666C100.04 16.8039 100.361 15.5926 100.361 14.0225C100.361 12.4074 100.04 11.241 99.4431 10.4783C98.8465 9.71567 98.158 9.22219 97.4237 9.04274C97.2401 8.99788 97.0565 8.95301 96.9188 8.95301C96.7352 8.95301 96.5976 8.90815 96.414 8.90815C96.2304 8.90815 96.0927 8.90815 95.955 8.95301C95.8173 8.95301 95.6337 8.99788 95.4501 9.04274C94.7158 9.22219 94.0274 9.71567 93.3848 10.4783C92.7882 11.1513 92.4669 12.3626 92.4669 13.9776Z" fill="#333333"/>
<path d="M105.468 6.84448H113.484V9.17997H108.37V12.5934H113.253V14.9738H108.37V20.8574H105.468V6.84448Z" fill="#333333"/>
<path d="M115.562 6.84448H123.577V9.17997H118.464V12.5934H123.346V14.9738H118.464V20.8574H115.562V6.84448Z" fill="#333333"/>
<path d="M125.655 20.8574V6.84448H128.623V20.8574H125.655Z" fill="#333333"/>
<path d="M141.982 7.20565V9.6435C141.471 9.46292 140.961 9.32748 140.404 9.23719C139.847 9.1469 139.197 9.10175 138.547 9.10175C137.015 9.10175 135.854 9.55321 135.019 10.5013C134.183 11.4042 133.765 12.5779 133.765 13.9775C133.765 15.3318 134.137 16.4605 134.926 17.3634C135.715 18.2663 136.829 18.7629 138.268 18.7629C138.779 18.7629 139.29 18.7177 139.893 18.6726C140.497 18.5823 141.1 18.4469 141.75 18.176L141.936 20.5687C141.843 20.6138 141.704 20.659 141.564 20.7041C141.379 20.7493 141.193 20.7944 140.961 20.8396C140.589 20.9298 140.125 20.975 139.568 21.0653C139.011 21.1104 138.454 21.1556 137.851 21.1556C137.758 21.1556 137.665 21.1556 137.618 21.1556C137.526 21.1556 137.433 21.1556 137.386 21.1556C135.715 21.0653 134.183 20.4332 132.79 19.3498C131.398 18.2211 130.701 16.4605 130.701 14.1129C130.701 11.8105 131.398 10.0047 132.744 8.74059C134.09 7.47652 135.947 6.84448 138.222 6.84448C138.825 6.84448 139.382 6.84448 139.847 6.88963C140.357 6.93477 140.822 7.02506 141.332 7.11536C141.425 7.1605 141.564 7.1605 141.657 7.20565C141.75 7.1605 141.843 7.20565 141.982 7.20565Z" fill="#333333"/>
<path d="M144.06 6.84448H152.372V9.04523H146.905V12.5485H151.839V14.7043H146.905V18.6567H152.372V20.8574H144.06V6.84448Z" fill="#333333"/>
</svg>
