<svg width="48" height="48" viewBox="0 0 48 48" fill="none" xmlns="http://www.w3.org/2000/svg">
<g clip-path="url(#clip0_331_16471)">
<circle cx="24" cy="24" r="23.5" fill="#F5F5F5" stroke="black" stroke-linejoin="round" stroke-dasharray="4 4"/>
<path fill-rule="evenodd" clip-rule="evenodd" d="M10.9518 17.6426C10.4273 17.1269 10.4429 16.261 10.9868 15.7085L14.6216 12.016C15.1654 11.4636 16.0315 11.4338 16.556 11.9495L33.0547 28.172C33.2193 28.3339 33.5328 28.5366 33.5915 28.7631L34.6593 33.6402C34.9219 34.6531 33.9653 35.6249 32.9476 35.3791L28.0502 34.3193C27.8227 34.2643 27.6152 34.027 27.4505 33.8651L10.9518 17.6426Z" fill="url(#paint0_linear_331_16471)"/>
<path d="M30.8223 30.8394L32.2715 29.3677C32.8157 28.8148 33.2002 28.4272 33.2002 28.4272C33.3649 28.5892 33.5291 28.5301 33.5879 28.7563L34.6572 33.6372C34.9199 34.6508 33.9626 35.6232 32.9443 35.3774L28.0439 34.3169C27.8162 34.2619 27.9138 34.0219 27.749 33.8599C27.749 33.8599 28.0906 33.6158 28.6348 33.063L30.1211 31.5513L16.6162 18.2729L17.3164 17.562L30.8223 30.8394Z" fill="white"/>
<path fill-rule="evenodd" clip-rule="evenodd" d="M14.62 12.0161C15.1638 11.4636 16.0301 11.4341 16.5546 11.9497L33.0546 28.1723C33.2193 28.3342 33.533 28.5367 33.5917 28.7631L34.6591 33.6401C34.9217 34.653 33.9649 35.6252 32.9472 35.3793L28.0507 34.3198C27.8232 34.2648 27.6148 34.0276 27.4501 33.8657L10.9511 17.643C10.4266 17.1273 10.4415 16.2609 10.9853 15.7084L14.62 12.0161ZM29.3925 33.5258L31.6308 34.0756L33.3554 32.1909L32.8261 30.104L29.3925 33.5258ZM14.746 20.1479L28.039 33.0815C28.1213 33.1624 28.1342 33.2181 28.248 33.2456L28.2821 33.2534L32.5341 28.9995C32.5003 28.898 32.4647 28.8065 32.4296 28.7719L19.0888 15.7348L14.746 20.1479ZM15.9677 12.684C15.7054 12.4262 15.5326 12.4137 15.2607 12.6899L11.6728 16.3237C11.4009 16.5999 11.4183 16.9076 11.6806 17.1655L14.0302 19.4516L18.3808 15.0424L15.9677 12.684Z" fill="#333333"/>
</g>
<defs>
<linearGradient id="paint0_linear_331_16471" x1="9.78044" y1="16.9341" x2="23.0839" y2="8.90163" gradientUnits="userSpaceOnUse">
<stop stop-color="#FF8E3D"/>
<stop offset="1" stop-color="#FF6F3D"/>
</linearGradient>
<clipPath id="clip0_331_16471">
<rect width="48" height="48" fill="white"/>
</clipPath>
</defs>
</svg>
