<svg width="180" height="90" viewBox="0 0 180 90" fill="none" xmlns="http://www.w3.org/2000/svg">
<g clip-path="url(#clip0_16382_131974)">
<rect width="180" height="90" fill="#EFEFEF"/>
<path d="M170.5 81.5H9.5V81.4294V81.2868V81.1442V81.0015V80.8589V80.7163V80.5736V80.431V80.2884V80.1457V80.0031V79.8605V79.7178V79.5752V79.4326V79.2899V79.1473V79.0047V78.8621V78.7194V78.5768V78.4342V78.2916V78.1489V78.0063V77.8637V77.7211V77.5785V77.4358V77.2932V77.1506V77.008V76.8654V76.7227V76.5801V76.4375V76.2949V76.1523V76.0097V75.8671V75.7244V75.5818V75.4392V75.2966V75.154V75.0114V74.8688V74.7262V74.5836V74.441V74.2984V74.1558V74.0132V73.8706V73.7279V73.5853V73.4427V73.3001V73.1575V73.0149V72.8723V72.7297V72.5871V72.4445V72.3019V72.1593V72.0167V71.8741V71.7316V71.589V71.4464V71.3038V71.1612V71.0186V70.876V70.7334V70.5908V70.4482V70.3056V70.163V70.0204V69.8779V69.7353V69.5927V69.4501V69.3075V69.1649V69.0223V68.8797V68.7372V68.5946V68.452V68.3094V68.1668V68.0242V67.8817V67.7391V67.5965V67.4539V67.3113V67.1688V67.0262V66.8836V66.741V66.5984V66.4559V66.3133V66.1707V66.0281V65.8856V65.743V65.6004V65.4578V65.3153V65.1727V65.0301V64.8875V64.745V64.6024V64.4598V64.3172V64.1747V64.0321V63.8895V63.747V63.6044V63.4618V63.3192V63.1767V63.0341V62.8915V62.749V62.6064V62.4638V62.3213V62.1787V62.0361V61.8936V61.751V61.6084V61.4659V61.3233V61.1807V61.0382V60.8956V60.7531V60.6105V60.4679V60.3254V60.1828V60.0402V59.8977V59.7551V59.6126V59.47V59.3274V59.1849V59.0423V58.8998V58.7572V58.6146V58.4721V58.3295V58.187V58.0444V57.9019V57.7593V57.6167V57.4742V57.3316V57.1891V57.0465V56.904V56.7614V56.6189V56.4763V56.3337V56.1912V56.0486V55.9061V55.7635V55.621V55.4784V55.3359V55.1933V55.0508V54.9082V54.7656V54.6231V54.4805V54.338V54.1954V54.0529V53.9103V53.7678V53.6252V53.4827V53.3401V53.1976V53.055V52.9125V52.7699V52.6274V52.4848V52.3423V52.1997V52.0572V51.9146V51.7721V51.6295V51.487V51.3444V51.2019V51.0593V50.9168V50.7742V50.6317V50.4891V50.3466V50.204V50.0615V49.919V49.7764V49.6339V49.4913V49.3488V49.2062V49.0637V48.9211V48.7786V48.636V48.4935V48.3509V48.2084V48.0658V47.9233V47.7807V47.6382V47.4957V47.3531V47.2106V47.068V46.9255V46.7829V46.6404V46.4978V46.3553V46.2127V46.0702V45.9276V45.7851V45.6425V45.5V45.3575V45.2149V45.0724V44.9298V44.7873V44.6447V44.5022V44.3596V44.2171V44.0745V43.932V43.7894V43.6469V43.5043V43.3618V43.2193V43.0767V42.9342V42.7916V42.6491V42.5065V42.364V42.2214V42.0789V41.9363V41.7938V41.6512V41.5087V41.3661V41.2236V41.081V40.9385V40.7959V40.6534V40.5109V40.3683V40.2258V40.0832V39.9407V39.7981V39.6556V39.513V39.3705V39.2279V39.0854V38.9428V38.8003V38.6577V38.5152V38.3726V38.2301V38.0875V37.945V37.8024V37.6599V37.5173V37.3748V37.2322V37.0897V36.9471V36.8046V36.662V36.5195V36.3769V36.2343V36.0918V35.9492V35.8067V35.6641V35.5216V35.379V35.2365V35.0939V34.9514V34.8088V34.6663V34.5237V34.3811V34.2386V34.096V33.9535V33.8109V33.6684V33.5258V33.3833V33.2407V33.0981V32.9556V32.813V32.6705V32.5279V32.3854V32.2428V32.1002V31.9577V31.8151V31.6726V31.53V31.3874V31.2449V31.1023V30.9598V30.8172V30.6746V30.5321V30.3895V30.2469V30.1044V29.9618V29.8193V29.6767V29.5341V29.3916V29.249V29.1064V28.9639V28.8213V28.6787V28.5362V28.3936V28.251V28.1085V27.9659V27.8233V27.6808V27.5382V27.3956V27.253V27.1105V26.9679V26.8253V26.6828V26.5402V26.3976V26.255V26.1125V25.9699V25.8273V25.6847V25.5422V25.3996V25.257V25.1144V24.9719V24.8293V24.6867V24.5441V24.4016V24.259V24.1164V23.9738V23.8312V23.6887V23.5461V23.4035V23.2609V23.1183V22.9758V22.8332V22.6906V22.548V22.4054V22.2628V22.1203V21.9777V21.8351V21.6925V21.5499V21.4073V21.2647V21.1221V20.9796V20.837V20.6944V20.5518V20.4092V20.2666V20.124V19.9814V19.8388V19.6962V19.5536V19.411V19.2684V19.1258V18.9833V18.8407V18.6981V18.5555V18.4129V18.2703V18.1277V17.9851V17.8425V17.6999V17.5573V17.4147V17.2721V17.1294V16.9868V16.8442V16.7016V16.559V16.4164V16.2738V16.1312V15.9886V15.846V15.7034V15.5608V15.4182V15.2755V15.1329V14.9903V14.8477V14.7051V14.5625V14.4199V14.2773V14.1346V13.992V13.8494V13.7068V13.5642V13.4215V13.2789V13.1363V12.9937V12.8511V12.7084V12.5658V12.4232V12.2806V12.1379V11.9953V11.8527V11.7101V11.5674V11.4248V11.2822V11.1395V10.9969V10.8543V10.7116V10.569V10.4264V10.2837V10.1411V9.99847V9.85584V9.7132V9.57056V9.5H170.5V81.5Z" fill="white" stroke="#CCCCCC"/>
<path fill-rule="evenodd" clip-rule="evenodd" d="M141.778 68.1234V42.0145C141.778 41.2457 141.107 40.6226 140.278 40.6226C139.45 40.6226 138.778 41.2457 138.778 42.0145V68.1234C138.778 68.8921 139.45 69.5153 140.278 69.5153C141.107 69.5153 141.778 68.8921 141.778 68.1234ZM127.778 46.7439V68.041C127.778 68.8098 127.107 69.4329 126.278 69.4329C125.45 69.4329 124.778 68.8098 124.778 68.041V46.744C124.778 45.9752 125.45 45.3521 126.278 45.3521C127.107 45.3521 127.778 45.9752 127.778 46.7439ZM148.778 68.0415V47.8252C148.778 47.0565 148.107 46.4333 147.278 46.4333C146.45 46.4333 145.778 47.0565 145.778 47.8252V68.0415C145.778 68.8102 146.45 69.4334 147.278 69.4334C148.107 69.4334 148.778 68.8102 148.778 68.0415ZM120.778 68.0955V54.5051C120.778 53.7363 120.107 53.1132 119.278 53.1132C118.45 53.1132 117.778 53.7363 117.778 54.5051V68.0955C117.778 68.8642 118.45 69.4874 119.278 69.4874C120.107 69.4874 120.778 68.8642 120.778 68.0955ZM134.778 68.1232V58.15C134.778 57.3812 134.107 56.7581 133.278 56.7581C132.45 56.7581 131.778 57.3812 131.778 58.15V68.1232C131.778 68.8919 132.45 69.5151 133.278 69.5151C134.107 69.5151 134.778 68.8919 134.778 68.1232ZM113.778 58.15V68.1232C113.778 68.8919 113.107 69.5151 112.278 69.5151C111.45 69.5151 110.778 68.8919 110.778 68.1232V58.15C110.778 57.3812 111.45 56.7581 112.278 56.7581C113.107 56.7581 113.778 57.3812 113.778 58.15ZM155.778 45.9236V68.1017C155.778 68.8704 155.107 69.4935 154.278 69.4935C153.45 69.4935 152.778 68.8704 152.778 68.1017V45.9236C152.778 45.1549 153.45 44.5317 154.278 44.5317C155.107 44.5317 155.778 45.1549 155.778 45.9236Z" fill="#9ADAF3"/>
<path fill-rule="evenodd" clip-rule="evenodd" d="M158 25.9497C158 27.6066 156.657 28.9497 155 28.9497C154.563 28.9497 154.148 28.8564 153.774 28.6887L149.933 31.3326C149.643 32.6857 148.44 33.6999 147 33.6999C145.651 33.6999 144.51 32.8094 144.132 31.5842L142.13 30.4128C141.586 30.9608 140.833 31.3001 140 31.3001C139.719 31.3001 139.447 31.2615 139.189 31.1893L134.804 35.4411C134.824 35.5829 134.835 35.7278 134.835 35.8753C134.835 37.5322 133.492 38.8753 131.835 38.8753C130.178 38.8753 128.835 37.5322 128.835 35.8753L128.835 35.8326L126.421 33.6426C125.998 33.8706 125.514 34.0001 125 34.0001C124.474 34.0001 123.981 33.8649 123.551 33.6275L112.557 42.507C112.594 42.694 112.613 42.8871 112.613 43.0848C112.613 44.7416 111.272 46.0848 109.619 46.0848C107.965 46.0848 106.625 44.7416 106.625 43.0848C106.625 41.4279 107.965 40.0848 109.619 40.0848C109.957 40.0848 110.282 40.1408 110.585 40.2442L122 31.0238L122 31.0001C122 29.3432 123.343 28.0001 125 28.0001C126.657 28.0001 128 29.3432 128 31.0001L128 31.0239L130.427 33.2257C130.846 33.0021 131.326 32.8753 131.835 32.8753C132.221 32.8753 132.589 32.9482 132.928 33.0808L137.093 29.0433C137.032 28.8056 137 28.5566 137 28.3001C137 26.6433 138.343 25.3001 140 25.3001C141.328 25.3001 142.454 26.1627 142.849 27.358L144.9 28.5576C145.441 28.0271 146.182 27.6999 147 27.6999C147.728 27.6999 148.396 27.9595 148.916 28.391L152.016 26.2572C152.005 26.1561 152 26.0535 152 25.9497C152 24.2929 153.343 22.9497 155 22.9497C156.657 22.9497 158 24.2929 158 25.9497Z" fill="url(#paint0_linear_16382_131974)"/>
<rect x="7" y="8" width="166" height="4" fill="#CCCCCC"/>
<path fill-rule="evenodd" clip-rule="evenodd" d="M32.7965 79.54L21.3403 91.1013V87.1913C25.7217 82.5953 28.4151 80.226 32.8308 75.5957L32.7965 79.54Z" fill="#AAAAAA"/>
<path fill-rule="evenodd" clip-rule="evenodd" d="M93.7603 79.2652H78.9147V74.9779H95.7784V79.2652H93.7603ZM62.7693 79.2652H33.6255V74.9779H62.8719V79.2652H62.7693Z" fill="#AAAAAA"/>
<path fill-rule="evenodd" clip-rule="evenodd" d="M81.1969 80.0542H92.8349C91.8423 94.0479 90.8496 108.042 89.8228 122.07H79.7935C80.2385 108.076 80.6835 94.0822 81.0942 80.0542H81.1969ZM35.7743 80.1227C36.6985 94.0822 37.6227 108.076 38.5469 122.035H23.9309C23.2121 112.226 22.4932 102.382 21.7744 92.5731C25.7793 88.3887 29.7499 84.2386 33.7205 80.0542H35.7743V80.1227ZM56.3463 80.1571L56.312 79.574L55.1482 79.6083V80.0885H36.4931C37.4173 94.0822 38.3415 108.076 39.2657 122.104H56.3463V122.344L57.5101 122.31C57.1678 108.213 56.757 94.1851 56.3463 80.1571Z" fill="#CCCCCC"/>
<path fill-rule="evenodd" clip-rule="evenodd" d="M57.168 115.039L56.1411 80.0543H62.8159V82.5238H78.9039V80.0543H80.3073C79.8623 94.0481 79.4515 108.042 79.0066 122.07H57.3734L57.168 115.039Z" fill="#D9F4FF"/>
<path fill-rule="evenodd" clip-rule="evenodd" d="M45.9406 56.3884C46.0775 58.2405 46.1802 60.1612 46.2487 62.0476C46.2487 62.3563 46.2829 62.6993 46.2829 63.008C46.2829 63.3167 46.3172 63.6596 46.3172 63.9683V64.5171C46.3514 66.1977 46.3514 67.8783 46.3514 69.4904C46.3514 71.1024 46.3171 72.6801 46.2829 74.1549V74.2578H36.4248V74.1892C36.3221 73.7433 36.2194 73.2975 36.1168 72.8173L35.8087 71.4111C35.5691 70.3135 35.3637 69.216 35.0899 68.0841C34.8503 66.9523 34.5764 65.7861 34.2341 64.5857L34.0972 64.0369C33.9945 63.6596 33.8918 63.3167 33.7891 62.9394C33.6865 62.5621 33.5495 62.1848 33.4468 61.8075C33.4126 61.7046 33.3784 61.636 33.3442 61.5674C33.31 61.4988 33.2757 61.4302 33.2073 61.3959C33.173 61.3616 33.1388 61.3273 33.1045 61.3273C33.0703 61.293 33.0361 61.2931 33.0019 61.2931C32.9677 61.2931 32.9334 61.2931 32.8992 61.2931C32.865 61.2931 32.8307 61.3273 32.7965 61.3273C32.7281 61.3616 32.6596 61.4645 32.6596 61.5674C32.6254 61.6703 32.6596 61.8075 32.6938 61.979C32.7965 62.2877 32.8992 62.5964 32.9677 62.9051L33.1045 63.351L33.2415 63.8311L33.4468 64.5171C33.7891 65.7518 34.063 66.9523 34.3368 68.1184C34.6107 69.2846 34.8503 70.4164 35.0557 71.5483L35.3295 72.8516C35.4322 73.2632 35.5006 73.7091 35.6033 74.1549L35.6375 74.2578H33.5495H33.1598H33.0019H32.7623V74.4979C31.1877 76.1442 29.6474 77.7906 28.0728 79.4026L28.0044 79.2654C27.6621 78.305 27.2855 77.3447 26.9432 76.35C26.6352 75.424 26.3271 74.4636 26.0191 73.5033C25.711 72.4743 25.4029 71.4454 25.1633 70.4164C24.9237 69.4561 24.6841 68.4614 24.4787 67.501C24.1364 65.9233 23.7599 64.0369 23.5203 62.0819C23.2807 60.1269 23.178 58.069 23.4176 56.1483C23.623 54.2962 24.1707 52.5813 25.2318 51.2093C26.2929 49.8374 27.8332 48.8428 30.0582 48.3969C30.5716 48.294 31.0508 48.1911 31.4958 48.1225C32.0777 48.0196 32.6596 47.9167 33.2415 47.8138C34.1999 47.6423 34.953 47.5051 35.5691 47.3679C36.1852 47.2307 36.6987 47.0935 37.1094 46.9563L37.2463 46.922V47.0592C37.2463 47.4022 37.2806 47.7795 37.349 48.2254C37.4175 48.6713 37.5202 49.1857 37.6571 49.7002C37.8625 50.4548 38.1021 51.2779 38.3759 51.9982C38.6497 52.7528 38.9236 53.4387 39.1974 53.9875C39.3686 54.3305 39.5397 54.6392 39.7109 54.845C39.8478 55.0507 40.0189 55.2222 40.1559 55.3251L40.3612 55.4623L40.5666 55.3594C41.8331 54.6735 43.4419 52.89 44.6399 51.518C44.8453 51.2779 45.0849 51.0378 45.2903 50.7978L45.3245 51.0036C45.5983 52.6842 45.8037 54.502 45.9406 56.3884ZM84.5515 58.7893C84.1749 58.3434 83.8669 57.9661 83.6615 57.7946L83.593 57.726L83.9353 57.2115L84.2092 56.7657C84.3803 56.4913 84.5515 56.2512 84.6884 55.9768C84.8595 55.7024 84.9965 55.4623 85.1676 55.1879L85.2361 55.0851L85.3388 55.1879C85.5099 55.3937 85.7153 55.6338 85.9549 55.9082C86.1602 56.1826 86.3999 56.457 86.6052 56.7657L86.8448 57.1087C87.0844 57.4859 87.324 57.8289 87.5294 58.1719C87.7006 58.4806 87.8375 58.755 87.9402 58.9951V59.0294L87.906 59.0637C87.7348 59.338 87.5636 59.7153 87.3583 60.1269C87.1529 60.5728 86.9475 61.053 86.7079 61.6017L86.6395 61.7732L86.5368 61.6017C86.4341 61.3959 86.2972 61.1559 86.126 60.9158C85.9549 60.6757 85.7837 60.4013 85.6126 60.1269C85.2703 59.7153 84.8938 59.2009 84.5515 58.7893ZM77.6713 66.6093C77.2606 67.3296 76.8841 68.0155 76.5418 68.7015C76.3706 69.0788 76.1995 69.4561 76.0283 69.8333C75.8914 70.2106 75.7545 70.5879 75.6176 70.9652L75.3437 71.7883C74.3511 70.1077 73.3242 68.4614 72.3316 66.7808L72.1261 68.8044C72.0235 69.6619 71.955 70.5193 71.8523 71.4454L71.7154 72.7487L71.5785 74.1892H81.2997L81.3339 74.1206C81.9158 72.8516 82.4977 71.5483 83.0454 70.2106C83.593 68.9073 84.1407 67.5696 84.6884 66.3349C85.2018 65.0659 85.7153 63.7968 86.2629 62.5621L86.0918 62.6307C86.0233 62.4249 85.8864 62.1505 85.7153 61.8418C85.5099 61.4645 85.236 61.053 84.9622 60.6414C84.6541 60.1955 84.3119 59.7496 84.038 59.3723C83.73 58.9608 83.4219 58.6521 83.2165 58.4463L83.1481 58.3777L83.0796 58.4806C82.8057 58.8922 82.5662 59.2694 82.2923 59.6124C82.1554 59.8182 81.5735 60.6071 81.505 60.7786C80.7862 61.8418 80.0332 62.9051 79.3486 63.934L79.0063 64.4828C78.5271 65.2031 78.0821 65.889 77.6713 66.6093ZM46.7279 56.2855C46.8648 58.1719 47.0017 60.0926 47.0702 62.0133C47.0702 62.3563 47.1044 62.665 47.1044 63.008C47.1044 63.351 47.1386 63.6596 47.1386 64.0026V64.5514C47.1729 66.232 47.1729 67.8783 47.1729 69.4904C47.1729 71.1024 47.1386 72.6458 47.1044 74.1549V74.2578H54.4637V74.1892C54.6691 73.0574 54.8745 71.8912 55.0457 70.6908C55.2168 69.4904 55.3537 68.2556 55.4906 66.9866C55.5249 66.6093 55.5591 66.1977 55.5933 65.7861C55.6276 65.3746 55.6275 64.963 55.6618 64.5514L55.696 64.0026C55.7302 63.1109 55.7303 62.1848 55.7303 61.1902C55.7303 60.1955 55.696 59.2009 55.6618 58.1376C55.6618 57.8289 55.7302 57.6231 55.8671 57.5202C55.9014 57.4859 55.9698 57.4859 56.0041 57.4859C56.0383 57.4859 56.1068 57.4859 56.141 57.5202C56.2779 57.5888 56.4149 57.7946 56.4149 58.1376C56.4491 58.755 56.4491 59.3723 56.4833 59.9554C56.4833 60.5385 56.5175 61.1216 56.5175 61.6703V61.7046L56.5517 61.7389C56.8598 62.1162 57.1679 62.4592 57.5102 62.8708C57.8182 63.2481 58.1605 63.6596 58.5371 64.0712L59.0847 64.7572C60.317 66.232 61.6519 67.844 63.0553 69.4904C64.4587 71.1367 65.9306 72.7487 67.4025 74.2578L67.4367 74.2921H68.3267V74.1892C68.4978 72.3028 68.669 70.5879 68.8401 68.9073V68.873C69.0113 67.3639 69.1482 65.9233 69.2509 64.5514L69.2851 64.0026C69.3194 63.6596 69.3536 63.3166 69.3536 63.0423C69.3878 62.7336 69.3878 62.4249 69.4221 62.1162V62.0819V62.0476C69.2509 61.7732 69.0798 61.4988 68.9086 61.2588C68.7375 61.0187 68.5663 60.7443 68.3952 60.4699C68.1898 60.1612 68.0186 59.8868 67.8475 59.6124C67.6763 59.338 67.5052 59.0637 67.2998 58.7893C66.889 58.1719 66.4783 57.5545 66.0675 56.9029C65.0749 55.3937 64.0138 53.7474 62.8157 52.1697C61.6177 50.6263 60.2828 49.1514 58.8451 48.0882L58.8109 48.0539L58.7424 48.0882C58.5028 48.2254 58.229 48.294 57.9552 48.3626C57.6813 48.4312 57.4075 48.4655 57.1337 48.4655C56.4148 48.4655 55.7302 48.2597 55.1826 47.8824C54.6007 47.5051 54.1557 46.922 53.8819 46.2704L53.8476 46.2018H53.5738H53.3684C52.8892 46.2361 52.3073 46.2361 51.7939 46.2704H51.4858L51.52 46.3733C51.6227 46.7849 51.6912 47.3336 51.7254 47.8824C51.7938 48.4655 51.8281 49.0828 51.8281 49.7002C51.8281 50.4205 51.8281 51.1064 51.7254 51.6895C51.6569 52.204 51.5542 52.6156 51.4173 52.89L51.3147 53.0615L51.1093 53.0957C50.9039 53.13 50.4247 52.9586 49.8428 52.7185C49.1924 52.4441 48.4394 52.0668 47.7548 51.6209C47.4809 51.4494 47.1729 51.2779 46.9333 51.1064C46.6937 50.935 46.4541 50.7635 46.2487 50.592L46.0433 50.4205L46.0775 50.6606C46.3514 52.547 46.5567 54.3991 46.7279 56.2855ZM49.6716 51.8267C50.1166 52.0668 50.5274 52.2383 50.8012 52.3069L50.9039 52.3412L50.9381 52.2383C51.0066 51.9639 51.0408 51.6209 51.075 51.2093C51.1093 50.7635 51.1093 50.2833 51.1093 49.7345C51.1093 49.0828 51.075 48.4312 51.0066 47.8481C50.9381 47.265 50.8697 46.7506 50.767 46.3733L50.7327 46.3047H50.6643C50.4247 46.3047 50.2193 46.339 50.0139 46.339C49.8085 46.339 49.6374 46.339 49.5005 46.339H49.432L49.3978 46.4076C49.2609 46.7848 49.0897 47.1278 48.8844 47.4022C48.679 47.7109 48.4051 47.9853 48.1313 48.2254C47.8575 48.4655 47.5836 48.637 47.2756 48.8084C46.9675 48.9799 46.6252 49.1171 46.2487 49.22L46.146 49.2543L46.2145 49.4258C46.2487 49.563 46.4883 49.8031 46.7963 50.0432C47.1729 50.3176 47.6521 50.6263 48.1655 50.935C48.679 51.3122 49.1924 51.6209 49.6716 51.8267ZM42.3465 52.8214C42.9626 52.204 43.5788 51.4837 44.1265 50.9006C44.2976 50.6949 44.4688 50.4891 44.6741 50.2833C44.8453 50.0775 45.0164 49.906 45.1533 49.7688L45.1876 49.7345L45.1533 49.5287H45.0506C44.5714 49.563 44.058 49.563 43.5445 49.4944C43.0311 49.4258 42.5177 49.3229 42.0042 49.1857C41.3196 48.9799 40.6351 48.7056 39.9847 48.3283C39.3686 47.9853 38.7866 47.5394 38.239 47.0592L38.0678 46.8877V47.1278C38.0678 47.4022 38.1363 47.7109 38.2047 48.0882C38.2732 48.4998 38.3759 48.9456 38.5128 49.4258C38.684 50.1461 38.9236 50.935 39.1974 51.6552C39.437 52.3755 39.7109 53.0615 39.9847 53.5759C40.0532 53.7474 40.1558 53.9189 40.2243 54.0561C40.2928 54.1933 40.3612 54.2962 40.4297 54.3991L40.4981 54.4677L40.5666 54.4334C41.08 54.0218 41.7304 53.473 42.3465 52.8214Z" fill="url(#paint1_linear_16382_131974)"/>
<path fill-rule="evenodd" clip-rule="evenodd" d="M49.6376 24.1137C48.3369 24.2509 47.0704 24.0108 45.7355 23.7364C44.1609 23.4277 42.5179 23.0847 40.7722 23.3591L40.6353 23.3934L40.5326 23.4963C40.3957 23.5992 40.293 23.7364 40.1903 23.8393C40.0876 23.9422 39.985 24.0794 39.8823 24.1823L39.7796 24.3195L39.6769 24.4567L39.5742 24.5939L39.4715 24.7311C39.3004 24.9711 39.1292 25.2455 39.0265 25.4856C38.8896 25.7257 38.7869 26.0001 38.7185 26.2402C38.5815 26.5832 38.5131 26.8918 38.4446 27.2348C38.3762 27.5435 38.3419 27.8865 38.3419 28.1952V28.2981L38.1708 28.2638H38.1024C37.9312 28.2295 37.7258 28.2295 37.5204 28.2295C37.3493 28.2295 37.1781 28.2295 37.007 28.2638C36.7332 28.2981 36.4936 28.401 36.254 28.5382C36.0486 28.6754 35.9117 28.8469 35.7747 29.0527C35.3298 29.9101 35.2955 30.699 35.5009 31.3849C35.7063 32.1052 36.1855 32.7226 36.6989 33.2713L36.8358 33.4085L35.9459 33.5457L35.9117 33.5114C35.2613 32.8941 34.7136 32.1052 34.3029 31.1791C33.8921 30.2531 33.6525 29.2584 33.5498 28.1952C33.5156 27.6121 33.5156 26.9947 33.5841 26.4117C33.6525 25.8286 33.7552 25.2455 33.9263 24.6625L33.9606 24.5253L33.9948 24.3881L34.0975 24.1137C34.2686 23.6678 34.474 23.2219 34.7136 22.8103C34.9532 22.3988 35.2271 21.9872 35.5009 21.6099L35.6036 21.4727L35.7063 21.3355C36.117 20.8553 36.562 20.3752 37.0412 19.895C37.4862 19.4834 37.9312 19.0718 38.4446 18.6945C38.8896 18.3516 39.3346 18.0429 39.7796 17.8028C40.1903 17.5627 40.6011 17.3569 41.0461 17.2197C41.3541 17.1168 41.628 17.0139 41.9702 16.9453C42.2783 16.8767 42.6206 16.8081 42.9287 16.7395C43.9556 16.568 45.0509 16.5337 46.1463 16.6023C47.1731 16.7052 48.2 16.911 49.1584 17.2883C50.1511 17.6656 51.041 18.1801 51.7598 18.866C52.4444 19.4834 52.9579 20.2723 53.3002 21.1983C53.3344 21.3355 53.4029 21.4727 53.4371 21.6099C53.4713 21.7471 53.5056 21.8843 53.5398 22.0215V22.0558L53.5056 22.0901C52.2049 23.3934 50.9383 23.9765 49.6376 24.1137Z" fill="#444444"/>
<path fill-rule="evenodd" clip-rule="evenodd" d="M78.5274 79.1622H93.7596L90.6789 122.275L89.7205 122.207L92.7327 80.1226H78.5616V79.1622H78.5274ZM38.4788 122.241L35.6377 79.1622H63.261V80.1226H36.6646L39.4372 122.172L38.4788 122.241Z" fill="#333333"/>
<path fill-rule="evenodd" clip-rule="evenodd" d="M33.8236 80.0541L21.8432 92.6073L24.0339 122.173L23.0755 122.241L20.8506 92.2644L33.139 79.4025L33.8236 80.0541Z" fill="#333333"/>
<path fill-rule="evenodd" clip-rule="evenodd" d="M78.5663 74.1205H96.6692V80.0903H78.5663V79.1406H95.6786V75.1041H78.5663V74.1205ZM63.2984 80.0903H32.8311V74.1205H63.2984V75.0702H33.8216V79.1067H63.2984V80.0903Z" fill="#333333"/>
<path fill-rule="evenodd" clip-rule="evenodd" d="M21.6963 90.5899L32.6997 78.722V75.8595L21.3538 88.0245L21.6963 90.5899ZM33.3993 79.1686L20.851 92.6743L20.2847 87.5079C24.5112 82.9817 28.6559 78.639 32.9116 74.1128L33.3993 79.1686Z" fill="#333333"/>
<path fill-rule="evenodd" clip-rule="evenodd" d="M68.1897 74.4978C68.3609 72.4741 68.5663 70.622 68.7374 68.8385C69.2166 64.0024 69.6616 59.9209 69.5247 56.6626C69.2508 49.9058 66.4782 46.6474 56.6885 47.059L56.6543 46.0987C67.1971 45.6528 70.1751 49.2541 70.5174 56.6283C70.6543 59.9552 70.2435 64.071 69.7301 68.9414C69.5589 70.7249 69.3535 72.6456 69.1824 74.5663L68.1897 74.4978Z" fill="#333333"/>
<path fill-rule="evenodd" clip-rule="evenodd" d="M70.7227 74.498C70.9281 72.4058 71.0993 70.485 71.3047 68.6672C72.0919 60.9501 72.708 55.0508 71.4416 51.1064C70.4489 48.0539 67.9844 46.4419 65.2118 45.5501C62.3708 44.6583 59.1874 44.5554 56.894 44.5554V43.5608C59.2559 43.5608 62.5419 43.6637 65.5199 44.5897C68.5663 45.5501 71.2704 47.3679 72.3658 50.7635C73.7007 54.9136 73.0846 60.9158 72.2973 68.7358C72.0919 70.5879 71.8866 72.5772 71.7154 74.5665L70.7227 74.498Z" fill="#333333"/>
<path d="M57.1678 48.5685C59.1717 48.5685 60.7961 46.9408 60.7961 44.9329C60.7961 42.925 59.1717 41.2972 57.1678 41.2972C55.164 41.2972 53.5396 42.925 53.5396 44.9329C53.5396 46.9408 55.164 48.5685 57.1678 48.5685Z" fill="#333333"/>
<path fill-rule="evenodd" clip-rule="evenodd" d="M63.2267 74.1205H79.0067V82.6265H62.7476V74.1205H63.2267V74.1205ZM78.0482 75.0808H63.706V81.6318H78.0482V75.0808Z" fill="#333333"/>
<path fill-rule="evenodd" clip-rule="evenodd" d="M81.1973 79.677L79.8624 122.241L78.9039 122.207L80.2389 79.6427L81.1973 79.677ZM56.5179 122.207L55.2856 79.677L56.2441 79.6427L57.4763 122.173L56.5179 122.207Z" fill="#333333"/>
<path fill-rule="evenodd" clip-rule="evenodd" d="M36.2884 33.7857C36.3226 33.9572 36.3569 34.1287 36.4253 34.3002C37.1099 36.7697 38.5133 39.1705 40.8067 40.6797C43.1 42.1888 46.3176 42.8405 50.6648 41.7772C50.9044 41.7086 51.1782 41.64 51.4863 41.5714C52.4447 41.297 53.1978 39.9594 53.7454 38.1416C54.3958 35.9465 54.6696 33.134 54.5327 30.596C54.4643 29.2926 54.2589 28.0579 53.9166 26.926C53.5401 25.7256 53.0608 24.628 52.4447 23.6677L53.2662 23.1532C53.9166 24.2164 54.43 25.3826 54.8408 26.6516C55.2173 27.8521 55.4227 29.1554 55.5253 30.5617C55.6623 33.2026 55.3542 36.1523 54.7039 38.4503C54.0877 40.5768 53.0951 42.1545 51.7944 42.5318C51.5205 42.6004 51.2467 42.669 50.9386 42.7376C46.3177 43.8694 42.8262 43.1835 40.3275 41.5028C37.8287 39.8565 36.2884 37.2498 35.5354 34.5746C35.5011 34.4031 35.4327 34.2316 35.3984 34.0258L36.2884 33.7857Z" fill="#333333"/>
<path fill-rule="evenodd" clip-rule="evenodd" d="M56.5179 58.1033C56.6548 61.4988 56.5863 64.4142 56.381 67.0209C56.1413 69.799 55.7306 72.2685 55.2856 74.738L54.3271 74.5665C54.7721 72.1313 55.1829 69.6961 55.4225 66.9523C55.6621 64.3456 55.7306 61.4988 55.5595 58.1376C55.491 57.1086 56.4837 57.0743 56.5179 58.1033Z" fill="#333333"/>
<path fill-rule="evenodd" clip-rule="evenodd" d="M33.5839 61.7392C34.6793 65.2376 35.3296 68.3588 35.9458 71.3427C36.1854 72.4403 36.3908 73.5035 36.6304 74.5325L35.6719 74.7383C35.4323 73.6407 35.2269 72.6118 34.9873 71.5142C34.3712 68.5303 33.7208 65.4434 32.6255 61.9793C32.3516 61.0532 33.2758 60.7788 33.5839 61.7392ZM40.7722 40.6113L39.8138 40.4398L39.7111 40.9543C39.1976 44.0412 39.1291 44.4527 38.1707 45.3102C37.1438 46.1334 36.1854 46.3049 33.0704 46.8879C32.1805 47.0594 31.0851 47.2652 29.9213 47.471C24.958 48.4314 23.0753 51.8955 22.5619 55.977C22.0827 59.9213 22.9726 64.3801 23.623 67.6042C24.0338 69.6278 24.5814 71.6857 25.1976 73.675C25.8822 75.9387 26.6695 78.1681 27.4567 80.226L28.3468 79.883C27.5595 77.8594 26.8064 75.6643 26.1218 73.4006C25.5399 71.4456 24.9922 69.422 24.5815 67.3984C23.9311 64.2772 23.0753 59.887 23.5203 56.0799C23.9653 52.41 25.6768 49.2888 30.0925 48.4314C31.3932 48.1913 32.3859 47.9855 33.2416 47.8483C36.5619 47.2309 37.5546 47.0594 38.7869 46.0305L38.8211 45.9962C39.9849 44.8986 40.0533 44.487 40.6352 41.0915L40.7722 40.6113Z" fill="#333333"/>
<path fill-rule="evenodd" clip-rule="evenodd" d="M49.6036 46.1331C49.3297 47.0592 48.8505 47.8138 48.2002 48.3625C47.6525 48.8427 47.0021 49.1857 46.2833 49.3915L46.3175 49.4944C46.4202 49.7688 47.2759 50.3861 48.2686 50.9692C49.2613 51.5523 50.3566 52.1011 50.87 52.2726C51.007 51.7581 51.0754 50.7977 51.0412 49.8374C51.007 48.3968 50.8358 46.8534 50.6305 46.236L51.5204 45.893C51.7943 46.579 51.9654 48.2596 51.9996 49.8031C52.0339 51.175 51.8969 52.4784 51.5889 53.0271L51.452 53.2329L51.2123 53.2672C50.7674 53.3015 49.1586 52.5813 47.7552 51.7924C46.9679 51.3122 46.2491 50.7977 45.8041 50.3861C45.5303 50.6948 45.188 51.0721 44.7772 51.518C43.5449 52.8899 41.9361 54.7078 40.6696 55.3937L40.43 55.5309L40.1904 55.3594C39.8824 55.1536 39.54 54.6392 39.232 53.9875C38.6843 52.8556 38.0682 51.175 37.6916 49.6659C37.2809 48.0538 37.1098 46.6133 37.4863 46.0645C37.5547 45.9273 37.6574 45.8587 37.7944 45.7901L38.1366 45.6187L38.3762 45.893C39.4031 47.0935 40.8065 47.951 42.2784 48.3625C43.2711 48.6712 44.298 48.7398 45.2222 48.6369C46.1464 48.534 46.9679 48.191 47.584 47.6766C48.0975 47.2307 48.474 46.6476 48.7136 45.893L49.6036 46.1331ZM45.1537 49.5973C44.1268 49.7002 43.0315 49.5973 41.9361 49.2543C40.5669 48.8427 39.232 48.1224 38.1366 47.0935C38.1709 47.6423 38.3078 48.4654 38.5474 49.3915C38.9239 50.832 39.5058 52.4441 40.0193 53.5416C40.1904 53.8846 40.3273 54.159 40.4642 54.3305C41.5596 53.6102 42.9288 52.0668 43.9899 50.832C44.4691 50.3519 44.8457 49.906 45.1537 49.5973Z" fill="#333333"/>
<path fill-rule="evenodd" clip-rule="evenodd" d="M56.4835 61.4988C57.305 62.4249 58.1608 63.4881 59.1192 64.62C61.5837 67.6039 64.596 71.1709 67.5397 74.1892L66.8551 74.8752C63.8771 71.8226 60.8649 68.2213 58.3661 65.2373C57.3735 64.0712 56.4835 62.9737 55.7305 62.1162L56.4835 61.4988ZM81.1631 74.395C82.4638 71.5825 83.7988 68.3928 84.9283 65.6146C86.1264 62.6993 87.1533 60.1955 87.8036 59.0636C87.6325 58.5835 87.1875 57.8632 86.7083 57.1772C86.1949 56.4227 85.6472 55.7024 85.2364 55.2565C84.1411 57.1086 82.8746 58.9607 81.5739 60.8129C79.1436 64.3113 76.7132 67.844 75.7206 71.0338L75.4125 72.0627L74.8648 71.1367C74.4883 70.5193 73.9064 69.5246 73.2903 68.53C72.7084 67.5353 72.0922 66.5407 71.6473 65.8204L72.4687 65.3059C73.0849 66.3349 73.5983 67.1923 74.1118 68.0498L75.1387 69.7647C76.3367 66.7122 78.5616 63.4881 80.7866 60.2641C82.19 58.2405 83.5934 56.2169 84.723 54.2276L84.9968 53.7474L85.4418 54.0904C85.8183 54.3991 86.7425 55.4966 87.5298 56.6285C88.1117 57.4859 88.6252 58.3777 88.7963 58.995L88.8647 59.2008L88.7621 59.3723C88.1802 60.3327 87.1191 62.9051 85.8526 65.9919C84.6888 68.8044 83.3538 72.0284 82.053 74.8066L81.1631 74.395ZM69.4566 62.2191L70.2781 61.7046C69.9016 61.1215 69.5592 60.5385 69.1827 59.9897C68.8404 59.4409 68.4639 58.8921 68.0874 58.3091C67.7108 57.7603 67.3001 57.1086 66.8551 56.457C63.6718 51.5523 59.4957 45.1385 53.3686 45.3786C52.821 45.4129 52.2733 45.4129 51.7598 45.4472C50.8356 45.4815 49.9799 45.5501 49.5349 45.5501C49.5349 45.3786 49.5349 45.1385 49.5691 44.8298C49.6376 43.9038 49.8087 42.8405 49.8087 42.7719L48.953 42.2917C48.9188 42.3946 48.6449 43.698 48.5765 44.7269C48.5422 45.3786 48.5423 45.9617 48.7134 46.2361L48.8161 46.4075L49.0214 46.4418C49.261 46.5104 50.4591 46.4419 51.7941 46.3733C52.3417 46.339 52.9236 46.3047 53.4028 46.3047C58.9823 46.0646 62.9872 52.2383 66.0336 56.9371C66.4444 57.5888 66.8551 58.2062 67.2659 58.8236C67.6082 59.338 67.9847 59.8868 68.3612 60.4699C68.7377 61.0529 69.08 61.636 69.4566 62.2191Z" fill="#333333"/>
<path fill-rule="evenodd" clip-rule="evenodd" d="M83.6273 57.623C84.0039 57.9317 84.9281 59.0293 85.7154 60.1611C86.2973 61.0186 86.8107 61.9103 86.9819 62.5277L86.0577 62.8021C85.9207 62.3219 85.4415 61.533 84.9281 60.7442C84.2092 59.6809 83.3877 58.6863 83.0454 58.4119L83.6273 57.623Z" fill="#333333"/>
<path fill-rule="evenodd" clip-rule="evenodd" d="M84.8599 54.0904C86.1264 51.2093 86.1263 50.3175 86.1263 48.9799V48.8084C86.1263 48.3968 86.0921 47.9166 86.0579 47.4708C85.9894 46.579 85.9552 45.7558 86.1606 45.2071C86.4344 44.5211 86.9136 44.2124 87.8036 44.5554C89.207 45.1042 89.652 46.6133 90.0285 47.8481C90.2339 48.534 90.3709 49.0828 90.4736 49.0828C90.5762 49.0828 90.6447 49.0485 90.7474 49.0142C90.8501 48.9799 90.9528 48.9456 91.0554 48.877C91.2608 48.7741 91.6031 48.6026 92.0139 48.3625C94.3415 46.9906 98.9625 44.3496 101.187 47.1964C101.804 47.9852 101.975 49.3229 101.187 50.9349C100.64 52.1353 99.5787 53.5073 97.833 55.0164C97.7645 55.085 97.4906 55.2908 96.9087 55.5652C96.6007 55.7024 96.1899 55.8739 95.6765 56.0454C95.1288 56.2511 94.5126 56.3197 93.7938 56.4569C92.6985 56.6284 90.097 57.4173 88.3855 58.069L87.4955 57.1086C89.3439 56.4226 92.4589 55.3937 93.6227 55.1879C94.3073 55.085 94.855 54.9821 95.2999 54.8449C95.7792 54.6734 96.1214 54.5362 96.3953 54.399C96.806 54.1933 96.9772 54.0904 97.0114 54.0561C98.586 52.6841 99.5444 51.4494 100.024 50.3861C100.537 49.2543 100.503 48.4311 100.161 47.9852C98.586 45.9959 94.6496 48.2939 92.63 49.4601C92.185 49.7002 91.8427 49.906 91.5689 50.0431C91.432 50.1117 91.2608 50.1803 91.0897 50.2146C90.9185 50.2832 90.7474 50.3175 90.5762 50.3175C89.4124 50.4547 89.1044 49.4258 88.7621 48.1567C88.4882 47.1621 88.1459 45.9959 87.3244 45.6873C87.3244 45.6873 87.3586 45.5158 87.3586 45.5844C87.2559 45.8587 87.2902 46.5447 87.3244 47.3336C87.3586 47.7795 87.3929 48.2596 87.3929 48.7398V48.9113C87.3929 50.4204 87.3929 51.4151 86.0237 54.5362L84.8599 54.0904Z" fill="#333333"/>
<path fill-rule="evenodd" clip-rule="evenodd" d="M35.7408 34.4716C35.6723 34.403 35.6039 34.3687 35.5696 34.3344C33.9609 32.9625 32.9339 30.6988 32.7286 28.2636C32.5232 25.8284 33.1736 23.1875 34.8508 21.0267C34.9193 20.9238 35.022 20.8209 35.0904 20.7523C35.8777 19.8262 36.8704 18.8316 37.9657 17.9741C38.8557 17.2881 39.8141 16.7051 40.7725 16.3621C41.3887 16.122 42.0733 15.9505 42.7921 15.8476C44.9828 15.4703 47.4131 15.6418 49.4669 16.4307C51.5891 17.2195 53.3348 18.6944 54.1221 20.8552C54.259 21.2324 54.3617 21.644 54.4302 22.0556L54.4644 22.2957L54.3274 22.4672C51.3837 25.7941 48.5769 25.2111 45.5989 24.628C44.127 24.3193 42.6209 24.0449 41.0806 24.2164C40.2933 25.0053 39.8483 25.7598 39.5745 26.5144C38.9584 28.2636 39.9168 28.7781 38.2738 28.7781C38.2738 27.9549 38.3422 27.0975 38.6503 26.1714C38.9584 25.2797 39.5403 24.3193 40.5329 23.3933L40.6356 23.2903L40.8068 23.256C42.5867 22.9817 44.2297 23.3246 45.8043 23.6333C48.4742 24.1821 50.9729 24.6623 53.4717 21.9527C53.4032 21.6783 53.3348 21.4039 53.2321 21.1296C52.5475 19.2431 51.0072 18.0084 49.1588 17.2881C47.2419 16.5679 44.9828 16.3964 42.9632 16.7393C42.3129 16.8422 41.6967 17.0137 41.1148 17.2195C40.2591 17.5282 39.3691 18.077 38.5476 18.6944C37.5207 19.4832 36.5623 20.4436 35.8435 21.3353C35.775 21.4382 35.7065 21.5068 35.6381 21.5754C34.0978 23.5304 33.5159 25.897 33.7212 28.1264C33.8924 30.3215 34.8166 32.3451 36.22 33.5456C36.2885 33.6142 36.3227 33.6485 36.3912 33.6828L35.7408 34.4716Z" fill="#333333"/>
<path fill-rule="evenodd" clip-rule="evenodd" d="M46.5571 29.7041C46.4544 29.6355 46.4544 29.5669 46.3518 29.4983C45.7699 28.9152 45.051 28.7094 44.2295 28.7437C43.7161 28.778 43.2027 28.9152 42.8262 29.1553C42.4154 29.3268 41.457 30.0814 42.0047 30.5959C42.21 30.7673 42.7235 30.493 42.7919 30.4244C43.2027 31.1789 43.6477 31.5562 44.1953 31.6591C44.4349 31.762 44.743 31.6934 44.9484 31.6591C45.1538 31.6248 45.4276 31.4876 45.5987 31.2818C45.9752 30.9731 46.1806 30.5273 46.2148 30.0471L46.5571 29.7041Z" fill="#333333"/>
<path fill-rule="evenodd" clip-rule="evenodd" d="M50.5965 29.4643C50.6649 29.43 50.6649 29.43 50.6992 29.3271C51.0415 29.8759 51.418 30.1502 51.7946 30.2874C52.0684 30.3903 52.3765 30.3903 52.6846 30.2188C52.9242 30.0817 53.1295 29.9102 53.3007 29.7387C53.643 29.3271 53.8484 28.6754 53.7457 28.1609V27.9894L53.6088 27.8865C53.4718 27.7837 53.3692 27.6808 53.2665 27.6808C52.753 27.4407 52.1369 27.5436 51.4523 27.7151C50.8703 27.9208 50.2541 28.2295 49.8776 28.6754C49.5695 28.9841 49.5353 29.5672 49.7749 29.6701C49.9461 29.8759 50.4253 29.6358 50.5965 29.4643Z" fill="#333333"/>
<path fill-rule="evenodd" clip-rule="evenodd" d="M45.4277 36.6669C45.4962 36.907 46.0439 37.6615 46.3862 37.9702C47.5158 38.8963 49.1931 39.1364 50.2884 38.0388C50.8361 37.6615 50.6992 36.7355 50.0488 36.8727C48.7138 37.1814 46.4889 36.9756 45.4277 36.6669Z" fill="#333333"/>
<path fill-rule="evenodd" clip-rule="evenodd" d="M50.6981 33.7858C50.7323 34.5746 50.0478 34.8833 49.3632 35.1234C48.6102 35.3978 47.9941 35.3292 47.686 34.9862C48.131 34.3002 49.5343 34.506 49.5343 33.7858C49.5001 32.8254 48.4048 31.1448 48.1995 30.0815C49.0894 30.6303 50.6639 33.237 50.6981 33.7858Z" fill="#333333"/>
<path fill-rule="evenodd" clip-rule="evenodd" d="M37.1093 29.0869C36.8355 29.1212 36.6301 29.2241 36.5274 29.4298C35.6374 31.1105 37.1436 32.551 38.3416 33.5799C38.992 34.1287 38.4443 34.9519 37.6228 34.2659C36.1851 33.0655 34.4394 31.282 35.6374 28.984C35.9113 28.4695 36.3905 28.2294 36.9382 28.1265C37.3147 28.0579 37.7255 28.0922 38.0678 28.1265C39.3685 28.298 38.8209 29.2584 37.9309 29.0869C37.7939 29.0183 37.5201 29.0183 37.1093 29.0869Z" fill="#333333"/>
<path fill-rule="evenodd" clip-rule="evenodd" d="M45.9408 48.9799C46.6254 53.0271 47.0019 57.5202 47.173 61.9789C47.3442 66.4034 47.31 70.8279 47.2073 74.635L46.2488 74.6007C46.3173 70.7936 46.3515 66.4377 46.2146 62.0132C46.0435 57.5887 45.7012 53.13 45.0166 49.1514L45.9408 48.9799Z" fill="#333333"/>
<path fill-rule="evenodd" clip-rule="evenodd" d="M35.7407 33.4426L37.4522 33.2025L37.5892 34.1629L35.8777 34.403L35.7407 33.4426Z" fill="#333333"/>
<path fill-rule="evenodd" clip-rule="evenodd" d="M38.342 33.58C38.9923 34.1288 38.4447 34.9519 37.6231 34.266C37.5889 34.2317 37.5547 34.2317 37.5204 34.1974L36.3909 34.3689C37.0755 36.7697 38.4104 39.1363 40.6011 40.6454L40.738 40.6798V40.7483L40.7722 40.7826C42.6206 41.9831 45.051 42.6348 48.2001 42.2918C48.9531 42.2232 49.7746 42.0517 50.6304 41.8459C50.87 41.7773 51.1438 41.7087 51.4519 41.6401C52.4103 41.3657 53.1634 40.0281 53.711 38.2103C54.293 36.2896 54.5668 33.8544 54.5326 31.5564C54.5326 31.2477 54.5325 30.9733 54.4983 30.6646C54.4298 29.3613 54.2245 28.1265 53.8822 26.9947C53.6426 26.1715 53.3345 25.3827 52.958 24.6624C52.9237 24.5595 52.8553 24.4909 52.8211 24.388C52.7869 24.2851 52.7184 24.2165 52.6842 24.1136C52.6499 24.0793 52.6499 24.045 52.6157 23.9764C52.5472 24.0107 52.4788 24.045 52.4445 24.1136C52.2734 24.2165 52.1365 24.3194 51.9653 24.388C51.76 24.4909 51.5546 24.5938 51.3492 24.6624C49.5008 25.3827 47.6867 25.0397 45.804 24.6624C45.7356 24.6624 45.6671 24.6281 45.5986 24.6281C45.1879 24.5595 44.8113 24.4566 44.4006 24.388C43.3052 24.1822 42.2099 24.0793 41.0803 24.2165C41.0119 24.2851 40.9776 24.3194 40.9092 24.388C40.8065 24.4909 40.738 24.5595 40.6696 24.6624C40.1219 25.2798 39.7796 25.8971 39.5742 26.5145C39.0608 27.955 39.6084 28.5381 38.9238 28.7096C38.8554 28.9497 38.4789 29.1898 38.0339 29.0869C37.8285 29.0526 37.5547 29.0183 37.1781 29.0869C36.9043 29.1212 36.6989 29.2241 36.5963 29.4299C35.6378 31.1105 37.1439 32.551 38.342 33.58ZM46.3859 37.9702C46.0436 37.6615 45.4959 36.9069 45.4275 36.6668C45.9409 36.804 46.694 36.9412 47.4812 36.9755C48.3712 37.0441 49.3296 37.0098 50.0485 36.8726C50.6988 36.7354 50.8358 37.6272 50.2881 38.0388C49.4666 38.8619 48.3028 38.9305 47.2759 38.5189C46.9678 38.3818 46.6597 38.2103 46.3859 37.9702ZM47.6524 35.0205C47.8578 34.7118 48.3027 34.5746 48.6793 34.4374C49.1243 34.3002 49.5008 34.1974 49.5008 33.8201C49.5008 33.7515 49.5008 33.6486 49.4666 33.5457C49.2954 32.5853 48.3712 31.0762 48.1658 30.1158C48.8162 30.4931 49.7746 31.8651 50.2881 32.8597C50.5277 33.3056 50.6646 33.6486 50.6646 33.8201C50.6988 34.6089 50.0142 34.9176 49.3296 35.1577C48.8847 35.3292 48.4739 35.3635 48.1658 35.2949C47.9605 35.2263 47.7893 35.1234 47.6524 35.0205ZM50.6988 29.327C50.6646 29.4299 50.6646 29.4299 50.5962 29.4642C50.4592 29.6357 49.9458 29.8758 49.7404 29.7386C49.535 29.6014 49.535 29.0526 49.8431 28.7439C50.2538 28.298 50.8357 27.9894 51.4176 27.7836C52.1022 27.6121 52.7526 27.5092 53.2318 27.7493C53.3345 27.7836 53.4372 27.8865 53.5741 27.9551L53.711 28.0579V28.2294C53.8137 28.7439 53.6083 29.3956 53.266 29.8072C53.1291 29.9787 52.8895 30.1501 52.6499 30.2873C52.3419 30.4588 52.0338 30.4245 51.7599 30.3559C51.4176 30.1501 51.0411 29.8758 50.6988 29.327ZM46.249 30.013C46.2148 30.4931 46.0094 30.939 45.6329 31.2477C45.4617 31.4535 45.1879 31.5907 44.9825 31.625C44.7771 31.6593 44.469 31.7279 44.2294 31.625C43.6818 31.5221 43.2025 31.1448 42.826 30.3902C42.7576 30.4931 42.2441 30.7675 42.0388 30.5617C41.4569 30.0816 42.4153 29.2927 42.8602 29.1212C43.271 28.8811 43.7502 28.7439 44.2637 28.7096C45.0852 28.6753 45.804 28.8811 46.3859 29.4642C46.4886 29.5328 46.4886 29.6014 46.5913 29.6357L46.249 30.013Z" fill="white"/>
<path fill-rule="evenodd" clip-rule="evenodd" d="M48.7819 43.1148C45.3589 43.595 42.6548 42.9434 40.5668 41.6743C40.0876 44.5554 39.9507 44.967 38.8553 45.9959L38.8211 46.0302C38.7526 46.0988 38.6842 46.1331 38.6157 46.1674C39.6084 47.162 40.8749 47.9166 42.2098 48.2939C43.2025 48.6026 44.2294 48.6712 45.1535 48.5683C46.0777 48.4654 46.8993 48.1224 47.5154 47.6079C47.9946 47.1963 48.3711 46.6476 48.5765 45.9616C48.508 45.6529 48.508 45.207 48.5423 44.7269C48.645 44.2124 48.7134 43.595 48.7819 43.1148Z" fill="white"/>
<path fill-rule="evenodd" clip-rule="evenodd" d="M92.6299 49.4946C92.493 49.5632 92.3561 49.6318 92.2534 49.7004C91.9795 49.8375 91.7741 49.9747 91.603 50.0433C91.4661 50.1119 91.2949 50.1805 91.1238 50.2148C90.9526 50.2834 90.7815 50.3177 90.6103 50.3177C89.9942 50.3863 89.6177 50.1119 89.3439 49.6661C89.1042 49.2888 88.9673 48.74 88.7962 48.1569C88.625 47.5396 88.4197 46.8193 88.0774 46.3391C87.872 46.0647 87.6666 45.8246 87.3585 45.7217C87.3585 45.7217 87.3928 45.5503 87.3928 45.6189C87.3243 45.7561 87.3243 46.0304 87.3243 46.3391C87.3243 46.6478 87.3585 46.9908 87.3585 47.3338C87.3928 47.7797 87.427 48.2598 87.427 48.74V48.9115C87.427 49.1516 87.427 49.3917 87.427 49.6318C87.3928 50.6264 87.2558 51.5868 86.5028 53.4389C86.3659 53.7819 86.229 54.1248 86.0236 54.5364L85.9209 54.5021C86.3659 55.0166 86.982 55.7712 87.5297 56.56C87.5639 56.6286 87.6324 56.6972 87.6666 56.7658C87.7008 56.8344 87.7351 56.8687 87.7693 56.9373C87.9062 56.8687 88.0431 56.8344 88.2143 56.7658C90.0627 56.1141 92.5957 55.291 93.6226 55.1195C94.3071 55.0166 94.8548 54.9137 95.2998 54.7765C95.779 54.605 96.1213 54.4678 96.3951 54.3306C96.8059 54.1248 96.9771 54.0219 97.0113 53.9876C97.2167 53.8162 97.422 53.6104 97.5932 53.4389C98.8254 52.2727 99.6127 51.2095 100.023 50.3177C100.126 50.0776 100.229 49.8376 100.297 49.6318C100.537 48.8429 100.434 48.2598 100.16 47.9168C98.6201 45.9961 94.6494 48.2941 92.6299 49.4946Z" fill="white"/>
<path fill-rule="evenodd" clip-rule="evenodd" d="M63.7061 75.6298V80.4659V81.6321H78.0481V75.6298V75.3555V75.0811H67.8136H63.7061V75.3555V75.6298Z" fill="white"/>
</g>
<rect x="0.5" y="0.5" width="179" height="89" stroke="#CCCCCC"/>
<defs>
<linearGradient id="paint0_linear_16382_131974" x1="132.312" y1="22.9497" x2="132.312" y2="46.0848" gradientUnits="userSpaceOnUse">
<stop stop-color="#FF8E3D"/>
<stop offset="1" stop-color="#FF6F3D"/>
</linearGradient>
<linearGradient id="paint1_linear_16382_131974" x1="23.2814" y1="44.9049" x2="49.674" y2="98.3127" gradientUnits="userSpaceOnUse">
<stop stop-color="#FFC671"/>
<stop offset="0.59375" stop-color="#FF7541"/>
<stop offset="1" stop-color="#FF6F3D"/>
</linearGradient>
<clipPath id="clip0_16382_131974">
<rect width="180" height="90" fill="white"/>
</clipPath>
</defs>
</svg>
