<svg width="180" height="90" viewBox="0 0 180 90" fill="none" xmlns="http://www.w3.org/2000/svg">
<rect x="0.5" y="0.5" width="179" height="89" fill="white"/>
<rect x="0.5" y="0.5" width="179" height="89" stroke="#CCCCCC"/>
<path d="M124.97 12.9074L105.914 58.2665L151.273 77.3224L170.329 31.9632L124.97 12.9074Z" fill="#D20A11"/>
<path d="M127.938 48.9037C127.951 48.9295 127.964 48.9423 127.977 48.9681C127.178 50.3853 125.516 51.081 122.965 51.081C119.242 51.081 117.386 49.6123 117.386 46.546V39.7693H121.148V45.7859C121.148 46.9196 121.148 48.3239 122.978 48.3239C124.756 48.3239 124.756 46.9196 124.756 45.7859V39.7693H128.518V40.9031L128.273 41.2252C127.423 42.3718 126.998 43.7761 126.998 45.3865C126.998 46.662 127.32 47.8859 127.938 48.9037ZM134.792 44.7295V47.0871H136.454C136.261 47.9117 135.372 48.3111 134.496 48.3111C132.202 48.3111 131.739 46.4945 131.739 45.4638C131.739 44.7037 131.648 42.243 134.238 42.243C135.127 42.243 135.887 42.8098 136.016 43.6215H139.623C139.069 41.019 137.111 39.4988 133.993 39.4988C132.228 39.4988 130.244 40.1945 129.046 41.8049C128.376 42.7068 127.964 43.892 127.964 45.3865C127.964 46.4945 128.234 47.5252 128.75 48.3883C129.703 49.9859 131.455 51.0552 133.8 51.0552C135.088 51.0552 136.338 50.6687 137.175 49.7669L139.211 44.7166H134.792V44.7295ZM147.998 44.7939V50.8104H146.683L146.129 49.2258H144.107H142.097L141.543 50.8104H137.807L142.252 39.7693H144.107H145.949L147.998 44.7939ZM145.331 46.8681L144.145 43.4669H144.132H144.12L142.934 46.8681H144.132H145.331ZM156.166 43.6859C156.166 42.681 155.315 42.6037 154.401 42.6037H152.739V44.8583H154.182C155.135 44.8712 156.153 44.8068 156.166 43.6859ZM155.238 39.7693C158.536 39.7822 159.696 41.9982 159.696 43.5828C159.696 46.2755 157.725 47.5252 154.929 47.5123H152.713V50.8104H148.964V39.7693H155.238Z" fill="white"/>
<path d="M12.8731 36V27.4102H19.0841V28.4238H14.0098V31.0547H18.7618V32.0625H14.0098V34.9863H19.2833V36H12.8731ZM15.2169 26.8828L15.9962 25.2422H17.379L16.0899 26.8828H15.2169ZM24.6359 36V35.2148C24.2414 35.832 23.6613 36.1406 22.8957 36.1406C22.3996 36.1406 21.9426 36.0039 21.5246 35.7305C21.1105 35.457 20.7883 35.0762 20.5578 34.5879C20.3312 34.0957 20.218 33.5312 20.218 32.8945C20.218 32.2734 20.3215 31.7109 20.5285 31.207C20.7355 30.6992 21.0461 30.3105 21.4602 30.041C21.8742 29.7715 22.3371 29.6367 22.8488 29.6367C23.2238 29.6367 23.5578 29.7168 23.8508 29.877C24.1437 30.0332 24.382 30.2383 24.5656 30.4922V27.4102H25.6145V36H24.6359ZM21.302 32.8945C21.302 33.6914 21.4699 34.2871 21.8059 34.6816C22.1418 35.0762 22.5383 35.2734 22.9953 35.2734C23.4562 35.2734 23.8469 35.0859 24.1672 34.7109C24.4914 34.332 24.6535 33.7559 24.6535 32.9824C24.6535 32.1309 24.4895 31.5059 24.1613 31.1074C23.8332 30.709 23.4289 30.5098 22.9484 30.5098C22.4797 30.5098 22.0871 30.7012 21.7707 31.084C21.4582 31.4668 21.302 32.0703 21.302 32.8945ZM27.1644 28.623V27.4102H28.2191V28.623H27.1644ZM27.1644 36V29.7773H28.2191V36H27.1644ZM32.0131 35.0566L32.1655 35.9883C31.8686 36.0508 31.603 36.082 31.3686 36.082C30.9858 36.082 30.6889 36.0215 30.478 35.9004C30.267 35.7793 30.1186 35.6211 30.0327 35.4258C29.9467 35.2266 29.9037 34.8105 29.9037 34.1777V30.5977H29.1303V29.7773H29.9037V28.2363L30.9526 27.6035V29.7773H32.0131V30.5977H30.9526V34.2363C30.9526 34.5371 30.9702 34.7305 31.0053 34.8164C31.0444 34.9023 31.1049 34.9707 31.187 35.0215C31.2729 35.0723 31.394 35.0977 31.5502 35.0977C31.6674 35.0977 31.8217 35.084 32.0131 35.0566ZM37.19 33.9961L38.2798 34.1309C38.108 34.7676 37.7896 35.2617 37.3248 35.6133C36.8599 35.9648 36.2662 36.1406 35.5435 36.1406C34.6334 36.1406 33.9107 35.8613 33.3755 35.3027C32.8443 34.7402 32.5787 33.9531 32.5787 32.9414C32.5787 31.8945 32.8482 31.082 33.3873 30.5039C33.9263 29.9258 34.6255 29.6367 35.4849 29.6367C36.317 29.6367 36.9966 29.9199 37.524 30.4863C38.0513 31.0527 38.315 31.8496 38.315 32.877C38.315 32.9395 38.313 33.0332 38.3091 33.1582H33.6685C33.7076 33.8418 33.9009 34.3652 34.2486 34.7285C34.5962 35.0918 35.0298 35.2734 35.5494 35.2734C35.9361 35.2734 36.2662 35.1719 36.5396 34.9688C36.813 34.7656 37.0298 34.4414 37.19 33.9961ZM33.7271 32.291H37.2017C37.1548 31.7676 37.022 31.375 36.8033 31.1133C36.4673 30.707 36.0318 30.5039 35.4966 30.5039C35.0123 30.5039 34.6041 30.666 34.272 30.9902C33.9439 31.3145 33.7623 31.748 33.7271 32.291ZM43.568 36V35.0859C43.0837 35.7891 42.4255 36.1406 41.5934 36.1406C41.2262 36.1406 40.8825 36.0703 40.5622 35.9297C40.2458 35.7891 40.0095 35.6133 39.8532 35.4023C39.7009 35.1875 39.5934 34.9258 39.5309 34.6172C39.488 34.4102 39.4665 34.082 39.4665 33.6328V29.7773H40.5212V33.2285C40.5212 33.7793 40.5427 34.1504 40.5856 34.3418C40.652 34.6191 40.7927 34.8379 41.0075 34.998C41.2223 35.1543 41.488 35.2324 41.8044 35.2324C42.1208 35.2324 42.4177 35.1523 42.695 34.9922C42.9723 34.8281 43.1677 34.6074 43.2809 34.3301C43.3981 34.0488 43.4567 33.6426 43.4567 33.1113V29.7773H44.5114V36H43.568ZM46.0379 36V29.7773H46.9871V30.7207C47.2293 30.2793 47.452 29.9883 47.6551 29.8477C47.8621 29.707 48.0887 29.6367 48.3348 29.6367C48.6902 29.6367 49.0516 29.75 49.4187 29.9766L49.0555 30.9551C48.7977 30.8027 48.5398 30.7266 48.282 30.7266C48.0516 30.7266 47.8445 30.7969 47.6609 30.9375C47.4773 31.0742 47.3465 31.2656 47.2684 31.5117C47.1512 31.8867 47.0926 32.2969 47.0926 32.7422V36H46.0379ZM53.1338 36V29.7773H54.083V30.7207C54.3252 30.2793 54.5479 29.9883 54.751 29.8477C54.958 29.707 55.1846 29.6367 55.4307 29.6367C55.7862 29.6367 56.1475 29.75 56.5147 29.9766L56.1514 30.9551C55.8936 30.8027 55.6358 30.7266 55.378 30.7266C55.1475 30.7266 54.9405 30.7969 54.7569 30.9375C54.5733 31.0742 54.4424 31.2656 54.3643 31.5117C54.2471 31.8867 54.1885 32.2969 54.1885 32.7422V36H53.1338ZM61.2814 33.9961L62.3712 34.1309C62.1994 34.7676 61.881 35.2617 61.4162 35.6133C60.9513 35.9648 60.3576 36.1406 59.6349 36.1406C58.7248 36.1406 58.0021 35.8613 57.4669 35.3027C56.9357 34.7402 56.6701 33.9531 56.6701 32.9414C56.6701 31.8945 56.9396 31.082 57.4787 30.5039C58.0177 29.9258 58.7169 29.6367 59.5763 29.6367C60.4084 29.6367 61.088 29.9199 61.6154 30.4863C62.1427 31.0527 62.4064 31.8496 62.4064 32.877C62.4064 32.9395 62.4044 33.0332 62.4005 33.1582H57.7599C57.799 33.8418 57.9923 34.3652 58.34 34.7285C58.6877 35.0918 59.1212 35.2734 59.6408 35.2734C60.0275 35.2734 60.3576 35.1719 60.631 34.9688C60.9044 34.7656 61.1212 34.4414 61.2814 33.9961ZM57.8185 32.291H61.2931C61.2462 31.7676 61.1134 31.375 60.8947 31.1133C60.5587 30.707 60.1232 30.5039 59.588 30.5039C59.1037 30.5039 58.6955 30.666 58.3634 30.9902C58.0353 31.3145 57.8537 31.748 57.8185 32.291ZM58.9552 29.0039L59.7345 27.3633H61.1173L59.8283 29.0039H58.9552ZM63.8333 36V30.5977H62.9016V29.7773H63.8333V29.1152C63.8333 28.6973 63.8704 28.3867 63.9446 28.1836C64.0462 27.9102 64.2239 27.6895 64.4778 27.5215C64.7356 27.3496 65.095 27.2637 65.5559 27.2637C65.8528 27.2637 66.1809 27.2988 66.5403 27.3691L66.3821 28.2891C66.1634 28.25 65.9563 28.2305 65.761 28.2305C65.4407 28.2305 65.2141 28.2988 65.0813 28.4355C64.9485 28.5723 64.8821 28.8281 64.8821 29.2031V29.7773H66.095V30.5977H64.8821V36H63.8333ZM71.0609 33.9961L72.1508 34.1309C71.9789 34.7676 71.6605 35.2617 71.1957 35.6133C70.7309 35.9648 70.1371 36.1406 69.4145 36.1406C68.5043 36.1406 67.7816 35.8613 67.2465 35.3027C66.7152 34.7402 66.4496 33.9531 66.4496 32.9414C66.4496 31.8945 66.7191 31.082 67.2582 30.5039C67.7973 29.9258 68.4965 29.6367 69.3559 29.6367C70.1879 29.6367 70.8676 29.9199 71.3949 30.4863C71.9223 31.0527 72.1859 31.8496 72.1859 32.877C72.1859 32.9395 72.184 33.0332 72.1801 33.1582H67.5395C67.5785 33.8418 67.7719 34.3652 68.1195 34.7285C68.4672 35.0918 68.9008 35.2734 69.4203 35.2734C69.807 35.2734 70.1371 35.1719 70.4105 34.9688C70.684 34.7656 70.9008 34.4414 71.0609 33.9961ZM67.598 32.291H71.0727C71.0258 31.7676 70.893 31.375 70.6742 31.1133C70.3383 30.707 69.9027 30.5039 69.3676 30.5039C68.8832 30.5039 68.475 30.666 68.143 30.9902C67.8148 31.3145 67.6332 31.748 67.598 32.291ZM68.7348 29.0039L69.5141 27.3633H70.8969L69.6078 29.0039H68.7348ZM73.3491 36V29.7773H74.2984V30.7207C74.5405 30.2793 74.7632 29.9883 74.9663 29.8477C75.1734 29.707 75.3999 29.6367 75.646 29.6367C76.0015 29.6367 76.3628 29.75 76.73 29.9766L76.3667 30.9551C76.1089 30.8027 75.8511 30.7266 75.5933 30.7266C75.3628 30.7266 75.1558 30.7969 74.9722 30.9375C74.7886 31.0742 74.6577 31.2656 74.5796 31.5117C74.4624 31.8867 74.4038 32.2969 74.4038 32.7422V36H73.3491ZM81.4967 33.9961L82.5866 34.1309C82.4147 34.7676 82.0963 35.2617 81.6315 35.6133C81.1666 35.9648 80.5729 36.1406 79.8502 36.1406C78.9401 36.1406 78.2174 35.8613 77.6823 35.3027C77.151 34.7402 76.8854 33.9531 76.8854 32.9414C76.8854 31.8945 77.1549 31.082 77.694 30.5039C78.233 29.9258 78.9323 29.6367 79.7916 29.6367C80.6237 29.6367 81.3034 29.9199 81.8307 30.4863C82.358 31.0527 82.6217 31.8496 82.6217 32.877C82.6217 32.9395 82.6198 33.0332 82.6159 33.1582H77.9752C78.0143 33.8418 78.2077 34.3652 78.5553 34.7285C78.903 35.0918 79.3366 35.2734 79.8561 35.2734C80.2428 35.2734 80.5729 35.1719 80.8463 34.9688C81.1198 34.7656 81.3366 34.4414 81.4967 33.9961ZM78.0338 32.291H81.5084C81.4616 31.7676 81.3288 31.375 81.11 31.1133C80.7741 30.707 80.3385 30.5039 79.8034 30.5039C79.319 30.5039 78.9108 30.666 78.5788 30.9902C78.2506 31.3145 78.069 31.748 78.0338 32.291ZM83.7966 36V29.7773H84.7459V30.6621C85.2029 29.9785 85.863 29.6367 86.7263 29.6367C87.1013 29.6367 87.4451 29.7051 87.7576 29.8418C88.074 29.9746 88.3103 30.1504 88.4666 30.3691C88.6228 30.5879 88.7322 30.8477 88.7947 31.1484C88.8337 31.3438 88.8533 31.6855 88.8533 32.1738V36H87.7986V32.2148C87.7986 31.7852 87.7576 31.4648 87.6755 31.2539C87.5935 31.0391 87.447 30.8691 87.2361 30.7441C87.0291 30.6152 86.7849 30.5508 86.5037 30.5508C86.0545 30.5508 85.6658 30.6934 85.3377 30.9785C85.0134 31.2637 84.8513 31.8047 84.8513 32.6016V36H83.7966ZM94.4169 33.7207L95.454 33.8555C95.3407 34.5703 95.0497 35.1309 94.5809 35.5371C94.1161 35.9395 93.5438 36.1406 92.8641 36.1406C92.0126 36.1406 91.327 35.8633 90.8075 35.3086C90.2919 34.75 90.0341 33.9512 90.0341 32.9121C90.0341 32.2402 90.1454 31.6523 90.368 31.1484C90.5907 30.6445 90.9286 30.2676 91.3817 30.0176C91.8387 29.7637 92.3348 29.6367 92.87 29.6367C93.5458 29.6367 94.0985 29.8086 94.5282 30.1523C94.9579 30.4922 95.2333 30.9766 95.3544 31.6055L94.329 31.7637C94.2313 31.3457 94.0575 31.0312 93.8075 30.8203C93.5614 30.6094 93.2626 30.5039 92.911 30.5039C92.3798 30.5039 91.9481 30.6953 91.6161 31.0781C91.2841 31.457 91.118 32.0586 91.118 32.8828C91.118 33.7188 91.2782 34.3262 91.5985 34.7051C91.9188 35.084 92.3368 35.2734 92.8524 35.2734C93.2665 35.2734 93.6122 35.1465 93.8895 34.8926C94.1669 34.6387 94.3427 34.248 94.4169 33.7207ZM100.496 33.9961L101.586 34.1309C101.414 34.7676 101.096 35.2617 100.631 35.6133C100.166 35.9648 99.5723 36.1406 98.8496 36.1406C97.9395 36.1406 97.2168 35.8613 96.6816 35.3027C96.1504 34.7402 95.8848 33.9531 95.8848 32.9414C95.8848 31.8945 96.1543 31.082 96.6934 30.5039C97.2324 29.9258 97.9316 29.6367 98.791 29.6367C99.623 29.6367 100.303 29.9199 100.83 30.4863C101.357 31.0527 101.621 31.8496 101.621 32.877C101.621 32.9395 101.619 33.0332 101.615 33.1582H96.9746C97.0137 33.8418 97.207 34.3652 97.5547 34.7285C97.9023 35.0918 98.3359 35.2734 98.8555 35.2734C99.2422 35.2734 99.5723 35.1719 99.8457 34.9688C100.119 34.7656 100.336 34.4414 100.496 33.9961ZM97.0332 32.291H100.508C100.461 31.7676 100.328 31.375 100.109 31.1133C99.7734 30.707 99.3379 30.5039 98.8027 30.5039C98.3184 30.5039 97.9102 30.666 97.5781 30.9902C97.25 31.3145 97.0684 31.748 97.0332 32.291ZM46.1642 41.4102H47.3009V46.373C47.3009 47.2363 47.2033 47.9219 47.008 48.4297C46.8127 48.9375 46.4591 49.3516 45.9474 49.6719C45.4396 49.9883 44.7716 50.1465 43.9435 50.1465C43.1388 50.1465 42.4806 50.0078 41.9689 49.7305C41.4572 49.4531 41.092 49.0527 40.8732 48.5293C40.6545 48.002 40.5451 47.2832 40.5451 46.373V41.4102H41.6818V46.3672C41.6818 47.1133 41.7502 47.6641 41.8869 48.0195C42.0275 48.3711 42.2658 48.6426 42.6017 48.834C42.9416 49.0254 43.3556 49.1211 43.8439 49.1211C44.6798 49.1211 45.2755 48.9316 45.631 48.5527C45.9865 48.1738 46.1642 47.4453 46.1642 46.3672V41.4102ZM53.0989 46.6309V45.623L56.7376 45.6172V48.8047C56.179 49.25 55.6028 49.5859 55.0091 49.8125C54.4153 50.0352 53.8059 50.1465 53.1809 50.1465C52.3372 50.1465 51.5696 49.9668 50.8782 49.6074C50.1907 49.2441 49.6712 48.7207 49.3196 48.0371C48.968 47.3535 48.7923 46.5898 48.7923 45.7461C48.7923 44.9102 48.9661 44.1309 49.3138 43.4082C49.6653 42.6816 50.1692 42.1426 50.8255 41.791C51.4817 41.4395 52.2376 41.2637 53.093 41.2637C53.7141 41.2637 54.2747 41.3652 54.7747 41.5684C55.2786 41.7676 55.6731 42.0469 55.9583 42.4062C56.2434 42.7656 56.4602 43.2344 56.6087 43.8125L55.5833 44.0938C55.4544 43.6562 55.2942 43.3125 55.1028 43.0625C54.9114 42.8125 54.638 42.6133 54.2825 42.4648C53.927 42.3125 53.5325 42.2363 53.0989 42.2363C52.5794 42.2363 52.1302 42.3164 51.7513 42.4766C51.3723 42.6328 51.0657 42.8398 50.8313 43.0977C50.6009 43.3555 50.4212 43.6387 50.2923 43.9473C50.0735 44.4785 49.9641 45.0547 49.9641 45.6758C49.9641 46.4414 50.095 47.082 50.3567 47.5977C50.6223 48.1133 51.0071 48.4961 51.511 48.7461C52.0149 48.9961 52.5501 49.1211 53.1165 49.1211C53.6087 49.1211 54.0891 49.0273 54.5579 48.8398C55.0266 48.6484 55.3821 48.4453 55.6243 48.2305V46.6309H53.0989ZM57.3559 50L60.6547 41.4102H61.8793L65.3949 50H64.1L63.098 47.3984H59.5062L58.5629 50H57.3559ZM59.8344 46.4727H62.7465L61.85 44.0938C61.5766 43.3711 61.3734 42.7773 61.2406 42.3125C61.1312 42.8633 60.977 43.4102 60.7777 43.9531L59.8344 46.4727ZM66.1831 50V41.4102H69.4234C69.9937 41.4102 70.4292 41.4375 70.73 41.4922C71.1519 41.5625 71.5054 41.6973 71.7905 41.8965C72.0757 42.0918 72.3042 42.3672 72.4761 42.7227C72.6519 43.0781 72.7398 43.4688 72.7398 43.8945C72.7398 44.625 72.5073 45.2441 72.0425 45.752C71.5777 46.2559 70.7378 46.5078 69.523 46.5078H67.3198V50H66.1831ZM67.3198 45.4941H69.5405C70.2749 45.4941 70.7964 45.3574 71.105 45.084C71.4136 44.8105 71.5679 44.4258 71.5679 43.9297C71.5679 43.5703 71.4761 43.2637 71.2925 43.0098C71.1128 42.752 70.8745 42.582 70.5777 42.5C70.3862 42.4492 70.0327 42.4238 69.5171 42.4238H67.3198V45.4941ZM73.5221 47.4219V46.3613H76.7623V47.4219H73.5221ZM77.5564 47.2402L78.6287 47.1465C78.6795 47.5762 78.7966 47.9297 78.9802 48.207C79.1677 48.4805 79.4568 48.7031 79.8474 48.875C80.2381 49.043 80.6775 49.127 81.1658 49.127C81.5994 49.127 81.9822 49.0625 82.3142 48.9336C82.6463 48.8047 82.8923 48.6289 83.0525 48.4062C83.2166 48.1797 83.2986 47.9336 83.2986 47.668C83.2986 47.3984 83.2205 47.1641 83.0642 46.9648C82.908 46.7617 82.6502 46.5918 82.2908 46.4551C82.0603 46.3652 81.5506 46.2266 80.7615 46.0391C79.9724 45.8477 79.4197 45.668 79.1033 45.5C78.6931 45.2852 78.3865 45.0195 78.1834 44.7031C77.9841 44.3828 77.8845 44.0254 77.8845 43.6309C77.8845 43.1973 78.0076 42.793 78.2537 42.418C78.4998 42.0391 78.8591 41.752 79.3318 41.5566C79.8045 41.3613 80.3298 41.2637 80.908 41.2637C81.5447 41.2637 82.1052 41.3672 82.5896 41.5742C83.0779 41.7773 83.4529 42.0781 83.7146 42.4766C83.9763 42.875 84.117 43.3262 84.1365 43.8301L83.0466 43.9121C82.9881 43.3691 82.7888 42.959 82.449 42.6816C82.1131 42.4043 81.615 42.2656 80.9548 42.2656C80.2673 42.2656 79.7654 42.3926 79.449 42.6465C79.1365 42.8965 78.9802 43.1992 78.9802 43.5547C78.9802 43.8633 79.0916 44.1172 79.3142 44.3164C79.533 44.5156 80.1033 44.7207 81.0252 44.9316C81.9509 45.1387 82.5857 45.3203 82.9295 45.4766C83.4295 45.707 83.7986 46 84.0369 46.3555C84.2752 46.707 84.3943 47.1133 84.3943 47.5742C84.3943 48.0312 84.2634 48.4629 84.0017 48.8691C83.74 49.2715 83.3631 49.5859 82.8709 49.8125C82.3826 50.0352 81.8318 50.1465 81.2185 50.1465C80.4412 50.1465 79.7888 50.0332 79.2615 49.8066C78.7381 49.5801 78.3259 49.2402 78.0252 48.7871C77.7283 48.3301 77.572 47.8145 77.5564 47.2402ZM91.9559 46.9883L93.0927 47.2754C92.8544 48.209 92.4247 48.9219 91.8036 49.4141C91.1864 49.9023 90.4305 50.1465 89.536 50.1465C88.6102 50.1465 87.8563 49.959 87.2743 49.584C86.6962 49.2051 86.2548 48.6582 85.9501 47.9434C85.6493 47.2285 85.4989 46.4609 85.4989 45.6406C85.4989 44.7461 85.6688 43.9668 86.0087 43.3027C86.3524 42.6348 86.8387 42.1289 87.4677 41.7852C88.1005 41.4375 88.7958 41.2637 89.5536 41.2637C90.413 41.2637 91.1356 41.4824 91.7216 41.9199C92.3075 42.3574 92.7157 42.9727 92.9462 43.7656L91.827 44.0293C91.6278 43.4043 91.3387 42.9492 90.9598 42.6641C90.5809 42.3789 90.1044 42.2363 89.5302 42.2363C88.87 42.2363 88.3173 42.3945 87.8719 42.7109C87.4305 43.0273 87.12 43.4531 86.9403 43.9883C86.7606 44.5195 86.6708 45.0684 86.6708 45.6348C86.6708 46.3652 86.7762 47.0039 86.9872 47.5508C87.202 48.0938 87.5341 48.5 87.9833 48.7695C88.4325 49.0391 88.9188 49.1738 89.4423 49.1738C90.079 49.1738 90.618 48.9902 91.0594 48.623C91.5009 48.2559 91.7997 47.7109 91.9559 46.9883ZM100.508 46.9883L101.645 47.2754C101.406 48.209 100.977 48.9219 100.355 49.4141C99.7383 49.9023 98.9824 50.1465 98.0879 50.1465C97.1621 50.1465 96.4082 49.959 95.8262 49.584C95.248 49.2051 94.8066 48.6582 94.502 47.9434C94.2012 47.2285 94.0508 46.4609 94.0508 45.6406C94.0508 44.7461 94.2207 43.9668 94.5605 43.3027C94.9043 42.6348 95.3906 42.1289 96.0195 41.7852C96.6523 41.4375 97.3477 41.2637 98.1055 41.2637C98.9648 41.2637 99.6875 41.4824 100.273 41.9199C100.859 42.3574 101.268 42.9727 101.498 43.7656L100.379 44.0293C100.18 43.4043 99.8906 42.9492 99.5117 42.6641C99.1328 42.3789 98.6562 42.2363 98.082 42.2363C97.4219 42.2363 96.8691 42.3945 96.4238 42.7109C95.9824 43.0273 95.6719 43.4531 95.4922 43.9883C95.3125 44.5195 95.2227 45.0684 95.2227 45.6348C95.2227 46.3652 95.3281 47.0039 95.5391 47.5508C95.7539 48.0938 96.0859 48.5 96.5352 48.7695C96.9844 49.0391 97.4707 49.1738 97.9941 49.1738C98.6309 49.1738 99.1699 48.9902 99.6113 48.623C100.053 48.2559 100.352 47.7109 100.508 46.9883Z" fill="black"/>
</svg>
