<svg xmlns="http://www.w3.org/2000/svg" width="180" height="90" fill="none" xmlns:v="https://vecta.io/nano"><g clip-path="url(#D)"><path fill="#efefef" d="M0 0h180v90H0z"/><path d="M53.75 54.843c1.889 0 3.722.246 5.469.706 3.131-4.59 8.353-7.596 14.268-7.596a17.08 17.08 0 0 1 5.495.907C81.895 35.775 93.409 26 107.178 26c15.968 0 28.913 13.142 28.913 29.354 0 .334-.014.665-.024.996a21.19 21.19 0 0 1 6.437-.996c11.871 0 21.496 9.769 21.496 21.825S154.375 99 142.504 99H53.75C41.738 99 32 89.115 32 76.922s9.739-22.079 21.75-22.079z" fill="url(#A)"/><g stroke="#ccc"><path d="M36.5 45v-.5H36 10h-.5v.5 35 .5h.5 26 .5V80 45z" fill="#fff"/><path d="M13.5 48.5h7v6h-7v-6z"/></g><g fill="#dedede"><path d="M32 48h-7v1h7v-1zm-1 3h-6v1h6v-1zm1 3h-7v1h7v-1zm0 3H13v1h19v-1zm0 6H13v1h19v-1zm0 6H13v1h19v-1zm0 6H13v1h19v-1zm-2-15H13v1h17v-1zm0 6H13v1h17v-1zm0 6H13v1h17v-1z"/><g fill-rule="evenodd"><path d="M20.162 36.175a14.17 14.17 0 0 0-.136 1.535l-.819-.03.116-1.648.839.143zm25.361-10.404l-.209-.196.53-.617c.066.046.143.149.209.196l-.53.617zm-.816-.67a11.2 11.2 0 0 0-1.363-.806l.341-.7a11.44 11.44 0 0 1 1.429.852l-.408.653zm-2.062-1.147c-.501-.202-.991-.348-1.482-.494l.209-.792c.547.136 1.094.272 1.605.531l-.331.756zm-2.254-.59l-1.545-.192.03-.819 1.658.172-.142.839zm-2.364-.222c-.527-.023-1.044.01-1.561.043l-.083-.799 1.674-.063-.03.819zm-2.35.182l-1.578.278-.196-.779 1.634-.288.139.789zm-2.357.474l-1.548.448-.252-.769c.487-.202 1.041-.358 1.595-.514l.206.835zm-2.251.746l-1.452.663-.365-.749c.477-.259 1.021-.471 1.508-.673l.308.759zm-2.211.971l-1.376.766-.411-.683c.468-.315.945-.574 1.422-.832l.365.749zm-2.049 1.233l-1.29.925-.514-.607c.401-.361.869-.676 1.336-.991l.468.673zm-1.83 1.485l-1.147 1.074-.56-.54c.391-.418.792-.779 1.193-1.141l.514.607zm-1.744 1.645l-1.005 1.223-.663-.464a11.52 11.52 0 0 1 1.051-1.29l.617.531zm-1.402 1.933l-.749 1.353-.756-.332.786-1.475.719.454zm-1.024 2.099c-.202.501-.348.991-.494 1.482l-.782-.153.474-1.595.802.265zm129.435 19.841c-.002-.543-.04-1.013-.096-1.538l.814-.093.133 1.646-.851-.015zm-23.513 14.091l.236.162-.432.689c-.073-.036-.163-.126-.236-.162l.432-.689zm.907.54a11.12 11.12 0 0 0 1.468.592l-.233.743a11.37 11.37 0 0 1-1.54-.628l.305-.707zm2.211.825c.525.125 1.032.196 1.539.266l-.088.815c-.561-.052-1.122-.105-1.666-.284l.215-.797zm2.317.245l1.556-.042.094.814-1.665.078.015-.851zm2.37-.135c.525-.056 1.031-.166 1.538-.277l.201.778-1.645.314-.094-.814zm2.297-.533l1.518-.512.31.741-1.572.53-.256-.759zm2.259-.822l1.464-.675.364.723c-.451.273-.975.51-1.499.747l-.329-.795zm2.114-1.075l1.336-.873.473.686c-.433.327-.939.619-1.391.892l-.418-.704zm2.04-1.292l1.245-.964.509.614c-.415.382-.848.709-1.281 1.036l-.473-.686zm1.841-1.527l1.136-1.108.599.523c-.342.417-.757.799-1.172 1.181l-.563-.595zm1.586-1.743l.973-1.234.635.45c-.324.472-.667.889-1.009 1.307l-.599-.523zm1.477-1.888l.81-1.36.725.359a11.38 11.38 0 0 1-.845 1.433l-.69-.432zm1.097-2.121l.538-1.45.797.214-.556 1.577-.779-.341zm.698-2.229c.124-.525.195-1.032.266-1.539l.796.033-.229 1.648-.833-.142z"/></g></g><path d="M171 12h-48v39h48V12z" fill="#fff"/><path d="M120.5 47.5v-38h47v38h-47z" stroke="#ccc"/><g fill="#dedede"><path d="M128 20h-3v24h3V20zm8 10h-3v14h3V30zm7-6h-3v20h3V24zm7-5h-3v25h3V19zm7-4h-3v29h3V15zm7 15h-3v14h3V30z"/></g><path d="M50.693 53.273c.061-5.008.51-9.985 1.49-14.898" stroke="#333"/><path fill-rule="evenodd" d="M50.846 52.667c.883.561 1.531 1.684 1.909 2.91.529 1.784.503 3.886.497 4.36l-.001.076-2.51 1.841-.063-.062-2.304-1.697c-.083-.491-.154-2.769.413-4.66.357-1.226 1.008-2.228 1.891-2.768l.084-.041.084.041z" fill="#333"/><circle cx="87.398" cy="70.977" r="33.102" fill="#bdecff" stroke="#333"/><g stroke="#fff"><path d="M54.795 70.761H120"/><path d="M87.398 38.159v65.205"/><g stroke-linecap="round"><path d="M62.41 90.679c2.321-.946 4.82-1.766 7.336-2.472a64.18 64.18 0 0 1 7.505-1.649c6.352-1.003 12.618-1.066 18.569-.383 6.238.753 12.097 2.339 17.362 4.637M60.697 52.468c2.44.995 5.067 1.856 7.712 2.599a67.45 67.45 0 0 0 7.89 1.733c6.678 1.055 13.264 1.12 19.52.403 6.557-.792 12.716-2.459 18.251-4.874"/><path d="M101.487 41.909c1.123 2.718 2.072 5.641 2.873 8.584.788 2.854 1.39 5.824 1.788 8.776 1 7.425.774 14.742-.412 21.687-1.292 7.278-3.502 14.614-6.766 20.746M75.066 38.22c-1.111 2.909-2.056 6.033-2.857 9.176a78.23 78.23 0 0 0-1.809 9.362c-1.034 7.912-.881 15.688.203 23.053 1.184 7.717 3.256 15.48 6.358 21.946"/></g></g><g stroke="#333" stroke-linejoin="round"><path d="M87.891 23.851a.5.5 0 0 0-.724-.123L72.779 34.812l-17.626 2.65a.5.5 0 0 0-.412.61l1.983 9.06.028.132 2.035 9.273a.5.5 0 0 0 .446.383c5.979.481 13.693-.955 20.877-3.914s13.905-7.466 17.847-13.189a.5.5 0 0 0 .007-.557L87.891 23.851z" fill="url(#B)"/><path d="M43.678 38.856a.5.5 0 0 0 .388.878l30.443-4.102a.5.5 0 0 0 .255-.113l21.591-18.136a.5.5 0 0 0-.383-.879l-29.97 3.703a.5.5 0 0 0-.26.113L43.678 38.856z" fill="url(#C)"/></g><path fill-rule="evenodd" d="M70.553 26.822c-.082-.269-.317-.491-.701-.375-.071-.011-.129-.018-.19-.014l-12.403.767c-1.293.056-2.151.645-2.676 1.295a3.61 3.61 0 0 0-.548.938c-.108.273-.172.542-.172.738a.5.5 0 1 0 1 0h0c0-.002.001-.011.003-.029s.008-.049.016-.084c.016-.069.043-.158.083-.259a2.61 2.61 0 0 1 .395-.676c.367-.453.968-.883 1.946-.925h0l.01-.001 11.994-.741c.123.184.311.235.6.148.384-.116.753-.421.643-.782z" fill="#333"/></g><path stroke="#ccc" d="M.5.5h179v89H.5z"/><defs><linearGradient id="A" x1="98" y1="26" x2="98" y2="99" gradientUnits="userSpaceOnUse"><stop stop-color="#f8f8f8"/><stop offset="1" stop-color="#fff" stop-opacity="0"/></linearGradient><linearGradient id="B" x1="57.05" y1="31.477" x2="80.151" y2="44.006" gradientUnits="userSpaceOnUse"><stop stop-color="#ffa363"/><stop offset=".913" stop-color="#ff7743"/></linearGradient><linearGradient id="C" x1="62.194" y1="24.881" x2="77.095" y2="30.885" gradientUnits="userSpaceOnUse"><stop stop-color="#ffa363"/><stop offset=".913" stop-color="#ff7743"/></linearGradient><clipPath id="D"><path fill="#fff" d="M0 0h180v90H0z"/></clipPath></defs></svg>