<svg xmlns="http://www.w3.org/2000/svg" xmlns:xlink="http://www.w3.org/1999/xlink" width="25" height="727" fill="none" xmlns:v="https://vecta.io/nano"><style><![CDATA[.B{fill-rule:evenodd}.C{fill:#333}.D{fill:#ff6f3d}.E{fill:#fff}.F{stroke:#ff6f3d}.G{stroke-linecap:round}.H{stroke-linejoin:round}]]></style><g class="B"><path d="M23 21a1 1 0 0 1-1 1H9a1 1 0 0 1-1-1V3a1 1 0 0 1 1-1h8.087a1 1 0 0 1 .705.291l4.913 4.89A1 1 0 0 1 23 7.89V21z" class="E"/><path d="M9 21h13V7.89L17.087 3H9v18zm13 1a1 1 0 0 0 1-1V7.89a1 1 0 0 0-.295-.709l-4.913-4.89A1 1 0 0 0 17.087 2H9a1 1 0 0 0-1 1v18a1 1 0 0 0 1 1h13z" class="C"/><path d="M5.5 3a.5.5 0 0 0-.5.5v17a.5.5 0 0 0 .5.5H7a.5.5 0 1 1 0 1H5.5A1.5 1.5 0 0 1 4 20.5v-17A1.5 1.5 0 0 1 5.5 2H7a.5.5 0 1 1 0 1H5.5zm-4 0a.5.5 0 0 0-.5.5v17a.5.5 0 0 0 .5.5H3a.5.5 0 1 1 0 1H1.5A1.5 1.5 0 0 1 0 20.5v-17A1.5 1.5 0 0 1 1.5 2H3a.5.5 0 1 1 0 1H1.5zm15 1a.5.5 0 0 1 .5.5V8h3.5a.5.5 0 1 1 0 1h-4a.5.5 0 0 1-.5-.5v-4a.5.5 0 0 1 .5-.5z" class="D"/><g class="C"><use xlink:href="#G"/><use xlink:href="#G" y="3"/><use xlink:href="#G" y="6"/><path d="M11.5 47a8.5 8.5 0 1 0 0-17 8.5 8.5 0 1 0 0 17zm9.5-8.5a9.5 9.5 0 1 1-19 0 9.5 9.5 0 1 1 19 0z"/></g></g><use xlink:href="#H" class="E"/><path d="M15 29.5a3.5 3.5 0 1 1-7 0 3.5 3.5 0 1 1 7 0zM11.5 32a2.5 2.5 0 1 0 0-5 2.5 2.5 0 1 0 0 5z" class="B C"/><use xlink:href="#H" x="-6" y="16" class="E"/><path d="M9 45.5a3.5 3.5 0 1 1-7 0 3.5 3.5 0 1 1 7 0zM5.5 48a2.5 2.5 0 1 0 0-5 2.5 2.5 0 1 0 0 5z" class="B C"/><use xlink:href="#H" x="6" y="16" class="E"/><path d="M21 45.5a3.5 3.5 0 1 1-7 0 3.5 3.5 0 1 1 7 0zM17.5 48a2.5 2.5 0 1 0 0-5 2.5 2.5 0 1 0 0 5z" class="B C"/><use xlink:href="#H" x="8" y="6" class="E"/><path d="M23 35.5a3.5 3.5 0 1 1-7 0 3.5 3.5 0 1 1 7 0zM19.5 38a2.5 2.5 0 1 0 0-5 2.5 2.5 0 1 0 0 5z" class="B C"/><use xlink:href="#H" x="-8" y="6" class="E"/><g class="C"><path d="M7 35.5a3.5 3.5 0 1 1-7 0 3.5 3.5 0 1 1 7 0zM3.5 38a2.5 2.5 0 1 0 0-5 2.5 2.5 0 1 0 0 5z" class="B"/><rect x="5" y="72" width="14" height="1" rx=".5"/><rect x="8" y="73" width="3" height="1" rx=".5" transform="rotate(270 8 73)"/><rect x="15" y="73" width="3" height="1" rx=".5" transform="rotate(270 15 73)"/></g><g class="B"><path d="M21 56H3a1 1 0 0 0-1 1v10a1 1 0 0 0 1 1h18a1 1 0 0 0 1-1V57a1 1 0 0 0-1-1zM3 55a2 2 0 0 0-2 2v10a2 2 0 0 0 2 2h18a2 2 0 0 0 2-2V57a2 2 0 0 0-2-2H3z" class="D"/><path d="M4.222 98.485a.5.5 0 0 1-.707 0c-4.686-4.686-4.686-12.284 0-16.971s12.284-4.686 16.971 0 4.686 12.284 0 16.971a11.96 11.96 0 0 1-7.818 3.497 12.07 12.07 0 0 1-4.322-.549c-.844-.269-1.664-.634-2.443-1.094a.5.5 0 1 1 .509-.861c.714.422 1.465.755 2.238 1.002 1.284.409 2.629.577 3.963.503 2.608-.144 5.173-1.213 7.166-3.205 4.296-4.296 4.296-11.261 0-15.556s-11.261-4.296-15.556 0-4.296 11.261 0 15.556a.5.5 0 0 1 0 .707z" class="C"/></g><path d="M14.852 90.385a2.67 2.67 0 0 1 .364-1.31c.233-.4.565-.736.966-.977a2.84 2.84 0 0 0-.982-.854 2.91 2.91 0 0 0-1.27-.334c-.948-.097-1.867.553-2.35.553-.492 0-1.236-.544-2.037-.528a3.04 3.04 0 0 0-1.465.427 2.96 2.96 0 0 0-1.059 1.076c-1.092 1.844-.277 4.554.768 6.045.523.73 1.135 1.545 1.935 1.516.783-.032 1.075-.487 2.02-.487.936 0 1.211.487 2.027.469.84-.013 1.369-.733 1.874-1.47a5.98 5.98 0 0 0 .857-1.703 2.69 2.69 0 0 1-1.198-.969 2.59 2.59 0 0 1-.45-1.453zm-.569-4.674c.695-.757 1.038-1.729.955-2.711-1.063.101-2.044.561-2.749 1.289a3.54 3.54 0 0 0-.777 1.217 3.29 3.29 0 0 0-.203 1.394 3.82 3.82 0 0 0 1.538-.305 3.49 3.49 0 0 0 1.236-.883z" class="D"/><path d="M20.485 123.778a.5.5 0 0 1 0 .707 12 12 0 0 1-16.971 0 12 12 0 0 1 0-16.97 12 12 0 0 1 16.971 0c2.173 2.173 3.339 4.973 3.496 7.817.081 1.455-.102 2.921-.549 4.322-.269.844-.634 1.664-1.094 2.443a.5.5 0 1 1-.861-.509c.421-.713.755-1.465 1.002-2.238a11.04 11.04 0 0 0 .503-3.962c-.145-2.609-1.213-5.174-3.205-7.166a11 11 0 0 0-15.556 0 11 11 0 0 0 0 15.556 11 11 0 0 0 15.556 0 .5.5 0 0 1 .707 0z" class="B C"/><path d="M6.75 112a.59.59 0 0 0-.412.167c-.228.223-.228.586 0 .808l1.529 1.498C6.131 115.721 5 117.729 5 120h14c0-2.271-1.131-4.279-2.866-5.527l1.529-1.498c.227-.224.227-.584 0-.808s-.597-.222-.825 0l-1.729 1.695a7.07 7.07 0 0 0-6.216 0l-1.729-1.695A.59.59 0 0 0 6.75 112zM9 117h1v1H9v-1zm5 0h1v1h-1v-1z" class="D"/><g clip-path="url(#A)"><path d="M5.819 132.293a.5.5 0 0 1 .183-.683 12 12 0 0 1 16.392 4.392c3.314 5.74 1.347 13.079-4.392 16.392a12 12 0 0 1-16.392-4.392c-1.537-2.661-1.938-5.668-1.354-8.456.299-1.426.855-2.795 1.649-4.033a11.91 11.91 0 0 1 1.689-2.076.5.5 0 0 1 .7.714 10.91 10.91 0 0 0-1.547 1.902 11.05 11.05 0 0 0-1.512 3.698c-.535 2.557-.168 5.311 1.241 7.751 3.038 5.261 9.765 7.064 15.026 4.026s7.064-9.765 4.026-15.026-9.765-7.064-15.026-4.026a.5.5 0 0 1-.683-.183z" class="B C"/><g class="D"><circle cx="8.002" cy="142.05" r="1"/><circle cx="12.002" cy="142.05" r="1"/><circle cx="16.002" cy="142.05" r="1"/></g></g><g class="B C"><path d="M2.5 159.004c-.813 0-1.5.704-1.5 1.548v10c0 .813.656 1.452 1.5 1.452h11a.5.5 0 1 1 0 1h-11c-1.365 0-2.5-1.056-2.5-2.452v-10c0-1.365 1.104-2.548 2.5-2.548h18c.618 0 1.254.139 1.741.559.501.432.759 1.089.759 1.941a.5.5 0 1 1-1 0c0-.648-.189-.991-.413-1.184-.237-.205-.6-.316-1.087-.316h-18zm1.5 17.5c0-.276.16-.5.357-.5h9.286c.197 0 .357.224.357.5s-.16.5-.357.5H4.357c-.197 0-.357-.224-.357-.5z"/><path d="M8.5 176.956a.5.5 0 0 1-.5-.5v-3.5h1v3.5a.5.5 0 0 1-.5.5z"/></g><path d="M15 164.004a2 2 0 0 1 2-2h5a2 2 0 0 1 2 2v11a2 2 0 0 1-2 2h-5a2 2 0 0 1-2-2v-11z" class="E"/><path d="M22 163.004h-5a1 1 0 0 0-1 1v11a1 1 0 0 0 1 1h5a1 1 0 0 0 1-1v-11a1 1 0 0 0-1-1zm-5-1a2 2 0 0 0-2 2v11a2 2 0 0 0 2 2h5a2 2 0 0 0 2-2v-11a2 2 0 0 0-2-2h-5zm1 12.5c0-.276.293-.5.5-.5h2c.207 0 .5.224.5.5s-.293.5-.5.5h-2c-.207 0-.5-.224-.5-.5z" class="B D"/><g clip-path="url(#B)"><path d="M21.711 187.823a.5.5 0 0 1 .683.183c3.314 5.739 1.347 13.079-4.392 16.392s-13.079 1.347-16.392-4.392-1.347-13.079 4.392-16.392c2.661-1.537 5.668-1.938 8.456-1.354a12.03 12.03 0 0 1 4.032 1.649 11.92 11.92 0 0 1 2.077 1.688.5.5 0 0 1-.714.7 10.91 10.91 0 0 0-1.902-1.547 11.06 11.06 0 0 0-3.697-1.511c-2.557-.536-5.311-.168-7.751 1.241-5.261 3.037-7.064 9.765-4.026 15.026s9.765 7.064 15.026 4.026 7.064-9.765 4.026-15.026a.5.5 0 0 1 .183-.683z" class="B C"/><path d="M16.476 197.633c.325-.327.487-.704.487-1.13a1.52 1.52 0 0 0-.466-1.108c-.31-.327-.677-.49-1.1-.49-.451 0-.832.156-1.143.469a1.58 1.58 0 0 0-.444 1.129c0 .426.155.803.466 1.13.31.312.684.469 1.122.469.409 0 .769-.157 1.079-.469zm-6.286-6.245c0-.441-.155-.817-.466-1.13s-.67-.469-1.079-.469c-.451 0-.832.156-1.143.469-.296.313-.444.689-.444 1.13a1.59 1.59 0 0 0 .466 1.129 1.52 1.52 0 0 0 1.122.469c.409 0 .769-.156 1.079-.469a1.59 1.59 0 0 0 .466-1.129zm7.81 5.115c0 .682-.261 1.293-.783 1.833s-1.129.81-1.82.81c-.706 0-1.319-.263-1.841-.788-.522-.54-.783-1.159-.783-1.855 0-.724.261-1.35.783-1.875s1.136-.789 1.841-.789 1.312.263 1.82.789c.522.525.783 1.151.783 1.875zm-6.751-5.115c0 .682-.261 1.293-.783 1.833s-1.129.81-1.82.81c-.705 0-1.326-.263-1.862-.789-.522-.54-.783-1.158-.783-1.854a2.57 2.57 0 0 1 .783-1.876c.522-.526 1.143-.789 1.862-.789.705 0 1.312.263 1.82.789a2.57 2.57 0 0 1 .783 1.876zm4.718-3.076a.56.56 0 0 1 .117.765L8.796 199.47a.54.54 0 1 1-.886-.62l7.258-10.414a.56.56 0 0 1 .799-.124z" class="D"/></g><path d="M7.743 221.799c-.23-.14-.321-.413-.204-.618l1.06-1.848c.121-.212.419-.268.659-.124.23.14.321.413.204.618l-1.06 1.848c-.121.212-.419.268-.659.124zm8.575 0c.23-.14.321-.413.204-.618l-1.06-1.848c-.121-.212-.419-.268-.659-.124-.23.14-.321.413-.204.618l1.06 1.848c.121.212.419.268.659.124zM12 218.004a3 3 0 1 0 0-6 3 3 0 1 0 0 6zm0 1a4 4 0 1 0 0-8 4 4 0 1 0 0 8zm-4 7.004a3 3 0 1 1-6 0 3 3 0 1 1 6 0zm1 0a4 4 0 1 1-8 0 4 4 0 1 1 8 0zm13 0a3 3 0 1 1-6 0 3 3 0 1 1 6 0zm1 0a4 4 0 1 1-8 0 4 4 0 1 1 8 0z" class="B C"/><g clip-path="url(#C)" class="B"><path d="M11.92 243.847a2.92 2.92 0 0 0 2.92-2.919 2.92 2.92 0 0 0-2.92-2.92 2.92 2.92 0 0 0-2.92 2.92 2.92 2.92 0 0 0 2.92 2.919zm0 1a3.92 3.92 0 0 0 3.92-3.919 3.92 3.92 0 0 0-3.92-3.92 3.92 3.92 0 0 0-3.92 3.92 3.92 3.92 0 0 0 3.92 3.919z" class="C"/><path d="M19.435 252.41c.481-.338.565-.594.565-.754 0-.759-.645-1.908-2.133-2.932-1.434-.988-3.469-1.716-5.799-1.716-2.315 0-4.382.776-5.856 1.822C4.678 249.918 4 251.126 4 251.885c0 .141.071.38.559.7s1.223.598 2.132.822c1.803.445 3.983.601 5.377.601 1.372 0 3.511-.209 5.277-.707.889-.25 1.611-.554 2.089-.891zm-7.367 2.598c2.886 0 8.932-.867 8.932-3.352s-3.864-5.648-8.932-5.648S3 249.4 3 251.885s6.181 3.123 9.068 3.123z" class="D"/></g><g class="B"><path d="M13.66 271.348l-3.504 3.504c-.188.187-.498.181-.693-.014a.49.49 0 0 1-.014-.693l3.504-3.504a.49.49 0 0 1 .693.013c.195.196.202.506.014.694z" class="D"/><path d="M19.707 264.301a1 1 0 0 1 .235 1.041l-5.68 16a1 1 0 0 1-1.845.096l-3.145-6.594-6.71-3.257a1 1 0 0 1 .102-1.842l16-5.679a1 1 0 0 1 1.042.235zm-9.682 9.796l3.296 6.911 5.68-16-16 5.68 7.025 3.409z" class="C"/></g><g clip-path="url(#D)" class="B C"><path d="M4.387 297.411a.5.5 0 0 1-.263.656l-1.413.604c-.054.022-.097.042-.13.061.036.023.083.048.144.075l8.235 3.516c.25.115.623.185 1.03.185s.79-.07 1.06-.188l.004-.002 8.237-3.517a.96.96 0 0 0 .13-.061 1.22 1.22 0 0 0-.144-.075l-1.399-.598a.5.5 0 0 1-.263-.656.5.5 0 0 1 .656-.263l1.405.601c.382.167.825.483.825.998 0 .521-.451.827-.834.981l-8.216 3.508c-.433.189-.961.272-1.461.272s-1.02-.082-1.44-.272l-8.224-3.512c-.382-.167-.825-.484-.825-.998 0-.521.451-.828.834-.981l1.396-.597a.5.5 0 0 1 .656.263zm0 4.7a.5.5 0 0 1-.263.656l-1.413.605a.96.96 0 0 0-.13.061 1.1 1.1 0 0 0 .144.074l8.235 3.517c.25.114.623.184 1.03.184s.79-.07 1.06-.188l.004-.001 8.237-3.518a1.15 1.15 0 0 0 .13-.06.98.98 0 0 0-.144-.075l-1.399-.599a.5.5 0 0 1-.263-.656.5.5 0 0 1 .656-.263l1.405.601c.382.167.825.484.825.998 0 .521-.451.828-.834.981l-8.216 3.508c-.433.189-.961.272-1.461.272s-1.02-.082-1.44-.272l-8.224-3.512c-.382-.167-.825-.483-.825-.998 0-.521.451-.827.834-.981l1.396-.597a.5.5 0 0 1 .656.263zm5.953-3.412l-8.234-3.713c-.437-.202-1.106-.659-1.106-1.478 0-.829.679-1.274 1.125-1.465l8.211-3.702c.516-.237 1.123-.333 1.675-.333.547 0 1.151.094 1.659.336l8.223 3.708c.437.202 1.106.659 1.106 1.478 0 .829-.679 1.274-1.125 1.465l-8.227 3.709-.012.005c-.507.213-1.104.299-1.648.299s-1.139-.085-1.64-.305l-.009-.004zm2.909-9.448c-.67-.324-1.797-.324-2.498 0l-8.225 3.709c-.701.294-.701.794 0 1.118l8.225 3.709c.67.295 1.797.295 2.498 0l8.225-3.709c.701-.294.701-.795 0-1.118l-8.225-3.709z"/></g><g class="C"><rect x="2" y="324.008" width="16" height="1" rx=".5"/><rect x="2" y="318.008" width="16" height="1" rx=".5"/></g><g class="D"><rect x="2" y="327.008" width="11" height="1" rx=".5"/><rect x="2" y="321.008" width="11" height="1" rx=".5"/></g><g class="C"><rect x="2" y="330" width="16" height="1" rx=".5"/><path d="M9.017 357.008h5v1h-5z"/><path d="M5 347.746c0-3.981 2.918-6.738 6.5-6.738s6.5 2.757 6.5 6.738c0 3.09-2.02 4.731-2.88 5.29-.343.223-.65.553-.83.972h1.203a1.34 1.34 0 0 1 .172-.134c.976-.634 3.335-2.539 3.335-6.128 0-4.525-3.358-7.738-7.5-7.738S4 343.221 4 347.746c0 2.412 1.212 4.934 3.315 6.147.059.034.115.072.167.115H8.71a2.14 2.14 0 0 0-.896-.981C6.076 352.024 5 349.869 5 347.746zm3.965 7.262H7.943l.876 4.202a1 1 0 0 0 .98.798h3.377a1 1 0 0 0 .978-.79l.906-4.21h-1.023l-.86 4H9.799h0l-.833-4z" class="B"/><path d="M8 355.008h6.5l-.5 1H8.5l-.5-1z"/></g><g class="D"><rect width="3" height="1" rx=".5" transform="matrix(-1 0 0 1 3 348.008)"/><rect width="3" height="1" rx=".5" transform="matrix(-1 0 0 1 23 348.008)"/><rect x="18.998" y="353.333" width="3" height="1" rx=".5" transform="rotate(40.399 18.998 353.333)"/><rect width="3" height="1" rx=".5" transform="matrix(-.7661 .642713 .642713 .7661 4.39282 353.213)"/><rect width="3" height="1" rx=".5" transform="matrix(.7663 -.642543 -.642543 -.7662 19.6426 342.661)"/><rect x="3.264" y="342.731" width="3" height="1" rx=".5" transform="rotate(221.009 3.264 342.731)"/></g><path d="M12.061 383.748a.5.5 0 0 0 .874.006c.434-.766 1.175-1.485 2.099-2.233l1.461-1.125h0l1.541-1.186c2.024-1.632 3.963-3.637 3.963-6.611h0-.5l.5-.001h0v-.002-.004-.014l-.001-.043-.009-.151c-.01-.127-.029-.304-.068-.515-.077-.419-.232-.985-.546-1.557s-.794-1.156-1.515-1.592-1.658-.712-2.861-.712c-1.459 0-2.697.769-3.538 1.482a9.21 9.21 0 0 0-.962.95 9.21 9.21 0 0 0-.962-.95c-.84-.713-2.078-1.482-3.538-1.482-1.203 0-2.139.274-2.861.712s-1.199 1.018-1.515 1.592-.469 1.138-.546 1.557a5.07 5.07 0 0 0-.068.515l-.009.151-.001.043v.014.004.002h0a18.23 18.23 0 0 0 .5.001H3h0c0 2.974 1.939 4.979 3.963 6.611l1.541 1.186h0l1.461 1.125c.922.746 1.661 1.463 2.096 2.227zm.439-1.14c.515-.672 1.187-1.283 1.905-1.864l1.483-1.142.007-.005 1.515-1.166c1.993-1.607 3.59-3.351 3.591-5.831v-.001h.5-.5v-.003l-.001-.025-.006-.109c-.008-.097-.023-.24-.055-.412-.064-.348-.19-.804-.438-1.256a3.21 3.21 0 0 0-1.157-1.219c-.544-.33-1.296-.567-2.343-.567-1.112 0-2.124.594-2.891 1.245-.378.32-.681.642-.889.883l-.237.288-.059.078-.014.018-.003.004h0 0a.5.5 0 0 1-.697.119c-.05-.035-.092-.078-.125-.127l-.011-.014-.059-.078-.237-.288a8.23 8.23 0 0 0-.889-.883c-.767-.651-1.779-1.245-2.891-1.245-1.047 0-1.798.237-2.342.567a3.21 3.21 0 0 0-1.157 1.219c-.248.452-.375.908-.438 1.256l-.055.412-.006.109-.001.025v.003h0-.5.5v.001c.001 2.48 1.597 4.224 3.591 5.831l1.515 1.166.007.005 1.483 1.142c.718.581 1.391 1.192 1.905 1.864z" class="B C"/><path d="M10.632 391.563c.766-.74 1.97-.74 2.736 0l1.218 1.176a1.97 1.97 0 0 0 1.494.55l1.68-.108a1.99 1.99 0 0 1 2.096 1.781l.186 1.694a2.01 2.01 0 0 0 .795 1.394l1.355 1.011c.852.635 1.061 1.836.475 2.728l-.932 1.419a2.03 2.03 0 0 0-.276 1.586l.397 1.656c.25 1.041-.353 2.098-1.368 2.4l-1.615.48a1.99 1.99 0 0 0-1.218 1.034l-.747 1.527a1.97 1.97 0 0 1-2.571.948l-1.542-.683c-.507-.225-1.083-.225-1.59 0l-1.542.683a1.97 1.97 0 0 1-2.571-.948l-.747-1.527a1.99 1.99 0 0 0-1.218-1.034l-1.615-.48c-1.015-.302-1.618-1.359-1.368-2.4l.397-1.656a2.03 2.03 0 0 0-.276-1.586l-.932-1.419c-.586-.892-.377-2.093.475-2.728l1.355-1.011a2.01 2.01 0 0 0 .795-1.394l.186-1.694a1.99 1.99 0 0 1 2.096-1.781l1.68.108a1.97 1.97 0 0 0 1.494-.55l1.218-1.176z" class="E"/><g class="B"><path d="M13.902 393.465l-1.218-1.176a.98.98 0 0 0-1.368 0l-1.218 1.176c-.6.58-1.413.879-2.241.826l-1.68-.108c-.528-.034-.989.358-1.048.891l-.187 1.693c-.092.835-.524 1.593-1.192 2.092l-1.355 1.01a1.01 1.01 0 0 0-.238 1.364l.932 1.419c.46.7.61 1.562.414 2.378l-.397 1.656c-.125.521.176 1.049.684 1.2l1.615.48c.796.237 1.458.8 1.827 1.553l.747 1.527c.235.48.801.688 1.286.473l1.542-.683a2.94 2.94 0 0 1 2.385 0l1.542.683c.485.215 1.051.007 1.286-.473l.747-1.527c.368-.753 1.031-1.316 1.827-1.553l1.615-.48c.508-.151.809-.679.684-1.2l-.397-1.656c-.196-.816-.046-1.678.414-2.378l.932-1.419a1.01 1.01 0 0 0-.238-1.364l-1.355-1.01c-.668-.499-1.101-1.257-1.192-2.092l-.187-1.693c-.059-.533-.52-.925-1.048-.891l-1.68.108c-.828.053-1.641-.246-2.241-.826zm-.534-1.902c-.766-.74-1.97-.74-2.736 0l-1.218 1.176a1.97 1.97 0 0 1-1.494.55l-1.68-.108a1.99 1.99 0 0 0-2.096 1.781l-.186 1.694a2.01 2.01 0 0 1-.795 1.394l-1.355 1.011c-.852.635-1.061 1.836-.475 2.728l.932 1.419a2.03 2.03 0 0 1 .276 1.586l-.397 1.656c-.25 1.041.353 2.098 1.368 2.4l1.615.48a1.99 1.99 0 0 1 1.218 1.034l.747 1.527a1.97 1.97 0 0 0 2.571.948l1.542-.683c.507-.225 1.083-.225 1.59 0l1.542.683a1.97 1.97 0 0 0 2.571-.948l.747-1.527a1.99 1.99 0 0 1 1.218-1.034l1.615-.48c1.015-.302 1.618-1.359 1.368-2.4l-.397-1.656a2.03 2.03 0 0 1 .276-1.586l.932-1.419c.586-.892.377-2.093-.475-2.728l-1.355-1.011a2.01 2.01 0 0 1-.795-1.394l-.186-1.694a1.99 1.99 0 0 0-2.096-1.781l-1.68.108a1.97 1.97 0 0 1-1.494-.55l-1.218-1.176z" fill="#444"/><path d="M14.002 399.743L12 396.008l-2.002 3.735-3.998.849 2.76 3.156-.468 4.26L12 406.223l3.708 1.785-.468-4.26 2.76-3.156-3.998-.849zm1.961 1.544l-2.641-.56L12 398.26l-1.323 2.467-2.641.56 1.823 2.086-.309 2.813 2.45-1.178 2.45 1.178-.309-2.813 1.823-2.086z" class="D"/></g><g clip-path="url(#E)"><use xlink:href="#I" class="B C"/><g class="D"><rect x="16" y="431.008" width="1" height="3" rx=".5"/><rect x="16" y="431.008" width="1" height="3" rx=".5"/><rect x="16" y="431.008" width="1" height="3" rx=".5"/><rect x="16" y="431.008" width="1" height="3" rx=".5"/><rect x="16" y="431.008" width="1" height="3" rx=".5"/><path d="M6 433.508a.5.5 0 0 1 .5-.5h10a.5.5 0 1 1 0 1h-10a.5.5 0 0 1-.5-.5z" class="B"/><rect x="6" y="431.008" width="1" height="3" rx=".5"/><rect x="6" y="431.008" width="1" height="3" rx=".5"/><rect x="6" y="431.008" width="1" height="3" rx=".5"/><rect x="6" y="431.008" width="1" height="3" rx=".5"/><rect x="6" y="431.008" width="1" height="3" rx=".5"/><path d="M14.852 427.982l-3.025 2.893a.49.49 0 0 1-.672 0l-3.025-2.893a.44.44 0 0 1 0-.643.49.49 0 0 1 .672 0l2.213 2.117v-6.994c0-.251.213-.454.475-.454s.517.203.517.454v6.994l2.172-2.117a.49.49 0 0 1 .672 0 .44.44 0 0 1 0 .643z" class="B"/></g></g><g class="B"><path d="M20 463.008a1 1 0 0 1-1 1H6a1 1 0 0 1-1-1v-18a1 1 0 0 1 1-1h8.087a1 1 0 0 1 .705.291l4.913 4.89a1 1 0 0 1 .295.709v13.11z" class="E"/><g class="C"><path d="M6 463.008h13v-13.11l-4.913-4.89H6v18zm13 1a1 1 0 0 0 1-1v-13.11a1 1 0 0 0-.295-.709l-4.913-4.89a1 1 0 0 0-.705-.291H6a1 1 0 0 0-1 1v18a1 1 0 0 0 1 1h13z"/><use xlink:href="#G" x="-3" y="442.008"/><use xlink:href="#G" x="-3" y="445.008"/><use xlink:href="#G" x="-3" y="448.008"/></g><path d="M13.5 446.008a.5.5 0 0 1 .5.5v3.5h3.5a.5.5 0 1 1 0 1h-4a.5.5 0 0 1-.5-.5v-4a.5.5 0 0 1 .5-.5z" class="D"/></g><g clip-path="url(#F)"><g class="C"><path d="M15 490.008a.5.5 0 1 1 0 1H9a.5.5 0 1 1 0-1h6z"/><path d="M15.5 490.508a.5.5 0 0 0-.5-.5H9a.5.5 0 1 0 0 1h6a.5.5 0 0 0 .5-.5z" class="B"/></g><g class="D"><path d="M13.6 477c.221 0 .4.224.4.5s-.179.5-.4.5h-3.2c-.221 0-.4-.224-.4-.5s.179-.5.4-.5h3.2zm0-3c.221 0 .4.224.4.5s-.179.5-.4.5h-3.2c-.221 0-.4-.224-.4-.5s.179-.5.4-.5h3.2z"/></g><g class="B C"><path d="M7.909 473v6c0 2.122 1.748 4 4.091 4s4.091-1.878 4.091-4v-6c0-2.122-1.748-4-4.091-4s-4.091 1.878-4.091 4zM7 473v6a5 5 0 1 0 10 0v-6a5 5 0 1 0-10 0zm-3.5 5.508a.5.5 0 0 1 .5.5 8 8 0 1 0 16 0 .5.5 0 1 1 1 0 9 9 0 1 1-18 0 .5.5 0 0 1 .5-.5z"/></g></g><g class="B"><path d="M5 495.008h14a2 2 0 0 1 2 2v10a2 2 0 0 1-2 2H5a2 2 0 0 1-2-2v-10a2 2 0 0 1 2-2zm0 1a1 1 0 0 0-1 1v10a1 1 0 0 0 1 1h14a1 1 0 0 0 1-1v-10a1 1 0 0 0-1-1H5zm4.757 14.049a.5.5 0 0 1 .234.668l-2.824 6.049a.5.5 0 1 1-.901-.433l2.824-6.049a.5.5 0 0 1 .667-.235zm4.527 0a.5.5 0 0 0-.234.668l2.783 6.049a.5.5 0 1 0 .901-.433l-2.783-6.049a.5.5 0 0 0-.667-.235z" class="C"/><path d="M6.5 500.508a.5.5 0 0 1 .5-.5h10a.5.5 0 1 1 0 1H7a.5.5 0 0 1-.5-.5zm0 3a.5.5 0 0 1 .5-.5h7a.5.5 0 1 1 0 1H7a.5.5 0 0 1-.5-.5z" class="D"/><path d="M6.036 526.008h11.929c1.051 0 1.926.797 2.014 1.833l1.015 12c.099 1.166-.831 2.167-2.014 2.167H5.021c-1.182 0-2.112-1.001-2.014-2.167l1.015-12c.088-1.036.963-1.833 2.014-1.833zm0 1c-.525 0-.963.398-1.007.917l-1.015 12c-.049.583.416 1.083 1.007 1.083h13.958c.591 0 1.056-.5 1.007-1.083l-1.015-12c-.044-.519-.482-.917-1.007-.917H6.036z" class="C"/><path d="M9 529.008H8c0 2.39 1.453 4 4 4 2.561 0 4-1.832 4-4h-1c0 1.832-1.186 3-3 3-1.994 0-3-1.158-3-3zm0-4H8c0-2.178 1.806-4 4-4 2.328 0 4 1.689 4 4h-1c0-1.772-1.211-3-3-3a3.02 3.02 0 0 0-3 3zm6 30a3 3 0 1 1-6 0 3 3 0 1 1 6 0zm-3 2a2 2 0 1 0 0-4 2 2 0 1 0 0 4z" class="D"/><path d="M15.215 564.246c1.952-2.478 3.786-5.731 3.786-9.133 0-3.936-3.146-7.105-7-7.105s-7 3.169-7 7.105c0 3.402 1.833 6.655 3.786 9.133a28.61 28.61 0 0 0 2.656 2.92l.558.52.558-.52a28.61 28.61 0 0 0 2.656-2.92zM12 569.008s8-6.417 8-13.895c0-4.476-3.582-8.105-8-8.105s-8 3.629-8 8.105c0 7.478 8 13.895 8 13.895z" class="C"/></g><path d="M22.5 577.508c0-1.5-.895-2-2-2h-18c-1.105 0-2 .943-2 2.048v9.952a2 2 0 0 0 2 2h9" stroke="#333" class="G"/><g class="B C"><path d="M4 593.508c0-.276.16-.5.357-.5h7.244c.197 0 .398.224.398.5s-.201.5-.398.5H4.357c-.197 0-.357-.224-.357-.5z"/><path d="M8.5 593.96a.5.5 0 0 1-.5-.5v-3.5h1v3.5a.5.5 0 0 1-.5.5z"/></g><g class="F"><circle cx="18.5" cy="583.008" r="3"/><path d="M23.494 592.263l-.206.143c-.264.178-.648.416-1.124.655-.956.48-2.252.947-3.665.947-2.614 0-4.374-1.177-4.995-1.714.112-2.581 2.244-4.286 4.995-4.286 2.74 0 4.866 1.691 4.994 4.255z"/></g><g stroke="#333"><path d="M3.5 603.008a1.5 1.5 0 0 1 1.5-1.5h14a1.5 1.5 0 0 1 1.5 1.5v10.5h-17v-10.5z"/><rect x="1.5" y="615.508" width="21" height="2" rx="1"/></g><path d="M14 607.508l-4 2.5v-5l4 2.5z" class="D"/><use xlink:href="#I" y="208" class="B C"/><path d="M11.409 629.008c2.242.012 4.239 1.746 4.55 3.957.256 1.818-.688 3.673-2.339 4.567-.365.199-.658.435-.737.858-.03.163-.024.332-.061.489-.14.683-.798 1.184-1.474 1.124-.768-.066-1.352-.622-1.358-1.353-.012-1.559.688-2.731 2.047-3.504.475-.272.859-.592 1.011-1.13.237-.846-.262-1.752-1.133-2.048-.792-.278-1.699.133-2.053.924-.104.23-.219.472-.384.659-.457.507-1.176.592-1.766.254-.579-.345-.859-1.021-.633-1.656.615-1.709 1.821-2.748 3.63-3.069.232-.042.469-.048.7-.072zm3.642 4.537v-.405c-.28-2.193-2.516-3.679-4.641-3.063-1.194.345-2.004 1.124-2.436 2.284-.116.308.012.592.28.689.28.102.554-.031.682-.327l.055-.145c.524-1.268 1.967-1.927 3.247-1.474 1.352.478 2.095 1.903 1.669 3.232-.237.743-.755 1.239-1.437 1.613-1.023.568-1.541 1.456-1.571 2.622-.006.272.195.484.451.508.299.024.518-.139.566-.429l.055-.471c.146-.671.572-1.112 1.169-1.444 1.267-.689 1.882-1.776 1.913-3.19z" class="D"/><circle cx="11.5" cy="642.508" r="1" class="F"/><path d="M3.753 666.377c-1.577-2.76-2.269-6.229-2.252-11.137 2.231-.041 4.126-.37 5.805-1.103 1.651-.72 3.064-1.818 4.375-3.365 1.427 1.525 2.83 2.622 4.402 3.348 1.596.736 3.335 1.075 5.404 1.12.118 4.702-.572 8.248-2.138 11.1-1.582 2.88-4.086 5.105-7.685 7.096-3.784-2.144-6.317-4.27-7.911-7.059z" stroke="#444" class="H"/><path d="M14.762 659.167a.72.72 0 0 1 .087.975l-1.81 2.307-1.81 2.308c-.12.153-.296.244-.484.251s-.369-.073-.498-.217l-2.068-2.307a.72.72 0 0 1 .026-.979.63.63 0 0 1 .928.027l1.558 1.739 3.147-4.012c.231-.295.645-.336.924-.092z" class="B D"/><g stroke="#444" class="G"><path d="M2.5 691.508v5a1 1 0 0 0 1 1h17a1 1 0 0 0 1-1v-5" class="H"/><path d="M7.5 689.5h-5a1 1 0 0 1-1-1v-6a1 1 0 0 1 1-1h19a1 1 0 0 1 1 1v6a1 1 0 0 1-1 1h-4"/></g><path d="M9.5 688.008a.5.5 0 0 1 .5-.5h5a.5.5 0 0 1 .5.5v3a.5.5 0 0 1-.5.5h-5a.5.5 0 0 1-.5-.5v-3z" class="F"/><path d="M16.5 680v-1.5a1 1 0 0 0-1-1h-6a1 1 0 0 0-1 1v1.5" stroke="#444"/><path d="M8.299 710.03c-1.588-.343-2.592-1.934-2.243-3.554s1.921-2.654 3.51-2.311a2.9 2.9 0 0 1 1.83 1.271m-2.42 7.012c-4.458 0-7.976 2.785-7.976 4.825 0 1.113 1.617 1.775 3.5 2.146" class="F G"/><g stroke="#333"><circle cx="14.917" cy="710.698" r="3.194"/><path d="M22.333 720.085c0 .264-.166.559-.645.873-.473.311-1.157.574-1.958.785-1.597.42-3.517.594-4.754.594-1.246 0-3.2-.129-4.828-.504-.818-.188-1.516-.43-1.998-.725-.489-.299-.65-.581-.65-.835 0-.369.162-.824.523-1.32s.89-.991 1.569-1.44c1.358-.899 3.256-1.565 5.384-1.565 2.135 0 4.005.623 5.33 1.474 1.358.873 2.027 1.901 2.027 2.663z"/></g><defs><clipPath id="A"><path transform="translate(0 130)" d="M0 0h24.004v24.004H0z" class="E"/></clipPath><clipPath id="B"><path transform="translate(0 182.004)" d="M0 0h24.004v24.004H0z" class="E"/></clipPath><clipPath id="C"><path transform="translate(0 234.008)" d="M0 0h24v24H0z" class="E"/></clipPath><clipPath id="D"><path transform="translate(0 286.008)" d="M0 0h24v24H0z" class="E"/></clipPath><clipPath id="E"><path transform="translate(0 416.008)" d="M0 0h24v24H0z" class="E"/></clipPath><clipPath id="F"><path transform="translate(0 468.008)" d="M0 0h24v24H0z" class="E"/></clipPath><path id="G" d="M12 11.5a.5.5 0 0 1 .5-.5h6a.5.5 0 1 1 0 1h-6a.5.5 0 0 1-.5-.5z"/><path id="H" d="M14 29.5a2.5 2.5 0 1 1-5 0 2.5 2.5 0 1 1 5 0z"/><path id="I" d="M20.803 422.583a.48.48 0 0 1 .654.176 11.5 11.5 0 0 1-4.209 15.707 11.5 11.5 0 0 1-15.707-4.209 11.5 11.5 0 0 1 4.209-15.707 11.46 11.46 0 0 1 8.102-1.297c1.366.286 2.678.819 3.864 1.58a11.42 11.42 0 0 1 1.99 1.618.48.48 0 0 1-.007.677.48.48 0 0 1-.677-.006c-.556-.567-1.168-1.063-1.823-1.483-1.087-.697-2.29-1.186-3.543-1.448a10.5 10.5 0 0 0-7.427 1.189c-5.041 2.911-6.768 9.357-3.858 14.398s9.357 6.768 14.398 3.858 6.768-9.357 3.858-14.398a.48.48 0 0 1 .175-.655z"/></defs></svg>