<svg width="181" height="89" viewBox="0 0 181 89" fill="none" xmlns="http://www.w3.org/2000/svg">
<g clip-path="url(#clip0)">
<rect x="0.495972" y="0.5625" width="180" height="88" fill="#F5F5F5"/>
<rect x="0.995972" y="1.0625" width="179" height="87" stroke="#CCCCCC" stroke-opacity="0.4"/>
<path opacity="0.5" fill-rule="evenodd" clip-rule="evenodd" d="M108.363 26.5624C108.363 1.79641 128.587 -18.4375 153.342 -18.4375C178.097 -18.4375 198.321 1.79641 198.321 26.5624C198.321 51.3895 178.097 71.6244 153.341 71.5624C128.586 71.5619 108.363 51.3282 108.363 26.5624ZM153.342 -17.7174C128.985 -17.7174 109.083 2.19382 109.083 26.5624C109.083 50.9311 128.985 70.8422 153.342 70.8422H153.343C177.699 70.9033 197.601 50.9931 197.601 26.5624C197.601 2.19382 177.699 -17.7174 153.342 -17.7174Z" fill="#CCCCCC"/>
<path fill-rule="evenodd" clip-rule="evenodd" d="M121.325 26.7208C121.325 8.99602 135.799 -5.48486 153.516 -5.48486C171.233 -5.48486 185.707 8.99602 185.707 26.7208C185.707 44.4455 171.233 58.9264 153.516 58.9264C135.799 58.9264 121.325 44.4455 121.325 26.7208ZM153.516 -4.76473C136.197 -4.76473 122.045 9.39342 122.045 26.7208C122.045 44.0481 136.197 58.2062 153.516 58.2062C170.835 58.2062 184.987 44.0481 184.987 26.7208C184.987 9.39342 170.835 -4.76473 153.516 -4.76473Z" fill="#AAAAAA"/>
<path fill-rule="evenodd" clip-rule="evenodd" d="M151.796 28.9053C148.013 26.1567 146.11 17.3379 151.404 13.8786C156.698 10.4192 161.021 17.3481 160.625 22.293C160.45 24.7436 158.745 27.9882 156.388 29.1932L156.56 33.7354C157.965 33.998 159.082 34.4797 160.07 34.843C155.416 44.3455 151.796 43.8801 147.344 34.3611C148.573 33.9673 150.175 33.7741 151.404 33.5115L151.796 28.9053Z" fill="#FEFEFE"/>
<path fill-rule="evenodd" clip-rule="evenodd" d="M148.047 34.1645C148.692 34.0057 149.392 33.882 150.065 33.7633C150.534 33.6804 150.99 33.5999 151.404 33.5115L151.796 28.9054C148.012 26.1567 146.11 17.338 151.404 13.8786C156.698 10.4192 161.02 17.3481 160.625 22.293C160.45 24.7436 158.744 27.9883 156.388 29.1932L156.56 33.7355C157.654 33.9399 158.573 34.2772 159.393 34.5879C159.443 34.6067 159.492 34.6254 159.54 34.6439C159.721 34.7127 159.898 34.7796 160.07 34.843C159.962 35.0644 159.854 35.2805 159.746 35.4911C155.355 44.1063 151.864 43.6846 147.656 35.0177C147.552 34.8039 147.448 34.585 147.344 34.3611C147.567 34.2895 147.803 34.2245 148.047 34.1645ZM157.258 33.1473C158.242 33.3794 159.089 33.7015 159.812 33.9765C159.988 34.0435 160.157 34.1077 160.319 34.1671L161.068 34.4426L160.717 35.1598C159.542 37.5591 158.406 39.3852 157.272 40.6055C156.14 41.8228 154.918 42.531 153.589 42.454C152.277 42.378 151.094 41.5467 150.005 40.2522C148.907 38.9475 147.815 37.0678 146.691 34.6662L146.344 33.925L147.124 33.6753C147.785 33.4635 148.531 33.31 149.243 33.1789C149.487 33.1339 149.725 33.0919 149.956 33.0511C150.225 33.0038 150.483 32.9581 150.732 32.9113L151.045 29.2334C149.113 27.6305 147.763 24.683 147.479 21.7275C147.177 18.5885 148.06 15.2031 151.01 13.2758C152.473 12.3195 153.929 12.0494 155.282 12.3338C156.617 12.6145 157.769 13.4173 158.688 14.4576C160.508 16.5201 161.556 19.6794 161.343 22.3476C161.246 23.7007 160.734 25.229 159.946 26.5742C159.24 27.7784 158.28 28.8934 157.124 29.6045L157.258 33.1473Z" fill="#333333"/>
<path fill-rule="evenodd" clip-rule="evenodd" d="M138.567 36.7405L138.303 36.8722L138.391 37.1797C139.269 40.2984 141.596 42.9339 144.538 44.7787C147.479 46.6236 150.992 47.6778 154.284 47.6778C157.841 47.3703 161.09 46.2722 163.592 44.6909C166.139 43.1096 167.983 40.9573 168.641 38.5853L168.729 38.3218L168.51 38.19C166.973 37.2236 162.802 35.3788 159.86 34.5003L159.641 34.4564L159.465 34.6321C155.882 37.1797 153.439 41.9028 153.439 41.9028C153.439 41.9028 150.681 36.525 147.348 34.2807L147.216 34.105L146.996 34.1489C145.635 34.5003 143.791 35.0274 142.167 35.5545C140.542 35.9937 139.094 36.4769 138.567 36.7405Z" fill="#BDECFF"/>
<path fill-rule="evenodd" clip-rule="evenodd" d="M147.368 33.7075L147.6 34.0167C149.305 35.1826 150.84 37.1133 151.941 38.7309C152.5 39.5525 152.954 40.3027 153.268 40.8478C153.332 40.959 153.39 41.0617 153.442 41.1548C153.481 41.0886 153.522 41.0176 153.567 40.942C153.856 40.4528 154.278 39.7743 154.815 39.0152C155.878 37.5088 157.404 35.6634 159.232 34.3565L159.523 34.0656L159.948 34.1507L159.964 34.1555C162.925 35.04 167.125 36.8947 168.698 37.8833L169.162 38.1618L168.986 38.6907C168.295 41.1701 166.379 43.3845 163.784 44.9962C161.228 46.6105 157.924 47.7247 154.316 48.0367L154.3 48.038H154.285C150.919 48.038 147.341 46.9621 144.347 45.0839C141.352 43.206 138.954 40.5052 138.045 37.2781C138.045 37.2779 138.045 37.2783 138.045 37.2781L137.875 36.684L138.406 36.4186C138.406 36.4186 138.406 36.4186 138.406 36.4186C138.968 36.1373 140.446 35.6474 142.064 35.2094C143.694 34.6808 145.541 34.1529 146.907 33.8004L146.916 33.798L147.368 33.7075ZM153.119 42.0672L153.117 42.0641L153.111 42.0534L153.089 42.0096C153.068 41.9709 153.038 41.9132 152.997 41.8388C152.917 41.6899 152.798 41.4739 152.644 41.2073C152.337 40.6739 151.893 39.9395 151.346 39.1361C150.245 37.5198 148.754 35.6619 147.147 34.5795L147.096 34.5455L147.065 34.5034C145.712 34.8531 143.886 35.3753 142.278 35.8971L142.27 35.8999L142.261 35.9022C140.638 36.341 139.225 36.815 138.732 37.0608L138.738 37.0823C139.585 40.0922 141.841 42.6622 144.729 44.4738C147.613 46.2824 151.053 47.3146 154.269 47.3179C157.767 47.0131 160.954 45.9323 163.4 44.3867L163.403 44.3852C165.897 42.8363 167.667 40.7497 168.295 38.4892L168.297 38.4815C166.78 37.5348 162.678 35.7199 159.774 34.8502L159.759 34.8474L159.699 34.9082L159.674 34.9257C157.931 36.1654 156.452 37.9455 155.403 39.4307C154.88 40.1708 154.468 40.8323 154.187 41.3083C154.046 41.5461 153.939 41.7374 153.866 41.8686C153.83 41.9342 153.803 41.9848 153.785 42.0186L153.765 42.0567L153.76 42.0659L153.759 42.068L153.438 42.6892L153.119 42.0672Z" fill="#333333"/>
<path fill-rule="evenodd" clip-rule="evenodd" d="M155.735 20.7749C156.263 21.8963 157.23 21.5231 157.481 21.1524C157.56 21.1227 157.62 21.0653 157.699 21.0356C157.958 21.3572 159.556 21.0338 157.652 19.7867C157.384 19.6061 157.055 19.4829 156.734 19.4328C156.412 19.3827 156.037 19.463 155.71 19.7452C155.472 19.9524 155.276 20.2883 155.106 20.8208L155.735 20.7749Z" fill="#333333"/>
<path fill-rule="evenodd" clip-rule="evenodd" d="M152.259 20.8287C152.653 20.867 152.67 20.8386 152.807 20.6336C152.999 20.3658 151.945 19.5673 151.41 19.5425C151.235 19.5173 151.005 19.555 150.842 19.5746C150.512 19.6871 150.245 19.8549 150.034 20.0555C149.83 20.2785 149.638 20.5463 149.624 20.7661C149.569 20.8289 149.599 20.941 149.607 21.0591L149.614 21.1772L149.677 21.2324C149.74 21.2877 150.387 20.9221 150.427 20.9833C150.791 21.8948 152.057 21.8679 152.259 20.8287Z" fill="#333333"/>
<path fill-rule="evenodd" clip-rule="evenodd" d="M153.664 27.6373C153.341 27.4915 153.036 27.1596 152.877 26.8136C152.808 26.7023 152.487 26.1286 152.433 25.9495C152.553 26.0485 152.847 26.1161 152.903 26.0812C153.136 25.8966 153.633 25.7013 154.308 25.9755C154.626 25.8343 155.043 25.8826 155.36 25.9553C155.405 25.9657 155.864 26.1427 156.179 26.1198C156.398 26.0987 155.877 26.8124 155.623 27.0874C155.033 27.6899 154.289 27.9237 153.664 27.6373Z" fill="#333333"/>
<path fill-rule="evenodd" clip-rule="evenodd" d="M153.397 23.0173C153.368 22.8325 153.433 22.6679 153.52 22.5025C153.719 22.1711 153.988 21.8838 154.204 21.3893C154.428 21.8465 154.056 22.555 153.923 22.745C153.744 22.9829 154.02 23.601 154.648 23.6506C154.468 23.8421 153.518 23.8957 153.397 23.0173Z" fill="#333333"/>
<path fill-rule="evenodd" clip-rule="evenodd" d="M151.238 13.9466C151.282 13.9906 151.478 13.5661 152.335 13.2438C154.062 12.686 156.945 12.8046 158.57 14.7812C159.58 15.8793 160.633 17.6363 160.633 20.184C160.633 25.914 157.144 34.0107 166.169 33.4555C167.138 33.3958 169.873 32.5611 169.407 32.4338C163.188 30.7333 167.473 20.184 165.501 13.9466C164.446 10.6094 162.477 8.82496 160.633 8.03431C156.638 6.36516 151.238 9.43222 151.238 13.9466ZM151.238 13.9466C151.326 13.7709 151.902 13.4417 152.335 13.2438C154.548 12.5291 156.945 13.0681 158.57 14.7812C160.063 16.3625 160.633 18.4242 160.633 20.184L159.744 20.1105C155.469 20.184 154.087 15.536 151.238 13.9466Z" fill="url(#paint0_linear)"/>
<path fill-rule="evenodd" clip-rule="evenodd" d="M154.251 8.36367C156.179 7.19318 158.649 6.81498 160.772 7.70192L160.775 7.70321C162.72 8.53715 164.759 10.4057 165.845 13.8379C166.356 15.4543 166.457 17.3306 166.429 19.2325C166.415 20.1857 166.369 21.1538 166.324 22.1051C166.278 23.0589 166.234 23.9961 166.222 24.8961C166.198 26.7046 166.309 28.3191 166.787 29.5769C167.256 30.8097 168.073 31.6955 169.502 32.0864C169.537 32.0957 169.585 32.1121 169.634 32.1429C169.683 32.1738 169.753 32.2321 169.792 32.3306C169.881 32.551 169.741 32.7177 169.707 32.7547C169.657 32.8101 169.596 32.8507 169.552 32.8778C169.502 32.9079 169.446 32.9369 169.388 32.9643C169.158 33.0724 168.811 33.1964 168.433 33.3137C167.683 33.5467 166.722 33.782 166.191 33.8147C163.891 33.9562 162.31 33.5524 161.269 32.7004C160.222 31.8444 159.791 30.5945 159.659 29.2109C159.526 27.8313 159.686 26.2626 159.872 24.7102C159.896 24.5116 159.92 24.3134 159.944 24.1156C160.095 22.8728 160.244 21.6505 160.27 20.515L159.732 20.4706C157.447 20.5032 155.945 19.2664 154.691 17.895C154.377 17.5513 154.074 17.1954 153.78 16.8473L153.75 16.8124C153.464 16.4747 153.185 16.1452 152.901 15.8324C152.319 15.19 151.735 14.6405 151.082 14.2719C151.047 14.2547 151.014 14.2313 150.983 14.201L150.878 14.0956L150.878 13.9465C150.878 11.5358 152.32 9.53561 154.251 8.36367ZM151.853 13.9059C152.433 14.3055 152.949 14.8126 153.435 15.3485C153.727 15.6707 154.013 16.0086 154.297 16.3435L154.329 16.3819C154.625 16.7311 154.919 17.0769 155.222 17.409C156.437 18.7369 157.758 19.7843 159.738 19.7503L159.756 19.75L160.264 19.792C160.212 18.7457 159.949 17.6186 159.406 16.5758C159.076 15.9554 158.688 15.442 158.307 15.0268C157.511 14.1882 156.517 13.6486 155.451 13.4207C155.443 13.4192 155.435 13.4177 155.427 13.4162C154.355 13.2215 153.272 13.3238 152.466 13.58C152.268 13.6715 152.04 13.7907 151.853 13.9059ZM151.657 13.167C151.923 11.403 153.079 9.91703 154.624 8.9793C156.394 7.90524 158.621 7.58436 160.493 8.36576C162.236 9.11346 164.133 10.8137 165.158 14.0551C165.633 15.5574 165.736 17.3387 165.709 19.2222C165.696 20.1615 165.65 21.1178 165.604 22.0714L165.604 22.0773C165.559 23.0267 165.514 23.9738 165.502 24.8867C165.478 26.7077 165.585 28.4393 166.114 29.8327C166.567 31.0245 167.331 31.9707 168.56 32.5151C168.454 32.5513 168.34 32.5885 168.219 32.626C167.476 32.8571 166.585 33.069 166.147 33.0959C163.934 33.2321 162.567 32.8319 161.725 32.143C160.887 31.4579 160.499 30.4296 160.375 29.1422C160.252 27.8507 160.4 26.3556 160.587 24.7957C160.61 24.6 160.634 24.4033 160.658 24.2059C160.824 22.8465 160.994 21.4585 160.994 20.1838C160.994 18.3566 160.403 16.2037 158.84 14.5428C157.97 13.4899 156.777 12.9362 155.591 12.7142C154.496 12.4822 153.337 12.5419 152.225 12.9011L152.217 12.9037L152.209 12.9066C151.99 12.9889 151.808 13.0782 151.657 13.167Z" fill="#333333"/>
<path opacity="0.5" fill-rule="evenodd" clip-rule="evenodd" d="M-18.3295 27.5624C-18.3295 2.79641 1.89485 -17.4375 26.6498 -17.4375C51.4048 -17.4375 71.6291 2.79641 71.6291 27.5624C71.6291 52.3895 51.4051 72.6244 26.6489 72.5624C1.89436 72.5619 -18.3295 52.3282 -18.3295 27.5624ZM26.6498 -16.7174C2.29288 -16.7174 -17.6093 3.19382 -17.6093 27.5624C-17.6093 51.9311 2.29288 71.8422 26.6498 71.8422H26.6507C51.0065 71.9033 70.909 51.9931 70.909 27.5624C70.909 3.19382 51.0068 -16.7174 26.6498 -16.7174Z" fill="#CCCCCC"/>
<path fill-rule="evenodd" clip-rule="evenodd" d="M58.4804 27.5623C58.4804 10.0363 44.1675 -4.2832 26.6496 -4.2832C9.13162 -4.2832 -5.18127 10.0363 -5.18127 27.5623C-5.18127 45.0884 9.13162 59.4079 26.6496 59.4079C44.1675 59.4518 58.4804 45.1323 58.4804 27.5623Z" fill="#F9F9F9"/>
<path fill-rule="evenodd" clip-rule="evenodd" d="M-5.54114 27.5625C-5.54114 9.83781 8.93281 -4.64307 26.6498 -4.64307C44.3667 -4.64307 58.8407 9.83781 58.8407 27.5625C58.8407 45.3307 44.367 59.8126 26.6489 59.7682C8.93232 59.7677 -5.54114 45.287 -5.54114 27.5625ZM26.6498 -3.92293C9.33084 -3.92293 -4.821 10.2352 -4.821 27.5625C-4.821 44.8899 9.33084 59.048 26.6498 59.048H26.6507C43.9684 59.0914 58.1205 44.9343 58.1205 27.5625C58.1205 10.2352 43.9687 -3.92293 26.6498 -3.92293Z" fill="#AAAAAA"/>
<path fill-rule="evenodd" clip-rule="evenodd" d="M26.3427 28.0894C30.2941 28.0894 33.3674 24.2679 33.3674 19.6997C33.3674 15.1315 30.2941 11.3101 26.3427 11.3101C22.3913 11.3101 19.318 15.1315 19.318 19.6997C19.318 24.2679 22.4352 28.0894 26.3427 28.0894Z" fill="white"/>
<path fill-rule="evenodd" clip-rule="evenodd" d="M18.958 19.6999C18.958 14.9999 22.1315 10.9502 26.3428 10.9502C30.554 10.9502 33.7275 14.9999 33.7275 19.6999C33.7275 24.3999 30.554 28.4497 26.3428 28.4497C22.1767 28.4497 18.958 24.4015 18.958 19.6999ZM26.3428 11.6703C22.6512 11.6703 19.6781 15.2635 19.6781 19.6999C19.6781 24.1347 22.6938 27.7295 26.3428 27.7295C30.0343 27.7295 33.0074 24.1363 33.0074 19.6999C33.0074 15.2635 30.0343 11.6703 26.3428 11.6703Z" fill="#333333"/>
<path fill-rule="evenodd" clip-rule="evenodd" d="M25.2001 18.4392C25.1477 18.395 25.1436 18.3467 25.0912 18.3026C24.7622 17.8685 24.3049 17.6401 23.7634 17.5649C23.4213 17.5456 23.0571 17.5525 22.7757 17.6739C22.4902 17.747 21.7707 18.1493 22.0956 18.535C22.2046 18.6717 22.5826 18.5419 22.6267 18.4895C22.8191 19.0325 23.0874 19.3258 23.4399 19.4659C23.593 19.5501 23.7861 19.5335 23.9331 19.5453C24.0779 19.5328 24.2669 19.468 24.4276 19.3569C24.7049 19.1872 24.9015 18.927 24.9711 18.6048L25.2001 18.4392Z" fill="#333333"/>
<path fill-rule="evenodd" clip-rule="evenodd" d="M28.5418 18.9165C28.5896 18.9247 28.5896 18.9247 28.6257 18.8571C28.6993 19.2879 28.8494 19.5596 29.0397 19.7398C29.1905 19.8641 29.3692 19.9686 29.5964 19.9338C29.7718 19.9147 29.9512 19.8718 30.1068 19.8247C30.4303 19.6589 30.7347 19.3177 30.7921 18.9832L30.8323 18.8918L30.773 18.8078C30.7136 18.7238 30.6823 18.6201 30.6147 18.5839C30.3651 18.3196 29.9434 18.198 29.4897 18.1201C29.0755 18.0982 28.6054 18.1158 28.2581 18.2775C27.9947 18.3799 27.8138 18.7177 27.9127 18.8577C28.0396 18.9778 28.4101 18.9677 28.5418 18.9165Z" fill="#333333"/>
<path fill-rule="evenodd" clip-rule="evenodd" d="M24.1106 23.9321C24.1256 24.1011 24.4182 24.6592 24.6085 24.8857C25.2803 25.6048 26.3566 25.9475 27.2025 25.3371C27.6219 25.1296 27.5926 24.5238 27.1561 24.5382C26.2127 24.5975 24.7702 24.2387 24.1106 23.9321Z" fill="#333333"/>
<path fill-rule="evenodd" clip-rule="evenodd" d="M27.5881 22.1991C27.5382 22.7146 27.1671 22.8448 26.7919 22.9267C26.3786 23.012 26.0621 22.8941 25.9247 22.6386C26.2153 22.2478 26.9306 22.5494 26.9637 22.0598C27.022 21.4219 27.011 20.1081 26.9637 19.3579C27.4093 19.8538 27.6151 21.856 27.5881 22.1991Z" fill="#333333"/>
<path fill-rule="evenodd" clip-rule="evenodd" d="M19.7568 21.9838C20.1959 16.8006 23.0057 11.5296 29.5475 13.8137C31.0403 14.3408 32.8404 15.395 33.4989 19.8754C35.1673 18.2062 37.5382 12.2324 34.2453 7.62032C33.2355 8.10349 31.9623 8.45489 29.811 8.05956C18.5275 4.72127 15.3664 13.7259 19.7568 21.9838Z" fill="#333333"/>
<path fill-rule="evenodd" clip-rule="evenodd" d="M29.8737 7.79631C31.9584 8.17689 33.1706 7.83495 34.1287 7.37651L34.3333 7.27863L34.4651 7.4632C36.1646 9.84364 36.3968 12.5689 35.9987 14.8968C35.6023 17.2147 34.5735 19.182 33.6899 20.0661L33.3099 20.4462L33.2317 19.9144C32.9068 17.7044 32.305 16.3717 31.626 15.5316C30.9506 14.696 30.1791 14.323 29.4579 14.0683C27.8589 13.5101 26.5078 13.4202 25.376 13.6617C24.2456 13.9029 23.3148 14.4785 22.5606 15.283C21.0442 16.9006 20.2429 19.4446 20.0259 22.0063L19.9485 22.9194L19.5183 22.1103C17.2985 17.935 16.9566 13.5145 18.6722 10.538C19.5337 9.04328 20.9077 7.92782 22.7901 7.4052C24.664 6.88494 27.0262 6.9559 29.8737 7.79631ZM19.5898 21.0462C17.7967 17.224 17.6568 13.3814 19.1401 10.8077C19.9305 9.4364 21.188 8.41053 22.9346 7.92562C24.6866 7.4392 26.9463 7.49344 29.7343 8.31832L29.7481 8.32238L29.7621 8.32496C31.8286 8.70469 33.1266 8.41402 34.1527 7.96009C35.6308 10.1483 35.8372 12.6371 35.4664 14.8057C35.1409 16.7091 34.3762 18.3342 33.6722 19.261C33.322 17.3192 32.7387 16.0492 32.046 15.1921C31.2836 14.2489 30.4088 13.8313 29.6374 13.5589L29.6365 13.5586C27.9648 12.9749 26.5117 12.8671 25.2633 13.1335C24.0132 13.4002 22.9874 14.038 22.1666 14.9136C20.7227 16.4538 19.912 18.7287 19.5898 21.0462Z" fill="#333333"/>
<path fill-rule="evenodd" clip-rule="evenodd" d="M23.4671 27.3861L22.9402 27.1225V27.7375V34.8533V34.9851L23.028 35.073C23.7305 35.9514 25.0477 36.3907 26.3209 36.3907C27.5942 36.3907 28.9113 36.0393 29.6577 35.1608L29.7455 35.073V34.9412V27.6936V27.0786L29.1748 27.3861C27.3308 28.3964 25.4867 28.3964 23.4671 27.3861Z" fill="white"/>
<path fill-rule="evenodd" clip-rule="evenodd" d="M30.1053 26.4756V35.222L29.9221 35.4053C29.0739 36.3933 27.6323 36.7507 26.3206 36.7507C24.9938 36.7507 23.5584 36.2985 22.7595 35.3138L22.5798 35.1342V26.5398L23.6279 27.064C25.5511 28.0261 27.2698 28.019 29.0015 27.0703L29.0037 27.069L30.1053 26.4756ZM29.3475 27.7018C29.3471 27.702 29.3468 27.7022 29.3464 27.7024C27.3904 28.7736 25.4214 28.7664 23.3057 27.7081C23.3057 27.7081 23.3057 27.7081 23.3057 27.7081L23.3 27.7052V34.8368L23.309 34.848C23.9176 35.6092 25.1082 36.0306 26.3206 36.0306C27.5504 36.0306 28.7371 35.6879 29.383 34.9276L29.3852 34.9251V27.6815L29.3475 27.7018Z" fill="#333333"/>
<path fill-rule="evenodd" clip-rule="evenodd" d="M26.8695 36.0399L26.7817 36.2156L26.8695 36.3913C27.4842 37.7969 27.8354 39.8613 28.011 42.1015C28.1866 44.2977 28.2306 46.5818 28.2306 48.2949V48.7342L28.6696 48.6463C30.8648 48.2949 33.3235 47.636 35.826 46.7575L36.0456 46.6697L36.5724 46.4501C38.1968 45.8351 41.2702 44.2099 42.9825 43.0679L43.158 42.98V42.8043C43.158 40.5202 42.719 38.3679 42.0604 36.6987C41.7531 35.8642 41.4019 35.1175 41.0068 34.5464C40.6555 33.9754 40.2603 33.5361 39.8652 33.2726C39.1627 32.8333 37.9334 32.4819 36.7919 32.1745C36.3529 32.0866 35.9578 31.9549 35.5187 31.867C34.7723 31.6913 34.0699 31.5156 33.543 31.3838H33.4991H33.4552L30.1624 30.9885L29.9428 30.9446L29.8112 31.1642L26.8695 36.0399Z" fill="#BDECFF"/>
<path fill-rule="evenodd" clip-rule="evenodd" d="M29.7646 30.5415L30.2193 30.6325L33.4768 31.0236H33.5874L33.6304 31.0343C34.1561 31.1658 34.854 31.3404 35.5955 31.515C35.8234 31.5608 36.0387 31.6175 36.2426 31.6712L36.247 31.6723C36.457 31.7276 36.6553 31.7797 36.8626 31.8212L36.8742 31.8235L36.8856 31.8266C38.0095 32.1293 39.2984 32.4933 40.0562 32.9671L40.0606 32.9699L40.065 32.9728C40.5148 33.2728 40.9411 33.7541 41.3084 34.3493C41.7247 34.9531 42.086 35.7265 42.3969 36.5703C43.072 38.2827 43.5182 40.4785 43.5182 42.8041V43.2023L43.1636 43.3797C41.4316 44.5318 38.3555 46.1588 36.7055 46.7845L36.1794 47.0038L35.9527 47.0945L35.9453 47.0971C33.4304 47.9799 30.953 48.6447 28.7335 49.0005L27.8705 49.1732V48.2947C27.8705 46.5865 27.8267 44.3129 27.6522 42.13C27.4776 39.9031 27.1306 37.8917 26.5433 36.5437L26.3793 36.2154L26.5539 35.8659L29.5024 30.9789L29.5029 30.978L29.7646 30.5415ZM30.1219 31.3461L30.12 31.3492L30.1195 31.35L27.1853 36.2134L27.1843 36.2154L27.1958 36.2384L27.1995 36.2468C27.8393 37.7098 28.1937 39.8241 28.37 42.0729C28.5467 44.2824 28.5907 46.5769 28.5907 48.2947L28.6058 48.2917L28.6127 48.2906C30.7798 47.9437 33.2145 47.2921 35.6995 46.4202L35.9094 46.3362L36.4394 46.1152L36.445 46.1131C38.0393 45.5096 41.0885 43.8981 42.7827 42.7681L42.798 42.7579C42.7921 40.5344 42.3624 38.4448 41.7255 36.8307L41.7225 36.823C41.4205 36.0029 41.0818 35.2873 40.7107 34.7511L40.7052 34.7431L40.7001 34.7349C40.3676 34.1942 40.0071 33.8011 39.6698 33.5749C39.0238 33.1727 37.8622 32.8356 36.7095 32.525C36.4838 32.4793 36.2703 32.4232 36.0681 32.3699L36.0637 32.3687C35.8537 32.3135 35.6554 32.2614 35.4481 32.2199L35.4422 32.2187L35.4363 32.2173C34.7074 32.0457 34.0205 31.8742 33.4987 31.7437H33.4337L30.1219 31.3461Z" fill="#333333"/>
<path fill-rule="evenodd" clip-rule="evenodd" d="M26.2986 36.1714L26.3425 36.3032L26.2986 36.435C25.0693 40.2125 24.6741 46.5377 24.6741 48.3825V48.8657L24.2351 48.7779C22.3472 48.3386 19.6251 47.6358 17.5177 46.8452L17.2981 46.7573V46.5377C17.2981 46.3181 17.2542 46.0984 17.2542 45.791C17.2103 45.0882 17.1664 44.1657 17.0786 43.2872C17.0786 43.2433 17.0786 43.1994 17.0786 43.1555C17.0786 43.2433 17.0786 43.2872 17.0786 43.3751C17.0786 44.5611 17.1664 45.8788 17.2103 46.1424L17.2542 46.7134L16.7274 46.5377C15.1029 45.9667 12.0735 44.3414 10.3612 43.1994L10.1855 43.0676V42.848C10.1855 40.5639 10.6246 38.4116 11.2393 36.7424C11.5466 35.9079 11.8979 35.1611 12.2491 34.5901C12.6003 34.0191 12.9955 33.5359 13.3906 33.3163C16.2883 31.4715 19.4494 30.9444 22.6984 30.5051L22.9179 30.4612L23.0497 30.6808L22.7423 30.9004C23.0496 30.6808 23.0497 30.6808 23.0497 30.6808L23.0936 30.7247L23.1813 30.8565C23.2692 30.9883 23.357 31.164 23.4887 31.3836C23.7521 31.8229 24.1472 32.3939 24.4985 33.0088C24.8936 33.6238 25.2888 34.2826 25.5961 34.8537C25.9473 35.3808 26.2108 35.8639 26.2986 36.1714Z" fill="#BDECFF"/>
<path fill-rule="evenodd" clip-rule="evenodd" d="M23.0959 30.0583L23.3354 30.4577L23.3732 30.4955L23.4807 30.6569C23.4807 30.6569 23.4807 30.6569 23.4807 30.6569C23.5332 30.7357 23.5834 30.824 23.6321 30.9107C23.6384 30.9217 23.6446 30.9329 23.6509 30.9441C23.6956 31.0237 23.7423 31.1069 23.7972 31.1985C23.8982 31.3668 24.0188 31.5547 24.1527 31.7632C24.1888 31.8194 24.2258 31.8771 24.2637 31.9363C24.4385 32.2096 24.6273 32.5094 24.8062 32.8221C25.1998 33.4351 25.5945 34.0929 25.9049 34.6682C26.2509 35.189 26.5368 35.7025 26.6423 36.0646L26.7218 36.3032L26.6407 36.5464C26.6406 36.5468 26.6405 36.5472 26.6403 36.5476C25.4291 40.2708 25.0339 46.5494 25.0339 48.3826V49.305L24.1586 49.1299L24.1532 49.1286C22.2618 48.6885 19.5211 47.9815 17.3909 47.1823L17.3836 47.1796L16.9378 47.0011V46.9876L16.6077 46.8775C14.9453 46.2931 11.8883 44.651 10.1611 43.499L10.1528 43.4934L9.8252 43.2477V42.848C9.8252 40.5203 10.2722 38.3259 10.9011 36.6181C11.2143 35.7675 11.5753 34.9979 11.9421 34.4015C12.2963 33.8257 12.7283 33.2766 13.2055 33.0071C16.1708 31.1222 19.397 30.5883 22.6386 30.1498L23.0959 30.0583ZM16.7183 43.156L17.4384 43.1555V43.269C17.5069 43.9596 17.5489 44.6779 17.5846 45.2885C17.5945 45.4577 17.6039 45.6187 17.6133 45.7685L17.614 45.7798V45.791C17.614 45.9276 17.6237 46.0458 17.6345 46.1647C17.6354 46.1752 17.6364 46.1858 17.6374 46.1965C17.6465 46.2953 17.6564 46.4036 17.6578 46.5133C19.7386 47.2925 22.4309 47.9884 24.3109 48.4259L24.3138 48.4265V48.3826C24.3138 46.5262 24.7089 40.1557 25.9559 36.3236L25.9567 36.3212L25.9627 36.3032L25.9543 36.2778L25.9521 36.2703C25.8809 36.0211 25.6458 35.578 25.2962 35.0534L25.2868 35.0393L25.2788 35.0244C24.9769 34.4636 24.5868 33.8129 24.1953 33.2035L24.1902 33.1956L24.1855 33.1874C24.0146 32.8881 23.832 32.5979 23.6571 32.3244C23.6212 32.2684 23.5855 32.2128 23.5503 32.1579C23.4155 31.9479 23.2868 31.7476 23.1796 31.5688C23.1191 31.4678 23.0671 31.3754 23.0227 31.2961C23.0165 31.285 23.0104 31.2742 23.0044 31.2636C22.9888 31.2358 22.9743 31.2102 22.9608 31.1867L22.9514 31.1934L22.742 30.9005L22.7173 30.8659C19.4785 31.3044 16.3996 31.8273 13.5837 33.6201L13.5746 33.6258L13.5653 33.6311C13.2561 33.8029 12.9014 34.2165 12.5555 34.7788C12.2199 35.3244 11.8783 36.0484 11.5769 36.8669C10.9765 38.4973 10.5453 40.6076 10.5453 42.848V42.8877L10.569 42.9054C12.2668 44.0365 15.2591 45.6394 16.8438 46.1971L16.8533 46.2003L16.8521 46.1843C16.8026 45.858 16.7183 44.5428 16.7183 43.3751V43.156Z" fill="#333333"/>
<path fill-rule="evenodd" clip-rule="evenodd" d="M22.6544 28.9675L25.9034 33.1843L24.6301 33.9749L22.6544 30.7245V28.9675Z" fill="url(#paint1_linear)"/>
<path fill-rule="evenodd" clip-rule="evenodd" d="M30.4258 29.2312L27.1769 33.448L28.4501 34.2386L30.4258 30.9882V29.2312Z" fill="url(#paint2_linear)"/>
<path fill-rule="evenodd" clip-rule="evenodd" d="M27.2206 33.0967L26.9133 32.0864L26.5182 33.0528C24.3668 38.5434 23.9717 42.5406 23.7083 48.6022V48.7779L23.8399 48.9097L26.2108 51.2377L26.4303 51.4573L26.6937 51.2377L29.1085 49.2611L29.2402 49.1732V48.9975C29.372 42.3648 28.8451 38.2359 27.2206 33.0967Z" fill="url(#paint3_linear)"/>
<path fill-rule="evenodd" clip-rule="evenodd" d="M26.9134 32.3061L26.6939 32.1743L26.5183 32.3061L24.4548 33.6238L24.1475 33.7995L24.3231 34.107L26.2548 37.5332L26.6061 38.0603L26.9134 37.5332L28.933 34.107L29.1086 33.7995L28.8013 33.6238L26.9134 32.3061Z" fill="url(#paint4_linear)"/>
<path fill-rule="evenodd" clip-rule="evenodd" d="M79.3416 76.5826H79.6675V76.2565V68.7167V68.3499H79.3416H77.4269C76.7751 68.3499 76.2048 68.5536 75.8382 69.002C75.4308 69.4095 75.2678 69.9801 75.2678 70.6322V76.2565V76.5826H75.5937H79.3416Z" fill="#BDECFF"/>
<path fill-rule="evenodd" clip-rule="evenodd" d="M75.5903 68.7777C76.0394 68.238 76.7149 68.0159 77.427 68.0159H80.0017V76.9168H74.9338V70.6323C74.9338 69.9343 75.1071 69.2689 75.5903 68.7777ZM77.427 68.6841C76.8411 68.6841 76.3811 68.866 76.0969 69.2136L76.0863 69.2265L76.0746 69.2382C75.7519 69.5611 75.602 70.0317 75.602 70.6323V76.2486H79.3335V68.6841H77.427Z" fill="#333333"/>
<path fill-rule="evenodd" clip-rule="evenodd" d="M79.9934 58.9346C79.7897 58.9346 79.6675 59.0976 79.6675 59.2606V76.2559C79.6675 76.4597 79.8304 76.582 79.9934 76.582H99.588C99.7917 76.582 99.9139 76.419 99.9139 76.2559V63.1732C99.9139 63.0917 99.8731 63.0102 99.8324 62.9287L96.2883 59.0568C96.2068 58.9753 96.1254 58.9346 96.0439 58.9346H79.9934Z" fill="white"/>
<path fill-rule="evenodd" clip-rule="evenodd" d="M79.3335 59.2607C79.3335 58.9413 79.5784 58.6006 79.9935 58.6006H96.044C96.2454 58.6006 96.4068 58.7029 96.5247 58.8208C96.5281 58.8242 96.5315 58.8278 96.5348 58.8314L100.079 62.7032C100.1 62.7261 100.118 62.7517 100.131 62.7794C100.133 62.7837 100.136 62.7883 100.138 62.7934C100.174 62.8628 100.248 63.0096 100.248 63.1733V76.256C100.248 76.5755 100.003 76.9162 99.5881 76.9162H79.9935C79.6739 76.9162 79.3335 76.671 79.3335 76.256V59.2607ZM80.0017 59.2688V76.248H99.5799V63.1808C99.5792 63.1784 99.578 63.1743 99.5757 63.1684C99.5706 63.1547 99.5639 63.1398 99.554 63.1193L96.0477 59.2888C96.0373 59.2788 96.0294 59.2725 96.0242 59.2688H80.0017Z" fill="#333333"/>
<path fill-rule="evenodd" clip-rule="evenodd" d="M96.2638 59.0412C96.1823 58.9189 96.0194 58.9189 95.8972 58.9597C95.775 59.0004 95.6935 59.1227 95.6935 59.2857V63.1575C95.6935 63.3613 95.8564 63.4836 96.0194 63.4836H99.5635C99.6857 63.4836 99.8079 63.4021 99.8894 63.2798C99.9301 63.1576 99.9301 62.9945 99.8079 62.913L96.2638 59.0412Z" fill="url(#paint5_linear)"/>
<path fill-rule="evenodd" clip-rule="evenodd" d="M96.4592 58.8836C96.3715 58.7641 96.2472 58.709 96.1337 58.6915C96.0191 58.6739 95.9069 58.6921 95.8177 58.7218C95.5715 58.8039 95.4427 59.0395 95.4427 59.2856V63.1574C95.4427 63.5195 95.7388 63.734 96.0192 63.734H99.5633C99.7959 63.734 99.9867 63.5852 100.098 63.4186L100.116 63.3907L100.127 63.3589C100.157 63.2697 100.175 63.1575 100.157 63.0429C100.14 62.9328 100.088 62.8125 99.9757 62.7252L96.4592 58.8836ZM96.0226 59.1868C96.0074 59.1886 95.9914 59.1922 95.9763 59.1972C95.9727 59.1984 95.9672 59.201 95.9608 59.2112C95.9538 59.2221 95.9439 59.2456 95.9439 59.2856V63.1574C95.9439 63.1877 95.9541 63.2026 95.9645 63.2122C95.9781 63.2246 95.9987 63.2329 96.0192 63.2329H99.5633C99.5736 63.2329 99.615 63.2223 99.6597 63.169C99.6606 63.164 99.6613 63.159 99.6619 63.154C99.6636 63.1387 99.6631 63.1268 99.6619 63.119C99.6618 63.1181 99.6617 63.1172 99.6615 63.1165L99.6435 63.1045L96.0658 59.196L96.06 59.1872C96.0592 59.1871 96.0584 59.1869 96.0575 59.1868C96.0497 59.1856 96.0379 59.1851 96.0226 59.1868Z" fill="#333333"/>
<path fill-rule="evenodd" clip-rule="evenodd" d="M100.239 68.085H99.9135V68.411V73.5055V73.8316H100.239H103.987H104.313V73.5055V70.082C104.313 69.3892 104.109 68.8593 103.661 68.5333C103.254 68.2072 102.684 68.085 102.113 68.085H100.239Z" fill="#BDECFF"/>
<path fill-rule="evenodd" clip-rule="evenodd" d="M99.5795 67.7507H102.113C102.718 67.7507 103.374 67.8782 103.864 68.2675C104.424 68.6785 104.647 69.3283 104.647 70.0819V74.1655H99.5795V67.7507ZM100.248 68.4189V73.4974H103.979V70.0819C103.979 69.4526 103.797 69.0447 103.465 68.8033L103.459 68.7988L103.453 68.794C103.129 68.5349 102.647 68.4189 102.113 68.4189H100.248Z" fill="#333333"/>
<path fill-rule="evenodd" clip-rule="evenodd" d="M88.9961 73.7293L87.163 75.7671H76.0824C75.5528 75.7671 75.0232 75.9708 74.6159 76.2561C74.2492 76.5414 73.9233 76.9897 74.0048 77.4788L75.9602 88.809C76.0824 89.6649 76.9379 90.3578 77.997 90.3578H102.806C103.825 90.3578 104.762 89.7057 104.843 88.809L106.31 74.5036C106.432 73.8108 105.78 73.0772 104.884 73.0772H90.5442C89.9739 73.0364 89.4035 73.2809 88.9961 73.7293Z" fill="url(#paint6_linear)"/>
<path fill-rule="evenodd" clip-rule="evenodd" d="M90.5557 72.7432H104.884C105.935 72.7432 106.797 73.6115 106.641 74.549L105.176 88.8394C105.176 88.8401 105.176 88.8409 105.176 88.8416C105.072 89.9673 103.931 90.692 102.806 90.692H77.9971C76.8071 90.692 75.783 89.9105 75.6302 88.8614L73.6753 77.5338C73.5633 76.8613 74.0106 76.304 74.4108 75.9926L74.4174 75.9874L74.4243 75.9826C74.8764 75.666 75.4716 75.4331 76.0825 75.4331H87.0142L88.7479 73.5059L88.749 73.5047C89.2158 72.9909 89.878 72.6989 90.5557 72.7432ZM89.244 73.9535C89.2439 73.9537 89.2437 73.9539 89.2435 73.9541L87.3119 76.1013H76.0825C75.6371 76.1013 75.1762 76.2737 74.8146 76.5251C74.4857 76.7833 74.2842 77.1198 74.3343 77.4232C74.3343 77.4235 74.3344 77.4238 74.3344 77.424L76.2903 88.7571L76.291 88.7619C76.3853 89.422 77.0707 90.0238 77.9971 90.0238H102.806C103.717 90.0238 104.45 89.4452 104.51 88.7789L104.511 88.7751L105.979 74.4576L105.981 74.4457C106.059 74.0024 105.621 73.4114 104.884 73.4114H90.5324L90.5205 73.4105C90.062 73.3778 89.5891 73.5741 89.244 73.9535Z" fill="#333333"/>
<path d="M89.8925 61.1765H81.9487V68.6756H89.8925V61.1765Z" fill="white"/>
<path fill-rule="evenodd" clip-rule="evenodd" d="M81.6144 61.1766C81.6144 60.9921 81.764 60.8425 81.9485 60.8425H89.8922C90.0767 60.8425 90.2263 60.9921 90.2263 61.1766V68.6758C90.2263 68.8603 90.0767 69.0098 89.8922 69.0098H81.9485C81.764 69.0098 81.6144 68.8603 81.6144 68.6758V61.1766ZM82.2826 61.5107V68.3417H89.5581V61.5107H82.2826Z" fill="#333333"/>
<path fill-rule="evenodd" clip-rule="evenodd" d="M82.3154 68.3087L84.719 66.0264L86.0226 67.2898L88.0187 64.7629L89.5261 66.8415V68.3087H82.3154Z" fill="#FF6F3D"/>
<path fill-rule="evenodd" clip-rule="evenodd" d="M91.3916 63.6627C91.3916 63.4782 91.5412 63.3286 91.7257 63.3286H93.9662C94.1507 63.3286 94.3003 63.4782 94.3003 63.6627C94.3003 63.8472 94.1507 63.9968 93.9662 63.9968H91.7257C91.5412 63.9968 91.3916 63.8472 91.3916 63.6627Z" fill="#333333"/>
<path fill-rule="evenodd" clip-rule="evenodd" d="M81.5739 70.6317C81.5739 70.4472 81.7234 70.2976 81.9079 70.2976H96.7771C96.9616 70.2976 97.1112 70.4472 97.1112 70.6317C97.1112 70.8162 96.9616 70.9658 96.7771 70.9658H81.9079C81.7234 70.9658 81.5739 70.8162 81.5739 70.6317Z" fill="#333333"/>
<path fill-rule="evenodd" clip-rule="evenodd" d="M91.3916 65.7814C91.3916 65.5968 91.5412 65.4473 91.7257 65.4473H97.3881C97.5726 65.4473 97.7222 65.5968 97.7222 65.7814C97.7222 65.9659 97.5726 66.1155 97.3881 66.1155H91.7257C91.5412 66.1155 91.3916 65.9659 91.3916 65.7814Z" fill="#333333"/>
<path fill-rule="evenodd" clip-rule="evenodd" d="M81.4519 72.7108C81.4519 72.5263 81.6015 72.3767 81.786 72.3767H86.7559C86.9404 72.3767 87.09 72.5263 87.09 72.7108C87.09 72.8953 86.9404 73.0449 86.7559 73.0449H81.786C81.6015 73.0449 81.4519 72.8953 81.4519 72.7108Z" fill="#333333"/>
<path fill-rule="evenodd" clip-rule="evenodd" d="M86.3052 47.762C90.0962 47.2673 93.9287 47.5147 97.6374 48.5041L97.6383 48.5043C101.305 49.4935 104.766 51.1835 107.816 53.5335C110.866 55.843 113.421 58.7701 115.316 62.0676C117.254 65.3676 118.49 69.0375 118.984 72.8298C119.008 73.0128 118.879 73.1805 118.696 73.2043C118.513 73.2282 118.346 73.0992 118.322 72.9162C117.839 69.2099 116.631 65.6256 114.739 62.4048L114.738 62.4021C112.886 59.1797 110.39 56.3202 107.412 54.0655L107.409 54.0638C104.431 51.7682 101.049 50.1166 97.4647 49.1496C93.8407 48.1828 90.0963 47.9411 86.3917 48.4246C82.6871 48.908 79.1046 50.1164 75.8853 52.0086L75.8826 52.0102L75.8826 52.0102C72.6617 53.8631 69.8036 56.3603 67.5499 59.3397L67.5481 59.342L67.5481 59.342C65.2535 62.3224 63.6026 65.706 62.636 69.2919C62.588 69.4701 62.4046 69.5756 62.2265 69.5275C62.0483 69.4795 61.9428 69.2962 61.9908 69.118C62.9796 65.4498 64.6688 61.9868 67.0178 58.9355C69.3263 55.884 72.252 53.3281 75.5481 51.4318C78.8464 49.4933 82.5146 48.2566 86.3052 47.762Z" fill="#AAAAAA"/>
<path fill-rule="evenodd" clip-rule="evenodd" d="M118.734 72.7509L120.853 69.9795C121.056 69.7349 121.423 69.6534 121.708 69.8572C121.953 70.061 122.034 70.4278 121.83 70.6723L119.346 73.9328C119.223 74.0958 119.06 74.1773 118.897 74.1773C118.775 74.1773 118.612 74.1366 118.49 74.0551L115.231 71.569C114.987 71.3652 114.905 70.9984 115.109 70.7538C115.313 70.5093 115.679 70.4278 115.964 70.6316L118.734 72.7509Z" fill="#AAAAAA"/>
<path fill-rule="evenodd" clip-rule="evenodd" d="M62.3948 78.4977L65.4908 80.1279C65.776 80.291 66.1426 80.1687 66.3056 79.8834C66.4685 79.5981 66.3463 79.2313 66.0612 79.0683L62.4763 77.1527C62.3133 77.0712 62.1096 77.0712 61.9874 77.112C61.8652 77.1527 61.743 77.275 61.7022 77.3973L59.7876 80.9838C59.6246 81.2691 59.7468 81.6359 60.032 81.7989C60.3172 81.962 60.6838 81.8397 60.8468 81.5544L62.3948 78.4977Z" fill="#AAAAAA"/>
<path fill-rule="evenodd" clip-rule="evenodd" d="M65.9758 89.1393C64.0794 85.8806 62.8433 82.2112 62.3489 78.4599L63.0113 78.3726C63.4945 82.0385 64.7026 85.6234 66.5538 88.804L66.5547 88.8056C68.4068 92.0282 70.8622 94.8469 73.8401 97.1015L73.8419 97.1028C76.7801 99.3579 80.1623 101.01 83.7468 101.977C87.3296 102.943 91.0737 103.185 94.7374 102.702C98.4016 102.218 101.985 101.01 105.164 99.1577L105.165 99.1568C108.387 97.3038 111.204 94.8473 113.458 91.868L113.459 91.8662C115.713 88.9266 117.364 85.5428 118.331 81.9566L118.976 82.1305C117.987 85.7984 116.298 89.2614 113.99 92.272C111.681 95.3238 108.796 97.839 105.5 99.7353C102.242 101.633 98.5746 102.869 94.8248 103.364C91.0743 103.859 87.2413 103.612 83.5728 102.622C79.9064 101.633 76.445 99.9428 73.4358 97.6335C70.3853 95.3237 67.8712 92.437 65.9758 89.1393Z" fill="#AAAAAA"/>
<path opacity="0.6" fill-rule="evenodd" clip-rule="evenodd" d="M131.576 69.034C132.289 74.4998 131.932 80.0255 130.506 85.3726L130.505 85.3735C129.079 90.6604 126.642 95.6512 123.254 100.048C119.925 104.446 115.704 108.129 110.95 110.862C106.193 113.655 100.902 115.437 95.4338 116.15C95.2508 116.174 95.0831 116.045 95.0593 115.862C95.0354 115.679 95.1644 115.511 95.3474 115.488C100.729 114.786 105.935 113.032 110.613 110.285L110.615 110.283C115.295 107.594 119.447 103.969 122.722 99.6437L122.724 99.6415C126.058 95.3154 128.456 90.4042 129.86 85.1999C131.264 79.9375 131.615 74.4999 130.913 69.1205C130.211 63.741 128.456 58.5381 125.708 53.8625L125.706 53.8598L125.706 53.8598C123.016 49.1824 119.389 45.0317 115.062 41.7585L115.06 41.7568C110.731 38.4244 105.818 36.027 100.611 34.6236C100.433 34.5755 100.327 34.3922 100.375 34.214C100.423 34.0359 100.607 33.9304 100.785 33.9784C106.074 35.404 111.067 37.8398 115.466 41.2265C119.866 44.5544 123.551 48.7727 126.285 53.5252C129.079 58.28 130.862 63.5685 131.576 69.034Z" fill="#CCCCCC"/>
<path opacity="0.6" fill-rule="evenodd" clip-rule="evenodd" d="M85.9163 34.4192L83.5575 38.8989C83.3216 39.3115 83.4985 39.842 83.9113 40.0778C84.3241 40.3135 84.8548 40.1367 85.0907 39.7241L87.8623 34.5371C87.9802 34.3013 87.9802 34.0066 87.9212 33.8298C87.8623 33.653 87.6853 33.4761 87.5084 33.4172L82.3191 30.6469C81.9063 30.4111 81.3756 30.5879 81.1397 31.0005C80.9038 31.4131 81.0807 31.9436 81.4935 32.1794L85.9163 34.4192Z" fill="#CCCCCC"/>
<path opacity="0.6" fill-rule="evenodd" clip-rule="evenodd" d="M69.9253 39.73C74.6229 36.9961 79.9133 35.2139 85.3221 34.501L85.4094 35.1634C80.086 35.8651 74.8801 37.6194 70.2606 40.3079L70.259 40.3089C65.5793 42.9985 61.4856 46.5644 58.2111 50.8895L58.2098 50.8912C54.9347 55.1585 52.5361 60.0699 51.1319 65.2747C49.7282 70.4778 49.3772 75.915 50.0791 81.2354C50.7811 86.5563 52.5361 91.7597 55.2259 96.377L55.2268 96.3786C57.9177 101.056 61.4852 105.148 65.8124 108.421L65.8141 108.422C70.0833 111.696 74.9971 114.093 80.2044 115.497L80.0305 116.142C74.7416 114.716 69.7488 112.281 65.4087 108.953C61.0088 105.625 57.3825 101.465 54.6483 96.7129C51.913 92.0174 50.1299 86.7293 49.4167 81.3228C48.7033 75.9156 49.06 70.3894 50.4868 65.1007C51.9131 59.814 54.3498 54.8234 57.6791 50.4852C61.0089 46.0874 65.1705 42.4628 69.9253 39.73Z" fill="#CCCCCC"/>
</g>
<defs>
<linearGradient id="paint0_linear" x1="151.856" y1="10.0186" x2="164.45" y2="23.8835" gradientUnits="userSpaceOnUse">
<stop stop-color="#FFC671"/>
<stop offset="1" stop-color="#FF6F3D"/>
</linearGradient>
<linearGradient id="paint1_linear" x1="21.9241" y1="29.5578" x2="25.0577" y2="33.0078" gradientUnits="userSpaceOnUse">
<stop stop-color="#FFC671"/>
<stop offset="1" stop-color="#FF6F3D"/>
</linearGradient>
<linearGradient id="paint2_linear" x1="28.4584" y1="30.9596" x2="29.8741" y2="32.5183" gradientUnits="userSpaceOnUse">
<stop stop-color="#FFC671"/>
<stop offset="1" stop-color="#FF6F3D"/>
</linearGradient>
<linearGradient id="paint3_linear" x1="21.7607" y1="36.5599" x2="30.1786" y2="45.8276" gradientUnits="userSpaceOnUse">
<stop stop-color="#FFC671"/>
<stop offset="1" stop-color="#FF6F3D"/>
</linearGradient>
<linearGradient id="paint4_linear" x1="25.076" y1="32.8884" x2="27.9213" y2="36.0209" gradientUnits="userSpaceOnUse">
<stop stop-color="#FFC671"/>
<stop offset="1" stop-color="#FF6F3D"/>
</linearGradient>
<linearGradient id="paint5_linear" x1="97.6466" y1="56.2771" x2="97.7676" y2="62.7998" gradientUnits="userSpaceOnUse">
<stop stop-color="#FFC671"/>
<stop offset="1" stop-color="#FF6F3D"/>
</linearGradient>
<linearGradient id="paint6_linear" x1="89.9518" y1="63.1861" x2="90.4081" y2="87.7898" gradientUnits="userSpaceOnUse">
<stop stop-color="#FFC671"/>
<stop offset="1" stop-color="#FF6F3D"/>
</linearGradient>
<clipPath id="clip0">
<rect width="180" height="88" fill="white" transform="translate(0.495972 0.5625)"/>
</clipPath>
</defs>
</svg>
