<svg xmlns="http://www.w3.org/2000/svg" width="25" height="960" viewBox="0 0 25 960" fill="none">
<g clip-path="url(#clip0_1_474)">
<path fill-rule="evenodd" clip-rule="evenodd" d="M23 21C23 21.5523 22.5523 22 22 22H9C8.44772 22 8 21.5523 8 21V3C8 2.44772 8.44772 2 9 2H17.0872C17.3516 2 17.6052 2.10471 17.7926 2.29122L22.7054 7.18087C22.894 7.36854 23 7.62361 23 7.88965V21Z" fill="white"/>
<path fill-rule="evenodd" clip-rule="evenodd" d="M9 21H22V7.88965L17.0872 3H9L9 21ZM22 22C22.5523 22 23 21.5523 23 21V7.88965C23 7.62361 22.894 7.36854 22.7054 7.18087L17.7926 2.29122C17.6052 2.10471 17.3516 2 17.0872 2H9C8.44772 2 8 2.44772 8 3V21C8 21.5523 8.44772 22 9 22H22Z" fill="#333333"/>
<path fill-rule="evenodd" clip-rule="evenodd" d="M5.5 3C5.22386 3 5 3.22386 5 3.5V20.5C5 20.7761 5.22386 21 5.5 21H7C7.27614 21 7.5 21.2239 7.5 21.5C7.5 21.7761 7.27614 22 7 22H5.5C4.67157 22 4 21.3284 4 20.5V3.5C4 2.67157 4.67157 2 5.5 2H7C7.27614 2 7.5 2.22386 7.5 2.5C7.5 2.77614 7.27614 3 7 3H5.5Z" fill="#FF6F3D"/>
<path fill-rule="evenodd" clip-rule="evenodd" d="M1.5 3C1.22386 3 1 3.22386 1 3.5V20.5C1 20.7761 1.22386 21 1.5 21H3C3.27614 21 3.5 21.2239 3.5 21.5C3.5 21.7761 3.27614 22 3 22H1.5C0.671573 22 0 21.3284 0 20.5V3.5C0 2.67157 0.671573 2 1.5 2H3C3.27614 2 3.5 2.22386 3.5 2.5C3.5 2.77614 3.27614 3 3 3H1.5Z" fill="#FF6F3D"/>
<path fill-rule="evenodd" clip-rule="evenodd" d="M16.5 4C16.7761 4 17 4.22386 17 4.5V8H20.5C20.7761 8 21 8.22386 21 8.5C21 8.77614 20.7761 9 20.5 9H16.5C16.2239 9 16 8.77614 16 8.5V4.5C16 4.22386 16.2239 4 16.5 4Z" fill="#FF6F3D"/>
<path fill-rule="evenodd" clip-rule="evenodd" d="M12 11.5C12 11.2239 12.2239 11 12.5 11H18.5C18.7761 11 19 11.2239 19 11.5C19 11.7761 18.7761 12 18.5 12H12.5C12.2239 12 12 11.7761 12 11.5Z" fill="#333333"/>
<path fill-rule="evenodd" clip-rule="evenodd" d="M12 14.5C12 14.2239 12.2239 14 12.5 14H18.5C18.7761 14 19 14.2239 19 14.5C19 14.7761 18.7761 15 18.5 15H12.5C12.2239 15 12 14.7761 12 14.5Z" fill="#333333"/>
<path fill-rule="evenodd" clip-rule="evenodd" d="M12 17.5C12 17.2239 12.2239 17 12.5 17H18.5C18.7761 17 19 17.2239 19 17.5C19 17.7761 18.7761 18 18.5 18H12.5C12.2239 18 12 17.7761 12 17.5Z" fill="#333333"/>
</g>
<path fill-rule="evenodd" clip-rule="evenodd" d="M11.5 47C16.1944 47 20 43.1944 20 38.5C20 33.8056 16.1944 30 11.5 30C6.80558 30 3 33.8056 3 38.5C3 43.1944 6.80558 47 11.5 47ZM21 38.5C21 43.7467 16.7467 48 11.5 48C6.25329 48 2 43.7467 2 38.5C2 33.2533 6.25329 29 11.5 29C16.7467 29 21 33.2533 21 38.5Z" fill="#333333"/>
<path d="M14 29.5C14 30.8807 12.8807 32 11.5 32C10.1193 32 9 30.8807 9 29.5C9 28.1193 10.1193 27 11.5 27C12.8807 27 14 28.1193 14 29.5Z" fill="white"/>
<path fill-rule="evenodd" clip-rule="evenodd" d="M15 29.5C15 31.433 13.433 33 11.5 33C9.567 33 8 31.433 8 29.5C8 27.567 9.567 26 11.5 26C13.433 26 15 27.567 15 29.5ZM11.5 32C12.8807 32 14 30.8807 14 29.5C14 28.1193 12.8807 27 11.5 27C10.1193 27 9 28.1193 9 29.5C9 30.8807 10.1193 32 11.5 32Z" fill="#333333"/>
<path d="M8 45.5C8 46.8807 6.88071 48 5.5 48C4.11929 48 3 46.8807 3 45.5C3 44.1193 4.11929 43 5.5 43C6.88071 43 8 44.1193 8 45.5Z" fill="white"/>
<path fill-rule="evenodd" clip-rule="evenodd" d="M9 45.5C9 47.433 7.433 49 5.5 49C3.567 49 2 47.433 2 45.5C2 43.567 3.567 42 5.5 42C7.433 42 9 43.567 9 45.5ZM5.5 48C6.88071 48 8 46.8807 8 45.5C8 44.1193 6.88071 43 5.5 43C4.11929 43 3 44.1193 3 45.5C3 46.8807 4.11929 48 5.5 48Z" fill="#333333"/>
<path d="M20 45.5C20 46.8807 18.8807 48 17.5 48C16.1193 48 15 46.8807 15 45.5C15 44.1193 16.1193 43 17.5 43C18.8807 43 20 44.1193 20 45.5Z" fill="white"/>
<path fill-rule="evenodd" clip-rule="evenodd" d="M21 45.5C21 47.433 19.433 49 17.5 49C15.567 49 14 47.433 14 45.5C14 43.567 15.567 42 17.5 42C19.433 42 21 43.567 21 45.5ZM17.5 48C18.8807 48 20 46.8807 20 45.5C20 44.1193 18.8807 43 17.5 43C16.1193 43 15 44.1193 15 45.5C15 46.8807 16.1193 48 17.5 48Z" fill="#333333"/>
<path d="M22 35.5C22 36.8807 20.8807 38 19.5 38C18.1193 38 17 36.8807 17 35.5C17 34.1193 18.1193 33 19.5 33C20.8807 33 22 34.1193 22 35.5Z" fill="white"/>
<path fill-rule="evenodd" clip-rule="evenodd" d="M23 35.5C23 37.433 21.433 39 19.5 39C17.567 39 16 37.433 16 35.5C16 33.567 17.567 32 19.5 32C21.433 32 23 33.567 23 35.5ZM19.5 38C20.8807 38 22 36.8807 22 35.5C22 34.1193 20.8807 33 19.5 33C18.1193 33 17 34.1193 17 35.5C17 36.8807 18.1193 38 19.5 38Z" fill="#333333"/>
<path d="M6 35.5C6 36.8807 4.88071 38 3.5 38C2.11929 38 1 36.8807 1 35.5C1 34.1193 2.11929 33 3.5 33C4.88071 33 6 34.1193 6 35.5Z" fill="white"/>
<path fill-rule="evenodd" clip-rule="evenodd" d="M7 35.5C7 37.433 5.433 39 3.5 39C1.567 39 0 37.433 0 35.5C0 33.567 1.567 32 3.5 32C5.433 32 7 33.567 7 35.5ZM3.5 38C4.88071 38 6 36.8807 6 35.5C6 34.1193 4.88071 33 3.5 33C2.11929 33 1 34.1193 1 35.5C1 36.8807 2.11929 38 3.5 38Z" fill="#333333"/>
<rect x="5" y="72" width="14" height="1" rx="0.5" fill="#333333"/>
<rect x="8" y="73" width="3" height="1" rx="0.5" transform="rotate(-90 8 73)" fill="#333333"/>
<rect x="15" y="73" width="3" height="1" rx="0.5" transform="rotate(-90 15 73)" fill="#333333"/>
<path fill-rule="evenodd" clip-rule="evenodd" d="M21 56H3C2.44772 56 2 56.4477 2 57V67C2 67.5523 2.44772 68 3 68H21C21.5523 68 22 67.5523 22 67V57C22 56.4477 21.5523 56 21 56ZM3 55C1.89543 55 1 55.8954 1 57V67C1 68.1046 1.89543 69 3 69H21C22.1046 69 23 68.1046 23 67V57C23 55.8954 22.1046 55 21 55H3Z" fill="#FF6F3D"/>
<g clip-path="url(#clip1_1_474)">
<path fill-rule="evenodd" clip-rule="evenodd" d="M4.22183 98.4853C4.02656 98.6805 3.70998 98.6805 3.51472 98.4853C-1.17157 93.799 -1.17157 86.201 3.51472 81.5147C8.20101 76.8284 15.799 76.8284 20.4853 81.5147C25.1716 86.201 25.1716 93.799 20.4853 98.4853C18.3123 100.658 15.512 101.824 12.6676 101.982C11.2133 102.062 9.74695 101.879 8.34597 101.433C7.50226 101.164 6.6823 100.799 5.90312 100.339C5.66535 100.199 5.58644 99.892 5.72687 99.6542C5.8673 99.4164 6.17389 99.3375 6.41166 99.478C7.12537 99.8995 7.87652 100.233 8.64966 100.48C9.93364 100.889 11.2783 101.057 12.6123 100.983C15.2205 100.839 17.7858 99.7705 19.7782 97.7782C24.0739 93.4824 24.0739 86.5176 19.7782 82.2218C15.4824 77.9261 8.51759 77.9261 4.22182 82.2218C-0.0739422 86.5176 -0.0739412 93.4824 4.22183 97.7782C4.41709 97.9734 4.41709 98.29 4.22183 98.4853Z" fill="#333333"/>
<path d="M14.8522 90.3848C14.8582 89.9252 14.9834 89.4744 15.2159 89.0746C15.4485 88.6748 15.7809 88.3389 16.1823 88.0981C15.9273 87.7428 15.5909 87.4504 15.1999 87.2441C14.8088 87.0378 14.3739 86.9234 13.9295 86.9098C12.9817 86.8127 12.0628 87.4632 11.5798 87.4632C11.0875 87.4632 10.3438 86.9194 9.543 86.9355C9.02503 86.9519 8.52022 87.0988 8.07776 87.3621C7.63531 87.6254 7.2703 87.996 7.01829 88.4379C5.92666 90.282 6.74092 92.9922 7.78661 94.4828C8.30979 95.2128 8.92124 96.0281 9.72132 95.9992C10.5042 95.9675 10.7966 95.5121 11.7417 95.5121C12.678 95.5121 12.9523 95.9992 13.7686 95.9808C14.6087 95.9675 15.138 95.2476 15.6428 94.5108C16.0188 93.9907 16.308 93.4159 16.4999 92.8076C16.0118 92.6062 15.5953 92.2691 15.3023 91.8382C15.0093 91.4074 14.8527 90.9019 14.8522 90.3848V90.3848Z" fill="#FF6F3D"/>
<path d="M14.2825 85.7111C14.978 84.9544 15.3207 83.9819 15.2377 82.9999C14.1751 83.1011 13.1935 83.5613 12.4885 84.289C12.1439 84.6444 11.8799 85.058 11.7117 85.506C11.5435 85.9539 11.4744 86.4276 11.5083 86.8998C12.0398 86.9047 12.5656 86.8003 13.0462 86.5944C13.5267 86.3885 13.9494 86.0865 14.2825 85.7111Z" fill="#FF6F3D"/>
</g>
<g clip-path="url(#clip2_1_474)">
<path fill-rule="evenodd" clip-rule="evenodd" d="M20.4853 123.778C20.6805 123.973 20.6805 124.29 20.4853 124.485C15.799 129.172 8.20101 129.172 3.51472 124.485C-1.17157 119.799 -1.17157 112.201 3.51472 107.515C8.20101 102.828 15.799 102.828 20.4853 107.515C22.6583 109.688 23.824 112.488 23.9815 115.332C24.0621 116.787 23.8792 118.253 23.4327 119.654C23.1637 120.498 22.7992 121.318 22.339 122.097C22.1986 122.335 21.892 122.414 21.6542 122.273C21.4164 122.133 21.3375 121.826 21.478 121.588C21.8995 120.875 22.2335 120.123 22.4799 119.35C22.8891 118.066 23.057 116.722 22.9831 115.388C22.8386 112.779 21.7705 110.214 19.7782 108.222C15.4824 103.926 8.51759 103.926 4.22183 108.222C-0.0739422 112.518 -0.0739422 119.482 4.22183 123.778C8.51759 128.074 15.4824 128.074 19.7782 123.778C19.9734 123.583 20.29 123.583 20.4853 123.778Z" fill="#333333"/>
<path d="M6.75 112C6.60067 112 6.45132 112.056 6.33757 112.167C6.11007 112.39 6.11007 112.753 6.33757 112.975L7.86654 114.473C6.13063 115.721 5 117.729 5 120H19C19 117.729 17.8694 115.721 16.1335 114.473L17.6624 112.975C17.8899 112.751 17.8899 112.391 17.6624 112.167C17.4349 111.945 17.0651 111.945 16.8376 112.167L15.1081 113.862C14.1707 113.405 13.1179 113.143 12 113.143C10.8821 113.143 9.82928 113.405 8.89193 113.862L7.16244 112.167C7.04869 112.056 6.89933 112 6.75 112ZM9 117H10V118H9V117ZM14 117H15V118H14V117Z" fill="#FF6F3D"/>
</g>
<g clip-path="url(#clip3_1_474)">
<path fill-rule="evenodd" clip-rule="evenodd" d="M5.81889 132.293C5.68082 132.054 5.76276 131.748 6.0019 131.61C11.7414 128.296 19.0805 130.262 22.3942 136.002C25.7079 141.742 23.7414 149.081 18.0019 152.394C12.2624 155.708 4.92331 153.742 1.6096 148.002C0.0730498 145.341 -0.328139 142.334 0.255843 139.546C0.554427 138.12 1.1106 136.751 1.90454 135.513C2.38267 134.768 2.94702 134.07 3.59319 133.437C3.79037 133.244 4.10694 133.247 4.30026 133.444C4.49358 133.641 4.49046 133.958 4.29327 134.151C3.70139 134.731 3.18438 135.37 2.74624 136.053C2.01861 137.188 1.50849 138.443 1.23461 139.751C0.699114 142.308 1.06681 145.062 2.47562 147.502C5.51319 152.763 12.2407 154.566 17.5019 151.528C22.7631 148.491 24.5657 141.763 21.5282 136.502C18.4906 131.241 11.7631 129.438 6.5019 132.476C6.26276 132.614 5.95696 132.532 5.81889 132.293Z" fill="#333333"/>
<circle cx="8.00168" cy="142.05" r="1" fill="#FF6F3D"/>
<circle cx="12.0017" cy="142.05" r="1" fill="#FF6F3D"/>
<circle cx="16.0017" cy="142.05" r="1" fill="#FF6F3D"/>
</g>
<g clip-path="url(#clip4_1_474)">
<path fill-rule="evenodd" clip-rule="evenodd" d="M2.5 159.004C1.68677 159.004 1 159.708 1 160.552V170.552C1 171.365 1.6556 172.004 2.5 172.004H13.5C13.7761 172.004 14 172.228 14 172.504C14 172.78 13.7761 173.004 13.5 173.004H2.5C1.13526 173.004 0 171.948 0 170.552V160.552C0 159.187 1.10409 158.004 2.5 158.004H20.5C21.1176 158.004 21.754 158.143 22.241 158.563C22.7417 158.995 23 159.652 23 160.504C23 160.78 22.7761 161.004 22.5 161.004C22.2239 161.004 22 160.78 22 160.504C22 159.856 21.8106 159.513 21.5874 159.32C21.3506 159.115 20.987 159.004 20.5 159.004H2.5Z" fill="#333333"/>
<path fill-rule="evenodd" clip-rule="evenodd" d="M4 176.504C4 176.228 4.1599 176.004 4.35714 176.004H13.6429C13.8401 176.004 14 176.228 14 176.504C14 176.78 13.8401 177.004 13.6429 177.004H4.35714C4.1599 177.004 4 176.78 4 176.504Z" fill="#333333"/>
<path fill-rule="evenodd" clip-rule="evenodd" d="M8.5 176.956C8.22386 176.956 8 176.732 8 176.456L8 172.956L9 172.956L9 176.456C9 176.732 8.77614 176.956 8.5 176.956Z" fill="#333333"/>
<path d="M15 164.004C15 162.899 15.8954 162.004 17 162.004H22C23.1046 162.004 24 162.899 24 164.004V175.004C24 176.109 23.1046 177.004 22 177.004H17C15.8954 177.004 15 176.109 15 175.004V164.004Z" fill="white"/>
<path fill-rule="evenodd" clip-rule="evenodd" d="M22 163.004H17C16.4477 163.004 16 163.452 16 164.004V175.004C16 175.556 16.4477 176.004 17 176.004H22C22.5523 176.004 23 175.556 23 175.004V164.004C23 163.452 22.5523 163.004 22 163.004ZM17 162.004C15.8954 162.004 15 162.899 15 164.004V175.004C15 176.109 15.8954 177.004 17 177.004H22C23.1046 177.004 24 176.109 24 175.004V164.004C24 162.899 23.1046 162.004 22 162.004H17Z" fill="#FF6F3D"/>
<path fill-rule="evenodd" clip-rule="evenodd" d="M18 174.504C18 174.228 18.2929 174.004 18.5 174.004H20.5C20.7071 174.004 21 174.228 21 174.504C21 174.78 20.7071 175.004 20.5 175.004H18.5C18.2929 175.004 18 174.78 18 174.504Z" fill="#FF6F3D"/>
</g>
<g clip-path="url(#clip5_1_474)">
<path fill-rule="evenodd" clip-rule="evenodd" d="M21.7113 187.823C21.9504 187.685 22.2562 187.767 22.3943 188.006C25.708 193.745 23.7415 201.084 18.002 204.398C12.2625 207.712 4.9234 205.745 1.60969 200.006C-1.70402 194.266 0.262486 186.927 6.002 183.614C8.66338 182.077 11.6699 181.676 14.4582 182.26C15.8837 182.558 17.2528 183.115 18.4905 183.909C19.2359 184.387 19.9335 184.951 20.5671 185.597C20.7604 185.794 20.7572 186.111 20.5601 186.304C20.3629 186.498 20.0463 186.494 19.853 186.297C19.2727 185.705 18.6336 185.188 17.9506 184.75C16.8163 184.023 15.5608 183.512 14.2532 183.239C11.6964 182.703 8.94213 183.071 6.502 184.48C1.24078 187.517 -0.56185 194.245 2.47571 199.506C5.51328 204.767 12.2408 206.57 17.502 203.532C22.7632 200.495 24.5658 193.767 21.5283 188.506C21.3902 188.267 21.4721 187.961 21.7113 187.823Z" fill="#333333"/>
<path d="M16.4763 197.633C16.8009 197.306 16.9631 196.929 16.9631 196.503C16.9631 196.077 16.8079 195.707 16.4975 195.395C16.1871 195.068 15.8203 194.905 15.397 194.905C14.9455 194.905 14.5645 195.061 14.2541 195.374C13.9578 195.686 13.8097 196.063 13.8097 196.503C13.8097 196.929 13.9649 197.306 14.2753 197.633C14.5857 197.945 14.9596 198.102 15.397 198.102C15.8061 198.102 16.1659 197.945 16.4763 197.633ZM10.1906 191.388C10.1906 190.947 10.0354 190.571 9.72502 190.258C9.41461 189.945 9.05483 189.789 8.64566 189.789C8.19416 189.789 7.8132 189.945 7.5028 190.258C7.2065 190.571 7.05835 190.947 7.05835 191.388C7.05835 191.814 7.21356 192.191 7.52396 192.517C7.83437 192.83 8.20827 192.986 8.64566 192.986C9.05483 192.986 9.41461 192.83 9.72502 192.517C10.0354 192.191 10.1906 191.814 10.1906 191.388ZM18.0002 196.503C18.0002 197.185 17.7391 197.796 17.2171 198.336C16.695 198.876 16.0883 199.146 15.397 199.146C14.6915 199.146 14.0778 198.883 13.5557 198.358C13.0337 197.818 12.7726 197.199 12.7726 196.503C12.7726 195.778 13.0337 195.153 13.5557 194.627C14.0778 194.102 14.6915 193.839 15.397 193.839C16.1024 193.839 16.7091 194.102 17.2171 194.627C17.7391 195.153 18.0002 195.778 18.0002 196.503ZM11.2488 191.388C11.2488 192.07 10.9878 192.681 10.4658 193.221C9.94372 193.761 9.33701 194.031 8.64566 194.031C7.94019 194.031 7.31938 193.768 6.78322 193.242C6.26118 192.702 6.00015 192.084 6.00015 191.388C6.00015 190.663 6.26118 190.038 6.78322 189.512C7.30527 188.986 7.92608 188.723 8.64566 188.723C9.35112 188.723 9.95782 188.986 10.4658 189.512C10.9878 190.038 11.2488 190.663 11.2488 191.388ZM15.967 188.312C16.2044 188.494 16.2562 188.831 16.0843 189.076L8.79622 199.47C8.61329 199.731 8.24557 199.777 8.00307 199.571V199.571C7.7913 199.39 7.75112 199.079 7.9102 198.85L15.1683 188.436C15.3505 188.175 15.7141 188.118 15.967 188.312V188.312Z" fill="#FF6F3D"/>
</g>
<g clip-path="url(#clip6_1_474)">
<path fill-rule="evenodd" clip-rule="evenodd" d="M7.74262 221.799C7.5123 221.659 7.42179 221.386 7.53846 221.181L8.59848 219.333C8.7198 219.121 9.0177 219.064 9.2572 219.209C9.48752 219.349 9.57802 219.622 9.46136 219.827L8.40133 221.675C8.28002 221.887 7.98212 221.943 7.74262 221.799Z" fill="#333333"/>
<path fill-rule="evenodd" clip-rule="evenodd" d="M16.3176 221.799C16.5479 221.659 16.6384 221.386 16.5217 221.181L15.4617 219.333C15.3404 219.121 15.0425 219.064 14.803 219.209C14.5727 219.349 14.4822 219.622 14.5988 219.827L15.6588 221.675C15.7802 221.887 16.0781 221.943 16.3176 221.799Z" fill="#333333"/>
<path fill-rule="evenodd" clip-rule="evenodd" d="M12 218.004C13.6569 218.004 15 216.661 15 215.004C15 213.347 13.6569 212.004 12 212.004C10.3431 212.004 9 213.347 9 215.004C9 216.661 10.3431 218.004 12 218.004ZM12 219.004C14.2091 219.004 16 217.213 16 215.004C16 212.795 14.2091 211.004 12 211.004C9.79086 211.004 8 212.795 8 215.004C8 217.213 9.79086 219.004 12 219.004Z" fill="#333333"/>
<path fill-rule="evenodd" clip-rule="evenodd" d="M8 226.008C8 227.665 6.65685 229.008 5 229.008C3.34315 229.008 2 227.665 2 226.008C2 224.351 3.34315 223.008 5 223.008C6.65685 223.008 8 224.351 8 226.008ZM9 226.008C9 228.217 7.20914 230.008 5 230.008C2.79086 230.008 1 228.217 1 226.008C1 223.799 2.79086 222.008 5 222.008C7.20914 222.008 9 223.799 9 226.008ZM22 226.008C22 227.665 20.6569 229.008 19 229.008C17.3431 229.008 16 227.665 16 226.008C16 224.351 17.3431 223.008 19 223.008C20.6569 223.008 22 224.351 22 226.008ZM23 226.008C23 228.217 21.2091 230.008 19 230.008C16.7909 230.008 15 228.217 15 226.008C15 223.799 16.7909 222.008 19 222.008C21.2091 222.008 23 223.799 23 226.008Z" fill="#333333"/>
</g>
<g clip-path="url(#clip7_1_474)">
<path fill-rule="evenodd" clip-rule="evenodd" d="M11.9197 243.847C13.5323 243.847 14.8395 242.54 14.8395 240.928C14.8395 239.315 13.5323 238.008 11.9197 238.008C10.3072 238.008 9 239.315 9 240.928C9 242.54 10.3072 243.847 11.9197 243.847ZM11.9197 244.847C14.0846 244.847 15.8395 243.092 15.8395 240.928C15.8395 238.763 14.0846 237.008 11.9197 237.008C9.75493 237.008 8 238.763 8 240.928C8 243.092 9.75493 244.847 11.9197 244.847Z" fill="#333333"/>
<path fill-rule="evenodd" clip-rule="evenodd" d="M19.4346 252.41C19.9152 252.072 20 251.816 20 251.656C20 250.897 19.3546 249.748 17.8672 248.724C16.4334 247.736 14.3979 247.008 12.0678 247.008C9.75295 247.008 7.68625 247.784 6.212 248.83C4.67848 249.918 4 251.126 4 251.885C4 252.026 4.07118 252.265 4.55903 252.585C5.04577 252.904 5.78246 253.183 6.69095 253.407C8.49357 253.852 10.6744 254.008 12.0678 254.008C13.4398 254.008 15.5789 253.799 17.3452 253.301C18.2338 253.051 18.9561 252.747 19.4346 252.41ZM12.0678 255.008C14.9542 255.008 21 254.141 21 251.656C21 249.171 17.1356 246.008 12.0678 246.008C7 246.008 3 249.399 3 251.885C3 254.37 9.18138 255.008 12.0678 255.008Z" fill="#FF6F3D"/>
</g>
<g clip-path="url(#clip8_1_474)">
<path fill-rule="evenodd" clip-rule="evenodd" d="M13.6603 271.348L10.1563 274.852C9.96864 275.039 9.65823 275.033 9.46297 274.838C9.2677 274.643 9.26152 274.332 9.44916 274.145L12.9532 270.641C13.1409 270.453 13.4513 270.459 13.6465 270.654C13.8418 270.85 13.848 271.16 13.6603 271.348Z" fill="#FF6F3D"/>
<path fill-rule="evenodd" clip-rule="evenodd" d="M19.7071 264.301C19.9799 264.574 20.0714 264.979 19.9424 265.342L14.2628 281.342C14.1276 281.723 13.7762 281.986 13.3724 282.007C12.9686 282.028 12.5919 281.803 12.4178 281.438L9.27292 274.844L2.56337 271.587C2.20074 271.411 1.97923 271.035 2.00154 270.632C2.02385 270.23 2.28562 269.88 2.66549 269.745L18.6655 264.066C19.029 263.936 19.4343 264.028 19.7071 264.301ZM10.0247 274.097L13.3205 281.008L19 265.008L3.00001 270.687L10.0247 274.097Z" fill="#333333"/>
</g>
<g clip-path="url(#clip9_1_474)">
<path fill-rule="evenodd" clip-rule="evenodd" d="M4.38661 297.411C4.49519 297.665 4.37739 297.958 4.12349 298.067L2.7104 298.671C2.6564 298.693 2.61358 298.713 2.58017 298.732C2.61619 298.755 2.66334 298.78 2.72407 298.807L10.959 302.323C11.209 302.437 11.5816 302.508 11.9886 302.508C12.3943 302.508 12.7786 302.438 13.0486 302.32L13.0527 302.318L21.2896 298.801C21.3436 298.78 21.3864 298.759 21.4198 298.74C21.3838 298.718 21.3366 298.692 21.2759 298.665C21.2753 298.665 21.2746 298.665 21.274 298.665L19.8765 298.067C19.6226 297.958 19.5048 297.665 19.6134 297.411C19.722 297.157 20.0158 297.039 20.2697 297.147L21.6749 297.748C22.0565 297.915 22.5 298.232 22.5 298.747C22.5 299.268 22.0486 299.574 21.6655 299.728L13.4495 303.236C13.4488 303.236 13.448 303.237 13.4473 303.237C13.017 303.425 12.4883 303.508 11.9886 303.508C11.4917 303.508 10.9683 303.426 10.5491 303.235L2.32506 299.724C1.94346 299.557 1.5 299.24 1.5 298.726C1.5 298.204 1.95124 297.898 2.33439 297.744L3.73028 297.147C3.98418 297.039 4.27803 297.157 4.38661 297.411Z" fill="#333333"/>
<path fill-rule="evenodd" clip-rule="evenodd" d="M4.38661 302.111C4.49519 302.365 4.37739 302.659 4.12349 302.767L2.7104 303.372C2.6564 303.393 2.61358 303.414 2.58017 303.432C2.61619 303.455 2.66334 303.481 2.72407 303.507L10.959 307.023C11.209 307.138 11.5816 307.208 11.9886 307.208C12.3943 307.208 12.7786 307.138 13.0486 307.02L13.0527 307.018L21.2896 303.501C21.3436 303.48 21.3864 303.459 21.4198 303.44C21.3838 303.418 21.3366 303.392 21.2759 303.366C21.2753 303.365 21.2746 303.365 21.274 303.365L19.8765 302.767C19.6226 302.659 19.5048 302.365 19.6134 302.111C19.722 301.857 20.0158 301.739 20.2697 301.848L21.6749 302.449C22.0565 302.616 22.5 302.932 22.5 303.447C22.5 303.968 22.0486 304.274 21.6655 304.428L13.4495 307.936C13.4488 307.937 13.448 307.937 13.4473 307.937C13.017 308.125 12.4883 308.208 11.9886 308.208C11.4917 308.208 10.9683 308.126 10.5491 307.936L2.32506 304.424C1.94346 304.257 1.5 303.94 1.5 303.426C1.5 302.905 1.95124 302.599 2.33439 302.445L3.73028 301.848C3.98418 301.739 4.27803 301.857 4.38661 302.111Z" fill="#333333"/>
<path fill-rule="evenodd" clip-rule="evenodd" d="M10.3399 298.699L2.10601 294.986C1.66868 294.784 1 294.327 1 293.508C1 292.679 1.67893 292.234 2.12474 292.043L10.3361 288.341C10.8517 288.104 11.459 288.008 12.0114 288.008C12.5583 288.008 13.1625 288.102 13.6708 288.344L21.894 292.052C22.3313 292.254 23 292.711 23 293.53C23 294.359 22.3211 294.804 21.8753 294.994L13.6483 298.704L13.6364 298.709C13.1295 298.922 12.5323 299.008 11.9886 299.008C11.4473 299.008 10.8498 298.923 10.3488 298.703L10.3399 298.699ZM13.249 289.251C12.5788 288.927 11.4516 288.927 10.751 289.251L2.52551 292.96C1.82483 293.254 1.82483 293.754 2.52551 294.078L10.751 297.787C11.4212 298.081 12.5484 298.081 13.249 297.787L21.4745 294.078C22.1752 293.784 22.1752 293.283 21.4745 292.96L13.249 289.251Z" fill="#333333"/>
</g>
<g clip-path="url(#clip10_1_474)">
<rect x="2" y="324.008" width="16" height="1" rx="0.5" fill="#333333"/>
<rect x="2" y="318.008" width="16" height="1" rx="0.5" fill="#333333"/>
<rect x="2" y="327.008" width="11" height="1" rx="0.5" fill="#FF6F3D"/>
<rect x="2" y="321.008" width="11" height="1" rx="0.5" fill="#FF6F3D"/>
<rect x="2" y="330" width="16" height="1" rx="0.5" fill="#333333"/>
</g>
<g clip-path="url(#clip11_1_474)">
<rect x="9.0166" y="357.008" width="5" height="1" fill="#333333"/>
<path fill-rule="evenodd" clip-rule="evenodd" d="M5 347.746C5 343.765 7.91822 341.008 11.5 341.008C15.0818 341.008 18 343.765 18 347.746C18 350.836 15.9803 352.477 15.1199 353.036C14.777 353.259 14.4694 353.589 14.2897 354.008H15.4925C15.5459 353.959 15.6037 353.914 15.6649 353.874C16.6408 353.24 19 351.335 19 347.746C19 343.221 15.6421 340.008 11.5 340.008C7.35786 340.008 4 343.221 4 347.746C4 350.158 5.21208 352.68 7.31476 353.893C7.3738 353.927 7.42988 353.965 7.48213 354.008H8.71035C8.51748 353.569 8.18034 353.238 7.81442 353.027C6.07594 352.024 5 349.869 5 347.746ZM8.96538 355.008H7.94311C8.19922 356.212 8.59689 358.133 8.81904 359.21C8.91496 359.675 9.32408 360.008 9.79875 360.008H13.1756C13.6469 360.008 14.0542 359.679 14.1533 359.218L15.0588 355.008H14.0359L13.1756 359.008H9.79875L9.79841 359.008C9.58893 357.993 9.22208 356.22 8.96538 355.008Z" fill="#333333"/>
<path d="M8 355.008H14.5L14 356.008H8.5L8 355.008Z" fill="#333333"/>
<rect width="3" height="1" rx="0.5" transform="matrix(-1 -8.74228e-08 -8.74228e-08 1 3 348.008)" fill="#FF6F3D"/>
<rect width="3" height="1" rx="0.5" transform="matrix(-1 -8.74228e-08 -8.74228e-08 1 23 348.008)" fill="#FF6F3D"/>
<rect x="18.9976" y="353.333" width="3" height="1" rx="0.5" transform="rotate(40.3988 18.9976 353.333)" fill="#FF6F3D"/>
<rect width="3" height="1" rx="0.5" transform="matrix(-0.766107 0.642713 0.642713 0.766107 4.39282 353.213)" fill="#FF6F3D"/>
<rect width="3" height="1" rx="0.5" transform="matrix(0.76625 -0.642543 -0.642543 -0.76625 19.6426 342.66)" fill="#FF6F3D"/>
<rect x="3.26392" y="342.731" width="3" height="1" rx="0.5" transform="rotate(-138.991 3.26392 342.731)" fill="#FF6F3D"/>
</g>
<path fill-rule="evenodd" clip-rule="evenodd" d="M12.0611 383.748C12.1043 383.827 12.1694 383.895 12.2538 383.943C12.4942 384.079 12.7992 383.994 12.9352 383.754C13.3688 382.988 14.11 382.269 15.0345 381.521C15.4932 381.149 15.9855 380.779 16.4955 380.396L16.4959 380.396C17.0032 380.014 17.5271 379.621 18.0369 379.21C20.0609 377.578 21.9999 375.573 22 372.599V372.599H21.5C22 372.599 22 372.599 22 372.598V372.598L22 372.596L22 372.591L21.9998 372.578C21.9996 372.567 21.9992 372.553 21.9986 372.535C21.9972 372.498 21.9946 372.447 21.9897 372.384C21.9797 372.257 21.9602 372.08 21.9215 371.869C21.8445 371.45 21.6898 370.884 21.3756 370.312C21.0599 369.738 20.5812 369.156 19.8607 368.72C19.1392 368.282 18.2032 368.008 16.9999 368.008C15.5405 368.008 14.3024 368.777 13.4622 369.49C13.0581 369.833 12.7317 370.175 12.5 370.44C12.2683 370.175 11.9419 369.833 11.5378 369.49C10.6976 368.777 9.45953 368.008 8.00007 368.008C6.79676 368.008 5.86077 368.282 5.13932 368.72C4.41882 369.156 3.94014 369.738 3.6244 370.312C3.31022 370.884 3.15546 371.45 3.07851 371.869C3.03984 372.08 3.02026 372.257 3.01033 372.384C3.00535 372.447 3.00277 372.498 3.00143 372.535C3.00077 372.553 3.00041 372.567 3.00022 372.578L3.00004 372.591L3.00001 372.596L3 372.598V372.598C3 372.599 3 372.599 3.5 372.599H3V372.599C3.00011 375.573 4.93914 377.578 6.9631 379.21C7.47287 379.621 7.99679 380.014 8.50407 380.396L8.5045 380.396C9.01448 380.779 9.50675 381.149 9.96554 381.521C10.8874 382.267 11.627 382.984 12.0611 383.748ZM12.5 382.608C13.0145 381.936 13.6873 381.325 14.4052 380.744C14.8784 380.36 15.3831 379.981 15.8879 379.602L15.8947 379.597C16.4043 379.214 16.9148 378.83 17.4093 378.431C19.4028 376.824 20.9994 375.08 21 372.6L21 372.599C21 372.599 21 372.599 21.5 372.599L21 372.599L20.9999 372.596L20.9992 372.571C20.9984 372.548 20.9966 372.511 20.9927 372.462C20.9851 372.365 20.9695 372.222 20.9379 372.05C20.8742 371.702 20.7477 371.246 20.4994 370.794C20.2526 370.346 19.8875 369.905 19.3424 369.575C18.7982 369.245 18.0467 369.008 16.9999 369.008C15.8881 369.008 14.8762 369.602 14.1092 370.253C13.7316 370.573 13.4283 370.895 13.2197 371.136C13.1157 371.256 13.036 371.356 12.9831 371.424C12.9567 371.458 12.937 371.485 12.9244 371.502L12.9108 371.52L12.9081 371.524L12.9081 371.524L12.908 371.524C12.7485 371.749 12.4366 371.803 12.2112 371.643C12.1608 371.608 12.119 371.564 12.0862 371.516L12.0755 371.502C12.0629 371.485 12.0432 371.458 12.0168 371.424C11.9639 371.356 11.8842 371.256 11.7802 371.136C11.5716 370.895 11.2684 370.573 10.8908 370.253C10.1238 369.602 9.11195 369.008 8.00007 369.008C6.95334 369.008 6.20181 369.245 5.65761 369.575C5.11247 369.905 4.74739 370.346 4.50061 370.794C4.25229 371.246 4.12579 371.702 4.06212 372.05C4.03047 372.222 4.01489 372.365 4.00725 372.462C4.00344 372.511 4.00162 372.548 4.00076 372.571L4.00006 372.596L4 372.599L4 372.599L3.5 372.599C4 372.599 4 372.599 4 372.599L4 372.6C4.00064 375.08 5.59716 376.824 7.59067 378.431C8.08521 378.83 8.59573 379.214 9.10532 379.597L9.1121 379.602C9.61687 379.981 10.1216 380.36 10.5948 380.744C11.3127 381.325 11.9855 381.936 12.5 382.608Z" fill="#333333"/>
<path d="M10.6318 391.563C11.3977 390.823 12.6023 390.823 13.3682 391.563L14.5862 392.739C14.9865 393.125 15.5282 393.325 16.0802 393.289L17.7598 393.181C18.816 393.113 19.7387 393.897 19.856 394.962L20.0425 396.656C20.1038 397.213 20.392 397.718 20.8374 398.05L22.1927 399.061C23.045 399.696 23.2541 400.897 22.6679 401.789L21.7356 403.208C21.4292 403.675 21.3291 404.249 21.4595 404.794L21.8563 406.45C22.1059 407.491 21.5036 408.548 20.4881 408.849L18.8733 409.33C18.3426 409.487 17.901 409.863 17.6554 410.364L16.9081 411.891C16.4381 412.852 15.3062 413.269 14.3367 412.839L12.7949 412.156C12.2882 411.931 11.7118 411.931 11.2051 412.156L9.6633 412.839C8.69375 413.269 7.56186 412.852 7.0919 411.891L6.34459 410.364C6.09896 409.863 5.65743 409.487 5.12667 409.33L3.51186 408.849C2.49639 408.548 1.89412 407.491 2.14366 406.45L2.54047 404.794C2.67089 404.249 2.57081 403.675 2.26439 403.208L1.33213 401.789C0.745872 400.897 0.955038 399.696 1.8073 399.061L3.16257 398.05C3.60802 397.718 3.89621 397.213 3.95751 396.656L4.144 394.962C4.26129 393.897 5.18402 393.113 6.24022 393.181L7.9198 393.289C8.47185 393.325 9.01346 393.125 9.4138 392.739L10.6318 391.563Z" fill="white"/>
<path fill-rule="evenodd" clip-rule="evenodd" d="M13.9021 393.465L12.6841 392.289C12.3011 391.919 11.6989 391.919 11.3159 392.289L10.0979 393.465C9.4974 394.045 8.68498 394.344 7.8569 394.291L6.17733 394.183C5.64922 394.149 5.18786 394.541 5.12922 395.073L4.94272 396.767C4.85077 397.602 4.41849 398.36 3.75031 398.859L2.39504 399.869C1.96891 400.187 1.86433 400.787 2.15746 401.233L3.08972 402.652C3.54935 403.352 3.69948 404.214 3.50384 405.03L3.10703 406.686C2.98226 407.207 3.28339 407.735 3.79113 407.886L5.40593 408.366C6.20208 408.603 6.86437 409.166 7.23281 409.919L7.98013 411.446C8.2151 411.926 8.78105 412.134 9.26583 411.919L10.8076 411.236C11.5677 410.899 12.4323 410.899 13.1924 411.236L14.7342 411.919C15.2189 412.134 15.7849 411.926 16.0199 411.446L16.7672 409.919C17.1356 409.166 17.7979 408.603 18.5941 408.366L20.2089 407.886C20.7166 407.735 21.0177 407.207 20.893 406.686L20.4962 405.03C20.3005 404.214 20.4507 403.352 20.9103 402.652L21.8425 401.233C22.1357 400.787 22.0311 400.187 21.605 399.869L20.2497 398.859C19.5815 398.36 19.1492 397.602 19.0573 396.767L18.8708 395.073C18.8121 394.541 18.3508 394.149 17.8227 394.183L16.1431 394.291C15.315 394.344 14.5026 394.045 13.9021 393.465ZM13.3682 391.563C12.6023 390.823 11.3977 390.823 10.6318 391.563L9.4138 392.739C9.01346 393.125 8.47185 393.325 7.9198 393.289L6.24022 393.181C5.18402 393.113 4.26129 393.897 4.144 394.962L3.95751 396.656C3.89621 397.213 3.60802 397.718 3.16257 398.05L1.8073 399.061C0.955038 399.696 0.745872 400.897 1.33213 401.789L2.26439 403.208C2.57081 403.675 2.67089 404.249 2.54047 404.794L2.14366 406.45C1.89412 407.491 2.49639 408.548 3.51186 408.849L5.12667 409.33C5.65743 409.487 6.09896 409.863 6.34459 410.364L7.0919 411.891C7.56186 412.852 8.69375 413.269 9.6633 412.839L11.2051 412.156C11.7118 411.931 12.2882 411.931 12.7949 412.156L14.3367 412.839C15.3062 413.269 16.4381 412.852 16.9081 411.891L17.6554 410.364C17.901 409.863 18.3426 409.487 18.8733 409.33L20.4881 408.849C21.5036 408.548 22.1059 407.491 21.8563 406.45L21.4595 404.794C21.3291 404.249 21.4292 403.675 21.7356 403.208L22.6679 401.789C23.2541 400.897 23.045 399.696 22.1927 399.061L20.8374 398.05C20.392 397.718 20.1038 397.213 20.0425 396.656L19.856 394.962C19.7387 393.897 18.816 393.113 17.7598 393.181L16.0802 393.289C15.5282 393.325 14.9865 393.125 14.5862 392.739L13.3682 391.563Z" fill="#333333"/>
<path fill-rule="evenodd" clip-rule="evenodd" d="M14.0024 399.743L12 396.008L9.99757 399.743L6 400.591L8.76 403.748L8.2918 408.008L12 406.223L15.7082 408.008L15.24 403.748L18 400.591L14.0024 399.743ZM15.9634 401.287L13.3227 400.727L12 398.26L10.6773 400.727L8.03659 401.287L9.85976 403.373L9.55048 406.186L12 405.008L14.4495 406.186L14.1402 403.373L15.9634 401.287Z" fill="#FF6F3D"/>
<g clip-path="url(#clip12_1_474)">
<path fill-rule="evenodd" clip-rule="evenodd" d="M20.8032 422.583C21.0323 422.451 21.3253 422.53 21.4576 422.759C24.6327 428.258 22.7485 435.29 17.249 438.466C11.7496 441.641 4.71748 439.756 1.54237 434.257C-1.63274 428.757 0.251516 421.725 5.75096 418.55C8.30103 417.078 11.1818 416.693 13.8534 417.253C15.2194 417.539 16.5312 418.072 17.7171 418.833C18.4313 419.291 19.0998 419.832 19.7068 420.451C19.8921 420.64 19.8891 420.943 19.7001 421.128C19.5112 421.314 19.2079 421.311 19.0226 421.122C18.4666 420.554 17.8542 420.059 17.1998 419.639C16.1129 418.942 14.91 418.453 13.657 418.191C11.2072 417.678 8.56812 418.03 6.23005 419.38C1.18889 422.291 -0.538341 428.737 2.37217 433.778C5.28269 438.819 11.7288 440.546 16.77 437.636C21.8111 434.725 23.5383 428.279 20.6278 423.238C20.4955 423.009 20.574 422.716 20.8032 422.583Z" fill="#333333"/>
<rect x="16" y="431.008" width="1" height="3" rx="0.5" fill="#FF6F3D"/>
<rect x="16" y="431.008" width="1" height="3" rx="0.5" fill="#FF6F3D"/>
<rect x="16" y="431.008" width="1" height="3" rx="0.5" fill="#FF6F3D"/>
<rect x="16" y="431.008" width="1" height="3" rx="0.5" fill="#FF6F3D"/>
<rect x="16" y="431.008" width="1" height="3" rx="0.5" fill="#FF6F3D"/>
<path fill-rule="evenodd" clip-rule="evenodd" d="M6 433.508C6 433.232 6.22386 433.008 6.5 433.008H16.5C16.7761 433.008 17 433.232 17 433.508C17 433.784 16.7761 434.008 16.5 434.008H6.5C6.22386 434.008 6 433.784 6 433.508Z" fill="#FF6F3D"/>
<rect x="6" y="431.008" width="1" height="3" rx="0.5" fill="#FF6F3D"/>
<rect x="6" y="431.008" width="1" height="3" rx="0.5" fill="#FF6F3D"/>
<rect x="6" y="431.008" width="1" height="3" rx="0.5" fill="#FF6F3D"/>
<rect x="6" y="431.008" width="1" height="3" rx="0.5" fill="#FF6F3D"/>
<rect x="6" y="431.008" width="1" height="3" rx="0.5" fill="#FF6F3D"/>
<path fill-rule="evenodd" clip-rule="evenodd" d="M14.8515 427.982L11.8268 430.875C11.6412 431.052 11.3403 431.052 11.1546 430.875L8.12993 427.982C7.94432 427.805 7.94432 427.517 8.12993 427.339C8.31554 427.162 8.61648 427.162 8.80209 427.339L11.0154 429.456V422.462C11.0154 422.211 11.2282 422.008 11.4907 422.008C11.7532 422.008 12.0078 422.211 12.0078 422.462V429.456L14.1794 427.339C14.365 427.162 14.6659 427.162 14.8515 427.339C15.0371 427.517 15.0371 427.805 14.8515 427.982Z" fill="#FF6F3D"/>
</g>
<path fill-rule="evenodd" clip-rule="evenodd" d="M20 463.008C20 463.56 19.5523 464.008 19 464.008H6C5.44772 464.008 5 463.56 5 463.008V445.008C5 444.456 5.44772 444.008 6 444.008H14.0872C14.3516 444.008 14.6052 444.113 14.7926 444.299L19.7054 449.189C19.894 449.376 20 449.632 20 449.898V463.008Z" fill="white"/>
<path fill-rule="evenodd" clip-rule="evenodd" d="M6 463.008H19V449.898L14.0872 445.008H6L6 463.008ZM19 464.008C19.5523 464.008 20 463.56 20 463.008V449.898C20 449.632 19.894 449.376 19.7054 449.189L14.7926 444.299C14.6052 444.113 14.3516 444.008 14.0872 444.008H6C5.44772 444.008 5 444.456 5 445.008V463.008C5 463.56 5.44772 464.008 6 464.008H19Z" fill="#333333"/>
<path fill-rule="evenodd" clip-rule="evenodd" d="M9 453.508C9 453.232 9.22386 453.008 9.5 453.008H15.5C15.7761 453.008 16 453.232 16 453.508C16 453.784 15.7761 454.008 15.5 454.008H9.5C9.22386 454.008 9 453.784 9 453.508Z" fill="#FF6F3D"/>
<path fill-rule="evenodd" clip-rule="evenodd" d="M9 456.508C9 456.232 9.22386 456.008 9.5 456.008H15.5C15.7761 456.008 16 456.232 16 456.508C16 456.784 15.7761 457.008 15.5 457.008H9.5C9.22386 457.008 9 456.784 9 456.508Z" fill="#FF6F3D"/>
<path fill-rule="evenodd" clip-rule="evenodd" d="M9 459.508C9 459.232 9.22386 459.008 9.5 459.008H15.5C15.7761 459.008 16 459.232 16 459.508C16 459.784 15.7761 460.008 15.5 460.008H9.5C9.22386 460.008 9 459.784 9 459.508Z" fill="#FF6F3D"/>
<path fill-rule="evenodd" clip-rule="evenodd" d="M13.5 446.008C13.7761 446.008 14 446.232 14 446.508V450.008H17.5C17.7761 450.008 18 450.232 18 450.508C18 450.784 17.7761 451.008 17.5 451.008H13.5C13.2239 451.008 13 450.784 13 450.508V446.508C13 446.232 13.2239 446.008 13.5 446.008Z" fill="#333333"/>
<g clip-path="url(#clip13_1_474)">
<path d="M15 490.008C15.2761 490.008 15.5 490.232 15.5 490.508V490.508C15.5 490.784 15.2761 491.008 15 491.008L9 491.008C8.72386 491.008 8.5 490.784 8.5 490.508V490.508C8.5 490.232 8.72386 490.008 9 490.008L15 490.008Z" fill="#333333"/>
<path fill-rule="evenodd" clip-rule="evenodd" d="M15.5 490.508C15.5 490.232 15.2761 490.008 15 490.008L9 490.008C8.72386 490.008 8.5 490.232 8.5 490.508C8.5 490.784 8.72386 491.008 9 491.008L15 491.008C15.2761 491.008 15.5 490.784 15.5 490.508Z" fill="#333333"/>
<path d="M13.6 477C13.8209 477 14 477.224 14 477.5V477.5C14 477.776 13.8209 478 13.6 478L10.4 478C10.1791 478 10 477.776 10 477.5V477.5C10 477.224 10.1791 477 10.4 477L13.6 477Z" fill="#FF6F3D"/>
<path d="M13.6 474C13.8209 474 14 474.224 14 474.5V474.5C14 474.776 13.8209 475 13.6 475L10.4 475C10.1791 475 10 474.776 10 474.5V474.5C10 474.224 10.1791 474 10.4 474L13.6 474Z" fill="#FF6F3D"/>
<path fill-rule="evenodd" clip-rule="evenodd" d="M7.90909 473V479C7.90909 481.122 9.65718 483 12 483C14.3428 483 16.0909 481.122 16.0909 479V473C16.0909 470.878 14.3428 469 12 469C9.65718 469 7.90909 470.878 7.90909 473ZM7 473V479C7 481.761 9.23858 484 12 484C14.7614 484 17 481.761 17 479V473C17 470.239 14.7614 468 12 468C9.23858 468 7 470.239 7 473Z" fill="#333333"/>
<path fill-rule="evenodd" clip-rule="evenodd" d="M3.5 478.508C3.77614 478.508 4 478.732 4 479.008C4 483.426 7.58172 487.008 12 487.008C16.4183 487.008 20 483.426 20 479.008C20 478.732 20.2239 478.508 20.5 478.508C20.7761 478.508 21 478.732 21 479.008C21 483.978 16.9706 488.008 12 488.008C7.02944 488.008 3 483.978 3 479.008C3 478.732 3.22386 478.508 3.5 478.508Z" fill="#333333"/>
</g>
<path fill-rule="evenodd" clip-rule="evenodd" d="M5 495.008H19C20.1046 495.008 21 495.903 21 497.008V507.008C21 508.112 20.1046 509.008 19 509.008H5C3.89543 509.008 3 508.112 3 507.008V497.008C3 495.903 3.89543 495.008 5 495.008ZM5 496.008C4.44772 496.008 4 496.456 4 497.008V507.008C4 507.56 4.44772 508.008 5 508.008H19C19.5523 508.008 20 507.56 20 507.008V497.008C20 496.456 19.5523 496.008 19 496.008H5Z" fill="#333333"/>
<path fill-rule="evenodd" clip-rule="evenodd" d="M9.75685 510.057C10.0058 510.177 10.1106 510.476 9.99106 510.725L7.16716 516.774C7.0476 517.023 6.74889 517.127 6.49997 517.008C6.25105 516.888 6.14619 516.59 6.26576 516.341L9.08966 510.292C9.20922 510.043 9.50794 509.938 9.75685 510.057Z" fill="#333333"/>
<path fill-rule="evenodd" clip-rule="evenodd" d="M14.2836 510.057C14.0347 510.177 13.9298 510.476 14.0494 510.725L16.8328 516.774C16.9524 517.023 17.2511 517.127 17.5 517.008C17.7489 516.888 17.8537 516.59 17.7342 516.341L14.9508 510.292C14.8312 510.043 14.5325 509.938 14.2836 510.057Z" fill="#333333"/>
<path fill-rule="evenodd" clip-rule="evenodd" d="M6.5 500.508C6.5 500.232 6.72386 500.008 7 500.008H17C17.2761 500.008 17.5 500.232 17.5 500.508C17.5 500.784 17.2761 501.008 17 501.008H7C6.72386 501.008 6.5 500.784 6.5 500.508Z" fill="#FF6F3D"/>
<path fill-rule="evenodd" clip-rule="evenodd" d="M6.5 503.508C6.5 503.232 6.72386 503.008 7 503.008H14C14.2761 503.008 14.5 503.232 14.5 503.508C14.5 503.784 14.2761 504.008 14 504.008H7C6.72386 504.008 6.5 503.784 6.5 503.508Z" fill="#FF6F3D"/>
<path fill-rule="evenodd" clip-rule="evenodd" d="M6.0357 526.008H17.9643C19.015 526.008 19.8903 526.805 19.978 527.841L20.9928 539.841C21.0915 541.007 20.1616 542.008 18.9792 542.008H5.02084C3.83835 542.008 2.90855 541.007 3.00718 539.841L4.02204 527.841C4.10968 526.805 4.98504 526.008 6.0357 526.008ZM6.0357 527.008C5.51037 527.008 5.07269 527.406 5.02887 527.925L4.01401 539.925C3.96469 540.508 4.42959 541.008 5.02084 541.008H18.9792C19.5704 541.008 20.0353 540.508 19.986 539.925L18.9711 527.925C18.9273 527.406 18.4896 527.008 17.9643 527.008H6.0357Z" fill="#333333"/>
<path fill-rule="evenodd" clip-rule="evenodd" d="M9 529.008H8C8 531.398 9.45319 533.008 12 533.008C14.5609 533.008 16 531.176 16 529.008H15C15 530.84 13.8141 532.008 12 532.008C10.0063 532.008 9 530.85 9 529.008Z" fill="#FF6F3D"/>
<path fill-rule="evenodd" clip-rule="evenodd" d="M9 525.008H8C8 522.83 9.80585 521.008 12 521.008C14.3275 521.008 16 522.697 16 525.008H15C15 523.236 13.7887 522.008 12 522.008C10.3466 522.008 9 523.373 9 525.008Z" fill="#FF6F3D"/>
<path fill-rule="evenodd" clip-rule="evenodd" d="M15 555.008C15 556.665 13.6569 558.008 12 558.008C10.3431 558.008 9 556.665 9 555.008C9 553.351 10.3431 552.008 12 552.008C13.6569 552.008 15 553.351 15 555.008ZM12 557.008C13.1046 557.008 14 556.113 14 555.008C14 553.903 13.1046 553.008 12 553.008C10.8954 553.008 10 553.903 10 555.008C10 556.113 10.8954 557.008 12 557.008Z" fill="#FF6F3D"/>
<path fill-rule="evenodd" clip-rule="evenodd" d="M15.2145 564.246C17.1667 561.768 19 558.515 19 555.113C19 551.177 15.8537 548.008 12 548.008C8.14629 548.008 5 551.177 5 555.113C5 558.515 6.83326 561.768 8.78555 564.246C9.74995 565.47 10.7164 566.472 11.4417 567.166C11.6502 567.366 11.8383 567.54 12 567.686C12.1617 567.54 12.3498 567.366 12.5583 567.166C13.2836 566.472 14.2501 565.47 15.2145 564.246ZM12 569.008C12 569.008 20 562.591 20 555.113C20 550.637 16.4183 547.008 12 547.008C7.58172 547.008 4 550.637 4 555.113C4 562.591 12 569.008 12 569.008Z" fill="#333333"/>
<path d="M22.5 577.508C22.5 576.008 21.6046 575.508 20.5 575.508H2.5C1.39543 575.508 0.5 576.451 0.5 577.556V587.508C0.5 588.613 1.39543 589.508 2.5 589.508H11.5" stroke="#333333" stroke-linecap="round"/>
<path fill-rule="evenodd" clip-rule="evenodd" d="M4 593.508C4 593.232 4.1599 593.008 4.35714 593.008H11.6016C11.7988 593.008 12 593.232 12 593.508C12 593.784 11.7988 594.008 11.6016 594.008H4.35714C4.1599 594.008 4 593.784 4 593.508Z" fill="#333333"/>
<path fill-rule="evenodd" clip-rule="evenodd" d="M8.5 593.96C8.22386 593.96 8 593.736 8 593.46L8 589.96L9 589.96L9 593.46C9 593.736 8.77614 593.96 8.5 593.96Z" fill="#333333"/>
<circle cx="18.5" cy="583.008" r="3" stroke="#FF6F3D"/>
<path d="M23.494 592.263C23.4372 592.304 23.3684 592.352 23.2884 592.406C23.0243 592.584 22.6399 592.822 22.1646 593.061C21.209 593.541 19.913 594.008 18.5 594.008C15.8859 594.008 14.1257 592.831 13.5046 592.294C13.6165 589.713 15.7489 588.008 18.5 588.008C21.2402 588.008 23.3665 589.699 23.494 592.263Z" stroke="#FF6F3D"/>
<path d="M5 601.508H19C19.8284 601.508 20.5 602.18 20.5 603.008V613.508H3.5V603.008C3.5 602.18 4.17157 601.508 5 601.508Z" stroke="#333333"/>
<rect x="1.5" y="615.508" width="21" height="2" rx="1" stroke="#333333"/>
<path d="M14 607.508L10 610.008L10 605.008L14 607.508Z" fill="#FF6F3D"/>
<path fill-rule="evenodd" clip-rule="evenodd" d="M20.8032 630.583C21.0323 630.451 21.3253 630.53 21.4576 630.759C24.6327 636.258 22.7485 643.29 17.249 646.466C11.7496 649.641 4.71748 647.756 1.54237 642.257C-1.63274 636.757 0.251517 629.725 5.75096 626.55C8.30103 625.078 11.1818 624.694 13.8534 625.253C15.2194 625.539 16.5312 626.072 17.7171 626.833C18.4313 627.291 19.0998 627.832 19.7068 628.451C19.8921 628.64 19.8891 628.943 19.7001 629.128C19.5112 629.314 19.2079 629.311 19.0226 629.122C18.4666 628.555 17.8542 628.059 17.1998 627.639C16.1129 626.942 14.91 626.453 13.657 626.191C11.2072 625.678 8.56812 626.03 6.23005 627.38C1.18889 630.291 -0.538341 636.737 2.37217 641.778C5.28269 646.819 11.7288 648.546 16.77 645.636C21.8111 642.725 23.5383 636.279 20.6278 631.238C20.4955 631.009 20.574 630.716 20.8032 630.583Z" fill="#333333"/>
<path d="M11.4085 629.008C13.65 629.02 15.6478 630.754 15.9585 632.965C16.2143 634.783 15.2702 636.638 13.6195 637.532C13.2541 637.731 12.9617 637.967 12.8825 638.39C12.8521 638.553 12.8582 638.722 12.8216 638.879C12.6815 639.562 12.0237 640.063 11.3476 640.003C10.5801 639.937 9.9954 639.381 9.98931 638.65C9.97713 637.091 10.6776 635.919 12.0359 635.146C12.511 634.874 12.8947 634.554 13.047 634.016C13.2845 633.17 12.7851 632.264 11.9141 631.968C11.1222 631.69 10.2147 632.101 9.8614 632.892C9.75785 633.122 9.64212 633.364 9.47766 633.551C9.02084 634.058 8.3021 634.143 7.71128 633.805C7.13263 633.46 6.85245 632.784 7.07781 632.149C7.693 630.44 8.89902 629.401 10.708 629.08C10.9395 629.038 11.1771 629.032 11.4085 629.008ZM15.0509 633.545C15.0509 633.412 15.0631 633.273 15.0509 633.14C14.7707 630.947 12.5353 629.461 10.4096 630.077C9.21575 630.422 8.40565 631.201 7.97319 632.361C7.85746 632.669 7.98537 632.953 8.25338 633.05C8.53356 633.152 8.80766 633.019 8.93557 632.723C8.95384 632.675 8.97211 632.627 8.99039 632.578C9.51421 631.31 10.9578 630.651 12.2369 631.104C13.5891 631.582 14.3322 633.007 13.9058 634.336C13.6683 635.079 13.1505 635.575 12.4683 635.949C11.4451 636.517 10.9273 637.405 10.8969 638.571C10.8908 638.843 11.0918 639.055 11.3476 639.079C11.6461 639.103 11.8653 638.94 11.9141 638.65C11.9384 638.493 11.9384 638.336 11.9689 638.179C12.1151 637.508 12.5414 637.067 13.1383 636.735C14.4053 636.046 15.0205 634.959 15.0509 633.545Z" fill="#FF6F3D"/>
<circle cx="11.5" cy="642.508" r="1" stroke="#FF6F3D"/>
<path d="M3.75266 666.377C2.17587 663.617 1.4841 660.148 1.50028 655.24C3.73124 655.199 5.62613 654.87 7.3055 654.137C8.95613 653.417 10.3697 652.319 11.6809 650.772C13.1081 652.297 14.5104 653.394 16.0832 654.12C17.6788 654.856 19.4185 655.195 21.4871 655.24C21.6053 659.942 20.915 663.488 19.3487 666.34C17.7671 669.22 15.2623 671.445 11.6634 673.436C7.87932 671.292 5.34628 669.166 3.75266 666.377Z" stroke="#333333" stroke-linecap="round" stroke-linejoin="round"/>
<path fill-rule="evenodd" clip-rule="evenodd" d="M14.762 659.167C15.0413 659.411 15.0804 659.847 14.8494 660.142L13.0397 662.449L11.2301 664.757C11.1102 664.91 10.934 665.001 10.7461 665.008C10.5583 665.014 10.3767 664.935 10.2476 664.791L8.17939 662.484C7.93039 662.206 7.94204 661.768 8.2054 661.505C8.46876 661.242 8.88411 661.254 9.13311 661.532L10.6916 663.271L13.8381 659.259C14.0691 658.964 14.4828 658.923 14.762 659.167Z" fill="#FF6F3D"/>
<g clip-path="url(#clip14_1_474)">
<path d="M2.5 691.508V696.508C2.5 697.06 2.94771 697.508 3.5 697.508H20.5C21.0523 697.508 21.5 697.06 21.5 696.508V691.508" stroke="#333333" stroke-linecap="round" stroke-linejoin="round"/>
<path d="M7.5 689.5H2.5C1.94772 689.5 1.5 689.052 1.5 688.5V682.5C1.5 681.948 1.94772 681.5 2.5 681.5L21.5 681.5C22.0523 681.5 22.5 681.948 22.5 682.5V688.5C22.5 689.052 22.0523 689.5 21.5 689.5H17.5" stroke="#333333" stroke-linecap="round"/>
<path d="M10 687.508H15C15.2761 687.508 15.5 687.732 15.5 688.008V691.008C15.5 691.284 15.2761 691.508 15 691.508H10C9.72386 691.508 9.5 691.284 9.5 691.008V688.008C9.5 687.732 9.72386 687.508 10 687.508Z" stroke="#FF6F3D"/>
<path d="M16.5 680V678.5C16.5 677.948 16.0523 677.5 15.5 677.5H9.5C8.94772 677.5 8.5 677.948 8.5 678.5V680" stroke="#333333"/>
</g>
<g clip-path="url(#clip15_1_474)">
<path d="M8.29897 710.03C6.71054 709.687 5.70651 708.096 6.05639 706.476C6.40627 704.857 7.97758 703.822 9.56601 704.165C10.3488 704.334 10.9897 704.806 11.3965 705.436" stroke="#FF6F3D" stroke-linecap="round"/>
<path d="M8.9763 712.448C4.51852 712.448 1 715.233 1 717.273C1 718.386 2.61749 719.048 4.5 719.419" stroke="#FF6F3D" stroke-linecap="round"/>
<circle cx="14.9167" cy="710.698" r="3.19444" stroke="#333333"/>
<path d="M22.3333 720.085C22.3333 720.349 22.167 720.644 21.6882 720.958C21.2156 721.269 20.5314 721.532 19.7298 721.743C18.1329 722.163 16.2127 722.337 14.9763 722.337C13.73 722.337 11.7762 722.208 10.1482 721.833C9.33023 721.645 8.63203 721.403 8.15013 721.108C7.66157 720.809 7.5 720.527 7.5 720.273C7.5 719.904 7.66222 719.449 8.02344 718.953C8.38141 718.462 8.91355 717.962 9.59248 717.513C10.9502 716.614 12.8488 715.948 14.9763 715.948C17.1109 715.948 18.9811 716.571 20.3062 717.422C21.6645 718.295 22.3333 719.323 22.3333 720.085Z" stroke="#333333"/>
</g>
<g clip-path="url(#clip16_1_474)">
<path d="M21.5 735.008V745.008C21.5 745.284 21.2761 745.508 21 745.508H3C2.72386 745.508 2.5 745.284 2.5 745.008L2.5 735.008C2.5 734.732 2.72386 734.508 3 734.508H7.47405H21C21.2761 734.508 21.5 734.732 21.5 735.008Z" stroke="#333333"/>
<path fill-rule="evenodd" clip-rule="evenodd" d="M5.42857 743.008C5.19188 743.008 5 742.816 5 742.579V737.437C5 737.2 5.19188 737.008 5.42857 737.008C5.66526 737.008 5.85714 737.2 5.85714 737.437V742.579C5.85714 742.816 5.66526 743.008 5.42857 743.008Z" fill="#FF6F3D"/>
</g>
<g clip-path="url(#clip17_1_474)">
<path d="M18 775.508H5C4.72386 775.508 4.5 775.284 4.5 775.008V757.008C4.5 756.732 4.72386 756.508 5 756.508H13.0872C13.2194 756.508 13.3462 756.56 13.4399 756.654L18.3527 761.543C18.447 761.637 18.5 761.765 18.5 761.898V775.008C18.5 775.284 18.2761 775.508 18 775.508Z" stroke="#333333"/>
<path fill-rule="evenodd" clip-rule="evenodd" d="M12.5 758.008C12.7761 758.008 13 758.232 13 758.508V762.008H16.5C16.7761 762.008 17 762.232 17 762.508C17 762.784 16.7761 763.008 16.5 763.008H12.5C12.2239 763.008 12 762.784 12 762.508V758.508C12 758.232 12.2239 758.008 12.5 758.008Z" fill="#333333"/>
<path d="M15 772.008H14V767.008H16.4994C16.7759 767.008 17 767.232 17 767.509V767.509C17 767.785 16.7766 768.009 16.5006 768.009L15 768.013V769.019L16.4997 769.011C16.7756 769.009 17 769.232 17 769.508V769.508C17 769.783 16.7772 770.006 16.5023 770.006H15L15 772.008Z" fill="#B60000"/>
<path d="M6.99999 772.008H6V767.008H8C8.55228 767.008 9 767.456 9 768.008V769.008L8 769.013V768.013H7V769.019L8 769.013L9 769.008V769.008C9 769.559 8.55318 770.006 8.002 770.006H7L6.99999 772.008Z" fill="#B60000"/>
<path d="M11 772.008H10V767.008H12C12.5523 767.008 13 767.456 13 768.008V771.008L12 771.013V768.013H11V771.019L12 771.013L13 771.008V771.008C13 771.559 12.5532 772.006 12.002 772.006H11L11 772.008Z" fill="#B60000"/>
</g>
<g clip-path="url(#clip18_1_474)">
<path fill-rule="evenodd" clip-rule="evenodd" d="M3 783L17 783.008C18.1046 783.008 19 783.895 19 785V795.008C19 796.113 18.1046 797 17 797H3C1.89543 797 1 796.105 1 795V785C1 783.895 1.89543 783 3 783ZM3 784C2.44772 784 2 784.448 2 785V795C2 795.552 2.44772 796 3 796H17C17.5523 796 18 795.56 18 795.008V785C18 784.448 17.5523 784 17 784H3Z" fill="#333333"/>
<path d="M20 787.508C20.1537 787.508 20.3192 787.508 20.4893 787.507C21.598 787.505 22.5 788.402 22.5 789.511V798.5C22.5 799.605 21.6046 800.5 20.5 800.5H7.5C6.39543 800.5 5.5 799.605 5.5 798.5V798M17 787.508L7.5 787.5C6.39543 787.5 5.5 788.395 5.5 789.5V795" stroke="#333333"/>
</g>
<g clip-path="url(#clip19_1_474)">
<path d="M8.5 811.508V809.508C8.5 808.956 8.94772 808.508 9.5 808.508H17.0858C17.351 808.508 17.6054 808.613 17.7929 808.801L22.2071 813.215C22.3946 813.403 22.5 813.657 22.5 813.922V826.508C22.5 827.06 22.0523 827.508 21.5 827.508H19.5" stroke="#333333" stroke-linecap="round"/>
<path d="M4.5 812.508V809.508C4.5 808.956 4.94772 808.508 5.5 808.508H7" stroke="#333333" stroke-linecap="round"/>
<path d="M0.5 816.508V809.508C0.5 808.956 0.947715 808.508 1.5 808.508H3" stroke="#333333" stroke-linecap="round"/>
<path fill-rule="evenodd" clip-rule="evenodd" d="M16.5 810.008C16.7761 810.008 17 810.232 17 810.508V814.008H20.5C20.7761 814.008 21 814.232 21 814.508C21 814.784 20.7761 815.008 20.5 815.008H16.5C16.2239 815.008 16 814.784 16 814.508V810.508C16 810.232 16.2239 810.008 16.5 810.008Z" fill="#333333"/>
<path d="M5 816.508H12C12.2761 816.508 12.5 816.732 12.5 817.008V828.503H5C4.72386 828.503 4.5 828.279 4.5 828.003V817.008C4.5 816.732 4.72386 816.508 5 816.508Z" stroke="#FF6F3D"/>
<path d="M1 820.508H4C4.27614 820.508 4.5 820.732 4.5 821.008V828.508H0.5V821.008C0.5 820.732 0.723858 820.508 1 820.508Z" stroke="#FF6F3D"/>
<path d="M13 820.508H16C16.2761 820.508 16.5 820.732 16.5 821.008V828.508H12.5V821.008C12.5 820.732 12.7239 820.508 13 820.508Z" stroke="#FF6F3D"/>
<path d="M7.47266 826.533L7.47266 819.533" stroke="#FF6F3D" stroke-linecap="round"/>
<path d="M2.47266 826.533L2.47266 822.533" stroke="#FF6F3D" stroke-linecap="round"/>
<path d="M14.4727 826.533L14.4727 822.533" stroke="#FF6F3D" stroke-linecap="round"/>
<path d="M9.49744 826.504L9.49707 819.504" stroke="#FF6F3D" stroke-linecap="round"/>
<path d="M8.49744 816.504L8.49707 814.504" stroke="#FF6F3D" stroke-linecap="round"/>
</g>
<g clip-path="url(#clip20_1_474)">
<path d="M8.5 843.508V835.508C8.5 834.956 8.94772 834.508 9.5 834.508H17.0858C17.351 834.508 17.6054 834.613 17.7929 834.801L22.2071 839.215C22.3946 839.403 22.5 839.657 22.5 839.922V852.508C22.5 853.06 22.0523 853.508 21.5 853.508H16.5" stroke="#444444" stroke-linecap="round"/>
<path d="M4.5 843.508V835.508C4.5 834.956 4.94772 834.508 5.5 834.508H7" stroke="#333333" stroke-linecap="round"/>
<path d="M0.5 845.508V835.508C0.5 834.956 0.947715 834.508 1.5 834.508H3" stroke="#333333" stroke-linecap="round"/>
<path fill-rule="evenodd" clip-rule="evenodd" d="M16.5 836.008C16.7761 836.008 17 836.232 17 836.508V840.008H20.5C20.7761 840.008 21 840.232 21 840.508C21 840.784 20.7761 841.008 20.5 841.008H16.5C16.2239 841.008 16 840.784 16 840.508V836.508C16 836.232 16.2239 836.008 16.5 836.008Z" fill="#333333"/>
<path d="M9.5 846.508L6.5 853.508" stroke="#FF6F3D" stroke-linecap="round"/>
<path d="M11.5 853.508L15.5 850.008L11.5 846.508" stroke="#FF6F3D" stroke-linecap="round"/>
<path d="M4.5 853.508L0.5 850.008L4.5 846.508" stroke="#FF6F3D" stroke-linecap="round"/>
</g>
<g clip-path="url(#clip21_1_474)">
<path d="M22 879.508H9C8.72386 879.508 8.5 879.284 8.5 879.008V861.008C8.5 860.732 8.72386 860.508 9 860.508H17.0872C17.2194 860.508 17.3462 860.56 17.4399 860.654L22.3527 865.543C22.447 865.637 22.5 865.765 22.5 865.898V879.008C22.5 879.284 22.2761 879.508 22 879.508Z" stroke="#444444"/>
<path d="M7 860.508H5.5C4.94772 860.508 4.5 860.956 4.5 861.508V878.508C4.5 879.06 4.94772 879.508 5.5 879.508H7" stroke="#FF6F3D" stroke-linecap="round"/>
<path d="M3 860.508H1.5C0.947715 860.508 0.5 860.956 0.5 861.508V878.508C0.5 879.06 0.947715 879.508 1.5 879.508H3" stroke="#FF6F3D" stroke-linecap="round"/>
<path fill-rule="evenodd" clip-rule="evenodd" d="M16.5 862.008C16.7761 862.008 17 862.232 17 862.508V866.008H20.5C20.7761 866.008 21 866.232 21 866.508C21 866.784 20.7761 867.008 20.5 867.008H16.5C16.2239 867.008 16 866.784 16 866.508V862.508C16 862.232 16.2239 862.008 16.5 862.008Z" fill="#333333"/>
<path fill-rule="evenodd" clip-rule="evenodd" d="M16 869.508C16 869.232 15.7761 869.008 15.5 869.008C15.2239 869.008 15 869.232 15 869.508V872.076H12.5C12.2239 872.076 12 872.3 12 872.576C12 872.852 12.2239 873.076 12.5 873.076H15V875.553C15 875.829 15.2239 876.053 15.5 876.053C15.7761 876.053 16 875.829 16 875.553V873.076H18.5C18.7761 873.076 19 872.852 19 872.576C19 872.3 18.7761 872.076 18.5 872.076H16V869.508Z" fill="#FF6F3D"/>
</g>
<g clip-path="url(#clip22_1_474)">
<path d="M20 886.508H4C2.61929 886.508 1.5 887.627 1.5 889.008V899.008C1.5 900.389 2.61929 901.508 4 901.508H9.81898L14.0397 905.025C15.0167 905.839 16.5 905.145 16.5 903.873V901.508H20C21.3807 901.508 22.5 900.389 22.5 899.008V889.008C22.5 887.627 21.3807 886.508 20 886.508Z" stroke="#333333"/>
<path fill-rule="evenodd" clip-rule="evenodd" d="M6.5 892.508C6.5 892.232 6.72386 892.008 7 892.008H17C17.2761 892.008 17.5 892.232 17.5 892.508C17.5 892.784 17.2761 893.008 17 893.008H7C6.72386 893.008 6.5 892.784 6.5 892.508Z" fill="#FF6F3D"/>
<path fill-rule="evenodd" clip-rule="evenodd" d="M6.5 895.508C6.5 895.232 6.72386 895.008 7 895.008H14C14.2761 895.008 14.5 895.232 14.5 895.508C14.5 895.784 14.2761 896.008 14 896.008H7C6.72386 896.008 6.5 895.784 6.5 895.508Z" fill="#FF6F3D"/>
</g>
<g clip-path="url(#clip23_1_474)">
<path d="M8.5 918.508V913.508C8.5 912.956 8.94772 912.508 9.5 912.508H17.0858C17.351 912.508 17.6054 912.613 17.7929 912.801L22.2071 917.215C22.3946 917.403 22.5 917.657 22.5 917.922V930.508C22.5 931.06 22.0523 931.508 21.5 931.508H19.5" stroke="#444444" stroke-linecap="round"/>
<path d="M4.5 918.508V913.508C4.5 912.956 4.94772 912.508 5.5 912.508H7" stroke="#333333" stroke-linecap="round"/>
<path d="M0.5 918.508V913.508C0.5 912.956 0.947715 912.508 1.5 912.508H3" stroke="#333333" stroke-linecap="round"/>
<path fill-rule="evenodd" clip-rule="evenodd" d="M16.5 914.008C16.7761 914.008 17 914.232 17 914.508V918.008H20.5C20.7761 918.008 21 918.232 21 918.508C21 918.784 20.7761 919.008 20.5 919.008H16.5C16.2239 919.008 16 918.784 16 918.508V914.508C16 914.232 16.2239 914.008 16.5 914.008Z" fill="#333333"/>
<path fill-rule="evenodd" clip-rule="evenodd" d="M14.0004 929.508C14.0004 929.784 13.7766 930.008 13.5004 930.008C13.2243 930.008 13.0004 929.784 13.0004 929.508V923.508C13.0004 923.232 13.2243 923.008 13.5004 923.008C13.7766 923.008 14.0004 923.232 14.0004 923.508V924.008V924.013V926.008V926.019V927.006L14.0004 929.508ZM2.99219 929.646C2.91369 929.911 2.63543 930.062 2.37069 929.983C2.10594 929.905 1.95496 929.626 2.03345 929.362L3.74797 923.579C3.83975 923.27 4.11098 923.055 4.42236 923.028L4.42259 923.027C4.78906 922.992 5.12941 923.221 5.23408 923.574L6.95298 929.371C7.03148 929.636 6.8805 929.914 6.61575 929.993C6.351 930.071 6.07274 929.92 5.99425 929.655L5.49483 927.971L4.64173 927.971L4.22025 927.971L4.21569 927.971H3.48883L2.99219 929.646ZM3.78188 926.983L4.49183 924.588L5.19833 926.971H3.93501C3.88294 926.971 3.8318 926.975 3.78188 926.983ZM8.50043 930.008C8.77657 930.008 9.00043 929.784 9.00043 929.508L9.00044 927.006H11.0024C11.5536 927.006 12.0004 926.559 12.0004 926.008V924.008C12.0004 923.456 11.5527 923.008 11.0004 923.008H8.00044V929.508C8.00044 929.784 8.22429 930.008 8.50043 930.008ZM11.0004 924.008V926.013L9.00044 926.019V924.008H11.0004Z" fill="#FF6F3D"/>
<path d="M16.5 931.008C16.7761 931.008 17 931.232 17 931.508V931.508C17 931.784 16.7761 932.008 16.5 932.008H0.5C0.223858 932.008 0 931.784 0 931.508V931.508C0 931.232 0.223858 931.008 0.5 931.008H1.0625H1.06793H10.6363H10.625H11.6854L16.5 931.008Z" fill="#FF6F3D"/>
<path d="M16.5 921.008C16.7761 921.008 17 921.232 17 921.508V921.508C17 921.784 16.7761 922.008 16.5 922.008H0.5C0.223858 922.008 0 921.784 0 921.508V921.508C0 921.232 0.223858 921.008 0.5 921.008H1.0625H1.06793H10.6363H10.625H11.6854L16.5 921.008Z" fill="#FF6F3D"/>
<path d="M1 931.508C1 931.784 0.776144 932.008 0.500003 932.008V932.008C0.223863 932.008 7.12734e-06 931.784 6.93582e-06 931.508L0 921.508C-1.91527e-07 921.232 0.223857 921.008 0.5 921.008V921.008C0.776142 921.008 1 921.232 1 921.508V922.056V922.061V931.496V931.485V931.508Z" fill="#FF6F3D"/>
<path d="M17 931.508C17 931.784 16.7761 932.008 16.5 932.008V932.008C16.2239 932.008 16 931.784 16 931.508L16 921.508C16 921.232 16.2239 921.008 16.5 921.008V921.008C16.7761 921.008 17 921.232 17 921.508V922.056V922.061V931.496V931.485V931.508Z" fill="#FF6F3D"/>
</g>
<rect x="5" y="956" width="14" height="1" rx="0.5" fill="#333333"/>
<rect x="5" y="939" width="14" height="1" rx="0.5" fill="#333333"/>
<rect x="1.5" y="941.492" width="21" height="13" rx="1.5" stroke="#FF6F3D"/>
<path d="M14.9035 947.143C15.5509 947.531 15.5509 948.469 14.9035 948.857L11.1805 951.091C10.514 951.491 9.66602 951.011 9.66602 950.234L9.66602 945.766C9.66602 944.989 10.514 944.509 11.1805 944.909L14.9035 947.143Z" fill="#FF6F3D"/>
<defs>
<clipPath id="clip0_1_474">
<rect width="24" height="24" fill="white"/>
</clipPath>
<clipPath id="clip1_1_474">
<rect width="24" height="24" fill="white" transform="translate(0 78)"/>
</clipPath>
<clipPath id="clip2_1_474">
<rect width="24" height="24" fill="white" transform="translate(0 104)"/>
</clipPath>
<clipPath id="clip3_1_474">
<rect width="24.0039" height="24.004" fill="white" transform="translate(0 130)"/>
</clipPath>
<clipPath id="clip4_1_474">
<rect width="24" height="24" fill="white" transform="translate(0 156.004)"/>
</clipPath>
<clipPath id="clip5_1_474">
<rect width="24.004" height="24.0039" fill="white" transform="translate(0 182.004)"/>
</clipPath>
<clipPath id="clip6_1_474">
<rect width="24" height="24" fill="white" transform="translate(0 208.008)"/>
</clipPath>
<clipPath id="clip7_1_474">
<rect width="24" height="24" fill="white" transform="translate(0 234.008)"/>
</clipPath>
<clipPath id="clip8_1_474">
<rect width="24" height="24" fill="white" transform="translate(0 260.008)"/>
</clipPath>
<clipPath id="clip9_1_474">
<rect width="24" height="24" fill="white" transform="translate(0 286.008)"/>
</clipPath>
<clipPath id="clip10_1_474">
<rect width="24" height="24" fill="white" transform="translate(0 312.008)"/>
</clipPath>
<clipPath id="clip11_1_474">
<rect width="24" height="24" fill="white" transform="translate(0 338.008)"/>
</clipPath>
<clipPath id="clip12_1_474">
<rect width="24.0001" height="24" fill="white" transform="translate(0 416.008)"/>
</clipPath>
<clipPath id="clip13_1_474">
<rect width="24" height="24" fill="white" transform="translate(0 468.008)"/>
</clipPath>
<clipPath id="clip14_1_474">
<rect width="24" height="24" fill="white" transform="translate(0 676.008)"/>
</clipPath>
<clipPath id="clip15_1_474">
<rect width="24" height="24" fill="white" transform="translate(0 702.008)"/>
</clipPath>
<clipPath id="clip16_1_474">
<rect width="24" height="24" fill="white" transform="translate(0 728.008)"/>
</clipPath>
<clipPath id="clip17_1_474">
<rect width="24" height="24" fill="white" transform="translate(0 754.008)"/>
</clipPath>
<clipPath id="clip18_1_474">
<rect width="24" height="24" fill="white" transform="translate(0 780.008)"/>
</clipPath>
<clipPath id="clip19_1_474">
<rect width="24" height="24" fill="white" transform="translate(0 806.008)"/>
</clipPath>
<clipPath id="clip20_1_474">
<rect width="24" height="24" fill="white" transform="translate(0 832.008)"/>
</clipPath>
<clipPath id="clip21_1_474">
<rect width="24" height="24" fill="white" transform="translate(0 858.008)"/>
</clipPath>
<clipPath id="clip22_1_474">
<rect width="24.0001" height="24" fill="white" transform="translate(0 884.008)"/>
</clipPath>
<clipPath id="clip23_1_474">
<rect width="24" height="24" fill="white" transform="translate(0 910.008)"/>
</clipPath>
</defs>
</svg>