<svg width="180" height="90" viewBox="0 0 180 90" fill="none" xmlns="http://www.w3.org/2000/svg">
<g opacity="0.8">
<rect y="0.0151367" width="180" height="88" fill="url(#paint0_linear_1151_23495)"/>
<path d="M156.396 41.9341L157.16 44.5366L159.825 45.2826L157.16 46.0287L156.396 48.6312L155.632 46.0287L152.966 45.2826L155.632 44.5366L156.396 41.9341Z" fill="#FFF400"/>
<path d="M129.025 38.7007L129.789 41.3032L132.455 42.0492L129.789 42.7953L129.025 45.3978L128.261 42.7953L125.596 42.0492L128.261 41.3032L129.025 38.7007Z" fill="#FFF400"/>
<path d="M62.9991 60.2544L63.2952 61.2629L64.3281 61.552L63.2952 61.8411L62.9991 62.8496L62.703 61.8411L61.6702 61.552L62.703 61.2629L62.9991 60.2544Z" fill="#01FFFF"/>
<path d="M8.30713 32.2349L9.1052 34.957L11.8892 35.7373L9.1052 36.5176L8.30713 39.2397L7.50906 36.5176L4.7251 35.7373L7.50906 34.957L8.30713 32.2349Z" fill="#FFF400"/>
<path d="M57.6108 12.4775L58.0997 14.1348L59.7971 14.6122L58.0997 15.0862L57.6108 16.7468L57.1254 15.0862L55.4246 14.6122L57.1254 14.1348L57.6108 12.4775Z" fill="#01FFFF"/>
<path d="M27.6687 58.0991L28.1576 59.7564L29.8549 60.2337L28.1576 60.7077L27.6687 62.3684L27.1832 60.7077L25.4824 60.2337L27.1832 59.7564L27.6687 58.0991Z" fill="#FFF400"/>
<path d="M25.4679 31.5166L26.1192 33.7386L28.3964 34.374L26.1192 35.0094L25.4679 37.2313L24.8167 35.0094L22.5435 34.374L24.8167 33.7386L25.4679 31.5166Z" fill="#01FFFF"/>
<path d="M47.9944 20.3804L48.5487 22.273L50.487 22.8142L48.5487 23.3554L47.9944 25.248L47.4401 23.3554L45.5051 22.8142L47.4401 22.273L47.9944 20.3804Z" fill="#FFF400"/>
<path d="M11.6449 55.7642L12.409 58.3667L15.0744 59.1127L12.409 59.8588L11.6449 62.4613L10.8808 59.8588L8.21533 59.1127L10.8808 58.3667L11.6449 55.7642Z" fill="#F801BD"/>
<path d="M17.4432 48.3999L17.7393 49.4084L18.7722 49.6975L17.7393 49.9866L17.4432 50.9917L17.1471 49.9866L16.1143 49.6975L17.1471 49.4084L17.4432 48.3999Z" fill="#01FFFF"/>
<path d="M51.5065 67.6187L52.2706 70.2212L54.936 70.9672L52.2706 71.7133L51.5065 74.3157L50.7424 71.7133L48.0769 70.9672L50.7424 70.2212L51.5065 67.6187Z" fill="#FFF400"/>
<path d="M20.568 16.7881L21.0282 18.3577L22.6337 18.8077L21.0282 19.2524L20.568 20.822L20.1077 19.2524L18.5022 18.8077L20.1077 18.3577L20.568 16.7881Z" fill="#F801BD"/>
<path d="M49.3587 42.1138L49.9755 44.2074L52.1161 44.8031L49.9755 45.4046L49.3587 47.4923L48.748 45.4046L46.6074 44.8031L48.748 44.2074L49.3587 42.1138Z" fill="#F801BD"/>
<path fill-rule="evenodd" clip-rule="evenodd" d="M33.1541 9.78287L40.8109 24.8354L34.3528 9.25488L33.1541 9.78287ZM23.8717 13.9854L36.4676 24.0579L24.6285 13.1449L23.8717 13.9854ZM34.7778 27.7009L15.397 25.7959L15.5752 24.5228L34.7778 27.7009ZM19.4705 59.5537L34.8286 52.5787L19.0181 58.5108L19.4705 59.5537ZM42.9301 61.3097L35.915 74.9184L34.9207 74.3852L42.9301 61.3097ZM25.0287 68.9433L36.8212 58.5667L24.2865 68.0772L25.0287 68.9433ZM142.006 63.1282L151.16 72.1503L150.428 72.8078L142.006 63.1282ZM160.74 66.2278L148.19 56.192L159.986 67.0652L160.74 66.2278ZM149.292 50.0079L165.66 51.6167L165.509 52.692L149.292 50.0079ZM163.899 24.7939L150.027 31.0939L164.307 25.7359L163.899 24.7939ZM147.883 25.221L158.781 14.7513L159.532 15.5526L147.883 25.221ZM145.231 11.836L141.026 24.2594L146.145 12.1672L145.231 11.836Z" fill="url(#paint1_linear_1151_23495)"/>
<path d="M167.734 14.0942L168.203 15.6848L169.832 16.138L168.203 16.5954L167.734 18.1859L167.27 16.5954L165.641 16.138L167.27 15.6848L167.734 14.0942Z" fill="#01FFFF"/>
<path d="M157.636 31.6963L158.1 33.2868L159.729 33.7442L158.1 34.1975L157.636 35.788L157.167 34.1975L155.538 33.7442L157.167 33.2868L157.636 31.6963Z" fill="#01FFFF"/>
<path d="M159.188 71.7495L159.551 72.9857L160.812 73.34L159.551 73.6944L159.188 74.9306L158.825 73.6944L157.559 73.34L158.825 72.9857L159.188 71.7495Z" fill="#FFF400"/>
<path d="M139.653 74.9824L140.083 76.4493L141.585 76.8696L140.083 77.2899L139.653 78.7568L139.222 77.2899L137.72 76.8696L139.222 76.4493L139.653 74.9824Z" fill="#FFF400"/>
<path d="M170.285 39.7788L170.829 41.633L172.728 42.1646L170.829 42.6961L170.285 44.5504L169.745 42.6961L167.845 42.1646L169.745 41.633L170.285 39.7788Z" fill="#01FFFF"/>
<path d="M164.246 56.1235L164.99 58.6888L167.618 59.4242L164.99 60.1511L164.246 62.7164L163.493 60.1511L160.865 59.4242L163.493 58.6888L164.246 56.1235Z" fill="#F801BD"/>
<path d="M136.634 63.1284L136.883 63.9772L137.756 64.2204L136.883 64.4635L136.634 65.3123L136.385 64.4635L135.515 64.2204L136.385 63.9772L136.634 63.1284Z" fill="#F801BD"/>
<path d="M172.766 27.2061L173.33 29.1279L175.298 29.6784L173.33 30.2288L172.766 32.1507L172.202 30.2288L170.234 29.6784L172.202 29.1279L172.766 27.2061Z" fill="#F801BD"/>
<path d="M148.518 58.0991L149.082 60.021L151.06 60.5714L149.082 61.1219L148.518 63.0438L147.954 61.1219L145.986 60.5714L147.954 60.021L148.518 58.0991Z" fill="#F801BD"/>
<path d="M148.666 16.0698L149.261 18.1054L151.345 18.6864L149.261 19.2715L148.666 21.3029L148.071 19.2715L145.986 18.6864L148.071 18.1054L148.666 16.0698Z" fill="#F801BD"/>
<path d="M44.6175 29.3608H145.251V56.2128L140.751 60.7929H35.9531V37.8163L44.6175 29.3608Z" fill="url(#paint2_linear_1151_23495)"/>
<g filter="url(#filter0_bd_1151_23495)">
<mask id="path-27-inside-1_1151_23495" fill="white">
<path fill-rule="evenodd" clip-rule="evenodd" d="M146.169 27.2056H44.5866L38.8921 32.7814V58.0988H141.354L146.169 53.0742V27.2056Z"/>
</mask>
<path fill-rule="evenodd" clip-rule="evenodd" d="M146.169 27.2056H44.5866L38.8921 32.7814V58.0988H141.354L146.169 53.0742V27.2056Z" fill="white" fill-opacity="0.15" shape-rendering="crispEdges"/>
<path d="M44.5866 27.2056V26.2056H44.1785L43.887 26.4911L44.5866 27.2056ZM146.169 27.2056H147.169V26.2056H146.169V27.2056ZM38.8921 32.7814L38.1925 32.0669L37.8921 32.361V32.7814H38.8921ZM38.8921 58.0988H37.8921V59.0988H38.8921V58.0988ZM141.354 58.0988V59.0988H141.781L142.076 58.7907L141.354 58.0988ZM146.169 53.0742L146.891 53.7661L147.169 53.476V53.0742H146.169ZM44.5866 28.2056H146.169V26.2056H44.5866V28.2056ZM39.5917 33.4959L45.2862 27.9201L43.887 26.4911L38.1925 32.0669L39.5917 33.4959ZM39.8921 58.0988V32.7814H37.8921V58.0988H39.8921ZM141.354 57.0988H38.8921V59.0988H141.354V57.0988ZM142.076 58.7907L146.891 53.7661L145.447 52.3822L140.632 57.4069L142.076 58.7907ZM145.169 27.2056V53.0742H147.169V27.2056H145.169Z" fill="url(#paint3_linear_1151_23495)" mask="url(#path-27-inside-1_1151_23495)"/>
</g>
<path d="M38.8921 27.2056H43.3007L38.8921 31.5163V27.2056Z" fill="#13E8FF"/>
<path d="M48.5003 47.0151V46.1651C49.1736 45.5651 49.747 45.0085 50.2203 44.4951C50.7003 43.9818 51.067 43.5051 51.3203 43.0651C51.5736 42.6185 51.7003 42.2051 51.7003 41.8251C51.7003 41.5851 51.657 41.3751 51.5703 41.1951C51.4836 41.0151 51.357 40.8785 51.1903 40.7851C51.0303 40.6851 50.8303 40.6351 50.5903 40.6351C50.3236 40.6351 50.077 40.7118 49.8503 40.8651C49.6303 41.0118 49.427 41.1885 49.2403 41.3951L48.4203 40.6051C48.767 40.2318 49.1203 39.9518 49.4803 39.7651C49.847 39.5718 50.2803 39.4751 50.7803 39.4751C51.247 39.4751 51.6536 39.5718 52.0003 39.7651C52.3536 39.9518 52.627 40.2151 52.8203 40.5551C53.0136 40.8951 53.1103 41.2951 53.1103 41.7551C53.1103 42.2018 52.997 42.6585 52.7703 43.1251C52.5503 43.5851 52.2536 44.0451 51.8803 44.5051C51.507 44.9651 51.0936 45.4185 50.6403 45.8651C50.8336 45.8385 51.0403 45.8185 51.2603 45.8051C51.487 45.7851 51.687 45.7751 51.8603 45.7751H53.4603V47.0151H48.5003ZM56.9188 47.1551C56.4188 47.1551 55.9788 47.0118 55.5988 46.7251C55.2254 46.4318 54.9321 45.9985 54.7188 45.4251C54.5121 44.8451 54.4088 44.1285 54.4088 43.2751C54.4088 42.4285 54.5121 41.7251 54.7188 41.1651C54.9321 40.5985 55.2254 40.1751 55.5988 39.8951C55.9788 39.6151 56.4188 39.4751 56.9188 39.4751C57.4254 39.4751 57.8654 39.6185 58.2388 39.9051C58.6121 40.1851 58.9021 40.6051 59.1087 41.1651C59.3221 41.7251 59.4288 42.4285 59.4288 43.2751C59.4288 44.1285 59.3221 44.8451 59.1087 45.4251C58.9021 45.9985 58.6121 46.4318 58.2388 46.7251C57.8654 47.0118 57.4254 47.1551 56.9188 47.1551ZM56.9188 46.0051C57.1388 46.0051 57.3321 45.9218 57.4988 45.7551C57.6654 45.5885 57.7954 45.3085 57.8888 44.9151C57.9821 44.5151 58.0288 43.9685 58.0288 43.2751C58.0288 42.5885 57.9821 42.0518 57.8888 41.6651C57.7954 41.2718 57.6654 40.9985 57.4988 40.8451C57.3321 40.6851 57.1388 40.6051 56.9188 40.6051C56.7121 40.6051 56.5221 40.6851 56.3488 40.8451C56.1821 40.9985 56.0488 41.2718 55.9488 41.6651C55.8488 42.0518 55.7988 42.5885 55.7988 43.2751C55.7988 43.9685 55.8488 44.5151 55.9488 44.9151C56.0488 45.3085 56.1821 45.5885 56.3488 45.7551C56.5221 45.9218 56.7121 46.0051 56.9188 46.0051ZM60.2972 47.0151V46.1651C60.9705 45.5651 61.5439 45.0085 62.0172 44.4951C62.4972 43.9818 62.8639 43.5051 63.1172 43.0651C63.3705 42.6185 63.4972 42.2051 63.4972 41.8251C63.4972 41.5851 63.4539 41.3751 63.3672 41.1951C63.2805 41.0151 63.1539 40.8785 62.9872 40.7851C62.8272 40.6851 62.6272 40.6351 62.3872 40.6351C62.1205 40.6351 61.8739 40.7118 61.6472 40.8651C61.4272 41.0118 61.2239 41.1885 61.0372 41.3951L60.2172 40.6051C60.5639 40.2318 60.9172 39.9518 61.2772 39.7651C61.6439 39.5718 62.0772 39.4751 62.5772 39.4751C63.0439 39.4751 63.4505 39.5718 63.7972 39.7651C64.1505 39.9518 64.4239 40.2151 64.6172 40.5551C64.8105 40.8951 64.9072 41.2951 64.9072 41.7551C64.9072 42.2018 64.7939 42.6585 64.5672 43.1251C64.3472 43.5851 64.0505 44.0451 63.6772 44.5051C63.3039 44.9651 62.8905 45.4185 62.4372 45.8651C62.6305 45.8385 62.8372 45.8185 63.0572 45.8051C63.2839 45.7851 63.4839 45.7751 63.6572 45.7751H65.2572V47.0151H60.2972ZM69.1356 47.0151V42.4651C69.1356 42.2518 69.1423 41.9985 69.1556 41.7051C69.169 41.4051 69.1823 41.1451 69.1956 40.9251H69.1456C69.059 41.1251 68.9656 41.3251 68.8656 41.5251C68.7656 41.7251 68.6623 41.9285 68.5556 42.1351L67.4056 43.9751H71.3856V45.0951H65.9756V44.0951L68.7356 39.6051H70.5056V47.0151H69.1356ZM82.5797 38.5351L83.1697 39.5051C82.823 39.5985 82.443 39.6818 82.0297 39.7551C81.623 39.8285 81.1964 39.8918 80.7497 39.9451C80.3097 39.9985 79.8697 40.0418 79.4297 40.0751C78.9897 40.1085 78.563 40.1318 78.1497 40.1451C78.1364 40.0051 78.0997 39.8451 78.0397 39.6651C77.9864 39.4785 77.9264 39.3218 77.8597 39.1951C78.273 39.1685 78.693 39.1351 79.1197 39.0951C79.5464 39.0551 79.9664 39.0085 80.3797 38.9551C80.7997 38.9018 81.1964 38.8418 81.5697 38.7751C81.943 38.7018 82.2797 38.6218 82.5797 38.5351ZM79.3497 42.2451L79.8697 43.2351C79.5697 43.3418 79.263 43.4385 78.9497 43.5251C78.6364 43.6051 78.3497 43.6718 78.0897 43.7251C78.0697 43.6051 78.033 43.4651 77.9797 43.3051C77.9264 43.1451 77.873 43.0051 77.8197 42.8851C78.073 42.7918 78.3397 42.6885 78.6197 42.5751C78.8997 42.4618 79.143 42.3518 79.3497 42.2451ZM77.5897 40.8451H83.5097V41.9251H77.5897V40.8451ZM79.9797 39.3851H81.0797V46.9451H79.9797V39.3851ZM77.8197 42.8851L78.8697 43.2151V47.8951H77.8197V42.8851ZM81.3597 42.5851H83.1897V47.9251H82.1297V43.5951H81.3597V42.5851ZM78.4097 44.4551H79.6797V45.4451H78.4097V44.4551ZM81.3497 44.4551H82.6797V45.4351H81.3497V44.4551ZM78.2297 46.4151H82.3997V47.4851H78.2297V46.4151ZM74.1697 43.6351C74.5697 43.5551 75.0497 43.4485 75.6097 43.3151C76.1697 43.1751 76.7364 43.0318 77.3097 42.8851L77.4497 43.9551C76.9297 44.1018 76.403 44.2485 75.8697 44.3951C75.343 44.5418 74.8597 44.6785 74.4197 44.8051L74.1697 43.6351ZM74.3697 40.4151H77.2997V41.5151H74.3697V40.4151ZM75.3097 38.5151H76.4697V46.5851C76.4697 46.8518 76.443 47.0651 76.3897 47.2251C76.343 47.3851 76.243 47.5151 76.0897 47.6151C75.943 47.7085 75.763 47.7685 75.5497 47.7951C75.343 47.8218 75.093 47.8351 74.7997 47.8351C74.7864 47.6885 74.7497 47.5051 74.6897 47.2851C74.6297 47.0718 74.563 46.8885 74.4897 46.7351C74.6297 46.7418 74.7664 46.7451 74.8997 46.7451C75.033 46.7451 75.123 46.7451 75.1697 46.7451C75.263 46.7451 75.3097 46.6918 75.3097 46.5851V38.5151ZM89.7997 38.6451H91.0197V47.9051H89.7997V38.6451ZM88.0997 39.0751L89.2597 39.3051C89.1664 39.7585 89.053 40.2085 88.9197 40.6551C88.7864 41.1018 88.6364 41.5218 88.4697 41.9151C88.3097 42.3018 88.1397 42.6418 87.9597 42.9351C87.8864 42.8751 87.783 42.8085 87.6497 42.7351C87.523 42.6618 87.393 42.5918 87.2597 42.5251C87.133 42.4518 87.0197 42.3985 86.9197 42.3651C87.0997 42.0985 87.2664 41.7885 87.4197 41.4351C87.573 41.0751 87.7064 40.6951 87.8197 40.2951C87.933 39.8885 88.0264 39.4818 88.0997 39.0751ZM88.4897 40.4551H93.1197V41.6351H88.1897L88.4897 40.4551ZM87.0897 43.3651H93.5897V44.5351H87.0897V43.3651ZM86.3497 38.5551L87.4897 38.9151C87.2764 39.4751 87.0264 40.0418 86.7397 40.6151C86.453 41.1818 86.1397 41.7185 85.7997 42.2251C85.4664 42.7318 85.1197 43.1785 84.7597 43.5651C84.7197 43.4651 84.663 43.3385 84.5897 43.1851C84.5164 43.0251 84.4364 42.8651 84.3497 42.7051C84.263 42.5451 84.183 42.4151 84.1097 42.3151C84.4097 42.0085 84.6964 41.6551 84.9697 41.2551C85.2497 40.8551 85.5064 40.4251 85.7397 39.9651C85.9797 39.5051 86.183 39.0351 86.3497 38.5551ZM85.3597 41.3251L86.4997 40.1851V40.1951V47.8951H85.3597V41.3251ZM94.7197 39.0951H103.21V40.2351H94.7197V39.0951ZM94.3897 42.6851H103.5V43.8351H94.3897V42.6851ZM100.18 39.7551H101.44V47.9251H100.18V39.7551ZM96.6497 39.7651H97.8897V42.3951C97.8897 42.8751 97.863 43.3685 97.8097 43.8751C97.7564 44.3751 97.643 44.8685 97.4697 45.3551C97.303 45.8418 97.0464 46.3085 96.6997 46.7551C96.3597 47.1951 95.903 47.5951 95.3297 47.9551C95.2564 47.8618 95.163 47.7585 95.0497 47.6451C94.9364 47.5318 94.8164 47.4218 94.6897 47.3151C94.5697 47.2085 94.4597 47.1218 94.3597 47.0551C94.873 46.7485 95.283 46.4085 95.5897 46.0351C95.8964 45.6551 96.1264 45.2651 96.2797 44.8651C96.433 44.4585 96.533 44.0451 96.5797 43.6251C96.6264 43.2051 96.6497 42.7918 96.6497 42.3851V39.7651ZM108.22 43.0051C108.646 44.0318 109.316 44.8685 110.23 45.5151C111.143 46.1618 112.306 46.6018 113.72 46.8351C113.64 46.9151 113.55 47.0218 113.45 47.1551C113.35 47.2885 113.256 47.4218 113.17 47.5551C113.09 47.6951 113.023 47.8185 112.97 47.9251C111.983 47.7251 111.123 47.4218 110.39 47.0151C109.656 46.6085 109.026 46.0985 108.5 45.4851C107.98 44.8651 107.543 44.1418 107.19 43.3151L108.22 43.0051ZM111.47 42.6051H111.71L111.93 42.5551L112.77 42.9451C112.536 43.6585 112.23 44.2851 111.85 44.8251C111.47 45.3651 111.026 45.8351 110.52 46.2351C110.02 46.6351 109.466 46.9718 108.86 47.2451C108.26 47.5185 107.62 47.7451 106.94 47.9251C106.873 47.7651 106.776 47.5818 106.65 47.3751C106.53 47.1685 106.413 46.9985 106.3 46.8651C106.913 46.7385 107.493 46.5585 108.04 46.3251C108.586 46.0918 109.086 45.8085 109.54 45.4751C109.993 45.1418 110.383 44.7518 110.71 44.3051C111.036 43.8585 111.29 43.3585 111.47 42.8051V42.6051ZM107.84 42.6051H111.64V43.7651H107.5L107.84 42.6051ZM108.33 38.4451L109.68 38.6651C109.546 39.6585 109.366 40.5818 109.14 41.4351C108.913 42.2818 108.62 43.0618 108.26 43.7751C107.906 44.4818 107.463 45.1151 106.93 45.6751C106.396 46.2351 105.753 46.7218 105 47.1351C104.953 47.0485 104.876 46.9451 104.77 46.8251C104.67 46.6985 104.56 46.5751 104.44 46.4551C104.326 46.3351 104.22 46.2385 104.12 46.1651C105.026 45.6851 105.76 45.0718 106.32 44.3251C106.886 43.5718 107.326 42.7018 107.64 41.7151C107.96 40.7285 108.19 39.6385 108.33 38.4451ZM110.61 39.1051L111.54 38.5551C111.666 38.6885 111.806 38.8418 111.96 39.0151C112.113 39.1818 112.26 39.3451 112.4 39.5051C112.54 39.6651 112.656 39.8051 112.75 39.9251L111.77 40.5551C111.69 40.4285 111.583 40.2818 111.45 40.1151C111.316 39.9485 111.173 39.7785 111.02 39.6051C110.873 39.4251 110.736 39.2585 110.61 39.1051ZM105.27 42.0051C105.25 41.9251 105.213 41.8185 105.16 41.6851C105.113 41.5518 105.066 41.4151 105.02 41.2751C104.973 41.1351 104.926 41.0185 104.88 40.9251C104.953 40.8985 105.026 40.8518 105.1 40.7851C105.173 40.7118 105.243 40.6185 105.31 40.5051C105.35 40.4385 105.413 40.3151 105.5 40.1351C105.586 39.9551 105.676 39.7418 105.77 39.4951C105.863 39.2485 105.943 38.9918 106.01 38.7251L107.27 38.9251C107.183 39.2185 107.076 39.5151 106.95 39.8151C106.823 40.1151 106.69 40.3985 106.55 40.6651C106.416 40.9251 106.29 41.1518 106.17 41.3451V41.3651C106.17 41.3651 106.123 41.3885 106.03 41.4351C105.943 41.4751 105.84 41.5285 105.72 41.5951C105.6 41.6618 105.493 41.7318 105.4 41.8051C105.313 41.8785 105.27 41.9451 105.27 42.0051ZM105.27 42.0051V41.1351L105.98 40.6351H113.39L113.38 41.7851H106.32C106.053 41.7851 105.82 41.8051 105.62 41.8451C105.426 41.8785 105.31 41.9318 105.27 42.0051ZM114.49 41.2151H123.39V42.4551H114.49V41.2151ZM119.63 41.7151C119.83 42.4751 120.106 43.1851 120.46 43.8451C120.813 44.5051 121.25 45.0818 121.77 45.5751C122.296 46.0685 122.91 46.4585 123.61 46.7451C123.51 46.8318 123.403 46.9418 123.29 47.0751C123.183 47.2085 123.076 47.3451 122.97 47.4851C122.87 47.6318 122.786 47.7618 122.72 47.8751C121.953 47.5151 121.293 47.0518 120.74 46.4851C120.193 45.9185 119.733 45.2585 119.36 44.5051C118.986 43.7451 118.673 42.9085 118.42 41.9951L119.63 41.7151ZM118.25 38.5251H119.56C119.553 39.0318 119.536 39.5685 119.51 40.1351C119.49 40.6951 119.44 41.2651 119.36 41.8451C119.28 42.4251 119.15 43.0018 118.97 43.5751C118.796 44.1418 118.55 44.6885 118.23 45.2151C117.916 45.7351 117.51 46.2218 117.01 46.6751C116.516 47.1285 115.913 47.5285 115.2 47.8751C115.106 47.7151 114.976 47.5385 114.81 47.3451C114.643 47.1518 114.473 46.9918 114.3 46.8651C114.98 46.5585 115.55 46.2051 116.01 45.8051C116.47 45.3985 116.843 44.9618 117.13 44.4951C117.423 44.0218 117.646 43.5318 117.8 43.0251C117.953 42.5118 118.056 41.9951 118.11 41.4751C118.17 40.9551 118.206 40.4451 118.22 39.9451C118.233 39.4451 118.243 38.9718 118.25 38.5251ZM124.58 39.1251H133.31V40.8351H132.17V40.0251H125.67V40.8351H124.58V39.1251ZM126.93 40.1951H128.04V42.9851H126.93V40.1951ZM129.83 40.1951H130.95V42.9851H129.83V40.1951ZM125.6 40.5551H132.3V41.2051H125.6V40.5551ZM125.71 41.6051H132.23V42.2151H125.71V41.6051ZM124.52 42.6051H133.38V43.4251H124.52V42.6051ZM127.12 42.8051L127.99 43.1551C127.756 43.4551 127.473 43.7418 127.14 44.0151C126.806 44.2818 126.443 44.5218 126.05 44.7351C125.663 44.9485 125.27 45.1218 124.87 45.2551C124.796 45.1218 124.69 44.9685 124.55 44.7951C124.41 44.6218 124.28 44.4818 124.16 44.3751C124.546 44.2818 124.926 44.1585 125.3 44.0051C125.68 43.8451 126.026 43.6618 126.34 43.4551C126.66 43.2485 126.92 43.0318 127.12 42.8051ZM130.87 42.7551C131.07 42.9685 131.32 43.1718 131.62 43.3651C131.92 43.5518 132.25 43.7185 132.61 43.8651C132.97 44.0051 133.336 44.1185 133.71 44.2051C133.59 44.3118 133.456 44.4585 133.31 44.6451C133.163 44.8251 133.05 44.9851 132.97 45.1251C132.59 45.0051 132.213 44.8418 131.84 44.6351C131.473 44.4285 131.133 44.1918 130.82 43.9251C130.506 43.6585 130.236 43.3818 130.01 43.0951L130.87 42.7551ZM128.22 38.6951L129.42 38.3851C129.506 38.5251 129.59 38.6885 129.67 38.8751C129.756 39.0551 129.813 39.2118 129.84 39.3451L128.58 39.6951C128.56 39.5685 128.513 39.4118 128.44 39.2251C128.373 39.0318 128.3 38.8551 128.22 38.6951ZM126.02 43.9851H132.03V46.2751H130.9V44.8451H127.11V46.3651H126.02V43.9851ZM128.46 45.0651H129.64C129.54 45.4851 129.39 45.8518 129.19 46.1651C128.99 46.4785 128.713 46.7451 128.36 46.9651C128.006 47.1851 127.546 47.3685 126.98 47.5151C126.413 47.6618 125.703 47.7818 124.85 47.8751C124.816 47.7418 124.753 47.5851 124.66 47.4051C124.573 47.2318 124.483 47.0885 124.39 46.9751C125.15 46.9151 125.776 46.8385 126.27 46.7451C126.763 46.6451 127.156 46.5185 127.45 46.3651C127.743 46.2118 127.963 46.0318 128.11 45.8251C128.263 45.6118 128.38 45.3585 128.46 45.0651ZM129.1 46.6051L129.7 45.8651C130 45.9385 130.326 46.0251 130.68 46.1251C131.033 46.2185 131.386 46.3218 131.74 46.4351C132.1 46.5418 132.436 46.6518 132.75 46.7651C133.07 46.8718 133.343 46.9751 133.57 47.0751L132.92 47.9251C132.706 47.8251 132.446 47.7151 132.14 47.5951C131.833 47.4751 131.506 47.3551 131.16 47.2351C130.813 47.1151 130.46 47.0018 130.1 46.8951C129.746 46.7818 129.413 46.6851 129.1 46.6051Z" fill="#FFF400"/>
</g>
<defs>
<filter id="filter0_bd_1151_23495" x="6.89209" y="24.2056" width="171.277" height="97.8931" filterUnits="userSpaceOnUse" color-interpolation-filters="sRGB">
<feFlood flood-opacity="0" result="BackgroundImageFix"/>
<feGaussianBlur in="BackgroundImageFix" stdDeviation="1.5"/>
<feComposite in2="SourceAlpha" operator="in" result="effect1_backgroundBlur_1151_23495"/>
<feColorMatrix in="SourceAlpha" type="matrix" values="0 0 0 0 0 0 0 0 0 0 0 0 0 0 0 0 0 0 127 0" result="hardAlpha"/>
<feOffset dy="32"/>
<feGaussianBlur stdDeviation="16"/>
<feComposite in2="hardAlpha" operator="out"/>
<feColorMatrix type="matrix" values="0 0 0 0 0.266667 0 0 0 0 0.172549 0 0 0 0 0.607843 0 0 0 0.25 0"/>
<feBlend mode="normal" in2="effect1_backgroundBlur_1151_23495" result="effect2_dropShadow_1151_23495"/>
<feBlend mode="normal" in="SourceGraphic" in2="effect2_dropShadow_1151_23495" result="shape"/>
</filter>
<linearGradient id="paint0_linear_1151_23495" x1="77.0357" y1="89.0151" x2="77.0357" y2="-1.48486" gradientUnits="userSpaceOnUse">
<stop stop-color="#01FFFF"/>
<stop offset="0.459739" stop-color="#8845FF"/>
<stop offset="1" stop-color="#292175"/>
</linearGradient>
<linearGradient id="paint1_linear_1151_23495" x1="26.11" y1="9.319" x2="153.479" y2="77.1699" gradientUnits="userSpaceOnUse">
<stop stop-color="#01FFFF"/>
<stop offset="1" stop-color="#8845FF"/>
</linearGradient>
<linearGradient id="paint2_linear_1151_23495" x1="10" y1="69.5151" x2="148.264" y2="36.747" gradientUnits="userSpaceOnUse">
<stop stop-color="#01FFFF"/>
<stop offset="1" stop-color="#8845FF"/>
</linearGradient>
<linearGradient id="paint3_linear_1151_23495" x1="50.988" y1="24.2858" x2="134.332" y2="35.548" gradientUnits="userSpaceOnUse">
<stop stop-color="#01FFFF"/>
<stop offset="1" stop-color="#8845FF"/>
</linearGradient>
</defs>
</svg>
