<svg width="178" height="86" viewBox="0 0 178 86" fill="none" xmlns="http://www.w3.org/2000/svg">
<path d="M118 0H178V86H118V0Z" fill="#FF6F3D"/>
<path fill-rule="evenodd" clip-rule="evenodd" d="M177 1H119V85H177V1ZM118 0V86H178V0H118Z" fill="white"/>
<path d="M0 0H60V86H0V0Z" fill="#5DC0E8"/>
<path fill-rule="evenodd" clip-rule="evenodd" d="M59 1H1V85H59V1ZM0 0V86H60V0H0Z" fill="white"/>
<path d="M59 0H119V86H59V0Z" fill="#8BB825"/>
<path fill-rule="evenodd" clip-rule="evenodd" d="M118 1H60V85H118V1ZM59 0V86H119V0H59Z" fill="white"/>
<path opacity="0.5" fill-rule="evenodd" clip-rule="evenodd" d="M28.3749 52.2169L19.6401 48.5112C18.896 48.1877 18.896 47.6877 19.6401 47.3936L22.6811 46.0995L28.3425 48.5112C29.0866 48.8347 30.2836 48.8347 30.9953 48.5112L36.6567 46.0995L39.6977 47.3936C40.4418 47.7171 40.4418 48.2171 39.6977 48.5112L30.9629 52.2169C30.2836 52.511 29.0866 52.511 28.3749 52.2169Z" fill="white"/>
<path opacity="0.75" fill-rule="evenodd" clip-rule="evenodd" d="M28.3465 47.631L19.6384 43.9209C18.8966 43.597 18.8966 43.0965 19.6384 42.802L22.6056 41.5359L28.3465 43.9798C29.0883 44.3037 30.2817 44.3037 30.9912 43.9798L36.7322 41.5359L39.6994 42.802C40.4412 43.1259 40.4412 43.6265 39.6994 43.9209L30.9912 47.631C30.2494 47.9549 29.0561 47.9549 28.3465 47.631Z" fill="white"/>
<path fill-rule="evenodd" clip-rule="evenodd" d="M28.3465 43.0931L19.6384 39.4364C18.8966 39.1172 18.8966 38.6238 19.6384 38.3336L28.3465 34.6769C29.0884 34.3577 30.2817 34.3577 30.9913 34.6769L39.6994 38.3336C40.4412 38.6529 40.4412 39.1462 39.6994 39.4364L30.9913 43.0931C30.2494 43.3833 29.0561 43.3833 28.3465 43.0931Z" fill="white"/>
<path opacity="0.5" fill-rule="evenodd" clip-rule="evenodd" d="M87.3749 52.2169L78.6401 48.5112C77.896 48.1877 77.896 47.6877 78.6401 47.3936L81.6811 46.0995L87.3425 48.5112C88.0866 48.8347 89.2836 48.8347 89.9953 48.5112L95.6567 46.0995L98.6977 47.3936C99.4418 47.7171 99.4418 48.2171 98.6977 48.5112L89.9629 52.2169C89.2836 52.511 88.0866 52.511 87.3749 52.2169Z" fill="white"/>
<path opacity="0.75" fill-rule="evenodd" clip-rule="evenodd" d="M87.3465 47.631L78.6384 43.9209C77.8966 43.597 77.8966 43.0965 78.6384 42.802L81.6056 41.5359L87.3465 43.9798C88.0883 44.3037 89.2817 44.3037 89.9912 43.9798L95.7322 41.5359L98.6994 42.802C99.4412 43.1259 99.4412 43.6265 98.6994 43.9209L89.9912 47.631C89.2494 47.9549 88.0561 47.9549 87.3465 47.631Z" fill="white"/>
<path fill-rule="evenodd" clip-rule="evenodd" d="M87.3465 43.0931L78.6384 39.4364C77.8966 39.1172 77.8966 38.6238 78.6384 38.3336L87.3465 34.6769C88.0884 34.3577 89.2817 34.3577 89.9913 34.6769L98.6994 38.3336C99.4412 38.6529 99.4412 39.1462 98.6994 39.4364L89.9913 43.0931C89.2494 43.3833 88.0561 43.3833 87.3465 43.0931Z" fill="white"/>
<path opacity="0.5" fill-rule="evenodd" clip-rule="evenodd" d="M146.375 52.2169L137.64 48.5112C136.896 48.1877 136.896 47.6877 137.64 47.3936L140.681 46.0995L146.343 48.5112C147.087 48.8347 148.284 48.8347 148.995 48.5112L154.657 46.0995L157.698 47.3936C158.442 47.7171 158.442 48.2171 157.698 48.5112L148.963 52.2169C148.284 52.511 147.087 52.511 146.375 52.2169Z" fill="white"/>
<path opacity="0.75" fill-rule="evenodd" clip-rule="evenodd" d="M146.347 47.631L137.638 43.9209C136.897 43.597 136.897 43.0965 137.638 42.802L140.606 41.5359L146.347 43.9798C147.088 44.3037 148.282 44.3037 148.991 43.9798L154.732 41.5359L157.699 42.802C158.441 43.1259 158.441 43.6265 157.699 43.9209L148.991 47.631C148.249 47.9549 147.056 47.9549 146.347 47.631Z" fill="white"/>
<path fill-rule="evenodd" clip-rule="evenodd" d="M146.347 43.0931L137.638 39.4364C136.897 39.1172 136.897 38.6238 137.638 38.3336L146.347 34.6769C147.088 34.3577 148.282 34.3577 148.991 34.6769L157.699 38.3336C158.441 38.6529 158.441 39.1462 157.699 39.4364L148.991 43.0931C148.249 43.3833 147.056 43.3833 146.347 43.0931Z" fill="white"/>
</svg>
