<svg width="180" height="90" viewBox="0 0 180 90" fill="none" xmlns="http://www.w3.org/2000/svg">
<g clip-path="url(#clip0_10854_31334)">
<rect width="180" height="90" fill="url(#paint0_linear_10854_31334)"/>
<path opacity="0.9" fill-rule="evenodd" clip-rule="evenodd" d="M195.364 87.6945L222.734 11.48C225.014 4.93598 221.719 1.64093 215.369 4.11461L139.154 31.4849C132.61 33.7648 125.513 40.8623 123.425 47.2145L96.0543 123.429C93.7745 129.973 97.0695 133.268 103.42 130.794L179.634 103.424C185.984 100.95 193.082 93.8529 195.364 87.6945Z" fill="url(#paint1_linear_10854_31334)"/>
<g style="mix-blend-mode:color-burn" opacity="0.2">
<path fill-rule="evenodd" clip-rule="evenodd" d="M49.3069 77.0795L22.2528 1.74566C19.9993 -4.72276 23.2563 -7.97974 29.5331 -5.53464L104.867 21.5194C111.335 23.7729 118.351 30.7884 120.415 37.0672L147.469 112.401C149.722 118.87 146.465 122.126 140.189 119.681L64.8547 92.6273C58.5779 90.1822 51.5624 83.1668 49.3069 77.0795Z" fill="url(#paint2_linear_10854_31334)"/>
</g>
<path opacity="0.2" fill-rule="evenodd" clip-rule="evenodd" d="M31.5235 -35.1109L100.527 -2.57802C106.405 0.262153 106.405 4.65152 100.527 7.23349L31.5235 39.7664C25.6455 42.6066 16.1895 42.6066 10.567 39.7664L-58.4363 7.23351C-64.3144 4.39333 -64.3144 0.00397064 -58.4363 -2.57801L10.5669 -35.1109C16.445 -37.6929 25.901 -37.6929 31.5235 -35.1109Z" fill="#CCCCCC"/>
<g style="mix-blend-mode:exclusion">
<path d="M98.1629 30.2321C93.6381 32.1216 89.4116 33.0664 85.4834 33.0664C81.5552 33.0664 78.5718 32.3951 76.5331 31.0525C74.4944 29.71 73.4751 27.8702 73.4751 25.5332C73.4751 24.0912 73.674 22.8233 74.0718 21.7293C74.5193 20.6354 75.29 19.4172 76.3839 18.0746C76.8812 19.0691 80.511 19.815 87.2734 20.3122C89.0635 20.4117 90.7541 20.4614 92.3453 20.4614H108.903L110.544 26.7266L107.113 32.0967L103.757 37.8398L99.2071 46.268C96.721 50.9918 95.1049 54.4227 94.3591 56.5608C93.6629 58.699 93.2403 60.1907 93.0911 61.036C92.7928 62.2791 92.6436 63.4476 92.6436 64.5415C92.6436 65.5857 92.9171 66.3813 93.464 66.9282C92.4696 68.7183 90.5055 70.0111 87.5718 70.8067C86.627 71.0553 85.5828 71.1796 84.4392 71.1796C83.2955 71.1796 82.2265 70.9559 81.232 70.5083C80.2375 70.0608 79.4171 69.489 78.7707 68.7929C77.5276 67.3012 76.906 65.71 76.906 64.0194C76.906 62.2791 77.1547 60.8122 77.6519 59.6188C78.1491 58.3757 78.7458 57.1824 79.4419 56.0387L98.1629 30.2321Z" fill="#AEFF00"/>
</g>
<g style="mix-blend-mode:hue">
<path d="M77.5028 18L85.7818 18.3729H104.652C105.398 18.3729 105.771 18.9199 105.771 20.0138C105.771 21.1077 105.298 22.2514 104.354 23.4448C103.459 24.6381 101.594 27 98.7597 30.5304C95.9751 34.0608 93.7376 36.9199 92.047 39.1077C87.0249 45.6215 83.5442 50.6436 81.605 54.174C79.6657 57.7044 78.6961 60.5884 78.6961 62.826C78.6961 63.8204 78.9448 64.6906 79.442 65.4365C79.9392 66.1326 80.5608 66.4807 81.3066 66.4807C82.1022 66.4807 82.7486 66.4061 83.2459 66.2569C82.7983 68.2459 81.8287 69.7127 80.337 70.6575C78.895 71.5525 77.3039 72 75.5635 72C73.8232 72 72.3066 71.4282 71.0138 70.2845C69.721 69.0912 69.0746 67.4006 69.0746 65.2127C69.0746 63.0249 69.7956 60.5635 71.2376 57.8287C72.7293 55.0442 74.5442 52.4337 76.6823 49.9972C78.8702 47.5111 81.232 44.9751 83.768 42.3895C86.3536 39.8039 88.7155 37.4669 90.8536 35.3785C95.9751 30.5553 98.5359 27.0746 98.5359 24.9365C98.5359 24.7376 98.4862 24.3895 98.3867 23.8923H82.5746C80.0387 23.8923 78.0249 24.2652 76.5331 25.0111C75.0414 25.7072 74.047 26.5773 73.5497 27.6215C73.1022 28.616 72.7541 29.6354 72.5055 30.6796C72.3066 31.674 72.0083 32.5442 71.6105 33.2901C71.2624 33.9862 70.7403 34.3343 70.0442 34.3343C69.3481 34.2845 69 34.1105 69 33.8122C69 33.7127 69.0746 33.489 69.2238 33.1409C69.3729 32.7928 69.547 32.1713 69.7459 31.2762C69.9945 30.3812 70.2431 29.337 70.4917 28.1436C71.4862 23.3204 72.4061 20.4365 73.2514 19.4917C74.0967 18.4972 75.5138 18 77.5028 18Z" fill="#BDECFF"/>
</g>
<path d="M76.4585 71.1796C76.4088 70.7321 76.3839 70.2597 76.3839 69.7625C76.3839 69.2155 76.3839 68.7183 76.3839 68.2707C76.3839 65.1381 77.0303 61.7072 78.3232 57.9779C79.6657 54.2486 81.3563 50.5194 83.395 46.7901C85.4337 43.0111 87.6961 39.4061 90.1823 35.9752C92.7182 32.4945 95.1547 29.4365 97.4917 26.8011H73.4751V21.5801H103.682V26.8011C101.196 29.2873 98.7099 32.3205 96.2237 35.9006C93.7375 39.431 91.5 43.1354 89.511 47.0138C87.5221 50.8923 85.906 54.6962 84.6629 58.4254C83.4696 62.1547 82.8729 65.4116 82.8729 68.1962C82.8729 68.7431 82.8729 69.2652 82.8729 69.7625C82.8729 70.2597 82.8977 70.7321 82.9475 71.1796H76.4585Z" fill="white"/>
</g>
<defs>
<linearGradient id="paint0_linear_10854_31334" x1="0.000346556" y1="-3.51563" x2="70.3829" y2="142.748" gradientUnits="userSpaceOnUse">
<stop stop-color="#FFC671"/>
<stop offset="0.59375" stop-color="#FF7541"/>
<stop offset="1" stop-color="#FF6F3D"/>
</linearGradient>
<linearGradient id="paint1_linear_10854_31334" x1="190.341" y1="-27.5302" x2="244.189" y2="115.469" gradientUnits="userSpaceOnUse">
<stop stop-color="#FFC671"/>
<stop offset="0.59375" stop-color="#FF7541"/>
<stop offset="1" stop-color="#FF6F3D"/>
</linearGradient>
<linearGradient id="paint2_linear_10854_31334" x1="147.408" y1="117.573" x2="13.7931" y2="-14.7513" gradientUnits="userSpaceOnUse">
<stop stop-color="#FF9B63"/>
<stop offset="1" stop-color="#FFC98A"/>
</linearGradient>
<clipPath id="clip0_10854_31334">
<rect width="180" height="90" fill="white"/>
</clipPath>
</defs>
</svg>
