<svg width="55" height="56" viewBox="0 0 55 56" fill="none" xmlns="http://www.w3.org/2000/svg">
<ellipse cx="29" cy="26.5" rx="26" ry="26.5" fill="url(#paint0_linear_14939_128560)"/>
<circle cx="26" cy="30" r="25.5" stroke="white"/>
<path d="M14.3204 38L18.8776 28.0391H12.8927V25.8809H21.6002V27.4912L17.0099 38H14.3204ZM23.2893 36.813C23.2893 36.3481 23.4138 35.9967 23.6628 35.7588C23.9118 35.5208 24.2743 35.4019 24.7502 35.4019C25.2095 35.4019 25.5637 35.5236 25.8127 35.7671C26.0673 36.0106 26.1945 36.3592 26.1945 36.813C26.1945 37.2502 26.0673 37.596 25.8127 37.8506C25.5581 38.0996 25.204 38.2241 24.7502 38.2241C24.2854 38.2241 23.9257 38.1024 23.6711 37.8589C23.4165 37.6099 23.2893 37.2612 23.2893 36.813ZM36.4998 38H28.0164V36.2153L31.0628 33.1357C31.9648 32.2116 32.5542 31.5724 32.8308 31.2183C33.1075 30.8586 33.3068 30.5265 33.4285 30.2222C33.5502 29.9178 33.6111 29.6024 33.6111 29.2759C33.6111 28.7889 33.4755 28.4264 33.2044 28.1885C32.9388 27.9505 32.5818 27.8315 32.1336 27.8315C31.6632 27.8315 31.2067 27.9395 30.764 28.1553C30.3212 28.3711 29.8592 28.6782 29.3777 29.0767L27.9832 27.4248C28.5808 26.9157 29.0761 26.556 29.469 26.3457C29.8619 26.1354 30.2908 25.9749 30.7557 25.8643C31.2205 25.748 31.7407 25.6899 32.3162 25.6899C33.0743 25.6899 33.7439 25.8283 34.325 26.105C34.906 26.3817 35.3571 26.769 35.678 27.2671C35.999 27.7651 36.1595 28.3351 36.1595 28.9771C36.1595 29.536 36.0599 30.0617 35.8606 30.5542C35.6669 31.0412 35.3626 31.542 34.9475 32.0566C34.538 32.5713 33.8131 33.3045 32.7727 34.2563L31.2122 35.7256V35.8418H36.4998V38Z" fill="white"/>
<defs>
<linearGradient id="paint0_linear_14939_128560" x1="3.0001" y1="-2.07031" x2="56.0292" y2="51.9906" gradientUnits="userSpaceOnUse">
<stop stop-color="#FFC671"/>
<stop offset="0.59375" stop-color="#FF7541"/>
<stop offset="1" stop-color="#FF6F3D"/>
</linearGradient>
</defs>
</svg>
