<svg width="24" height="30" viewBox="0 0 24 30" fill="none" xmlns="http://www.w3.org/2000/svg">
<path d="M1.50035 2.49997C1.50037 1.39541 2.3958 0.5 3.50035 0.5H16.5862C16.8514 0.5 17.1057 0.605357 17.2933 0.792893L22.2075 5.70711C22.395 5.89464 22.5004 6.149 22.5004 6.41421V27.5C22.5004 28.6046 21.6049 29.5 20.5004 29.5H3.50003C2.39545 29.5 1.50001 28.6046 1.50003 27.5L1.50035 2.49997Z" fill="white" stroke="#BBBBBB"/>
<path d="M16.5 0.5V5C16.5 5.82843 17.1716 6.5 18 6.5H22.5" stroke="#BBBBBB"/>
<rect x="5" y="19" width="5" height="2" rx="1" fill="#A9CBDD"/>
<rect x="5" y="15" width="5" height="2" rx="1" fill="#A9CBDD"/>
<rect x="5" y="11" width="14" height="2" rx="1" fill="#A9CBDD"/>
<rect x="12" y="15" width="12" height="12" rx="2" fill="#287CA9"/>
<path d="M22.4365 18.0742L20.8255 24.5002H19.0435L18.2965 21.3952C18.2785 21.3292 18.2575 21.2332 18.2335 21.1072C18.2095 20.9752 18.1795 20.8312 18.1435 20.6752C18.1135 20.5132 18.0865 20.3602 18.0625 20.2162C18.0385 20.0662 18.0205 19.9462 18.0085 19.8562C17.9965 19.9462 17.9755 20.0662 17.9455 20.2162C17.9215 20.3602 17.8945 20.5132 17.8645 20.6752C17.8345 20.8312 17.8045 20.9752 17.7745 21.1072C17.7505 21.2332 17.7295 21.3292 17.7115 21.3952L16.9555 24.5002H15.1825L13.5625 18.0742H15.0565L15.8215 21.4492C15.8455 21.5392 15.8725 21.6592 15.9025 21.8092C15.9325 21.9532 15.9625 22.1092 15.9925 22.2772C16.0225 22.4392 16.0495 22.5982 16.0735 22.7542C16.1035 22.9042 16.1245 23.0332 16.1365 23.1412C16.1545 22.9972 16.1785 22.8322 16.2085 22.6462C16.2445 22.4602 16.2805 22.2712 16.3165 22.0792C16.3525 21.8872 16.3885 21.7072 16.4245 21.5392C16.4605 21.3712 16.4935 21.2362 16.5235 21.1342L17.2885 18.0742H18.7195L19.4845 21.1342C19.5025 21.2362 19.5295 21.3712 19.5655 21.5392C19.6075 21.7072 19.6465 21.8902 19.6825 22.0882C19.7245 22.2802 19.7605 22.4692 19.7905 22.6552C19.8205 22.8412 19.8445 23.0032 19.8625 23.1412C19.8805 22.9912 19.9075 22.8112 19.9435 22.6012C19.9855 22.3852 20.0275 22.1722 20.0695 21.9622C20.1115 21.7462 20.1475 21.5782 20.1775 21.4582L20.9425 18.0742H22.4365Z" fill="white"/>
</svg>
