<svg xmlns="http://www.w3.org/2000/svg" viewBox="0 0 18 14"><defs><style>.cls-1{fill:#c8414b;}.cls-2{fill:#ffd250;}.cls-3{fill:#f5f5f5;}.cls-4{fill:#fab446;}.cls-5{fill:#ffb441;}.cls-6{fill:#5064aa;}.cls-7{fill:#ffa0d2;}.cls-8{fill:#b5b5b5;}</style></defs><title>24</title><g id="Layer_2" data-name="Layer 2"><g id="Layer_1-2" data-name="Layer 1"><g id="_24" data-name="24"><path class="cls-1" d="M1.3,13H16.7a.27.27,0,0,0,.3-.3V1.3a.27.27,0,0,0-.3-.3H1.3a.27.27,0,0,0-.3.3V12.7A.27.27,0,0,0,1.3,13Z"/><path class="cls-2" d="M17,3H1v8H17Z"/><path class="cls-1" d="M7.8,7,8,5.8a.22.22,0,0,0-.2-.2H7.6a.22.22,0,0,0-.2.2Z"/><path class="cls-3" d="M8.1,6.4H7.5V9.1h.6Z"/><path class="cls-4" d="M8.1,6.1H7.3v.3h.8Z"/><path class="cls-1" d="M8.2,7H6.8v.3H8.2Z"/><path class="cls-1" d="M8.2,8.3,7.4,8V7.7l.8.3Z"/><path class="cls-1" d="M3.6,7l.2-1.2a.22.22,0,0,0-.2-.2H3.5a.22.22,0,0,0-.2.2Z"/><path class="cls-3" d="M4.6,6.1a.27.27,0,0,0-.3.3V8.5c0,.4.3,1.1,1.4,1.1s1.4-.7,1.4-1.1V6.4a.27.27,0,0,0-.3-.3Z"/><path class="cls-1" d="M5.7,7.6H4.3V6.3A.27.27,0,0,1,4.6,6H5.7Z"/><path class="cls-1" d="M5.7,7.6H7.1v.8a.77.77,0,0,1-.7.8.77.77,0,0,1-.7-.8Z"/><path class="cls-4" d="M4.3,7.6H5.7v.8a.77.77,0,0,1-.7.8.77.77,0,0,1-.7-.8Z"/><path class="cls-1" d="M5.4,9V7.6H5.1V9.2C5.2,9.2,5.3,9.1,5.4,9Z"/><path class="cls-1" d="M4.9,9.2V7.6H4.6V9C4.7,9.1,4.8,9.2,4.9,9.2Z"/><path class="cls-5" d="M5.4,7H4.6v.3h.8Z"/><path class="cls-4" d="M5.4,6.4H4.6v.3h.8Z"/><path class="cls-4" d="M5.3,6.6H4.7v.6h.6Z"/><path class="cls-3" d="M3.9,6.4H3.3V9.1h.6Z"/><path class="cls-4" d="M4,8.9H3.2v.3H4Z"/><path class="cls-4" d="M4,6.1H3.2v.3H4Z"/><path class="cls-6" d="M4.2,9.2H3.1v.3H4.2Z"/><path class="cls-4" d="M8.3,8.9H7.5v.3h.8Z"/><path class="cls-6" d="M8.3,9.2H7.2v.3H8.3Z"/><path class="cls-4" d="M6.6,5.7H4.9V6H6.6Z"/><path class="cls-5" d="M5.9,4.8H5.6v.9h.3Z"/><path class="cls-3" d="M5.4,5.3A.46.46,0,0,1,5,4.8a.46.46,0,0,1,.4-.5.46.46,0,0,1,.4.5A.46.46,0,0,1,5.4,5.3Zm0-.7c-.1,0-.1.1-.1.2a.35.35,0,0,0,.1.2c.1,0,.1-.1.1-.2S5.5,4.6,5.4,4.6Z"/><path class="cls-3" d="M6,5.3a.46.46,0,0,1-.4-.5A.46.46,0,0,1,6,4.3a.46.46,0,0,1,.4.5A.46.46,0,0,1,6,5.3Zm0-.7c-.1,0-.1.1-.1.2A.35.35,0,0,0,6,5c.1,0,.1-.1.1-.2A.35.35,0,0,0,6,4.6Z"/><path class="cls-3" d="M6.5,5.6a.46.46,0,0,1-.4-.5.46.46,0,0,1,.4-.5.46.46,0,0,1,.4.5A.46.46,0,0,1,6.5,5.6Zm0-.7c-.1,0-.1.1-.1.2a.35.35,0,0,0,.1.2.35.35,0,0,0,.1-.2C6.7,5,6.6,4.9,6.5,4.9Z"/><path class="cls-3" d="M4.9,5.6a.46.46,0,0,1-.4-.5.46.46,0,0,1,.4-.5.46.46,0,0,1,.4.5A.46.46,0,0,1,4.9,5.6Zm0-.7c-.1,0-.1.1-.1.2a.35.35,0,0,0,.1.2c.1,0,.1-.1.1-.2A.35.35,0,0,0,4.9,4.9Z"/><path class="cls-4" d="M6.5,8.3v.2a.35.35,0,0,1-.1.2c-.1,0-.1-.1-.1-.2V8.3Zm.3-.4H6v.5a.46.46,0,0,0,.4.5.46.46,0,0,0,.4-.5Z"/><path class="cls-7" d="M6.4,7.3A.27.27,0,0,1,6.1,7V6.7a.27.27,0,0,1,.3-.3.27.27,0,0,1,.3.3V7A.32.32,0,0,1,6.4,7.3Z"/><path class="cls-6" d="M6.1,7.6a.46.46,0,0,1-.4.5.46.46,0,0,1-.4-.5.46.46,0,0,1,.4-.5A.66.66,0,0,1,6.1,7.6Z"/><path class="cls-4" d="M5.9,4.2H5.6v.9h.3Z"/><path class="cls-1" d="M4.9,5.7l-.3-.3.2-.2a1.21,1.21,0,0,1,1.8,0l.2.2-.3.3Z"/><path class="cls-2" d="M5.8,5.4a.35.35,0,0,1-.1.2c-.1,0-.1-.1-.1-.2a.35.35,0,0,1,.1-.2C5.8,5.3,5.8,5.3,5.8,5.4Z"/><path class="cls-2" d="M5.3,5.4a.35.35,0,0,1-.1.2c-.1,0-.1-.1-.1-.2a.35.35,0,0,1,.1-.2C5.2,5.3,5.3,5.3,5.3,5.4Z"/><path class="cls-2" d="M6.4,5.4a.35.35,0,0,1-.1.2c-.1,0-.1-.1-.1-.2a.35.35,0,0,1,.1-.2C6.3,5.3,6.4,5.3,6.4,5.4Z"/><path class="cls-1" d="M4.6,7H3.2v.3H4.6Z"/><path class="cls-1" d="M3.2,8.3,4,7.9V7.6l-.8.3Z"/><path class="cls-8" d="M17,1V13H1V1Zm0-1H1A.94.94,0,0,0,0,1V13a.94.94,0,0,0,1,1H17a.94.94,0,0,0,1-1V1A.94.94,0,0,0,17,0Z"/></g></g></g></svg>