<svg xmlns="http://www.w3.org/2000/svg" viewBox="0 0 18 14"><defs><style>.cls-1{fill:#e92737;}.cls-2{fill:#0d5b2f;}.cls-3{fill:#ff0;}.cls-4{fill:#fff;}.cls-5{fill:red;}.cls-6{fill:#b5b5b5;}</style></defs><title>19</title><g id="Layer_2" data-name="Layer 2"><g id="Layer_1-2" data-name="Layer 1"><g id="_19" data-name="19"><path class="cls-1" d="M17,13H1V1.3A.27.27,0,0,1,1.3,1H17V13Z"/><path class="cls-1" d="M17,13H1V1.3A.27.27,0,0,1,1.3,1H17V13Z"/><path class="cls-1" d="M17,13H1V1.3A.27.27,0,0,1,1.3,1H17V13Z"/><path class="cls-2" d="M7,13H1V1H7V13Z"/><path class="cls-3" d="M10.24,9.67c-1.06,0-5.9-3.06-5.93-3.54l.27-.44c.48.7,5.42,3.64,5.91,3.53l-.25.45"/><path d="M4.52,5.63c-.09.25,1.26,1.09,2.9,2.09a11.26,11.26,0,0,0,3.14,1.52l0-.09s-.07,0-.14,0a17.12,17.12,0,0,1-3-1.52,14.08,14.08,0,0,1-2.86-2,.25.25,0,0,1,0-.1h0l0,.07v0Zm5.74,4.06s0,0-.11,0a12.15,12.15,0,0,1-3-1.47c-1.65-1-3-1.89-2.86-2.13l0-.07h0c-.13.4,2.69,2,2.86,2.12,1.63,1,3,1.6,3.13,1.45l-.05.08Z"/><path class="cls-3" d="M7.51,6.42A9.68,9.68,0,0,0,10.62,6l-.16-.26a8.93,8.93,0,0,1-3,.43,6.13,6.13,0,0,1-2.93-.48L4.42,6a7.62,7.62,0,0,0,3.09.47"/><path d="M10.66,6a4.34,4.34,0,0,1-1.23.33,12,12,0,0,1-1.92.14,12.52,12.52,0,0,1-1.84-.12A4.79,4.79,0,0,1,4.38,6l0-.07a5.41,5.41,0,0,0,1.27.34,14.14,14.14,0,0,0,1.82.11,12.94,12.94,0,0,0,1.91-.14,3.2,3.2,0,0,0,1.2-.34Zm-.14-.27A3.78,3.78,0,0,1,9.34,6a12.16,12.16,0,0,1-1.83.13,11.63,11.63,0,0,1-1.76-.12,4.77,4.77,0,0,1-1.23-.31.16.16,0,0,0,0-.07A3.93,3.93,0,0,0,5.76,6a13.18,13.18,0,0,0,1.75.11A12.11,12.11,0,0,0,9.33,6a3.44,3.44,0,0,0,1.14-.32Z"/><path class="cls-3" d="M4,7.7a9.05,9.05,0,0,0,3.46.54A9.71,9.71,0,0,0,11,7.72l0-.35c-.19.3-1.92.59-3.46.57A8.65,8.65,0,0,1,4,7.39V7.7"/><path d="M11,7.65v.08a3.64,3.64,0,0,1-1.38.39,13.26,13.26,0,0,1-2.14.15,13.39,13.39,0,0,1-2-.14A5.24,5.24,0,0,1,4,7.74v-.1a5,5,0,0,0,1.46.41,13.35,13.35,0,0,0,2,.14A13.21,13.21,0,0,0,9.61,8,4.3,4.3,0,0,0,11,7.65Zm0-.3v.09a4.08,4.08,0,0,1-1.38.39A14.73,14.73,0,0,1,7.48,8a13.39,13.39,0,0,1-2-.14A5.24,5.24,0,0,1,4,7.44v-.1a5.41,5.41,0,0,0,1.46.42,15,15,0,0,0,2,.13,14.69,14.69,0,0,0,2.13-.14A4.52,4.52,0,0,0,11,7.35Z"/><path class="cls-3" d="M7.5,9.61a12.31,12.31,0,0,1-3-.47l.2.31a8.09,8.09,0,0,0,2.86.46,7.27,7.27,0,0,0,2.83-.46l.2-.32a10.51,10.51,0,0,1-3,.48"/><path d="M10.41,9.38l-.09.14a9.85,9.85,0,0,1-1.07.27A9.77,9.77,0,0,1,7.5,10a8.5,8.5,0,0,1-2.92-.5l0-.07h0l.07,0a9.36,9.36,0,0,0,2.89.47,9.07,9.07,0,0,0,1.72-.16,4.54,4.54,0,0,0,1.16-.32Zm.18-.29h0a.75.75,0,0,1-.07.12,7.73,7.73,0,0,1-1.35.3,11.3,11.3,0,0,1-1.66.14,11.29,11.29,0,0,1-3.08-.46l0-.08a13,13,0,0,0,3.12.46,12.18,12.18,0,0,0,1.65-.14,9.23,9.23,0,0,0,1.35-.3h0l.09,0Z"/><path class="cls-3" d="M10.61,7.42A3.34,3.34,0,0,1,9.7,9.68a3.21,3.21,0,0,1-2.22.92,3.28,3.28,0,0,1-2.17-.91,3.31,3.31,0,0,1-.9-2.21A3.14,3.14,0,0,1,5.5,5.14,3.25,3.25,0,0,1,7.6,4.4,3.2,3.2,0,0,1,9.92,5.56,3.32,3.32,0,0,1,10.61,7.42ZM7.49,4.05A3.46,3.46,0,1,1,4,7.51,3.48,3.48,0,0,1,7.49,4.05Z"/><path d="M7.5,4A3.47,3.47,0,1,1,4,7.51,3.48,3.48,0,0,1,7.5,4ZM4.12,7.51A3.38,3.38,0,1,0,7.5,4.12,3.4,3.4,0,0,0,4.12,7.51Z"/><path d="M7.5,4.33A3.17,3.17,0,1,1,4.34,7.5,3.18,3.18,0,0,1,7.5,4.33ZM4.41,7.5A3.09,3.09,0,1,0,7.5,4.41,3.11,3.11,0,0,0,4.41,7.5Z"/><path class="cls-3" d="M7.64,4.11H7.35v6.78h.29Z"/><path d="M7.61,4h.08v7H7.61ZM7.32,4H7.4v7H7.32Z"/><path class="cls-3" d="M11,7.64V7.38l-.21-.19L9.56,6.87,7.85,6.7l-2.06.1-1.46.35L4,7.37v.26l.75-.34L6.56,7H8.27l1.26.14.87.21Z"/><path d="M7.5,7a12.34,12.34,0,0,1,2.24.2A2.64,2.64,0,0,1,11,7.64v.09a2.9,2.9,0,0,0-1.28-.49A12.17,12.17,0,0,0,7.5,7.05a12.35,12.35,0,0,0-2.27.2c-.49.1-1.15.29-1.23.48V7.64a2.33,2.33,0,0,1,1.22-.47A12.38,12.38,0,0,1,7.5,7Zm0-.3a12.34,12.34,0,0,1,2.24.2A2.52,2.52,0,0,1,11,7.35v.09A2.68,2.68,0,0,0,9.72,7a12.11,12.11,0,0,0-2.22-.2A12.15,12.15,0,0,0,5.24,7c-.48.09-1.16.3-1.24.49v-.1a2.37,2.37,0,0,1,1.22-.47,12.38,12.38,0,0,1,2.28-.2Z"/><path class="cls-3" d="M7.49,5.16a7.44,7.44,0,0,1,2.92.44l.19.32a7.52,7.52,0,0,0-3.11-.45,7.87,7.87,0,0,0-3.08.47l.22-.37a7.63,7.63,0,0,1,2.86-.41"/><path d="M7.5,5.42a11,11,0,0,1,2,.15,3.39,3.39,0,0,1,1.1.32l.05.1A3.82,3.82,0,0,0,9.5,5.64a12,12,0,0,0-2-.14,11.38,11.38,0,0,0-2,.14A3.66,3.66,0,0,0,4.39,6l.05-.1a3.66,3.66,0,0,1,1-.31,11.74,11.74,0,0,1,2-.15Zm0-.29a11.31,11.31,0,0,1,1.94.13,2.87,2.87,0,0,1,1,.33l.08.13a2.7,2.7,0,0,0-1.11-.38A13.22,13.22,0,0,0,7.5,5.2a11.86,11.86,0,0,0-1.94.15,3,3,0,0,0-1,.3l.07-.11a3.71,3.71,0,0,1,.88-.27,11.25,11.25,0,0,1,2-.14Z"/><path class="cls-3" d="M9.22,9A9.48,9.48,0,0,0,7.5,8.81c-2.14,0-2.83.45-2.92.57l-.16-.26a5.73,5.73,0,0,1,3.09-.6,10.83,10.83,0,0,1,1.86.16L9.22,9"/><path d="M7.49,8.78a10.08,10.08,0,0,1,1.75.14L9.2,9a8.43,8.43,0,0,0-1.71-.13,7.78,7.78,0,0,0-2.29.27c-.22.06-.58.2-.62.32l0-.07c0-.07.23-.21.64-.33a8.09,8.09,0,0,1,2.31-.27Zm0-.3a10.82,10.82,0,0,1,1.87.16l0,.08a9.66,9.66,0,0,0-1.83-.17,8.82,8.82,0,0,0-2.4.29c-.25.07-.68.22-.69.35l0-.07c0-.12.38-.26.71-.36a9,9,0,0,1,2.42-.28Z"/><path class="cls-3" d="M10.56,9.16l-.26.4L9.56,8.9,7.64,7.61,5.48,6.42,4.35,6l.24-.44.09,0,.69.18L7.68,6.91,9,7.75l1.11.8.46.53Z"/><path d="M4.31,6c.2-.13,1.65.51,3.17,1.43s2.95,2,2.82,2.15l0,.07,0,0a.12.12,0,0,0,0-.11A11.11,11.11,0,0,0,7.45,7.54c-1.66-1-3-1.58-3.18-1.41l0-.09Zm6.3,3.11c.13-.24-1.21-1.26-2.88-2.24S4.8,5.37,4.57,5.54l-.05.09v0a.27.27,0,0,1,.14,0,10.75,10.75,0,0,1,3,1.4c.68.4,2.87,1.8,2.86,2.2,0,0,0,0,0,.06l0-.09Z"/><path class="cls-4" d="M6,8.29a1.82,1.82,0,0,0,.44,1.2,1.37,1.37,0,0,0,2.12,0A1.85,1.85,0,0,0,9,8.29V5H6Z"/><path class="cls-5" d="M6,8.3H6a1.82,1.82,0,0,0,.44,1.2,1.37,1.37,0,0,0,2.12,0A1.82,1.82,0,0,0,9,8.3V5H6ZM8.4,5.69V8.31s0,.09,0,.13A1,1,0,0,1,8.13,9,.82.82,0,0,1,6.87,9a1.13,1.13,0,0,1-.26-.72V5.68Z"/><path class="cls-6" d="M17,1V13H1V1Zm0-1H1A.94.94,0,0,0,0,1V13a.94.94,0,0,0,1,1H17a.94.94,0,0,0,1-1V1A.94.94,0,0,0,17,0Z"/></g></g></g></svg>