<svg xmlns="http://www.w3.org/2000/svg" viewBox="0 0 18 14"><defs><style>.cls-1{fill:#ff4b55;}.cls-2{fill:#ffe15a;}.cls-3{fill:#b5b5b5;}</style></defs><title>3</title><g id="Layer_2" data-name="Layer 2"><g id="Layer_1-2" data-name="Layer 1"><g id="_3" data-name="3"><path class="cls-1" d="M16.7,13H1.3a.27.27,0,0,1-.3-.3V1.3A.27.27,0,0,1,1.3,1H16.7a.27.27,0,0,1,.3.3V12.7A.27.27,0,0,1,16.7,13Z"/><path class="cls-2" d="M3.7,2.9l.3.9h.8c.1,0,.2.2.1.2l-.7.6.3.9c0,.1-.1.2-.2.1L3.6,5l-.7.6c-.1.1-.2,0-.2-.1L3,4.6,2.3,4c-.1-.1,0-.2.1-.2h.8l.3-.9C3.5,2.8,3.6,2.8,3.7,2.9Z"/><path class="cls-2" d="M6.7,3.1l.2.3.3-.1s.1,0,0,.1L7,3.7l.2.3v.1L6.9,4l-.2.3H6.6V3.9l-.3-.1V3.7l.3-.1.1-.5Z"/><path class="cls-2" d="M5.5,2.2h.3l.1-.3H6l.1.4h.3s.1.1,0,.1l-.3.2.1.4s0,.1-.1,0l-.2-.2L5.7,3a.1.1,0,0,1-.1-.1l.1-.3-.2-.4Z"/><path class="cls-2" d="M6,5.8l-.2.3L5.5,6s-.1,0,0,.1l.2.3-.2.3v.1l.3-.1L6,7h.1V6.6l.3-.1V6.4l-.3-.1L6,5.8Z"/><path class="cls-2" d="M7.2,4.9H6.9l-.1-.3H6.7L6.6,5H6.3s-.1.1,0,.1l.3.2-.1.4s0,.1.1,0l.2-.2.3.2a.1.1,0,0,0,.1-.1l-.1-.3.1-.4Z"/><path class="cls-3" d="M17,1V13H1V1Zm0-1H1A.94.94,0,0,0,0,1V13a.94.94,0,0,0,1,1H17a.94.94,0,0,0,1-1V1A.94.94,0,0,0,17,0Z"/></g></g></g></svg>