<svg xmlns="http://www.w3.org/2000/svg" viewBox="0 0 18 14"><defs><style>.cls-1{fill:#464655;}.cls-2{fill:#ffe15a;}.cls-3{fill:#ff4b55;}.cls-4{fill:#b5b5b5;}</style></defs><title>10</title><g id="Layer_2" data-name="Layer 2"><g id="Layer_1-2" data-name="Layer 1"><g id="_10" data-name="10"><path class="cls-1" d="M17,5H1V1.3A.27.27,0,0,1,1.3,1H16.7a.27.27,0,0,1,.3.3Z"/><path class="cls-2" d="M16.7,13H1.3a.27.27,0,0,1-.3-.3V9H17v3.7A.27.27,0,0,1,16.7,13Z"/><path class="cls-3" d="M17,5H1V9H17Z"/><path class="cls-4" d="M17,1V13H1V1Zm0-1H1A.94.94,0,0,0,0,1V13a.94.94,0,0,0,1,1H17a.94.94,0,0,0,1-1V1A.94.94,0,0,0,17,0Z"/></g></g></g></svg>