<svg xmlns="http://www.w3.org/2000/svg" viewBox="0 0 18 14"><defs><style>.cls-1{fill:#b5b5b5;}.cls-2{fill:#41479b;}.cls-3{fill:#f5f5f5;}.cls-4{fill:#ff4b55;}</style></defs><title>6</title><g id="Layer_2" data-name="Layer 2"><g id="Layer_1-2" data-name="Layer 1"><g id="_6" data-name="6"><path class="cls-1" d="M17,0H1A.94.94,0,0,0,0,1V13a.94.94,0,0,0,1,1H17a.94.94,0,0,0,1-1V1A.94.94,0,0,0,17,0Z"/><path class="cls-2" d="M16.7,13H1.3a.27.27,0,0,1-.3-.3V1.3A.27.27,0,0,1,1.3,1H16.7a.27.27,0,0,1,.3.3V12.7A.27.27,0,0,1,16.7,13Z"/><path class="cls-3" d="M17,1.3V1H14L11,4V1H7V4L4,1H1.3a.27.27,0,0,0-.3.3V2L4,5H1V9H4L1,12v.7a.27.27,0,0,0,.3.3H4l3-3v3h4V9l4,4h2V12L14,9h3V5H14l3-3Z"/><path class="cls-4" d="M17,6H10V1H8V6H1V8H8v5h2V8h7Z"/><path class="cls-4" d="M14,13l-3-3V9h1l3,3,1,1Z"/><path class="cls-4" d="M2,1,6,5H7V4L4,1Z"/><path class="cls-4" d="M2,13,6,9H4L1,12v1Z"/><path class="cls-4" d="M16,1,12,5h2l3-3V1Z"/></g></g></g></svg>