<svg xmlns="http://www.w3.org/2000/svg" viewBox="0 0 18 14"><defs><style>.cls-1{fill:#f5f5f5;}.cls-2{fill:#ff4b55;}.cls-3{fill:#41479b;}.cls-4{fill:#fff;}.cls-5{fill:#b5b5b5;}</style></defs><title>7</title><g id="Layer_2" data-name="Layer 2"><g id="Layer_1-2" data-name="Layer 1"><g id="_7" data-name="7"><path class="cls-1" d="M17,3H2V4H17Z"/><path class="cls-1" d="M17,1H3V2H17Z"/><path class="cls-1" d="M17,5H3V6H17Z"/><path class="cls-1" d="M17,7H1V8H17Z"/><path class="cls-1" d="M17,9H1v1H17Z"/><path class="cls-1" d="M17,11H1v1H17Z"/><path class="cls-2" d="M17,4H1V5H17Z"/><path class="cls-2" d="M17,2H1V3H17Z"/><path class="cls-2" d="M1,6V7H8V6Z"/><path class="cls-2" d="M17,8H1V9H17Z"/><path class="cls-2" d="M17,10H1v1H17Z"/><path class="cls-2" d="M17,12H1v1H17Z"/><path class="cls-2" d="M17,6H1V7H17Z"/><path class="cls-3" d="M10,7H1V1h9V7Z"/><path class="cls-4" d="M3,1H2V2H3Z"/><path class="cls-4" d="M5,1H4V2H5Z"/><path class="cls-4" d="M7,1H6V2H7Z"/><path class="cls-4" d="M9,1H8V2H9Z"/><path class="cls-4" d="M9,3H8V4H9Z"/><path class="cls-4" d="M7,3H6V4H7Z"/><path class="cls-4" d="M5,3H4V4H5Z"/><path class="cls-4" d="M3,3H2V4H3Z"/><path class="cls-4" d="M3,5H2V6H3Z"/><path class="cls-4" d="M5,5H4V6H5Z"/><path class="cls-4" d="M7,5H6V6H7Z"/><path class="cls-4" d="M9,5H8V6H9Z"/><path class="cls-5" d="M17,1V13H1V1Zm0-1H1A.94.94,0,0,0,0,1V13a.94.94,0,0,0,1,1H17a.94.94,0,0,0,1-1V1A.94.94,0,0,0,17,0Z"/></g></g></g></svg>