<svg xmlns="http://www.w3.org/2000/svg" viewBox="0 0 18 14"><defs><style>.cls-1{fill:#41479b;}.cls-2{fill:#f5f5f5;}.cls-3{fill:#ff4b55;}.cls-4{fill:#b5b5b5;}</style></defs><title>9</title><g id="Layer_2" data-name="Layer 2"><g id="Layer_1-2" data-name="Layer 1"><g id="_9" data-name="9"><path class="cls-1" d="M6,13H.9a.27.27,0,0,1-.3-.3V1.3A.27.27,0,0,1,.9,1H6Z"/><path class="cls-2" d="M12,1H6V13h6Z"/><path class="cls-3" d="M16.7,13H12V1h4.7a.27.27,0,0,1,.3.3V12.7A.27.27,0,0,1,16.7,13Z"/><path class="cls-4" d="M17,1V13H1V1Zm0-1H1A.94.94,0,0,0,0,1V13a.94.94,0,0,0,1,1H17a.94.94,0,0,0,1-1V1A.94.94,0,0,0,17,0Z"/></g></g></g></svg>