<svg xmlns="http://www.w3.org/2000/svg" viewBox="0 0 18 14"><defs><style>.cls-1{fill:#2c945d;}.cls-2{fill:#f5f5f5;}.cls-3{fill:#ff4b55;}.cls-4{fill:#b5b5b5;}</style></defs><title>13</title><g id="Layer_2" data-name="Layer 2"><g id="Layer_1-2" data-name="Layer 1"><g id="_13" data-name="13"><path class="cls-1" d="M6,13H1.3a.27.27,0,0,1-.3-.3V1.3A.27.27,0,0,1,1.3,1H6Z"/><path class="cls-2" d="M12,1H6.3V13H12Z"/><path class="cls-3" d="M17.1,13H12V1h5.1a.27.27,0,0,1,.3.3V12.7Q17.25,13,17.1,13Z"/><path class="cls-4" d="M17,1V13H1V1Zm0-1H1A.94.94,0,0,0,0,1V13a.94.94,0,0,0,1,1H17a.94.94,0,0,0,1-1V1A.94.94,0,0,0,17,0Z"/></g></g></g></svg>