<svg xmlns="http://www.w3.org/2000/svg" viewBox="0 0 18 14"><defs><style>.cls-1{fill:#f5f5f5;}.cls-2{fill:#ff4b55;}.cls-3{fill:#41479b;}.cls-4{fill:#464655;}.cls-5{fill:#b5b5b5;}</style></defs><title>15</title><g id="Layer_2" data-name="Layer 2"><g id="Layer_1-2" data-name="Layer 1"><g id="_15" data-name="15"><path class="cls-1" d="M17,13H1V2.07C1,1.53,1.1,1,1.3,1H16.7c.2,0,.3.53.3,1.07Z"/><path class="cls-2" d="M10.69,4.4a3.08,3.08,0,0,0-4.34.89,1.63,1.63,0,0,0,.43,2.23C7.5,8,8.52,8.24,9,7.5s1.4-1.36,2.12-.87a1.63,1.63,0,0,1,.44,2.23A3.27,3.27,0,0,0,10.69,4.4Z"/><path class="cls-3" d="M6.37,5.27A1.63,1.63,0,0,0,6.8,7.5,1.53,1.53,0,0,0,9,7.06a1.54,1.54,0,0,1,2.17-.45,1.64,1.64,0,0,1,.44,2.23,3.08,3.08,0,0,1-4.35.89A3.27,3.27,0,0,1,6.37,5.27Z"/><path class="cls-4" d="M12.87,2.94l.66.92a.15.15,0,0,1,0,.23l-.16.1a.19.19,0,0,1-.26,0l-.66-.92a.17.17,0,0,1,0-.23l.17-.1A.2.2,0,0,1,12.87,2.94Z"/><path class="cls-4" d="M13.89,4.36l.67.91a.16.16,0,0,1-.05.23l-.17.11a.19.19,0,0,1-.25-.05l-.67-.92a.17.17,0,0,1,.05-.23l.17-.1A.19.19,0,0,1,13.89,4.36Z"/><path class="cls-4" d="M13.58,2.51l1.68,2.32a.16.16,0,0,1,0,.24l-.17.1a.2.2,0,0,1-.25,0L13.11,2.8a.16.16,0,0,1,.05-.23l.17-.11A.19.19,0,0,1,13.58,2.51Z"/><path class="cls-4" d="M14.29,2.07,15,3a.16.16,0,0,1,0,.23l-.17.11a.19.19,0,0,1-.25-.05l-.67-.92a.16.16,0,0,1,.06-.23L14,2A.21.21,0,0,1,14.29,2.07Z"/><path class="cls-4" d="M15.31,3.49,16,4.4a.18.18,0,0,1-.05.24l-.17.1a.19.19,0,0,1-.25,0l-.66-.91a.15.15,0,0,1,.05-.23l.17-.11A.19.19,0,0,1,15.31,3.49Z"/><path class="cls-4" d="M3.92,8.44,5.6,10.77a.16.16,0,0,1,0,.23l-.17.1a.2.2,0,0,1-.25,0L3.44,8.73A.16.16,0,0,1,3.5,8.5l.16-.11A.2.2,0,0,1,3.92,8.44Z"/><path class="cls-4" d="M3.21,8.88l.66.91a.16.16,0,0,1-.05.23l-.17.11a.19.19,0,0,1-.25-.05l-.66-.91a.16.16,0,0,1,0-.24L3,8.83A.19.19,0,0,1,3.21,8.88Z"/><path class="cls-4" d="M4.23,10.29l.66.91a.15.15,0,0,1,0,.23l-.17.11a.19.19,0,0,1-.25,0l-.66-.91a.16.16,0,0,1,.05-.23L4,10.24A.19.19,0,0,1,4.23,10.29Z"/><path class="cls-4" d="M2.5,9.31l1.69,2.33a.16.16,0,0,1-.06.23L4,12a.2.2,0,0,1-.26-.05L2,9.6a.16.16,0,0,1,.05-.23l.17-.1A.18.18,0,0,1,2.5,9.31Z"/><path class="cls-4" d="M3.44,5.27,5.13,2.94a.2.2,0,0,1,.25,0l.17.1a.16.16,0,0,1,0,.23L3.92,5.56a.2.2,0,0,1-.26.05L3.5,5.5A.16.16,0,0,1,3.44,5.27Z"/><path class="cls-4" d="M2.74,4.83,4.42,2.51a.19.19,0,0,1,.25,0l.17.11a.15.15,0,0,1,0,.23L3.21,5.13a.2.2,0,0,1-.25,0l-.17-.1A.16.16,0,0,1,2.74,4.83Z"/><path class="cls-4" d="M2,4.4,3.71,2.07A.21.21,0,0,1,4,2l.16.1a.16.16,0,0,1,.06.23L2.5,4.69a.19.19,0,0,1-.25,0l-.17-.1A.17.17,0,0,1,2,4.4Z"/><path class="cls-4" d="M12.4,10.77l.66-.92a.21.21,0,0,1,.26,0l.16.1a.15.15,0,0,1,0,.23l-.66.91a.19.19,0,0,1-.25,0l-.17-.1A.17.17,0,0,1,12.4,10.77Z"/><path class="cls-4" d="M13.42,9.36l.67-.92a.19.19,0,0,1,.25,0l.17.11a.16.16,0,0,1,.05.23l-.67.92a.2.2,0,0,1-.25,0l-.17-.1A.16.16,0,0,1,13.42,9.36Z"/><path class="cls-4" d="M13.11,11.2l.66-.91a.19.19,0,0,1,.25,0l.17.11a.15.15,0,0,1,.05.23l-.66.91a.19.19,0,0,1-.25,0l-.17-.11A.16.16,0,0,1,13.11,11.2Z"/><path class="cls-4" d="M14.13,9.79l.66-.91A.19.19,0,0,1,15,8.83l.17.1a.16.16,0,0,1,0,.24l-.66.91a.19.19,0,0,1-.25.05L14.18,10A.16.16,0,0,1,14.13,9.79Z"/><path class="cls-4" d="M13.82,11.64l.66-.92a.19.19,0,0,1,.25-.05l.17.11A.16.16,0,0,1,15,11l-.66.91A.2.2,0,0,1,14,12l-.16-.1A.15.15,0,0,1,13.82,11.64Z"/><path class="cls-4" d="M14.84,10.23l.66-.92a.18.18,0,0,1,.25,0l.17.1A.16.16,0,0,1,16,9.6l-.66.91a.19.19,0,0,1-.25.05l-.17-.1A.15.15,0,0,1,14.84,10.23Z"/><path class="cls-5" d="M17,1V13H1V1Zm0-1H1A.94.94,0,0,0,0,1V13a.94.94,0,0,0,1,1H17a.94.94,0,0,0,1-1V1A.94.94,0,0,0,17,0Z"/></g></g></g></svg>