<svg xmlns="http://www.w3.org/2000/svg" viewBox="0 0 18 14"><defs><style>.cls-1{fill:#ff4b55;}.cls-2{fill:#f5f5f5;}.cls-3{fill:#b5b5b5;}</style></defs><title>17</title><g id="Layer_2" data-name="Layer 2"><g id="Layer_1-2" data-name="Layer 1"><g id="_17" data-name="17"><path class="cls-1" d="M17,13H1V7.3A.27.27,0,0,1,1.3,7H16.7a.27.27,0,0,1,.3.3Z"/><path class="cls-2" d="M1,1H17V6.7a.27.27,0,0,1-.3.3H1.3A.27.27,0,0,1,1,6.7Z"/><path class="cls-3" d="M17,1V13H1V1Zm0-1H1A.94.94,0,0,0,0,1V13a.94.94,0,0,0,1,1H17a.94.94,0,0,0,1-1V1A.94.94,0,0,0,17,0Z"/></g></g></g></svg>