<svg xmlns="http://www.w3.org/2000/svg" viewBox="0 0 18 14"><defs><style>.cls-1{fill:#f5f5f5;}.cls-2{fill:#ff4b55;}.cls-3{fill:#41479b;}.cls-4{fill:#b5b5b5;}</style></defs><title>20</title><g id="Layer_2" data-name="Layer 2"><g id="Layer_1-2" data-name="Layer 1"><g id="_20" data-name="20"><path class="cls-1" d="M17,5H1V.9c0-.2.1-.4.3-.4H16.7c.2,0,.3.2.3.4Z"/><path class="cls-2" d="M16.7,13.5H1.3c-.2,0-.3-.2-.3-.4V9H17v4.1C17,13.3,16.9,13.5,16.7,13.5Z"/><path class="cls-3" d="M17,5H1V9H17Z"/><path class="cls-4" d="M17,1V13H1V1Zm0-1H1A.94.94,0,0,0,0,1V13a.94.94,0,0,0,1,1H17a.94.94,0,0,0,1-1V1A.94.94,0,0,0,17,0Z"/></g></g></g></svg>