<svg xmlns="http://www.w3.org/2000/svg" viewBox="0 0 252 187" fill="none" preserveAspectRatio="xMidYMid slice">
  <rect width="252" height="187" fill="#ffffff"/>

  <text x="14" y="18" font-family="Sora, sans-serif" font-size="11" font-weight="700" fill="#1f1f44">Balance</text>
  <text x="58" y="18" font-family="Sora, sans-serif" font-size="8" font-weight="400" fill="#9395a5">sheet</text>

  <rect x="14" y="28" width="38" height="5" rx="1" fill="#e8eaf0"/>
  <rect x="56" y="28" width="32" height="5" rx="1" fill="#e8eaf0"/>
  <rect x="92" y="28" width="32" height="5" rx="1" fill="#e8eaf0"/>
  <rect x="128" y="28" width="32" height="5" rx="1" fill="#e8eaf0"/>

  <rect x="14" y="38" width="156" height="9" fill="#2c3a5a"/>

  <line x1="14" y1="54" x2="170" y2="54" stroke="#eef0f4" stroke-width="1"/>
  <line x1="14" y1="62" x2="170" y2="62" stroke="#eef0f4" stroke-width="1"/>
  <line x1="14" y1="70" x2="170" y2="70" stroke="#eef0f4" stroke-width="1"/>
  <line x1="14" y1="78" x2="170" y2="78" stroke="#eef0f4" stroke-width="1"/>
  <line x1="14" y1="86" x2="170" y2="86" stroke="#eef0f4" stroke-width="1"/>
  <line x1="14" y1="94" x2="170" y2="94" stroke="#eef0f4" stroke-width="1"/>
  <line x1="14" y1="102" x2="170" y2="102" stroke="#eef0f4" stroke-width="1"/>

  <rect x="92" y="56" width="22" height="5" fill="#9ec9d4"/>
  <rect x="92" y="64" width="18" height="5" fill="#9ec9d4"/>
  <rect x="92" y="72" width="26" height="5" fill="#9ec9d4"/>
  <rect x="92" y="80" width="32" height="5" fill="#9ec9d4"/>
  <rect x="92" y="88" width="20" height="5" fill="#9ec9d4"/>

  <rect x="14" y="108" width="156" height="9" fill="#2c3a5a"/>
  <rect x="14" y="120" width="156" height="9" fill="#fbcaa1"/>

  <line x1="180" y1="40" x2="234" y2="40" stroke="#eef0f4"/>
  <line x1="180" y1="50" x2="234" y2="50" stroke="#eef0f4"/>
  <line x1="180" y1="60" x2="234" y2="60" stroke="#eef0f4"/>
  <line x1="180" y1="70" x2="234" y2="70" stroke="#eef0f4"/>
  <line x1="180" y1="80" x2="234" y2="80" stroke="#eef0f4"/>
  <line x1="180" y1="90" x2="234" y2="90" stroke="#eef0f4"/>
  <line x1="180" y1="100" x2="234" y2="100" stroke="#eef0f4"/>

  <rect x="156" y="148" width="62" height="32" fill="#2c3a5a"/>
  <rect x="218" y="148" width="20" height="32" fill="#f0823e"/>
</svg>
