<svg width="382" height="56" viewBox="0 0 382 56" fill="none" xmlns="http://www.w3.org/2000/svg">
<circle cx="365.5" cy="27.6" r="15.6" fill="white"/>
<path d="M361.232 22.4009C359.498 22.4009 359.044 22.4009 357.31 22.4009C356.476 22.4009 356.301 22.5618 356.301 23.3159C356.301 25.4653 356.299 27.6147 356.301 29.7641C356.302 31.5446 357.645 32.7937 359.575 32.7968C363.043 32.8023 365.232 32.7992 368.7 32.7976C369.444 32.7976 369.664 32.5919 369.664 31.8981C369.666 29.7742 369.668 27.6503 369.664 25.5264C369.661 23.6229 368.331 22.4009 366.268 22.4001C364.589 22.3993 362.912 22.4009 361.232 22.4009ZM375.498 27.6C375.498 26.0817 375.506 24.5635 375.488 23.046C375.485 22.8503 375.4 22.5625 375.252 22.4875C375.114 22.4171 374.805 22.5254 374.635 22.6376C373.237 23.5649 371.848 24.5047 370.474 25.4622C370.318 25.5713 370.193 25.8141 370.188 25.9982C370.162 27.0524 370.187 28.1082 370.168 29.1624C370.163 29.4571 370.278 29.6342 370.527 29.7982C371.429 30.396 372.318 31.0117 373.213 31.6181C373.728 31.9669 374.236 32.325 374.765 32.6545C375.17 32.9067 375.457 32.7589 375.494 32.3072C375.503 32.192 375.498 32.076 375.498 31.96C375.498 30.5059 375.498 29.0526 375.498 27.5985V27.6Z" fill="#0B5CFF"/>
<path fill-rule="evenodd" clip-rule="evenodd" d="M203.54 4.99854L219.813 9.57L221.558 12.4935C221.834 12.9718 221.67 13.5834 221.192 13.8595C220.714 14.1356 220.102 13.9718 219.826 13.4935L218.784 11.7886L212.527 15.4015C210.614 16.5061 208.167 15.8506 207.063 13.9374L203.316 7.44775L180.203 20.9883C179.254 21.5441 178.932 22.7617 179.481 23.7139L204.393 66.8627C204.946 67.8192 206.169 68.147 207.125 67.5947L211.232 65.2237C211.71 64.9476 212.322 65.1115 212.598 65.5898C212.874 66.0681 212.71 66.6797 212.232 66.9558L208.125 69.3268C206.212 70.4313 203.766 69.7758 202.661 67.8627L177.749 24.7139C176.65 22.8093 177.294 20.3743 179.192 19.2626L203.54 4.99854ZM205.773 7.70319L208.795 12.9374C209.347 13.894 210.57 14.2218 211.527 13.6695L216.595 10.7434L205.773 7.70319Z" fill="#4784FF"/>
<path fill-rule="evenodd" clip-rule="evenodd" d="M222.709 16.5621C223.202 16.3122 223.804 16.5088 224.054 17.0014L231.991 30.5465C232.241 31.039 232.044 31.6408 231.552 31.8908C231.059 32.1407 230.458 31.944 230.208 31.4515L222.27 17.9063C222.02 17.4138 222.217 16.812 222.709 16.5621Z" fill="#4784FF"/>
<path fill-rule="evenodd" clip-rule="evenodd" d="M192.219 35.4542C191.943 34.976 192.107 34.3644 192.585 34.0882L216.834 20.0882C217.312 19.8121 217.924 19.976 218.2 20.4542C218.476 20.9325 218.312 21.5441 217.834 21.8203L193.585 35.8203C193.107 36.0964 192.496 35.9325 192.219 35.4542Z" fill="#4784FF"/>
<path fill-rule="evenodd" clip-rule="evenodd" d="M195.719 41.5164C195.443 41.0381 195.607 40.4265 196.085 40.1504L220.334 26.1504C220.812 25.8743 221.424 26.0381 221.7 26.5164C221.976 26.9947 221.812 27.6063 221.334 27.8824L197.085 41.8824C196.607 42.1586 195.996 41.9947 195.719 41.5164Z" fill="#4784FF"/>
<path fill-rule="evenodd" clip-rule="evenodd" d="M199.219 47.5784C198.943 47.1001 199.107 46.4885 199.585 46.2123L223.834 32.2123C224.312 31.9362 224.924 32.1001 225.2 32.5784C225.476 33.0567 225.312 33.6683 224.834 33.9444L200.585 47.9444C200.107 48.2205 199.495 48.0567 199.219 47.5784Z" fill="#4784FF"/>
<path fill-rule="evenodd" clip-rule="evenodd" d="M202.715 53.6332C202.443 53.1525 202.612 52.5424 203.093 52.2705L209.531 48.6294C210.011 48.3575 210.622 48.5268 210.893 49.0075C211.165 49.4882 210.996 50.0983 210.515 50.3702L204.078 54.0113C203.597 54.2832 202.987 54.114 202.715 53.6332Z" fill="#4784FF"/>
<path fill-rule="evenodd" clip-rule="evenodd" d="M193.285 27.6981C194.481 27.0077 194.891 25.4787 194.2 24.283C193.51 23.0873 191.981 22.6776 190.785 23.3679C189.59 24.0583 189.18 25.5873 189.87 26.783C190.561 27.9787 192.09 28.3884 193.285 27.6981ZM194.285 29.4301C196.438 28.1875 197.175 25.4353 195.932 23.283C194.69 21.1307 191.938 20.3933 189.785 21.6359C187.633 22.8785 186.896 25.6307 188.138 27.783C189.381 29.9353 192.133 30.6728 194.285 29.4301Z" fill="#4784FF"/>
<path fill-rule="evenodd" clip-rule="evenodd" d="M240.794 48.3809C244.056 46.4973 245.174 42.3257 243.291 39.0632C241.407 35.8008 237.235 34.683 233.973 36.5666C230.71 38.4501 229.593 42.6218 231.476 45.8842C233.36 49.1467 237.531 50.2645 240.794 48.3809ZM241.646 49.8577C245.725 47.5032 247.122 42.2887 244.767 38.2106C242.413 34.1326 237.198 32.7353 233.12 35.0898C229.042 37.4443 227.645 42.6588 229.999 46.7369C232.354 50.8149 237.568 52.2121 241.646 49.8577Z" fill="#4784FF"/>
<path fill-rule="evenodd" clip-rule="evenodd" d="M235.678 39.5202C234.863 39.9911 234.583 41.034 235.054 41.8496C235.525 42.6652 236.568 42.9446 237.383 42.4737C238.199 42.0028 238.478 40.9599 238.008 40.1443C237.537 39.3287 236.494 39.0493 235.678 39.5202ZM233.577 42.7022C232.635 41.071 233.194 38.9852 234.826 38.0434C236.457 37.1016 238.543 37.6605 239.484 39.2917C240.426 40.9229 239.867 43.0087 238.236 43.9505C236.605 44.8923 234.519 44.3334 233.577 42.7022Z" fill="#4784FF"/>
<path fill-rule="evenodd" clip-rule="evenodd" d="M236.129 46.5068C235.867 47.4847 236.008 48.6178 236.676 49.7741L235.199 50.6267C234.336 49.1322 234.088 47.5364 234.482 46.0654C234.876 44.5945 235.889 43.3366 237.383 42.4737C238.878 41.6109 240.474 41.3627 241.945 41.7569C243.416 42.151 244.673 43.1638 245.536 44.6583L244.06 45.5109C243.392 44.3547 242.481 43.6661 241.503 43.404C240.525 43.142 239.392 43.283 238.236 43.9505C237.08 44.6181 236.391 45.5289 236.129 46.5068Z" fill="#4784FF"/>
<path fill-rule="evenodd" clip-rule="evenodd" d="M221.743 44.6216C220.628 44.6424 219.501 44.9379 218.466 45.5354C215.204 47.419 214.086 51.5906 215.969 54.8531C216.681 56.0861 217.72 57.0129 218.913 57.5869C218.735 56.7234 218.754 55.8592 218.975 55.0343C219.154 54.3664 219.461 53.7424 219.882 53.1794C219.144 52.9177 218.492 52.402 218.07 51.671C217.129 50.0398 217.687 47.954 219.319 47.0122C219.997 46.6208 220.753 46.4886 221.473 46.5848C221.461 47.1789 221.511 47.7773 221.625 48.37C221.164 48.1965 220.631 48.2234 220.171 48.489C219.356 48.9599 219.076 50.0028 219.547 50.8184C220.018 51.634 221.061 51.9135 221.877 51.4426C222.147 51.2866 222.358 51.068 222.503 50.8156C222.539 50.8828 222.577 50.9497 222.615 51.0163C222.925 51.5523 223.283 52.042 223.683 52.483C223.368 52.5897 223.05 52.7343 222.729 52.9194C221.573 53.5869 220.884 54.4977 220.622 55.4756C220.402 56.2976 220.467 57.2292 220.889 58.192C222.356 58.4076 223.903 58.1486 225.287 57.3497C226.322 56.7522 227.141 55.9244 227.717 54.9684C228.298 55.1296 228.895 55.2296 229.499 55.2656C228.777 56.707 227.64 57.9603 226.14 58.8265C222.062 61.181 216.847 59.7837 214.493 55.7057C212.138 51.6276 213.535 46.4131 217.613 44.0586C219.114 43.1924 220.768 42.834 222.377 42.9301C222.106 43.471 221.894 44.0383 221.743 44.6216Z" fill="#4784FF"/>
<path fill-rule="evenodd" clip-rule="evenodd" d="M229.998 38.2297C228.55 38.2285 227.081 38.5969 225.736 39.3734C221.658 41.7279 220.261 46.9425 222.615 51.0205C224.97 55.0985 230.184 56.4958 234.262 54.1413C235.607 53.3647 236.661 52.277 237.384 51.0215C236.745 51.021 236.109 50.9485 235.49 50.8072C234.949 51.5418 234.25 52.1791 233.41 52.6645C232.026 53.4634 230.479 53.7224 229.012 53.5068C228.589 52.544 228.525 51.6124 228.745 50.7904C229.007 49.8125 229.696 48.9017 230.852 48.2342C230.902 48.2053 230.952 48.1774 231.002 48.1505C230.629 47.7288 230.292 47.2637 230 46.7572C230 46.7571 229.999 46.7572 230 46.7572C229.184 47.228 228.141 46.9488 227.67 46.1332C227.199 45.3176 227.478 44.2747 228.294 43.8038C228.495 43.6879 228.709 43.6174 228.926 43.5893C228.852 43.0191 228.837 42.4464 228.878 41.8798C228.387 41.9182 227.897 42.0642 227.441 42.327C225.81 43.2688 225.251 45.3546 226.193 46.9858C226.615 47.7168 227.267 48.2325 228.004 48.4942C227.583 49.0572 227.277 49.6812 227.098 50.3491C226.877 51.174 226.858 52.0382 227.036 52.9017C225.843 52.3277 224.804 51.401 224.092 50.1679C222.208 46.9054 223.326 42.7338 226.589 40.8502C227.429 40.3649 228.33 40.0788 229.237 39.9774C229.424 39.3704 229.679 38.7837 229.998 38.2297Z" fill="#4784FF"/>
<path d="M279.873 14.5818L281.115 14.249" stroke="#FF8E3D" stroke-linecap="round"/>
<path d="M274.746 16.0891L275.988 15.7563" stroke="#FF8E3D" stroke-linecap="round"/>
<path d="M278.843 18.2527L278.51 17.0107" stroke="#FF8E3D" stroke-linecap="round"/>
<path d="M277.511 13.3943L277.152 12.2397" stroke="#FF8E3D" stroke-linecap="round"/>
<path d="M127 38C127 39.1046 127.895 40 129 40C130.105 40 131 39.1046 131 38C131 36.8954 130.105 36 129 36C127.895 36 127 36.8954 127 38Z" fill="#9ADAF3"/>
<path d="M35 27C35 28.1046 35.8954 29 37 29C38.1046 29 39 28.1046 39 27C39 25.8954 38.1046 25 37 25C35.8954 25 35 25.8954 35 27Z" fill="#9ADAF3"/>
<path d="M301.067 47.0383C301.067 48.1429 301.963 49.0383 303.067 49.0383C304.172 49.0383 305.067 48.1429 305.067 47.0383C305.067 45.9338 304.172 45.0383 303.067 45.0383C301.963 45.0383 301.067 45.9338 301.067 47.0383Z" fill="#9ADAF3"/>
<path fill-rule="evenodd" clip-rule="evenodd" d="M90.3303 26.2554C90.7378 25.8882 91.3658 25.9209 91.733 26.3284L93.0627 27.8041C93.4299 28.2117 93.3972 28.8397 92.9897 29.2069C92.5822 29.5741 91.9542 29.5414 91.587 29.1339L90.2573 27.6581C89.8901 27.2506 89.9228 26.6226 90.3303 26.2554ZM98.7466 26.3375C99.1138 26.745 99.0811 27.3731 98.6736 27.7403L97.1979 29.07C96.7903 29.4372 96.1623 29.4045 95.7951 28.997C95.428 28.5894 95.4607 27.9614 95.8682 27.5942L97.3439 26.2645C97.7514 25.8973 98.3794 25.93 98.7466 26.3375ZM93.2094 32.0122C93.5766 32.4197 93.5439 33.0477 93.1364 33.4149L91.6607 34.7446C91.2532 35.1118 90.6251 35.0791 90.258 34.6716C89.8908 34.2641 89.9235 33.6361 90.331 33.2689L91.8067 31.9392C92.2142 31.572 92.8422 31.6046 93.2094 32.0122ZM95.7613 31.7958C96.1688 31.4286 96.7968 31.4613 97.164 31.8689L98.4937 33.3446C98.8609 33.7521 98.8179 34.3699 98.4104 34.7371C98.0029 35.1043 97.3851 35.0819 97.0179 34.6743L95.6883 33.1986C95.3211 32.7911 95.3538 32.163 95.7613 31.7958Z" fill="#FF8E3D"/>
</svg>
