<svg width="50" height="24" viewBox="0 0 50 24" fill="none" xmlns="http://www.w3.org/2000/svg">
<g clip-path="url(#clip0_16163_134800)">
<path d="M35.9054 21.4611H43.0845C46.5989 21.4611 49.4482 18.887 49.4482 15.7117C49.4482 12.5354 46.599 9.96158 43.0845 9.96158C42.4207 9.96158 41.7807 10.0535 41.1791 10.2239C41.182 10.1369 41.1863 10.0497 41.1863 9.96158C41.1863 6.38505 38.2405 1.87474 32.0244 2.58901" stroke="white" stroke-linecap="round"/>
<path d="M9.22998 21.461L5.58334 21.4612C3.0522 21.4612 1 19.6073 1 17.3203C1 15.0327 3.05211 13.179 5.58334 13.179C6.06141 13.179 6.52236 13.2452 6.95566 13.3679C6.95355 13.3052 6.95048 13.2424 6.95048 13.179C6.95048 11.5141 7.75917 10.0203 9.04089 9" stroke="white" stroke-linecap="round"/>
<path d="M33.5 21C33.5 21.2761 33.2761 21.5 33 21.5H20C19.7239 21.5 19.5 21.2761 19.5 21V3C19.5 2.72386 19.7239 2.5 20 2.5H28.0872C28.2194 2.5 28.3462 2.55235 28.4399 2.64561L33.3527 7.53526C33.447 7.62909 33.5 7.75663 33.5 7.88965V21Z" fill="white" stroke="#333333"/>
<path fill-rule="evenodd" clip-rule="evenodd" d="M16.5 3C16.2239 3 16 3.22386 16 3.5V20.5C16 20.7761 16.2239 21 16.5 21H18C18.2761 21 18.5 21.2239 18.5 21.5C18.5 21.7761 18.2761 22 18 22H16.5C15.6716 22 15 21.3284 15 20.5V3.5C15 2.67157 15.6716 2 16.5 2H18C18.2761 2 18.5 2.22386 18.5 2.5C18.5 2.77614 18.2761 3 18 3H16.5Z" fill="#333333"/>
<path fill-rule="evenodd" clip-rule="evenodd" d="M12.5 3C12.2239 3 12 3.22386 12 3.5V20.5C12 20.7761 12.2239 21 12.5 21H14C14.2761 21 14.5 21.2239 14.5 21.5C14.5 21.7761 14.2761 22 14 22H12.5C11.6716 22 11 21.3284 11 20.5V3.5C11 2.67157 11.6716 2 12.5 2H14C14.2761 2 14.5 2.22386 14.5 2.5C14.5 2.77614 14.2761 3 14 3H12.5Z" fill="#333333"/>
<path fill-rule="evenodd" clip-rule="evenodd" d="M27.5 4C27.7761 4 28 4.22386 28 4.5V8H31.5C31.7761 8 32 8.22386 32 8.5C32 8.77614 31.7761 9 31.5 9H27.5C27.2239 9 27 8.77614 27 8.5V4.5C27 4.22386 27.2239 4 27.5 4Z" fill="#333333"/>
<path fill-rule="evenodd" clip-rule="evenodd" d="M23 11.5C23 11.2239 23.2239 11 23.5 11H29.5C29.7761 11 30 11.2239 30 11.5C30 11.7761 29.7761 12 29.5 12H23.5C23.2239 12 23 11.7761 23 11.5Z" fill="#333333"/>
<path fill-rule="evenodd" clip-rule="evenodd" d="M23 14.5C23 14.2239 23.2239 14 23.5 14H29.5C29.7761 14 30 14.2239 30 14.5C30 14.7761 29.7761 15 29.5 15H23.5C23.2239 15 23 14.7761 23 14.5Z" fill="#333333"/>
<path fill-rule="evenodd" clip-rule="evenodd" d="M23 17.5C23 17.2239 23.2239 17 23.5 17H29.5C29.7761 17 30 17.2239 30 17.5C30 17.7761 29.7761 18 29.5 18H23.5C23.2239 18 23 17.7761 23 17.5Z" fill="#333333"/>
</g>
<defs>
<clipPath id="clip0_16163_134800">
<rect width="50" height="24" fill="white"/>
</clipPath>
</defs>
</svg>
