<svg width="332" height="36" viewBox="0 0 332 36" fill="none" xmlns="http://www.w3.org/2000/svg">
<g opacity="0.7" clip-path="url(#clip0_16163_134756)">
<path d="M196.521 14.8755L197.406 9.56373L192.364 11.4534L196.521 14.8755Z" fill="white"/>
<path d="M325 8.84863L329.33 6.34863L331.83 10.6788L327.5 13.1788L325 8.84863Z" fill="white"/>
<path d="M162.493 23.6224L161.047 26.5547L163.389 28.836L160.153 28.367L158.707 31.2993L158.154 28.0771L154.918 27.608L157.811 26.0856L157.258 22.8634L159.6 25.1448L162.493 23.6224Z" fill="white"/>
<path d="M282.443 22.0245C276.901 18.3023 280.877 10.9966 283.188 12.843C285.498 14.6893 277.728 19.212 275.164 16.6479C272.6 14.0838 275.586 6.81072 277.562 8.70719C279.539 10.6037 274.384 14.7898 271.525 12.843C268.665 10.8961 270.201 6.80474 271.525 5.56445" stroke="white" stroke-linecap="round"/>
<path d="M96.6579 25.6497C102.944 27.8976 106.46 20.3603 103.602 19.5977C100.745 18.8351 101.721 27.773 105.307 28.3128C108.892 28.8526 112.97 22.1307 110.271 21.6669C107.571 21.203 107.265 27.8369 110.529 28.9809C113.794 30.1249 116.173 26.4596 116.385 24.658" stroke="white" stroke-linecap="round"/>
<path d="M1.98009 23.5458C7.53419 19.8418 3.58271 12.5231 1.26575 14.3619C-1.05121 16.2007 6.70473 20.7488 9.27696 18.1931C11.8492 15.6374 8.88708 8.35459 6.90429 10.2446C4.92151 12.1346 10.0631 16.3376 12.9286 14.4001C15.7942 12.4626 14.2722 8.36627 12.9525 7.12165" stroke="white" stroke-linecap="round"/>
<circle r="1.5" transform="matrix(-1 0 0 1 226.5 27.5645)" fill="white"/>
<circle r="1.5" transform="matrix(-1 0 0 1 51.5 27.5645)" fill="white"/>
<circle r="1.5" transform="matrix(-1 0 0 1 135.5 1.75293)" fill="white"/>
</g>
<defs>
<clipPath id="clip0_16163_134756">
<rect width="331.018" height="35.483" fill="white" transform="matrix(-1 0 0 1 331.83 0.25293)"/>
</clipPath>
</defs>
</svg>
