<svg width="53" height="41" viewBox="0 0 53 41" fill="none" xmlns="http://www.w3.org/2000/svg">
<g filter="url(#filter0_d_2023_18475)">
<rect x="6.5" y="4.5" width="40" height="28" rx="1.5" stroke="#00FFFF" stroke-width="3"/>
<path d="M23.4937 25.7513H13.1559V23.1651L16.6343 19.5743C17.3553 18.805 17.914 18.1883 18.3102 17.7241C18.7129 17.2599 18.9955 16.8654 19.1579 16.5405C19.3203 16.2155 19.4015 15.8773 19.4015 15.5259C19.4015 15.0948 19.2651 14.7832 18.9922 14.5908C18.7194 14.3985 18.3979 14.3024 18.0276 14.3024C17.5794 14.3024 17.1247 14.435 16.6636 14.7003C16.2089 14.9589 15.6925 15.3435 15.1143 15.8541L13 13.3276C13.4287 12.9363 13.8834 12.565 14.3641 12.2135C14.8448 11.8554 15.4131 11.5637 16.0692 11.3382C16.7253 11.1127 17.5242 11 18.4661 11C19.434 11 20.2719 11.1724 20.9799 11.5172C21.6944 11.8621 22.2466 12.3362 22.6363 12.9397C23.0261 13.5365 23.2209 14.2162 23.2209 14.9788C23.2209 15.821 23.0683 16.5736 22.763 17.2367C22.4642 17.8932 22.0127 18.5531 21.4086 19.2162C20.8045 19.8727 20.051 20.6187 19.1481 21.4542L18.1056 22.4092V22.5086H23.4937V25.7513Z" fill="#00FFFF"/>
<path d="M24.6926 24.1001C24.6926 23.3972 24.8939 22.9032 25.2967 22.618C25.7059 22.3329 26.1963 22.1903 26.7679 22.1903C27.3071 22.1903 27.7748 22.3329 28.171 22.618C28.5672 22.9032 28.7654 23.3972 28.7654 24.1001C28.7654 24.7699 28.5672 25.254 28.171 25.5524C27.7748 25.8508 27.3071 26 26.7679 26C26.1963 26 25.7059 25.8508 25.2967 25.5524C24.8939 25.254 24.6926 24.7699 24.6926 24.1001Z" fill="#00FFFF"/>
<path d="M35.6934 16.2221C36.4858 16.2221 37.2069 16.4045 37.8564 16.7692C38.506 17.134 39.0257 17.6645 39.4154 18.3607C39.8051 19.057 40 19.9058 40 20.9072C40 21.9881 39.7856 22.9065 39.3569 23.6625C38.9347 24.4118 38.2949 24.9821 37.4375 25.3733C36.5865 25.758 35.5115 25.9503 34.2124 25.9503C33.3874 25.9503 32.6339 25.884 31.9519 25.7513C31.2763 25.6253 30.6722 25.4297 30.1396 25.1645V21.9416C30.6398 22.1737 31.2406 22.3859 31.9421 22.5782C32.6502 22.7639 33.2997 22.8568 33.8908 22.8568C34.365 22.8568 34.7677 22.7871 35.099 22.6479C35.4303 22.5086 35.6804 22.3031 35.8493 22.0312C36.0247 21.7593 36.1123 21.4244 36.1123 21.0265C36.1123 20.4761 35.9175 20.0451 35.5277 19.7334C35.138 19.4151 34.5469 19.256 33.7544 19.256C33.3972 19.256 33.0464 19.2924 32.7021 19.3654C32.3579 19.4383 32.0558 19.5179 31.796 19.6041L30.3832 18.8879L30.9191 11.2089H39.0451V14.4814H34.1929L34.0175 16.4012C34.2254 16.3614 34.4365 16.3216 34.6508 16.2818C34.8717 16.242 35.2192 16.2221 35.6934 16.2221Z" fill="#00FFFF"/>
</g>
<defs>
<filter id="filter0_d_2023_18475" x="0.655488" y="0.393293" width="51.689" height="39.689" filterUnits="userSpaceOnUse" color-interpolation-filters="sRGB">
<feFlood flood-opacity="0" result="BackgroundImageFix"/>
<feColorMatrix in="SourceAlpha" type="matrix" values="0 0 0 0 0 0 0 0 0 0 0 0 0 0 0 0 0 0 127 0" result="hardAlpha"/>
<feOffset dy="1.7378"/>
<feGaussianBlur stdDeviation="2.17226"/>
<feColorMatrix type="matrix" values="0 0 0 0 0.333333 0 0 0 0 0.333333 0 0 0 0 0.333333 0 0 0 0.15 0"/>
<feBlend mode="normal" in2="BackgroundImageFix" result="effect1_dropShadow_2023_18475"/>
<feBlend mode="normal" in="SourceGraphic" in2="effect1_dropShadow_2023_18475" result="shape"/>
</filter>
</defs>
</svg>
