<svg width="432" height="56" viewBox="0 0 432 56" fill="none" xmlns="http://www.w3.org/2000/svg">
<g clip-path="url(#clip0_3003_40002)">
<path d="M638.859 -225.141C593.155 -277.032 510.364 -291.672 389.441 -273.242C259.755 -253.477 253.093 -195.056 75.4199 -199.328C-209.716 -206.184 -194.92 40.299 -57.6395 44.9999C144.361 -61.0001 231.997 80.7785 406.404 6.93447C562.04 -58.962 733.299 -117.917 638.859 -225.141Z" fill="#DCEEF8"/>
<path d="M204.119 8.698C205.979 9.19917 206.779 10.6217 206.414 12.9036" stroke="#3C5460" stroke-width="2" stroke-linecap="round"/>
<path d="M91.2817 20.2666C89.4216 19.7654 88.6214 18.3429 88.9873 16.061" stroke="#3C5460" stroke-width="2" stroke-linecap="round"/>
<path d="M44.5977 45.2461C43.1772 42.7755 41.4179 41.7946 38.9343 41.1308" stroke="#3C5460" stroke-width="2" stroke-linecap="round"/>
<path d="M323.51 13.6675C321.065 12.2045 320.114 10.4286 319.493 7.93388" stroke="#3C5460" stroke-width="2" stroke-linecap="round"/>
<path d="M137.666 39.9958C136.782 39.9956 135.384 39.9961 135.605 41.4993" stroke="#3C5460" stroke-width="2" stroke-linecap="round"/>
<path d="M12.5679 12.2295C13.4509 12.2293 14.849 12.2298 14.628 13.7329" stroke="#3C5460" stroke-width="2" stroke-linecap="round"/>
<path d="M281.641 43.1011C281.641 41.2192 282.094 40.5683 283.774 39.51" stroke="#3C5460" stroke-width="2" stroke-linecap="round"/>
</g>
<defs>
<clipPath id="clip0_3003_40002">
<rect width="432" height="56" fill="white"/>
</clipPath>
</defs>
</svg>
