<svg width="383" height="57" viewBox="0 0 383 57" fill="none" xmlns="http://www.w3.org/2000/svg">
<g clip-path="url(#clip0_3003_40641)">
<path d="M746.491 198.1C732.067 258.444 589.364 265.401 546.666 260.716C478.371 253.222 389.479 227.519 247.707 282.612C85.5411 345.631 -61.7286 290.28 -75.6751 153.762C-89.6217 17.2442 180.928 31.1255 317.446 17.1789C453.964 3.23239 779.481 60.0831 746.491 198.1Z" fill="#FDEED0"/>
<path d="M131.479 11.137C129.619 10.6358 128.819 9.21326 129.185 6.9314" stroke="#3C5460" stroke-width="2" stroke-linecap="round"/>
<path d="M334.987 28.2444C336.847 28.7456 337.648 30.1681 337.282 32.45" stroke="#3C5460" stroke-width="2" stroke-linecap="round"/>
<path d="M285.38 50.5203C285.034 49.3086 283.529 48.563 283.529 48.563" stroke="#3C5460" stroke-width="2" stroke-linecap="round"/>
<path d="M372.996 9.7981C375.442 8.33512 376.392 6.55918 377.013 4.06449" stroke="#3C5460" stroke-width="2" stroke-linecap="round"/>
<path d="M42.0156 4.99731C44.4613 6.46029 45.4117 8.23623 46.0325 10.7309" stroke="#3C5460" stroke-width="2" stroke-linecap="round"/>
<path d="M242.7 13.1638C243.583 13.164 244.981 13.1635 244.76 11.6604" stroke="#3C5460" stroke-width="2" stroke-linecap="round"/>
<path d="M100.872 46.4163C100.763 47.2926 100.59 48.6799 99.1253 48.275" stroke="#3C5460" stroke-width="2" stroke-linecap="round"/>
<path d="M188.442 24.0072L185.244 28.2444" stroke="#3C5460" stroke-width="2" stroke-linecap="round"/>
</g>
<defs>
<clipPath id="clip0_3003_40641">
<rect width="383" height="56" fill="white" transform="translate(0 0.244385)"/>
</clipPath>
</defs>
</svg>
