<svg width="419" height="53" viewBox="0 0 419 53" fill="none" xmlns="http://www.w3.org/2000/svg">
<circle cx="2.5" cy="2.5" r="2.5" transform="matrix(1 0 0 -1 324.5 37.625)" fill="#D9F4FF"/>
<circle cx="3" cy="3" r="3" transform="matrix(-1 0 0 1 6.91003 32.2949)" fill="#D9F4FF"/>
<path d="M36.5752 4.5795C39.338 1.60406 43.3675 7.4747 39.6751 9.0011C35.9827 10.5275 34.2691 6.42852 33.4752 4.2988" stroke="white" stroke-linecap="round" stroke-linejoin="round"/>
<path d="M280.75 19.8633C278.713 17.2879 276.75 16.3633 274.25 14.8633C277.25 14.3633 278.75 13.3633 281.75 12.3633C281.169 15.2337 280.75 15.3633 280.75 16.8633" stroke="white" stroke-linecap="round" stroke-linejoin="round"/>
<path d="M240.002 38.6546L238.556 41.5869L240.898 43.8683L237.662 43.3992L236.216 46.3315L235.663 43.1093L232.427 42.6402L235.32 41.1179L234.767 37.8957L237.109 40.177L240.002 38.6546Z" fill="white"/>
<path d="M112.068 36.6692C118.354 38.9172 121.87 31.3799 119.012 30.6173C116.154 29.8547 117.131 38.7926 120.717 39.3324C124.302 39.8722 128.38 33.1502 125.68 32.6864C122.981 32.2226 122.675 38.8564 125.939 40.0004C129.204 41.1444 131.583 37.4791 131.795 35.6775" stroke="white" stroke-linecap="round"/>
<ellipse cx="385.417" cy="18.2953" rx="33.5831" ry="34.2289" fill="#BE664F"/>
<path d="M374.981 31L380.801 20C380.894 19.8133 380.941 19.6467 380.941 19.5C380.941 19.3933 380.901 19.3 380.821 19.22C380.741 19.14 380.621 19.1 380.461 19.1H374.001V17H380.781C381.274 17 381.707 17.1067 382.081 17.32C382.467 17.5333 382.774 17.82 383.001 18.18C383.227 18.54 383.341 18.94 383.341 19.38C383.341 19.62 383.307 19.8667 383.241 20.12C383.174 20.36 383.094 20.5867 383.001 20.8L377.701 31H374.981ZM383.659 31.22C383.219 31.22 382.839 31.0667 382.519 30.76C382.212 30.44 382.059 30.06 382.059 29.62C382.059 29.1933 382.212 28.8267 382.519 28.52C382.839 28.2 383.219 28.04 383.659 28.04C384.086 28.04 384.452 28.2 384.759 28.52C385.079 28.8267 385.239 29.1933 385.239 29.62C385.239 29.9133 385.166 30.1867 385.019 30.44C384.886 30.68 384.699 30.8667 384.459 31C384.219 31.1467 383.952 31.22 383.659 31.22ZM387.125 31V28.9H391.525C392.005 28.9 392.425 28.7867 392.785 28.56C393.158 28.3333 393.445 28.0333 393.645 27.66C393.858 27.2867 393.965 26.8867 393.965 26.46C393.965 26.02 393.858 25.62 393.645 25.26C393.445 24.9 393.165 24.6133 392.805 24.4C392.445 24.1867 392.032 24.08 391.565 24.08H387.525V17H395.425V19.1H389.805V22.02H391.865C392.718 22.02 393.478 22.2267 394.145 22.64C394.825 23.04 395.358 23.58 395.745 24.26C396.145 24.94 396.345 25.68 396.345 26.48C396.345 27.2933 396.145 28.0467 395.745 28.74C395.345 29.42 394.805 29.9667 394.125 30.38C393.445 30.7933 392.678 31 391.825 31H387.125Z" fill="white"/>
<g opacity="0.7">
<path d="M64.8736 40.4752L64.9123 40.1373L74.5577 33.3835C74.9059 33.1397 75.0567 32.7048 75.1063 32.3718C75.1559 32.0378 75.1356 31.594 74.9095 31.2711L66.0333 18.5945L65.6237 18.8813C66.0333 18.5945 66.0331 18.5943 66.033 18.594L66.0327 18.5936L66.032 18.5927L66.0305 18.5906L66.0268 18.5855L66.0168 18.5718C66.0088 18.5613 65.9984 18.5478 65.9856 18.5321C65.96 18.5007 65.9242 18.4594 65.8787 18.4133C65.7893 18.3227 65.6535 18.2046 65.4746 18.1094C65.2935 18.0131 65.0604 17.9363 64.7874 17.9448C64.5112 17.9535 64.2296 18.0484 63.9547 18.2409L43.4759 32.5803C43.1393 32.816 42.9756 33.227 42.9163 33.5584C42.8576 33.8865 42.8675 34.3263 43.0973 34.6544C43.0973 34.6544 43.0973 34.6544 43.0973 34.6544L51.9734 47.3312C51.9785 47.3385 51.984 47.3463 51.9897 47.3546C52.099 47.5117 52.3175 47.826 52.6695 47.98C53.1044 48.1703 53.5839 48.0695 54.0789 47.7229L57.9881 44.9857L62.5644 46.1243C63.369 46.4209 64.2614 45.8469 64.3373 44.9948C64.4431 44.1621 64.5929 42.8946 64.7163 41.8352C64.7783 41.3029 64.8337 40.8225 64.8736 40.4752Z" stroke="white"/>
<path fill-rule="evenodd" clip-rule="evenodd" d="M50.0549 36.7458C49.892 36.5131 49.903 36.2243 50.0795 36.1007L65.0042 25.6503C65.1807 25.5267 65.4559 25.6152 65.6188 25.8478C65.7817 26.0805 65.7707 26.3693 65.5942 26.4929L50.6695 36.9433C50.493 37.0669 50.2178 36.9784 50.0549 36.7458Z" fill="white"/>
<path fill-rule="evenodd" clip-rule="evenodd" d="M51.7448 39.1583C51.5818 38.9256 51.5919 38.6375 51.7671 38.5148L61.7814 31.5027C61.9567 31.38 62.2308 31.4691 62.3937 31.7018C62.5566 31.9345 62.5466 32.2226 62.3713 32.3453L52.3571 39.3573C52.1818 39.4801 51.9077 39.3909 51.7448 39.1583Z" fill="white"/>
</g>
<path opacity="0.6" d="M170.5 16.4587V7.54199C170.5 6.98971 170.948 6.54199 171.5 6.54199H185.361C185.636 6.54199 185.899 6.65495 186.088 6.85437L192.226 13.3361C192.402 13.5218 192.5 13.7679 192.5 14.0237V32.4587C192.5 33.0109 192.052 33.4587 191.5 33.4587H170.458" stroke="white" stroke-linecap="round"/>
<path opacity="0.6" d="M184.5 9.5V14.5H189.5" stroke="white" stroke-linecap="round" stroke-linejoin="round"/>
<path opacity="0.7" d="M186.496 29.4877C186.496 29.4876 186.496 29.4876 186.496 29.4876C186.496 29.4876 186.496 29.4875 186.496 29.4874L186.493 29.5011C186.494 29.5001 186.494 29.4992 186.494 29.4982C186.495 29.4942 186.495 29.4906 186.496 29.4877C186.496 29.4877 186.496 29.4877 186.496 29.4877ZM186.496 29.4877C186.497 29.4912 186.498 29.4949 186.499 29.4984C186.499 29.4999 186.5 29.5014 186.5 29.5028C186.5 29.503 186.5 29.5032 186.5 29.5033C186.505 29.499 186.51 29.4948 186.516 29.4912C186.523 29.4869 186.528 29.4854 186.529 29.4852C186.529 29.4852 186.529 29.4852 186.529 29.4852C186.528 29.4854 186.519 29.4877 186.499 29.4877C186.498 29.4877 186.497 29.4877 186.496 29.4877ZM170.5 20.5L173.11 20.5C173.918 20.5 174.501 20.8015 174.888 21.2423C175.283 21.6918 175.5 22.3181 175.5 22.9963C175.5 23.6726 175.28 24.2982 174.883 24.7479C174.493 25.1893 173.909 25.4896 173.11 25.4896H171.001H170.501L170.501 25.9896L170.501 29.4614C170.5 29.4484 170.5 29.434 170.5 29.4181V20.5ZM186.504 25.5221L186.504 25.5078L186.999 25.505L188.984 25.4936C188.984 25.4936 188.984 25.4936 188.985 25.4936C189.038 25.4933 189.08 25.4966 189.11 25.5012C189.086 25.5112 189.045 25.5221 188.982 25.5221H186.996H186.504ZM186.495 29.4782L186.496 28.8809V29.4805L186.496 29.4833C186.496 29.4835 186.496 29.4838 186.496 29.4842C186.496 29.4847 186.496 29.4853 186.496 29.4859C186.496 29.4857 186.496 29.4854 186.496 29.4851C186.495 29.4823 186.495 29.4799 186.495 29.4782ZM178.499 29.5V20.5H181.007C182.329 20.5 183.488 21.576 183.488 22.8298V27.0746C183.488 28.3494 182.307 29.5 181.007 29.5H178.499Z" stroke="white"/>
</svg>
