<svg width="355" height="47" viewBox="0 0 355 47" fill="none" xmlns="http://www.w3.org/2000/svg">
<path fill-rule="evenodd" clip-rule="evenodd" d="M12.1741 19.7413L9.27931 22.6427C9.00766 22.915 9.00653 23.3576 9.27678 23.6312C9.54703 23.9049 9.98632 23.906 10.258 23.6338L13.6419 20.2421C13.8048 20.0787 13.8704 19.8541 13.8385 19.6415C13.819 19.4941 13.7529 19.3518 13.6402 19.2388L10.2607 15.8515C9.98901 15.5793 9.54971 15.5804 9.27946 15.8541C9.00921 16.1277 9.01035 16.5703 9.282 16.8426L12.1741 19.7413Z" fill="white"/>
<rect x="1" y="9.74121" width="20" height="20" rx="10" stroke="white" stroke-width="2"/>
<path d="M350.713 27.3596L342.34 25.1479L348.442 19.0024L350.713 27.3596Z" fill="white"/>
<circle cx="2.5" cy="2.5" r="3" transform="matrix(-1 0 0 1 287.91 5.52344)" stroke="white"/>
<circle cx="3" cy="3" r="3" transform="matrix(-1 0 0 1 87.2881 3.29297)" fill="white"/>
<g style="mix-blend-mode:soft-light" opacity="0.7">
<rect x="172.208" y="39.2398" width="52" height="6" transform="rotate(-30 172.208 39.2398)" fill="white"/>
</g>
<rect opacity="0.2" x="165.139" y="26.8081" width="17" height="35.2529" transform="rotate(-30 165.139 26.8081)" fill="white"/>
<path fill-rule="evenodd" clip-rule="evenodd" d="M197.711 15.2243L183.854 23.2243L182.988 23.7243L168.266 32.2243L167.4 32.7243L167.9 33.5903L170.9 38.7865L171.4 39.6525L174.4 44.8486L174.9 45.7147L177.9 50.9108L178.4 51.7768L181.4 56.973L181.9 57.839L227.799 31.339L227.299 30.473L224.299 25.2768L223.799 24.4108L220.799 19.2147L220.299 18.3486L217.299 13.1525L216.799 12.2865L213.799 7.09031L213.299 6.22429L212.433 6.72429L198.577 14.7243L197.711 15.2243ZM219.933 19.7147L206.077 27.7147L209.077 32.9108L222.933 24.9108L219.933 19.7147ZM205.211 28.2147L191.354 36.2147L194.354 41.4108L208.211 33.4108L205.211 28.2147ZM190.488 36.7147L175.766 45.2147L178.766 50.4108L193.488 41.9108L190.488 36.7147ZM175.266 44.3486L189.988 35.8486L186.988 30.6525L172.266 39.1525L175.266 44.3486ZM198.211 16.0903L184.354 24.0903L187.354 29.2865L201.211 21.2865L198.211 16.0903ZM201.711 22.1525L187.854 30.1525L190.854 35.3486L204.711 27.3486L201.711 22.1525ZM205.577 26.8486L219.433 18.8486L216.433 13.6525L202.577 21.6525L205.577 26.8486ZM202.077 20.7865L199.077 15.5903L212.933 7.59031L215.933 12.7865L202.077 20.7865ZM168.766 33.0903L183.488 24.5903L186.488 29.7865L171.766 38.2865L168.766 33.0903ZM208.711 34.2768L194.854 42.2768L197.854 47.473L211.711 39.473L208.711 34.2768ZM212.577 38.973L226.433 30.973L223.433 25.7768L209.577 33.7768L212.577 38.973ZM179.266 51.2768L193.988 42.7768L196.988 47.973L182.266 56.473L179.266 51.2768Z" fill="white" fill-opacity="0.6"/>
<path d="M163.9 26.6621L209.799 0.162109L210.299 1.02813L164.4 27.5281L163.9 26.6621Z" fill="white" fill-opacity="0.4"/>
<path d="M163.9 26.6621L209.799 0.162109L210.299 1.02813L164.4 27.5281L163.9 26.6621Z" fill="white" fill-opacity="0.4"/>
<path d="M167.4 32.7243L213.299 6.22429L213.799 7.09031L167.9 33.5903L167.4 32.7243Z" fill="white" fill-opacity="0.4"/>
<path d="M163.9 26.6621L164.766 26.1621L168.266 32.2243L167.4 32.7243L163.9 26.6621Z" fill="white" fill-opacity="0.4"/>
<path d="M208.933 0.662109L209.799 0.162109L213.299 6.22429L212.433 6.72429L208.933 0.662109Z" fill="white" fill-opacity="0.4"/>
<path d="M208.933 0.662109L209.799 0.162109L213.299 6.22429L212.433 6.72429L208.933 0.662109Z" fill="white" fill-opacity="0.4"/>
<path d="M179.488 17.6621L180.354 17.1621L183.854 23.2243L182.988 23.7243L179.488 17.6621Z" fill="white" fill-opacity="0.4"/>
<path d="M194.211 9.16211L195.077 8.66211L198.577 14.7243L197.711 15.2243L194.211 9.16211Z" fill="white" fill-opacity="0.4"/>
<path d="M123.99 16.2555C119.6 21.2852 125.331 27.313 127.085 24.9315C128.84 22.5499 120.163 20.1926 118.35 23.3329C116.537 26.4732 121.304 32.7256 122.722 30.3822C124.141 28.0387 118.078 25.3295 115.82 27.9501C113.562 30.5706 116.104 34.1251 117.704 34.9806" stroke="white" stroke-linecap="round"/>
<path d="M283.085 24C285.122 26.5754 287.085 27.5 289.585 29C286.585 29.5 285.085 30.5 282.085 31.5C282.666 28.6296 283.085 28.5 283.085 27" stroke="white" stroke-linecap="round" stroke-linejoin="round"/>
</svg>
