<svg width="68" height="68" viewBox="0 0 68 68" fill="none" xmlns="http://www.w3.org/2000/svg">
<circle cx="34" cy="34" r="34" fill="#BE664F"/>
<path d="M23.9808 47.3809L29.8008 36.3809C29.8941 36.1942 29.9408 36.0275 29.9408 35.8809C29.9408 35.7742 29.9008 35.6809 29.8208 35.6009C29.7408 35.5209 29.6208 35.4809 29.4608 35.4809H23.0008V33.3809H29.7808C30.2741 33.3809 30.7074 33.4875 31.0808 33.7009C31.4674 33.9142 31.7741 34.2009 32.0008 34.5609C32.2274 34.9209 32.3408 35.3209 32.3408 35.7609C32.3408 36.0009 32.3074 36.2475 32.2408 36.5009C32.1741 36.7409 32.0941 36.9675 32.0008 37.1809L26.7008 47.3809H23.9808ZM32.6589 47.6009C32.2189 47.6009 31.8389 47.4475 31.5189 47.1409C31.2122 46.8209 31.0589 46.4409 31.0589 46.0009C31.0589 45.5742 31.2122 45.2075 31.5189 44.9009C31.8389 44.5809 32.2189 44.4209 32.6589 44.4209C33.0856 44.4209 33.4522 44.5809 33.7589 44.9009C34.0789 45.2075 34.2389 45.5742 34.2389 46.0009C34.2389 46.2942 34.1656 46.5675 34.0189 46.8209C33.8856 47.0609 33.6989 47.2475 33.4589 47.3809C33.2189 47.5275 32.9522 47.6009 32.6589 47.6009ZM36.125 47.3809V45.2809H40.525C41.005 45.2809 41.425 45.1675 41.785 44.9409C42.1583 44.7142 42.445 44.4142 42.645 44.0409C42.8583 43.6675 42.965 43.2675 42.965 42.8409C42.965 42.4009 42.8583 42.0009 42.645 41.6409C42.445 41.2809 42.165 40.9942 41.805 40.7809C41.445 40.5675 41.0317 40.4609 40.565 40.4609H36.525V33.3809H44.425V35.4809H38.805V38.4009H40.865C41.7183 38.4009 42.4783 38.6075 43.145 39.0209C43.825 39.4209 44.3583 39.9609 44.745 40.6409C45.145 41.3209 45.345 42.0609 45.345 42.8609C45.345 43.6742 45.145 44.4275 44.745 45.1209C44.345 45.8009 43.805 46.3475 43.125 46.7609C42.445 47.1742 41.6783 47.3809 40.825 47.3809H36.125Z" fill="white"/>
</svg>
