<svg width="69" height="48" viewBox="0 0 69 48" fill="none" xmlns="http://www.w3.org/2000/svg">
<path d="M27.6358 63.2474L25.4069 64.5343C23.972 65.3627 22.1372 64.8711 21.3088 63.4362L4.21115 33.8222C3.38643 32.3938 3.86959 30.5675 5.29278 29.7337L21.8378 20.0411M21.8378 20.0411L32.9766 23.1702M21.8378 20.0411L24.4774 24.6131C25.3059 26.048 27.1406 26.5396 28.5755 25.7112L32.9766 23.1702M32.9766 23.1702L33.8238 24.6377" stroke="#2B71FF" stroke-width="1.6" stroke-linecap="round"/>
<path d="M35.677 27.8463L40.808 37.9583" stroke="#2B71FF" stroke-width="1.6" stroke-linecap="round"/>
<path d="M13.8545 40.4453L31.3122 30.3661" stroke="#2B71FF" stroke-width="1.6" stroke-linecap="round"/>
<path d="M16.374 44.8093L33.8317 34.7301" stroke="#2B71FF" stroke-width="1.6" stroke-linecap="round"/>
<path d="M18.8945 49.1738L36.3522 39.0946" stroke="#2B71FF" stroke-width="1.6" stroke-linecap="round"/>
<circle cx="12.9773" cy="33.8858" r="2.43974" transform="rotate(-30 12.9773 33.8858)" stroke="#2B71FF" stroke-width="1.6"/>
<path fill-rule="evenodd" clip-rule="evenodd" d="M48.805 50.4607C51.1955 49.0806 52.0146 46.0238 50.6344 43.6332C49.2542 41.2426 46.1974 40.4236 43.8069 41.8038C41.4163 43.184 40.5972 46.2407 41.9774 48.6313C43.3576 51.0219 46.4144 51.8409 48.805 50.4607ZM49.4297 51.5429C52.4179 49.8176 53.4418 45.9966 51.7165 43.0084C49.9913 40.0202 46.1703 38.9964 43.1821 40.7216C40.1939 42.4469 39.1701 46.2679 40.8953 49.2561C42.6205 52.2443 46.4415 53.2681 49.4297 51.5429Z" fill="#2B71FF"/>
<path fill-rule="evenodd" clip-rule="evenodd" d="M45.0564 43.968C44.4588 44.3131 44.254 45.0773 44.599 45.6749C44.9441 46.2725 45.7083 46.4773 46.3059 46.1323C46.9036 45.7872 47.1083 45.023 46.7633 44.4254C46.4182 43.8277 45.654 43.623 45.0564 43.968ZM43.5169 46.2997C42.8268 45.1044 43.2363 43.576 44.4316 42.8859C45.6269 42.1958 47.1553 42.6053 47.8454 43.8006C48.5355 44.9959 48.126 46.5243 46.9307 47.2144C45.7354 47.9045 44.207 47.4949 43.5169 46.2997Z" fill="#2B71FF"/>
<path fill-rule="evenodd" clip-rule="evenodd" d="M45.3868 49.0875C45.1948 49.8041 45.2981 50.6343 45.7873 51.4816L44.7052 52.1064C44.0729 51.0113 43.8911 49.8419 44.1799 48.7641C44.4687 47.6863 45.2108 46.7645 46.3059 46.1323C47.401 45.5 48.5703 45.3182 49.6482 45.607C50.726 45.8958 51.6478 46.6379 52.28 47.733L51.1979 48.3578C50.7087 47.5105 50.0413 47.0059 49.3248 46.8139C48.6082 46.6219 47.7779 46.7252 46.9307 47.2144C46.0834 47.7035 45.5788 48.3709 45.3868 49.0875Z" fill="#2B71FF"/>
<path fill-rule="evenodd" clip-rule="evenodd" d="M34.8461 47.694C34.0284 47.7092 33.203 47.9257 32.4446 48.3636C30.054 49.7438 29.2349 52.8006 30.6151 55.1911C31.1368 56.0947 31.898 56.7737 32.7722 57.1944C32.6417 56.5616 32.6556 55.9284 32.8176 55.3239C32.9487 54.8345 33.1733 54.3773 33.482 53.9648C32.9414 53.773 32.4639 53.3951 32.1546 52.8595C31.4645 51.6642 31.874 50.1358 33.0693 49.4457C33.566 49.1589 34.1203 49.062 34.648 49.1325C34.639 49.5678 34.6755 50.0063 34.7593 50.4406C34.4213 50.3135 34.0312 50.3332 33.6941 50.5278C33.0964 50.8729 32.8917 51.6371 33.2367 52.2347C33.5818 52.8323 34.346 53.0371 34.9436 52.6921C35.1415 52.5778 35.2964 52.4176 35.4024 52.2326C35.4291 52.2819 35.4566 52.3309 35.4847 52.3797C35.7115 52.7725 35.9745 53.1313 36.267 53.4544C36.0368 53.5326 35.8032 53.6386 35.5684 53.7742C34.7211 54.2634 34.2165 54.9308 34.0245 55.6473C33.8632 56.2496 33.9104 56.9322 34.22 57.6377C35.2949 57.7957 36.4287 57.606 37.4427 57.0206C38.201 56.5827 38.8013 55.9761 39.2233 55.2756C39.6486 55.3938 40.0864 55.4671 40.5288 55.4935C40.0002 56.5496 39.1668 57.468 38.0674 58.1027C35.0792 59.8279 31.2582 58.8041 29.533 55.8159C27.8078 52.8277 28.8316 49.0067 31.8198 47.2815C32.9192 46.6467 34.1312 46.3841 35.3102 46.4545C35.1119 46.8508 34.9565 47.2665 34.8461 47.694Z" fill="#2B71FF"/>
<path fill-rule="evenodd" clip-rule="evenodd" d="M46.3072 52.3808C45.7771 53.3008 45.0052 54.0978 44.0196 54.6669C41.0314 56.3921 37.2104 55.3683 35.4851 52.3801C33.7599 49.3919 34.7837 45.5709 37.7719 43.8457C38.7575 43.2766 39.8337 43.0067 40.8954 43.0076C40.6615 43.4135 40.4747 43.8434 40.3374 44.2882C39.673 44.3625 39.0127 44.5721 38.3967 44.9278C36.0061 46.308 35.1871 49.3648 36.5673 51.7553C37.0889 52.6589 37.8501 53.3379 38.7243 53.7586C38.5938 53.1258 38.6078 52.4926 38.7697 51.8881C38.9009 51.3987 39.1255 50.9415 39.4341 50.529C38.8936 50.3372 38.416 49.9593 38.1068 49.4237C37.4167 48.2284 37.8262 46.7 39.0215 46.0099C39.3551 45.8173 39.7147 45.7103 40.0747 45.6822C40.0444 46.0973 40.0553 46.517 40.1093 46.9348C39.9507 46.9554 39.7934 47.0071 39.6462 47.092C39.0486 47.4371 38.8438 48.2013 39.1889 48.7989C39.5339 49.3966 40.2981 49.6013 40.8958 49.2563C40.8959 49.2562 40.8961 49.2561 40.8962 49.256C41.1105 49.6272 41.3571 49.968 41.6305 50.277C41.5939 50.2968 41.5572 50.3172 41.5205 50.3384C40.6733 50.8276 40.1687 51.495 39.9767 52.2115C39.8153 52.8138 39.8625 53.4964 40.1722 54.2019C41.2471 54.3599 42.3809 54.1702 43.3948 53.5848C44.0109 53.2291 44.5226 52.762 44.9192 52.2237C45.373 52.3272 45.8387 52.3804 46.3072 52.3808Z" fill="#2B71FF"/>
<path d="M25.6564 5.65689L24.2422 4.24268" stroke="#FF8E3D" stroke-linecap="round"/>
<path d="M29.8996 9.89957L28.4854 8.48535" stroke="#FF8E3D" stroke-linecap="round"/>
<path d="M29.8996 4.24252L28.4854 5.65674" stroke="#FF8E3D" stroke-linecap="round"/>
<path d="M25.6564 8.4852L24.2422 9.89941" stroke="#FF8E3D" stroke-linecap="round"/>
<circle cx="34.998" cy="23.5" r="14" fill="white"/>
<path d="M30.3655 19.5009C28.8302 19.5009 28.4282 19.5009 26.8922 19.5009C26.1544 19.5009 25.9987 19.6401 25.9987 20.2927C25.9987 22.1527 25.9972 24.0128 25.9987 25.8729C26.0002 27.4137 27.1895 28.4947 28.8982 28.4973C31.9688 28.502 33.9069 28.4994 36.9775 28.498C37.6364 28.498 37.8312 28.32 37.8312 27.7196C37.8326 25.8816 37.8341 24.0436 37.8312 22.2056C37.8282 20.5584 36.6507 19.5009 34.824 19.5002C33.3373 19.4995 31.8522 19.5009 30.3655 19.5009ZM42.9964 24.0001C42.9964 22.6862 43.0038 21.3723 42.9875 20.0591C42.9853 19.8897 42.9093 19.6407 42.7787 19.5758C42.6563 19.5149 42.3833 19.6086 42.2328 19.7057C40.9948 20.5082 39.7649 21.3214 38.5483 22.1501C38.4103 22.2444 38.2997 22.4546 38.2952 22.6139C38.2716 23.5262 38.2937 24.4399 38.2768 25.3522C38.2724 25.6072 38.3749 25.7604 38.5948 25.9023C39.3938 26.4197 40.181 26.9525 40.9734 27.4773C41.4293 27.7792 41.8794 28.0891 42.3479 28.3742C42.7064 28.5924 42.9602 28.4645 42.9927 28.0737C43.0008 27.9739 42.9964 27.8735 42.9964 27.7731C42.9964 26.5148 42.9964 25.2571 42.9964 23.9988V24.0001Z" fill="#0B5CFF"/>
<path d="M4 16C4 16.5523 4.44771 17 5 17C5.55228 17 6 16.5523 6 16C6 15.4477 5.55228 15 5 15C4.44771 15 4 15.4477 4 16Z" fill="#9ADAF3"/>
</svg>
