<svg width="85" height="57" viewBox="0 0 85 57" fill="none" xmlns="http://www.w3.org/2000/svg">
<g opacity="0.8" filter="url(#filter0_dd_3494_10390)">
<path fill-rule="evenodd" clip-rule="evenodd" d="M46.3293 33.8359L45.8775 40.1034H13.0472L12.8779 30.4662L27.583 16.0654C28.7381 14.9944 29.7218 14.026 30.2582 13.2021C30.4809 12.8845 30.7955 12.5381 31.1076 12.1946C31.6048 11.6471 32.0954 11.107 32.1968 10.702C32.2891 10.3888 32.4283 10.1712 32.5539 9.97482C32.7092 9.73216 32.8438 9.52177 32.8438 9.20304C32.8438 7.80248 32.4177 6.81395 31.4688 6.03128C30.5612 5.24862 29.8882 5.24578 28.0317 5.24578C26.464 5.24578 24.9062 5.86311 23.5448 6.56339C22.6839 7.00624 21.9503 7.79084 21.1933 8.60049C20.7533 9.07116 20.3054 9.55029 19.8199 9.97567L12.1719 0.703125C12.1719 0.703125 10.7953 1.68992 9.84716 4.724C9.84716 4.724 8.94873 6.56339 8.94873 11.2272V48.7477C8.94873 56.8885 15.5634 63.488 23.7231 63.488H61.3305C69.3879 63.488 75.9388 57.053 76.1018 49.0532L59.7942 34.8459L46.3293 33.8359Z" fill="url(#paint0_linear_3494_10390)"/>
</g>
<path d="M46.5489 39.7623H47.0489V39.2623V29.2096V28.7096H46.5489H30.3893L33.0685 26.2936C33.0685 26.2936 33.0686 26.2935 33.0686 26.2935C35.2279 24.3504 37.1144 22.5742 38.7272 20.9651C40.3894 19.3067 41.761 17.7047 42.8375 16.1587C43.9614 14.6053 44.7889 13.0008 45.3133 11.3454C45.8807 9.64582 46.1617 7.80154 46.1617 5.81657C46.1617 3.36231 45.5013 1.15655 44.1756 -0.784708C42.895 -2.7218 41.09 -4.23161 38.7805 -5.31914C36.4594 -6.45439 33.7204 -7.01221 30.5794 -7.01221C27.5454 -7.01221 24.953 -6.65047 22.8157 -5.91139C20.7068 -5.22394 18.8458 -4.31858 17.238 -3.19137L17.238 -3.1914L17.2327 -3.18762C16.1832 -2.43137 15.2711 -1.54508 14.3886 -0.687627C13.97 -0.280838 13.558 0.119462 13.1412 0.496308L12.8023 0.802743L13.077 1.16783L19.4037 9.57524L19.7249 10.0021L20.1296 9.65339C20.5987 9.24924 21.0229 8.86905 21.4157 8.51574C21.4562 8.4793 21.4963 8.44318 21.5361 8.40736C21.8835 8.09469 22.2049 7.8054 22.5156 7.53623C23.2077 6.93658 23.826 6.45508 24.4997 6.07943C25.4161 5.56852 26.6803 5.11524 27.9449 4.95783C29.2185 4.7993 30.4135 4.94946 31.2675 5.54587L31.2674 5.54598L31.2769 5.55227C32.8173 6.57685 33.2048 8.75592 32.3504 10.4608C31.8736 11.4122 31.0008 12.5949 29.7034 14.0146L29.7033 14.0145L29.6979 14.0206C28.4382 15.445 26.6721 17.3541 24.3976 19.7496L13.1985 30.1419L13.034 30.2946L13.0387 30.519L13.2229 39.2729L13.2332 39.7623H13.7228H46.5489Z" stroke="#07DAC9"/>
<path d="M49.8822 59.7063L49.8822 59.7063L49.8868 59.7093C52.7958 61.5981 56.4191 62.5256 60.7259 62.5256C64.4466 62.5256 67.7163 61.8012 70.5197 60.3344C73.3608 58.8711 75.5713 56.8295 77.1374 54.2113C78.7502 51.5895 79.5506 48.5842 79.5506 45.2112C79.5506 42.0286 78.8895 39.2696 77.5445 36.955C76.2073 34.6096 74.3805 32.8081 72.0682 31.5615C69.7568 30.2709 67.1308 29.6316 64.2036 29.6316C62.4197 29.6316 60.7423 29.8823 59.1742 30.3877C58.1456 30.69 57.218 31.0743 56.395 31.5432C57.1903 30.007 58.2004 28.7847 59.4195 27.8637C61.0447 26.6695 63.0005 25.8512 65.2992 25.4185L65.2992 25.4186L65.3063 25.4171C67.6663 24.9375 70.3218 24.7609 73.2767 24.8929L73.799 24.9162V24.3934V14.2513V13.7743L73.3225 13.7519C68.5495 13.5273 64.1897 13.9983 60.2486 15.1734L60.2471 15.1738C56.352 16.3487 52.9675 18.1596 50.1017 20.6104L50.1017 20.6104L50.0987 20.613C47.2764 23.0654 45.0927 26.0625 43.5481 29.5978L43.5481 29.5978L43.5469 29.6006C42.0449 33.0972 41.2993 37.0359 41.2993 41.408C41.2993 45.2947 42.0017 48.8347 43.4155 52.0197C44.8358 55.2194 46.9934 57.7849 49.8822 59.7063ZM64.618 49.1408L64.6179 49.1408L64.6136 49.1508C64.2464 50.0056 63.7271 50.6345 63.063 51.0632C62.3929 51.4958 61.6193 51.7172 60.7259 51.7172C59.1564 51.7172 57.9941 51.2099 57.1694 50.2352C56.3367 49.1522 55.7901 47.8781 55.5353 46.4021C55.3269 44.8994 55.3429 43.5325 55.5745 42.2967C55.9286 41.8796 56.3169 41.5186 56.7393 41.2121L56.7393 41.2122L56.7452 41.2078C57.2329 40.8428 57.7577 40.5816 58.3216 40.4209L58.332 40.4179L58.3423 40.4145C58.9596 40.2092 59.5973 40.1064 60.2577 40.1064C61.4289 40.1064 62.3444 40.377 63.0418 40.8795C63.7632 41.3993 64.3089 42.1005 64.6772 42.9988L64.6772 42.9989L64.6805 43.0065C65.0515 43.8703 65.2418 44.8472 65.2418 45.9452C65.2418 47.1777 65.0289 48.2389 64.618 49.1408Z" fill="#1F586C" stroke="#07DAC9"/>
<defs>
<filter id="filter0_dd_3494_10390" x="0.94873" y="-5.29688" width="83.1528" height="78.7849" filterUnits="userSpaceOnUse" color-interpolation-filters="sRGB">
<feFlood flood-opacity="0" result="BackgroundImageFix"/>
<feColorMatrix in="SourceAlpha" type="matrix" values="0 0 0 0 0 0 0 0 0 0 0 0 0 0 0 0 0 0 127 0" result="hardAlpha"/>
<feMorphology radius="2" operator="dilate" in="SourceAlpha" result="effect1_dropShadow_3494_10390"/>
<feOffset dy="2"/>
<feGaussianBlur stdDeviation="3"/>
<feColorMatrix type="matrix" values="0 0 0 0 0 0 0 0 0 0 0 0 0 0 0 0 0 0 0.15 0"/>
<feBlend mode="normal" in2="BackgroundImageFix" result="effect1_dropShadow_3494_10390"/>
<feColorMatrix in="SourceAlpha" type="matrix" values="0 0 0 0 0 0 0 0 0 0 0 0 0 0 0 0 0 0 127 0" result="hardAlpha"/>
<feOffset dy="1"/>
<feGaussianBlur stdDeviation="1"/>
<feColorMatrix type="matrix" values="0 0 0 0 0 0 0 0 0 0 0 0 0 0 0 0 0 0 0.3 0"/>
<feBlend mode="normal" in2="effect1_dropShadow_3494_10390" result="effect2_dropShadow_3494_10390"/>
<feBlend mode="normal" in="SourceGraphic" in2="effect2_dropShadow_3494_10390" result="shape"/>
</filter>
<linearGradient id="paint0_linear_3494_10390" x1="33.7953" y1="-4.91632" x2="67.6306" y2="63.0764" gradientUnits="userSpaceOnUse">
<stop offset="0.04" stop-color="#00FFDD"/>
<stop offset="1" stop-color="#00B5FD"/>
</linearGradient>
</defs>
</svg>
