<svg width="92" height="48" viewBox="0 0 92 48" fill="none" xmlns="http://www.w3.org/2000/svg">
<path d="M60.6358 31.2474L58.4069 32.5343C56.972 33.3627 55.1372 32.8711 54.3088 31.4362L37.2111 1.82221C36.3864 0.393758 36.8696 -1.43255 38.2928 -2.26631L54.8378 -11.9589M54.8378 -11.9589L65.9766 -8.82978M54.8378 -11.9589L57.4774 -7.38689C58.3059 -5.95201 60.1406 -5.46039 61.5755 -6.28881L65.9766 -8.82978M65.9766 -8.82978L66.8238 -7.3623" stroke="#2B71FF" stroke-width="1.6" stroke-linecap="round"/>
<path d="M68.677 -4.15371L73.808 5.9583" stroke="#2B71FF" stroke-width="1.6" stroke-linecap="round"/>
<path d="M46.8545 8.44531L64.3122 -1.63389" stroke="#2B71FF" stroke-width="1.6" stroke-linecap="round"/>
<path d="M49.374 12.8093L66.8317 2.73013" stroke="#2B71FF" stroke-width="1.6" stroke-linecap="round"/>
<path d="M51.8945 17.1738L69.3522 7.09463" stroke="#2B71FF" stroke-width="1.6" stroke-linecap="round"/>
<path d="M54.4141 21.5383L59.0487 18.9169" stroke="#2B71FF" stroke-width="1.6" stroke-linecap="round"/>
<circle cx="45.9773" cy="1.88578" r="2.43974" transform="rotate(-30 45.9773 1.88578)" stroke="#2B71FF" stroke-width="1.6"/>
<path fill-rule="evenodd" clip-rule="evenodd" d="M81.805 18.4607C84.1955 17.0806 85.0146 14.0238 83.6344 11.6332C82.2542 9.24264 79.1974 8.42357 76.8069 9.80376C74.4163 11.184 73.5972 14.2407 74.9774 16.6313C76.3576 19.0219 79.4144 19.8409 81.805 18.4607ZM82.4297 19.5429C85.4179 17.8176 86.4418 13.9966 84.7165 11.0084C82.9913 8.02023 79.1703 6.9964 76.1821 8.72164C73.1939 10.4469 72.1701 14.2679 73.8953 17.2561C75.6205 20.2443 79.4415 21.2681 82.4297 19.5429Z" fill="#2B71FF"/>
<path fill-rule="evenodd" clip-rule="evenodd" d="M78.0564 11.968C77.4588 12.3131 77.254 13.0773 77.599 13.6749C77.9441 14.2725 78.7083 14.4773 79.3059 14.1323C79.9036 13.7872 80.1083 13.023 79.7633 12.4254C79.4182 11.8277 78.654 11.623 78.0564 11.968ZM76.5169 14.2997C75.8268 13.1044 76.2363 11.576 77.4316 10.8859C78.6269 10.1958 80.1553 10.6053 80.8454 11.8006C81.5355 12.9959 81.126 14.5243 79.9307 15.2144C78.7354 15.9045 77.207 15.4949 76.5169 14.2997Z" fill="#2B71FF"/>
<path fill-rule="evenodd" clip-rule="evenodd" d="M78.3868 17.0875C78.1948 17.8041 78.2981 18.6343 78.7873 19.4816L77.7052 20.1064C77.0729 19.0113 76.8911 17.8419 77.1799 16.7641C77.4687 15.6863 78.2108 14.7645 79.3059 14.1323C80.401 13.5 81.5703 13.3182 82.6482 13.607C83.726 13.8958 84.6478 14.6379 85.28 15.733L84.1979 16.3578C83.7087 15.5105 83.0413 15.0059 82.3248 14.8139C81.6082 14.6219 80.7779 14.7252 79.9307 15.2144C79.0834 15.7035 78.5788 16.3709 78.3868 17.0875Z" fill="#2B71FF"/>
<path fill-rule="evenodd" clip-rule="evenodd" d="M67.8461 15.694C67.0284 15.7092 66.203 15.9257 65.4446 16.3636C63.054 17.7438 62.2349 20.8006 63.6151 23.1911C64.1368 24.0947 64.898 24.7737 65.7722 25.1944C65.6417 24.5616 65.6556 23.9284 65.8176 23.3239C65.9487 22.8345 66.1733 22.3773 66.482 21.9648C65.9414 21.773 65.4639 21.3951 65.1546 20.8595C64.4645 19.6642 64.874 18.1358 66.0693 17.4457C66.566 17.1589 67.1203 17.062 67.648 17.1325C67.639 17.5678 67.6755 18.0063 67.7593 18.4406C67.4213 18.3135 67.0312 18.3332 66.6941 18.5278C66.0964 18.8729 65.8917 19.6371 66.2367 20.2347C66.5818 20.8323 67.346 21.0371 67.9436 20.6921C68.1415 20.5778 68.2964 20.4176 68.4024 20.2326C68.4291 20.2819 68.4566 20.3309 68.4847 20.3797C68.7115 20.7725 68.9745 21.1313 69.267 21.4544C69.0368 21.5326 68.8032 21.6386 68.5684 21.7742C67.7211 22.2634 67.2165 22.9308 67.0245 23.6473C66.8632 24.2496 66.9104 24.9322 67.22 25.6377C68.2949 25.7957 69.4287 25.606 70.4427 25.0206C71.201 24.5827 71.8013 23.9761 72.2233 23.2756C72.6486 23.3938 73.0864 23.4671 73.5288 23.4935C73.0002 24.5496 72.1668 25.468 71.0674 26.1027C68.0792 27.8279 64.2582 26.8041 62.533 23.8159C60.8078 20.8277 61.8316 17.0067 64.8198 15.2815C65.9192 14.6467 67.1312 14.3841 68.3102 14.4545C68.1119 14.8508 67.9565 15.2665 67.8461 15.694Z" fill="#2B71FF"/>
<path fill-rule="evenodd" clip-rule="evenodd" d="M79.3072 20.3808C78.7771 21.3008 78.0052 22.0978 77.0196 22.6669C74.0314 24.3921 70.2104 23.3683 68.4851 20.3801C66.7599 17.3919 67.7837 13.5709 70.7719 11.8457C71.7575 11.2766 72.8337 11.0067 73.8954 11.0076C73.6615 11.4135 73.4747 11.8434 73.3374 12.2882C72.673 12.3625 72.0127 12.5721 71.3967 12.9278C69.0061 14.308 68.1871 17.3648 69.5673 19.7553C70.0889 20.6589 70.8501 21.3379 71.7243 21.7586C71.5938 21.1258 71.6078 20.4926 71.7697 19.8881C71.9009 19.3987 72.1255 18.9415 72.4341 18.529C71.8936 18.3372 71.416 17.9593 71.1068 17.4237C70.4167 16.2284 70.8262 14.7 72.0215 14.0099C72.3551 13.8173 72.7147 13.7103 73.0747 13.6822C73.0444 14.0973 73.0553 14.517 73.1093 14.9348C72.9507 14.9554 72.7934 15.0071 72.6462 15.092C72.0486 15.4371 71.8438 16.2013 72.1889 16.7989C72.5339 17.3966 73.2981 17.6013 73.8958 17.2563C73.8959 17.2562 73.8961 17.2561 73.8962 17.256C74.1105 17.6272 74.3571 17.968 74.6305 18.277C74.5939 18.2968 74.5572 18.3172 74.5205 18.3384C73.6733 18.8276 73.1687 19.495 72.9767 20.2115C72.8153 20.8138 72.8625 21.4964 73.1722 22.2019C74.2471 22.3599 75.3809 22.1702 76.3948 21.5848C77.0109 21.2291 77.5226 20.762 77.9192 20.2237C78.373 20.3272 78.8387 20.3804 79.3072 20.3808Z" fill="#2B71FF"/>
<path d="M-8.9407e-08 7C-8.9407e-08 7.55228 0.447712 8 0.999996 8C1.55228 8 2 7.55228 2 7C2 6.44772 1.55228 6 0.999996 6C0.447712 6 -8.9407e-08 6.44772 -8.9407e-08 7Z" fill="#9ADAF3"/>
<path fill-rule="evenodd" clip-rule="evenodd" d="M61.5417 23.4975L57.2917 27.7574C56.9016 28.1483 56.9 28.7838 57.288 29.1768L57.3151 29.2042C57.7032 29.5972 58.334 29.5988 58.724 29.2078L63.7039 24.2165C63.9239 23.996 64.0203 23.6977 63.993 23.409C63.9748 23.1784 63.878 22.9531 63.7025 22.7772L58.7291 17.7923C58.339 17.4013 57.7082 17.4029 57.3201 17.7959L57.2931 17.8233C56.905 18.2163 56.9066 18.8518 57.2967 19.2428L61.5417 23.4975Z" fill="white"/>
<path d="M79 35V33" stroke="#FF8E3D" stroke-linecap="round"/>
<path d="M79 41V39" stroke="#FF8E3D" stroke-linecap="round"/>
<path d="M83 37L81 37" stroke="#FF8E3D" stroke-linecap="round"/>
<path d="M77 37L75 37" stroke="#FF8E3D" stroke-linecap="round"/>
</svg>
