<svg width="419" height="53" viewBox="0 0 419 53" fill="none" xmlns="http://www.w3.org/2000/svg">
<path d="M327 33.1934C328.381 33.1934 329.5 34.3127 329.5 35.6934C329.5 37.0741 328.381 38.1934 327 38.1934C325.619 38.1934 324.5 37.0741 324.5 35.6934C324.5 34.3127 325.619 33.1934 327 33.1934Z" fill="#D9F4FF"/>
<path d="M3.90997 38.8633C2.25312 38.8633 0.909973 37.5202 0.909973 35.8633C0.909973 34.2065 2.25312 32.8633 3.90997 32.8633C5.56683 32.8633 6.90997 34.2065 6.90997 35.8633C6.90997 37.5202 5.56683 38.8633 3.90997 38.8633Z" fill="#D9F4FF"/>
<path d="M36.5752 5.14786C39.338 2.17242 43.3675 8.04306 39.6751 9.56946C35.9827 11.0959 34.2691 6.99688 33.4752 4.86716" stroke="white" stroke-linecap="round" stroke-linejoin="round"/>
<path d="M280.75 20.4316C278.713 17.8563 276.75 16.9316 274.25 15.4316C277.25 14.9316 278.75 13.9316 281.75 12.9316C281.169 15.802 280.75 15.9316 280.75 17.4316" stroke="white" stroke-linecap="round" stroke-linejoin="round"/>
<path d="M240.002 39.223L238.556 42.1553L240.898 44.4366L237.662 43.9676L236.216 46.8999L235.663 43.6777L232.427 43.2086L235.32 41.6862L234.767 38.464L237.109 40.7454L240.002 39.223Z" fill="white"/>
<path d="M112.068 37.2376C118.354 39.4855 121.87 31.9482 119.012 31.1856C116.154 30.423 117.131 39.3609 120.717 39.9007C124.302 40.4405 128.38 33.7186 125.68 33.2548C122.981 32.7909 122.675 39.4248 125.939 40.5688C129.204 41.7127 131.583 38.0475 131.795 36.2459" stroke="white" stroke-linecap="round"/>
<g opacity="0.7">
<path d="M66.0333 19.1628L74.9095 31.8395C75.1356 32.1624 75.1559 32.6062 75.1063 32.9401C75.0567 33.2732 74.9059 33.7081 74.5577 33.9519L64.9123 40.7057L64.8736 41.0435C64.8337 41.3909 64.7783 41.8713 64.7163 42.4036C64.5929 43.463 64.4431 44.7305 64.3373 45.5632C64.2614 46.4153 63.369 46.9893 62.5644 46.6927L57.9881 45.554L54.0789 48.2913C53.5839 48.6379 53.1044 48.7387 52.6695 48.5484C52.3175 48.3943 52.099 48.0801 51.9897 47.9229C51.984 47.9147 51.9785 47.9069 51.9734 47.8995L43.0973 35.2228C42.8675 34.8947 42.8576 34.4548 42.9163 34.1268C42.9756 33.7954 43.1393 33.3844 43.4759 33.1487L63.9547 18.8093C64.2296 18.6168 64.5112 18.5218 64.7874 18.5132C65.0604 18.5047 65.2935 18.5814 65.4746 18.6778C65.6535 18.773 65.7893 18.8911 65.8787 18.9816C65.9242 19.0277 65.96 19.069 65.9856 19.1004C65.9984 19.1162 66.0088 19.1297 66.0168 19.1402L66.0268 19.1538L66.0305 19.1589L66.032 19.161L66.0327 19.162L66.0333 19.1628ZM66.0333 19.1628L65.6237 19.4496C66.0333 19.1628 66.0334 19.163 66.0333 19.1628Z" stroke="white"/>
<path fill-rule="evenodd" clip-rule="evenodd" d="M50.0549 37.3139C49.892 37.0812 49.903 36.7924 50.0795 36.6688L65.0042 26.2184C65.1807 26.0948 65.4559 26.1832 65.6188 26.4159C65.7817 26.6486 65.7707 26.9374 65.5942 27.061L50.6695 37.5113C50.493 37.6349 50.2178 37.5465 50.0549 37.3139Z" fill="white"/>
<path fill-rule="evenodd" clip-rule="evenodd" d="M51.7448 39.7269C51.5819 39.4943 51.5919 39.2062 51.7672 39.0834L61.7814 32.0714C61.9567 31.9487 62.2308 32.0378 62.3938 32.2704C62.5567 32.5031 62.5466 32.7912 62.3714 32.914L52.3571 39.926C52.1819 40.0487 51.9077 39.9596 51.7448 39.7269Z" fill="white"/>
</g>
<path opacity="0.6" d="M170.5 16.4587V7.54199C170.5 6.98971 170.948 6.54199 171.5 6.54199H185.361C185.636 6.54199 185.899 6.65495 186.088 6.85437L192.226 13.3361C192.402 13.5218 192.5 13.7679 192.5 14.0237V32.4587C192.5 33.0109 192.052 33.4587 191.5 33.4587H170.458" stroke="white" stroke-linecap="round"/>
<path opacity="0.6" d="M184.5 9.5V14.5H189.5" stroke="white" stroke-linecap="round" stroke-linejoin="round"/>
<path opacity="0.7" fill-rule="evenodd" clip-rule="evenodd" d="M173.11 20H170V29.4181C170 29.4366 170 29.455 170.001 29.4731C170.001 29.4802 170.002 29.4873 170.002 29.4944C170.002 29.4989 170.003 29.5033 170.003 29.5078C170.022 29.78 170.139 29.9994 170.492 29.9994C170.918 29.9994 171.001 29.7536 171.001 29.5078V25.9896H173.11C174.984 25.9896 176 24.5584 176 22.9963C176 21.4342 175 20 173.11 20ZM171 24.9896H173.11C173.772 24.9896 174.217 24.7467 174.508 24.417C174.814 24.0707 175 23.5678 175 22.9963C175 22.4209 174.815 21.9174 174.512 21.5721C174.225 21.2445 173.781 21 173.11 21H171V24.9896ZM190.037 20.9936C190.428 20.993 190.592 20.7764 190.592 20.4906C190.592 20.2772 190.428 20.0006 190.037 20H190.036H186.018L185.995 29.488C185.995 29.4937 185.996 29.9877 186.499 29.9877C186.967 29.9877 186.995 29.5583 186.996 29.4958C186.996 29.4906 186.996 29.4857 186.996 29.4805V26.0221H188.982C189.371 26.0221 189.63 25.8016 189.63 25.51C189.63 25.1196 189.373 24.9915 188.982 24.9936L186.996 25.005V20.9936H190.037ZM178.999 21V29H181.007C182.043 29 182.988 28.0614 182.988 27.0746V22.8298C182.988 21.885 182.087 21 181.007 21H178.999ZM177.999 20H181.007C182.572 20 183.988 21.267 183.988 22.8298V27.0746C183.988 28.6375 182.572 30 181.007 30H177.999V20Z" fill="white"/>
<ellipse cx="385.417" cy="18.2953" rx="33.5831" ry="34.2289" fill="#BE664F"/>
<path d="M374.981 31L380.801 20C380.894 19.8133 380.941 19.6467 380.941 19.5C380.941 19.3933 380.901 19.3 380.821 19.22C380.741 19.14 380.621 19.1 380.461 19.1H374.001V17H380.781C381.274 17 381.707 17.1067 382.081 17.32C382.467 17.5333 382.774 17.82 383.001 18.18C383.227 18.54 383.341 18.94 383.341 19.38C383.341 19.62 383.307 19.8667 383.241 20.12C383.174 20.36 383.094 20.5867 383.001 20.8L377.701 31H374.981ZM383.659 31.22C383.219 31.22 382.839 31.0667 382.519 30.76C382.212 30.44 382.059 30.06 382.059 29.62C382.059 29.1933 382.212 28.8267 382.519 28.52C382.839 28.2 383.219 28.04 383.659 28.04C384.086 28.04 384.452 28.2 384.759 28.52C385.079 28.8267 385.239 29.1933 385.239 29.62C385.239 29.9133 385.166 30.1867 385.019 30.44C384.886 30.68 384.699 30.8667 384.459 31C384.219 31.1467 383.952 31.22 383.659 31.22ZM387.125 31V28.9H391.525C392.005 28.9 392.425 28.7867 392.785 28.56C393.158 28.3333 393.445 28.0333 393.645 27.66C393.858 27.2867 393.965 26.8867 393.965 26.46C393.965 26.02 393.858 25.62 393.645 25.26C393.445 24.9 393.165 24.6133 392.805 24.4C392.445 24.1867 392.032 24.08 391.565 24.08H387.525V17H395.425V19.1H389.805V22.02H391.865C392.718 22.02 393.478 22.2267 394.145 22.64C394.825 23.04 395.358 23.58 395.745 24.26C396.145 24.94 396.345 25.68 396.345 26.48C396.345 27.2933 396.145 28.0467 395.745 28.74C395.345 29.42 394.805 29.9667 394.125 30.38C393.445 30.7933 392.678 31 391.825 31H387.125Z" fill="white"/>
</svg>
