<svg width="57" height="42" viewBox="0 0 57 42" fill="none" xmlns="http://www.w3.org/2000/svg">
<g clip-path="url(#clip0_164_5028)">
<path fill-rule="evenodd" clip-rule="evenodd" d="M1.02148 1L1.02148 41H55.0215V1L1.02148 1ZM1.02148 0C0.4692 0 0.0214844 0.447716 0.0214844 1V41C0.0214844 41.5523 0.469199 42 1.02148 42H55.0215C55.5738 42 56.0215 41.5523 56.0215 41V1C56.0215 0.447715 55.5738 0 55.0215 0H1.02148Z" fill="#00FFDD"/>
<rect x="17.5449" y="12.5" width="33.9771" height="33" stroke="#00FFDD"/>
<rect x="4.52148" y="12.5" width="10" height="6" stroke="#00FFDD"/>
<rect x="4.52148" y="12.5" width="10" height="6" stroke="#00FFDD"/>
<rect x="4.52148" y="21.5" width="10" height="6" stroke="#00FFDD"/>
<rect x="4.52148" y="21.5" width="10" height="6" stroke="#00FFDD"/>
<rect x="0.521484" y="0.5" width="55" height="7" fill="#00FFDD" fill-opacity="0.3" stroke="#00FFDD"/>
</g>
<defs>
<clipPath id="clip0_164_5028">
<rect width="56" height="42" fill="white" transform="translate(0.0214844)"/>
</clipPath>
</defs>
</svg>
