<svg width="359" height="32" viewBox="0 0 359 32" fill="none" xmlns="http://www.w3.org/2000/svg">
<g opacity="0.7" clip-path="url(#clip0_16163_134778)">
<path d="M156.521 10.8755L157.406 5.56373L152.364 7.45339L156.521 10.8755Z" fill="white"/>
<path d="M304.67 4.84863L309 2.34863L311.5 6.67876L307.17 9.17876L304.67 4.84863Z" fill="white"/>
<path d="M116.493 19.6224L115.047 22.5547L117.389 24.836L114.153 24.367L112.707 27.2993L112.154 24.0771L108.918 23.608L111.811 22.0856L111.258 18.8634L113.6 21.1448L116.493 19.6224Z" fill="white"/>
<circle r="2" transform="matrix(-1 0 0 1 357 24.2207)" fill="white" fill-opacity="0.8"/>
<path d="M251.832 18.0245C246.29 14.3023 250.265 6.99663 252.576 8.84297C254.887 10.6893 247.116 15.212 244.552 12.6479C241.989 10.0838 244.975 2.81072 246.951 4.70719C248.928 6.60367 243.772 10.7898 240.913 8.84297C238.054 6.8961 239.59 2.80474 240.913 1.56445" stroke="white" stroke-linecap="round"/>
<path d="M37.6579 21.6497C43.9439 23.8976 47.4604 16.3603 44.6024 15.5977C41.7445 14.8351 42.7212 23.773 46.3068 24.3128C49.8924 24.8526 53.9703 18.1307 51.2706 17.6669C48.5709 17.203 48.2649 23.8369 51.5293 24.9809C54.7937 26.1249 57.1734 22.4596 57.385 20.658" stroke="white" stroke-linecap="round"/>
<circle r="1.5" transform="matrix(-1 0 0 1 186.5 23.5645)" fill="white"/>
<circle r="1.5" transform="matrix(-1 0 0 1 1.5 23.5645)" fill="white"/>
<circle r="1.5" transform="matrix(-1 0 0 1 85.5 1.75293)" fill="white"/>
</g>
<defs>
<clipPath id="clip0_16163_134778">
<rect width="359" height="31.483" fill="white" transform="matrix(-1 0 0 1 359 0.25293)"/>
</clipPath>
</defs>
</svg>
