<svg width="316" height="48" viewBox="0 0 316 48" fill="none" xmlns="http://www.w3.org/2000/svg">
<g clip-path="url(#clip0_163_4725)">
<path d="M247.52 6.89278C249.38 6.39161 250.18 4.96908 249.814 2.68722M93.6189 46.2761C93.9653 45.0644 95.4699 44.3188 95.4699 44.3188M6.00318 5.55392C3.5575 4.09094 2.60709 2.31501 1.98633 -0.179688M336.983 0.753136C334.538 2.21611 333.587 3.99205 332.967 6.48674M136.299 8.91964C135.416 8.91984 134.018 8.91934 134.239 7.41619" stroke="#3C5460" stroke-width="2" stroke-linecap="round"/>
<path d="M340.019 53.8364C338.159 53.3352 337.359 51.9127 337.725 49.6308M468.717 51.7334C470.577 52.2345 471.377 53.6571 471.011 55.9389M515.401 26.7539C516.821 29.2245 518.581 30.2054 521.064 30.8692M236.488 58.3325C238.934 59.7955 239.884 61.5714 240.505 64.0661M410.749 34.3208C411.633 34.321 413.031 34.3205 412.81 32.8173M547.431 59.7705C546.548 59.7707 545.15 59.7702 545.371 58.267M278.358 28.8989C278.358 30.7808 277.905 31.4317 276.224 32.4899" stroke="#3C5460" stroke-width="2" stroke-linecap="round"/>
</g>
<defs>
<clipPath id="clip0_163_4725">
<rect width="316" height="48" fill="white"/>
</clipPath>
</defs>
</svg>
