<svg width="260" height="56" viewBox="0 0 260 56" fill="none" xmlns="http://www.w3.org/2000/svg">
<g opacity="0.1" clip-path="url(#clip0_2023_19290)">
<path d="M100.785 13.9955L105.499 9.27999L110.215 13.9955L105.499 18.7109L100.785 13.9955Z" fill="white"/>
<path d="M100.909 3.66114L105.5 -0.930647L110.091 3.66114L105.5 8.25293L100.909 3.66114Z" fill="white"/>
<path d="M95.6802 8.82782L100.333 4.17419L104.986 8.82782L100.333 13.4814L95.6802 8.82782Z" fill="white"/>
<path d="M90.4521 13.9955L95.167 9.27999L99.8818 13.9955L95.167 18.7109L90.4521 13.9955Z" fill="white"/>
<path d="M96.0694 19.1623L100.333 14.8979L104.598 19.1623L100.333 23.4272L96.0694 19.1623Z" fill="white"/>
<path d="M102.003 24.3295L105.5 20.8318L108.997 24.3295L105.5 27.8267L102.003 24.3295Z" fill="white"/>
<path d="M106.408 19.1621L110.666 14.9037L114.924 19.1621L110.666 23.4209L106.408 19.1621Z" fill="white"/>
<path d="M111.118 13.9955L115.833 9.27999L120.548 13.9955L115.833 18.7109L111.118 13.9955Z" fill="white"/>
<path d="M106.013 8.82782L110.666 4.17419L115.319 8.82782L110.666 13.4814L106.013 8.82782Z" fill="white"/>
<path d="M95.8666 -1.50574L100.333 -5.97338L104.8 -1.50574L100.333 2.96143L95.8666 -1.50574Z" fill="white"/>
<path d="M90.5967 3.66156L95.167 -0.909309L99.7373 3.66156L95.167 8.23242L90.5967 3.66156Z" fill="white"/>
<path d="M85.3477 8.82782L90.0008 4.17419L94.6538 8.82782L90.0008 13.4814L85.3477 8.82782Z" fill="white"/>
<path d="M80.1191 13.9955L84.8344 9.27999L89.5493 13.9955L84.8344 18.7109L80.1191 13.9955Z" fill="white"/>
<path d="M85.6947 19.1625L90.0009 14.8562L94.3071 19.1625L90.0009 23.4692L85.6947 19.1625Z" fill="white"/>
<path d="M91.6488 24.3296L95.1674 20.8105L98.686 24.3296L95.1674 27.8486L91.6488 24.3296Z" fill="white"/>
<path d="M97.6739 29.4965L100.333 26.8367L102.993 29.4965L100.333 32.1562L97.6739 29.4965Z" fill="white"/>
<path d="M103.534 34.6639L105.5 32.6979L107.465 34.6639L105.5 36.6299L103.534 34.6639Z" fill="white"/>
<path d="M108.029 29.4968L110.667 26.8599L113.303 29.4968L110.667 32.1338L108.029 29.4968Z" fill="white"/>
<path d="M112.373 24.33L115.833 20.8696L119.293 24.33L115.833 27.79L112.373 24.33Z" fill="white"/>
<path d="M116.798 19.1626L120.999 14.961L125.2 19.1626L120.999 23.3647L116.798 19.1626Z" fill="white"/>
<path d="M121.471 13.9949L126.165 9.29991L130.86 13.9949L126.165 18.6899L121.471 13.9949Z" fill="white"/>
<path d="M116.346 8.82782L120.999 4.17419L125.652 8.82782L120.999 13.4814L116.346 8.82782Z" fill="white"/>
<path d="M111.242 3.66114L115.833 -0.930647L120.424 3.66114L115.833 8.25293L111.242 3.66114Z" fill="white"/>
<path d="M106.199 -1.50574L110.666 -5.97338L115.133 -1.50574L110.666 2.96143L106.199 -1.50574Z" fill="white"/>
<path d="M85.5545 -1.50581L90.0006 -5.95253L94.4463 -1.50581L90.0006 2.94043L85.5545 -1.50581Z" fill="white"/>
<path d="M80.2784 3.66132L84.8343 -0.895123L89.3901 3.66132L84.8343 8.21777L80.2784 3.66132Z" fill="white"/>
<path d="M75.0147 8.82782L79.6678 4.17419L84.3208 8.82782L79.6678 13.4814L75.0147 8.82782Z" fill="white"/>
<path d="M69.8278 13.9954L74.5013 9.32127L79.1753 13.9954L74.5013 18.6699L69.8278 13.9954Z" fill="white"/>
<path d="M75.2641 19.162L79.668 14.7576L84.0723 19.162L79.668 23.5669L75.2641 19.162Z" fill="white"/>
<path d="M81.2293 24.3295L84.8344 20.724L88.4395 24.3295L84.8344 27.9351L81.2293 24.3295Z" fill="white"/>
<path d="M87.2956 29.4968L90.0006 26.7915L92.7056 29.4968L90.0006 32.2021L87.2956 29.4968Z" fill="white"/>
<path d="M93.1774 34.6636L95.1673 32.674L97.1572 34.6636L95.1673 36.6538L93.1774 34.6636Z" fill="white"/>
<path d="M98.8857 39.8304L100.333 38.3824L101.782 39.8304L100.333 41.2788L98.8857 39.8304Z" fill="white"/>
<path d="M104.542 44.9981L105.5 44.0403L106.458 44.9981L105.5 45.9556L104.542 44.9981Z" fill="white"/>
<path d="M109.218 39.8304L110.666 38.3824L112.114 39.8304L110.666 41.2788L109.218 39.8304Z" fill="white"/>
<path d="M113.891 34.6637L115.833 32.7219L117.774 34.6637L115.833 36.6055L113.891 34.6637Z" fill="white"/>
<path d="M118.424 29.4967L120.999 26.9211L123.574 29.4967L120.999 32.0718L118.424 29.4967Z" fill="white"/>
<path d="M122.8 24.3298L126.166 20.9632L129.532 24.3298L126.166 27.6963L122.8 24.3298Z" fill="white"/>
<path d="M127.221 19.162L131.332 15.051L135.443 19.162L131.332 23.2734L127.221 19.162Z" fill="white"/>
<path d="M131.887 13.9952L136.499 9.38295L141.11 13.9952L136.499 18.6079L131.887 13.9952Z" fill="white"/>
<path d="M126.679 8.82782L131.332 4.17419L135.985 8.82782L131.332 13.4814L126.679 8.82782Z" fill="white"/>
<path d="M121.574 3.66114L126.166 -0.930647L130.757 3.66114L126.166 8.25293L121.574 3.66114Z" fill="white"/>
<path d="M116.533 -1.50574L120.999 -5.97338L125.466 -1.50574L120.999 2.96143L116.533 -1.50574Z" fill="white"/>
<path d="M75.2361 -1.50555L79.6674 -5.93739L84.0986 -1.50555L79.6674 2.92627L75.2361 -1.50555Z" fill="white"/>
<path d="M69.9725 3.66144L74.5014 -0.868033L79.0303 3.66144L74.5014 8.19092L69.9725 3.66144Z" fill="white"/>
<path d="M64.7026 8.82826L69.3352 4.19508L73.9678 8.82826L69.3352 13.4614L64.7026 8.82826Z" fill="white"/>
<path d="M59.5157 13.9953L64.1687 9.34165L68.8218 13.9953L64.1687 18.6489L59.5157 13.9953Z" fill="white"/>
<path d="M64.806 19.162L69.3349 14.6325L73.8638 19.162L69.3349 23.6919L64.806 19.162Z" fill="white"/>
<path d="M70.7454 24.3292L74.5011 20.573L78.2568 24.3292L74.5011 28.0854L70.7454 24.3292Z" fill="white"/>
<path d="M76.8495 29.4966L79.6674 26.6779L82.4858 29.4966L79.6674 32.3149L76.8495 29.4966Z" fill="white"/>
<path d="M82.7969 34.6636L84.8347 32.626L86.8721 34.6636L84.8347 36.7017L82.7969 34.6636Z" fill="white"/>
<path d="M88.5274 39.8302L90.0008 38.3566L91.4741 39.8302L90.0008 41.3037L88.5274 39.8302Z" fill="white"/>
<path d="M94.1824 44.9981L95.1671 44.0127L96.1519 44.9981L95.1671 45.9829L94.1824 44.9981Z" fill="white"/>
<path d="M99.7744 50.1647L100.333 49.6058L100.892 50.1647L100.333 50.7236L99.7744 50.1647Z" fill="white"/>
<path d="M105.285 55.332L105.5 55.1172L105.714 55.332L105.5 55.5464L105.285 55.332Z" fill="white"/>
<path d="M110.108 50.1647L110.667 49.6058L111.226 50.1647L110.667 50.7236L110.108 50.1647Z" fill="white"/>
<path d="M114.883 44.9982L115.833 44.0487L116.782 44.9982L115.833 45.9473L114.883 44.9982Z" fill="white"/>
<path d="M119.594 39.8306L120.999 38.4259L122.404 39.8306L120.999 41.2358L119.594 39.8306Z" fill="white"/>
<path d="M124.279 34.6633L126.166 32.7769L128.052 34.6633L126.166 36.5498L124.279 34.6633Z" fill="white"/>
<path d="M128.879 29.4964L131.332 27.0431L133.785 29.4964L131.332 31.9497L128.879 29.4964Z" fill="white"/>
<path d="M133.308 24.3297L136.499 21.1385L139.689 24.3297L136.499 27.5205L133.308 24.3297Z" fill="white"/>
<path d="M137.739 19.162L141.665 15.2352L145.591 19.162L141.665 23.0894L137.739 19.162Z" fill="white"/>
<path d="M142.365 13.9952L146.831 9.52806L151.298 13.9952L146.831 18.4624L142.365 13.9952Z" fill="white"/>
<path d="M136.991 8.82838L141.665 4.15429L146.338 8.82838L141.665 13.5029L136.991 8.82838Z" fill="white"/>
<path d="M131.887 3.66119L136.499 -0.951052L141.11 3.66119L136.499 8.27344L131.887 3.66119Z" fill="white"/>
<path d="M126.845 -1.50617L131.332 -5.99427L135.819 -1.50617L131.332 2.98145L126.845 -1.50617Z" fill="white"/>
<path d="M64.9249 -1.50563L69.3353 -5.917L73.7456 -1.50563L69.3353 2.90527L64.9249 -1.50563Z" fill="white"/>
<path d="M59.6603 3.66088L64.1688 -0.848139L68.6768 3.66088L64.1688 8.16943L59.6603 3.66088Z" fill="white"/>
<path d="M54.3905 8.82819L59.0026 4.21593L63.6143 8.82819L59.0026 13.4404L54.3905 8.82819Z" fill="white"/>
<path d="M49.1822 13.9953L53.8352 9.34165L58.4883 13.9953L53.8352 18.6489L49.1822 13.9953Z" fill="white"/>
<path d="M54.3079 19.1624L59.0023 14.4678L63.6963 19.1624L59.0023 23.8574L54.3079 19.1624Z" fill="white"/>
<path d="M60.1994 24.3297L64.1686 20.36L68.1372 24.3297L64.1686 28.2988L60.1994 24.3297Z" fill="white"/>
<path d="M66.3377 29.4968L69.3351 26.499L72.3325 29.4968L69.3351 32.4946L66.3377 29.4968Z" fill="white"/>
<path d="M72.3756 34.6636L74.5013 32.5377L76.627 34.6636L74.5013 36.7896L72.3756 34.6636Z" fill="white"/>
<path d="M78.1265 39.8306L79.6678 38.2892L81.2095 39.8306L79.6678 41.3726L78.1265 39.8306Z" fill="white"/>
<path d="M83.8223 44.9979L84.8345 43.9857L85.8462 44.9979L84.8345 46.0098L83.8223 44.9979Z" fill="white"/>
<path d="M89.4122 50.1652L90.0012 49.5761L90.5898 50.1652L90.0012 50.7539L89.4122 50.1652Z" fill="white"/>
<path d="M94.9522 55.332L95.167 55.1172L95.3818 55.332L95.167 55.5464L94.9522 55.332Z" fill="white"/>
<path d="M115.629 55.332L115.833 55.1279L116.037 55.332L115.833 55.5361L115.629 55.332Z" fill="white"/>
<path d="M120.471 50.1652L120.999 49.636L121.528 50.1652L120.999 50.6938L120.471 50.1652Z" fill="white"/>
<path d="M125.282 44.9983L126.165 44.1148L127.049 44.9983L126.165 45.8813L125.282 44.9983Z" fill="white"/>
<path d="M130.012 39.8308L131.332 38.5107L132.652 39.8308L131.332 41.1514L130.012 39.8308Z" fill="white"/>
<path d="M134.727 34.6635L136.499 32.8914L138.27 34.6635L136.499 36.4355L134.727 34.6635Z" fill="white"/>
<path d="M139.391 29.4967L141.665 27.2224L143.939 29.4967L141.665 31.771L139.391 29.4967Z" fill="white"/>
<path d="M143.901 24.3299L146.831 21.3991L149.762 24.3299L146.831 27.2607L143.901 24.3299Z" fill="white"/>
<path d="M148.343 19.1621L151.998 15.5073L155.652 19.1621L151.998 22.8174L148.343 19.1621Z" fill="white"/>
<path d="M152.927 13.995L157.164 9.75749L161.401 13.995L157.164 18.2324L152.927 13.995Z" fill="white"/>
<path d="M147.283 8.82799L151.998 4.1125L156.712 8.82799L151.998 13.5435L147.283 8.82799Z" fill="white"/>
<path d="M142.199 3.66127L146.831 -0.971901L151.464 3.66127L146.831 8.29443L142.199 3.66127Z" fill="white"/>
<path d="M137.156 -1.50562L141.665 -6.01465L146.173 -1.50562L141.665 3.00293L137.156 -1.50562Z" fill="white"/>
<path d="M54.6336 -1.50577L59.0026 -5.87531L63.3711 -1.50577L59.0026 2.86328L54.6336 -1.50577Z" fill="white"/>
<path d="M49.3899 3.66117L53.8356 -0.785535L58.2817 3.66117L53.8356 8.10742L49.3899 3.66117Z" fill="white"/>
<path d="M44.14 8.82844L48.6688 4.29895L53.1978 8.82844L48.6688 13.3579L44.14 8.82844Z" fill="white"/>
<path d="M38.8706 13.9952L43.5032 9.36254L48.1357 13.9952L43.5032 18.6284L38.8706 13.9952Z" fill="white"/>
<path d="M43.9749 19.1624L48.6693 14.4678L53.3638 19.1624L48.6693 23.8574L43.9749 19.1624Z" fill="white"/>
<path d="M49.5984 24.3294L53.8353 20.092L58.0723 24.3294L53.8353 28.5669L49.5984 24.3294Z" fill="white"/>
<path d="M55.7021 29.4964L59.0026 26.1954L62.3027 29.4964L59.0026 32.7974L55.7021 29.4964Z" fill="white"/>
<path d="M61.8949 34.6637L64.1689 32.3894L66.4429 34.6637L64.1689 36.938L61.8949 34.6637Z" fill="white"/>
<path d="M67.7114 39.8304L69.3354 38.2066L70.959 39.8304L69.3354 41.4546L67.7114 39.8304Z" fill="white"/>
<path d="M73.4356 44.9982L74.5013 43.9324L75.5669 44.9982L74.5013 46.0635L73.4356 44.9982Z" fill="white"/>
<path d="M79.0494 50.1653L79.6678 49.5468L80.2861 50.1653L79.6678 50.7837L79.0494 50.1653Z" fill="white"/>
<path d="M84.5948 55.3318L84.8343 55.0923L85.0732 55.3318L84.8343 55.5708L84.5948 55.3318Z" fill="white"/>
<path d="M125.998 55.3321L126.166 55.1647L126.333 55.3321L126.166 55.4995L125.998 55.3321Z" fill="white"/>
<path d="M130.865 50.165L131.332 49.6972L131.8 50.165L131.332 50.6323L130.865 50.165Z" fill="white"/>
<path d="M135.707 44.9981L136.499 44.2067L137.29 44.9981L136.499 45.7891L135.707 44.9981Z" fill="white"/>
<path d="M140.475 39.8306L141.665 38.6402L142.855 39.8306L141.665 41.021L140.475 39.8306Z" fill="white"/>
<path d="M145.257 34.6633L146.831 33.0893L148.405 34.6633L146.831 36.2373L145.257 34.6633Z" fill="white"/>
<path d="M149.944 29.4964L151.998 27.4417L154.052 29.4964L151.998 31.5508L149.944 29.4964Z" fill="white"/>
<path d="M154.612 24.3295L157.164 21.7772L159.716 24.3295L157.164 26.8818L154.612 24.3295Z" fill="white"/>
<path d="M159.074 19.1622L162.331 15.9054L165.587 19.1622L162.331 22.4194L159.074 19.1622Z" fill="white"/>
<path d="M163.641 13.9949L167.497 10.1383L171.353 13.9949L167.497 17.8516L163.641 13.9949Z" fill="white"/>
<path d="M157.657 8.82838L162.331 4.15429L167.004 8.82838L162.331 13.5029L157.657 8.82838Z" fill="white"/>
<path d="M152.511 3.66131L157.164 -0.99233L161.817 3.66131L157.164 8.31494L152.511 3.66131Z" fill="white"/>
<path d="M147.463 -1.50573L151.998 -6.04172L156.533 -1.50573L151.998 3.02979L147.463 -1.50573Z" fill="white"/>
<path d="M44.3907 -1.50587L48.6695 -5.78565L52.9482 -1.50587L48.6695 2.77344L44.3907 -1.50587Z" fill="white"/>
<path d="M39.0986 3.66106L43.5029 -0.743804L47.9072 3.66106L43.5029 8.06592L39.0986 3.66106Z" fill="white"/>
<path d="M33.87 8.82825L38.3366 4.36107L42.8032 8.82825L38.3366 13.2954L33.87 8.82825Z" fill="white"/>
<path d="M28.6201 13.9955L33.1694 9.44555L37.7192 13.9955L33.1694 18.5459L28.6201 13.9955Z" fill="white"/>
<path d="M33.6837 19.1623L38.3367 14.5087L42.9897 19.1623L38.3367 23.8164L33.6837 19.1623Z" fill="white"/>
<path d="M38.9739 24.3299L43.5028 19.8004L48.0317 24.3299L43.5028 28.8594L38.9739 24.3299Z" fill="white"/>
<path d="M44.9995 29.4963L48.6691 25.8261L52.3389 29.4963L48.6691 33.1665L44.9995 29.4963Z" fill="white"/>
<path d="M51.2903 34.6636L53.8354 32.1183L56.3809 34.6636L53.8354 37.209L51.2903 34.6636Z" fill="white"/>
<path d="M57.2058 39.8307L59.0023 38.0345L60.7983 39.8307L59.0023 41.6274L57.2058 39.8307Z" fill="white"/>
<path d="M63.0232 44.9983L64.1688 43.8525L65.314 44.9983L64.1688 46.1436L63.0232 44.9983Z" fill="white"/>
<path d="M68.6578 50.1647L69.3348 49.4877L70.0117 50.1647L69.3348 50.8413L68.6578 50.1647Z" fill="white"/>
<path d="M74.2516 55.3318L74.5013 55.0821L74.751 55.3318L74.5013 55.5815L74.2516 55.3318Z" fill="white"/>
<path d="M136.397 55.3322L136.499 55.2304L136.601 55.3322L136.499 55.4341L136.397 55.3322Z" fill="white"/>
<path d="M141.292 50.1652L141.665 49.7922L142.038 50.1652L141.665 50.5381L141.292 50.1652Z" fill="white"/>
<path d="M146.184 44.9983L146.831 44.3501L147.479 44.9983L146.831 45.646L146.184 44.9983Z" fill="white"/>
<path d="M150.986 39.8305L151.998 38.8187L153.01 39.8305L151.998 40.8428L150.986 39.8305Z" fill="white"/>
<path d="M155.81 34.6635L157.164 33.3099L158.518 34.6635L157.164 36.0176L155.81 34.6635Z" fill="white"/>
<path d="M160.559 29.4965L162.331 27.7244L164.102 29.4965L162.331 31.2686L160.559 29.4965Z" fill="white"/>
<path d="M165.324 24.3295L167.497 22.1562L169.67 24.3295L167.497 26.5024L165.324 24.3295Z" fill="white"/>
<path d="M169.958 19.1619L172.663 16.4566L175.368 19.1619L172.663 21.8677L169.958 19.1619Z" fill="white"/>
<path d="M174.551 13.9953L177.83 10.7166L181.108 13.9953L177.83 17.2744L174.551 13.9953Z" fill="white"/>
<path d="M168.315 8.82817L172.663 4.47957L177.011 8.82817L172.663 13.1768L168.315 8.82817Z" fill="white"/>
<path d="M162.823 3.66136L167.497 -1.0132L172.17 3.66136L167.497 8.33545L162.823 3.66136Z" fill="white"/>
<path d="M157.719 -1.5058L162.331 -6.11852L166.942 -1.5058L162.331 3.10645L157.719 -1.5058Z" fill="white"/>
<path d="M34.1349 -1.50585L38.3365 -5.70798L42.5376 -1.50585L38.3365 2.6958L34.1349 -1.50585Z" fill="white"/>
<path d="M28.8907 3.66111L33.1695 -0.618201L37.4487 3.66111L33.1695 7.94043L28.8907 3.66111Z" fill="white"/>
<path d="M23.6137 8.82828L28.0032 4.4383L32.3931 8.82828L28.0032 13.2183L23.6137 8.82828Z" fill="white"/>
<path d="M18.3919 13.9952L22.8375 9.54894L27.2837 13.9952L22.8375 18.4419L18.3919 13.9952Z" fill="white"/>
<path d="M23.3715 19.1622L28.0036 14.5295L32.6362 19.1622L28.0036 23.7954L23.3715 19.1622Z" fill="white"/>
<path d="M28.455 24.3299L33.1699 19.6145L37.8853 24.3299L33.1699 29.0454L28.455 24.3299Z" fill="white"/>
<path d="M34.2259 29.4969L38.3368 25.3855L42.4473 29.4969L38.3368 33.6079L34.2259 29.4969Z" fill="white"/>
<path d="M40.5278 34.6637L43.5029 31.6882L46.478 34.6637L43.5029 37.6392L40.5278 34.6637Z" fill="white"/>
<path d="M46.6625 39.8305L48.6691 37.8241L50.6758 39.8305L48.6691 41.8374L46.6625 39.8305Z" fill="white"/>
<path d="M52.5341 44.9983L53.8359 43.6959L55.1382 44.9983L53.8359 46.3003L52.5341 44.9983Z" fill="white"/>
<path d="M58.2392 50.1652L59.0021 49.4021L59.7646 50.1652L59.0021 50.9282L58.2392 50.1652Z" fill="white"/>
<path d="M63.8614 55.3323L64.1688 55.0249L64.4761 55.3323L64.1688 55.6396L63.8614 55.3323Z" fill="white"/>
<path d="M151.783 50.165L151.998 49.9502L152.212 50.165L151.998 50.3794L151.783 50.165Z" fill="white"/>
<path d="M156.687 44.998L157.164 44.5209L157.641 44.998L157.164 45.4746L156.687 44.998Z" fill="white"/>
<path d="M161.568 39.8307L162.331 39.0677L163.094 39.8307L162.331 40.5938L161.568 39.8307Z" fill="white"/>
<path d="M166.413 34.6637L167.497 33.5793L168.581 34.6637L167.497 35.748L166.413 34.6637Z" fill="white"/>
<path d="M171.241 29.4966L172.663 28.0737L174.086 29.4966L172.663 30.9194L171.241 29.4966Z" fill="white"/>
<path d="M176.082 24.3297L177.829 22.5823L179.577 24.3297L177.829 26.0771L176.082 24.3297Z" fill="white"/>
<path d="M180.895 19.1619L182.997 17.0602L185.098 19.1619L182.997 21.2642L180.895 19.1619Z" fill="white"/>
<path d="M185.663 13.9953L188.163 11.496L190.662 13.9953L188.163 16.4951L185.663 13.9953Z" fill="white"/>
<path d="M179.183 8.82824L182.997 5.01438L186.81 8.82824L182.997 12.6421L179.183 8.82824Z" fill="white"/>
<path d="M173.136 3.66094L177.83 -1.03407L182.524 3.66094L177.83 8.35596L173.136 3.66094Z" fill="white"/>
<path d="M168.01 -1.50567L172.663 -6.15978L177.316 -1.50567L172.663 3.14795L168.01 -1.50567Z" fill="white"/>
<path d="M23.9288 -1.50584L28.0035 -5.5815L32.0786 -1.50584L28.0035 2.56934L23.9288 -1.50584Z" fill="white"/>
<path d="M18.678 3.66099L22.8373 -0.498818L26.9966 3.66099L22.8373 7.8208L18.678 3.66099Z" fill="white"/>
<path d="M13.4485 8.8282L17.671 4.60562L21.8931 8.8282L17.671 13.0508L13.4485 8.8282Z" fill="white"/>
<path d="M8.21945 13.9954L12.5048 9.71008L16.7896 13.9954L12.5048 18.2812L8.21945 13.9954Z" fill="white"/>
<path d="M13.1836 19.1623L17.6712 14.6747L22.1587 19.1623L17.6712 23.6504L13.1836 19.1623Z" fill="white"/>
<path d="M18.1841 24.3298L22.8372 19.6761L27.4902 24.3298L22.8372 28.9834L18.1841 24.3298Z" fill="white"/>
<path d="M23.4332 29.4965L28.0035 24.9257L32.5742 29.4965L28.0035 34.0674L23.4332 29.4965Z" fill="white"/>
<path d="M29.6082 34.6633L33.1701 31.101L36.7319 34.6633L33.1701 38.2256L29.6082 34.6633Z" fill="white"/>
<path d="M35.9928 39.8303L38.337 37.4863L40.6807 39.8303L38.337 42.1748L35.9928 39.8303Z" fill="white"/>
<path d="M41.9787 44.9977L43.5028 43.4735L45.0264 44.9977L43.5028 46.5215L41.9787 44.9977Z" fill="white"/>
<path d="M47.7665 50.1648L48.6689 49.2618L49.5718 50.1648L48.6689 51.0674L47.7665 50.1648Z" fill="white"/>
<path d="M53.4535 55.3322L53.8356 54.9495L54.2183 55.3322L53.8356 55.7148L53.4535 55.3322Z" fill="white"/>
<path d="M162.271 50.1651L162.331 50.1056L162.39 50.1651L162.331 50.2246L162.271 50.1651Z" fill="white"/>
<path d="M167.214 44.9981L167.497 44.714L167.781 44.9981L167.497 45.2817L167.214 44.9981Z" fill="white"/>
<path d="M172.165 39.8306L172.664 39.3326L173.162 39.8306L172.664 40.3291L172.165 39.8306Z" fill="white"/>
<path d="M177.067 34.6637L177.83 33.9007L178.593 34.6637L177.83 35.4268L177.067 34.6637Z" fill="white"/>
<path d="M181.984 29.4965L182.997 28.4847L184.008 29.4965L182.997 30.5083L181.984 29.4965Z" fill="white"/>
<path d="M186.894 24.3296L188.163 23.0607L189.431 24.3296L188.163 25.5981L186.894 24.3296Z" fill="white"/>
<path d="M191.781 19.1621L193.329 17.6132L194.878 19.1621L193.329 20.7114L191.781 19.1621Z" fill="white"/>
<path d="M196.724 13.995L198.496 12.2234L200.268 13.995L198.496 15.7671L196.724 13.995Z" fill="white"/>
<path d="M190.36 8.8284L193.329 5.85943L196.297 8.8284L193.329 11.7974L190.36 8.8284Z" fill="white"/>
<path d="M183.947 3.66139L188.163 -0.555144L192.379 3.66139L188.163 7.87793L183.947 3.66139Z" fill="white"/>
<path d="M178.322 -1.50562L182.996 -6.18018L187.67 -1.50562L182.996 3.16846L178.322 -1.50562Z" fill="white"/>
<path d="M13.787 -1.50564L17.6711 -5.39018L21.5547 -1.50564L17.6711 2.37842L13.787 -1.50564Z" fill="white"/>
<path d="M8.55668 3.66114L12.5044 -0.287097L16.4521 3.66114L12.5044 7.60938L8.55668 3.66114Z" fill="white"/>
<path d="M3.29874 8.8283L7.33759 4.78892L11.3765 8.8283L7.33759 12.8677L3.29874 8.8283Z" fill="white"/>
<path d="M-1.93074 13.9956L2.17138 9.89293L6.27393 13.9956L2.17138 18.0986L-1.93074 13.9956Z" fill="white"/>
<path d="M2.97528 19.1624L7.33774 14.7994L11.7007 19.1624L7.33774 23.5259L2.97528 19.1624Z" fill="white"/>
<path d="M7.95452 24.3295L12.5044 19.7791L17.0537 24.3295L12.5044 28.8794L7.95452 24.3295Z" fill="white"/>
<path d="M12.9968 29.4968L17.6707 24.8223L22.3442 29.4968L17.6707 34.1709L12.9968 29.4968Z" fill="white"/>
<path d="M18.6212 34.6638L22.8372 30.4473L27.0532 34.6638L22.8372 38.8804L18.6212 34.6638Z" fill="white"/>
<path d="M25.0062 39.8308L28.0036 36.833L31.0015 39.8308L28.0036 42.8291L25.0062 39.8308Z" fill="white"/>
<path d="M31.3081 44.998L33.1697 43.1358L35.0317 44.998L33.1697 46.8599L31.3081 44.998Z" fill="white"/>
<path d="M37.2178 50.1649L38.3369 49.0457L39.4556 50.1649L38.3369 51.2837L37.2178 50.1649Z" fill="white"/>
<path d="M42.9776 55.332L43.503 54.8065L44.0283 55.332L43.503 55.8574L42.9776 55.332Z" fill="white"/>
<path d="M177.77 44.9981L177.83 44.9386L177.889 44.9981L177.83 45.0571L177.77 44.9981Z" fill="white"/>
<path d="M182.782 39.8311L182.997 39.6167L183.211 39.8311L182.997 40.0459L182.782 39.8311Z" fill="white"/>
<path d="M187.757 34.6638L188.162 34.2588L188.567 34.6638L188.162 35.0688L187.757 34.6638Z" fill="white"/>
<path d="M192.741 29.4968L193.329 28.9081L193.918 29.4968L193.329 30.0854L192.741 29.4968Z" fill="white"/>
<path d="M197.732 24.3297L198.495 23.5667L199.258 24.3297L198.495 25.0928L197.732 24.3297Z" fill="white"/>
<path d="M202.732 19.1623L203.662 18.2323L204.592 19.1623L203.662 20.0928L202.732 19.1623Z" fill="white"/>
<path d="M207.763 13.9953L208.828 12.9295L209.894 13.9953L208.828 15.061L207.763 13.9953Z" fill="white"/>
<path d="M201.672 8.82821L203.662 6.83851L205.652 8.82821L203.662 10.8184L201.672 8.82821Z" fill="white"/>
<path d="M195.123 3.66113L198.496 0.288084L201.868 3.66113L198.496 7.03418L195.123 3.66113Z" fill="white"/>
<path d="M188.8 -1.50555L193.329 -6.0355L197.858 -1.50555L193.329 3.02393L188.8 -1.50555Z" fill="white"/>
<path d="M3.66168 -1.50578L7.33744 -5.18247L11.0137 -1.50578L7.33744 2.1709L3.66168 -1.50578Z" fill="white"/>
<path d="M-1.5842 3.66128L2.17153 -0.0949197L5.92725 3.66128L2.17153 7.41748L-1.5842 3.66128Z" fill="white"/>
<path d="M-6.79328 8.82847L-2.99477 5.02948L0.803711 8.82847L-2.99477 12.6274L-6.79328 8.82847Z" fill="white"/>
<path d="M-7.13273 19.1619L-2.99483 15.0235L1.14307 19.1619L-2.99483 23.3008L-7.13273 19.1619Z" fill="white"/>
<path d="M-2.23916 24.3293L2.1712 19.918L6.58154 24.3293L2.1712 28.7402L-2.23916 24.3293Z" fill="white"/>
<path d="M2.72591 29.4966L7.33757 24.8844L11.9497 29.4966L7.33757 34.1089L2.72591 29.4966Z" fill="white"/>
<path d="M7.78949 34.6634L12.5044 29.948L17.2192 34.6634L12.5044 39.3789L7.78949 34.6634Z" fill="white"/>
<path d="M13.8297 39.8306L17.6709 35.9888L21.5122 39.8306L17.6709 43.6724L13.8297 39.8306Z" fill="white"/>
<path d="M20.4236 44.9983L22.8371 42.5841L25.251 44.9983L22.8371 47.4121L20.4236 44.9983Z" fill="white"/>
<path d="M26.5556 50.1648L28.0034 48.7164L29.4517 50.1648L28.0034 51.6128L26.5556 50.1648Z" fill="white"/>
<path d="M32.4356 55.3317L33.1697 54.597L33.9043 55.3317L33.1697 56.0659L32.4356 55.3317Z" fill="white"/>
<path d="M198.436 34.6636L198.495 34.6041L198.555 34.6636L198.495 34.7231L198.436 34.6636Z" fill="white"/>
<path d="M203.483 29.4967L203.662 29.3182L203.84 29.4967L203.662 29.6753L203.483 29.4967Z" fill="white"/>
<path d="M208.555 24.3296L208.829 24.0557L209.102 24.3296L208.829 24.603L208.555 24.3296Z" fill="white"/>
<path d="M213.655 19.1621L213.995 18.8217L214.335 19.1621L213.995 19.5029L213.655 19.1621Z" fill="white"/>
<path d="M218.779 13.9952L219.161 13.613L219.544 13.9952L219.161 14.3779L218.779 13.9952Z" fill="white"/>
<path d="M212.857 8.82799L213.995 7.69014L215.132 8.82799L213.995 9.96582L212.857 8.82799Z" fill="white"/>
<path d="M206.649 3.66097L208.829 1.48063L211.008 3.66097L208.829 5.84131L206.649 3.66097Z" fill="white"/>
<path d="M200.014 -1.50574L203.662 -5.15454L207.31 -1.50574L203.662 2.14258L200.014 -1.50574Z" fill="white"/>
<path d="M-6.42681 -1.50582L-2.99514 -4.93792L0.436523 -1.50582L-2.99514 1.92627L-6.42681 -1.50582Z" fill="white"/>
<path d="M-7.42027 29.4966L-2.99503 25.0708L1.43018 29.4966L-2.99503 33.9224L-7.42027 29.4966Z" fill="white"/>
<path d="M-2.46096 34.6637L2.17163 30.0305L6.8042 34.6637L2.17163 39.2969L-2.46096 34.6637Z" fill="white"/>
<path d="M2.70551 39.8307L7.33762 35.198L11.9702 39.8307L7.33762 44.4639L2.70551 39.8307Z" fill="white"/>
<path d="M9.07321 44.9981L12.5049 41.566L15.9365 44.9981L12.5049 48.4297L9.07321 44.9981Z" fill="white"/>
<path d="M15.6884 50.1652L17.6708 48.1825L19.6533 50.1652L17.6708 52.1479L15.6884 50.1652Z" fill="white"/>
<path d="M21.7716 55.3322L22.8372 54.2664L23.9028 55.3322L22.8372 56.3979L21.7716 55.3322Z" fill="white"/>
<path d="M223.946 8.82825L224.328 8.44555L224.71 8.82825L224.328 9.21094L223.946 8.82825Z" fill="white"/>
<path d="M217.945 3.66152L219.162 2.4451L220.378 3.66152L219.162 4.87793L217.945 3.66152Z" fill="white"/>
<path d="M211.634 -1.50579L213.995 -3.86655L216.355 -1.50579L213.995 0.854492L211.634 -1.50579Z" fill="white"/>
<path d="M-7.64838 39.8307L-2.99533 35.1771L1.65771 39.8307L-2.99533 44.4844L-7.64838 39.8307Z" fill="white"/>
<path d="M-2.29503 44.9982L2.17159 40.5305L6.63818 44.9982L2.17159 49.4653L-2.29503 44.9982Z" fill="white"/>
<path d="M4.25809 50.165L7.33779 47.0844L10.418 50.165L7.33779 53.2451L4.25809 50.165Z" fill="white"/>
<path d="M10.8804 55.3323L12.5044 53.7081L14.1279 55.3323L12.5044 56.9561L10.8804 55.3323Z" fill="white"/>
<path d="M229.154 3.66109L229.494 3.32071L229.835 3.66109L229.494 4.00146L229.154 3.66109Z" fill="white"/>
<path d="M-7.35774 50.1648L-2.99528 45.8018L1.36719 50.1648L-2.99528 54.5278L-7.35774 50.1648Z" fill="white"/>
<path d="M-0.601354 55.3318L2.17151 52.5586L4.94482 55.3318L2.17151 58.105L-0.601354 55.3318Z" fill="white"/>
</g>
<defs>
<clipPath id="clip0_2023_19290">
<rect width="260" height="56" fill="white" transform="matrix(-1 0 0 -1 260 56)"/>
</clipPath>
</defs>
</svg>
