<svg width="374" height="56" viewBox="0 0 374 56" fill="none" xmlns="http://www.w3.org/2000/svg">
<path fill-rule="evenodd" clip-rule="evenodd" d="M14.0436 27.9975L9.79363 32.2574C9.40355 32.6483 9.40192 33.2838 9.78998 33.6768L9.81705 33.7042C10.2051 34.0972 10.8359 34.0988 11.226 33.7078L16.2058 28.7165C16.4258 28.496 16.5223 28.1977 16.4949 27.909C16.4768 27.6784 16.3799 27.4531 16.2044 27.2772L11.231 22.2923C10.8409 21.9013 10.2101 21.9029 9.82208 22.2959L9.79502 22.3233C9.40696 22.7163 9.40859 23.3518 9.79866 23.7428L14.0436 27.9975Z" fill="white"/>
<path fill-rule="evenodd" clip-rule="evenodd" d="M293 11.1577C293.552 11.1577 294 11.6054 294 12.1577V14.1577C294 14.71 293.552 15.1577 293 15.1577C292.448 15.1577 292 14.71 292 14.1577V12.1577C292 11.6054 292.448 11.1577 293 11.1577Z" fill="#FF8E3D"/>
<path fill-rule="evenodd" clip-rule="evenodd" d="M293 19.1577C293.552 19.1577 294 19.6054 294 20.1577V22.1577C294 22.71 293.552 23.1577 293 23.1577C292.448 23.1577 292 22.71 292 22.1577V20.1577C292 19.6054 292.448 19.1577 293 19.1577Z" fill="#FF8E3D"/>
<path fill-rule="evenodd" clip-rule="evenodd" d="M295 17.1577C295 16.6054 295.448 16.1577 296 16.1577L298 16.1577C298.552 16.1577 299 16.6054 299 17.1577C299 17.71 298.552 18.1577 298 18.1577L296 18.1577C295.448 18.1577 295 17.71 295 17.1577Z" fill="#FF8E3D"/>
<path fill-rule="evenodd" clip-rule="evenodd" d="M287 17.1577C287 16.6054 287.448 16.1577 288 16.1577L290 16.1577C290.552 16.1577 291 16.6054 291 17.1577C291 17.71 290.552 18.1577 290 18.1577L288 18.1577C287.448 18.1577 287 17.71 287 17.1577Z" fill="#FF8E3D"/>
<path fill-rule="evenodd" clip-rule="evenodd" d="M60.5285 28.3138C60.7239 28.509 60.7241 28.8256 60.5289 29.0209L59.6202 29.9306C59.4251 30.126 59.1085 30.1261 58.9131 29.931C58.7177 29.7358 58.7176 29.4192 58.9127 29.2239L59.8214 28.3142C60.0166 28.1188 60.3332 28.1187 60.5285 28.3138Z" fill="#FF8E3D"/>
<path fill-rule="evenodd" clip-rule="evenodd" d="M57.2073 31.641C57.4026 31.8361 57.4028 32.1527 57.2076 32.3481L56.2989 33.2577C56.1038 33.4531 55.7872 33.4533 55.5918 33.2581C55.3964 33.063 55.3963 32.7464 55.5914 32.551L56.5001 31.6413C56.6953 31.446 57.0119 31.4458 57.2073 31.641Z" fill="#FF8E3D"/>
<path fill-rule="evenodd" clip-rule="evenodd" d="M58.9139 31.6394C59.1091 31.4441 59.4257 31.4439 59.621 31.6391L60.5307 32.5478C60.7261 32.7429 60.7262 33.0595 60.5311 33.2549C60.3359 33.4502 60.0193 33.4504 59.824 33.2552L58.9143 32.3465C58.7189 32.1514 58.7188 31.8348 58.9139 31.6394Z" fill="#FF8E3D"/>
<path fill-rule="evenodd" clip-rule="evenodd" d="M55.5887 28.3164C55.7839 28.1211 56.1005 28.1209 56.2958 28.3161L57.2055 29.2248C57.4009 29.4199 57.401 29.7365 57.2059 29.9319C57.0107 30.1272 56.6941 30.1274 56.4988 29.9322L55.5891 29.0235C55.3937 28.8284 55.3936 28.5118 55.5887 28.3164Z" fill="#FF8E3D"/>
<path d="M227.032 35.1572C227.032 36.2618 227.928 37.1572 229.032 37.1572C230.137 37.1572 231.032 36.2618 231.032 35.1572C231.032 34.0527 230.137 33.1572 229.032 33.1572C227.928 33.1572 227.032 34.0527 227.032 35.1572Z" fill="#9ADAF3"/>
<path d="M31 35.1577C31 36.2623 31.8954 37.1577 33 37.1577C34.1046 37.1577 35 36.2623 35 35.1577C35 34.0531 34.1046 33.1577 33 33.1577C31.8954 33.1577 31 34.0531 31 35.1577Z" fill="#9ADAF3"/>
<path d="M355.033 35.1577C355.033 36.2623 355.929 37.1577 357.033 37.1577C358.138 37.1577 359.033 36.2623 359.033 35.1577C359.033 34.0531 358.138 33.1577 357.033 33.1577C355.929 33.1577 355.033 34.0531 355.033 35.1577Z" fill="#9ADAF3"/>
<path d="M150.749 31.1246L150.75 31.1247C151.762 31.396 152.127 31.3269 152.27 31.252C152.38 31.1944 152.605 30.9998 152.846 30.0973L152.847 30.0965C154.401 24.3159 155.954 18.5366 157.494 12.7538C158.119 10.402 157.788 8.32372 156.721 6.66968C155.646 5.00417 153.758 3.66597 151.091 2.95023L151.091 2.95021C148.307 2.20276 145.524 1.45823 142.74 0.713481C140.884 0.216769 139.027 -0.280037 137.169 -0.777863C134.774 -1.41959 132.872 -1.92185 130.967 -2.4246L130.967 -2.42468C129.062 -2.92746 127.155 -3.43074 124.755 -4.07387C124.199 -4.22305 123.804 -4.29938 123.513 -4.31872C123.228 -4.33768 123.117 -4.2962 123.079 -4.27686C123.01 -4.24221 122.804 -4.08913 122.523 -3.0377C122 -1.08676 121.477 0.863765 120.954 2.81415C119.907 6.71431 118.862 10.6139 117.82 14.515L150.749 31.1246ZM150.749 31.1246C146.943 30.1066 143.449 29.1776 140.02 28.2659C134.804 26.879 129.738 25.5322 123.955 23.9732M150.749 31.1246L123.955 23.9732M123.955 23.9732C121.493 23.3094 119.684 21.9836 118.631 20.3378M123.955 23.9732L118.631 20.3378M118.631 20.3378C117.583 18.6996 117.242 16.6796 117.819 14.5151L118.631 20.3378ZM172.906 19.7608C172.641 20.7444 172.375 21.7287 172.111 22.7144L161.079 14.3791C165.567 12.7936 170.085 11.2671 174.621 9.78044C174.794 9.72421 175.062 9.67785 175.308 9.67624C175.353 9.67594 175.393 9.67721 175.428 9.67946C175.431 9.70035 175.434 9.7235 175.437 9.74893C175.459 9.95142 175.439 10.1772 175.401 10.3266C174.598 13.4767 173.753 16.6148 172.906 19.7608ZM175.582 9.70284C175.582 9.70292 175.58 9.70224 175.576 9.70057C175.58 9.70193 175.582 9.70277 175.582 9.70284ZM175.393 9.54518C175.392 9.54309 175.391 9.54195 175.392 9.5419C175.392 9.54185 175.392 9.5429 175.393 9.54518ZM172.11 22.7186C171.581 24.6934 171.052 26.6277 170.522 28.5649L170.522 28.565L170.521 28.567C169.992 30.5042 169.461 32.4442 168.93 34.4257C168.9 34.5357 168.875 34.6339 168.852 34.7243C168.797 34.9392 168.754 35.1097 168.69 35.2899C168.614 35.4999 168.538 35.6081 168.495 35.6549C168.494 35.6552 168.494 35.6555 168.494 35.6558C168.487 35.6531 168.479 35.6497 168.469 35.6455C168.393 35.6103 168.262 35.5258 168.09 35.3445C167.934 35.1804 167.78 35.0183 167.628 34.8576C166.575 33.7495 165.587 32.7098 164.58 31.5631C163.913 30.8042 163.247 30.0403 162.579 29.2749C161.221 27.7175 159.856 26.1535 158.473 24.6109L158.472 24.6098C158.247 24.3597 158.162 24.1929 158.128 24.0729C158.098 23.9665 158.086 23.8176 158.161 23.5572C158.542 22.2316 158.898 20.8988 159.25 19.577C159.28 19.464 159.31 19.3512 159.341 19.2384C159.724 17.8019 160.107 16.3783 160.524 14.9679L172.11 22.7186ZM168.529 35.6659C168.528 35.6659 168.528 35.6659 168.526 35.6656L168.529 35.6659Z" stroke="#4784FF" stroke-width="2"/>
</svg>
