<svg width="260" height="56" viewBox="0 0 260 56" fill="none" xmlns="http://www.w3.org/2000/svg">
<g opacity="0.1" clip-path="url(#clip0_2023_18481)">
<path d="M159.215 42.9601L154.501 47.6756L149.785 42.9601L154.501 38.2446L159.215 42.9601Z" fill="white"/>
<path d="M159.091 53.2944L154.5 57.8862L149.909 53.2944L154.5 48.7026L159.091 53.2944Z" fill="white"/>
<path d="M164.32 48.1273L159.667 52.7809L155.014 48.1273L159.667 43.4736L164.32 48.1273Z" fill="white"/>
<path d="M169.548 42.9601L164.833 47.6756L160.118 42.9601L164.833 38.2446L169.548 42.9601Z" fill="white"/>
<path d="M163.931 37.7932L159.667 42.0577L155.402 37.7932L159.667 33.5283L163.931 37.7932Z" fill="white"/>
<path d="M157.997 32.6261L154.5 36.1238L151.003 32.6261L154.5 29.1289L157.997 32.6261Z" fill="white"/>
<path d="M153.592 37.7935L149.334 42.0519L145.076 37.7935L149.334 33.5347L153.592 37.7935Z" fill="white"/>
<path d="M148.882 42.9601L144.167 47.6756L139.452 42.9601L144.167 38.2446L148.882 42.9601Z" fill="white"/>
<path d="M153.987 48.1273L149.334 52.7809L144.681 48.1273L149.334 43.4736L153.987 48.1273Z" fill="white"/>
<path d="M164.133 58.4613L159.667 62.9289L155.2 58.4613L159.667 53.9941L164.133 58.4613Z" fill="white"/>
<path d="M169.403 53.294L164.833 57.8649L160.263 53.294L164.833 48.7231L169.403 53.294Z" fill="white"/>
<path d="M174.652 48.1273L169.999 52.7809L165.346 48.1273L169.999 43.4736L174.652 48.1273Z" fill="white"/>
<path d="M179.881 42.9601L175.166 47.6756L170.451 42.9601L175.166 38.2446L179.881 42.9601Z" fill="white"/>
<path d="M174.305 37.7931L169.999 42.0994L165.693 37.7931L169.999 33.4863L174.305 37.7931Z" fill="white"/>
<path d="M168.351 32.626L164.833 36.145L161.314 32.626L164.833 29.1069L168.351 32.626Z" fill="white"/>
<path d="M162.326 27.4591L159.667 30.1188L157.007 27.4591L159.667 24.7993L162.326 27.4591Z" fill="white"/>
<path d="M156.466 22.2917L154.5 24.2577L152.535 22.2917L154.5 20.3257L156.466 22.2917Z" fill="white"/>
<path d="M151.971 27.4587L149.333 30.0957L146.697 27.4587L149.333 24.8218L151.971 27.4587Z" fill="white"/>
<path d="M147.627 32.6255L144.167 36.086L140.707 32.6255L144.167 29.1655L147.627 32.6255Z" fill="white"/>
<path d="M143.202 37.7929L139.001 41.9946L134.8 37.7929L139.001 33.5908L143.202 37.7929Z" fill="white"/>
<path d="M138.529 42.9606L133.835 47.6557L129.14 42.9606L133.835 38.2656L138.529 42.9606Z" fill="white"/>
<path d="M143.654 48.1273L139.001 52.7809L134.348 48.1273L139.001 43.4736L143.654 48.1273Z" fill="white"/>
<path d="M148.758 53.2944L144.167 57.8862L139.576 53.2944L144.167 48.7026L148.758 53.2944Z" fill="white"/>
<path d="M153.801 58.4613L149.334 62.9289L144.867 58.4613L149.334 53.9941L153.801 58.4613Z" fill="white"/>
<path d="M174.446 58.4614L169.999 62.9081L165.554 58.4614L169.999 54.0151L174.446 58.4614Z" fill="white"/>
<path d="M179.722 53.2942L175.166 57.8507L170.61 53.2942L175.166 48.7378L179.722 53.2942Z" fill="white"/>
<path d="M184.985 48.1273L180.332 52.7809L175.679 48.1273L180.332 43.4736L184.985 48.1273Z" fill="white"/>
<path d="M190.172 42.9602L185.499 47.6343L180.825 42.9602L185.499 38.2856L190.172 42.9602Z" fill="white"/>
<path d="M184.736 37.7935L180.332 42.1979L175.928 37.7935L180.332 33.3887L184.736 37.7935Z" fill="white"/>
<path d="M178.771 32.6261L175.166 36.2316L171.561 32.6261L175.166 29.0205L178.771 32.6261Z" fill="white"/>
<path d="M172.704 27.4587L169.999 30.1641L167.294 27.4587L169.999 24.7534L172.704 27.4587Z" fill="white"/>
<path d="M166.823 22.2919L164.833 24.2816L162.843 22.2919L164.833 20.3018L166.823 22.2919Z" fill="white"/>
<path d="M161.114 17.1252L159.667 18.5732L158.218 17.1252L159.667 15.6768L161.114 17.1252Z" fill="white"/>
<path d="M155.458 11.9574L154.5 12.9153L153.542 11.9574L154.5 11L155.458 11.9574Z" fill="white"/>
<path d="M150.782 17.1252L149.334 18.5732L147.886 17.1252L149.334 15.6768L150.782 17.1252Z" fill="white"/>
<path d="M146.109 22.2919L144.167 24.2337L142.226 22.2919L144.167 20.3501L146.109 22.2919Z" fill="white"/>
<path d="M141.576 27.4589L139.001 30.0345L136.426 27.4589L139.001 24.8838L141.576 27.4589Z" fill="white"/>
<path d="M137.2 32.6258L133.834 35.9923L130.468 32.6258L133.834 29.2593L137.2 32.6258Z" fill="white"/>
<path d="M132.779 37.7936L128.668 41.9046L124.557 37.7936L128.668 33.6821L132.779 37.7936Z" fill="white"/>
<path d="M128.113 42.9604L123.501 47.5726L118.89 42.9604L123.501 38.3477L128.113 42.9604Z" fill="white"/>
<path d="M133.321 48.1273L128.668 52.7809L124.015 48.1273L128.668 43.4736L133.321 48.1273Z" fill="white"/>
<path d="M138.426 53.2944L133.834 57.8862L129.243 53.2944L133.834 48.7026L138.426 53.2944Z" fill="white"/>
<path d="M143.467 58.4613L139.001 62.9289L134.534 58.4613L139.001 53.9941L143.467 58.4613Z" fill="white"/>
<path d="M184.764 58.4611L180.333 62.893L175.901 58.4611L180.333 54.0293L184.764 58.4611Z" fill="white"/>
<path d="M190.028 53.2941L185.499 57.8236L180.97 53.2941L185.499 48.7646L190.028 53.2941Z" fill="white"/>
<path d="M195.297 48.1273L190.665 52.7605L186.032 48.1273L190.665 43.4941L195.297 48.1273Z" fill="white"/>
<path d="M200.484 42.9603L195.831 47.6139L191.178 42.9603L195.831 38.3066L200.484 42.9603Z" fill="white"/>
<path d="M195.194 37.7936L190.665 42.3231L186.136 37.7936L190.665 33.2637L195.194 37.7936Z" fill="white"/>
<path d="M189.255 32.6263L185.499 36.3825L181.743 32.6263L185.499 28.8701L189.255 32.6263Z" fill="white"/>
<path d="M183.151 27.4589L180.333 30.2777L177.514 27.4589L180.333 24.6406L183.151 27.4589Z" fill="white"/>
<path d="M177.203 22.292L175.165 24.3296L173.128 22.292L175.165 20.2539L177.203 22.292Z" fill="white"/>
<path d="M171.473 17.1254L169.999 18.599L168.526 17.1254L169.999 15.6519L171.473 17.1254Z" fill="white"/>
<path d="M165.818 11.9575L164.833 12.9428L163.848 11.9575L164.833 10.9727L165.818 11.9575Z" fill="white"/>
<path d="M160.226 6.79085L159.667 7.34977L159.108 6.79085L159.667 6.23193L160.226 6.79085Z" fill="white"/>
<path d="M154.715 1.62354L154.5 1.83837L154.286 1.62354L154.5 1.40918L154.715 1.62354Z" fill="white"/>
<path d="M149.892 6.79085L149.333 7.34977L148.774 6.79085L149.333 6.23193L149.892 6.79085Z" fill="white"/>
<path d="M145.117 11.9573L144.167 12.9069L143.218 11.9573L144.167 11.0083L145.117 11.9573Z" fill="white"/>
<path d="M140.406 17.1249L139.001 18.5297L137.596 17.1249L139.001 15.7197L140.406 17.1249Z" fill="white"/>
<path d="M135.721 22.2922L133.834 24.1787L131.948 22.2922L133.834 20.4058L135.721 22.2922Z" fill="white"/>
<path d="M131.121 27.4592L128.668 29.9124L126.215 27.4592L128.668 25.0059L131.121 27.4592Z" fill="white"/>
<path d="M126.692 32.6258L123.501 35.8171L120.311 32.6258L123.501 29.4351L126.692 32.6258Z" fill="white"/>
<path d="M122.261 37.7935L118.335 41.7204L114.409 37.7935L118.335 33.8662L122.261 37.7935Z" fill="white"/>
<path d="M117.635 42.9603L113.169 47.4275L108.702 42.9603L113.169 38.4932L117.635 42.9603Z" fill="white"/>
<path d="M123.009 48.1272L118.335 52.8013L113.662 48.1272L118.335 43.4526L123.009 48.1272Z" fill="white"/>
<path d="M128.113 53.2944L123.501 57.9066L118.89 53.2944L123.501 48.6821L128.113 53.2944Z" fill="white"/>
<path d="M133.155 58.4617L128.668 62.9498L124.181 58.4617L128.668 53.9741L133.155 58.4617Z" fill="white"/>
<path d="M195.075 58.4612L190.665 62.8726L186.254 58.4612L190.665 54.0503L195.075 58.4612Z" fill="white"/>
<path d="M200.34 53.2947L195.831 57.8037L191.323 53.2947L195.831 48.7861L200.34 53.2947Z" fill="white"/>
<path d="M205.61 48.1274L200.997 52.7396L196.386 48.1274L200.997 43.5151L205.61 48.1274Z" fill="white"/>
<path d="M210.818 42.9603L206.165 47.6139L201.512 42.9603L206.165 38.3066L210.818 42.9603Z" fill="white"/>
<path d="M205.692 37.7932L200.998 42.4877L196.304 37.7932L200.998 33.0981L205.692 37.7932Z" fill="white"/>
<path d="M199.801 32.6259L195.831 36.5955L191.863 32.6259L195.831 28.6567L199.801 32.6259Z" fill="white"/>
<path d="M193.662 27.4587L190.665 30.4565L187.667 27.4587L190.665 24.4609L193.662 27.4587Z" fill="white"/>
<path d="M187.624 22.292L185.499 24.4179L183.373 22.292L185.499 20.166L187.624 22.292Z" fill="white"/>
<path d="M181.873 17.1249L180.332 18.6664L178.791 17.1249L180.332 15.583L181.873 17.1249Z" fill="white"/>
<path d="M176.178 11.9576L175.166 12.9699L174.154 11.9576L175.166 10.9458L176.178 11.9576Z" fill="white"/>
<path d="M170.588 6.79034L169.999 7.37948L169.41 6.79034L169.999 6.20166L170.588 6.79034Z" fill="white"/>
<path d="M165.048 1.62354L164.833 1.83837L164.618 1.62354L164.833 1.40918L165.048 1.62354Z" fill="white"/>
<path d="M144.371 1.62357L144.167 1.8277L143.963 1.62357L144.167 1.41943L144.371 1.62357Z" fill="white"/>
<path d="M139.529 6.79041L139.001 7.31957L138.472 6.79041L139.001 6.26172L139.529 6.79041Z" fill="white"/>
<path d="M134.718 11.9572L133.835 12.8407L132.951 11.9572L133.835 11.0742L134.718 11.9572Z" fill="white"/>
<path d="M129.988 17.1248L128.668 18.4449L127.348 17.1248L128.668 15.8042L129.988 17.1248Z" fill="white"/>
<path d="M125.273 22.2921L123.501 24.0642L121.73 22.2921L123.501 20.52L125.273 22.2921Z" fill="white"/>
<path d="M120.609 27.4588L118.335 29.7331L116.061 27.4588L118.335 25.1846L120.609 27.4588Z" fill="white"/>
<path d="M116.099 32.6262L113.169 35.557L110.238 32.6262L113.169 29.6953L116.099 32.6262Z" fill="white"/>
<path d="M111.657 37.7935L108.002 41.4483L104.348 37.7935L108.002 34.1382L111.657 37.7935Z" fill="white"/>
<path d="M107.073 42.9606L102.836 47.1981L98.5986 42.9606L102.836 38.7231L107.073 42.9606Z" fill="white"/>
<path d="M112.717 48.1276L108.002 52.8431L103.288 48.1276L108.002 43.4121L112.717 48.1276Z" fill="white"/>
<path d="M117.801 53.2943L113.169 57.9275L108.536 53.2943L113.169 48.6611L117.801 53.2943Z" fill="white"/>
<path d="M122.844 58.4612L118.335 62.9702L113.827 58.4612L118.335 53.9526L122.844 58.4612Z" fill="white"/>
<path d="M205.366 58.4613L200.997 62.8309L196.629 58.4613L200.997 54.0923L205.366 58.4613Z" fill="white"/>
<path d="M210.61 53.2944L206.164 57.7411L201.718 53.2944L206.164 48.8481L210.61 53.2944Z" fill="white"/>
<path d="M215.86 48.1271L211.331 52.6566L206.802 48.1271L211.331 43.5977L215.86 48.1271Z" fill="white"/>
<path d="M221.129 42.9603L216.497 47.593L211.864 42.9603L216.497 38.3271L221.129 42.9603Z" fill="white"/>
<path d="M216.025 37.7932L211.331 42.4877L206.636 37.7932L211.331 33.0981L216.025 37.7932Z" fill="white"/>
<path d="M210.402 32.6261L206.165 36.8636L201.928 32.6261L206.165 28.3887L210.402 32.6261Z" fill="white"/>
<path d="M204.298 27.4592L200.997 30.7601L197.697 27.4592L200.997 24.1582L204.298 27.4592Z" fill="white"/>
<path d="M198.105 22.2919L195.831 24.5661L193.557 22.2919L195.831 20.0176L198.105 22.2919Z" fill="white"/>
<path d="M192.289 17.1252L190.665 18.7489L189.041 17.1252L190.665 15.501L192.289 17.1252Z" fill="white"/>
<path d="M186.564 11.9574L185.499 13.0231L184.433 11.9574L185.499 10.8921L186.564 11.9574Z" fill="white"/>
<path d="M180.951 6.79032L180.332 7.40875L179.714 6.79032L180.332 6.17188L180.951 6.79032Z" fill="white"/>
<path d="M175.405 1.62377L175.166 1.86324L174.927 1.62377L175.166 1.38477L175.405 1.62377Z" fill="white"/>
<path d="M134.002 1.62346L133.834 1.79085L133.667 1.62346L133.834 1.45605L134.002 1.62346Z" fill="white"/>
<path d="M129.135 6.79056L128.668 7.25834L128.2 6.79056L128.668 6.32324L129.135 6.79056Z" fill="white"/>
<path d="M124.293 11.9575L123.501 12.7489L122.71 11.9575L123.501 11.1665L124.293 11.9575Z" fill="white"/>
<path d="M119.525 17.1249L118.335 18.3153L117.145 17.1249L118.335 15.9346L119.525 17.1249Z" fill="white"/>
<path d="M114.743 22.2923L113.169 23.8663L111.595 22.2923L113.169 20.7183L114.743 22.2923Z" fill="white"/>
<path d="M110.056 27.4591L108.002 29.5139L105.948 27.4591L108.002 25.4048L110.056 27.4591Z" fill="white"/>
<path d="M105.388 32.6261L102.836 35.1784L100.284 32.6261L102.836 30.0737L105.388 32.6261Z" fill="white"/>
<path d="M100.926 37.7934L97.669 41.0502L94.4126 37.7934L97.669 34.5361L100.926 37.7934Z" fill="white"/>
<path d="M96.3593 42.9606L92.5031 46.8173L88.647 42.9606L92.5031 39.104L96.3593 42.9606Z" fill="white"/>
<path d="M102.343 48.1272L97.6691 52.8013L92.9956 48.1272L97.6691 43.4526L102.343 48.1272Z" fill="white"/>
<path d="M107.489 53.2943L102.836 57.9479L98.1826 53.2943L102.836 48.6406L107.489 53.2943Z" fill="white"/>
<path d="M112.537 58.4613L108.002 62.9973L103.467 58.4613L108.002 53.9258L112.537 58.4613Z" fill="white"/>
<path d="M215.609 58.4614L211.331 62.7412L207.052 58.4614L211.331 54.1821L215.609 58.4614Z" fill="white"/>
<path d="M220.901 53.2945L216.497 57.6994L212.093 53.2945L216.497 48.8896L220.901 53.2945Z" fill="white"/>
<path d="M226.13 48.1273L221.663 52.5945L217.197 48.1273L221.663 43.6602L226.13 48.1273Z" fill="white"/>
<path d="M231.38 42.9601L226.831 47.51L222.281 42.9601L226.831 38.4097L231.38 42.9601Z" fill="white"/>
<path d="M226.316 37.7932L221.663 42.4469L217.01 37.7932L221.663 33.1392L226.316 37.7932Z" fill="white"/>
<path d="M221.026 32.6257L216.497 37.1551L211.968 32.6257L216.497 28.0962L221.026 32.6257Z" fill="white"/>
<path d="M215.001 27.4592L211.331 31.1294L207.661 27.4592L211.331 23.7891L215.001 27.4592Z" fill="white"/>
<path d="M208.71 22.2919L206.165 24.8373L203.619 22.2919L206.165 19.7466L208.71 22.2919Z" fill="white"/>
<path d="M202.794 17.1249L200.998 18.9211L199.202 17.1249L200.998 15.3281L202.794 17.1249Z" fill="white"/>
<path d="M196.977 11.9573L195.831 13.103L194.686 11.9573L195.831 10.812L196.977 11.9573Z" fill="white"/>
<path d="M191.342 6.79082L190.665 7.46785L189.988 6.79082L190.665 6.11426L191.342 6.79082Z" fill="white"/>
<path d="M185.748 1.62372L185.499 1.87342L185.249 1.62372L185.499 1.37402L185.748 1.62372Z" fill="white"/>
<path d="M123.603 1.62332L123.501 1.72515L123.399 1.62332L123.501 1.52148L123.603 1.62332Z" fill="white"/>
<path d="M118.708 6.7904L118.335 7.16333L117.962 6.7904L118.335 6.41748L118.708 6.7904Z" fill="white"/>
<path d="M113.816 11.9573L113.169 12.6055L112.521 11.9573L113.169 11.3096L113.816 11.9573Z" fill="white"/>
<path d="M109.014 17.1251L108.002 18.1369L106.99 17.1251L108.002 16.1128L109.014 17.1251Z" fill="white"/>
<path d="M104.19 22.292L102.836 23.6456L101.482 22.292L102.836 20.938L104.19 22.292Z" fill="white"/>
<path d="M99.4412 27.4591L97.6693 29.2312L95.8979 27.4591L97.6693 25.687L99.4412 27.4591Z" fill="white"/>
<path d="M94.6758 32.626L92.5027 34.7994L90.3301 32.626L92.5027 30.4531L94.6758 32.626Z" fill="white"/>
<path d="M90.0418 37.7937L87.3368 40.499L84.6318 37.7937L87.3368 35.0879L90.0418 37.7937Z" fill="white"/>
<path d="M85.4485 42.9603L82.1703 46.2389L78.8916 42.9603L82.1703 39.6812L85.4485 42.9603Z" fill="white"/>
<path d="M91.6849 48.1274L87.3368 52.476L82.9888 48.1274L87.3368 43.7788L91.6849 48.1274Z" fill="white"/>
<path d="M97.177 53.2942L92.5031 57.9688L87.8296 53.2942L92.5031 48.6201L97.177 53.2942Z" fill="white"/>
<path d="M102.281 58.4614L97.6693 63.0741L93.0576 58.4614L97.6693 53.8491L102.281 58.4614Z" fill="white"/>
<path d="M225.865 58.4614L221.664 62.6636L217.462 58.4614L221.664 54.2598L225.865 58.4614Z" fill="white"/>
<path d="M231.109 53.2945L226.83 57.5738L222.551 53.2945L226.83 49.0151L231.109 53.2945Z" fill="white"/>
<path d="M236.386 48.1273L231.997 52.5173L227.607 48.1273L231.997 43.7373L236.386 48.1273Z" fill="white"/>
<path d="M241.608 42.9604L237.162 47.4066L232.716 42.9604L237.162 38.5137L241.608 42.9604Z" fill="white"/>
<path d="M236.628 37.7933L231.996 42.426L227.364 37.7933L231.996 33.1602L236.628 37.7933Z" fill="white"/>
<path d="M231.545 32.6256L226.83 37.3411L222.115 32.6256L226.83 27.9102L231.545 32.6256Z" fill="white"/>
<path d="M225.774 27.4586L221.663 31.5701L217.553 27.4586L221.663 23.3477L225.774 27.4586Z" fill="white"/>
<path d="M219.472 22.2919L216.497 25.2674L213.522 22.2919L216.497 19.3164L219.472 22.2919Z" fill="white"/>
<path d="M213.338 17.1251L211.331 19.1315L209.324 17.1251L211.331 15.1182L213.338 17.1251Z" fill="white"/>
<path d="M207.466 11.9572L206.164 13.2597L204.862 11.9572L206.164 10.6553L207.466 11.9572Z" fill="white"/>
<path d="M201.761 6.7904L200.998 7.55344L200.235 6.7904L200.998 6.02734L201.761 6.7904Z" fill="white"/>
<path d="M196.139 1.62328L195.831 1.93063L195.524 1.62328L195.831 1.31592L196.139 1.62328Z" fill="white"/>
<path d="M108.217 6.79053L108.002 7.00536L107.788 6.79053L108.002 6.57617L108.217 6.79053Z" fill="white"/>
<path d="M103.313 11.9576L102.836 12.4347L102.359 11.9576L102.836 11.481L103.313 11.9576Z" fill="white"/>
<path d="M98.4321 17.1249L97.6692 17.8879L96.9062 17.1249L97.6692 16.3618L98.4321 17.1249Z" fill="white"/>
<path d="M93.5874 22.2919L92.5032 23.3762L91.4189 22.2919L92.5032 21.2075L93.5874 22.2919Z" fill="white"/>
<path d="M88.7594 27.459L87.3368 28.8819L85.9141 27.459L87.3368 26.0361L88.7594 27.459Z" fill="white"/>
<path d="M83.9178 32.6259L82.1706 34.3733L80.4233 32.6259L82.1706 30.8784L83.9178 32.6259Z" fill="white"/>
<path d="M79.1053 37.7936L77.0033 39.8954L74.9019 37.7936L77.0033 35.6914L79.1053 37.7936Z" fill="white"/>
<path d="M74.3369 42.9602L71.8374 45.4596L69.3384 42.9602L71.8374 40.4604L74.3369 42.9602Z" fill="white"/>
<path d="M80.8172 48.1273L77.0033 51.9412L73.1899 48.1273L77.0033 44.3135L80.8172 48.1273Z" fill="white"/>
<path d="M86.8644 53.2946L82.1705 57.9896L77.4761 53.2946L82.1705 48.5996L86.8644 53.2946Z" fill="white"/>
<path d="M91.9897 58.4612L87.3366 63.1153L82.6836 58.4612L87.3366 53.8076L91.9897 58.4612Z" fill="white"/>
<path d="M236.071 58.4614L231.997 62.5371L227.921 58.4614L231.997 54.3862L236.071 58.4614Z" fill="white"/>
<path d="M241.322 53.2946L237.163 57.4544L233.003 53.2946L237.163 49.1348L241.322 53.2946Z" fill="white"/>
<path d="M246.551 48.1274L242.329 52.3499L238.107 48.1274L242.329 43.9048L246.551 48.1274Z" fill="white"/>
<path d="M251.781 42.9601L247.495 47.2455L243.21 42.9601L247.495 38.6743L251.781 42.9601Z" fill="white"/>
<path d="M246.816 37.7933L242.329 42.2809L237.841 37.7933L242.329 33.3052L246.816 37.7933Z" fill="white"/>
<path d="M241.816 32.6258L237.163 37.2794L232.51 32.6258L237.163 27.9722L241.816 32.6258Z" fill="white"/>
<path d="M236.567 27.459L231.997 32.0299L227.426 27.459L231.997 22.8882L236.567 27.459Z" fill="white"/>
<path d="M230.392 22.2918L226.83 25.8541L223.268 22.2918L226.83 18.7295L230.392 22.2918Z" fill="white"/>
<path d="M224.007 17.1252L221.663 19.4693L219.319 17.1252L221.663 14.7808L224.007 17.1252Z" fill="white"/>
<path d="M218.021 11.9579L216.497 13.4821L214.974 11.9579L216.497 10.4341L218.021 11.9579Z" fill="white"/>
<path d="M212.234 6.79073L211.331 7.69374L210.428 6.79073L211.331 5.88818L212.234 6.79073Z" fill="white"/>
<path d="M206.547 1.62341L206.164 2.0061L205.782 1.62341L206.164 1.24072L206.547 1.62341Z" fill="white"/>
<path d="M97.7289 6.79048L97.6694 6.84999L97.6099 6.79048L97.6694 6.73096L97.7289 6.79048Z" fill="white"/>
<path d="M92.7865 11.9575L92.5028 12.2416L92.2192 11.9575L92.5028 11.6738L92.7865 11.9575Z" fill="white"/>
<path d="M87.8347 17.1249L87.3363 17.6229L86.8379 17.1249L87.3363 16.6265L87.8347 17.1249Z" fill="white"/>
<path d="M82.9327 22.2919L82.1702 23.0549L81.4072 22.2919L82.1702 21.5288L82.9327 22.2919Z" fill="white"/>
<path d="M78.0156 27.4591L77.0034 28.4709L75.9917 27.4591L77.0034 26.4473L78.0156 27.4591Z" fill="white"/>
<path d="M73.106 32.6259L71.8372 33.8949L70.5688 32.6259L71.8372 31.3574L73.106 32.6259Z" fill="white"/>
<path d="M68.2194 37.7935L66.6708 39.3424L65.1221 37.7935L66.6708 36.2441L68.2194 37.7935Z" fill="white"/>
<path d="M63.2761 42.9606L61.5043 44.7322L59.7324 42.9606L61.5043 41.1885L63.2761 42.9606Z" fill="white"/>
<path d="M69.6398 48.1272L66.6712 51.0961L63.7026 48.1272L66.6712 45.1582L69.6398 48.1272Z" fill="white"/>
<path d="M76.0531 53.2942L71.8371 57.5107L67.6211 53.2942L71.8371 49.0776L76.0531 53.2942Z" fill="white"/>
<path d="M81.6775 58.4612L77.0036 63.1357L72.3301 58.4612L77.0036 53.7871L81.6775 58.4612Z" fill="white"/>
<path d="M246.213 58.4612L242.329 62.3457L238.445 58.4612L242.329 54.5771L246.213 58.4612Z" fill="white"/>
<path d="M251.443 53.2944L247.496 57.2427L243.548 53.2944L247.496 49.3462L251.443 53.2944Z" fill="white"/>
<path d="M256.701 48.1273L252.662 52.1666L248.624 48.1273L252.662 44.0879L256.701 48.1273Z" fill="white"/>
<path d="M261.931 42.96L257.829 47.0626L253.726 42.96L257.829 38.8569L261.931 42.96Z" fill="white"/>
<path d="M257.025 37.7932L252.662 42.1562L248.299 37.7932L252.662 33.4297L257.025 37.7932Z" fill="white"/>
<path d="M252.045 32.6261L247.496 37.1765L242.946 32.6261L247.496 28.0762L252.045 32.6261Z" fill="white"/>
<path d="M247.003 27.4588L242.329 32.1333L237.656 27.4588L242.329 22.7847L247.003 27.4588Z" fill="white"/>
<path d="M241.379 22.2917L237.163 26.5083L232.947 22.2917L237.163 18.0752L241.379 22.2917Z" fill="white"/>
<path d="M234.994 17.1247L231.996 20.1225L228.999 17.1247L231.996 14.1265L234.994 17.1247Z" fill="white"/>
<path d="M228.692 11.9575L226.83 13.8198L224.968 11.9575L226.83 10.0957L228.692 11.9575Z" fill="white"/>
<path d="M222.782 6.79065L221.663 7.90988L220.544 6.79065L221.663 5.67188L222.782 6.79065Z" fill="white"/>
<path d="M217.022 1.62359L216.497 2.14902L215.972 1.62359L216.497 1.09814L217.022 1.62359Z" fill="white"/>
<path d="M82.2299 11.9575L82.1704 12.017L82.1108 11.9575L82.1704 11.8984L82.2299 11.9575Z" fill="white"/>
<path d="M77.2182 17.1245L77.0034 17.3389L76.7891 17.1245L77.0034 16.9097L77.2182 17.1245Z" fill="white"/>
<path d="M72.2425 22.2917L71.8376 22.6967L71.4331 22.2917L71.8376 21.8867L72.2425 22.2917Z" fill="white"/>
<path d="M67.2592 27.4588L66.6706 28.0475L66.082 27.4588L66.6706 26.8701L67.2592 27.4588Z" fill="white"/>
<path d="M62.2676 32.6258L61.5047 33.3889L60.7417 32.6258L61.5047 31.8628L62.2676 32.6258Z" fill="white"/>
<path d="M57.2679 37.7932L56.338 38.7232L55.4077 37.7932L56.338 36.8628L57.2679 37.7932Z" fill="white"/>
<path d="M52.2372 42.9603L51.1716 44.026L50.106 42.9603L51.1716 41.8945L52.2372 42.9603Z" fill="white"/>
<path d="M58.3275 48.1274L56.3381 50.1171L54.3481 48.1274L56.3381 46.1372L58.3275 48.1274Z" fill="white"/>
<path d="M64.8771 53.2944L61.5045 56.6675L58.1318 53.2944L61.5045 49.9214L64.8771 53.2944Z" fill="white"/>
<path d="M71.1999 58.4611L66.671 62.9911L62.1421 58.4611L66.671 53.9316L71.1999 58.4611Z" fill="white"/>
<path d="M256.338 58.4613L252.663 62.138L248.986 58.4613L252.663 54.7847L256.338 58.4613Z" fill="white"/>
<path d="M261.584 53.2943L257.828 57.0505L254.073 53.2943L257.828 49.5381L261.584 53.2943Z" fill="white"/>
<path d="M266.793 48.1271L262.995 51.9261L259.196 48.1271L262.995 44.3281L266.793 48.1271Z" fill="white"/>
<path d="M267.133 37.7937L262.995 41.9321L258.857 37.7937L262.995 33.6548L267.133 37.7937Z" fill="white"/>
<path d="M262.239 32.6262L257.829 37.0376L253.418 32.6262L257.829 28.2153L262.239 32.6262Z" fill="white"/>
<path d="M257.274 27.4589L252.662 32.0712L248.05 27.4589L252.662 22.8467L257.274 27.4589Z" fill="white"/>
<path d="M252.211 22.2921L247.496 27.0076L242.781 22.2921L247.496 17.5767L252.211 22.2921Z" fill="white"/>
<path d="M246.17 17.125L242.329 20.9667L238.488 17.125L242.329 13.2832L246.17 17.125Z" fill="white"/>
<path d="M239.576 11.9572L237.163 14.3715L234.749 11.9572L237.163 9.54346L239.576 11.9572Z" fill="white"/>
<path d="M233.444 6.79076L231.997 8.23921L230.548 6.79076L231.997 5.34277L233.444 6.79076Z" fill="white"/>
<path d="M227.564 1.62387L226.83 2.35855L226.096 1.62387L226.83 0.889648L227.564 1.62387Z" fill="white"/>
<path d="M61.5643 22.2919L61.5048 22.3515L61.4453 22.2919L61.5048 22.2324L61.5643 22.2919Z" fill="white"/>
<path d="M56.5167 27.4588L56.3382 27.6374L56.1597 27.4588L56.3382 27.2803L56.5167 27.4588Z" fill="white"/>
<path d="M51.4452 32.626L51.1713 32.8998L50.8979 32.626L51.1713 32.3525L51.4452 32.626Z" fill="white"/>
<path d="M46.3452 37.7935L46.0049 38.1338L45.6646 37.7935L46.0049 37.4526L46.3452 37.7935Z" fill="white"/>
<path d="M41.2213 42.9603L40.8387 43.3425L40.4561 42.9603L40.8387 42.5776L41.2213 42.9603Z" fill="white"/>
<path d="M47.1426 48.1276L46.0049 49.2654L44.8677 48.1276L46.0049 46.9897L47.1426 48.1276Z" fill="white"/>
<path d="M53.3514 53.2946L51.1713 55.4749L48.9917 53.2946L51.1713 51.1143L53.3514 53.2946Z" fill="white"/>
<path d="M59.9861 58.4613L56.3383 62.1101L52.6899 58.4613L56.3383 54.813L59.9861 58.4613Z" fill="white"/>
<path d="M266.427 58.4614L262.995 61.8935L259.563 58.4614L262.995 55.0293L266.427 58.4614Z" fill="white"/>
<path d="M267.42 27.459L262.995 31.8848L258.57 27.459L262.995 23.0332L267.42 27.459Z" fill="white"/>
<path d="M262.461 22.2919L257.828 26.925L253.196 22.2919L257.828 17.6587L262.461 22.2919Z" fill="white"/>
<path d="M257.294 17.1249L252.662 21.7576L248.03 17.1249L252.662 12.4917L257.294 17.1249Z" fill="white"/>
<path d="M250.927 11.9575L247.495 15.3896L244.063 11.9575L247.495 8.52588L250.927 11.9575Z" fill="white"/>
<path d="M244.312 6.79034L242.329 8.77306L240.347 6.79034L242.329 4.80762L244.312 6.79034Z" fill="white"/>
<path d="M238.228 1.62338L237.163 2.68914L236.097 1.62338L237.163 0.557617L238.228 1.62338Z" fill="white"/>
<path d="M36.0544 48.1273L35.6722 48.51L35.2896 48.1273L35.6722 47.7446L36.0544 48.1273Z" fill="white"/>
<path d="M42.0546 53.294L40.8383 54.5105L39.6221 53.294L40.8383 52.0776L42.0546 53.294Z" fill="white"/>
<path d="M267.648 17.1248L262.995 21.7785L258.342 17.1248L262.995 12.4712L267.648 17.1248Z" fill="white"/>
<path d="M262.295 11.9574L257.828 16.425L253.362 11.9574L257.828 7.49023L262.295 11.9574Z" fill="white"/>
<path d="M255.742 6.79055L252.662 9.87112L249.582 6.79055L252.662 3.71045L255.742 6.79055Z" fill="white"/>
<path d="M249.12 1.62326L247.496 3.24747L245.872 1.62326L247.496 -0.000488281L249.12 1.62326Z" fill="white"/>
<path d="M30.8462 53.2945L30.5058 53.6349L30.165 53.2945L30.5058 52.9541L30.8462 53.2945Z" fill="white"/>
<path d="M267.358 6.79075L262.995 11.1538L258.633 6.79075L262.995 2.42773L267.358 6.79075Z" fill="white"/>
<path d="M260.601 1.62379L257.828 4.397L255.055 1.62379L257.828 -1.14941L260.601 1.62379Z" fill="white"/>
</g>
<defs>
<clipPath id="clip0_2023_18481">
<rect width="260" height="56" fill="white"/>
</clipPath>
</defs>
</svg>
