<svg width="49" height="49" viewBox="0 0 49 49" fill="none" xmlns="http://www.w3.org/2000/svg">
<g clip-path="url(#clip0_17063_133888)">
<ellipse cx="26.3084" cy="23.6198" rx="22.6912" ry="23.1276" fill="url(#paint0_linear_17063_133888)"/>
<circle cx="22.6912" cy="25.6766" r="22.1912" stroke="white"/>
<path d="M15.015 29.9492L18.768 21.7461H13.8393V19.9688H21.0102V21.2949L17.2299 29.9492H15.015ZM22.4011 28.9717C22.4011 28.5889 22.5037 28.2995 22.7088 28.1035C22.9138 27.9076 23.2123 27.8096 23.6043 27.8096C23.9825 27.8096 24.2742 27.9098 24.4793 28.1104C24.6889 28.3109 24.7937 28.598 24.7937 28.9717C24.7937 29.3317 24.6889 29.6165 24.4793 29.8262C24.2696 30.0312 23.978 30.1338 23.6043 30.1338C23.2215 30.1338 22.9252 30.0335 22.7156 29.833C22.506 29.6279 22.4011 29.3408 22.4011 28.9717ZM32.8908 22.1904C32.8908 22.8148 32.7016 23.3457 32.3234 23.7832C31.9451 24.2207 31.4142 24.5215 30.7306 24.6855V24.7266C31.5372 24.8268 32.1479 25.0729 32.5626 25.4648C32.9773 25.8522 33.1847 26.3763 33.1847 27.0371C33.1847 27.9987 32.8361 28.7484 32.1388 29.2861C31.4415 29.8193 30.4458 30.0859 29.1515 30.0859C28.0669 30.0859 27.1053 29.9059 26.2667 29.5459V27.748C26.6541 27.944 27.0802 28.1035 27.545 28.2266C28.0099 28.3496 28.4702 28.4111 28.9259 28.4111C29.6232 28.4111 30.1381 28.2926 30.4708 28.0557C30.8035 27.8187 30.9699 27.4382 30.9699 26.9141C30.9699 26.4447 30.7784 26.112 30.3956 25.916C30.0128 25.7201 29.4021 25.6221 28.5636 25.6221H27.8048V24.002H28.5773C29.352 24.002 29.9171 23.9017 30.2726 23.7012C30.6326 23.4961 30.8126 23.1475 30.8126 22.6553C30.8126 21.8988 30.3387 21.5205 29.3908 21.5205C29.0626 21.5205 28.7277 21.5752 28.3859 21.6846C28.0486 21.7939 27.6727 21.9831 27.2579 22.252L26.2804 20.7959C27.1919 20.1396 28.2788 19.8115 29.5411 19.8115C30.5756 19.8115 31.3914 20.0212 31.9884 20.4404C32.59 20.8597 32.8908 21.443 32.8908 22.1904Z" fill="white"/>
</g>
<defs>
<linearGradient id="paint0_linear_17063_133888" x1="3.61727" y1="-1.31466" x2="49.8979" y2="45.8664" gradientUnits="userSpaceOnUse">
<stop stop-color="#FFC671"/>
<stop offset="0.59375" stop-color="#FF7541"/>
<stop offset="1" stop-color="#FF6F3D"/>
</linearGradient>
<clipPath id="clip0_17063_133888">
<rect width="48.9998" height="47.8756" fill="white" transform="translate(0 0.492188)"/>
</clipPath>
</defs>
</svg>
