<svg width="353" height="33" viewBox="0 0 353 33" fill="none" xmlns="http://www.w3.org/2000/svg">
<path fill-rule="evenodd" clip-rule="evenodd" d="M11.1742 19L8.27943 21.9014C8.00778 22.1737 8.00665 22.6163 8.2769 22.89C8.54715 23.1636 8.98645 23.1648 9.2581 22.8925L12.642 19.5008C12.8049 19.3375 12.8706 19.1129 12.8386 18.9002C12.8191 18.7528 12.753 18.6105 12.6403 18.4975L9.26078 15.1103C8.98913 14.838 8.54983 14.8391 8.27958 15.1128C8.00933 15.3864 8.01047 15.829 8.28212 16.1013L11.1742 19Z" fill="white"/>
<rect x="0.5" y="9.5" width="19" height="19" rx="9.5" stroke="white"/>
<path d="M348.629 26.7787L340.886 22.9007L348.116 18.1336L348.629 26.7787Z" fill="white"/>
<circle r="3" transform="matrix(-1 0 0 1 284.122 6.79102)" stroke="white"/>
<circle r="3" transform="matrix(-1 0 0 1 83 5.06055)" fill="white"/>
<path d="M214.189 22.7588C216.226 25.3342 218.189 26.2588 220.689 27.7588C217.689 28.2588 216.189 29.2588 213.189 30.2588C213.771 27.3884 214.189 27.2588 214.189 25.7588" stroke="white" stroke-linecap="round" stroke-linejoin="round"/>
<path d="M136.35 22.7887C134.21 19.0431 133.288 14.3376 133.326 7.69326C136.357 7.65136 138.912 7.2173 141.165 6.23386C143.39 5.26324 145.291 3.77066 147.06 1.64773C148.997 3.7427 150.887 5.23461 153.005 6.21203C155.147 7.20018 157.491 7.64751 160.303 7.6928C160.481 14.0588 159.561 18.8678 157.436 22.7372C155.295 26.6347 151.901 29.6341 147.042 32.3092C141.939 29.4275 138.508 26.5643 136.35 22.7887Z" stroke="white"/>
<path fill-rule="evenodd" clip-rule="evenodd" d="M152.97 12.9385C153.406 13.3041 153.467 13.9587 153.106 14.4006L147.454 21.3237C147.267 21.5529 146.992 21.6898 146.699 21.6996C146.405 21.7095 146.122 21.5913 145.92 21.3752L142.69 17.9136C142.301 17.4969 142.32 16.8396 142.731 16.4456C143.142 16.0516 143.791 16.07 144.18 16.4868L146.613 19.0953L151.527 13.0767C151.888 12.6348 152.534 12.573 152.97 12.9385Z" fill="white"/>
</svg>
