<svg width="56" height="43" viewBox="0 0 56 43" fill="none" xmlns="http://www.w3.org/2000/svg">
<g opacity="0.5">
<path fill-rule="evenodd" clip-rule="evenodd" d="M20.3214 16.3333V41.6667H54.6786V16.3333H20.3214ZM19.6607 15C19.2958 15 19 15.2985 19 15.6667V42.3333C19 42.7015 19.2958 43 19.6607 43H55.3393C55.7042 43 56 42.7015 56 42.3333V15.6667C56 15.2985 55.7042 15 55.3393 15H19.6607Z" fill="#FF844A"/>
<path fill-rule="evenodd" clip-rule="evenodd" d="M55 22H19V21H55V22Z" fill="#FF844A"/>
<path fill-rule="evenodd" clip-rule="evenodd" d="M28 42L28 21L29 21L29 42L28 42Z" fill="#FF844A"/>
<path fill-rule="evenodd" clip-rule="evenodd" d="M49 18.5C49 18.7761 48.708 19 48.3478 19L34.6522 19C34.292 19 34 18.7761 34 18.5C34 18.2239 34.292 18 34.6522 18L48.3478 18C48.708 18 49 18.2239 49 18.5Z" fill="#FF844A"/>
<path fill-rule="evenodd" clip-rule="evenodd" d="M53 18.5C53 18.7761 52.7314 19 52.4 19H50.6C50.2686 19 50 18.7761 50 18.5C50 18.2239 50.2686 18 50.6 18H52.4C52.7314 18 53 18.2239 53 18.5Z" fill="#FF844A"/>
<path fill-rule="evenodd" clip-rule="evenodd" d="M46 42L46 21L47 21L47 42L46 42Z" fill="#FF844A"/>
<path fill-rule="evenodd" clip-rule="evenodd" d="M37 42L37 21L38 21L38 42L37 42Z" fill="#FF844A"/>
<path fill-rule="evenodd" clip-rule="evenodd" d="M55 27H19V26H55V27Z" fill="#FF844A"/>
<path fill-rule="evenodd" clip-rule="evenodd" d="M55 32H19V31H55V32Z" fill="#FF844A"/>
<path fill-rule="evenodd" clip-rule="evenodd" d="M55 37H19V36H55V37Z" fill="#FF844A"/>
</g>
<path d="M7.19544 3.78189C7.48705 2.93651 7.63285 2.51383 7.80534 2.34726C8.19285 1.97304 8.80715 1.97304 9.19466 2.34726C9.36715 2.51383 9.51295 2.93651 9.80457 3.78189L10.2445 5.0572C10.3086 5.24299 10.3406 5.33588 10.3866 5.4167C10.4872 5.59338 10.6393 5.73519 10.8226 5.82323C10.9064 5.86351 11.0013 5.88899 11.1911 5.93997L12.0373 6.16723C13.1118 6.45578 13.649 6.60006 13.8331 6.77487C14.2483 7.16914 14.2483 7.83086 13.8331 8.22513C13.649 8.39994 13.1118 8.54422 12.0373 8.83277L11.1911 9.06003C11.0013 9.11101 10.9064 9.13649 10.8226 9.17677C10.6393 9.26481 10.4872 9.40662 10.3866 9.5833C10.3406 9.66412 10.3086 9.75702 10.2445 9.9428L9.80456 11.2181C9.51295 12.0635 9.36715 12.4862 9.19466 12.6527C8.80715 13.027 8.19285 13.027 7.80534 12.6527C7.63285 12.4862 7.48705 12.0635 7.19543 11.2181L6.75551 9.9428C6.69143 9.75702 6.65939 9.66412 6.61336 9.5833C6.51275 9.40662 6.36068 9.26481 6.17742 9.17677C6.09358 9.13649 5.99868 9.11101 5.80888 9.06003L4.96266 8.83277C3.8882 8.54422 3.35097 8.39994 3.16689 8.22513C2.75171 7.83086 2.75171 7.16914 3.16689 6.77487C3.35097 6.60006 3.8882 6.45578 4.96266 6.16723L5.80888 5.93997C5.99868 5.88899 6.09358 5.86351 6.17742 5.82323C6.36068 5.73519 6.51275 5.59338 6.61336 5.4167C6.65939 5.33588 6.69143 5.24299 6.75552 5.0572L7.19544 3.78189Z" fill="url(#paint0_linear_51_44)"/>
<path d="M10.6039 32.3013C10.691 32.0151 10.7346 31.872 10.7867 31.8193C10.9042 31.7006 11.0958 31.7006 11.2133 31.8193C11.2654 31.872 11.309 32.0151 11.3961 32.3013L11.8691 33.8554C11.8863 33.912 11.8949 33.9404 11.9079 33.9652C11.9363 34.0194 11.9806 34.0637 12.0348 34.0921C12.0596 34.1051 12.088 34.1137 12.1446 34.1309L13.6987 34.6039C13.9849 34.691 14.128 34.7346 14.1807 34.7867C14.2994 34.9042 14.2994 35.0958 14.1807 35.2133C14.128 35.2654 13.9849 35.309 13.6987 35.3961L12.1446 35.8691C12.088 35.8863 12.0596 35.8949 12.0348 35.9079C11.9806 35.9363 11.9363 35.9806 11.9079 36.0348C11.8949 36.0596 11.8863 36.088 11.8691 36.1446L11.3961 37.6987C11.309 37.9849 11.2654 38.128 11.2133 38.1807C11.0958 38.2994 10.9042 38.2994 10.7867 38.1807C10.7346 38.128 10.691 37.9849 10.6039 37.6987L10.1309 36.1446C10.1137 36.088 10.1051 36.0596 10.0921 36.0348C10.0637 35.9806 10.0194 35.9363 9.96517 35.9079C9.94035 35.8949 9.91203 35.8863 9.8554 35.8691L8.30126 35.3961C8.01509 35.309 7.872 35.2654 7.81929 35.2133C7.70063 35.0958 7.70063 34.9042 7.81929 34.7867C7.872 34.7346 8.01509 34.691 8.30126 34.6039L9.8554 34.1309C9.91203 34.1137 9.94035 34.1051 9.96517 34.0921C10.0194 34.0637 10.0637 34.0194 10.0921 33.9652C10.1051 33.9404 10.1137 33.912 10.1309 33.8554L10.6039 32.3013Z" fill="url(#paint1_linear_51_44)"/>
<circle cx="45" cy="7" r="1" fill="white"/>
<defs>
<linearGradient id="paint0_linear_51_44" x1="-2.63656" y1="-5.30275" x2="23.3503" y2="38.8685" gradientUnits="userSpaceOnUse">
<stop stop-color="#FFC671"/>
<stop offset="0.59375" stop-color="#FF7541"/>
<stop offset="1" stop-color="#FF6F3D"/>
</linearGradient>
<linearGradient id="paint1_linear_51_44" x1="10.8079" y1="40.8092" x2="26.3619" y2="15.0757" gradientUnits="userSpaceOnUse">
<stop stop-color="#FFC671"/>
<stop offset="0.505066" stop-color="#FF7541"/>
<stop offset="1" stop-color="#FF6F3D"/>
</linearGradient>
</defs>
</svg>
