<svg width="243" height="56" viewBox="0 0 243 56" fill="none" xmlns="http://www.w3.org/2000/svg">
<path d="M184.68 11.3375C184.97 10.3836 185.115 9.90667 185.289 9.73097C185.681 9.33542 186.319 9.33542 186.711 9.73097C186.885 9.90667 187.03 10.3836 187.32 11.3375L187.652 12.4292C187.71 12.618 187.739 12.7124 187.782 12.7951C187.876 12.976 188.024 13.1236 188.205 13.2181C188.288 13.2613 188.382 13.2901 188.571 13.3475L189.662 13.6798C190.616 13.9701 191.093 14.1153 191.269 14.2891C191.665 14.6805 191.665 15.3195 191.269 15.7109C191.093 15.8847 190.616 16.0299 189.662 16.3202L188.571 16.6525C188.382 16.7099 188.288 16.7387 188.205 16.7819C188.024 16.8764 187.876 17.024 187.782 17.2049C187.739 17.2877 187.71 17.382 187.652 17.5708L187.32 18.6625C187.03 19.6164 186.885 20.0933 186.711 20.269C186.319 20.6646 185.681 20.6646 185.289 20.269C185.115 20.0933 184.97 19.6164 184.68 18.6625L184.348 17.5708C184.29 17.382 184.261 17.2877 184.218 17.2049C184.124 17.024 183.976 16.8764 183.795 16.7819C183.712 16.7387 183.618 16.7099 183.429 16.6525L182.338 16.3202C181.384 16.0299 180.907 15.8847 180.731 15.7109C180.335 15.3195 180.335 14.6805 180.731 14.2891C180.907 14.1153 181.384 13.9701 182.338 13.6798L183.429 13.3475C183.618 13.2901 183.712 13.2613 183.795 13.2181C183.976 13.1236 184.124 12.976 184.218 12.7951C184.261 12.7124 184.29 12.618 184.348 12.4292L184.68 11.3375Z" fill="url(#paint0_linear_1621_16098)"/>
<path d="M225.18 35.3375C225.47 34.3836 225.615 33.9067 225.789 33.731C226.181 33.3354 226.819 33.3354 227.211 33.731C227.385 33.9067 227.53 34.3836 227.82 35.3375L228.502 37.5791C228.56 37.7679 228.589 37.8623 228.632 37.9451C228.726 38.1259 228.874 38.2735 229.055 38.3681C229.138 38.4113 229.232 38.4401 229.421 38.4975L231.662 39.1798C232.616 39.4701 233.093 39.6153 233.269 39.7891C233.665 40.1805 233.665 40.8195 233.269 41.2109C233.093 41.3847 232.616 41.5299 231.662 41.8202L229.421 42.5025C229.232 42.5599 229.138 42.5887 229.055 42.6319C228.874 42.7265 228.726 42.8741 228.632 43.0549C228.589 43.1377 228.56 43.2321 228.502 43.4209L227.82 45.6625C227.53 46.6164 227.385 47.0933 227.211 47.269C226.819 47.6646 226.181 47.6646 225.789 47.269C225.615 47.0933 225.47 46.6164 225.18 45.6625L224.498 43.4209C224.44 43.2321 224.411 43.1377 224.368 43.0549C224.274 42.8741 224.126 42.7265 223.945 42.6319C223.862 42.5887 223.768 42.5599 223.579 42.5025L221.338 41.8202C220.384 41.5299 219.907 41.3847 219.731 41.2109C219.335 40.8195 219.335 40.1805 219.731 39.7891C219.907 39.6153 220.384 39.4701 221.338 39.1798L223.579 38.4975C223.768 38.4401 223.862 38.4113 223.945 38.3681C224.126 38.2735 224.274 38.1259 224.368 37.9451C224.411 37.8623 224.44 37.7679 224.498 37.5791L225.18 35.3375Z" fill="url(#paint1_linear_1621_16098)"/>
<path d="M25.1039 33.3013C25.191 33.0151 25.2346 32.872 25.2867 32.8193C25.4042 32.7006 25.5958 32.7006 25.7133 32.8193C25.7654 32.872 25.809 33.0151 25.8961 33.3013L26.7191 36.0054C26.7363 36.062 26.745 36.0903 26.7579 36.1152C26.7863 36.1694 26.8306 36.2137 26.8848 36.2421C26.9097 36.255 26.938 36.2637 26.9946 36.2809L29.6987 37.1039C29.9849 37.191 30.128 37.2346 30.1807 37.2867C30.2994 37.4042 30.2994 37.5958 30.1807 37.7133C30.128 37.7654 29.9849 37.809 29.6987 37.8961L26.9946 38.7191C26.938 38.7363 26.9097 38.745 26.8848 38.7579C26.8306 38.7863 26.7863 38.8306 26.7579 38.8848C26.745 38.9097 26.7363 38.938 26.7191 38.9946L25.8961 41.6987C25.809 41.9849 25.7654 42.128 25.7133 42.1807C25.5958 42.2994 25.4042 42.2994 25.2867 42.1807C25.2346 42.128 25.191 41.9849 25.1039 41.6987L24.2809 38.9946C24.2637 38.938 24.255 38.9097 24.2421 38.8848C24.2137 38.8306 24.1694 38.7863 24.1152 38.7579C24.0903 38.745 24.062 38.7363 24.0054 38.7191L21.3013 37.8961C21.0151 37.809 20.872 37.7654 20.8193 37.7133C20.7006 37.5958 20.7006 37.4042 20.8193 37.2867C20.872 37.2346 21.0151 37.191 21.3013 37.1039L24.0054 36.2809C24.062 36.2637 24.0903 36.255 24.1152 36.2421C24.1694 36.2137 24.2137 36.1694 24.2421 36.1152C24.255 36.0903 24.2637 36.062 24.2809 36.0054L25.1039 33.3013Z" fill="url(#paint2_linear_1621_16098)"/>
<circle cx="226" cy="13" r="1" fill="white"/>
<circle cx="51" cy="17" r="1" fill="white"/>
<circle cx="168" cy="41" r="2" fill="white"/>
<path fill-rule="evenodd" clip-rule="evenodd" d="M82 9V47H134V9H82ZM81 7C80.4477 7 80 7.44772 80 8V48C80 48.5523 80.4477 49 81 49H135C135.552 49 136 48.5523 136 48V8C136 7.44772 135.552 7 135 7H81Z" fill="#FF844A"/>
<path fill-rule="evenodd" clip-rule="evenodd" d="M134 17H80V15H134V17Z" fill="#FF844A"/>
<path fill-rule="evenodd" clip-rule="evenodd" d="M93 48L93 16L95 16L95 48L93 48Z" fill="#FF844A"/>
<path fill-rule="evenodd" clip-rule="evenodd" d="M125 12C125 12.5523 124.552 13 124 13L103 13C102.448 13 102 12.5523 102 12C102 11.4477 102.448 11 103 11L124 11C124.552 11 125 11.4477 125 12Z" fill="#FF844A"/>
<path fill-rule="evenodd" clip-rule="evenodd" d="M132 12C132 12.5523 131.552 13 131 13H128C127.448 13 127 12.5523 127 12C127 11.4477 127.448 11 128 11H131C131.552 11 132 11.4477 132 12Z" fill="#FF844A"/>
<path fill-rule="evenodd" clip-rule="evenodd" d="M121 48L121 16L123 16L123 48L121 48Z" fill="#FF844A"/>
<path fill-rule="evenodd" clip-rule="evenodd" d="M107 48L107 16L109 16L109 48L107 48Z" fill="#FF844A"/>
<path fill-rule="evenodd" clip-rule="evenodd" d="M134 25H80V23H134V25Z" fill="#FF844A"/>
<path fill-rule="evenodd" clip-rule="evenodd" d="M134 33H80V31H134V33Z" fill="#FF844A"/>
<path fill-rule="evenodd" clip-rule="evenodd" d="M134 41H80V39H134V41Z" fill="#FF844A"/>
<defs>
<linearGradient id="paint0_linear_1621_16098" x1="178" y1="6.375" x2="194" y2="23" gradientUnits="userSpaceOnUse">
<stop stop-color="#FFC671"/>
<stop offset="0.59375" stop-color="#FF7541"/>
<stop offset="1" stop-color="#FF6F3D"/>
</linearGradient>
<linearGradient id="paint1_linear_1621_16098" x1="214.053" y1="24.2832" x2="244.251" y2="67.7241" gradientUnits="userSpaceOnUse">
<stop stop-color="#FFC671"/>
<stop offset="0.59375" stop-color="#FF7541"/>
<stop offset="1" stop-color="#FF6F3D"/>
</linearGradient>
<linearGradient id="paint2_linear_1621_16098" x1="25.2358" y1="45.4877" x2="34.8844" y2="22.6679" gradientUnits="userSpaceOnUse">
<stop stop-color="#FFC671"/>
<stop offset="0.505066" stop-color="#FF7541"/>
<stop offset="1" stop-color="#FF6F3D"/>
</linearGradient>
</defs>
</svg>
