<svg width="238" height="56" viewBox="0 0 238 56" fill="none" xmlns="http://www.w3.org/2000/svg">
<path d="M211.68 12.3375C211.97 11.3836 212.115 10.9067 212.289 10.731C212.681 10.3354 213.319 10.3354 213.711 10.731C213.885 10.9067 214.03 11.3836 214.32 12.3375L214.652 13.4292C214.71 13.618 214.739 13.7124 214.782 13.7951C214.876 13.976 215.024 14.1236 215.205 14.2181C215.288 14.2613 215.382 14.2901 215.571 14.3475L216.662 14.6798C217.616 14.9701 218.093 15.1153 218.269 15.2891C218.665 15.6805 218.665 16.3195 218.269 16.7109C218.093 16.8847 217.616 17.0299 216.662 17.3202L215.571 17.6525C215.382 17.7099 215.288 17.7387 215.205 17.7819C215.024 17.8764 214.876 18.024 214.782 18.2049C214.739 18.2877 214.71 18.382 214.652 18.5708L214.32 19.6625C214.03 20.6164 213.885 21.0933 213.711 21.269C213.319 21.6646 212.681 21.6646 212.289 21.269C212.115 21.0933 211.97 20.6164 211.68 19.6625L211.348 18.5708C211.29 18.382 211.261 18.2877 211.218 18.2049C211.124 18.024 210.976 17.8764 210.795 17.7819C210.712 17.7387 210.618 17.7099 210.429 17.6525L209.338 17.3202C208.384 17.0299 207.907 16.8847 207.731 16.7109C207.335 16.3195 207.335 15.6805 207.731 15.2891C207.907 15.1153 208.384 14.9701 209.338 14.6798L210.429 14.3475C210.618 14.2901 210.712 14.2613 210.795 14.2181C210.976 14.1236 211.124 13.976 211.218 13.7951C211.261 13.7124 211.29 13.618 211.348 13.4292L211.68 12.3375Z" fill="#FFB979"/>
<path d="M163.18 36.3375C163.47 35.3836 163.615 34.9067 163.789 34.731C164.181 34.3354 164.819 34.3354 165.211 34.731C165.385 34.9067 165.53 35.3836 165.82 36.3375L166.502 38.5791C166.56 38.7679 166.589 38.8623 166.632 38.9451C166.726 39.1259 166.874 39.2735 167.055 39.3681C167.138 39.4113 167.232 39.4401 167.421 39.4975L169.662 40.1798C170.616 40.4701 171.093 40.6153 171.269 40.7891C171.665 41.1805 171.665 41.8195 171.269 42.2109C171.093 42.3847 170.616 42.5299 169.662 42.8202L167.421 43.5025C167.232 43.5599 167.138 43.5887 167.055 43.6319C166.874 43.7265 166.726 43.8741 166.632 44.0549C166.589 44.1377 166.56 44.2321 166.502 44.4209L165.82 46.6625C165.53 47.6164 165.385 48.0933 165.211 48.269C164.819 48.6646 164.181 48.6646 163.789 48.269C163.615 48.0933 163.47 47.6164 163.18 46.6625L162.498 44.4209C162.44 44.2321 162.411 44.1377 162.368 44.0549C162.274 43.8741 162.126 43.7265 161.945 43.6319C161.862 43.5887 161.768 43.5599 161.579 43.5025L159.338 42.8202C158.384 42.5299 157.907 42.3847 157.731 42.2109C157.335 41.8195 157.335 41.1805 157.731 40.7891C157.907 40.6153 158.384 40.4701 159.338 40.1798L161.579 39.4975C161.768 39.4401 161.862 39.4113 161.945 39.3681C162.126 39.2735 162.274 39.1259 162.368 38.9451C162.411 38.8623 162.44 38.7679 162.498 38.5791L163.18 36.3375Z" fill="#FFB979"/>
<path d="M4.60394 30.3013C4.69104 30.0151 4.73459 29.872 4.78674 29.8193C4.90415 29.7006 5.09585 29.7006 5.21326 29.8193C5.26541 29.872 5.30896 30.0151 5.39606 30.3013L6.10244 32.6221C6.11968 32.6787 6.12829 32.707 6.14127 32.7318C6.16963 32.7861 6.21391 32.8304 6.26817 32.8587C6.29299 32.8717 6.32131 32.8803 6.37795 32.8976L8.69874 33.6039C8.98491 33.691 9.128 33.7346 9.18071 33.7867C9.29937 33.9042 9.29937 34.0958 9.18071 34.2133C9.128 34.2654 8.98491 34.309 8.69874 34.3961L6.37795 35.1024C6.32131 35.1197 6.29299 35.1283 6.26817 35.1413C6.21391 35.1696 6.16963 35.2139 6.14127 35.2682C6.12829 35.293 6.11968 35.3213 6.10244 35.3779L5.39606 37.6987C5.30896 37.9849 5.26541 38.128 5.21326 38.1807C5.09585 38.2994 4.90415 38.2994 4.78674 38.1807C4.73459 38.128 4.69104 37.9849 4.60394 37.6987L3.89756 35.3779C3.88032 35.3213 3.87171 35.293 3.85873 35.2682C3.83037 35.2139 3.78609 35.1696 3.73183 35.1413C3.70701 35.1283 3.67869 35.1197 3.62205 35.1024L1.30126 34.3961C1.01509 34.309 0.872001 34.2654 0.819291 34.2133C0.700627 34.0958 0.700627 33.9042 0.819291 33.7867C0.872001 33.7346 1.01509 33.691 1.30126 33.6039L3.62205 32.8976C3.67869 32.8803 3.70701 32.8717 3.73183 32.8587C3.78609 32.8304 3.83037 32.7861 3.85873 32.7318C3.87171 32.707 3.88032 32.6787 3.89756 32.6221L4.60394 30.3013Z" fill="url(#paint0_linear_1623_16151)"/>
<circle cx="200" cy="37" r="1" fill="white"/>
<circle cx="38" cy="18" r="1" fill="white"/>
<circle cx="148" cy="10" r="2" fill="white"/>
<path d="M110.431 29.0615C110.316 29.0986 110.157 29.1691 110.079 29.2137C109.86 29.3473 97.6888 41.525 97.6183 41.6847C97.5849 41.7589 97.21 43.051 96.7795 44.5546C96.2524 46.4035 96 47.3503 96 47.4691C96 47.7847 96.2153 48 96.5271 48C96.7015 48 101.842 46.5669 102.254 46.3998C102.421 46.3367 103.149 45.6202 108.572 40.1922C112.48 36.279 114.733 33.9994 114.793 33.8917C114.956 33.6021 115.015 33.3274 114.997 32.9301C114.971 32.2841 114.989 32.3138 113.375 30.6876C112.079 29.3845 111.961 29.2731 111.704 29.1468C111.445 29.0169 111.404 29.0095 111.036 29.0021C110.732 28.9946 110.595 29.0058 110.431 29.0615ZM111.211 30.1938C111.333 30.2607 113.753 32.6888 113.813 32.8039C113.835 32.8484 113.854 32.9635 113.854 33.06V33.2383L113.197 33.8991L112.536 34.56L109.437 31.4599L110.097 30.799L110.758 30.1419H110.936C111.033 30.1419 111.155 30.1641 111.211 30.1938ZM110.179 33.836L111.719 35.3768L102.069 45.0298L98.9694 41.9297L103.784 37.1143C106.434 34.4635 108.609 32.2952 108.62 32.2952C108.631 32.2952 109.333 32.9895 110.179 33.836ZM100.888 45.5942C100.818 45.6313 97.4402 46.5929 97.4253 46.578C97.4142 46.5669 98.0526 44.291 98.3421 43.3071L98.4201 43.051L99.6783 44.3096C100.528 45.1598 100.918 45.5756 100.888 45.5942Z" fill="#FFB979"/>
<mask id="path-8-inside-1_1623_16151" fill="white">
<rect x="70" y="12" width="9" height="9" rx="1"/>
</mask>
<rect x="70" y="12" width="9" height="9" rx="1" stroke="#FFB979" stroke-width="4" mask="url(#path-8-inside-1_1623_16151)"/>
<mask id="path-9-inside-2_1623_16151" fill="white">
<rect x="70" y="24" width="9" height="9" rx="1"/>
</mask>
<rect x="70" y="24" width="9" height="9" rx="1" stroke="#FFB979" stroke-width="4" mask="url(#path-9-inside-2_1623_16151)"/>
<mask id="path-10-inside-3_1623_16151" fill="white">
<rect x="70" y="36" width="9" height="9" rx="1"/>
</mask>
<rect x="70" y="36" width="9" height="9" rx="1" stroke="#FFB979" stroke-width="4" mask="url(#path-10-inside-3_1623_16151)"/>
<path fill-rule="evenodd" clip-rule="evenodd" d="M81 14C81 13.4477 81.4477 13 82 13H96C96.5523 13 97 13.4477 97 14C97 14.5523 96.5523 15 96 15H82C81.4477 15 81 14.5523 81 14Z" fill="#FFB979"/>
<path fill-rule="evenodd" clip-rule="evenodd" d="M81 26C81 25.4477 81.4477 25 82 25H96C96.5523 25 97 25.4477 97 26C97 26.5523 96.5523 27 96 27H82C81.4477 27 81 26.5523 81 26Z" fill="#FFB979"/>
<path fill-rule="evenodd" clip-rule="evenodd" d="M81 38C81 37.4477 81.4477 37 82 37H96C96.5523 37 97 37.4477 97 38C97 38.5523 96.5523 39 96 39H82C81.4477 39 81 38.5523 81 38Z" fill="#FFB979"/>
<path fill-rule="evenodd" clip-rule="evenodd" d="M81 18C81 17.4477 81.4477 17 82 17H92C92.5523 17 93 17.4477 93 18C93 18.5523 92.5523 19 92 19H82C81.4477 19 81 18.5523 81 18Z" fill="#FFB979"/>
<path fill-rule="evenodd" clip-rule="evenodd" d="M81 30C81 29.4477 81.4477 29 82 29H92C92.5523 29 93 29.4477 93 30C93 30.5523 92.5523 31 92 31H82C81.4477 31 81 30.5523 81 30Z" fill="#FFB979"/>
<path fill-rule="evenodd" clip-rule="evenodd" d="M81 42C81 41.4477 81.4477 41 82 41H92C92.5523 41 93 41.4477 93 42C93 42.5523 92.5523 43 92 43H82C81.4477 43 81 42.5523 81 42Z" fill="#FFB979"/>
<defs>
<linearGradient id="paint0_linear_1623_16151" x1="4.75982" y1="41.2615" x2="24.2024" y2="9.09461" gradientUnits="userSpaceOnUse">
<stop stop-color="#FFC671"/>
<stop offset="0.505066" stop-color="#FF7541"/>
<stop offset="1" stop-color="#FF6F3D"/>
</linearGradient>
</defs>
</svg>
