<svg width="57" height="48" viewBox="0 0 57 48" fill="none" xmlns="http://www.w3.org/2000/svg">
<g style="mix-blend-mode:overlay" opacity="0.3">
<path d="M1.06825 45V28.44C1.06825 26.88 1.44825 25.48 2.20825 24.24C2.96825 23 3.96825 22.02 5.20824 21.3C6.44825 20.54 7.82825 20.16 9.34825 20.16H35.2682C35.4682 20.16 35.6282 20.1 35.7482 19.98C35.9082 19.82 35.9882 19.64 35.9882 19.44V10.38C35.9882 10.18 35.9082 10.02 35.7482 9.9C35.6282 9.74 35.4682 9.66 35.2682 9.66H9.64825C9.44825 9.66 9.26825 9.74 9.10825 9.9C8.98825 10.02 8.92825 10.18 8.92825 10.38V13.32H1.06825V10.08C1.06825 8.52 1.44825 7.12 2.20825 5.88C2.96825 4.64 3.96825 3.66 5.20824 2.94C6.44825 2.18 7.82825 1.8 9.34825 1.8H35.5682C37.0882 1.8 38.4682 2.18 39.7082 2.94C40.9882 3.66 41.9882 4.64 42.7082 5.88C43.4682 7.12 43.8482 8.52 43.8482 10.08V19.8C43.8482 21.28 43.4682 22.66 42.7082 23.94C41.9882 25.18 40.9882 26.18 39.7082 26.94C38.4682 27.7 37.0882 28.08 35.5682 28.08H9.64825C9.44825 28.08 9.26825 28.16 9.10825 28.32C8.98825 28.44 8.92825 28.6 8.92825 28.8V36.42C8.92825 36.62 8.98825 36.8 9.10825 36.96C9.26825 37.08 9.44825 37.14 9.64825 37.14H43.8482V45H1.06825Z" fill="white"/>
<path d="M1.06825 45V28.44C1.06825 26.88 1.44825 25.48 2.20825 24.24C2.96825 23 3.96825 22.02 5.20824 21.3C6.44825 20.54 7.82825 20.16 9.34825 20.16H35.2682C35.4682 20.16 35.6282 20.1 35.7482 19.98C35.9082 19.82 35.9882 19.64 35.9882 19.44V10.38C35.9882 10.18 35.9082 10.02 35.7482 9.9C35.6282 9.74 35.4682 9.66 35.2682 9.66H9.64825C9.44825 9.66 9.26825 9.74 9.10825 9.9C8.98825 10.02 8.92825 10.18 8.92825 10.38V13.32H1.06825V10.08C1.06825 8.52 1.44825 7.12 2.20825 5.88C2.96825 4.64 3.96825 3.66 5.20824 2.94C6.44825 2.18 7.82825 1.8 9.34825 1.8H35.5682C37.0882 1.8 38.4682 2.18 39.7082 2.94C40.9882 3.66 41.9882 4.64 42.7082 5.88C43.4682 7.12 43.8482 8.52 43.8482 10.08V19.8C43.8482 21.28 43.4682 22.66 42.7082 23.94C41.9882 25.18 40.9882 26.18 39.7082 26.94C38.4682 27.7 37.0882 28.08 35.5682 28.08H9.64825C9.44825 28.08 9.26825 28.16 9.10825 28.32C8.98825 28.44 8.92825 28.6 8.92825 28.8V36.42C8.92825 36.62 8.98825 36.8 9.10825 36.96C9.26825 37.08 9.44825 37.14 9.64825 37.14H43.8482V45H1.06825Z" fill="white"/>
</g>
<g style="mix-blend-mode:overlay" opacity="0.5">
<path d="M39.5498 43.635C34.7898 43.635 29.4098 42.815 23.4098 41.175V41.235C20.9698 42.515 18.8298 43.155 16.9898 43.155C15.9098 43.155 14.9098 42.895 13.9898 42.375C12.8298 41.775 12.2498 40.995 12.2498 40.035C12.2498 39.195 12.6698 38.515 13.5098 37.995C14.1498 37.595 14.9498 37.395 15.9098 37.395C16.6698 37.395 19.0498 37.995 23.0498 39.195L23.4098 39.015L23.7098 38.835C37.4698 30.355 46.3898 22.675 50.4698 15.795C52.3098 12.715 53.2298 10.195 53.2298 8.235C53.2298 5.315 51.2898 3.855 47.4098 3.855C44.8498 3.855 42.1898 4.535 39.4298 5.895C36.8698 7.135 34.6098 8.735 32.6498 10.695C32.2898 11.055 31.8498 11.555 31.3298 12.195C30.8098 12.795 30.2098 13.535 29.5298 14.415C29.3698 14.695 29.1098 14.835 28.7498 14.835C28.0698 14.835 27.7298 14.495 27.7298 13.815C27.7298 13.615 27.8098 13.435 27.9698 13.275C30.1298 10.115 32.9898 7.475 36.5498 5.355C40.3498 3.075 44.0298 1.935 47.5898 1.935C49.7498 1.935 51.4898 2.415 52.8098 3.375C54.2898 4.455 55.0298 6.035 55.0298 8.115C55.0298 10.675 54.0498 13.595 52.0898 16.875C47.8498 23.995 39.0898 31.675 25.8098 39.915C30.9698 41.115 35.4698 41.715 39.3098 41.715C46.2298 41.715 49.6298 40.415 49.5098 37.815L49.4498 37.455C49.4498 36.695 49.7898 36.315 50.4698 36.315C51.0698 36.315 51.3698 36.775 51.3698 37.695C51.3698 41.655 47.4298 43.635 39.5498 43.635ZM16.8698 41.175C17.9098 41.175 19.0698 40.915 20.3498 40.395C18.3098 39.675 16.9898 39.315 16.3898 39.315C15.3098 39.315 14.7698 39.615 14.7698 40.215C14.7698 40.855 15.4698 41.175 16.8698 41.175Z" fill="white"/>
<path d="M39.5498 43.635C34.7898 43.635 29.4098 42.815 23.4098 41.175V41.235C20.9698 42.515 18.8298 43.155 16.9898 43.155C15.9098 43.155 14.9098 42.895 13.9898 42.375C12.8298 41.775 12.2498 40.995 12.2498 40.035C12.2498 39.195 12.6698 38.515 13.5098 37.995C14.1498 37.595 14.9498 37.395 15.9098 37.395C16.6698 37.395 19.0498 37.995 23.0498 39.195L23.4098 39.015L23.7098 38.835C37.4698 30.355 46.3898 22.675 50.4698 15.795C52.3098 12.715 53.2298 10.195 53.2298 8.235C53.2298 5.315 51.2898 3.855 47.4098 3.855C44.8498 3.855 42.1898 4.535 39.4298 5.895C36.8698 7.135 34.6098 8.735 32.6498 10.695C32.2898 11.055 31.8498 11.555 31.3298 12.195C30.8098 12.795 30.2098 13.535 29.5298 14.415C29.3698 14.695 29.1098 14.835 28.7498 14.835C28.0698 14.835 27.7298 14.495 27.7298 13.815C27.7298 13.615 27.8098 13.435 27.9698 13.275C30.1298 10.115 32.9898 7.475 36.5498 5.355C40.3498 3.075 44.0298 1.935 47.5898 1.935C49.7498 1.935 51.4898 2.415 52.8098 3.375C54.2898 4.455 55.0298 6.035 55.0298 8.115C55.0298 10.675 54.0498 13.595 52.0898 16.875C47.8498 23.995 39.0898 31.675 25.8098 39.915C30.9698 41.115 35.4698 41.715 39.3098 41.715C46.2298 41.715 49.6298 40.415 49.5098 37.815L49.4498 37.455C49.4498 36.695 49.7898 36.315 50.4698 36.315C51.0698 36.315 51.3698 36.775 51.3698 37.695C51.3698 41.655 47.4298 43.635 39.5498 43.635ZM16.8698 41.175C17.9098 41.175 19.0698 40.915 20.3498 40.395C18.3098 39.675 16.9898 39.315 16.3898 39.315C15.3098 39.315 14.7698 39.615 14.7698 40.215C14.7698 40.855 15.4698 41.175 16.8698 41.175Z" fill="white"/>
</g>
</svg>
