<svg width="310" height="96" viewBox="0 0 310 96" fill="none" xmlns="http://www.w3.org/2000/svg">
<g clip-path="url(#clip0_1305_15923)">
<rect width="310" height="96" fill="#5694DB"/>
<g style="mix-blend-mode:overlay" opacity="0.7">
<path d="M-71.7931 -93.278C-73.3552 -94.8401 -75.8879 -94.8401 -77.45 -93.278L-181.4 10.6721C-182.962 12.2342 -182.962 14.7669 -181.4 16.3289L-77.4501 120.279C-75.888 121.841 -73.3553 121.841 -71.7932 120.279L32.1569 16.3289C33.719 14.7668 33.719 12.2341 32.1569 10.672L-71.7931 -93.278Z" fill="white" fill-opacity="0.1"/>
<path fill-rule="evenodd" clip-rule="evenodd" d="M-78.1571 -93.985L-182.107 9.96514C-184.06 11.9178 -184.06 15.0836 -182.107 17.0362L-78.1572 120.986C-76.2045 122.939 -73.0387 122.939 -71.0861 120.986L32.864 17.0361C34.8166 15.0835 34.8166 11.9177 32.864 9.96506L-71.086 -93.985C-73.0386 -95.9376 -76.2045 -95.9376 -78.1571 -93.985ZM-77.45 -93.2779C-75.8879 -94.84 -73.3552 -94.84 -71.7931 -93.2779L32.1569 10.6722C33.719 12.2343 33.719 14.7669 32.1569 16.329L-71.7932 120.279C-73.3553 121.841 -75.888 121.841 -77.4501 120.279L-181.4 16.3291C-182.962 14.767 -182.962 12.2343 -181.4 10.6722L-77.45 -93.2779Z" fill="white"/>
<path d="M-5.36285 -160.025C-6.92495 -161.587 -9.45761 -161.587 -11.0197 -160.025L-114.97 -56.075C-116.532 -54.5129 -116.532 -51.9802 -114.97 -50.4181L-11.0198 53.5319C-9.45769 55.094 -6.92503 55.094 -5.36293 53.5319L98.5872 -50.4182C100.149 -51.9803 100.149 -54.513 98.5872 -56.0751L-5.36285 -160.025Z" fill="white" fill-opacity="0.1"/>
<path fill-rule="evenodd" clip-rule="evenodd" d="M-11.7268 -160.732L-115.677 -56.7819C-117.63 -54.8293 -117.63 -51.6635 -115.677 -49.7109L-11.7269 54.2392C-9.77428 56.1918 -6.60845 56.1918 -4.65583 54.2392L99.2943 -49.7109C101.247 -51.6636 101.247 -54.8294 99.2943 -56.782L-4.65575 -160.732C-6.60837 -162.685 -9.7742 -162.685 -11.7268 -160.732ZM-11.0197 -160.025C-9.45761 -161.587 -6.92495 -161.587 -5.36285 -160.025L98.5872 -56.0749C100.149 -54.5128 100.149 -51.9801 98.5872 -50.418L-5.36293 53.5321C-6.92503 55.0942 -9.45769 55.0942 -11.0198 53.5321L-114.97 -50.418C-116.532 -51.9801 -116.532 -54.5127 -114.97 -56.0748L-11.0197 -160.025Z" fill="white"/>
<path d="M-5.36285 -27.1003C-6.92495 -28.6624 -9.45761 -28.6624 -11.0197 -27.1003L-114.97 76.8498C-116.532 78.4119 -116.532 80.9446 -114.97 82.5067L-11.0198 186.457C-9.45769 188.019 -6.92503 188.019 -5.36293 186.457L98.5872 82.5066C100.149 80.9445 100.149 78.4118 98.5872 76.8498L-5.36285 -27.1003Z" fill="white" fill-opacity="0.1"/>
<path fill-rule="evenodd" clip-rule="evenodd" d="M-11.7268 -27.8072L-115.677 76.1429C-117.63 78.0955 -117.63 81.2613 -115.677 83.2139L-11.7269 187.164C-9.77428 189.117 -6.60845 189.117 -4.65583 187.164L99.2943 83.2139C101.247 81.2612 101.247 78.0954 99.2943 76.1428L-4.65575 -27.8072C-6.60837 -29.7599 -9.7742 -29.7599 -11.7268 -27.8072ZM-11.0197 -27.1001C-9.45761 -28.6622 -6.92495 -28.6622 -5.36285 -27.1001L98.5872 76.8499C100.149 78.412 100.149 80.9447 98.5872 82.5068L-5.36293 186.457C-6.92503 188.019 -9.45769 188.019 -11.0198 186.457L-114.97 82.5068C-116.532 80.9447 -116.532 78.4121 -114.97 76.85L-11.0197 -27.1001Z" fill="white"/>
</g>
<g style="mix-blend-mode:overlay" opacity="0.3">
<path d="M209.41 -26.278C210.972 -27.8401 213.505 -27.8401 215.067 -26.278L319.017 77.6721C320.579 79.2342 320.579 81.7669 319.017 83.3289L215.067 187.279C213.505 188.841 210.973 188.841 209.41 187.279L105.46 83.3289C103.898 81.7668 103.898 79.2341 105.46 77.672L209.41 -26.278Z" fill="white" fill-opacity="0.1"/>
<path fill-rule="evenodd" clip-rule="evenodd" d="M215.774 -26.985L319.724 76.9651C321.677 78.9178 321.677 82.0836 319.724 84.0362L215.774 187.986C213.822 189.939 210.656 189.939 208.703 187.986L104.753 84.0361C102.801 82.0835 102.801 78.9177 104.753 76.9651L208.703 -26.985C210.656 -28.9376 213.822 -28.9376 215.774 -26.985ZM215.067 -26.2779C213.505 -27.84 210.972 -27.84 209.41 -26.2779L105.46 77.6722C103.898 79.2343 103.898 81.7669 105.46 83.329L209.41 187.279C210.973 188.841 213.505 188.841 215.067 187.279L319.017 83.3291C320.579 81.767 320.579 79.2343 319.017 77.6722L215.067 -26.2779Z" fill="white"/>
<path d="M142.98 -93.0251C144.542 -94.5872 147.075 -94.5872 148.637 -93.0251L252.587 10.925C254.149 12.4871 254.149 15.0198 252.587 16.5819L148.637 120.532C147.075 122.094 144.542 122.094 142.98 120.532L39.0301 16.5818C37.468 15.0197 37.468 12.487 39.0301 10.9249L142.98 -93.0251Z" fill="white" fill-opacity="0.1"/>
<path fill-rule="evenodd" clip-rule="evenodd" d="M149.344 -93.732L253.294 10.2181C255.247 12.1707 255.247 15.3365 253.294 17.2891L149.344 121.239C147.392 123.192 144.226 123.192 142.273 121.239L38.323 17.2891C36.3704 15.3364 36.3704 12.1706 38.323 10.218L142.273 -93.732C144.226 -95.6847 147.392 -95.6847 149.344 -93.732ZM148.637 -93.0249C147.075 -94.587 144.542 -94.587 142.98 -93.0249L39.0301 10.9251C37.468 12.4872 37.468 15.0199 39.0301 16.582L142.98 120.532C144.542 122.094 147.075 122.094 148.637 120.532L252.587 16.582C254.149 15.0199 254.149 12.4873 252.587 10.9252L148.637 -93.0249Z" fill="white"/>
<path d="M142.98 39.8997C144.542 38.3376 147.075 38.3376 148.637 39.8997L252.587 143.85C254.149 145.412 254.149 147.945 252.587 149.507L148.637 253.457C147.075 255.019 144.542 255.019 142.98 253.457L39.0301 149.507C37.468 147.945 37.468 145.412 39.0301 143.85L142.98 39.8997Z" fill="white" fill-opacity="0.1"/>
<path fill-rule="evenodd" clip-rule="evenodd" d="M149.344 39.1928L253.294 143.143C255.247 145.095 255.247 148.261 253.294 150.214L149.344 254.164C147.392 256.117 144.226 256.117 142.273 254.164L38.323 150.214C36.3704 148.261 36.3704 145.095 38.323 143.143L142.273 39.1928C144.226 37.2401 147.392 37.2401 149.344 39.1928ZM148.637 39.8999C147.075 38.3378 144.542 38.3378 142.98 39.8999L39.0301 143.85C37.468 145.412 37.468 147.945 39.0301 149.507L142.98 253.457C144.542 255.019 147.075 255.019 148.637 253.457L252.587 149.507C254.149 147.945 254.149 145.412 252.587 143.85L148.637 39.8999Z" fill="white"/>
</g>
</g>
<defs>
<clipPath id="clip0_1305_15923">
<rect width="310" height="96" fill="white"/>
</clipPath>
</defs>
</svg>
