<svg width="64" height="57" viewBox="0 0 64 57" fill="none" xmlns="http://www.w3.org/2000/svg">
<g clip-path="url(#clip0_3885_55386)">
<g filter="url(#filter0_d_3885_55386)">
<path d="M54.5 47C54.5 47.8284 53.8284 48.5 53 48.5H27C26.1716 48.5 25.5 47.8284 25.5 47V11C25.5 10.1716 26.1716 9.5 27 9.5H44.1716C44.5694 9.5 44.9509 9.65804 45.2322 9.93934L54.0607 18.7678C54.342 19.0491 54.5 19.4306 54.5 19.8284V47Z" stroke="white" shape-rendering="crispEdges"/>
</g>
<g filter="url(#filter1_d_3885_55386)">
<path fill-rule="evenodd" clip-rule="evenodd" d="M54.7603 20L44.8 19.9999C44.3582 19.9999 44 19.6417 44 19.1999V9.20557L54.7603 20Z" fill="white"/>
<path d="M44.5 10.4154L53.5559 19.5L44.8 19.4999C44.6343 19.4999 44.5 19.3656 44.5 19.1999V10.4154Z" stroke="white" stroke-linecap="round" stroke-linejoin="round"/>
</g>
<g filter="url(#filter2_d_3885_55386)">
<path fill-rule="evenodd" clip-rule="evenodd" d="M15 26C13.8954 26 13 26.8954 13 28V41C13 42.1046 13.8954 43 15 43H47C48.1046 43 49 42.1046 49 41V28C49 26.8954 48.1046 26 47 26H15ZM20.8071 29C22.2015 29 23.2449 29.3035 23.9371 29.9104C24.6343 30.5173 24.9829 31.3801 24.9829 32.4986C24.9829 33.0002 24.9102 33.4818 24.7647 33.9432C24.6243 34.4047 24.391 34.816 24.065 35.1772C23.744 35.5383 23.3151 35.8242 22.7784 36.0349C22.2467 36.2456 21.5896 36.3509 20.8071 36.3509H19.972V40H17V29H20.8071ZM20.7394 31.4001H19.972V33.9282H20.5588C20.8146 33.9282 21.0529 33.8855 21.2736 33.8003C21.4943 33.71 21.6699 33.567 21.8003 33.3714C21.9357 33.1708 22.0034 32.9049 22.0034 32.5739C22.0034 32.2278 21.9006 31.9469 21.6949 31.7312C21.4893 31.5105 21.1708 31.4001 20.7394 31.4001ZM35.2012 37.4569C35.6605 36.6092 35.8901 35.5458 35.8901 34.2668C35.8901 33.1332 35.6822 32.1751 35.2664 31.3926C34.8555 30.6101 34.2536 30.0157 33.4606 29.6094C32.6677 29.2031 31.7008 29 30.5598 29H26.8901V40H30.3204C31.4469 40 32.426 39.7893 33.2576 39.368C34.094 38.9416 34.7419 38.3046 35.2012 37.4569ZM32.6556 32.7168C32.8297 33.1532 32.9167 33.705 32.9167 34.3721C32.9167 35.4505 32.7137 36.2531 32.3075 36.7798C31.9014 37.3014 31.2632 37.5622 30.393 37.5622H29.7548V31.4001H30.5888C31.1109 31.4001 31.5436 31.5105 31.8869 31.7312C32.2302 31.9469 32.4864 32.2754 32.6556 32.7168ZM38 40H40.9268V35.8694H44.2223V33.4843H40.9268V31.3851H44.5007V29H38V40Z" fill="white"/>
</g>
</g>
<defs>
<filter id="filter0_d_3885_55386" x="15" y="-1" width="50" height="60" filterUnits="userSpaceOnUse" color-interpolation-filters="sRGB">
<feFlood flood-opacity="0" result="BackgroundImageFix"/>
<feColorMatrix in="SourceAlpha" type="matrix" values="0 0 0 0 0 0 0 0 0 0 0 0 0 0 0 0 0 0 127 0" result="hardAlpha"/>
<feOffset/>
<feGaussianBlur stdDeviation="5"/>
<feComposite in2="hardAlpha" operator="out"/>
<feColorMatrix type="matrix" values="0 0 0 0 1 0 0 0 0 1 0 0 0 0 1 0 0 0 1 0"/>
<feBlend mode="normal" in2="BackgroundImageFix" result="effect1_dropShadow_3885_55386"/>
<feBlend mode="normal" in="SourceGraphic" in2="effect1_dropShadow_3885_55386" result="shape"/>
</filter>
<filter id="filter1_d_3885_55386" x="34" y="-0.794434" width="30.7603" height="30.7944" filterUnits="userSpaceOnUse" color-interpolation-filters="sRGB">
<feFlood flood-opacity="0" result="BackgroundImageFix"/>
<feColorMatrix in="SourceAlpha" type="matrix" values="0 0 0 0 0 0 0 0 0 0 0 0 0 0 0 0 0 0 127 0" result="hardAlpha"/>
<feOffset/>
<feGaussianBlur stdDeviation="5"/>
<feComposite in2="hardAlpha" operator="out"/>
<feColorMatrix type="matrix" values="0 0 0 0 1 0 0 0 0 1 0 0 0 0 1 0 0 0 0.5 0"/>
<feBlend mode="normal" in2="BackgroundImageFix" result="effect1_dropShadow_3885_55386"/>
<feBlend mode="normal" in="SourceGraphic" in2="effect1_dropShadow_3885_55386" result="shape"/>
</filter>
<filter id="filter2_d_3885_55386" x="3" y="16" width="56" height="37" filterUnits="userSpaceOnUse" color-interpolation-filters="sRGB">
<feFlood flood-opacity="0" result="BackgroundImageFix"/>
<feColorMatrix in="SourceAlpha" type="matrix" values="0 0 0 0 0 0 0 0 0 0 0 0 0 0 0 0 0 0 127 0" result="hardAlpha"/>
<feOffset/>
<feGaussianBlur stdDeviation="5"/>
<feComposite in2="hardAlpha" operator="out"/>
<feColorMatrix type="matrix" values="0 0 0 0 1 0 0 0 0 1 0 0 0 0 1 0 0 0 0.5 0"/>
<feBlend mode="normal" in2="BackgroundImageFix" result="effect1_dropShadow_3885_55386"/>
<feBlend mode="normal" in="SourceGraphic" in2="effect1_dropShadow_3885_55386" result="shape"/>
</filter>
<clipPath id="clip0_3885_55386">
<rect width="64" height="64" fill="white" transform="translate(0 -3)"/>
</clipPath>
</defs>
</svg>
