<svg width="338" height="96" viewBox="0 0 338 96" fill="none" xmlns="http://www.w3.org/2000/svg">
<g clip-path="url(#clip0_1305_16684)">
<rect width="338" height="96" fill="#5694DB"/>
<g style="mix-blend-mode:overlay">
<path d="M69.6559 26.2923C71.218 24.7302 73.7507 24.7302 75.3128 26.2923L94.5589 45.5384C96.121 47.1005 96.121 49.6332 94.5589 51.1953L75.3128 70.4414C73.7507 72.0035 71.2181 72.0035 69.656 70.4414L50.4098 51.1953C48.8477 49.6332 48.8477 47.1005 50.4098 45.5384L69.6559 26.2923Z" fill="white" fill-opacity="0.1"/>
<path fill-rule="evenodd" clip-rule="evenodd" d="M76.0199 25.5853L95.2661 44.8315C97.2187 46.7841 97.2187 49.9499 95.2661 51.9025L76.0199 71.1487C74.0673 73.1013 70.9015 73.1013 68.9489 71.1487L49.7027 51.9025C47.7501 49.9499 47.7501 46.7841 49.7027 44.8315L68.9488 25.5853C70.9015 23.6327 74.0673 23.6327 76.0199 25.5853ZM75.3128 26.2924C73.7507 24.7303 71.218 24.7303 69.6559 26.2924L50.4098 45.5386C48.8477 47.1007 48.8477 49.6333 50.4098 51.1954L69.656 70.4416C71.2181 72.0037 73.7507 72.0037 75.3128 70.4416L94.5589 51.1954C96.121 49.6333 96.121 47.1007 94.5589 45.5386L75.3128 26.2924Z" fill="white"/>
<path d="M54.5627 11.1273C56.1248 9.56516 58.6574 9.56516 60.2195 11.1273L79.4657 30.3734C81.0278 31.9355 81.0278 34.4682 79.4657 36.0303L60.2196 55.2764C58.6575 56.8385 56.1248 56.8385 54.5627 55.2764L35.3166 36.0302C33.7545 34.4681 33.7545 31.9355 35.3166 30.3734L54.5627 11.1273Z" fill="white" fill-opacity="0.1"/>
<path fill-rule="evenodd" clip-rule="evenodd" d="M60.9266 10.4203L80.1728 29.6664C82.1254 31.6191 82.1254 34.7849 80.1728 36.7375L60.9267 55.9836C58.974 57.9363 55.8082 57.9363 53.8556 55.9836L34.6095 36.7375C32.6568 34.7849 32.6568 31.619 34.6095 29.6664L53.8556 10.4203C55.8082 8.46768 58.974 8.46768 60.9266 10.4203ZM60.2195 11.1274C58.6574 9.56531 56.1248 9.56531 54.5627 11.1274L35.3166 30.3735C33.7545 31.9356 33.7545 34.4683 35.3166 36.0304L54.5627 55.2765C56.1248 56.8386 58.6575 56.8386 60.2196 55.2765L79.4657 36.0304C81.0278 34.4683 81.0278 31.9356 79.4657 30.3735L60.2195 11.1274Z" fill="white"/>
<path d="M54.5628 41.3284C56.1249 39.7663 58.6576 39.7663 60.2197 41.3284L79.4658 60.5746C81.0279 62.1367 81.0279 64.6693 79.4658 66.2314L60.2197 85.4775C58.6576 87.0396 56.1249 87.0396 54.5628 85.4775L35.3167 66.2314C33.7546 64.6693 33.7546 62.1366 35.3167 60.5746L54.5628 41.3284Z" fill="white" fill-opacity="0.1"/>
<path fill-rule="evenodd" clip-rule="evenodd" d="M60.9268 40.6215L80.1729 59.8676C82.1255 61.8202 82.1255 64.9861 80.1729 66.9387L60.9268 86.1848C58.9742 88.1374 55.8083 88.1374 53.8557 86.1848L34.6096 66.9387C32.657 64.986 32.657 61.8202 34.6096 59.8676L53.8557 40.6215C55.8083 38.6689 58.9741 38.6688 60.9268 40.6215ZM60.2197 41.3286C58.6576 39.7665 56.1249 39.7665 54.5628 41.3286L35.3167 60.5747C33.7546 62.1368 33.7546 64.6695 35.3167 66.2316L54.5628 85.4777C56.1249 87.0398 58.6576 87.0398 60.2197 85.4777L79.4658 66.2316C81.0279 64.6695 81.0279 62.1368 79.4658 60.5747L60.2197 41.3286Z" fill="white"/>
</g>
<g style="mix-blend-mode:overlay" opacity="0.3">
<path d="M182.628 -86.9079C184.19 -88.47 186.723 -88.47 188.285 -86.9079L320.643 45.4503C322.205 47.0124 322.205 49.545 320.643 51.1071L188.285 183.465C186.723 185.027 184.19 185.027 182.628 183.465L50.2699 51.107C48.7078 49.5449 48.7078 47.0123 50.2699 45.4502L182.628 -86.9079Z" fill="white" fill-opacity="0.1"/>
<path fill-rule="evenodd" clip-rule="evenodd" d="M188.992 -87.6149L321.35 44.7433C323.303 46.6959 323.303 49.8618 321.35 51.8144L188.992 184.172C187.039 186.125 183.874 186.125 181.921 184.172L49.5628 51.8143C47.6102 49.8617 47.6102 46.6958 49.5628 44.7432L181.921 -87.6149C183.874 -89.5675 187.039 -89.5675 188.992 -87.6149ZM188.285 -86.9078C186.723 -88.4698 184.19 -88.4698 182.628 -86.9078L50.2699 45.4503C48.7078 47.0124 48.7078 49.5451 50.2699 51.1072L182.628 183.465C184.19 185.027 186.723 185.027 188.285 183.465L320.643 51.1073C322.205 49.5452 322.205 47.0125 320.643 45.4504L188.285 -86.9078Z" fill="white"/>
<path d="M98.9802 -170.955C100.542 -172.517 103.075 -172.517 104.637 -170.955L236.995 -38.5966C238.557 -37.0345 238.557 -34.5018 236.995 -32.9398L104.637 99.4183C103.075 100.98 100.542 100.98 98.9803 99.4183L-33.3779 -32.9398C-34.94 -34.5019 -34.94 -37.0346 -33.3779 -38.5967L98.9802 -170.955Z" fill="white" fill-opacity="0.1"/>
<path fill-rule="evenodd" clip-rule="evenodd" d="M105.344 -171.662L237.702 -39.3036C239.655 -37.3509 239.655 -34.1851 237.702 -32.2325L105.344 100.126C103.392 102.078 100.226 102.078 98.2732 100.126L-34.085 -32.2326C-36.0376 -34.1852 -36.0376 -37.351 -34.085 -39.3037L98.2731 -171.662C100.226 -173.614 103.392 -173.614 105.344 -171.662ZM104.637 -170.955C103.075 -172.517 100.542 -172.517 98.9802 -170.955L-33.3779 -38.5966C-34.94 -37.0345 -34.94 -34.5018 -33.3779 -32.9397L98.9803 99.4185C100.542 100.981 103.075 100.981 104.637 99.4185L236.995 -32.9396C238.557 -34.5017 238.557 -37.0344 236.995 -38.5965L104.637 -170.955Z" fill="white"/>
<path d="M98.9802 -3.5788C100.542 -5.1409 103.075 -5.1409 104.637 -3.5788L236.995 128.779C238.557 130.341 238.557 132.874 236.995 134.436L104.637 266.794C103.075 268.356 100.542 268.356 98.9803 266.794L-33.3779 134.436C-34.94 132.874 -34.94 130.341 -33.3779 128.779L98.9802 -3.5788Z" fill="white" fill-opacity="0.1"/>
<path fill-rule="evenodd" clip-rule="evenodd" d="M105.344 -4.28576L237.702 128.072C239.655 130.025 239.655 133.191 237.702 135.143L105.344 267.502C103.392 269.454 100.226 269.454 98.2732 267.502L-34.085 135.143C-36.0376 133.191 -36.0376 130.025 -34.085 128.072L98.2731 -4.28576C100.226 -6.23838 103.392 -6.23838 105.344 -4.28576ZM104.637 -3.57865C103.075 -5.14075 100.542 -5.14075 98.9802 -3.57865L-33.3779 128.779C-34.94 130.342 -34.94 132.874 -33.3779 134.436L98.9803 266.794C100.542 268.357 103.075 268.357 104.637 266.794L236.995 134.436C238.557 132.874 238.557 130.342 236.995 128.78L104.637 -3.57865Z" fill="white"/>
</g>
</g>
<defs>
<clipPath id="clip0_1305_16684">
<rect width="338" height="96" fill="white"/>
</clipPath>
</defs>
</svg>
