<svg width="278" height="31" viewBox="0 0 278 31" fill="none" xmlns="http://www.w3.org/2000/svg">
<g clip-path="url(#clip0_17063_133887)">
<circle r="2.5" transform="matrix(1 0 0 -1 275 21.3682)" fill="#D9F4FF"/>
<circle r="3" transform="matrix(-1 0 0 1 3 23.3682)" fill="#D9F4FF"/>
<path d="M62.4594 3.14786C65.2223 0.172417 69.2518 6.04306 65.5594 7.56946C61.867 9.09586 60.1534 4.99688 59.3595 2.86716" stroke="white" stroke-linecap="round" stroke-linejoin="round"/>
<rect x="126.5" y="9.86816" width="31" height="17" rx="0.5" stroke="white"/>
<path d="M135 13.8682L130 13.8682L132.5 13.8682L132.5 22.8682M132.5 22.8682L130 22.9182M132.5 22.8682L135 22.8682" stroke="white"/>
<path d="M216.981 8.36816C214.945 5.7928 212.981 4.86816 210.481 3.36816C213.481 2.86816 214.981 1.86816 217.981 0.868164C217.4 3.73853 216.981 3.86816 216.981 5.36816" stroke="white" stroke-linecap="round" stroke-linejoin="round"/>
</g>
<defs>
<clipPath id="clip0_17063_133887">
<rect width="277.5" height="30.3682" fill="white"/>
</clipPath>
</defs>
</svg>
