<svg width="60" height="56" viewBox="0 0 60 56" fill="none" xmlns="http://www.w3.org/2000/svg">
<rect width="59" height="56" transform="translate(0.5)" fill="#5694DB"/>
<g style="mix-blend-mode:overlay" opacity="0.3">
<path d="M1.96582 48.6248V32.0648C1.96582 30.5048 2.34582 29.1048 3.10582 27.8648C3.86582 26.6248 4.86582 25.6448 6.10582 24.9248C7.34582 24.1648 8.72582 23.7848 10.2458 23.7848H36.1658C36.3658 23.7848 36.5258 23.7248 36.6458 23.6048C36.8058 23.4448 36.8858 23.2648 36.8858 23.0648V14.0048C36.8858 13.8048 36.8058 13.6448 36.6458 13.5248C36.5258 13.3648 36.3658 13.2848 36.1658 13.2848H10.5458C10.3458 13.2848 10.1658 13.3648 10.0058 13.5248C9.88582 13.6448 9.82582 13.8048 9.82582 14.0048V16.9448H1.96582V13.7048C1.96582 12.1448 2.34582 10.7448 3.10582 9.50481C3.86582 8.2648 4.86582 7.28481 6.10582 6.56481C7.34582 5.80481 8.72582 5.4248 10.2458 5.4248H36.4658C37.9858 5.4248 39.3658 5.80481 40.6058 6.56481C41.8858 7.28481 42.8858 8.2648 43.6058 9.50481C44.3658 10.7448 44.7458 12.1448 44.7458 13.7048V23.4248C44.7458 24.9048 44.3658 26.2848 43.6058 27.5648C42.8858 28.8048 41.8858 29.8048 40.6058 30.5648C39.3658 31.3248 37.9858 31.7048 36.4658 31.7048H10.5458C10.3458 31.7048 10.1658 31.7848 10.0058 31.9448C9.88582 32.0648 9.82582 32.2248 9.82582 32.4248V40.0448C9.82582 40.2448 9.88582 40.4248 10.0058 40.5848C10.1658 40.7048 10.3458 40.7648 10.5458 40.7648H44.7458V48.6248H1.96582Z" fill="white"/>
<path d="M1.96582 48.6248V32.0648C1.96582 30.5048 2.34582 29.1048 3.10582 27.8648C3.86582 26.6248 4.86582 25.6448 6.10582 24.9248C7.34582 24.1648 8.72582 23.7848 10.2458 23.7848H36.1658C36.3658 23.7848 36.5258 23.7248 36.6458 23.6048C36.8058 23.4448 36.8858 23.2648 36.8858 23.0648V14.0048C36.8858 13.8048 36.8058 13.6448 36.6458 13.5248C36.5258 13.3648 36.3658 13.2848 36.1658 13.2848H10.5458C10.3458 13.2848 10.1658 13.3648 10.0058 13.5248C9.88582 13.6448 9.82582 13.8048 9.82582 14.0048V16.9448H1.96582V13.7048C1.96582 12.1448 2.34582 10.7448 3.10582 9.50481C3.86582 8.2648 4.86582 7.28481 6.10582 6.56481C7.34582 5.80481 8.72582 5.4248 10.2458 5.4248H36.4658C37.9858 5.4248 39.3658 5.80481 40.6058 6.56481C41.8858 7.28481 42.8858 8.2648 43.6058 9.50481C44.3658 10.7448 44.7458 12.1448 44.7458 13.7048V23.4248C44.7458 24.9048 44.3658 26.2848 43.6058 27.5648C42.8858 28.8048 41.8858 29.8048 40.6058 30.5648C39.3658 31.3248 37.9858 31.7048 36.4658 31.7048H10.5458C10.3458 31.7048 10.1658 31.7848 10.0058 31.9448C9.88582 32.0648 9.82582 32.2248 9.82582 32.4248V40.0448C9.82582 40.2448 9.88582 40.4248 10.0058 40.5848C10.1658 40.7048 10.3458 40.7648 10.5458 40.7648H44.7458V48.6248H1.96582Z" fill="white"/>
</g>
<g style="mix-blend-mode:overlay">
<path d="M15.7188 42C15.7188 41.3516 15.7812 40.7109 15.9062 40.0781C16.0391 39.4453 16.2148 38.8516 16.4336 38.2969C16.6523 37.7422 16.9297 37.1836 17.2656 36.6211C17.6094 36.0508 17.957 35.5312 18.3086 35.0625C18.668 34.5859 19.0859 34.0977 19.5625 33.5977C20.0391 33.0898 20.4883 32.6367 20.9102 32.2383C21.3398 31.8398 21.8242 31.4141 22.3633 30.9609C22.9102 30.5 23.3945 30.1016 23.8164 29.7656C24.2383 29.4297 24.7188 29.0547 25.2578 28.6406C25.3906 28.5391 25.4922 28.4609 25.5625 28.4062C26.8281 27.4219 27.7695 26.3164 28.3867 25.0898C29.0039 23.8633 29.3125 22.625 29.3125 21.375C29.3125 19.7266 28.8711 18.457 27.9883 17.5664C27.1133 16.668 25.8359 16.2188 24.1562 16.2188C23.4219 16.2188 22.668 16.3945 21.8945 16.7461C21.1289 17.0898 20.4883 17.5508 19.9727 18.1289C20.8945 18.2461 21.6641 18.6602 22.2812 19.3711C22.9062 20.0742 23.2188 20.8984 23.2188 21.8438C23.2188 22.8828 22.8516 23.7695 22.1172 24.5039C21.3906 25.2305 20.5078 25.5938 19.4688 25.5938C18.7422 25.5938 18.0781 25.4062 17.4766 25.0312C16.875 24.6484 16.418 24.1406 16.1055 23.5078C15.6367 22.625 15.4023 21.6797 15.4023 20.6719C15.4023 19.8516 15.5586 19.043 15.8711 18.2461C16.1836 17.4492 16.6484 16.707 17.2656 16.0195C17.8828 15.3242 18.6133 14.7109 19.457 14.1797C20.3008 13.6484 21.2891 13.2305 22.4219 12.9258C23.5547 12.6211 24.7578 12.4688 26.0312 12.4688C27.6172 12.4688 29.0508 12.6289 30.332 12.9492C31.6211 13.2617 32.6914 13.6875 33.543 14.2266C34.3945 14.7578 35.1055 15.3906 35.6758 16.125C36.2461 16.8516 36.6562 17.6133 36.9062 18.4102C37.1562 19.1992 37.2812 20.0312 37.2812 20.9062C37.2812 21.7578 37.1875 22.5625 37 23.3203C36.8203 24.0703 36.5781 24.7305 36.2734 25.3008C35.9766 25.8711 35.6016 26.4219 35.1484 26.9531C34.6953 27.4844 34.2344 27.9414 33.7656 28.3242C33.3047 28.707 32.7812 29.1016 32.1953 29.5078C31.6094 29.9141 31.0664 30.2695 30.5664 30.5742C30.0664 30.8711 29.5195 31.2109 28.9258 31.5938C28.3398 31.9688 27.8438 32.3125 27.4375 32.625C27.0234 32.9375 26.5312 33.2891 25.9609 33.6797C25.3984 34.0703 24.9531 34.3828 24.625 34.6172C24.3047 34.8438 23.9414 35.1484 23.5352 35.5312C23.1367 35.9141 22.7734 36.332 22.4453 36.7852C23.3359 36.5117 24.2188 36.375 25.0938 36.375H31.1875C31.5156 36.375 31.8086 36.25 32.0664 36C32.3242 35.7422 32.5195 35.4141 32.6523 35.0156C32.793 34.6172 32.8945 34.2148 32.957 33.8086C33.0273 33.4023 33.0625 33.0078 33.0625 32.625V30.75H37.2812V42H15.7188Z" fill="white"/>
</g>
<g style="mix-blend-mode:overlay" opacity="0.5">
<path d="M42.4473 47.2596C37.6873 47.2596 32.3073 46.4396 26.3073 44.7996V44.8596C23.8673 46.1396 21.7273 46.7796 19.8873 46.7796C18.8073 46.7796 17.8073 46.5196 16.8873 45.9996C15.7273 45.3996 15.1473 44.6196 15.1473 43.6596C15.1473 42.8196 15.5673 42.1396 16.4073 41.6196C17.0473 41.2196 17.8473 41.0196 18.8073 41.0196C19.5673 41.0196 21.9473 41.6196 25.9473 42.8196L26.3073 42.6396L26.6073 42.4596C40.3673 33.9796 49.2873 26.2996 53.3673 19.4196C55.2073 16.3396 56.1273 13.8196 56.1273 11.8596C56.1273 8.93957 54.1873 7.47957 50.3073 7.47957C47.7473 7.47957 45.0873 8.15957 42.3273 9.51957C39.7673 10.7596 37.5073 12.3596 35.5473 14.3196C35.1873 14.6796 34.7473 15.1796 34.2273 15.8196C33.7073 16.4196 33.1073 17.1596 32.4273 18.0396C32.2673 18.3196 32.0073 18.4596 31.6473 18.4596C30.9673 18.4596 30.6273 18.1196 30.6273 17.4396C30.6273 17.2396 30.7073 17.0596 30.8673 16.8996C33.0273 13.7396 35.8873 11.0996 39.4473 8.97957C43.2473 6.69957 46.9273 5.55957 50.4873 5.55957C52.6473 5.55957 54.3873 6.03957 55.7073 6.99957C57.1873 8.07957 57.9273 9.65957 57.9273 11.7396C57.9273 14.2996 56.9473 17.2196 54.9873 20.4996C50.7473 27.6196 41.9873 35.2996 28.7073 43.5396C33.8673 44.7396 38.3673 45.3396 42.2073 45.3396C49.1273 45.3396 52.5273 44.0396 52.4073 41.4396L52.3473 41.0796C52.3473 40.3196 52.6873 39.9396 53.3673 39.9396C53.9673 39.9396 54.2673 40.3996 54.2673 41.3196C54.2673 45.2796 50.3273 47.2596 42.4473 47.2596ZM19.7673 44.7996C20.8073 44.7996 21.9673 44.5396 23.2473 44.0196C21.2073 43.2996 19.8873 42.9396 19.2873 42.9396C18.2073 42.9396 17.6673 43.2396 17.6673 43.8396C17.6673 44.4796 18.3673 44.7996 19.7673 44.7996Z" fill="white"/>
<path d="M42.4473 47.2596C37.6873 47.2596 32.3073 46.4396 26.3073 44.7996V44.8596C23.8673 46.1396 21.7273 46.7796 19.8873 46.7796C18.8073 46.7796 17.8073 46.5196 16.8873 45.9996C15.7273 45.3996 15.1473 44.6196 15.1473 43.6596C15.1473 42.8196 15.5673 42.1396 16.4073 41.6196C17.0473 41.2196 17.8473 41.0196 18.8073 41.0196C19.5673 41.0196 21.9473 41.6196 25.9473 42.8196L26.3073 42.6396L26.6073 42.4596C40.3673 33.9796 49.2873 26.2996 53.3673 19.4196C55.2073 16.3396 56.1273 13.8196 56.1273 11.8596C56.1273 8.93957 54.1873 7.47957 50.3073 7.47957C47.7473 7.47957 45.0873 8.15957 42.3273 9.51957C39.7673 10.7596 37.5073 12.3596 35.5473 14.3196C35.1873 14.6796 34.7473 15.1796 34.2273 15.8196C33.7073 16.4196 33.1073 17.1596 32.4273 18.0396C32.2673 18.3196 32.0073 18.4596 31.6473 18.4596C30.9673 18.4596 30.6273 18.1196 30.6273 17.4396C30.6273 17.2396 30.7073 17.0596 30.8673 16.8996C33.0273 13.7396 35.8873 11.0996 39.4473 8.97957C43.2473 6.69957 46.9273 5.55957 50.4873 5.55957C52.6473 5.55957 54.3873 6.03957 55.7073 6.99957C57.1873 8.07957 57.9273 9.65957 57.9273 11.7396C57.9273 14.2996 56.9473 17.2196 54.9873 20.4996C50.7473 27.6196 41.9873 35.2996 28.7073 43.5396C33.8673 44.7396 38.3673 45.3396 42.2073 45.3396C49.1273 45.3396 52.5273 44.0396 52.4073 41.4396L52.3473 41.0796C52.3473 40.3196 52.6873 39.9396 53.3673 39.9396C53.9673 39.9396 54.2673 40.3996 54.2673 41.3196C54.2673 45.2796 50.3273 47.2596 42.4473 47.2596ZM19.7673 44.7996C20.8073 44.7996 21.9673 44.5396 23.2473 44.0196C21.2073 43.2996 19.8873 42.9396 19.2873 42.9396C18.2073 42.9396 17.6673 43.2396 17.6673 43.8396C17.6673 44.4796 18.3673 44.7996 19.7673 44.7996Z" fill="white"/>
</g>
</svg>
