<svg width="320" height="48" viewBox="0 0 320 48" fill="none" xmlns="http://www.w3.org/2000/svg">
<g clip-path="url(#clip0_20_545)">
<rect width="320" height="48" fill="#5694DB"/>
<g style="mix-blend-mode:overlay" opacity="0.7">
<mask id="path-1-outside-1_20_545" maskUnits="userSpaceOnUse" x="169.87" y="-21.5207" width="223.446" height="223.446" fill="black">
<rect fill="white" x="169.87" y="-21.5207" width="223.446" height="223.446"/>
<path d="M284.422 -17.278C282.859 -18.8401 280.327 -18.8401 278.765 -17.278L174.815 86.6721C173.252 88.2342 173.252 90.7669 174.815 92.3289L278.765 196.279C280.327 197.841 282.859 197.841 284.421 196.279L388.372 92.3289C389.934 90.7668 389.934 88.2341 388.372 86.672L284.422 -17.278Z"/>
</mask>
<path d="M284.422 -17.278C282.859 -18.8401 280.327 -18.8401 278.765 -17.278L174.815 86.6721C173.252 88.2342 173.252 90.7669 174.815 92.3289L278.765 196.279C280.327 197.841 282.859 197.841 284.421 196.279L388.372 92.3289C389.934 90.7668 389.934 88.2341 388.372 86.672L284.422 -17.278Z" fill="white" fill-opacity="0.1"/>
<path d="M278.765 196.279L278.057 196.986L278.765 196.279ZM284.421 196.279L283.714 195.572L284.421 196.279ZM174.815 86.6721L175.522 87.3792L174.815 86.6721ZM174.815 92.3289L175.522 91.6218L174.815 92.3289ZM279.472 -16.5709L175.522 87.3792L174.107 85.965L278.058 -17.9851L279.472 -16.5709ZM175.522 91.6218L279.472 195.572L278.057 196.986L174.107 93.0361L175.522 91.6218ZM283.714 195.572L387.664 91.6218L389.079 93.036L285.129 196.986L283.714 195.572ZM387.664 87.3791L283.714 -16.5709L285.129 -17.9851L389.079 85.9649L387.664 87.3791ZM387.664 91.6218C388.836 90.4502 388.836 88.5507 387.664 87.3791L389.079 85.9649C391.031 87.9175 391.031 91.0834 389.079 93.036L387.664 91.6218ZM279.472 195.572C280.643 196.743 282.543 196.743 283.714 195.572L285.129 196.986C283.176 198.939 280.01 198.939 278.057 196.986L279.472 195.572ZM175.522 87.3792C174.35 88.5508 174.35 90.4503 175.522 91.6218L174.107 93.0361C172.155 91.0834 172.155 87.9176 174.107 85.965L175.522 87.3792ZM278.058 -17.9851C280.01 -19.9377 283.176 -19.9377 285.129 -17.9851L283.714 -16.5709C282.543 -17.7425 280.643 -17.7425 279.472 -16.5709L278.058 -17.9851Z" fill="white" mask="url(#path-1-outside-1_20_545)"/>
<mask id="path-3-outside-2_20_545" maskUnits="userSpaceOnUse" x="236.3" y="-88.2677" width="223.446" height="223.446" fill="black">
<rect fill="white" x="236.3" y="-88.2677" width="223.446" height="223.446"/>
<path d="M350.852 -84.0251C349.29 -85.5872 346.757 -85.5872 345.195 -84.0251L241.245 19.925C239.683 21.4871 239.683 24.0198 241.245 25.5819L345.195 129.532C346.757 131.094 349.29 131.094 350.852 129.532L454.802 25.5818C456.364 24.0197 456.364 21.487 454.802 19.9249L350.852 -84.0251Z"/>
</mask>
<path d="M350.852 -84.0251C349.29 -85.5872 346.757 -85.5872 345.195 -84.0251L241.245 19.925C239.683 21.4871 239.683 24.0198 241.245 25.5819L345.195 129.532C346.757 131.094 349.29 131.094 350.852 129.532L454.802 25.5818C456.364 24.0197 456.364 21.487 454.802 19.9249L350.852 -84.0251Z" fill="white" fill-opacity="0.1"/>
<path d="M350.852 129.532L350.145 128.825L350.852 129.532ZM241.245 19.925L240.538 19.2179L241.245 19.925ZM345.902 -83.318L241.952 20.6321L240.538 19.2179L344.488 -84.7322L345.902 -83.318ZM241.952 24.8748L345.902 128.825L344.488 130.239L240.538 26.289L241.952 24.8748ZM350.145 128.825L454.095 24.8747L455.509 26.2889L351.559 130.239L350.145 128.825ZM454.095 20.6321L350.145 -83.318L351.559 -84.7322L455.509 19.2178L454.095 20.6321ZM454.095 24.8747C455.266 23.7031 455.266 21.8036 454.095 20.6321L455.509 19.2178C457.462 21.1705 457.462 24.3363 455.509 26.2889L454.095 24.8747ZM345.902 128.825C347.074 129.996 348.973 129.996 350.145 128.825L351.559 130.239C349.606 132.192 346.44 132.192 344.488 130.239L345.902 128.825ZM241.952 20.6321C240.78 21.8037 240.78 23.7032 241.952 24.8748L240.538 26.289C238.585 24.3364 238.585 21.1705 240.538 19.2179L241.952 20.6321ZM344.488 -84.7322C346.44 -86.6848 349.606 -86.6848 351.559 -84.7322L350.145 -83.318C348.973 -84.4896 347.074 -84.4896 345.902 -83.318L344.488 -84.7322Z" fill="white" mask="url(#path-3-outside-2_20_545)"/>
<mask id="path-5-outside-3_20_545" maskUnits="userSpaceOnUse" x="236.3" y="44.6573" width="223.446" height="223.446" fill="black">
<rect fill="white" x="236.3" y="44.6573" width="223.446" height="223.446"/>
<path d="M350.852 48.8999C349.29 47.3378 346.757 47.3378 345.195 48.8999L241.245 152.85C239.683 154.412 239.683 156.945 241.245 158.507L345.195 262.457C346.757 264.019 349.29 264.019 350.852 262.457L454.802 158.507C456.364 156.945 456.364 154.412 454.802 152.85L350.852 48.8999Z"/>
</mask>
<path d="M350.852 48.8999C349.29 47.3378 346.757 47.3378 345.195 48.8999L241.245 152.85C239.683 154.412 239.683 156.945 241.245 158.507L345.195 262.457C346.757 264.019 349.29 264.019 350.852 262.457L454.802 158.507C456.364 156.945 456.364 154.412 454.802 152.85L350.852 48.8999Z" fill="white" fill-opacity="0.1"/>
<path d="M241.245 152.85L241.952 153.557L241.245 152.85ZM345.902 49.607L241.952 153.557L240.538 152.143L344.488 48.1928L345.902 49.607ZM241.952 157.8L345.902 261.75L344.488 263.164L240.538 159.214L241.952 157.8ZM350.145 261.75L454.095 157.8L455.509 159.214L351.559 263.164L350.145 261.75ZM454.095 153.557L350.145 49.607L351.559 48.1928L455.509 152.143L454.095 153.557ZM454.095 157.8C455.266 156.628 455.266 154.729 454.095 153.557L455.509 152.143C457.462 154.095 457.462 157.261 455.509 159.214L454.095 157.8ZM345.902 261.75C347.074 262.921 348.973 262.921 350.145 261.75L351.559 263.164C349.606 265.117 346.44 265.117 344.488 263.164L345.902 261.75ZM241.952 153.557C240.78 154.729 240.78 156.628 241.952 157.8L240.538 159.214C238.585 157.261 238.585 154.096 240.538 152.143L241.952 153.557ZM344.488 48.1928C346.44 46.2402 349.606 46.2402 351.559 48.1928L350.145 49.607C348.973 48.4354 347.074 48.4354 345.902 49.607L344.488 48.1928Z" fill="white" mask="url(#path-5-outside-3_20_545)"/>
</g>
</g>
<defs>
<clipPath id="clip0_20_545">
<rect width="320" height="48" fill="white"/>
</clipPath>
</defs>
</svg>
