<svg width="46" height="44" viewBox="0 0 46 44" fill="none" xmlns="http://www.w3.org/2000/svg">
<path d="M40.4313 20.0615C40.3162 20.0986 40.1566 20.1691 40.0787 20.2137C39.8597 20.3473 27.6888 32.525 27.6183 32.6847C27.5849 32.7589 27.21 34.051 26.7795 35.5546C26.2524 37.4035 26 38.3503 26 38.4691C26 38.7847 26.2153 39 26.5271 39C26.7015 39 31.8423 37.5669 32.2543 37.3998C32.4213 37.3367 33.1488 36.6202 38.5717 31.1922C42.4802 27.279 44.7332 24.9994 44.7926 24.8917C44.9559 24.6021 45.0153 24.3274 44.9967 23.9301C44.9707 23.2841 44.9893 23.3138 43.3747 21.6876C42.0793 20.3845 41.9605 20.2731 41.7044 20.1468C41.4446 20.0169 41.4038 20.0095 41.0363 20.0021C40.7319 19.9946 40.5946 20.0058 40.4313 20.0615ZM41.2107 21.1938C41.3332 21.2607 43.7533 23.6888 43.8127 23.8039C43.835 23.8484 43.8535 23.9635 43.8535 24.06V24.2383L43.1965 24.8991L42.5358 25.56L40.988 24.0118L39.4365 22.4599L40.0972 21.799L40.7579 21.1419H40.9361C41.0326 21.1419 41.1551 21.1641 41.2107 21.1938ZM40.1789 24.836L41.7193 26.3768L36.894 31.2033L32.0687 36.0298L30.5209 34.4816L28.9694 32.9297L33.7835 28.1143C36.4337 25.4635 38.6088 23.2952 38.6199 23.2952C38.6311 23.2952 39.3326 23.9895 40.1789 24.836ZM30.8884 36.5942C30.8178 36.6313 27.4402 37.5929 27.4253 37.578C27.4142 37.5669 28.0526 35.291 28.3421 34.3071L28.4201 34.051L29.6783 35.3096C30.5283 36.1598 30.9181 36.5756 30.8884 36.5942Z" fill="#FFB979" fill-opacity="0.5" stroke="#FFB979" stroke-opacity="0.5" stroke-width="0.7"/>
<path fill-rule="evenodd" clip-rule="evenodd" d="M2 17V22H7V17H2ZM1 15C0.447715 15 0 15.4477 0 16V23C0 23.5523 0.447715 24 1 24H8C8.55229 24 9 23.5523 9 23V16C9 15.4477 8.55229 15 8 15H1Z" fill="#FFB979" fill-opacity="0.5"/>
<path fill-rule="evenodd" clip-rule="evenodd" d="M2 29V34H7V29H2ZM1 27C0.447715 27 0 27.4477 0 28V35C0 35.5523 0.447715 36 1 36H8C8.55229 36 9 35.5523 9 35V28C9 27.4477 8.55229 27 8 27H1Z" fill="#FFB979" fill-opacity="0.5"/>
<path fill-rule="evenodd" clip-rule="evenodd" d="M2 41V46H7V41H2ZM1 39C0.447715 39 0 39.4477 0 40V47C0 47.5523 0.447715 48 1 48H8C8.55229 48 9 47.5523 9 47V40C9 39.4477 8.55229 39 8 39H1Z" fill="#FFB979" fill-opacity="0.5"/>
<path fill-rule="evenodd" clip-rule="evenodd" d="M11 17C11 16.4477 11.4477 16 12 16H26C26.5523 16 27 16.4477 27 17C27 17.5523 26.5523 18 26 18H12C11.4477 18 11 17.5523 11 17Z" fill="#FFB979" fill-opacity="0.5"/>
<path fill-rule="evenodd" clip-rule="evenodd" d="M11 29C11 28.4477 11.4477 28 12 28H26C26.5523 28 27 28.4477 27 29C27 29.5523 26.5523 30 26 30H12C11.4477 30 11 29.5523 11 29Z" fill="#FFB979" fill-opacity="0.5"/>
<path fill-rule="evenodd" clip-rule="evenodd" d="M11 41C11 40.4477 11.4477 40 12 40H26C26.5523 40 27 40.4477 27 41C27 41.5523 26.5523 42 26 42H12C11.4477 42 11 41.5523 11 41Z" fill="#FFB979" fill-opacity="0.5"/>
<path fill-rule="evenodd" clip-rule="evenodd" d="M11 21C11 20.4477 11.4477 20 12 20H22C22.5523 20 23 20.4477 23 21C23 21.5523 22.5523 22 22 22H12C11.4477 22 11 21.5523 11 21Z" fill="#FFB979" fill-opacity="0.5"/>
<path fill-rule="evenodd" clip-rule="evenodd" d="M11 33C11 32.4477 11.4477 32 12 32H22C22.5523 32 23 32.4477 23 33C23 33.5523 22.5523 34 22 34H12C11.4477 34 11 33.5523 11 33Z" fill="#FFB979" fill-opacity="0.5"/>
<circle cx="18" cy="8" r="1" fill="white"/>
<circle cx="40" cy="2" r="2" fill="white"/>
</svg>
